<?xml version="1.0" encoding="utf-8" standalone="no"?>
<!DOCTYPE svg PUBLIC "-//W3C//DTD SVG 1.1//EN"
  "http://www.w3.org/Graphics/SVG/1.1/DTD/svg11.dtd">
<svg xmlns:xlink="http://www.w3.org/1999/xlink" width="3536.425312pt" height="2166.851406pt" viewBox="0 0 3536.425312 2166.851406" xmlns="http://www.w3.org/2000/svg" version="1.1">
 <metadata>
  <rdf:RDF xmlns:dc="http://purl.org/dc/elements/1.1/" xmlns:cc="http://creativecommons.org/ns#" xmlns:rdf="http://www.w3.org/1999/02/22-rdf-syntax-ns#">
   <cc:Work>
    <dc:type rdf:resource="http://purl.org/dc/dcmitype/StillImage"/>
    <dc:date>2022-11-14T20:17:25.292846</dc:date>
    <dc:format>image/svg+xml</dc:format>
    <dc:creator>
     <cc:Agent>
      <dc:title>Matplotlib v3.5.2, https://matplotlib.org/</dc:title>
     </cc:Agent>
    </dc:creator>
   </cc:Work>
  </rdf:RDF>
 </metadata>
 <defs>
  <style type="text/css">*{stroke-linejoin: round; stroke-linecap: butt}</style>
 </defs>
 <g id="figure_1">
  <g id="patch_1">
   <path d="M -0 2166.851406 
L 3536.425312 2166.851406 
L 3536.425312 0 
L -0 0 
z
" style="fill: #ffffff"/>
  </g>
  <g id="axes_1">
   <g id="patch_2">
    <path d="M 90.325312 2082.626875 
L 3529.225312 2082.626875 
L 3529.225312 39.406875 
L 90.325312 39.406875 
z
" style="fill: #eaeaf2"/>
   </g>
   <g id="matplotlib.axis_1">
    <g id="xtick_1">
     <g id="line2d_1">
      <path d="M 246.638949 2082.626875 
L 246.638949 39.406875 
" clip-path="url(#p393599e38f)" style="fill: none; stroke: #ffffff; stroke-linecap: round"/>
     </g>
     <g id="text_1">
      <!-- 0.0 -->
      <g style="fill: #262626" transform="translate(223.703949 2115.747656)scale(0.33 -0.33)">
       <defs>
        <path id="ArialMT-30" d="M 266 2259 
Q 266 3072 433 3567 
Q 600 4063 929 4331 
Q 1259 4600 1759 4600 
Q 2128 4600 2406 4451 
Q 2684 4303 2865 4023 
Q 3047 3744 3150 3342 
Q 3253 2941 3253 2259 
Q 3253 1453 3087 958 
Q 2922 463 2592 192 
Q 2263 -78 1759 -78 
Q 1097 -78 719 397 
Q 266 969 266 2259 
z
M 844 2259 
Q 844 1131 1108 757 
Q 1372 384 1759 384 
Q 2147 384 2411 759 
Q 2675 1134 2675 2259 
Q 2675 3391 2411 3762 
Q 2147 4134 1753 4134 
Q 1366 4134 1134 3806 
Q 844 3388 844 2259 
z
" transform="scale(0.015625)"/>
        <path id="ArialMT-2e" d="M 581 0 
L 581 641 
L 1222 641 
L 1222 0 
L 581 0 
z
" transform="scale(0.015625)"/>
       </defs>
       <use xlink:href="#ArialMT-30"/>
       <use xlink:href="#ArialMT-2e" x="55.615234"/>
       <use xlink:href="#ArialMT-30" x="83.398438"/>
      </g>
     </g>
    </g>
    <g id="xtick_2">
     <g id="line2d_2">
      <path d="M 871.893494 2082.626875 
L 871.893494 39.406875 
" clip-path="url(#p393599e38f)" style="fill: none; stroke: #ffffff; stroke-linecap: round"/>
     </g>
     <g id="text_2">
      <!-- 0.2 -->
      <g style="fill: #262626" transform="translate(848.958494 2115.747656)scale(0.33 -0.33)">
       <defs>
        <path id="ArialMT-32" d="M 3222 541 
L 3222 0 
L 194 0 
Q 188 203 259 391 
Q 375 700 629 1000 
Q 884 1300 1366 1694 
Q 2113 2306 2375 2664 
Q 2638 3022 2638 3341 
Q 2638 3675 2398 3904 
Q 2159 4134 1775 4134 
Q 1369 4134 1125 3890 
Q 881 3647 878 3216 
L 300 3275 
Q 359 3922 746 4261 
Q 1134 4600 1788 4600 
Q 2447 4600 2831 4234 
Q 3216 3869 3216 3328 
Q 3216 3053 3103 2787 
Q 2991 2522 2730 2228 
Q 2469 1934 1863 1422 
Q 1356 997 1212 845 
Q 1069 694 975 541 
L 3222 541 
z
" transform="scale(0.015625)"/>
       </defs>
       <use xlink:href="#ArialMT-30"/>
       <use xlink:href="#ArialMT-2e" x="55.615234"/>
       <use xlink:href="#ArialMT-32" x="83.398438"/>
      </g>
     </g>
    </g>
    <g id="xtick_3">
     <g id="line2d_3">
      <path d="M 1497.14804 2082.626875 
L 1497.14804 39.406875 
" clip-path="url(#p393599e38f)" style="fill: none; stroke: #ffffff; stroke-linecap: round"/>
     </g>
     <g id="text_3">
      <!-- 0.4 -->
      <g style="fill: #262626" transform="translate(1474.21304 2115.747656)scale(0.33 -0.33)">
       <defs>
        <path id="ArialMT-34" d="M 2069 0 
L 2069 1097 
L 81 1097 
L 81 1613 
L 2172 4581 
L 2631 4581 
L 2631 1613 
L 3250 1613 
L 3250 1097 
L 2631 1097 
L 2631 0 
L 2069 0 
z
M 2069 1613 
L 2069 3678 
L 634 1613 
L 2069 1613 
z
" transform="scale(0.015625)"/>
       </defs>
       <use xlink:href="#ArialMT-30"/>
       <use xlink:href="#ArialMT-2e" x="55.615234"/>
       <use xlink:href="#ArialMT-34" x="83.398438"/>
      </g>
     </g>
    </g>
    <g id="xtick_4">
     <g id="line2d_4">
      <path d="M 2122.402585 2082.626875 
L 2122.402585 39.406875 
" clip-path="url(#p393599e38f)" style="fill: none; stroke: #ffffff; stroke-linecap: round"/>
     </g>
     <g id="text_4">
      <!-- 0.6 -->
      <g style="fill: #262626" transform="translate(2099.467585 2115.747656)scale(0.33 -0.33)">
       <defs>
        <path id="ArialMT-36" d="M 3184 3459 
L 2625 3416 
Q 2550 3747 2413 3897 
Q 2184 4138 1850 4138 
Q 1581 4138 1378 3988 
Q 1113 3794 959 3422 
Q 806 3050 800 2363 
Q 1003 2672 1297 2822 
Q 1591 2972 1913 2972 
Q 2475 2972 2870 2558 
Q 3266 2144 3266 1488 
Q 3266 1056 3080 686 
Q 2894 316 2569 119 
Q 2244 -78 1831 -78 
Q 1128 -78 684 439 
Q 241 956 241 2144 
Q 241 3472 731 4075 
Q 1159 4600 1884 4600 
Q 2425 4600 2770 4297 
Q 3116 3994 3184 3459 
z
M 888 1484 
Q 888 1194 1011 928 
Q 1134 663 1356 523 
Q 1578 384 1822 384 
Q 2178 384 2434 671 
Q 2691 959 2691 1453 
Q 2691 1928 2437 2201 
Q 2184 2475 1800 2475 
Q 1419 2475 1153 2201 
Q 888 1928 888 1484 
z
" transform="scale(0.015625)"/>
       </defs>
       <use xlink:href="#ArialMT-30"/>
       <use xlink:href="#ArialMT-2e" x="55.615234"/>
       <use xlink:href="#ArialMT-36" x="83.398438"/>
      </g>
     </g>
    </g>
    <g id="xtick_5">
     <g id="line2d_5">
      <path d="M 2747.657131 2082.626875 
L 2747.657131 39.406875 
" clip-path="url(#p393599e38f)" style="fill: none; stroke: #ffffff; stroke-linecap: round"/>
     </g>
     <g id="text_5">
      <!-- 0.8 -->
      <g style="fill: #262626" transform="translate(2724.722131 2115.747656)scale(0.33 -0.33)">
       <defs>
        <path id="ArialMT-38" d="M 1131 2484 
Q 781 2613 612 2850 
Q 444 3088 444 3419 
Q 444 3919 803 4259 
Q 1163 4600 1759 4600 
Q 2359 4600 2725 4251 
Q 3091 3903 3091 3403 
Q 3091 3084 2923 2848 
Q 2756 2613 2416 2484 
Q 2838 2347 3058 2040 
Q 3278 1734 3278 1309 
Q 3278 722 2862 322 
Q 2447 -78 1769 -78 
Q 1091 -78 675 323 
Q 259 725 259 1325 
Q 259 1772 486 2073 
Q 713 2375 1131 2484 
z
M 1019 3438 
Q 1019 3113 1228 2906 
Q 1438 2700 1772 2700 
Q 2097 2700 2305 2904 
Q 2513 3109 2513 3406 
Q 2513 3716 2298 3927 
Q 2084 4138 1766 4138 
Q 1444 4138 1231 3931 
Q 1019 3725 1019 3438 
z
M 838 1322 
Q 838 1081 952 856 
Q 1066 631 1291 507 
Q 1516 384 1775 384 
Q 2178 384 2440 643 
Q 2703 903 2703 1303 
Q 2703 1709 2433 1975 
Q 2163 2241 1756 2241 
Q 1359 2241 1098 1978 
Q 838 1716 838 1322 
z
" transform="scale(0.015625)"/>
       </defs>
       <use xlink:href="#ArialMT-30"/>
       <use xlink:href="#ArialMT-2e" x="55.615234"/>
       <use xlink:href="#ArialMT-38" x="83.398438"/>
      </g>
     </g>
    </g>
    <g id="xtick_6">
     <g id="line2d_6">
      <path d="M 3372.911676 2082.626875 
L 3372.911676 39.406875 
" clip-path="url(#p393599e38f)" style="fill: none; stroke: #ffffff; stroke-linecap: round"/>
     </g>
     <g id="text_6">
      <!-- 1.0 -->
      <g style="fill: #262626" transform="translate(3349.976676 2115.747656)scale(0.33 -0.33)">
       <defs>
        <path id="ArialMT-31" d="M 2384 0 
L 1822 0 
L 1822 3584 
Q 1619 3391 1289 3197 
Q 959 3003 697 2906 
L 697 3450 
Q 1169 3672 1522 3987 
Q 1875 4303 2022 4600 
L 2384 4600 
L 2384 0 
z
" transform="scale(0.015625)"/>
       </defs>
       <use xlink:href="#ArialMT-31"/>
       <use xlink:href="#ArialMT-2e" x="55.615234"/>
       <use xlink:href="#ArialMT-30" x="83.398438"/>
      </g>
     </g>
    </g>
    <g id="text_7">
     <!-- probability -->
     <g style="fill: #262626" transform="translate(1727.734687 2152.074531)scale(0.36 -0.36)">
      <defs>
       <path id="ArialMT-70" d="M 422 -1272 
L 422 3319 
L 934 3319 
L 934 2888 
Q 1116 3141 1344 3267 
Q 1572 3394 1897 3394 
Q 2322 3394 2647 3175 
Q 2972 2956 3137 2557 
Q 3303 2159 3303 1684 
Q 3303 1175 3120 767 
Q 2938 359 2589 142 
Q 2241 -75 1856 -75 
Q 1575 -75 1351 44 
Q 1128 163 984 344 
L 984 -1272 
L 422 -1272 
z
M 931 1641 
Q 931 1000 1190 694 
Q 1450 388 1819 388 
Q 2194 388 2461 705 
Q 2728 1022 2728 1688 
Q 2728 2322 2467 2637 
Q 2206 2953 1844 2953 
Q 1484 2953 1207 2617 
Q 931 2281 931 1641 
z
" transform="scale(0.015625)"/>
       <path id="ArialMT-72" d="M 416 0 
L 416 3319 
L 922 3319 
L 922 2816 
Q 1116 3169 1280 3281 
Q 1444 3394 1641 3394 
Q 1925 3394 2219 3213 
L 2025 2691 
Q 1819 2813 1613 2813 
Q 1428 2813 1281 2702 
Q 1134 2591 1072 2394 
Q 978 2094 978 1738 
L 978 0 
L 416 0 
z
" transform="scale(0.015625)"/>
       <path id="ArialMT-6f" d="M 213 1659 
Q 213 2581 725 3025 
Q 1153 3394 1769 3394 
Q 2453 3394 2887 2945 
Q 3322 2497 3322 1706 
Q 3322 1066 3130 698 
Q 2938 331 2570 128 
Q 2203 -75 1769 -75 
Q 1072 -75 642 372 
Q 213 819 213 1659 
z
M 791 1659 
Q 791 1022 1069 705 
Q 1347 388 1769 388 
Q 2188 388 2466 706 
Q 2744 1025 2744 1678 
Q 2744 2294 2464 2611 
Q 2184 2928 1769 2928 
Q 1347 2928 1069 2612 
Q 791 2297 791 1659 
z
" transform="scale(0.015625)"/>
       <path id="ArialMT-62" d="M 941 0 
L 419 0 
L 419 4581 
L 981 4581 
L 981 2947 
Q 1338 3394 1891 3394 
Q 2197 3394 2470 3270 
Q 2744 3147 2920 2923 
Q 3097 2700 3197 2384 
Q 3297 2069 3297 1709 
Q 3297 856 2875 390 
Q 2453 -75 1863 -75 
Q 1275 -75 941 416 
L 941 0 
z
M 934 1684 
Q 934 1088 1097 822 
Q 1363 388 1816 388 
Q 2184 388 2453 708 
Q 2722 1028 2722 1663 
Q 2722 2313 2464 2622 
Q 2206 2931 1841 2931 
Q 1472 2931 1203 2611 
Q 934 2291 934 1684 
z
" transform="scale(0.015625)"/>
       <path id="ArialMT-61" d="M 2588 409 
Q 2275 144 1986 34 
Q 1697 -75 1366 -75 
Q 819 -75 525 192 
Q 231 459 231 875 
Q 231 1119 342 1320 
Q 453 1522 633 1644 
Q 813 1766 1038 1828 
Q 1203 1872 1538 1913 
Q 2219 1994 2541 2106 
Q 2544 2222 2544 2253 
Q 2544 2597 2384 2738 
Q 2169 2928 1744 2928 
Q 1347 2928 1158 2789 
Q 969 2650 878 2297 
L 328 2372 
Q 403 2725 575 2942 
Q 747 3159 1072 3276 
Q 1397 3394 1825 3394 
Q 2250 3394 2515 3294 
Q 2781 3194 2906 3042 
Q 3031 2891 3081 2659 
Q 3109 2516 3109 2141 
L 3109 1391 
Q 3109 606 3145 398 
Q 3181 191 3288 0 
L 2700 0 
Q 2613 175 2588 409 
z
M 2541 1666 
Q 2234 1541 1622 1453 
Q 1275 1403 1131 1340 
Q 988 1278 909 1158 
Q 831 1038 831 891 
Q 831 666 1001 516 
Q 1172 366 1500 366 
Q 1825 366 2078 508 
Q 2331 650 2450 897 
Q 2541 1088 2541 1459 
L 2541 1666 
z
" transform="scale(0.015625)"/>
       <path id="ArialMT-69" d="M 425 3934 
L 425 4581 
L 988 4581 
L 988 3934 
L 425 3934 
z
M 425 0 
L 425 3319 
L 988 3319 
L 988 0 
L 425 0 
z
" transform="scale(0.015625)"/>
       <path id="ArialMT-6c" d="M 409 0 
L 409 4581 
L 972 4581 
L 972 0 
L 409 0 
z
" transform="scale(0.015625)"/>
       <path id="ArialMT-74" d="M 1650 503 
L 1731 6 
Q 1494 -44 1306 -44 
Q 1000 -44 831 53 
Q 663 150 594 308 
Q 525 466 525 972 
L 525 2881 
L 113 2881 
L 113 3319 
L 525 3319 
L 525 4141 
L 1084 4478 
L 1084 3319 
L 1650 3319 
L 1650 2881 
L 1084 2881 
L 1084 941 
Q 1084 700 1114 631 
Q 1144 563 1211 522 
Q 1278 481 1403 481 
Q 1497 481 1650 503 
z
" transform="scale(0.015625)"/>
       <path id="ArialMT-79" d="M 397 -1278 
L 334 -750 
Q 519 -800 656 -800 
Q 844 -800 956 -737 
Q 1069 -675 1141 -563 
Q 1194 -478 1313 -144 
Q 1328 -97 1363 -6 
L 103 3319 
L 709 3319 
L 1400 1397 
Q 1534 1031 1641 628 
Q 1738 1016 1872 1384 
L 2581 3319 
L 3144 3319 
L 1881 -56 
Q 1678 -603 1566 -809 
Q 1416 -1088 1222 -1217 
Q 1028 -1347 759 -1347 
Q 597 -1347 397 -1278 
z
" transform="scale(0.015625)"/>
      </defs>
      <use xlink:href="#ArialMT-70"/>
      <use xlink:href="#ArialMT-72" x="55.615234"/>
      <use xlink:href="#ArialMT-6f" x="88.916016"/>
      <use xlink:href="#ArialMT-62" x="144.53125"/>
      <use xlink:href="#ArialMT-61" x="200.146484"/>
      <use xlink:href="#ArialMT-62" x="255.761719"/>
      <use xlink:href="#ArialMT-69" x="311.376953"/>
      <use xlink:href="#ArialMT-6c" x="333.59375"/>
      <use xlink:href="#ArialMT-69" x="355.810547"/>
      <use xlink:href="#ArialMT-74" x="378.027344"/>
      <use xlink:href="#ArialMT-79" x="405.810547"/>
     </g>
    </g>
   </g>
   <g id="matplotlib.axis_2">
    <g id="ytick_1">
     <g id="line2d_7">
      <path d="M 90.325312 2082.626875 
L 3529.225312 2082.626875 
" clip-path="url(#p393599e38f)" style="fill: none; stroke: #ffffff; stroke-linecap: round"/>
     </g>
     <g id="text_8">
      <!-- 0 -->
      <g style="fill: #262626" transform="translate(62.474219 2094.437266)scale(0.33 -0.33)">
       <use xlink:href="#ArialMT-30"/>
      </g>
     </g>
    </g>
    <g id="ytick_2">
     <g id="line2d_8">
      <path d="M 90.325312 1787.789934 
L 3529.225312 1787.789934 
" clip-path="url(#p393599e38f)" style="fill: none; stroke: #ffffff; stroke-linecap: round"/>
     </g>
     <g id="text_9">
      <!-- 5 -->
      <g style="fill: #262626" transform="translate(62.474219 1799.600325)scale(0.33 -0.33)">
       <defs>
        <path id="ArialMT-35" d="M 266 1200 
L 856 1250 
Q 922 819 1161 601 
Q 1400 384 1738 384 
Q 2144 384 2425 690 
Q 2706 997 2706 1503 
Q 2706 1984 2436 2262 
Q 2166 2541 1728 2541 
Q 1456 2541 1237 2417 
Q 1019 2294 894 2097 
L 366 2166 
L 809 4519 
L 3088 4519 
L 3088 3981 
L 1259 3981 
L 1013 2750 
Q 1425 3038 1878 3038 
Q 2478 3038 2890 2622 
Q 3303 2206 3303 1553 
Q 3303 931 2941 478 
Q 2500 -78 1738 -78 
Q 1113 -78 717 272 
Q 322 622 266 1200 
z
" transform="scale(0.015625)"/>
       </defs>
       <use xlink:href="#ArialMT-35"/>
      </g>
     </g>
    </g>
    <g id="ytick_3">
     <g id="line2d_9">
      <path d="M 90.325312 1492.952993 
L 3529.225312 1492.952993 
" clip-path="url(#p393599e38f)" style="fill: none; stroke: #ffffff; stroke-linecap: round"/>
     </g>
     <g id="text_10">
      <!-- 10 -->
      <g style="fill: #262626" transform="translate(44.123125 1504.763384)scale(0.33 -0.33)">
       <use xlink:href="#ArialMT-31"/>
       <use xlink:href="#ArialMT-30" x="55.615234"/>
      </g>
     </g>
    </g>
    <g id="ytick_4">
     <g id="line2d_10">
      <path d="M 90.325312 1198.116052 
L 3529.225312 1198.116052 
" clip-path="url(#p393599e38f)" style="fill: none; stroke: #ffffff; stroke-linecap: round"/>
     </g>
     <g id="text_11">
      <!-- 15 -->
      <g style="fill: #262626" transform="translate(44.123125 1209.926443)scale(0.33 -0.33)">
       <use xlink:href="#ArialMT-31"/>
       <use xlink:href="#ArialMT-35" x="55.615234"/>
      </g>
     </g>
    </g>
    <g id="ytick_5">
     <g id="line2d_11">
      <path d="M 90.325312 903.279112 
L 3529.225312 903.279112 
" clip-path="url(#p393599e38f)" style="fill: none; stroke: #ffffff; stroke-linecap: round"/>
     </g>
     <g id="text_12">
      <!-- 20 -->
      <g style="fill: #262626" transform="translate(44.123125 915.089502)scale(0.33 -0.33)">
       <use xlink:href="#ArialMT-32"/>
       <use xlink:href="#ArialMT-30" x="55.615234"/>
      </g>
     </g>
    </g>
    <g id="ytick_6">
     <g id="line2d_12">
      <path d="M 90.325312 608.442171 
L 3529.225312 608.442171 
" clip-path="url(#p393599e38f)" style="fill: none; stroke: #ffffff; stroke-linecap: round"/>
     </g>
     <g id="text_13">
      <!-- 25 -->
      <g style="fill: #262626" transform="translate(44.123125 620.252561)scale(0.33 -0.33)">
       <use xlink:href="#ArialMT-32"/>
       <use xlink:href="#ArialMT-35" x="55.615234"/>
      </g>
     </g>
    </g>
    <g id="ytick_7">
     <g id="line2d_13">
      <path d="M 90.325312 313.60523 
L 3529.225312 313.60523 
" clip-path="url(#p393599e38f)" style="fill: none; stroke: #ffffff; stroke-linecap: round"/>
     </g>
     <g id="text_14">
      <!-- 30 -->
      <g style="fill: #262626" transform="translate(44.123125 325.415621)scale(0.33 -0.33)">
       <defs>
        <path id="ArialMT-33" d="M 269 1209 
L 831 1284 
Q 928 806 1161 595 
Q 1394 384 1728 384 
Q 2125 384 2398 659 
Q 2672 934 2672 1341 
Q 2672 1728 2419 1979 
Q 2166 2231 1775 2231 
Q 1616 2231 1378 2169 
L 1441 2663 
Q 1497 2656 1531 2656 
Q 1891 2656 2178 2843 
Q 2466 3031 2466 3422 
Q 2466 3731 2256 3934 
Q 2047 4138 1716 4138 
Q 1388 4138 1169 3931 
Q 950 3725 888 3313 
L 325 3413 
Q 428 3978 793 4289 
Q 1159 4600 1703 4600 
Q 2078 4600 2393 4439 
Q 2709 4278 2876 4000 
Q 3044 3722 3044 3409 
Q 3044 3113 2884 2869 
Q 2725 2625 2413 2481 
Q 2819 2388 3044 2092 
Q 3269 1797 3269 1353 
Q 3269 753 2831 336 
Q 2394 -81 1725 -81 
Q 1122 -81 723 278 
Q 325 638 269 1209 
z
" transform="scale(0.015625)"/>
       </defs>
       <use xlink:href="#ArialMT-33"/>
       <use xlink:href="#ArialMT-30" x="55.615234"/>
      </g>
     </g>
    </g>
    <g id="text_15">
     <!-- Count -->
     <g style="fill: #262626" transform="translate(32.968125 1109.045937)rotate(-90)scale(0.36 -0.36)">
      <defs>
       <path id="ArialMT-43" d="M 3763 1606 
L 4369 1453 
Q 4178 706 3683 314 
Q 3188 -78 2472 -78 
Q 1731 -78 1267 223 
Q 803 525 561 1097 
Q 319 1669 319 2325 
Q 319 3041 592 3573 
Q 866 4106 1370 4382 
Q 1875 4659 2481 4659 
Q 3169 4659 3637 4309 
Q 4106 3959 4291 3325 
L 3694 3184 
Q 3534 3684 3231 3912 
Q 2928 4141 2469 4141 
Q 1941 4141 1586 3887 
Q 1231 3634 1087 3207 
Q 944 2781 944 2328 
Q 944 1744 1114 1308 
Q 1284 872 1643 656 
Q 2003 441 2422 441 
Q 2931 441 3284 734 
Q 3638 1028 3763 1606 
z
" transform="scale(0.015625)"/>
       <path id="ArialMT-75" d="M 2597 0 
L 2597 488 
Q 2209 -75 1544 -75 
Q 1250 -75 995 37 
Q 741 150 617 320 
Q 494 491 444 738 
Q 409 903 409 1263 
L 409 3319 
L 972 3319 
L 972 1478 
Q 972 1038 1006 884 
Q 1059 663 1231 536 
Q 1403 409 1656 409 
Q 1909 409 2131 539 
Q 2353 669 2445 892 
Q 2538 1116 2538 1541 
L 2538 3319 
L 3100 3319 
L 3100 0 
L 2597 0 
z
" transform="scale(0.015625)"/>
       <path id="ArialMT-6e" d="M 422 0 
L 422 3319 
L 928 3319 
L 928 2847 
Q 1294 3394 1984 3394 
Q 2284 3394 2536 3286 
Q 2788 3178 2913 3003 
Q 3038 2828 3088 2588 
Q 3119 2431 3119 2041 
L 3119 0 
L 2556 0 
L 2556 2019 
Q 2556 2363 2490 2533 
Q 2425 2703 2258 2804 
Q 2091 2906 1866 2906 
Q 1506 2906 1245 2678 
Q 984 2450 984 1813 
L 984 0 
L 422 0 
z
" transform="scale(0.015625)"/>
      </defs>
      <use xlink:href="#ArialMT-43"/>
      <use xlink:href="#ArialMT-6f" x="72.216797"/>
      <use xlink:href="#ArialMT-75" x="127.832031"/>
      <use xlink:href="#ArialMT-6e" x="183.447266"/>
      <use xlink:href="#ArialMT-74" x="239.0625"/>
     </g>
    </g>
   </g>
   <g id="patch_3">
    <path d="M 277.901676 2082.626875 
L 309.164403 2082.626875 
L 309.164403 2082.626875 
L 277.901676 2082.626875 
z
" clip-path="url(#p393599e38f)" style="fill: #ffa500; fill-opacity: 0.5; stroke: #ffffff; stroke-linejoin: miter"/>
   </g>
   <g id="patch_4">
    <path d="M 309.164403 2082.626875 
L 340.427131 2082.626875 
L 340.427131 2082.626875 
L 309.164403 2082.626875 
z
" clip-path="url(#p393599e38f)" style="fill: #ffa500; fill-opacity: 0.5; stroke: #ffffff; stroke-linejoin: miter"/>
   </g>
   <g id="patch_5">
    <path d="M 340.427131 2082.626875 
L 371.689858 2082.626875 
L 371.689858 1964.692099 
L 340.427131 1964.692099 
z
" clip-path="url(#p393599e38f)" style="fill: #ffa500; fill-opacity: 0.5; stroke: #ffffff; stroke-linejoin: miter"/>
   </g>
   <g id="patch_6">
    <path d="M 371.689858 2082.626875 
L 402.952585 2082.626875 
L 402.952585 2082.626875 
L 371.689858 2082.626875 
z
" clip-path="url(#p393599e38f)" style="fill: #ffa500; fill-opacity: 0.5; stroke: #ffffff; stroke-linejoin: miter"/>
   </g>
   <g id="patch_7">
    <path d="M 402.952585 2082.626875 
L 434.215312 2082.626875 
L 434.215312 2082.626875 
L 402.952585 2082.626875 
z
" clip-path="url(#p393599e38f)" style="fill: #ffa500; fill-opacity: 0.5; stroke: #ffffff; stroke-linejoin: miter"/>
   </g>
   <g id="patch_8">
    <path d="M 434.215312 2082.626875 
L 465.47804 2082.626875 
L 465.47804 2023.659487 
L 434.215312 2023.659487 
z
" clip-path="url(#p393599e38f)" style="fill: #ffa500; fill-opacity: 0.5; stroke: #ffffff; stroke-linejoin: miter"/>
   </g>
   <g id="patch_9">
    <path d="M 465.47804 2082.626875 
L 496.740767 2082.626875 
L 496.740767 1964.692099 
L 465.47804 1964.692099 
z
" clip-path="url(#p393599e38f)" style="fill: #ffa500; fill-opacity: 0.5; stroke: #ffffff; stroke-linejoin: miter"/>
   </g>
   <g id="patch_10">
    <path d="M 496.740767 2082.626875 
L 528.003494 2082.626875 
L 528.003494 2023.659487 
L 496.740767 2023.659487 
z
" clip-path="url(#p393599e38f)" style="fill: #ffa500; fill-opacity: 0.5; stroke: #ffffff; stroke-linejoin: miter"/>
   </g>
   <g id="patch_11">
    <path d="M 528.003494 2082.626875 
L 559.266222 2082.626875 
L 559.266222 2082.626875 
L 528.003494 2082.626875 
z
" clip-path="url(#p393599e38f)" style="fill: #ffa500; fill-opacity: 0.5; stroke: #ffffff; stroke-linejoin: miter"/>
   </g>
   <g id="patch_12">
    <path d="M 559.266222 2082.626875 
L 590.528949 2082.626875 
L 590.528949 2082.626875 
L 559.266222 2082.626875 
z
" clip-path="url(#p393599e38f)" style="fill: #ffa500; fill-opacity: 0.5; stroke: #ffffff; stroke-linejoin: miter"/>
   </g>
   <g id="patch_13">
    <path d="M 590.528949 2082.626875 
L 621.791676 2082.626875 
L 621.791676 2023.659487 
L 590.528949 2023.659487 
z
" clip-path="url(#p393599e38f)" style="fill: #ffa500; fill-opacity: 0.5; stroke: #ffffff; stroke-linejoin: miter"/>
   </g>
   <g id="patch_14">
    <path d="M 621.791676 2082.626875 
L 653.054403 2082.626875 
L 653.054403 2082.626875 
L 621.791676 2082.626875 
z
" clip-path="url(#p393599e38f)" style="fill: #ffa500; fill-opacity: 0.5; stroke: #ffffff; stroke-linejoin: miter"/>
   </g>
   <g id="patch_15">
    <path d="M 653.054403 2082.626875 
L 684.317131 2082.626875 
L 684.317131 2082.626875 
L 653.054403 2082.626875 
z
" clip-path="url(#p393599e38f)" style="fill: #ffa500; fill-opacity: 0.5; stroke: #ffffff; stroke-linejoin: miter"/>
   </g>
   <g id="patch_16">
    <path d="M 684.317131 2082.626875 
L 715.579858 2082.626875 
L 715.579858 2082.626875 
L 684.317131 2082.626875 
z
" clip-path="url(#p393599e38f)" style="fill: #ffa500; fill-opacity: 0.5; stroke: #ffffff; stroke-linejoin: miter"/>
   </g>
   <g id="patch_17">
    <path d="M 715.579858 2082.626875 
L 746.842585 2082.626875 
L 746.842585 2082.626875 
L 715.579858 2082.626875 
z
" clip-path="url(#p393599e38f)" style="fill: #ffa500; fill-opacity: 0.5; stroke: #ffffff; stroke-linejoin: miter"/>
   </g>
   <g id="patch_18">
    <path d="M 746.842585 2082.626875 
L 778.105312 2082.626875 
L 778.105312 2023.659487 
L 746.842585 2023.659487 
z
" clip-path="url(#p393599e38f)" style="fill: #ffa500; fill-opacity: 0.5; stroke: #ffffff; stroke-linejoin: miter"/>
   </g>
   <g id="patch_19">
    <path d="M 778.105313 2082.626875 
L 809.36804 2082.626875 
L 809.36804 2082.626875 
L 778.105313 2082.626875 
z
" clip-path="url(#p393599e38f)" style="fill: #ffa500; fill-opacity: 0.5; stroke: #ffffff; stroke-linejoin: miter"/>
   </g>
   <g id="patch_20">
    <path d="M 809.36804 2082.626875 
L 840.630767 2082.626875 
L 840.630767 2082.626875 
L 809.36804 2082.626875 
z
" clip-path="url(#p393599e38f)" style="fill: #ffa500; fill-opacity: 0.5; stroke: #ffffff; stroke-linejoin: miter"/>
   </g>
   <g id="patch_21">
    <path d="M 840.630767 2082.626875 
L 871.893494 2082.626875 
L 871.893494 2082.626875 
L 840.630767 2082.626875 
z
" clip-path="url(#p393599e38f)" style="fill: #ffa500; fill-opacity: 0.5; stroke: #ffffff; stroke-linejoin: miter"/>
   </g>
   <g id="patch_22">
    <path d="M 871.893494 2082.626875 
L 903.156222 2082.626875 
L 903.156222 2082.626875 
L 871.893494 2082.626875 
z
" clip-path="url(#p393599e38f)" style="fill: #ffa500; fill-opacity: 0.5; stroke: #ffffff; stroke-linejoin: miter"/>
   </g>
   <g id="patch_23">
    <path d="M 903.156222 2082.626875 
L 934.418949 2082.626875 
L 934.418949 2082.626875 
L 903.156222 2082.626875 
z
" clip-path="url(#p393599e38f)" style="fill: #ffa500; fill-opacity: 0.5; stroke: #ffffff; stroke-linejoin: miter"/>
   </g>
   <g id="patch_24">
    <path d="M 934.418949 2082.626875 
L 965.681676 2082.626875 
L 965.681676 2082.626875 
L 934.418949 2082.626875 
z
" clip-path="url(#p393599e38f)" style="fill: #ffa500; fill-opacity: 0.5; stroke: #ffffff; stroke-linejoin: miter"/>
   </g>
   <g id="patch_25">
    <path d="M 965.681676 2082.626875 
L 996.944403 2082.626875 
L 996.944403 2082.626875 
L 965.681676 2082.626875 
z
" clip-path="url(#p393599e38f)" style="fill: #ffa500; fill-opacity: 0.5; stroke: #ffffff; stroke-linejoin: miter"/>
   </g>
   <g id="patch_26">
    <path d="M 996.944403 2082.626875 
L 1028.207131 2082.626875 
L 1028.207131 2082.626875 
L 996.944403 2082.626875 
z
" clip-path="url(#p393599e38f)" style="fill: #ffa500; fill-opacity: 0.5; stroke: #ffffff; stroke-linejoin: miter"/>
   </g>
   <g id="patch_27">
    <path d="M 1028.207131 2082.626875 
L 1059.469858 2082.626875 
L 1059.469858 2023.659487 
L 1028.207131 2023.659487 
z
" clip-path="url(#p393599e38f)" style="fill: #ffa500; fill-opacity: 0.5; stroke: #ffffff; stroke-linejoin: miter"/>
   </g>
   <g id="patch_28">
    <path d="M 1059.469858 2082.626875 
L 1090.732585 2082.626875 
L 1090.732585 2082.626875 
L 1059.469858 2082.626875 
z
" clip-path="url(#p393599e38f)" style="fill: #ffa500; fill-opacity: 0.5; stroke: #ffffff; stroke-linejoin: miter"/>
   </g>
   <g id="patch_29">
    <path d="M 1090.732585 2082.626875 
L 1121.995312 2082.626875 
L 1121.995312 2082.626875 
L 1090.732585 2082.626875 
z
" clip-path="url(#p393599e38f)" style="fill: #ffa500; fill-opacity: 0.5; stroke: #ffffff; stroke-linejoin: miter"/>
   </g>
   <g id="patch_30">
    <path d="M 1121.995312 2082.626875 
L 1153.25804 2082.626875 
L 1153.25804 2082.626875 
L 1121.995312 2082.626875 
z
" clip-path="url(#p393599e38f)" style="fill: #ffa500; fill-opacity: 0.5; stroke: #ffffff; stroke-linejoin: miter"/>
   </g>
   <g id="patch_31">
    <path d="M 1153.25804 2082.626875 
L 1184.520767 2082.626875 
L 1184.520767 2082.626875 
L 1153.25804 2082.626875 
z
" clip-path="url(#p393599e38f)" style="fill: #ffa500; fill-opacity: 0.5; stroke: #ffffff; stroke-linejoin: miter"/>
   </g>
   <g id="patch_32">
    <path d="M 1184.520767 2082.626875 
L 1215.783494 2082.626875 
L 1215.783494 2082.626875 
L 1184.520767 2082.626875 
z
" clip-path="url(#p393599e38f)" style="fill: #ffa500; fill-opacity: 0.5; stroke: #ffffff; stroke-linejoin: miter"/>
   </g>
   <g id="patch_33">
    <path d="M 1215.783494 2082.626875 
L 1247.046222 2082.626875 
L 1247.046222 2082.626875 
L 1215.783494 2082.626875 
z
" clip-path="url(#p393599e38f)" style="fill: #ffa500; fill-opacity: 0.5; stroke: #ffffff; stroke-linejoin: miter"/>
   </g>
   <g id="patch_34">
    <path d="M 1247.046222 2082.626875 
L 1278.308949 2082.626875 
L 1278.308949 2082.626875 
L 1247.046222 2082.626875 
z
" clip-path="url(#p393599e38f)" style="fill: #ffa500; fill-opacity: 0.5; stroke: #ffffff; stroke-linejoin: miter"/>
   </g>
   <g id="patch_35">
    <path d="M 1278.308949 2082.626875 
L 1309.571676 2082.626875 
L 1309.571676 2082.626875 
L 1278.308949 2082.626875 
z
" clip-path="url(#p393599e38f)" style="fill: #ffa500; fill-opacity: 0.5; stroke: #ffffff; stroke-linejoin: miter"/>
   </g>
   <g id="patch_36">
    <path d="M 1309.571676 2082.626875 
L 1340.834403 2082.626875 
L 1340.834403 2023.659487 
L 1309.571676 2023.659487 
z
" clip-path="url(#p393599e38f)" style="fill: #ffa500; fill-opacity: 0.5; stroke: #ffffff; stroke-linejoin: miter"/>
   </g>
   <g id="patch_37">
    <path d="M 1340.834403 2082.626875 
L 1372.097131 2082.626875 
L 1372.097131 2082.626875 
L 1340.834403 2082.626875 
z
" clip-path="url(#p393599e38f)" style="fill: #ffa500; fill-opacity: 0.5; stroke: #ffffff; stroke-linejoin: miter"/>
   </g>
   <g id="patch_38">
    <path d="M 1372.097131 2082.626875 
L 1403.359858 2082.626875 
L 1403.359858 2082.626875 
L 1372.097131 2082.626875 
z
" clip-path="url(#p393599e38f)" style="fill: #ffa500; fill-opacity: 0.5; stroke: #ffffff; stroke-linejoin: miter"/>
   </g>
   <g id="patch_39">
    <path d="M 1403.359858 2082.626875 
L 1434.622585 2082.626875 
L 1434.622585 2082.626875 
L 1403.359858 2082.626875 
z
" clip-path="url(#p393599e38f)" style="fill: #ffa500; fill-opacity: 0.5; stroke: #ffffff; stroke-linejoin: miter"/>
   </g>
   <g id="patch_40">
    <path d="M 1434.622585 2082.626875 
L 1465.885313 2082.626875 
L 1465.885313 2082.626875 
L 1434.622585 2082.626875 
z
" clip-path="url(#p393599e38f)" style="fill: #ffa500; fill-opacity: 0.5; stroke: #ffffff; stroke-linejoin: miter"/>
   </g>
   <g id="patch_41">
    <path d="M 1465.885313 2082.626875 
L 1497.14804 2082.626875 
L 1497.14804 2082.626875 
L 1465.885313 2082.626875 
z
" clip-path="url(#p393599e38f)" style="fill: #ffa500; fill-opacity: 0.5; stroke: #ffffff; stroke-linejoin: miter"/>
   </g>
   <g id="patch_42">
    <path d="M 1497.14804 2082.626875 
L 1528.410767 2082.626875 
L 1528.410767 2082.626875 
L 1497.14804 2082.626875 
z
" clip-path="url(#p393599e38f)" style="fill: #ffa500; fill-opacity: 0.5; stroke: #ffffff; stroke-linejoin: miter"/>
   </g>
   <g id="patch_43">
    <path d="M 1528.410767 2082.626875 
L 1559.673494 2082.626875 
L 1559.673494 2023.659487 
L 1528.410767 2023.659487 
z
" clip-path="url(#p393599e38f)" style="fill: #ffa500; fill-opacity: 0.5; stroke: #ffffff; stroke-linejoin: miter"/>
   </g>
   <g id="patch_44">
    <path d="M 1559.673494 2082.626875 
L 1590.936222 2082.626875 
L 1590.936222 2082.626875 
L 1559.673494 2082.626875 
z
" clip-path="url(#p393599e38f)" style="fill: #ffa500; fill-opacity: 0.5; stroke: #ffffff; stroke-linejoin: miter"/>
   </g>
   <g id="patch_45">
    <path d="M 1590.936222 2082.626875 
L 1622.198949 2082.626875 
L 1622.198949 2082.626875 
L 1590.936222 2082.626875 
z
" clip-path="url(#p393599e38f)" style="fill: #ffa500; fill-opacity: 0.5; stroke: #ffffff; stroke-linejoin: miter"/>
   </g>
   <g id="patch_46">
    <path d="M 1622.198949 2082.626875 
L 1653.461676 2082.626875 
L 1653.461676 2082.626875 
L 1622.198949 2082.626875 
z
" clip-path="url(#p393599e38f)" style="fill: #ffa500; fill-opacity: 0.5; stroke: #ffffff; stroke-linejoin: miter"/>
   </g>
   <g id="patch_47">
    <path d="M 1653.461676 2082.626875 
L 1684.724403 2082.626875 
L 1684.724403 2082.626875 
L 1653.461676 2082.626875 
z
" clip-path="url(#p393599e38f)" style="fill: #ffa500; fill-opacity: 0.5; stroke: #ffffff; stroke-linejoin: miter"/>
   </g>
   <g id="patch_48">
    <path d="M 1684.724403 2082.626875 
L 1715.987131 2082.626875 
L 1715.987131 2082.626875 
L 1684.724403 2082.626875 
z
" clip-path="url(#p393599e38f)" style="fill: #ffa500; fill-opacity: 0.5; stroke: #ffffff; stroke-linejoin: miter"/>
   </g>
   <g id="patch_49">
    <path d="M 1715.987131 2082.626875 
L 1747.249858 2082.626875 
L 1747.249858 2082.626875 
L 1715.987131 2082.626875 
z
" clip-path="url(#p393599e38f)" style="fill: #ffa500; fill-opacity: 0.5; stroke: #ffffff; stroke-linejoin: miter"/>
   </g>
   <g id="patch_50">
    <path d="M 1747.249858 2082.626875 
L 1778.512585 2082.626875 
L 1778.512585 1964.692099 
L 1747.249858 1964.692099 
z
" clip-path="url(#p393599e38f)" style="fill: #ffa500; fill-opacity: 0.5; stroke: #ffffff; stroke-linejoin: miter"/>
   </g>
   <g id="patch_51">
    <path d="M 1778.512585 2082.626875 
L 1809.775312 2082.626875 
L 1809.775312 2082.626875 
L 1778.512585 2082.626875 
z
" clip-path="url(#p393599e38f)" style="fill: #ffa500; fill-opacity: 0.5; stroke: #ffffff; stroke-linejoin: miter"/>
   </g>
   <g id="patch_52">
    <path d="M 1809.775312 2082.626875 
L 1841.03804 2082.626875 
L 1841.03804 2023.659487 
L 1809.775312 2023.659487 
z
" clip-path="url(#p393599e38f)" style="fill: #ffa500; fill-opacity: 0.5; stroke: #ffffff; stroke-linejoin: miter"/>
   </g>
   <g id="patch_53">
    <path d="M 1841.03804 2082.626875 
L 1872.300767 2082.626875 
L 1872.300767 2023.659487 
L 1841.03804 2023.659487 
z
" clip-path="url(#p393599e38f)" style="fill: #ffa500; fill-opacity: 0.5; stroke: #ffffff; stroke-linejoin: miter"/>
   </g>
   <g id="patch_54">
    <path d="M 1872.300767 2082.626875 
L 1903.563494 2082.626875 
L 1903.563494 2082.626875 
L 1872.300767 2082.626875 
z
" clip-path="url(#p393599e38f)" style="fill: #ffa500; fill-opacity: 0.5; stroke: #ffffff; stroke-linejoin: miter"/>
   </g>
   <g id="patch_55">
    <path d="M 1903.563494 2082.626875 
L 1934.826222 2082.626875 
L 1934.826222 2082.626875 
L 1903.563494 2082.626875 
z
" clip-path="url(#p393599e38f)" style="fill: #ffa500; fill-opacity: 0.5; stroke: #ffffff; stroke-linejoin: miter"/>
   </g>
   <g id="patch_56">
    <path d="M 1934.826222 2082.626875 
L 1966.088949 2082.626875 
L 1966.088949 2023.659487 
L 1934.826222 2023.659487 
z
" clip-path="url(#p393599e38f)" style="fill: #ffa500; fill-opacity: 0.5; stroke: #ffffff; stroke-linejoin: miter"/>
   </g>
   <g id="patch_57">
    <path d="M 1966.088949 2082.626875 
L 1997.351676 2082.626875 
L 1997.351676 2023.659487 
L 1966.088949 2023.659487 
z
" clip-path="url(#p393599e38f)" style="fill: #ffa500; fill-opacity: 0.5; stroke: #ffffff; stroke-linejoin: miter"/>
   </g>
   <g id="patch_58">
    <path d="M 1997.351676 2082.626875 
L 2028.614403 2082.626875 
L 2028.614403 2023.659487 
L 1997.351676 2023.659487 
z
" clip-path="url(#p393599e38f)" style="fill: #ffa500; fill-opacity: 0.5; stroke: #ffffff; stroke-linejoin: miter"/>
   </g>
   <g id="patch_59">
    <path d="M 2028.614403 2082.626875 
L 2059.877131 2082.626875 
L 2059.877131 2082.626875 
L 2028.614403 2082.626875 
z
" clip-path="url(#p393599e38f)" style="fill: #ffa500; fill-opacity: 0.5; stroke: #ffffff; stroke-linejoin: miter"/>
   </g>
   <g id="patch_60">
    <path d="M 2059.877131 2082.626875 
L 2091.139858 2082.626875 
L 2091.139858 2082.626875 
L 2059.877131 2082.626875 
z
" clip-path="url(#p393599e38f)" style="fill: #ffa500; fill-opacity: 0.5; stroke: #ffffff; stroke-linejoin: miter"/>
   </g>
   <g id="patch_61">
    <path d="M 2091.139858 2082.626875 
L 2122.402585 2082.626875 
L 2122.402585 2082.626875 
L 2091.139858 2082.626875 
z
" clip-path="url(#p393599e38f)" style="fill: #ffa500; fill-opacity: 0.5; stroke: #ffffff; stroke-linejoin: miter"/>
   </g>
   <g id="patch_62">
    <path d="M 2122.402585 2082.626875 
L 2153.665312 2082.626875 
L 2153.665312 2023.659487 
L 2122.402585 2023.659487 
z
" clip-path="url(#p393599e38f)" style="fill: #ffa500; fill-opacity: 0.5; stroke: #ffffff; stroke-linejoin: miter"/>
   </g>
   <g id="patch_63">
    <path d="M 2153.665312 2082.626875 
L 2184.92804 2082.626875 
L 2184.92804 2082.626875 
L 2153.665312 2082.626875 
z
" clip-path="url(#p393599e38f)" style="fill: #ffa500; fill-opacity: 0.5; stroke: #ffffff; stroke-linejoin: miter"/>
   </g>
   <g id="patch_64">
    <path d="M 2184.92804 2082.626875 
L 2216.190767 2082.626875 
L 2216.190767 2082.626875 
L 2184.92804 2082.626875 
z
" clip-path="url(#p393599e38f)" style="fill: #ffa500; fill-opacity: 0.5; stroke: #ffffff; stroke-linejoin: miter"/>
   </g>
   <g id="patch_65">
    <path d="M 2216.190767 2082.626875 
L 2247.453494 2082.626875 
L 2247.453494 1964.692099 
L 2216.190767 1964.692099 
z
" clip-path="url(#p393599e38f)" style="fill: #ffa500; fill-opacity: 0.5; stroke: #ffffff; stroke-linejoin: miter"/>
   </g>
   <g id="patch_66">
    <path d="M 2247.453494 2082.626875 
L 2278.716222 2082.626875 
L 2278.716222 1964.692099 
L 2247.453494 1964.692099 
z
" clip-path="url(#p393599e38f)" style="fill: #ffa500; fill-opacity: 0.5; stroke: #ffffff; stroke-linejoin: miter"/>
   </g>
   <g id="patch_67">
    <path d="M 2278.716222 2082.626875 
L 2309.978949 2082.626875 
L 2309.978949 2023.659487 
L 2278.716222 2023.659487 
z
" clip-path="url(#p393599e38f)" style="fill: #ffa500; fill-opacity: 0.5; stroke: #ffffff; stroke-linejoin: miter"/>
   </g>
   <g id="patch_68">
    <path d="M 2309.978949 2082.626875 
L 2341.241676 2082.626875 
L 2341.241676 2082.626875 
L 2309.978949 2082.626875 
z
" clip-path="url(#p393599e38f)" style="fill: #ffa500; fill-opacity: 0.5; stroke: #ffffff; stroke-linejoin: miter"/>
   </g>
   <g id="patch_69">
    <path d="M 2341.241676 2082.626875 
L 2372.504403 2082.626875 
L 2372.504403 2082.626875 
L 2341.241676 2082.626875 
z
" clip-path="url(#p393599e38f)" style="fill: #ffa500; fill-opacity: 0.5; stroke: #ffffff; stroke-linejoin: miter"/>
   </g>
   <g id="patch_70">
    <path d="M 2372.504403 2082.626875 
L 2403.767131 2082.626875 
L 2403.767131 2082.626875 
L 2372.504403 2082.626875 
z
" clip-path="url(#p393599e38f)" style="fill: #ffa500; fill-opacity: 0.5; stroke: #ffffff; stroke-linejoin: miter"/>
   </g>
   <g id="patch_71">
    <path d="M 2403.767131 2082.626875 
L 2435.029858 2082.626875 
L 2435.029858 2082.626875 
L 2403.767131 2082.626875 
z
" clip-path="url(#p393599e38f)" style="fill: #ffa500; fill-opacity: 0.5; stroke: #ffffff; stroke-linejoin: miter"/>
   </g>
   <g id="patch_72">
    <path d="M 2435.029858 2082.626875 
L 2466.292585 2082.626875 
L 2466.292585 2082.626875 
L 2435.029858 2082.626875 
z
" clip-path="url(#p393599e38f)" style="fill: #ffa500; fill-opacity: 0.5; stroke: #ffffff; stroke-linejoin: miter"/>
   </g>
   <g id="patch_73">
    <path d="M 2466.292585 2082.626875 
L 2497.555312 2082.626875 
L 2497.555312 2082.626875 
L 2466.292585 2082.626875 
z
" clip-path="url(#p393599e38f)" style="fill: #ffa500; fill-opacity: 0.5; stroke: #ffffff; stroke-linejoin: miter"/>
   </g>
   <g id="patch_74">
    <path d="M 2497.555312 2082.626875 
L 2528.81804 2082.626875 
L 2528.81804 2082.626875 
L 2497.555312 2082.626875 
z
" clip-path="url(#p393599e38f)" style="fill: #ffa500; fill-opacity: 0.5; stroke: #ffffff; stroke-linejoin: miter"/>
   </g>
   <g id="patch_75">
    <path d="M 2528.81804 2082.626875 
L 2560.080767 2082.626875 
L 2560.080767 2082.626875 
L 2528.81804 2082.626875 
z
" clip-path="url(#p393599e38f)" style="fill: #ffa500; fill-opacity: 0.5; stroke: #ffffff; stroke-linejoin: miter"/>
   </g>
   <g id="patch_76">
    <path d="M 2560.080767 2082.626875 
L 2591.343494 2082.626875 
L 2591.343494 2023.659487 
L 2560.080767 2023.659487 
z
" clip-path="url(#p393599e38f)" style="fill: #ffa500; fill-opacity: 0.5; stroke: #ffffff; stroke-linejoin: miter"/>
   </g>
   <g id="patch_77">
    <path d="M 2591.343494 2082.626875 
L 2622.606222 2082.626875 
L 2622.606222 2082.626875 
L 2591.343494 2082.626875 
z
" clip-path="url(#p393599e38f)" style="fill: #ffa500; fill-opacity: 0.5; stroke: #ffffff; stroke-linejoin: miter"/>
   </g>
   <g id="patch_78">
    <path d="M 2622.606222 2082.626875 
L 2653.868949 2082.626875 
L 2653.868949 2023.659487 
L 2622.606222 2023.659487 
z
" clip-path="url(#p393599e38f)" style="fill: #ffa500; fill-opacity: 0.5; stroke: #ffffff; stroke-linejoin: miter"/>
   </g>
   <g id="patch_79">
    <path d="M 2653.868949 2082.626875 
L 2685.131676 2082.626875 
L 2685.131676 2082.626875 
L 2653.868949 2082.626875 
z
" clip-path="url(#p393599e38f)" style="fill: #ffa500; fill-opacity: 0.5; stroke: #ffffff; stroke-linejoin: miter"/>
   </g>
   <g id="patch_80">
    <path d="M 2685.131676 2082.626875 
L 2716.394403 2082.626875 
L 2716.394403 2082.626875 
L 2685.131676 2082.626875 
z
" clip-path="url(#p393599e38f)" style="fill: #ffa500; fill-opacity: 0.5; stroke: #ffffff; stroke-linejoin: miter"/>
   </g>
   <g id="patch_81">
    <path d="M 2716.394403 2082.626875 
L 2747.657131 2082.626875 
L 2747.657131 2082.626875 
L 2716.394403 2082.626875 
z
" clip-path="url(#p393599e38f)" style="fill: #ffa500; fill-opacity: 0.5; stroke: #ffffff; stroke-linejoin: miter"/>
   </g>
   <g id="patch_82">
    <path d="M 2747.657131 2082.626875 
L 2778.919858 2082.626875 
L 2778.919858 2082.626875 
L 2747.657131 2082.626875 
z
" clip-path="url(#p393599e38f)" style="fill: #ffa500; fill-opacity: 0.5; stroke: #ffffff; stroke-linejoin: miter"/>
   </g>
   <g id="patch_83">
    <path d="M 2778.919858 2082.626875 
L 2810.182585 2082.626875 
L 2810.182585 2023.659487 
L 2778.919858 2023.659487 
z
" clip-path="url(#p393599e38f)" style="fill: #ffa500; fill-opacity: 0.5; stroke: #ffffff; stroke-linejoin: miter"/>
   </g>
   <g id="patch_84">
    <path d="M 2810.182585 2082.626875 
L 2841.445312 2082.626875 
L 2841.445312 2082.626875 
L 2810.182585 2082.626875 
z
" clip-path="url(#p393599e38f)" style="fill: #ffa500; fill-opacity: 0.5; stroke: #ffffff; stroke-linejoin: miter"/>
   </g>
   <g id="patch_85">
    <path d="M 2841.445312 2082.626875 
L 2872.70804 2082.626875 
L 2872.70804 2082.626875 
L 2841.445312 2082.626875 
z
" clip-path="url(#p393599e38f)" style="fill: #ffa500; fill-opacity: 0.5; stroke: #ffffff; stroke-linejoin: miter"/>
   </g>
   <g id="patch_86">
    <path d="M 2872.70804 2082.626875 
L 2903.970767 2082.626875 
L 2903.970767 2082.626875 
L 2872.70804 2082.626875 
z
" clip-path="url(#p393599e38f)" style="fill: #ffa500; fill-opacity: 0.5; stroke: #ffffff; stroke-linejoin: miter"/>
   </g>
   <g id="patch_87">
    <path d="M 2903.970767 2082.626875 
L 2935.233494 2082.626875 
L 2935.233494 1964.692099 
L 2903.970767 1964.692099 
z
" clip-path="url(#p393599e38f)" style="fill: #ffa500; fill-opacity: 0.5; stroke: #ffffff; stroke-linejoin: miter"/>
   </g>
   <g id="patch_88">
    <path d="M 2935.233494 2082.626875 
L 2966.496222 2082.626875 
L 2966.496222 2082.626875 
L 2935.233494 2082.626875 
z
" clip-path="url(#p393599e38f)" style="fill: #ffa500; fill-opacity: 0.5; stroke: #ffffff; stroke-linejoin: miter"/>
   </g>
   <g id="patch_89">
    <path d="M 2966.496222 2082.626875 
L 2997.758949 2082.626875 
L 2997.758949 1964.692099 
L 2966.496222 1964.692099 
z
" clip-path="url(#p393599e38f)" style="fill: #ffa500; fill-opacity: 0.5; stroke: #ffffff; stroke-linejoin: miter"/>
   </g>
   <g id="patch_90">
    <path d="M 2997.758949 2082.626875 
L 3029.021676 2082.626875 
L 3029.021676 2023.659487 
L 2997.758949 2023.659487 
z
" clip-path="url(#p393599e38f)" style="fill: #ffa500; fill-opacity: 0.5; stroke: #ffffff; stroke-linejoin: miter"/>
   </g>
   <g id="patch_91">
    <path d="M 3029.021676 2082.626875 
L 3060.284403 2082.626875 
L 3060.284403 2023.659487 
L 3029.021676 2023.659487 
z
" clip-path="url(#p393599e38f)" style="fill: #ffa500; fill-opacity: 0.5; stroke: #ffffff; stroke-linejoin: miter"/>
   </g>
   <g id="patch_92">
    <path d="M 3060.284403 2082.626875 
L 3091.547131 2082.626875 
L 3091.547131 2082.626875 
L 3060.284403 2082.626875 
z
" clip-path="url(#p393599e38f)" style="fill: #ffa500; fill-opacity: 0.5; stroke: #ffffff; stroke-linejoin: miter"/>
   </g>
   <g id="patch_93">
    <path d="M 3091.547131 2082.626875 
L 3122.809858 2082.626875 
L 3122.809858 2082.626875 
L 3091.547131 2082.626875 
z
" clip-path="url(#p393599e38f)" style="fill: #ffa500; fill-opacity: 0.5; stroke: #ffffff; stroke-linejoin: miter"/>
   </g>
   <g id="patch_94">
    <path d="M 3122.809858 2082.626875 
L 3154.072585 2082.626875 
L 3154.072585 2082.626875 
L 3122.809858 2082.626875 
z
" clip-path="url(#p393599e38f)" style="fill: #ffa500; fill-opacity: 0.5; stroke: #ffffff; stroke-linejoin: miter"/>
   </g>
   <g id="patch_95">
    <path d="M 3154.072585 2082.626875 
L 3185.335312 2082.626875 
L 3185.335312 2082.626875 
L 3154.072585 2082.626875 
z
" clip-path="url(#p393599e38f)" style="fill: #ffa500; fill-opacity: 0.5; stroke: #ffffff; stroke-linejoin: miter"/>
   </g>
   <g id="patch_96">
    <path d="M 3185.335312 2082.626875 
L 3216.59804 2082.626875 
L 3216.59804 2082.626875 
L 3185.335312 2082.626875 
z
" clip-path="url(#p393599e38f)" style="fill: #ffa500; fill-opacity: 0.5; stroke: #ffffff; stroke-linejoin: miter"/>
   </g>
   <g id="patch_97">
    <path d="M 3216.59804 2082.626875 
L 3247.860767 2082.626875 
L 3247.860767 2082.626875 
L 3216.59804 2082.626875 
z
" clip-path="url(#p393599e38f)" style="fill: #ffa500; fill-opacity: 0.5; stroke: #ffffff; stroke-linejoin: miter"/>
   </g>
   <g id="patch_98">
    <path d="M 3247.860767 2082.626875 
L 3279.123494 2082.626875 
L 3279.123494 2082.626875 
L 3247.860767 2082.626875 
z
" clip-path="url(#p393599e38f)" style="fill: #ffa500; fill-opacity: 0.5; stroke: #ffffff; stroke-linejoin: miter"/>
   </g>
   <g id="patch_99">
    <path d="M 3279.123494 2082.626875 
L 3310.386222 2082.626875 
L 3310.386222 2082.626875 
L 3279.123494 2082.626875 
z
" clip-path="url(#p393599e38f)" style="fill: #ffa500; fill-opacity: 0.5; stroke: #ffffff; stroke-linejoin: miter"/>
   </g>
   <g id="patch_100">
    <path d="M 3310.386222 2082.626875 
L 3341.648949 2082.626875 
L 3341.648949 2082.626875 
L 3310.386222 2082.626875 
z
" clip-path="url(#p393599e38f)" style="fill: #ffa500; fill-opacity: 0.5; stroke: #ffffff; stroke-linejoin: miter"/>
   </g>
   <g id="patch_101">
    <path d="M 3341.648949 2082.626875 
L 3372.911676 2082.626875 
L 3372.911676 2082.626875 
L 3341.648949 2082.626875 
z
" clip-path="url(#p393599e38f)" style="fill: #ffa500; fill-opacity: 0.5; stroke: #ffffff; stroke-linejoin: miter"/>
   </g>
   <g id="patch_102">
    <path d="M 277.901676 2082.626875 
L 309.164403 2082.626875 
L 309.164403 313.60523 
L 277.901676 313.60523 
z
" clip-path="url(#p393599e38f)" style="fill: #0000ff; fill-opacity: 0.5; stroke: #ffffff; stroke-linejoin: miter"/>
   </g>
   <g id="patch_103">
    <path d="M 309.164403 2082.626875 
L 340.427131 2082.626875 
L 340.427131 372.572618 
L 309.164403 372.572618 
z
" clip-path="url(#p393599e38f)" style="fill: #0000ff; fill-opacity: 0.5; stroke: #ffffff; stroke-linejoin: miter"/>
   </g>
   <g id="patch_104">
    <path d="M 340.427131 2082.626875 
L 371.689858 2082.626875 
L 371.689858 136.703065 
L 340.427131 136.703065 
z
" clip-path="url(#p393599e38f)" style="fill: #0000ff; fill-opacity: 0.5; stroke: #ffffff; stroke-linejoin: miter"/>
   </g>
   <g id="patch_105">
    <path d="M 371.689858 2082.626875 
L 402.952585 2082.626875 
L 402.952585 785.344335 
L 371.689858 785.344335 
z
" clip-path="url(#p393599e38f)" style="fill: #0000ff; fill-opacity: 0.5; stroke: #ffffff; stroke-linejoin: miter"/>
   </g>
   <g id="patch_106">
    <path d="M 402.952585 2082.626875 
L 434.215312 2082.626875 
L 434.215312 1021.213888 
L 402.952585 1021.213888 
z
" clip-path="url(#p393599e38f)" style="fill: #0000ff; fill-opacity: 0.5; stroke: #ffffff; stroke-linejoin: miter"/>
   </g>
   <g id="patch_107">
    <path d="M 434.215312 2082.626875 
L 465.47804 2082.626875 
L 465.47804 1139.148664 
L 434.215312 1139.148664 
z
" clip-path="url(#p393599e38f)" style="fill: #0000ff; fill-opacity: 0.5; stroke: #ffffff; stroke-linejoin: miter"/>
   </g>
   <g id="patch_108">
    <path d="M 465.47804 2082.626875 
L 496.740767 2082.626875 
L 496.740767 1846.757322 
L 465.47804 1846.757322 
z
" clip-path="url(#p393599e38f)" style="fill: #0000ff; fill-opacity: 0.5; stroke: #ffffff; stroke-linejoin: miter"/>
   </g>
   <g id="patch_109">
    <path d="M 496.740767 2082.626875 
L 528.003494 2082.626875 
L 528.003494 1375.018217 
L 496.740767 1375.018217 
z
" clip-path="url(#p393599e38f)" style="fill: #0000ff; fill-opacity: 0.5; stroke: #ffffff; stroke-linejoin: miter"/>
   </g>
   <g id="patch_110">
    <path d="M 528.003494 2082.626875 
L 559.266222 2082.626875 
L 559.266222 1669.855158 
L 528.003494 1669.855158 
z
" clip-path="url(#p393599e38f)" style="fill: #0000ff; fill-opacity: 0.5; stroke: #ffffff; stroke-linejoin: miter"/>
   </g>
   <g id="patch_111">
    <path d="M 559.266222 2082.626875 
L 590.528949 2082.626875 
L 590.528949 1846.757322 
L 559.266222 1846.757322 
z
" clip-path="url(#p393599e38f)" style="fill: #0000ff; fill-opacity: 0.5; stroke: #ffffff; stroke-linejoin: miter"/>
   </g>
   <g id="patch_112">
    <path d="M 590.528949 2082.626875 
L 621.791676 2082.626875 
L 621.791676 1257.083441 
L 590.528949 1257.083441 
z
" clip-path="url(#p393599e38f)" style="fill: #0000ff; fill-opacity: 0.5; stroke: #ffffff; stroke-linejoin: miter"/>
   </g>
   <g id="patch_113">
    <path d="M 621.791676 2082.626875 
L 653.054403 2082.626875 
L 653.054403 1669.855158 
L 621.791676 1669.855158 
z
" clip-path="url(#p393599e38f)" style="fill: #0000ff; fill-opacity: 0.5; stroke: #ffffff; stroke-linejoin: miter"/>
   </g>
   <g id="patch_114">
    <path d="M 653.054403 2082.626875 
L 684.317131 2082.626875 
L 684.317131 1787.789934 
L 653.054403 1787.789934 
z
" clip-path="url(#p393599e38f)" style="fill: #0000ff; fill-opacity: 0.5; stroke: #ffffff; stroke-linejoin: miter"/>
   </g>
   <g id="patch_115">
    <path d="M 684.317131 2082.626875 
L 715.579858 2082.626875 
L 715.579858 1610.88777 
L 684.317131 1610.88777 
z
" clip-path="url(#p393599e38f)" style="fill: #0000ff; fill-opacity: 0.5; stroke: #ffffff; stroke-linejoin: miter"/>
   </g>
   <g id="patch_116">
    <path d="M 715.579858 2082.626875 
L 746.842585 2082.626875 
L 746.842585 1492.952993 
L 715.579858 1492.952993 
z
" clip-path="url(#p393599e38f)" style="fill: #0000ff; fill-opacity: 0.5; stroke: #ffffff; stroke-linejoin: miter"/>
   </g>
   <g id="patch_117">
    <path d="M 746.842585 2082.626875 
L 778.105312 2082.626875 
L 778.105312 1669.855158 
L 746.842585 1669.855158 
z
" clip-path="url(#p393599e38f)" style="fill: #0000ff; fill-opacity: 0.5; stroke: #ffffff; stroke-linejoin: miter"/>
   </g>
   <g id="patch_118">
    <path d="M 778.105313 2082.626875 
L 809.36804 2082.626875 
L 809.36804 1728.822546 
L 778.105313 1728.822546 
z
" clip-path="url(#p393599e38f)" style="fill: #0000ff; fill-opacity: 0.5; stroke: #ffffff; stroke-linejoin: miter"/>
   </g>
   <g id="patch_119">
    <path d="M 809.36804 2082.626875 
L 840.630767 2082.626875 
L 840.630767 1728.822546 
L 809.36804 1728.822546 
z
" clip-path="url(#p393599e38f)" style="fill: #0000ff; fill-opacity: 0.5; stroke: #ffffff; stroke-linejoin: miter"/>
   </g>
   <g id="patch_120">
    <path d="M 840.630767 2082.626875 
L 871.893494 2082.626875 
L 871.893494 1669.855158 
L 840.630767 1669.855158 
z
" clip-path="url(#p393599e38f)" style="fill: #0000ff; fill-opacity: 0.5; stroke: #ffffff; stroke-linejoin: miter"/>
   </g>
   <g id="patch_121">
    <path d="M 871.893494 2082.626875 
L 903.156222 2082.626875 
L 903.156222 1610.88777 
L 871.893494 1610.88777 
z
" clip-path="url(#p393599e38f)" style="fill: #0000ff; fill-opacity: 0.5; stroke: #ffffff; stroke-linejoin: miter"/>
   </g>
   <g id="patch_122">
    <path d="M 903.156222 2082.626875 
L 934.418949 2082.626875 
L 934.418949 1846.757322 
L 903.156222 1846.757322 
z
" clip-path="url(#p393599e38f)" style="fill: #0000ff; fill-opacity: 0.5; stroke: #ffffff; stroke-linejoin: miter"/>
   </g>
   <g id="patch_123">
    <path d="M 934.418949 2082.626875 
L 965.681676 2082.626875 
L 965.681676 1728.822546 
L 934.418949 1728.822546 
z
" clip-path="url(#p393599e38f)" style="fill: #0000ff; fill-opacity: 0.5; stroke: #ffffff; stroke-linejoin: miter"/>
   </g>
   <g id="patch_124">
    <path d="M 965.681676 2082.626875 
L 996.944403 2082.626875 
L 996.944403 1728.822546 
L 965.681676 1728.822546 
z
" clip-path="url(#p393599e38f)" style="fill: #0000ff; fill-opacity: 0.5; stroke: #ffffff; stroke-linejoin: miter"/>
   </g>
   <g id="patch_125">
    <path d="M 996.944403 2082.626875 
L 1028.207131 2082.626875 
L 1028.207131 1964.692099 
L 996.944403 1964.692099 
z
" clip-path="url(#p393599e38f)" style="fill: #0000ff; fill-opacity: 0.5; stroke: #ffffff; stroke-linejoin: miter"/>
   </g>
   <g id="patch_126">
    <path d="M 1028.207131 2082.626875 
L 1059.469858 2082.626875 
L 1059.469858 1846.757322 
L 1028.207131 1846.757322 
z
" clip-path="url(#p393599e38f)" style="fill: #0000ff; fill-opacity: 0.5; stroke: #ffffff; stroke-linejoin: miter"/>
   </g>
   <g id="patch_127">
    <path d="M 1059.469858 2082.626875 
L 1090.732585 2082.626875 
L 1090.732585 1787.789934 
L 1059.469858 1787.789934 
z
" clip-path="url(#p393599e38f)" style="fill: #0000ff; fill-opacity: 0.5; stroke: #ffffff; stroke-linejoin: miter"/>
   </g>
   <g id="patch_128">
    <path d="M 1090.732585 2082.626875 
L 1121.995312 2082.626875 
L 1121.995312 1728.822546 
L 1090.732585 1728.822546 
z
" clip-path="url(#p393599e38f)" style="fill: #0000ff; fill-opacity: 0.5; stroke: #ffffff; stroke-linejoin: miter"/>
   </g>
   <g id="patch_129">
    <path d="M 1121.995312 2082.626875 
L 1153.25804 2082.626875 
L 1153.25804 1964.692099 
L 1121.995312 1964.692099 
z
" clip-path="url(#p393599e38f)" style="fill: #0000ff; fill-opacity: 0.5; stroke: #ffffff; stroke-linejoin: miter"/>
   </g>
   <g id="patch_130">
    <path d="M 1153.25804 2082.626875 
L 1184.520767 2082.626875 
L 1184.520767 2082.626875 
L 1153.25804 2082.626875 
z
" clip-path="url(#p393599e38f)" style="fill: #0000ff; fill-opacity: 0.5; stroke: #ffffff; stroke-linejoin: miter"/>
   </g>
   <g id="patch_131">
    <path d="M 1184.520767 2082.626875 
L 1215.783494 2082.626875 
L 1215.783494 1964.692099 
L 1184.520767 1964.692099 
z
" clip-path="url(#p393599e38f)" style="fill: #0000ff; fill-opacity: 0.5; stroke: #ffffff; stroke-linejoin: miter"/>
   </g>
   <g id="patch_132">
    <path d="M 1215.783494 2082.626875 
L 1247.046222 2082.626875 
L 1247.046222 1905.72471 
L 1215.783494 1905.72471 
z
" clip-path="url(#p393599e38f)" style="fill: #0000ff; fill-opacity: 0.5; stroke: #ffffff; stroke-linejoin: miter"/>
   </g>
   <g id="patch_133">
    <path d="M 1247.046222 2082.626875 
L 1278.308949 2082.626875 
L 1278.308949 1905.72471 
L 1247.046222 1905.72471 
z
" clip-path="url(#p393599e38f)" style="fill: #0000ff; fill-opacity: 0.5; stroke: #ffffff; stroke-linejoin: miter"/>
   </g>
   <g id="patch_134">
    <path d="M 1278.308949 2082.626875 
L 1309.571676 2082.626875 
L 1309.571676 2023.659487 
L 1278.308949 2023.659487 
z
" clip-path="url(#p393599e38f)" style="fill: #0000ff; fill-opacity: 0.5; stroke: #ffffff; stroke-linejoin: miter"/>
   </g>
   <g id="patch_135">
    <path d="M 1309.571676 2082.626875 
L 1340.834403 2082.626875 
L 1340.834403 2082.626875 
L 1309.571676 2082.626875 
z
" clip-path="url(#p393599e38f)" style="fill: #0000ff; fill-opacity: 0.5; stroke: #ffffff; stroke-linejoin: miter"/>
   </g>
   <g id="patch_136">
    <path d="M 1340.834403 2082.626875 
L 1372.097131 2082.626875 
L 1372.097131 1964.692099 
L 1340.834403 1964.692099 
z
" clip-path="url(#p393599e38f)" style="fill: #0000ff; fill-opacity: 0.5; stroke: #ffffff; stroke-linejoin: miter"/>
   </g>
   <g id="patch_137">
    <path d="M 1372.097131 2082.626875 
L 1403.359858 2082.626875 
L 1403.359858 2023.659487 
L 1372.097131 2023.659487 
z
" clip-path="url(#p393599e38f)" style="fill: #0000ff; fill-opacity: 0.5; stroke: #ffffff; stroke-linejoin: miter"/>
   </g>
   <g id="patch_138">
    <path d="M 1403.359858 2082.626875 
L 1434.622585 2082.626875 
L 1434.622585 2023.659487 
L 1403.359858 2023.659487 
z
" clip-path="url(#p393599e38f)" style="fill: #0000ff; fill-opacity: 0.5; stroke: #ffffff; stroke-linejoin: miter"/>
   </g>
   <g id="patch_139">
    <path d="M 1434.622585 2082.626875 
L 1465.885313 2082.626875 
L 1465.885313 1964.692099 
L 1434.622585 1964.692099 
z
" clip-path="url(#p393599e38f)" style="fill: #0000ff; fill-opacity: 0.5; stroke: #ffffff; stroke-linejoin: miter"/>
   </g>
   <g id="patch_140">
    <path d="M 1465.885313 2082.626875 
L 1497.14804 2082.626875 
L 1497.14804 1964.692099 
L 1465.885313 1964.692099 
z
" clip-path="url(#p393599e38f)" style="fill: #0000ff; fill-opacity: 0.5; stroke: #ffffff; stroke-linejoin: miter"/>
   </g>
   <g id="patch_141">
    <path d="M 1497.14804 2082.626875 
L 1528.410767 2082.626875 
L 1528.410767 1905.72471 
L 1497.14804 1905.72471 
z
" clip-path="url(#p393599e38f)" style="fill: #0000ff; fill-opacity: 0.5; stroke: #ffffff; stroke-linejoin: miter"/>
   </g>
   <g id="patch_142">
    <path d="M 1528.410767 2082.626875 
L 1559.673494 2082.626875 
L 1559.673494 2082.626875 
L 1528.410767 2082.626875 
z
" clip-path="url(#p393599e38f)" style="fill: #0000ff; fill-opacity: 0.5; stroke: #ffffff; stroke-linejoin: miter"/>
   </g>
   <g id="patch_143">
    <path d="M 1559.673494 2082.626875 
L 1590.936222 2082.626875 
L 1590.936222 2023.659487 
L 1559.673494 2023.659487 
z
" clip-path="url(#p393599e38f)" style="fill: #0000ff; fill-opacity: 0.5; stroke: #ffffff; stroke-linejoin: miter"/>
   </g>
   <g id="patch_144">
    <path d="M 1590.936222 2082.626875 
L 1622.198949 2082.626875 
L 1622.198949 1905.72471 
L 1590.936222 1905.72471 
z
" clip-path="url(#p393599e38f)" style="fill: #0000ff; fill-opacity: 0.5; stroke: #ffffff; stroke-linejoin: miter"/>
   </g>
   <g id="patch_145">
    <path d="M 1622.198949 2082.626875 
L 1653.461676 2082.626875 
L 1653.461676 2023.659487 
L 1622.198949 2023.659487 
z
" clip-path="url(#p393599e38f)" style="fill: #0000ff; fill-opacity: 0.5; stroke: #ffffff; stroke-linejoin: miter"/>
   </g>
   <g id="patch_146">
    <path d="M 1653.461676 2082.626875 
L 1684.724403 2082.626875 
L 1684.724403 2023.659487 
L 1653.461676 2023.659487 
z
" clip-path="url(#p393599e38f)" style="fill: #0000ff; fill-opacity: 0.5; stroke: #ffffff; stroke-linejoin: miter"/>
   </g>
   <g id="patch_147">
    <path d="M 1684.724403 2082.626875 
L 1715.987131 2082.626875 
L 1715.987131 1905.72471 
L 1684.724403 1905.72471 
z
" clip-path="url(#p393599e38f)" style="fill: #0000ff; fill-opacity: 0.5; stroke: #ffffff; stroke-linejoin: miter"/>
   </g>
   <g id="patch_148">
    <path d="M 1715.987131 2082.626875 
L 1747.249858 2082.626875 
L 1747.249858 2023.659487 
L 1715.987131 2023.659487 
z
" clip-path="url(#p393599e38f)" style="fill: #0000ff; fill-opacity: 0.5; stroke: #ffffff; stroke-linejoin: miter"/>
   </g>
   <g id="patch_149">
    <path d="M 1747.249858 2082.626875 
L 1778.512585 2082.626875 
L 1778.512585 1964.692099 
L 1747.249858 1964.692099 
z
" clip-path="url(#p393599e38f)" style="fill: #0000ff; fill-opacity: 0.5; stroke: #ffffff; stroke-linejoin: miter"/>
   </g>
   <g id="patch_150">
    <path d="M 1778.512585 2082.626875 
L 1809.775312 2082.626875 
L 1809.775312 2023.659487 
L 1778.512585 2023.659487 
z
" clip-path="url(#p393599e38f)" style="fill: #0000ff; fill-opacity: 0.5; stroke: #ffffff; stroke-linejoin: miter"/>
   </g>
   <g id="patch_151">
    <path d="M 1809.775312 2082.626875 
L 1841.03804 2082.626875 
L 1841.03804 1846.757322 
L 1809.775312 1846.757322 
z
" clip-path="url(#p393599e38f)" style="fill: #0000ff; fill-opacity: 0.5; stroke: #ffffff; stroke-linejoin: miter"/>
   </g>
   <g id="patch_152">
    <path d="M 1841.03804 2082.626875 
L 1872.300767 2082.626875 
L 1872.300767 2082.626875 
L 1841.03804 2082.626875 
z
" clip-path="url(#p393599e38f)" style="fill: #0000ff; fill-opacity: 0.5; stroke: #ffffff; stroke-linejoin: miter"/>
   </g>
   <g id="patch_153">
    <path d="M 1872.300767 2082.626875 
L 1903.563494 2082.626875 
L 1903.563494 1905.72471 
L 1872.300767 1905.72471 
z
" clip-path="url(#p393599e38f)" style="fill: #0000ff; fill-opacity: 0.5; stroke: #ffffff; stroke-linejoin: miter"/>
   </g>
   <g id="patch_154">
    <path d="M 1903.563494 2082.626875 
L 1934.826222 2082.626875 
L 1934.826222 2082.626875 
L 1903.563494 2082.626875 
z
" clip-path="url(#p393599e38f)" style="fill: #0000ff; fill-opacity: 0.5; stroke: #ffffff; stroke-linejoin: miter"/>
   </g>
   <g id="patch_155">
    <path d="M 1934.826222 2082.626875 
L 1966.088949 2082.626875 
L 1966.088949 2023.659487 
L 1934.826222 2023.659487 
z
" clip-path="url(#p393599e38f)" style="fill: #0000ff; fill-opacity: 0.5; stroke: #ffffff; stroke-linejoin: miter"/>
   </g>
   <g id="patch_156">
    <path d="M 1966.088949 2082.626875 
L 1997.351676 2082.626875 
L 1997.351676 2082.626875 
L 1966.088949 2082.626875 
z
" clip-path="url(#p393599e38f)" style="fill: #0000ff; fill-opacity: 0.5; stroke: #ffffff; stroke-linejoin: miter"/>
   </g>
   <g id="patch_157">
    <path d="M 1997.351676 2082.626875 
L 2028.614403 2082.626875 
L 2028.614403 2023.659487 
L 1997.351676 2023.659487 
z
" clip-path="url(#p393599e38f)" style="fill: #0000ff; fill-opacity: 0.5; stroke: #ffffff; stroke-linejoin: miter"/>
   </g>
   <g id="patch_158">
    <path d="M 2028.614403 2082.626875 
L 2059.877131 2082.626875 
L 2059.877131 1964.692099 
L 2028.614403 1964.692099 
z
" clip-path="url(#p393599e38f)" style="fill: #0000ff; fill-opacity: 0.5; stroke: #ffffff; stroke-linejoin: miter"/>
   </g>
   <g id="patch_159">
    <path d="M 2059.877131 2082.626875 
L 2091.139858 2082.626875 
L 2091.139858 2082.626875 
L 2059.877131 2082.626875 
z
" clip-path="url(#p393599e38f)" style="fill: #0000ff; fill-opacity: 0.5; stroke: #ffffff; stroke-linejoin: miter"/>
   </g>
   <g id="patch_160">
    <path d="M 2091.139858 2082.626875 
L 2122.402585 2082.626875 
L 2122.402585 1964.692099 
L 2091.139858 1964.692099 
z
" clip-path="url(#p393599e38f)" style="fill: #0000ff; fill-opacity: 0.5; stroke: #ffffff; stroke-linejoin: miter"/>
   </g>
   <g id="patch_161">
    <path d="M 2122.402585 2082.626875 
L 2153.665312 2082.626875 
L 2153.665312 2082.626875 
L 2122.402585 2082.626875 
z
" clip-path="url(#p393599e38f)" style="fill: #0000ff; fill-opacity: 0.5; stroke: #ffffff; stroke-linejoin: miter"/>
   </g>
   <g id="patch_162">
    <path d="M 2153.665312 2082.626875 
L 2184.92804 2082.626875 
L 2184.92804 2082.626875 
L 2153.665312 2082.626875 
z
" clip-path="url(#p393599e38f)" style="fill: #0000ff; fill-opacity: 0.5; stroke: #ffffff; stroke-linejoin: miter"/>
   </g>
   <g id="patch_163">
    <path d="M 2184.92804 2082.626875 
L 2216.190767 2082.626875 
L 2216.190767 2023.659487 
L 2184.92804 2023.659487 
z
" clip-path="url(#p393599e38f)" style="fill: #0000ff; fill-opacity: 0.5; stroke: #ffffff; stroke-linejoin: miter"/>
   </g>
   <g id="patch_164">
    <path d="M 2216.190767 2082.626875 
L 2247.453494 2082.626875 
L 2247.453494 2023.659487 
L 2216.190767 2023.659487 
z
" clip-path="url(#p393599e38f)" style="fill: #0000ff; fill-opacity: 0.5; stroke: #ffffff; stroke-linejoin: miter"/>
   </g>
   <g id="patch_165">
    <path d="M 2247.453494 2082.626875 
L 2278.716222 2082.626875 
L 2278.716222 2082.626875 
L 2247.453494 2082.626875 
z
" clip-path="url(#p393599e38f)" style="fill: #0000ff; fill-opacity: 0.5; stroke: #ffffff; stroke-linejoin: miter"/>
   </g>
   <g id="patch_166">
    <path d="M 2278.716222 2082.626875 
L 2309.978949 2082.626875 
L 2309.978949 2023.659487 
L 2278.716222 2023.659487 
z
" clip-path="url(#p393599e38f)" style="fill: #0000ff; fill-opacity: 0.5; stroke: #ffffff; stroke-linejoin: miter"/>
   </g>
   <g id="patch_167">
    <path d="M 2309.978949 2082.626875 
L 2341.241676 2082.626875 
L 2341.241676 2082.626875 
L 2309.978949 2082.626875 
z
" clip-path="url(#p393599e38f)" style="fill: #0000ff; fill-opacity: 0.5; stroke: #ffffff; stroke-linejoin: miter"/>
   </g>
   <g id="patch_168">
    <path d="M 2341.241676 2082.626875 
L 2372.504403 2082.626875 
L 2372.504403 2023.659487 
L 2341.241676 2023.659487 
z
" clip-path="url(#p393599e38f)" style="fill: #0000ff; fill-opacity: 0.5; stroke: #ffffff; stroke-linejoin: miter"/>
   </g>
   <g id="patch_169">
    <path d="M 2372.504403 2082.626875 
L 2403.767131 2082.626875 
L 2403.767131 2023.659487 
L 2372.504403 2023.659487 
z
" clip-path="url(#p393599e38f)" style="fill: #0000ff; fill-opacity: 0.5; stroke: #ffffff; stroke-linejoin: miter"/>
   </g>
   <g id="patch_170">
    <path d="M 2403.767131 2082.626875 
L 2435.029858 2082.626875 
L 2435.029858 1964.692099 
L 2403.767131 1964.692099 
z
" clip-path="url(#p393599e38f)" style="fill: #0000ff; fill-opacity: 0.5; stroke: #ffffff; stroke-linejoin: miter"/>
   </g>
   <g id="patch_171">
    <path d="M 2435.029858 2082.626875 
L 2466.292585 2082.626875 
L 2466.292585 2023.659487 
L 2435.029858 2023.659487 
z
" clip-path="url(#p393599e38f)" style="fill: #0000ff; fill-opacity: 0.5; stroke: #ffffff; stroke-linejoin: miter"/>
   </g>
   <g id="patch_172">
    <path d="M 2466.292585 2082.626875 
L 2497.555312 2082.626875 
L 2497.555312 1964.692099 
L 2466.292585 1964.692099 
z
" clip-path="url(#p393599e38f)" style="fill: #0000ff; fill-opacity: 0.5; stroke: #ffffff; stroke-linejoin: miter"/>
   </g>
   <g id="patch_173">
    <path d="M 2497.555312 2082.626875 
L 2528.81804 2082.626875 
L 2528.81804 2082.626875 
L 2497.555312 2082.626875 
z
" clip-path="url(#p393599e38f)" style="fill: #0000ff; fill-opacity: 0.5; stroke: #ffffff; stroke-linejoin: miter"/>
   </g>
   <g id="patch_174">
    <path d="M 2528.81804 2082.626875 
L 2560.080767 2082.626875 
L 2560.080767 2082.626875 
L 2528.81804 2082.626875 
z
" clip-path="url(#p393599e38f)" style="fill: #0000ff; fill-opacity: 0.5; stroke: #ffffff; stroke-linejoin: miter"/>
   </g>
   <g id="patch_175">
    <path d="M 2560.080767 2082.626875 
L 2591.343494 2082.626875 
L 2591.343494 2082.626875 
L 2560.080767 2082.626875 
z
" clip-path="url(#p393599e38f)" style="fill: #0000ff; fill-opacity: 0.5; stroke: #ffffff; stroke-linejoin: miter"/>
   </g>
   <g id="patch_176">
    <path d="M 2591.343494 2082.626875 
L 2622.606222 2082.626875 
L 2622.606222 2082.626875 
L 2591.343494 2082.626875 
z
" clip-path="url(#p393599e38f)" style="fill: #0000ff; fill-opacity: 0.5; stroke: #ffffff; stroke-linejoin: miter"/>
   </g>
   <g id="patch_177">
    <path d="M 2622.606222 2082.626875 
L 2653.868949 2082.626875 
L 2653.868949 1964.692099 
L 2622.606222 1964.692099 
z
" clip-path="url(#p393599e38f)" style="fill: #0000ff; fill-opacity: 0.5; stroke: #ffffff; stroke-linejoin: miter"/>
   </g>
   <g id="patch_178">
    <path d="M 2653.868949 2082.626875 
L 2685.131676 2082.626875 
L 2685.131676 2082.626875 
L 2653.868949 2082.626875 
z
" clip-path="url(#p393599e38f)" style="fill: #0000ff; fill-opacity: 0.5; stroke: #ffffff; stroke-linejoin: miter"/>
   </g>
   <g id="patch_179">
    <path d="M 2685.131676 2082.626875 
L 2716.394403 2082.626875 
L 2716.394403 2023.659487 
L 2685.131676 2023.659487 
z
" clip-path="url(#p393599e38f)" style="fill: #0000ff; fill-opacity: 0.5; stroke: #ffffff; stroke-linejoin: miter"/>
   </g>
   <g id="patch_180">
    <path d="M 2716.394403 2082.626875 
L 2747.657131 2082.626875 
L 2747.657131 1964.692099 
L 2716.394403 1964.692099 
z
" clip-path="url(#p393599e38f)" style="fill: #0000ff; fill-opacity: 0.5; stroke: #ffffff; stroke-linejoin: miter"/>
   </g>
   <g id="patch_181">
    <path d="M 2747.657131 2082.626875 
L 2778.919858 2082.626875 
L 2778.919858 2023.659487 
L 2747.657131 2023.659487 
z
" clip-path="url(#p393599e38f)" style="fill: #0000ff; fill-opacity: 0.5; stroke: #ffffff; stroke-linejoin: miter"/>
   </g>
   <g id="patch_182">
    <path d="M 2778.919858 2082.626875 
L 2810.182585 2082.626875 
L 2810.182585 2082.626875 
L 2778.919858 2082.626875 
z
" clip-path="url(#p393599e38f)" style="fill: #0000ff; fill-opacity: 0.5; stroke: #ffffff; stroke-linejoin: miter"/>
   </g>
   <g id="patch_183">
    <path d="M 2810.182585 2082.626875 
L 2841.445312 2082.626875 
L 2841.445312 2023.659487 
L 2810.182585 2023.659487 
z
" clip-path="url(#p393599e38f)" style="fill: #0000ff; fill-opacity: 0.5; stroke: #ffffff; stroke-linejoin: miter"/>
   </g>
   <g id="patch_184">
    <path d="M 2841.445312 2082.626875 
L 2872.70804 2082.626875 
L 2872.70804 2082.626875 
L 2841.445312 2082.626875 
z
" clip-path="url(#p393599e38f)" style="fill: #0000ff; fill-opacity: 0.5; stroke: #ffffff; stroke-linejoin: miter"/>
   </g>
   <g id="patch_185">
    <path d="M 2872.70804 2082.626875 
L 2903.970767 2082.626875 
L 2903.970767 2082.626875 
L 2872.70804 2082.626875 
z
" clip-path="url(#p393599e38f)" style="fill: #0000ff; fill-opacity: 0.5; stroke: #ffffff; stroke-linejoin: miter"/>
   </g>
   <g id="patch_186">
    <path d="M 2903.970767 2082.626875 
L 2935.233494 2082.626875 
L 2935.233494 2082.626875 
L 2903.970767 2082.626875 
z
" clip-path="url(#p393599e38f)" style="fill: #0000ff; fill-opacity: 0.5; stroke: #ffffff; stroke-linejoin: miter"/>
   </g>
   <g id="patch_187">
    <path d="M 2935.233494 2082.626875 
L 2966.496222 2082.626875 
L 2966.496222 2082.626875 
L 2935.233494 2082.626875 
z
" clip-path="url(#p393599e38f)" style="fill: #0000ff; fill-opacity: 0.5; stroke: #ffffff; stroke-linejoin: miter"/>
   </g>
   <g id="patch_188">
    <path d="M 2966.496222 2082.626875 
L 2997.758949 2082.626875 
L 2997.758949 2023.659487 
L 2966.496222 2023.659487 
z
" clip-path="url(#p393599e38f)" style="fill: #0000ff; fill-opacity: 0.5; stroke: #ffffff; stroke-linejoin: miter"/>
   </g>
   <g id="patch_189">
    <path d="M 2997.758949 2082.626875 
L 3029.021676 2082.626875 
L 3029.021676 2023.659487 
L 2997.758949 2023.659487 
z
" clip-path="url(#p393599e38f)" style="fill: #0000ff; fill-opacity: 0.5; stroke: #ffffff; stroke-linejoin: miter"/>
   </g>
   <g id="patch_190">
    <path d="M 3029.021676 2082.626875 
L 3060.284403 2082.626875 
L 3060.284403 2082.626875 
L 3029.021676 2082.626875 
z
" clip-path="url(#p393599e38f)" style="fill: #0000ff; fill-opacity: 0.5; stroke: #ffffff; stroke-linejoin: miter"/>
   </g>
   <g id="patch_191">
    <path d="M 3060.284403 2082.626875 
L 3091.547131 2082.626875 
L 3091.547131 2082.626875 
L 3060.284403 2082.626875 
z
" clip-path="url(#p393599e38f)" style="fill: #0000ff; fill-opacity: 0.5; stroke: #ffffff; stroke-linejoin: miter"/>
   </g>
   <g id="patch_192">
    <path d="M 3091.547131 2082.626875 
L 3122.809858 2082.626875 
L 3122.809858 2082.626875 
L 3091.547131 2082.626875 
z
" clip-path="url(#p393599e38f)" style="fill: #0000ff; fill-opacity: 0.5; stroke: #ffffff; stroke-linejoin: miter"/>
   </g>
   <g id="patch_193">
    <path d="M 3122.809858 2082.626875 
L 3154.072585 2082.626875 
L 3154.072585 2082.626875 
L 3122.809858 2082.626875 
z
" clip-path="url(#p393599e38f)" style="fill: #0000ff; fill-opacity: 0.5; stroke: #ffffff; stroke-linejoin: miter"/>
   </g>
   <g id="patch_194">
    <path d="M 3154.072585 2082.626875 
L 3185.335312 2082.626875 
L 3185.335312 2082.626875 
L 3154.072585 2082.626875 
z
" clip-path="url(#p393599e38f)" style="fill: #0000ff; fill-opacity: 0.5; stroke: #ffffff; stroke-linejoin: miter"/>
   </g>
   <g id="patch_195">
    <path d="M 3185.335312 2082.626875 
L 3216.59804 2082.626875 
L 3216.59804 2082.626875 
L 3185.335312 2082.626875 
z
" clip-path="url(#p393599e38f)" style="fill: #0000ff; fill-opacity: 0.5; stroke: #ffffff; stroke-linejoin: miter"/>
   </g>
   <g id="patch_196">
    <path d="M 3216.59804 2082.626875 
L 3247.860767 2082.626875 
L 3247.860767 2082.626875 
L 3216.59804 2082.626875 
z
" clip-path="url(#p393599e38f)" style="fill: #0000ff; fill-opacity: 0.5; stroke: #ffffff; stroke-linejoin: miter"/>
   </g>
   <g id="patch_197">
    <path d="M 3247.860767 2082.626875 
L 3279.123494 2082.626875 
L 3279.123494 2082.626875 
L 3247.860767 2082.626875 
z
" clip-path="url(#p393599e38f)" style="fill: #0000ff; fill-opacity: 0.5; stroke: #ffffff; stroke-linejoin: miter"/>
   </g>
   <g id="patch_198">
    <path d="M 3279.123494 2082.626875 
L 3310.386222 2082.626875 
L 3310.386222 2082.626875 
L 3279.123494 2082.626875 
z
" clip-path="url(#p393599e38f)" style="fill: #0000ff; fill-opacity: 0.5; stroke: #ffffff; stroke-linejoin: miter"/>
   </g>
   <g id="patch_199">
    <path d="M 3310.386222 2082.626875 
L 3341.648949 2082.626875 
L 3341.648949 2082.626875 
L 3310.386222 2082.626875 
z
" clip-path="url(#p393599e38f)" style="fill: #0000ff; fill-opacity: 0.5; stroke: #ffffff; stroke-linejoin: miter"/>
   </g>
   <g id="patch_200">
    <path d="M 3341.648949 2082.626875 
L 3372.911676 2082.626875 
L 3372.911676 2082.626875 
L 3341.648949 2082.626875 
z
" clip-path="url(#p393599e38f)" style="fill: #0000ff; fill-opacity: 0.5; stroke: #ffffff; stroke-linejoin: miter"/>
   </g>
   <g id="line2d_14">
    <path d="M 357.528639 2069.796497 
L 425.016572 2069.152905 
L 492.504504 2068.712516 
L 559.992436 2068.478124 
L 640.977955 2068.448653 
L 721.963474 2068.64334 
L 843.441752 2069.180919 
L 991.915203 2069.815959 
L 1072.900722 2069.962967 
L 1153.88624 2069.876966 
L 1221.374173 2069.595677 
L 1288.862105 2069.113036 
L 1356.350037 2068.4339 
L 1437.335556 2067.386417 
L 1531.818661 2065.914895 
L 1869.258323 2060.354932 
L 1950.243841 2059.388826 
L 2017.731774 2058.780101 
L 2085.219706 2058.36237 
L 2152.707638 2058.135563 
L 2233.693157 2058.101386 
L 2314.678676 2058.298999 
L 2409.161781 2058.776155 
L 2503.644886 2059.471711 
L 2611.625578 2060.49459 
L 2719.606269 2061.75203 
L 2814.089375 2063.05884 
L 2908.57248 2064.573626 
L 3003.055585 2066.295568 
L 3043.548344 2067.091098 
L 3043.548344 2067.091098 
" clip-path="url(#p393599e38f)" style="fill: none; stroke: #ffa500; stroke-width: 1.5; stroke-linecap: round"/>
   </g>
   <g id="line2d_15">
    <path d="M 246.638949 1226.741974 
L 260.510411 1203.072796 
L 274.381873 1183.917499 
L 288.253335 1169.49329 
L 302.124797 1159.925555 
L 315.996259 1155.245433 
L 329.867721 1155.39048 
L 343.739183 1160.208342 
L 357.610645 1169.463224 
L 371.482107 1182.84482 
L 385.353569 1199.979276 
L 399.225031 1220.441679 
L 413.096493 1243.76953 
L 426.967955 1269.476636 
L 440.839417 1297.066865 
L 454.71088 1326.047283 
L 468.582342 1355.940204 
L 510.196728 1446.7568 
L 524.06819 1476.162699 
L 537.939652 1504.630558 
L 551.811114 1531.933534 
L 565.682576 1557.895777 
L 579.554038 1582.390575 
L 593.4255 1605.337272 
L 607.296962 1626.697226 
L 621.168424 1646.469074 
L 635.039886 1664.683557 
L 648.911348 1681.398167 
L 662.78281 1696.691799 
L 676.654272 1710.659616 
L 690.525734 1723.408246 
L 704.397196 1735.05143 
L 718.268658 1745.706192 
L 732.14012 1755.489551 
L 746.011582 1764.515809 
L 759.883045 1772.894378 
L 773.754507 1780.728121 
L 787.625969 1788.112165 
L 801.497431 1795.133122 
L 815.368893 1801.868655 
L 829.240355 1808.387341 
L 856.983279 1821.00379 
L 940.212051 1858.16403 
L 967.954975 1870.81255 
L 1009.569361 1890.065524 
L 1065.05521 1915.749568 
L 1092.798134 1928.27523 
L 1106.669596 1934.386118 
L 1120.541058 1940.366978 
L 1134.41252 1946.196585 
L 1148.283982 1951.85437 
L 1162.155444 1957.320731 
L 1176.026906 1962.577333 
L 1189.898368 1967.607384 
L 1203.76983 1972.395882 
L 1217.641292 1976.92984 
L 1231.512754 1981.198469 
L 1245.384216 1985.193335 
L 1259.255678 1988.908464 
L 1273.12714 1992.34042 
L 1286.998602 1995.488323 
L 1300.870064 1998.353836 
L 1314.741526 2000.941102 
L 1328.612988 2003.256635 
L 1342.48445 2005.30918 
L 1356.355912 2007.109522 
L 1370.227375 2008.670277 
L 1384.098837 2010.00564 
L 1397.970299 2011.131125 
L 1411.841761 2012.063283 
L 1425.713223 2012.81942 
L 1439.584685 2013.417307 
L 1453.456147 2013.874915 
L 1481.199071 2014.440639 
L 1508.941995 2014.65522 
L 1550.556381 2014.595947 
L 1619.913691 2014.359747 
L 1647.656615 2014.462479 
L 1675.399539 2014.775898 
L 1703.142464 2015.350113 
L 1730.885388 2016.223799 
L 1758.628312 2017.422443 
L 1786.371236 2018.955951 
L 1814.11416 2020.816426 
L 1841.857084 2022.977 
L 1869.600008 2025.392374 
L 1911.214394 2029.355822 
L 1994.443167 2037.557273 
L 2022.186091 2040.085616 
L 2049.929015 2042.396615 
L 2077.671939 2044.437162 
L 2105.414863 2046.167261 
L 2133.157787 2047.561513 
L 2160.900711 2048.610614 
L 2188.643635 2049.322788 
L 2216.386559 2049.724652 
L 2244.129483 2049.860841 
L 2271.872407 2049.791693 
L 2327.358256 2049.327439 
L 2382.844104 2048.907459 
L 2424.45849 2048.875117 
L 2466.072876 2049.155828 
L 2507.687262 2049.713954 
L 2563.17311 2050.758346 
L 2618.658959 2052.052066 
L 2660.273345 2053.225698 
L 2701.887731 2054.659153 
L 2729.630655 2055.792852 
L 2771.245041 2057.773031 
L 2812.859427 2060.043897 
L 2868.345275 2063.340034 
L 2951.574048 2068.289756 
L 3007.059896 2071.331988 
L 3007.059896 2071.331988 
" clip-path="url(#p393599e38f)" style="fill: none; stroke: #0000ff; stroke-width: 1.5; stroke-linecap: round"/>
   </g>
   <g id="patch_201">
    <path d="M 90.325312 2082.626875 
L 90.325312 39.406875 
" style="fill: none; stroke: #ffffff; stroke-width: 1.25; stroke-linejoin: miter; stroke-linecap: square"/>
   </g>
   <g id="patch_202">
    <path d="M 3529.225312 2082.626875 
L 3529.225312 39.406875 
" style="fill: none; stroke: #ffffff; stroke-width: 1.25; stroke-linejoin: miter; stroke-linecap: square"/>
   </g>
   <g id="patch_203">
    <path d="M 90.325312 2082.626875 
L 3529.225312 2082.626875 
" style="fill: none; stroke: #ffffff; stroke-width: 1.25; stroke-linejoin: miter; stroke-linecap: square"/>
   </g>
   <g id="patch_204">
    <path d="M 90.325312 39.406875 
L 3529.225312 39.406875 
" style="fill: none; stroke: #ffffff; stroke-width: 1.25; stroke-linejoin: miter; stroke-linecap: square"/>
   </g>
   <g id="text_16">
    <!-- all_MACCSkey_prediction probability distribution -->
    <g style="fill: #262626" transform="translate(1421.608125 33.406875)scale(0.36 -0.36)">
     <defs>
      <path id="ArialMT-5f" d="M -97 -1272 
L -97 -866 
L 3631 -866 
L 3631 -1272 
L -97 -1272 
z
" transform="scale(0.015625)"/>
      <path id="ArialMT-4d" d="M 475 0 
L 475 4581 
L 1388 4581 
L 2472 1338 
Q 2622 884 2691 659 
Q 2769 909 2934 1394 
L 4031 4581 
L 4847 4581 
L 4847 0 
L 4263 0 
L 4263 3834 
L 2931 0 
L 2384 0 
L 1059 3900 
L 1059 0 
L 475 0 
z
" transform="scale(0.015625)"/>
      <path id="ArialMT-41" d="M -9 0 
L 1750 4581 
L 2403 4581 
L 4278 0 
L 3588 0 
L 3053 1388 
L 1138 1388 
L 634 0 
L -9 0 
z
M 1313 1881 
L 2866 1881 
L 2388 3150 
Q 2169 3728 2063 4100 
Q 1975 3659 1816 3225 
L 1313 1881 
z
" transform="scale(0.015625)"/>
      <path id="ArialMT-53" d="M 288 1472 
L 859 1522 
Q 900 1178 1048 958 
Q 1197 738 1509 602 
Q 1822 466 2213 466 
Q 2559 466 2825 569 
Q 3091 672 3220 851 
Q 3350 1031 3350 1244 
Q 3350 1459 3225 1620 
Q 3100 1781 2813 1891 
Q 2628 1963 1997 2114 
Q 1366 2266 1113 2400 
Q 784 2572 623 2826 
Q 463 3081 463 3397 
Q 463 3744 659 4045 
Q 856 4347 1234 4503 
Q 1613 4659 2075 4659 
Q 2584 4659 2973 4495 
Q 3363 4331 3572 4012 
Q 3781 3694 3797 3291 
L 3216 3247 
Q 3169 3681 2898 3903 
Q 2628 4125 2100 4125 
Q 1550 4125 1298 3923 
Q 1047 3722 1047 3438 
Q 1047 3191 1225 3031 
Q 1400 2872 2139 2705 
Q 2878 2538 3153 2413 
Q 3553 2228 3743 1945 
Q 3934 1663 3934 1294 
Q 3934 928 3725 604 
Q 3516 281 3123 101 
Q 2731 -78 2241 -78 
Q 1619 -78 1198 103 
Q 778 284 539 648 
Q 300 1013 288 1472 
z
" transform="scale(0.015625)"/>
      <path id="ArialMT-6b" d="M 425 0 
L 425 4581 
L 988 4581 
L 988 1969 
L 2319 3319 
L 3047 3319 
L 1778 2088 
L 3175 0 
L 2481 0 
L 1384 1697 
L 988 1316 
L 988 0 
L 425 0 
z
" transform="scale(0.015625)"/>
      <path id="ArialMT-65" d="M 2694 1069 
L 3275 997 
Q 3138 488 2766 206 
Q 2394 -75 1816 -75 
Q 1088 -75 661 373 
Q 234 822 234 1631 
Q 234 2469 665 2931 
Q 1097 3394 1784 3394 
Q 2450 3394 2872 2941 
Q 3294 2488 3294 1666 
Q 3294 1616 3291 1516 
L 816 1516 
Q 847 969 1125 678 
Q 1403 388 1819 388 
Q 2128 388 2347 550 
Q 2566 713 2694 1069 
z
M 847 1978 
L 2700 1978 
Q 2663 2397 2488 2606 
Q 2219 2931 1791 2931 
Q 1403 2931 1139 2672 
Q 875 2413 847 1978 
z
" transform="scale(0.015625)"/>
      <path id="ArialMT-64" d="M 2575 0 
L 2575 419 
Q 2259 -75 1647 -75 
Q 1250 -75 917 144 
Q 584 363 401 755 
Q 219 1147 219 1656 
Q 219 2153 384 2558 
Q 550 2963 881 3178 
Q 1213 3394 1622 3394 
Q 1922 3394 2156 3267 
Q 2391 3141 2538 2938 
L 2538 4581 
L 3097 4581 
L 3097 0 
L 2575 0 
z
M 797 1656 
Q 797 1019 1065 703 
Q 1334 388 1700 388 
Q 2069 388 2326 689 
Q 2584 991 2584 1609 
Q 2584 2291 2321 2609 
Q 2059 2928 1675 2928 
Q 1300 2928 1048 2622 
Q 797 2316 797 1656 
z
" transform="scale(0.015625)"/>
      <path id="ArialMT-63" d="M 2588 1216 
L 3141 1144 
Q 3050 572 2676 248 
Q 2303 -75 1759 -75 
Q 1078 -75 664 370 
Q 250 816 250 1647 
Q 250 2184 428 2587 
Q 606 2991 970 3192 
Q 1334 3394 1763 3394 
Q 2303 3394 2647 3120 
Q 2991 2847 3088 2344 
L 2541 2259 
Q 2463 2594 2264 2762 
Q 2066 2931 1784 2931 
Q 1359 2931 1093 2626 
Q 828 2322 828 1663 
Q 828 994 1084 691 
Q 1341 388 1753 388 
Q 2084 388 2306 591 
Q 2528 794 2588 1216 
z
" transform="scale(0.015625)"/>
      <path id="ArialMT-20" transform="scale(0.015625)"/>
      <path id="ArialMT-73" d="M 197 991 
L 753 1078 
Q 800 744 1014 566 
Q 1228 388 1613 388 
Q 2000 388 2187 545 
Q 2375 703 2375 916 
Q 2375 1106 2209 1216 
Q 2094 1291 1634 1406 
Q 1016 1563 777 1677 
Q 538 1791 414 1992 
Q 291 2194 291 2438 
Q 291 2659 392 2848 
Q 494 3038 669 3163 
Q 800 3259 1026 3326 
Q 1253 3394 1513 3394 
Q 1903 3394 2198 3281 
Q 2494 3169 2634 2976 
Q 2775 2784 2828 2463 
L 2278 2388 
Q 2241 2644 2061 2787 
Q 1881 2931 1553 2931 
Q 1166 2931 1000 2803 
Q 834 2675 834 2503 
Q 834 2394 903 2306 
Q 972 2216 1119 2156 
Q 1203 2125 1616 2013 
Q 2213 1853 2448 1751 
Q 2684 1650 2818 1456 
Q 2953 1263 2953 975 
Q 2953 694 2789 445 
Q 2625 197 2315 61 
Q 2006 -75 1616 -75 
Q 969 -75 630 194 
Q 291 463 197 991 
z
" transform="scale(0.015625)"/>
     </defs>
     <use xlink:href="#ArialMT-61"/>
     <use xlink:href="#ArialMT-6c" x="55.615234"/>
     <use xlink:href="#ArialMT-6c" x="77.832031"/>
     <use xlink:href="#ArialMT-5f" x="100.048828"/>
     <use xlink:href="#ArialMT-4d" x="155.664062"/>
     <use xlink:href="#ArialMT-41" x="238.964844"/>
     <use xlink:href="#ArialMT-43" x="305.664062"/>
     <use xlink:href="#ArialMT-43" x="377.880859"/>
     <use xlink:href="#ArialMT-53" x="450.097656"/>
     <use xlink:href="#ArialMT-6b" x="516.796875"/>
     <use xlink:href="#ArialMT-65" x="566.796875"/>
     <use xlink:href="#ArialMT-79" x="622.412109"/>
     <use xlink:href="#ArialMT-5f" x="672.412109"/>
     <use xlink:href="#ArialMT-70" x="728.027344"/>
     <use xlink:href="#ArialMT-72" x="783.642578"/>
     <use xlink:href="#ArialMT-65" x="816.943359"/>
     <use xlink:href="#ArialMT-64" x="872.558594"/>
     <use xlink:href="#ArialMT-69" x="928.173828"/>
     <use xlink:href="#ArialMT-63" x="950.390625"/>
     <use xlink:href="#ArialMT-74" x="1000.390625"/>
     <use xlink:href="#ArialMT-69" x="1028.173828"/>
     <use xlink:href="#ArialMT-6f" x="1050.390625"/>
     <use xlink:href="#ArialMT-6e" x="1106.005859"/>
     <use xlink:href="#ArialMT-20" x="1161.621094"/>
     <use xlink:href="#ArialMT-70" x="1189.404297"/>
     <use xlink:href="#ArialMT-72" x="1245.019531"/>
     <use xlink:href="#ArialMT-6f" x="1278.320312"/>
     <use xlink:href="#ArialMT-62" x="1333.935547"/>
     <use xlink:href="#ArialMT-61" x="1389.550781"/>
     <use xlink:href="#ArialMT-62" x="1445.166016"/>
     <use xlink:href="#ArialMT-69" x="1500.78125"/>
     <use xlink:href="#ArialMT-6c" x="1522.998047"/>
     <use xlink:href="#ArialMT-69" x="1545.214844"/>
     <use xlink:href="#ArialMT-74" x="1567.431641"/>
     <use xlink:href="#ArialMT-79" x="1595.214844"/>
     <use xlink:href="#ArialMT-20" x="1645.214844"/>
     <use xlink:href="#ArialMT-64" x="1672.998047"/>
     <use xlink:href="#ArialMT-69" x="1728.613281"/>
     <use xlink:href="#ArialMT-73" x="1750.830078"/>
     <use xlink:href="#ArialMT-74" x="1800.830078"/>
     <use xlink:href="#ArialMT-72" x="1828.613281"/>
     <use xlink:href="#ArialMT-69" x="1861.914062"/>
     <use xlink:href="#ArialMT-62" x="1884.130859"/>
     <use xlink:href="#ArialMT-75" x="1939.746094"/>
     <use xlink:href="#ArialMT-74" x="1995.361328"/>
     <use xlink:href="#ArialMT-69" x="2023.144531"/>
     <use xlink:href="#ArialMT-6f" x="2045.361328"/>
     <use xlink:href="#ArialMT-6e" x="2100.976562"/>
    </g>
   </g>
   <g id="legend_1">
    <g id="patch_205">
     <path d="M 3432.349062 105.3625 
L 3523.625312 105.3625 
Q 3525.225312 105.3625 3525.225312 103.7625 
L 3525.225312 45.006875 
Q 3525.225312 43.406875 3523.625312 43.406875 
L 3432.349062 43.406875 
Q 3430.749062 43.406875 3430.749062 45.006875 
L 3430.749062 103.7625 
Q 3430.749062 105.3625 3432.349062 105.3625 
z
" style="fill: #eaeaf2; opacity: 0.8; stroke: #cccccc; stroke-linejoin: miter"/>
    </g>
    <g id="text_17">
     <!-- Label -->
     <g style="fill: #262626" transform="translate(3433.949062 72.375)scale(0.36 -0.36)">
      <defs>
       <path id="ArialMT-4c" d="M 469 0 
L 469 4581 
L 1075 4581 
L 1075 541 
L 3331 541 
L 3331 0 
L 469 0 
z
" transform="scale(0.015625)"/>
      </defs>
      <use xlink:href="#ArialMT-4c"/>
      <use xlink:href="#ArialMT-61" x="55.615234"/>
      <use xlink:href="#ArialMT-62" x="111.230469"/>
      <use xlink:href="#ArialMT-65" x="166.845703"/>
      <use xlink:href="#ArialMT-6c" x="222.460938"/>
     </g>
    </g>
    <g id="patch_206">
     <path d="M 3456.112187 89.25625 
L 3472.112187 89.25625 
L 3472.112187 83.65625 
L 3456.112187 83.65625 
z
" style="fill: #ffa500; fill-opacity: 0.5; stroke: #ffffff; stroke-linejoin: miter"/>
    </g>
    <g id="text_18">
     <!-- label1 -->
     <g style="fill: #262626" transform="translate(3478.512187 89.25625)scale(0.08 -0.08)">
      <use xlink:href="#ArialMT-6c"/>
      <use xlink:href="#ArialMT-61" x="22.216797"/>
      <use xlink:href="#ArialMT-62" x="77.832031"/>
      <use xlink:href="#ArialMT-65" x="133.447266"/>
      <use xlink:href="#ArialMT-6c" x="189.0625"/>
      <use xlink:href="#ArialMT-31" x="211.279297"/>
     </g>
    </g>
    <g id="patch_207">
     <path d="M 3456.112187 100.5725 
L 3472.112187 100.5725 
L 3472.112187 94.9725 
L 3456.112187 94.9725 
z
" style="fill: #0000ff; fill-opacity: 0.5; stroke: #ffffff; stroke-linejoin: miter"/>
    </g>
    <g id="text_19">
     <!-- label0 -->
     <g style="fill: #262626" transform="translate(3478.512187 100.5725)scale(0.08 -0.08)">
      <use xlink:href="#ArialMT-6c"/>
      <use xlink:href="#ArialMT-61" x="22.216797"/>
      <use xlink:href="#ArialMT-62" x="77.832031"/>
      <use xlink:href="#ArialMT-65" x="133.447266"/>
      <use xlink:href="#ArialMT-6c" x="189.0625"/>
      <use xlink:href="#ArialMT-30" x="211.279297"/>
     </g>
    </g>
   </g>
  </g>
 </g>
 <defs>
  <clipPath id="p393599e38f">
   <rect x="90.325312" y="39.406875" width="3438.9" height="2043.22"/>
  </clipPath>
 </defs>
</svg>
