<?xml version="1.0" encoding="utf-8" standalone="no"?>
<!DOCTYPE svg PUBLIC "-//W3C//DTD SVG 1.1//EN"
  "http://www.w3.org/Graphics/SVG/1.1/DTD/svg11.dtd">
<svg xmlns:xlink="http://www.w3.org/1999/xlink" width="3537.02625pt" height="2159.465842pt" viewBox="0 0 3537.02625 2159.465842" xmlns="http://www.w3.org/2000/svg" version="1.1">
 <metadata>
  <rdf:RDF xmlns:dc="http://purl.org/dc/elements/1.1/" xmlns:cc="http://creativecommons.org/ns#" xmlns:rdf="http://www.w3.org/1999/02/22-rdf-syntax-ns#">
   <cc:Work>
    <dc:type rdf:resource="http://purl.org/dc/dcmitype/StillImage"/>
    <dc:date>2022-11-23T14:04:47.374419</dc:date>
    <dc:format>image/svg+xml</dc:format>
    <dc:creator>
     <cc:Agent>
      <dc:title>Matplotlib v3.5.2, https://matplotlib.org/</dc:title>
     </cc:Agent>
    </dc:creator>
   </cc:Work>
  </rdf:RDF>
 </metadata>
 <defs>
  <style type="text/css">*{stroke-linejoin: round; stroke-linecap: butt}</style>
 </defs>
 <g id="figure_1">
  <g id="patch_1">
   <path d="M -0 2159.465842 
L 3537.02625 2159.465842 
L 3537.02625 0 
L -0 0 
z
" style="fill: #ffffff"/>
  </g>
  <g id="axes_1">
   <g id="patch_2">
    <path d="M 139.52625 2071.986779 
L 3529.82625 2071.986779 
L 3529.82625 40.554375 
L 139.52625 40.554375 
z
" style="fill: #eaeaf2"/>
   </g>
   <g id="matplotlib.axis_1">
    <g id="xtick_1">
     <g id="line2d_1">
      <path d="M 293.630795 2071.986779 
L 293.630795 40.554375 
" clip-path="url(#p575b4af4d0)" style="fill: none; stroke: #ffffff; stroke-linecap: round"/>
     </g>
     <g id="text_1">
      <!-- 0.0 -->
      <g style="fill: #262626" transform="translate(267.390639 2106.561623)scale(0.33 -0.33)">
       <defs>
        <path id="DejaVuSans-30" d="M 2034 4250 
Q 1547 4250 1301 3770 
Q 1056 3291 1056 2328 
Q 1056 1369 1301 889 
Q 1547 409 2034 409 
Q 2525 409 2770 889 
Q 3016 1369 3016 2328 
Q 3016 3291 2770 3770 
Q 2525 4250 2034 4250 
z
M 2034 4750 
Q 2819 4750 3233 4129 
Q 3647 3509 3647 2328 
Q 3647 1150 3233 529 
Q 2819 -91 2034 -91 
Q 1250 -91 836 529 
Q 422 1150 422 2328 
Q 422 3509 836 4129 
Q 1250 4750 2034 4750 
z
" transform="scale(0.015625)"/>
        <path id="DejaVuSans-2e" d="M 684 794 
L 1344 794 
L 1344 0 
L 684 0 
L 684 794 
z
" transform="scale(0.015625)"/>
       </defs>
       <use xlink:href="#DejaVuSans-30"/>
       <use xlink:href="#DejaVuSans-2e" x="63.623047"/>
       <use xlink:href="#DejaVuSans-30" x="95.410156"/>
      </g>
     </g>
    </g>
    <g id="xtick_2">
     <g id="line2d_2">
      <path d="M 910.048977 2071.986779 
L 910.048977 40.554375 
" clip-path="url(#p575b4af4d0)" style="fill: none; stroke: #ffffff; stroke-linecap: round"/>
     </g>
     <g id="text_2">
      <!-- 0.2 -->
      <g style="fill: #262626" transform="translate(883.808821 2106.561623)scale(0.33 -0.33)">
       <defs>
        <path id="DejaVuSans-32" d="M 1228 531 
L 3431 531 
L 3431 0 
L 469 0 
L 469 531 
Q 828 903 1448 1529 
Q 2069 2156 2228 2338 
Q 2531 2678 2651 2914 
Q 2772 3150 2772 3378 
Q 2772 3750 2511 3984 
Q 2250 4219 1831 4219 
Q 1534 4219 1204 4116 
Q 875 4013 500 3803 
L 500 4441 
Q 881 4594 1212 4672 
Q 1544 4750 1819 4750 
Q 2544 4750 2975 4387 
Q 3406 4025 3406 3419 
Q 3406 3131 3298 2873 
Q 3191 2616 2906 2266 
Q 2828 2175 2409 1742 
Q 1991 1309 1228 531 
z
" transform="scale(0.015625)"/>
       </defs>
       <use xlink:href="#DejaVuSans-30"/>
       <use xlink:href="#DejaVuSans-2e" x="63.623047"/>
       <use xlink:href="#DejaVuSans-32" x="95.410156"/>
      </g>
     </g>
    </g>
    <g id="xtick_3">
     <g id="line2d_3">
      <path d="M 1526.467159 2071.986779 
L 1526.467159 40.554375 
" clip-path="url(#p575b4af4d0)" style="fill: none; stroke: #ffffff; stroke-linecap: round"/>
     </g>
     <g id="text_3">
      <!-- 0.4 -->
      <g style="fill: #262626" transform="translate(1500.227003 2106.561623)scale(0.33 -0.33)">
       <defs>
        <path id="DejaVuSans-34" d="M 2419 4116 
L 825 1625 
L 2419 1625 
L 2419 4116 
z
M 2253 4666 
L 3047 4666 
L 3047 1625 
L 3713 1625 
L 3713 1100 
L 3047 1100 
L 3047 0 
L 2419 0 
L 2419 1100 
L 313 1100 
L 313 1709 
L 2253 4666 
z
" transform="scale(0.015625)"/>
       </defs>
       <use xlink:href="#DejaVuSans-30"/>
       <use xlink:href="#DejaVuSans-2e" x="63.623047"/>
       <use xlink:href="#DejaVuSans-34" x="95.410156"/>
      </g>
     </g>
    </g>
    <g id="xtick_4">
     <g id="line2d_4">
      <path d="M 2142.885341 2071.986779 
L 2142.885341 40.554375 
" clip-path="url(#p575b4af4d0)" style="fill: none; stroke: #ffffff; stroke-linecap: round"/>
     </g>
     <g id="text_4">
      <!-- 0.6 -->
      <g style="fill: #262626" transform="translate(2116.645185 2106.561623)scale(0.33 -0.33)">
       <defs>
        <path id="DejaVuSans-36" d="M 2113 2584 
Q 1688 2584 1439 2293 
Q 1191 2003 1191 1497 
Q 1191 994 1439 701 
Q 1688 409 2113 409 
Q 2538 409 2786 701 
Q 3034 994 3034 1497 
Q 3034 2003 2786 2293 
Q 2538 2584 2113 2584 
z
M 3366 4563 
L 3366 3988 
Q 3128 4100 2886 4159 
Q 2644 4219 2406 4219 
Q 1781 4219 1451 3797 
Q 1122 3375 1075 2522 
Q 1259 2794 1537 2939 
Q 1816 3084 2150 3084 
Q 2853 3084 3261 2657 
Q 3669 2231 3669 1497 
Q 3669 778 3244 343 
Q 2819 -91 2113 -91 
Q 1303 -91 875 529 
Q 447 1150 447 2328 
Q 447 3434 972 4092 
Q 1497 4750 2381 4750 
Q 2619 4750 2861 4703 
Q 3103 4656 3366 4563 
z
" transform="scale(0.015625)"/>
       </defs>
       <use xlink:href="#DejaVuSans-30"/>
       <use xlink:href="#DejaVuSans-2e" x="63.623047"/>
       <use xlink:href="#DejaVuSans-36" x="95.410156"/>
      </g>
     </g>
    </g>
    <g id="xtick_5">
     <g id="line2d_5">
      <path d="M 2759.303523 2071.986779 
L 2759.303523 40.554375 
" clip-path="url(#p575b4af4d0)" style="fill: none; stroke: #ffffff; stroke-linecap: round"/>
     </g>
     <g id="text_5">
      <!-- 0.8 -->
      <g style="fill: #262626" transform="translate(2733.063366 2106.561623)scale(0.33 -0.33)">
       <defs>
        <path id="DejaVuSans-38" d="M 2034 2216 
Q 1584 2216 1326 1975 
Q 1069 1734 1069 1313 
Q 1069 891 1326 650 
Q 1584 409 2034 409 
Q 2484 409 2743 651 
Q 3003 894 3003 1313 
Q 3003 1734 2745 1975 
Q 2488 2216 2034 2216 
z
M 1403 2484 
Q 997 2584 770 2862 
Q 544 3141 544 3541 
Q 544 4100 942 4425 
Q 1341 4750 2034 4750 
Q 2731 4750 3128 4425 
Q 3525 4100 3525 3541 
Q 3525 3141 3298 2862 
Q 3072 2584 2669 2484 
Q 3125 2378 3379 2068 
Q 3634 1759 3634 1313 
Q 3634 634 3220 271 
Q 2806 -91 2034 -91 
Q 1263 -91 848 271 
Q 434 634 434 1313 
Q 434 1759 690 2068 
Q 947 2378 1403 2484 
z
M 1172 3481 
Q 1172 3119 1398 2916 
Q 1625 2713 2034 2713 
Q 2441 2713 2670 2916 
Q 2900 3119 2900 3481 
Q 2900 3844 2670 4047 
Q 2441 4250 2034 4250 
Q 1625 4250 1398 4047 
Q 1172 3844 1172 3481 
z
" transform="scale(0.015625)"/>
       </defs>
       <use xlink:href="#DejaVuSans-30"/>
       <use xlink:href="#DejaVuSans-2e" x="63.623047"/>
       <use xlink:href="#DejaVuSans-38" x="95.410156"/>
      </g>
     </g>
    </g>
    <g id="xtick_6">
     <g id="line2d_6">
      <path d="M 3375.721705 2071.986779 
L 3375.721705 40.554375 
" clip-path="url(#p575b4af4d0)" style="fill: none; stroke: #ffffff; stroke-linecap: round"/>
     </g>
     <g id="text_6">
      <!-- 1.0 -->
      <g style="fill: #262626" transform="translate(3349.481548 2106.561623)scale(0.33 -0.33)">
       <defs>
        <path id="DejaVuSans-31" d="M 794 531 
L 1825 531 
L 1825 4091 
L 703 3866 
L 703 4441 
L 1819 4666 
L 2450 4666 
L 2450 531 
L 3481 531 
L 3481 0 
L 794 0 
L 794 531 
z
" transform="scale(0.015625)"/>
       </defs>
       <use xlink:href="#DejaVuSans-31"/>
       <use xlink:href="#DejaVuSans-2e" x="63.623047"/>
       <use xlink:href="#DejaVuSans-30" x="95.410156"/>
      </g>
     </g>
    </g>
    <g id="text_7">
     <!-- probability -->
     <g style="fill: #262626" transform="translate(1738.643437 2144.778967)scale(0.36 -0.36)">
      <defs>
       <path id="DejaVuSans-70" d="M 1159 525 
L 1159 -1331 
L 581 -1331 
L 581 3500 
L 1159 3500 
L 1159 2969 
Q 1341 3281 1617 3432 
Q 1894 3584 2278 3584 
Q 2916 3584 3314 3078 
Q 3713 2572 3713 1747 
Q 3713 922 3314 415 
Q 2916 -91 2278 -91 
Q 1894 -91 1617 61 
Q 1341 213 1159 525 
z
M 3116 1747 
Q 3116 2381 2855 2742 
Q 2594 3103 2138 3103 
Q 1681 3103 1420 2742 
Q 1159 2381 1159 1747 
Q 1159 1113 1420 752 
Q 1681 391 2138 391 
Q 2594 391 2855 752 
Q 3116 1113 3116 1747 
z
" transform="scale(0.015625)"/>
       <path id="DejaVuSans-72" d="M 2631 2963 
Q 2534 3019 2420 3045 
Q 2306 3072 2169 3072 
Q 1681 3072 1420 2755 
Q 1159 2438 1159 1844 
L 1159 0 
L 581 0 
L 581 3500 
L 1159 3500 
L 1159 2956 
Q 1341 3275 1631 3429 
Q 1922 3584 2338 3584 
Q 2397 3584 2469 3576 
Q 2541 3569 2628 3553 
L 2631 2963 
z
" transform="scale(0.015625)"/>
       <path id="DejaVuSans-6f" d="M 1959 3097 
Q 1497 3097 1228 2736 
Q 959 2375 959 1747 
Q 959 1119 1226 758 
Q 1494 397 1959 397 
Q 2419 397 2687 759 
Q 2956 1122 2956 1747 
Q 2956 2369 2687 2733 
Q 2419 3097 1959 3097 
z
M 1959 3584 
Q 2709 3584 3137 3096 
Q 3566 2609 3566 1747 
Q 3566 888 3137 398 
Q 2709 -91 1959 -91 
Q 1206 -91 779 398 
Q 353 888 353 1747 
Q 353 2609 779 3096 
Q 1206 3584 1959 3584 
z
" transform="scale(0.015625)"/>
       <path id="DejaVuSans-62" d="M 3116 1747 
Q 3116 2381 2855 2742 
Q 2594 3103 2138 3103 
Q 1681 3103 1420 2742 
Q 1159 2381 1159 1747 
Q 1159 1113 1420 752 
Q 1681 391 2138 391 
Q 2594 391 2855 752 
Q 3116 1113 3116 1747 
z
M 1159 2969 
Q 1341 3281 1617 3432 
Q 1894 3584 2278 3584 
Q 2916 3584 3314 3078 
Q 3713 2572 3713 1747 
Q 3713 922 3314 415 
Q 2916 -91 2278 -91 
Q 1894 -91 1617 61 
Q 1341 213 1159 525 
L 1159 0 
L 581 0 
L 581 4863 
L 1159 4863 
L 1159 2969 
z
" transform="scale(0.015625)"/>
       <path id="DejaVuSans-61" d="M 2194 1759 
Q 1497 1759 1228 1600 
Q 959 1441 959 1056 
Q 959 750 1161 570 
Q 1363 391 1709 391 
Q 2188 391 2477 730 
Q 2766 1069 2766 1631 
L 2766 1759 
L 2194 1759 
z
M 3341 1997 
L 3341 0 
L 2766 0 
L 2766 531 
Q 2569 213 2275 61 
Q 1981 -91 1556 -91 
Q 1019 -91 701 211 
Q 384 513 384 1019 
Q 384 1609 779 1909 
Q 1175 2209 1959 2209 
L 2766 2209 
L 2766 2266 
Q 2766 2663 2505 2880 
Q 2244 3097 1772 3097 
Q 1472 3097 1187 3025 
Q 903 2953 641 2809 
L 641 3341 
Q 956 3463 1253 3523 
Q 1550 3584 1831 3584 
Q 2591 3584 2966 3190 
Q 3341 2797 3341 1997 
z
" transform="scale(0.015625)"/>
       <path id="DejaVuSans-69" d="M 603 3500 
L 1178 3500 
L 1178 0 
L 603 0 
L 603 3500 
z
M 603 4863 
L 1178 4863 
L 1178 4134 
L 603 4134 
L 603 4863 
z
" transform="scale(0.015625)"/>
       <path id="DejaVuSans-6c" d="M 603 4863 
L 1178 4863 
L 1178 0 
L 603 0 
L 603 4863 
z
" transform="scale(0.015625)"/>
       <path id="DejaVuSans-74" d="M 1172 4494 
L 1172 3500 
L 2356 3500 
L 2356 3053 
L 1172 3053 
L 1172 1153 
Q 1172 725 1289 603 
Q 1406 481 1766 481 
L 2356 481 
L 2356 0 
L 1766 0 
Q 1100 0 847 248 
Q 594 497 594 1153 
L 594 3053 
L 172 3053 
L 172 3500 
L 594 3500 
L 594 4494 
L 1172 4494 
z
" transform="scale(0.015625)"/>
       <path id="DejaVuSans-79" d="M 2059 -325 
Q 1816 -950 1584 -1140 
Q 1353 -1331 966 -1331 
L 506 -1331 
L 506 -850 
L 844 -850 
Q 1081 -850 1212 -737 
Q 1344 -625 1503 -206 
L 1606 56 
L 191 3500 
L 800 3500 
L 1894 763 
L 2988 3500 
L 3597 3500 
L 2059 -325 
z
" transform="scale(0.015625)"/>
      </defs>
      <use xlink:href="#DejaVuSans-70"/>
      <use xlink:href="#DejaVuSans-72" x="63.476562"/>
      <use xlink:href="#DejaVuSans-6f" x="102.339844"/>
      <use xlink:href="#DejaVuSans-62" x="163.521484"/>
      <use xlink:href="#DejaVuSans-61" x="226.998047"/>
      <use xlink:href="#DejaVuSans-62" x="288.277344"/>
      <use xlink:href="#DejaVuSans-69" x="351.753906"/>
      <use xlink:href="#DejaVuSans-6c" x="379.537109"/>
      <use xlink:href="#DejaVuSans-69" x="407.320312"/>
      <use xlink:href="#DejaVuSans-74" x="435.103516"/>
      <use xlink:href="#DejaVuSans-79" x="474.3125"/>
     </g>
    </g>
   </g>
   <g id="matplotlib.axis_2">
    <g id="ytick_1">
     <g id="line2d_7">
      <path d="M 139.52625 2071.986779 
L 3529.82625 2071.986779 
" clip-path="url(#p575b4af4d0)" style="fill: none; stroke: #ffffff; stroke-linecap: round"/>
     </g>
     <g id="text_8">
      <!-- 0 -->
      <g style="fill: #262626" transform="translate(109.03 2084.524201)scale(0.33 -0.33)">
       <use xlink:href="#DejaVuSans-30"/>
      </g>
     </g>
    </g>
    <g id="ytick_2">
     <g id="line2d_8">
      <path d="M 139.52625 1818.621467 
L 3529.82625 1818.621467 
" clip-path="url(#p575b4af4d0)" style="fill: none; stroke: #ffffff; stroke-linecap: round"/>
     </g>
     <g id="text_9">
      <!-- 250 -->
      <g style="fill: #262626" transform="translate(67.0375 1831.158889)scale(0.33 -0.33)">
       <defs>
        <path id="DejaVuSans-35" d="M 691 4666 
L 3169 4666 
L 3169 4134 
L 1269 4134 
L 1269 2991 
Q 1406 3038 1543 3061 
Q 1681 3084 1819 3084 
Q 2600 3084 3056 2656 
Q 3513 2228 3513 1497 
Q 3513 744 3044 326 
Q 2575 -91 1722 -91 
Q 1428 -91 1123 -41 
Q 819 9 494 109 
L 494 744 
Q 775 591 1075 516 
Q 1375 441 1709 441 
Q 2250 441 2565 725 
Q 2881 1009 2881 1497 
Q 2881 1984 2565 2268 
Q 2250 2553 1709 2553 
Q 1456 2553 1204 2497 
Q 953 2441 691 2322 
L 691 4666 
z
" transform="scale(0.015625)"/>
       </defs>
       <use xlink:href="#DejaVuSans-32"/>
       <use xlink:href="#DejaVuSans-35" x="63.623047"/>
       <use xlink:href="#DejaVuSans-30" x="127.246094"/>
      </g>
     </g>
    </g>
    <g id="ytick_3">
     <g id="line2d_9">
      <path d="M 139.52625 1565.256154 
L 3529.82625 1565.256154 
" clip-path="url(#p575b4af4d0)" style="fill: none; stroke: #ffffff; stroke-linecap: round"/>
     </g>
     <g id="text_10">
      <!-- 500 -->
      <g style="fill: #262626" transform="translate(67.0375 1577.793576)scale(0.33 -0.33)">
       <use xlink:href="#DejaVuSans-35"/>
       <use xlink:href="#DejaVuSans-30" x="63.623047"/>
       <use xlink:href="#DejaVuSans-30" x="127.246094"/>
      </g>
     </g>
    </g>
    <g id="ytick_4">
     <g id="line2d_10">
      <path d="M 139.52625 1311.890841 
L 3529.82625 1311.890841 
" clip-path="url(#p575b4af4d0)" style="fill: none; stroke: #ffffff; stroke-linecap: round"/>
     </g>
     <g id="text_11">
      <!-- 750 -->
      <g style="fill: #262626" transform="translate(67.0375 1324.428263)scale(0.33 -0.33)">
       <defs>
        <path id="DejaVuSans-37" d="M 525 4666 
L 3525 4666 
L 3525 4397 
L 1831 0 
L 1172 0 
L 2766 4134 
L 525 4134 
L 525 4666 
z
" transform="scale(0.015625)"/>
       </defs>
       <use xlink:href="#DejaVuSans-37"/>
       <use xlink:href="#DejaVuSans-35" x="63.623047"/>
       <use xlink:href="#DejaVuSans-30" x="127.246094"/>
      </g>
     </g>
    </g>
    <g id="ytick_5">
     <g id="line2d_11">
      <path d="M 139.52625 1058.525528 
L 3529.82625 1058.525528 
" clip-path="url(#p575b4af4d0)" style="fill: none; stroke: #ffffff; stroke-linecap: round"/>
     </g>
     <g id="text_12">
      <!-- 1000 -->
      <g style="fill: #262626" transform="translate(46.04125 1071.06295)scale(0.33 -0.33)">
       <use xlink:href="#DejaVuSans-31"/>
       <use xlink:href="#DejaVuSans-30" x="63.623047"/>
       <use xlink:href="#DejaVuSans-30" x="127.246094"/>
       <use xlink:href="#DejaVuSans-30" x="190.869141"/>
      </g>
     </g>
    </g>
    <g id="ytick_6">
     <g id="line2d_12">
      <path d="M 139.52625 805.160216 
L 3529.82625 805.160216 
" clip-path="url(#p575b4af4d0)" style="fill: none; stroke: #ffffff; stroke-linecap: round"/>
     </g>
     <g id="text_13">
      <!-- 1250 -->
      <g style="fill: #262626" transform="translate(46.04125 817.697638)scale(0.33 -0.33)">
       <use xlink:href="#DejaVuSans-31"/>
       <use xlink:href="#DejaVuSans-32" x="63.623047"/>
       <use xlink:href="#DejaVuSans-35" x="127.246094"/>
       <use xlink:href="#DejaVuSans-30" x="190.869141"/>
      </g>
     </g>
    </g>
    <g id="ytick_7">
     <g id="line2d_13">
      <path d="M 139.52625 551.794903 
L 3529.82625 551.794903 
" clip-path="url(#p575b4af4d0)" style="fill: none; stroke: #ffffff; stroke-linecap: round"/>
     </g>
     <g id="text_14">
      <!-- 1500 -->
      <g style="fill: #262626" transform="translate(46.04125 564.332325)scale(0.33 -0.33)">
       <use xlink:href="#DejaVuSans-31"/>
       <use xlink:href="#DejaVuSans-35" x="63.623047"/>
       <use xlink:href="#DejaVuSans-30" x="127.246094"/>
       <use xlink:href="#DejaVuSans-30" x="190.869141"/>
      </g>
     </g>
    </g>
    <g id="ytick_8">
     <g id="line2d_14">
      <path d="M 139.52625 298.42959 
L 3529.82625 298.42959 
" clip-path="url(#p575b4af4d0)" style="fill: none; stroke: #ffffff; stroke-linecap: round"/>
     </g>
     <g id="text_15">
      <!-- 1750 -->
      <g style="fill: #262626" transform="translate(46.04125 310.967012)scale(0.33 -0.33)">
       <use xlink:href="#DejaVuSans-31"/>
       <use xlink:href="#DejaVuSans-37" x="63.623047"/>
       <use xlink:href="#DejaVuSans-35" x="127.246094"/>
       <use xlink:href="#DejaVuSans-30" x="190.869141"/>
      </g>
     </g>
    </g>
    <g id="ytick_9">
     <g id="line2d_15">
      <path d="M 139.52625 45.064278 
L 3529.82625 45.064278 
" clip-path="url(#p575b4af4d0)" style="fill: none; stroke: #ffffff; stroke-linecap: round"/>
     </g>
     <g id="text_16">
      <!-- 2000 -->
      <g style="fill: #262626" transform="translate(46.04125 57.601699)scale(0.33 -0.33)">
       <use xlink:href="#DejaVuSans-32"/>
       <use xlink:href="#DejaVuSans-30" x="63.623047"/>
       <use xlink:href="#DejaVuSans-30" x="127.246094"/>
       <use xlink:href="#DejaVuSans-30" x="190.869141"/>
      </g>
     </g>
    </g>
    <g id="text_17">
     <!-- Count -->
     <g style="fill: #262626" transform="translate(34.554375 1109.724952)rotate(-90)scale(0.36 -0.36)">
      <defs>
       <path id="DejaVuSans-43" d="M 4122 4306 
L 4122 3641 
Q 3803 3938 3442 4084 
Q 3081 4231 2675 4231 
Q 1875 4231 1450 3742 
Q 1025 3253 1025 2328 
Q 1025 1406 1450 917 
Q 1875 428 2675 428 
Q 3081 428 3442 575 
Q 3803 722 4122 1019 
L 4122 359 
Q 3791 134 3420 21 
Q 3050 -91 2638 -91 
Q 1578 -91 968 557 
Q 359 1206 359 2328 
Q 359 3453 968 4101 
Q 1578 4750 2638 4750 
Q 3056 4750 3426 4639 
Q 3797 4528 4122 4306 
z
" transform="scale(0.015625)"/>
       <path id="DejaVuSans-75" d="M 544 1381 
L 544 3500 
L 1119 3500 
L 1119 1403 
Q 1119 906 1312 657 
Q 1506 409 1894 409 
Q 2359 409 2629 706 
Q 2900 1003 2900 1516 
L 2900 3500 
L 3475 3500 
L 3475 0 
L 2900 0 
L 2900 538 
Q 2691 219 2414 64 
Q 2138 -91 1772 -91 
Q 1169 -91 856 284 
Q 544 659 544 1381 
z
M 1991 3584 
L 1991 3584 
z
" transform="scale(0.015625)"/>
       <path id="DejaVuSans-6e" d="M 3513 2113 
L 3513 0 
L 2938 0 
L 2938 2094 
Q 2938 2591 2744 2837 
Q 2550 3084 2163 3084 
Q 1697 3084 1428 2787 
Q 1159 2491 1159 1978 
L 1159 0 
L 581 0 
L 581 3500 
L 1159 3500 
L 1159 2956 
Q 1366 3272 1645 3428 
Q 1925 3584 2291 3584 
Q 2894 3584 3203 3211 
Q 3513 2838 3513 2113 
z
" transform="scale(0.015625)"/>
      </defs>
      <use xlink:href="#DejaVuSans-43"/>
      <use xlink:href="#DejaVuSans-6f" x="69.824219"/>
      <use xlink:href="#DejaVuSans-75" x="131.005859"/>
      <use xlink:href="#DejaVuSans-6e" x="194.384766"/>
      <use xlink:href="#DejaVuSans-74" x="257.763672"/>
     </g>
    </g>
   </g>
   <g id="patch_3">
    <path d="M 324.451705 2071.986779 
L 355.272614 2071.986779 
L 355.272614 2071.986779 
L 324.451705 2071.986779 
z
" clip-path="url(#p575b4af4d0)" style="fill: #ffa500; fill-opacity: 0.5; stroke: #ffffff; stroke-linejoin: miter"/>
   </g>
   <g id="patch_4">
    <path d="M 355.272614 2071.986779 
L 386.093523 2071.986779 
L 386.093523 2071.986779 
L 355.272614 2071.986779 
z
" clip-path="url(#p575b4af4d0)" style="fill: #ffa500; fill-opacity: 0.5; stroke: #ffffff; stroke-linejoin: miter"/>
   </g>
   <g id="patch_5">
    <path d="M 386.093523 2071.986779 
L 416.914432 2071.986779 
L 416.914432 2071.986779 
L 386.093523 2071.986779 
z
" clip-path="url(#p575b4af4d0)" style="fill: #ffa500; fill-opacity: 0.5; stroke: #ffffff; stroke-linejoin: miter"/>
   </g>
   <g id="patch_6">
    <path d="M 416.914432 2071.986779 
L 447.735341 2071.986779 
L 447.735341 2071.986779 
L 416.914432 2071.986779 
z
" clip-path="url(#p575b4af4d0)" style="fill: #ffa500; fill-opacity: 0.5; stroke: #ffffff; stroke-linejoin: miter"/>
   </g>
   <g id="patch_7">
    <path d="M 447.735341 2071.986779 
L 478.55625 2071.986779 
L 478.55625 2071.986779 
L 447.735341 2071.986779 
z
" clip-path="url(#p575b4af4d0)" style="fill: #ffa500; fill-opacity: 0.5; stroke: #ffffff; stroke-linejoin: miter"/>
   </g>
   <g id="patch_8">
    <path d="M 478.55625 2071.986779 
L 509.377159 2071.986779 
L 509.377159 2071.986779 
L 478.55625 2071.986779 
z
" clip-path="url(#p575b4af4d0)" style="fill: #ffa500; fill-opacity: 0.5; stroke: #ffffff; stroke-linejoin: miter"/>
   </g>
   <g id="patch_9">
    <path d="M 509.377159 2071.986779 
L 540.198068 2071.986779 
L 540.198068 2071.986779 
L 509.377159 2071.986779 
z
" clip-path="url(#p575b4af4d0)" style="fill: #ffa500; fill-opacity: 0.5; stroke: #ffffff; stroke-linejoin: miter"/>
   </g>
   <g id="patch_10">
    <path d="M 540.198068 2071.986779 
L 571.018977 2071.986779 
L 571.018977 2071.986779 
L 540.198068 2071.986779 
z
" clip-path="url(#p575b4af4d0)" style="fill: #ffa500; fill-opacity: 0.5; stroke: #ffffff; stroke-linejoin: miter"/>
   </g>
   <g id="patch_11">
    <path d="M 571.018977 2071.986779 
L 601.839886 2071.986779 
L 601.839886 2068.946396 
L 571.018977 2068.946396 
z
" clip-path="url(#p575b4af4d0)" style="fill: #ffa500; fill-opacity: 0.5; stroke: #ffffff; stroke-linejoin: miter"/>
   </g>
   <g id="patch_12">
    <path d="M 601.839886 2071.986779 
L 632.660795 2071.986779 
L 632.660795 2070.973318 
L 601.839886 2070.973318 
z
" clip-path="url(#p575b4af4d0)" style="fill: #ffa500; fill-opacity: 0.5; stroke: #ffffff; stroke-linejoin: miter"/>
   </g>
   <g id="patch_13">
    <path d="M 632.660795 2071.986779 
L 663.481705 2071.986779 
L 663.481705 2071.986779 
L 632.660795 2071.986779 
z
" clip-path="url(#p575b4af4d0)" style="fill: #ffa500; fill-opacity: 0.5; stroke: #ffffff; stroke-linejoin: miter"/>
   </g>
   <g id="patch_14">
    <path d="M 663.481705 2071.986779 
L 694.302614 2071.986779 
L 694.302614 2071.986779 
L 663.481705 2071.986779 
z
" clip-path="url(#p575b4af4d0)" style="fill: #ffa500; fill-opacity: 0.5; stroke: #ffffff; stroke-linejoin: miter"/>
   </g>
   <g id="patch_15">
    <path d="M 694.302614 2071.986779 
L 725.123523 2071.986779 
L 725.123523 2071.986779 
L 694.302614 2071.986779 
z
" clip-path="url(#p575b4af4d0)" style="fill: #ffa500; fill-opacity: 0.5; stroke: #ffffff; stroke-linejoin: miter"/>
   </g>
   <g id="patch_16">
    <path d="M 725.123523 2071.986779 
L 755.944432 2071.986779 
L 755.944432 2071.986779 
L 725.123523 2071.986779 
z
" clip-path="url(#p575b4af4d0)" style="fill: #ffa500; fill-opacity: 0.5; stroke: #ffffff; stroke-linejoin: miter"/>
   </g>
   <g id="patch_17">
    <path d="M 755.944432 2071.986779 
L 786.765341 2071.986779 
L 786.765341 2068.946396 
L 755.944432 2068.946396 
z
" clip-path="url(#p575b4af4d0)" style="fill: #ffa500; fill-opacity: 0.5; stroke: #ffffff; stroke-linejoin: miter"/>
   </g>
   <g id="patch_18">
    <path d="M 786.765341 2071.986779 
L 817.58625 2071.986779 
L 817.58625 2071.986779 
L 786.765341 2071.986779 
z
" clip-path="url(#p575b4af4d0)" style="fill: #ffa500; fill-opacity: 0.5; stroke: #ffffff; stroke-linejoin: miter"/>
   </g>
   <g id="patch_19">
    <path d="M 817.58625 2071.986779 
L 848.407159 2071.986779 
L 848.407159 2067.932934 
L 817.58625 2067.932934 
z
" clip-path="url(#p575b4af4d0)" style="fill: #ffa500; fill-opacity: 0.5; stroke: #ffffff; stroke-linejoin: miter"/>
   </g>
   <g id="patch_20">
    <path d="M 848.407159 2071.986779 
L 879.228068 2071.986779 
L 879.228068 2071.986779 
L 848.407159 2071.986779 
z
" clip-path="url(#p575b4af4d0)" style="fill: #ffa500; fill-opacity: 0.5; stroke: #ffffff; stroke-linejoin: miter"/>
   </g>
   <g id="patch_21">
    <path d="M 879.228068 2071.986779 
L 910.048977 2071.986779 
L 910.048977 2071.986779 
L 879.228068 2071.986779 
z
" clip-path="url(#p575b4af4d0)" style="fill: #ffa500; fill-opacity: 0.5; stroke: #ffffff; stroke-linejoin: miter"/>
   </g>
   <g id="patch_22">
    <path d="M 910.048977 2071.986779 
L 940.869886 2071.986779 
L 940.869886 2070.973318 
L 910.048977 2070.973318 
z
" clip-path="url(#p575b4af4d0)" style="fill: #ffa500; fill-opacity: 0.5; stroke: #ffffff; stroke-linejoin: miter"/>
   </g>
   <g id="patch_23">
    <path d="M 940.869886 2071.986779 
L 971.690795 2071.986779 
L 971.690795 2063.879089 
L 940.869886 2063.879089 
z
" clip-path="url(#p575b4af4d0)" style="fill: #ffa500; fill-opacity: 0.5; stroke: #ffffff; stroke-linejoin: miter"/>
   </g>
   <g id="patch_24">
    <path d="M 971.690795 2071.986779 
L 1002.511705 2071.986779 
L 1002.511705 2059.825244 
L 971.690795 2059.825244 
z
" clip-path="url(#p575b4af4d0)" style="fill: #ffa500; fill-opacity: 0.5; stroke: #ffffff; stroke-linejoin: miter"/>
   </g>
   <g id="patch_25">
    <path d="M 1002.511705 2071.986779 
L 1033.332614 2071.986779 
L 1033.332614 2066.919473 
L 1002.511705 2066.919473 
z
" clip-path="url(#p575b4af4d0)" style="fill: #ffa500; fill-opacity: 0.5; stroke: #ffffff; stroke-linejoin: miter"/>
   </g>
   <g id="patch_26">
    <path d="M 1033.332614 2071.986779 
L 1064.153523 2071.986779 
L 1064.153523 2032.461791 
L 1033.332614 2032.461791 
z
" clip-path="url(#p575b4af4d0)" style="fill: #ffa500; fill-opacity: 0.5; stroke: #ffffff; stroke-linejoin: miter"/>
   </g>
   <g id="patch_27">
    <path d="M 1064.153523 2071.986779 
L 1094.974432 2071.986779 
L 1094.974432 2058.811783 
L 1064.153523 2058.811783 
z
" clip-path="url(#p575b4af4d0)" style="fill: #ffa500; fill-opacity: 0.5; stroke: #ffffff; stroke-linejoin: miter"/>
   </g>
   <g id="patch_28">
    <path d="M 1094.974432 2071.986779 
L 1125.795341 2071.986779 
L 1125.795341 2070.973318 
L 1094.974432 2070.973318 
z
" clip-path="url(#p575b4af4d0)" style="fill: #ffa500; fill-opacity: 0.5; stroke: #ffffff; stroke-linejoin: miter"/>
   </g>
   <g id="patch_29">
    <path d="M 1125.795341 2071.986779 
L 1156.61625 2071.986779 
L 1156.61625 2068.946396 
L 1125.795341 2068.946396 
z
" clip-path="url(#p575b4af4d0)" style="fill: #ffa500; fill-opacity: 0.5; stroke: #ffffff; stroke-linejoin: miter"/>
   </g>
   <g id="patch_30">
    <path d="M 1156.61625 2071.986779 
L 1187.437159 2071.986779 
L 1187.437159 2070.973318 
L 1156.61625 2070.973318 
z
" clip-path="url(#p575b4af4d0)" style="fill: #ffa500; fill-opacity: 0.5; stroke: #ffffff; stroke-linejoin: miter"/>
   </g>
   <g id="patch_31">
    <path d="M 1187.437159 2071.986779 
L 1218.258068 2071.986779 
L 1218.258068 2071.986779 
L 1187.437159 2071.986779 
z
" clip-path="url(#p575b4af4d0)" style="fill: #ffa500; fill-opacity: 0.5; stroke: #ffffff; stroke-linejoin: miter"/>
   </g>
   <g id="patch_32">
    <path d="M 1218.258068 2071.986779 
L 1249.078977 2071.986779 
L 1249.078977 2071.986779 
L 1218.258068 2071.986779 
z
" clip-path="url(#p575b4af4d0)" style="fill: #ffa500; fill-opacity: 0.5; stroke: #ffffff; stroke-linejoin: miter"/>
   </g>
   <g id="patch_33">
    <path d="M 1249.078977 2071.986779 
L 1279.899886 2071.986779 
L 1279.899886 2071.986779 
L 1249.078977 2071.986779 
z
" clip-path="url(#p575b4af4d0)" style="fill: #ffa500; fill-opacity: 0.5; stroke: #ffffff; stroke-linejoin: miter"/>
   </g>
   <g id="patch_34">
    <path d="M 1279.899886 2071.986779 
L 1310.720795 2071.986779 
L 1310.720795 2071.986779 
L 1279.899886 2071.986779 
z
" clip-path="url(#p575b4af4d0)" style="fill: #ffa500; fill-opacity: 0.5; stroke: #ffffff; stroke-linejoin: miter"/>
   </g>
   <g id="patch_35">
    <path d="M 1310.720795 2071.986779 
L 1341.541705 2071.986779 
L 1341.541705 2070.973318 
L 1310.720795 2070.973318 
z
" clip-path="url(#p575b4af4d0)" style="fill: #ffa500; fill-opacity: 0.5; stroke: #ffffff; stroke-linejoin: miter"/>
   </g>
   <g id="patch_36">
    <path d="M 1341.541705 2071.986779 
L 1372.362614 2071.986779 
L 1372.362614 2071.986779 
L 1341.541705 2071.986779 
z
" clip-path="url(#p575b4af4d0)" style="fill: #ffa500; fill-opacity: 0.5; stroke: #ffffff; stroke-linejoin: miter"/>
   </g>
   <g id="patch_37">
    <path d="M 1372.362614 2071.986779 
L 1403.183523 2071.986779 
L 1403.183523 2071.986779 
L 1372.362614 2071.986779 
z
" clip-path="url(#p575b4af4d0)" style="fill: #ffa500; fill-opacity: 0.5; stroke: #ffffff; stroke-linejoin: miter"/>
   </g>
   <g id="patch_38">
    <path d="M 1403.183523 2071.986779 
L 1434.004432 2071.986779 
L 1434.004432 2070.973318 
L 1403.183523 2070.973318 
z
" clip-path="url(#p575b4af4d0)" style="fill: #ffa500; fill-opacity: 0.5; stroke: #ffffff; stroke-linejoin: miter"/>
   </g>
   <g id="patch_39">
    <path d="M 1434.004432 2071.986779 
L 1464.825341 2071.986779 
L 1464.825341 2071.986779 
L 1434.004432 2071.986779 
z
" clip-path="url(#p575b4af4d0)" style="fill: #ffa500; fill-opacity: 0.5; stroke: #ffffff; stroke-linejoin: miter"/>
   </g>
   <g id="patch_40">
    <path d="M 1464.825341 2071.986779 
L 1495.64625 2071.986779 
L 1495.64625 2071.986779 
L 1464.825341 2071.986779 
z
" clip-path="url(#p575b4af4d0)" style="fill: #ffa500; fill-opacity: 0.5; stroke: #ffffff; stroke-linejoin: miter"/>
   </g>
   <g id="patch_41">
    <path d="M 1495.64625 2071.986779 
L 1526.467159 2071.986779 
L 1526.467159 2071.986779 
L 1495.64625 2071.986779 
z
" clip-path="url(#p575b4af4d0)" style="fill: #ffa500; fill-opacity: 0.5; stroke: #ffffff; stroke-linejoin: miter"/>
   </g>
   <g id="patch_42">
    <path d="M 1526.467159 2071.986779 
L 1557.288068 2071.986779 
L 1557.288068 2071.986779 
L 1526.467159 2071.986779 
z
" clip-path="url(#p575b4af4d0)" style="fill: #ffa500; fill-opacity: 0.5; stroke: #ffffff; stroke-linejoin: miter"/>
   </g>
   <g id="patch_43">
    <path d="M 1557.288068 2071.986779 
L 1588.108977 2071.986779 
L 1588.108977 2071.986779 
L 1557.288068 2071.986779 
z
" clip-path="url(#p575b4af4d0)" style="fill: #ffa500; fill-opacity: 0.5; stroke: #ffffff; stroke-linejoin: miter"/>
   </g>
   <g id="patch_44">
    <path d="M 1588.108977 2071.986779 
L 1618.929886 2071.986779 
L 1618.929886 2070.973318 
L 1588.108977 2070.973318 
z
" clip-path="url(#p575b4af4d0)" style="fill: #ffa500; fill-opacity: 0.5; stroke: #ffffff; stroke-linejoin: miter"/>
   </g>
   <g id="patch_45">
    <path d="M 1618.929886 2071.986779 
L 1649.750795 2071.986779 
L 1649.750795 2071.986779 
L 1618.929886 2071.986779 
z
" clip-path="url(#p575b4af4d0)" style="fill: #ffa500; fill-opacity: 0.5; stroke: #ffffff; stroke-linejoin: miter"/>
   </g>
   <g id="patch_46">
    <path d="M 1649.750795 2071.986779 
L 1680.571705 2071.986779 
L 1680.571705 2071.986779 
L 1649.750795 2071.986779 
z
" clip-path="url(#p575b4af4d0)" style="fill: #ffa500; fill-opacity: 0.5; stroke: #ffffff; stroke-linejoin: miter"/>
   </g>
   <g id="patch_47">
    <path d="M 1680.571705 2071.986779 
L 1711.392614 2071.986779 
L 1711.392614 2071.986779 
L 1680.571705 2071.986779 
z
" clip-path="url(#p575b4af4d0)" style="fill: #ffa500; fill-opacity: 0.5; stroke: #ffffff; stroke-linejoin: miter"/>
   </g>
   <g id="patch_48">
    <path d="M 1711.392614 2071.986779 
L 1742.213523 2071.986779 
L 1742.213523 2071.986779 
L 1711.392614 2071.986779 
z
" clip-path="url(#p575b4af4d0)" style="fill: #ffa500; fill-opacity: 0.5; stroke: #ffffff; stroke-linejoin: miter"/>
   </g>
   <g id="patch_49">
    <path d="M 1742.213523 2071.986779 
L 1773.034432 2071.986779 
L 1773.034432 2068.946396 
L 1742.213523 2068.946396 
z
" clip-path="url(#p575b4af4d0)" style="fill: #ffa500; fill-opacity: 0.5; stroke: #ffffff; stroke-linejoin: miter"/>
   </g>
   <g id="patch_50">
    <path d="M 1773.034432 2071.986779 
L 1803.855341 2071.986779 
L 1803.855341 2070.973318 
L 1773.034432 2070.973318 
z
" clip-path="url(#p575b4af4d0)" style="fill: #ffa500; fill-opacity: 0.5; stroke: #ffffff; stroke-linejoin: miter"/>
   </g>
   <g id="patch_51">
    <path d="M 1803.855341 2071.986779 
L 1834.67625 2071.986779 
L 1834.67625 2071.986779 
L 1803.855341 2071.986779 
z
" clip-path="url(#p575b4af4d0)" style="fill: #ffa500; fill-opacity: 0.5; stroke: #ffffff; stroke-linejoin: miter"/>
   </g>
   <g id="patch_52">
    <path d="M 1834.67625 2071.986779 
L 1865.497159 2071.986779 
L 1865.497159 2070.973318 
L 1834.67625 2070.973318 
z
" clip-path="url(#p575b4af4d0)" style="fill: #ffa500; fill-opacity: 0.5; stroke: #ffffff; stroke-linejoin: miter"/>
   </g>
   <g id="patch_53">
    <path d="M 1865.497159 2071.986779 
L 1896.318068 2071.986779 
L 1896.318068 2071.986779 
L 1865.497159 2071.986779 
z
" clip-path="url(#p575b4af4d0)" style="fill: #ffa500; fill-opacity: 0.5; stroke: #ffffff; stroke-linejoin: miter"/>
   </g>
   <g id="patch_54">
    <path d="M 1896.318068 2071.986779 
L 1927.138977 2071.986779 
L 1927.138977 2071.986779 
L 1896.318068 2071.986779 
z
" clip-path="url(#p575b4af4d0)" style="fill: #ffa500; fill-opacity: 0.5; stroke: #ffffff; stroke-linejoin: miter"/>
   </g>
   <g id="patch_55">
    <path d="M 1927.138977 2071.986779 
L 1957.959886 2071.986779 
L 1957.959886 2070.973318 
L 1927.138977 2070.973318 
z
" clip-path="url(#p575b4af4d0)" style="fill: #ffa500; fill-opacity: 0.5; stroke: #ffffff; stroke-linejoin: miter"/>
   </g>
   <g id="patch_56">
    <path d="M 1957.959886 2071.986779 
L 1988.780795 2071.986779 
L 1988.780795 2071.986779 
L 1957.959886 2071.986779 
z
" clip-path="url(#p575b4af4d0)" style="fill: #ffa500; fill-opacity: 0.5; stroke: #ffffff; stroke-linejoin: miter"/>
   </g>
   <g id="patch_57">
    <path d="M 1988.780795 2071.986779 
L 2019.601705 2071.986779 
L 2019.601705 2070.973318 
L 1988.780795 2070.973318 
z
" clip-path="url(#p575b4af4d0)" style="fill: #ffa500; fill-opacity: 0.5; stroke: #ffffff; stroke-linejoin: miter"/>
   </g>
   <g id="patch_58">
    <path d="M 2019.601705 2071.986779 
L 2050.422614 2071.986779 
L 2050.422614 2070.973318 
L 2019.601705 2070.973318 
z
" clip-path="url(#p575b4af4d0)" style="fill: #ffa500; fill-opacity: 0.5; stroke: #ffffff; stroke-linejoin: miter"/>
   </g>
   <g id="patch_59">
    <path d="M 2050.422614 2071.986779 
L 2081.243523 2071.986779 
L 2081.243523 2067.932934 
L 2050.422614 2067.932934 
z
" clip-path="url(#p575b4af4d0)" style="fill: #ffa500; fill-opacity: 0.5; stroke: #ffffff; stroke-linejoin: miter"/>
   </g>
   <g id="patch_60">
    <path d="M 2081.243523 2071.986779 
L 2112.064432 2071.986779 
L 2112.064432 2071.986779 
L 2081.243523 2071.986779 
z
" clip-path="url(#p575b4af4d0)" style="fill: #ffa500; fill-opacity: 0.5; stroke: #ffffff; stroke-linejoin: miter"/>
   </g>
   <g id="patch_61">
    <path d="M 2112.064432 2071.986779 
L 2142.885341 2071.986779 
L 2142.885341 2070.973318 
L 2112.064432 2070.973318 
z
" clip-path="url(#p575b4af4d0)" style="fill: #ffa500; fill-opacity: 0.5; stroke: #ffffff; stroke-linejoin: miter"/>
   </g>
   <g id="patch_62">
    <path d="M 2142.885341 2071.986779 
L 2173.70625 2071.986779 
L 2173.70625 2071.986779 
L 2142.885341 2071.986779 
z
" clip-path="url(#p575b4af4d0)" style="fill: #ffa500; fill-opacity: 0.5; stroke: #ffffff; stroke-linejoin: miter"/>
   </g>
   <g id="patch_63">
    <path d="M 2173.70625 2071.986779 
L 2204.527159 2071.986779 
L 2204.527159 2064.892551 
L 2173.70625 2064.892551 
z
" clip-path="url(#p575b4af4d0)" style="fill: #ffa500; fill-opacity: 0.5; stroke: #ffffff; stroke-linejoin: miter"/>
   </g>
   <g id="patch_64">
    <path d="M 2204.527159 2071.986779 
L 2235.348068 2071.986779 
L 2235.348068 2071.986779 
L 2204.527159 2071.986779 
z
" clip-path="url(#p575b4af4d0)" style="fill: #ffa500; fill-opacity: 0.5; stroke: #ffffff; stroke-linejoin: miter"/>
   </g>
   <g id="patch_65">
    <path d="M 2235.348068 2071.986779 
L 2266.168977 2071.986779 
L 2266.168977 2071.986779 
L 2235.348068 2071.986779 
z
" clip-path="url(#p575b4af4d0)" style="fill: #ffa500; fill-opacity: 0.5; stroke: #ffffff; stroke-linejoin: miter"/>
   </g>
   <g id="patch_66">
    <path d="M 2266.168977 2071.986779 
L 2296.989886 2071.986779 
L 2296.989886 2070.973318 
L 2266.168977 2070.973318 
z
" clip-path="url(#p575b4af4d0)" style="fill: #ffa500; fill-opacity: 0.5; stroke: #ffffff; stroke-linejoin: miter"/>
   </g>
   <g id="patch_67">
    <path d="M 2296.989886 2071.986779 
L 2327.810795 2071.986779 
L 2327.810795 2069.959857 
L 2296.989886 2069.959857 
z
" clip-path="url(#p575b4af4d0)" style="fill: #ffa500; fill-opacity: 0.5; stroke: #ffffff; stroke-linejoin: miter"/>
   </g>
   <g id="patch_68">
    <path d="M 2327.810795 2071.986779 
L 2358.631705 2071.986779 
L 2358.631705 2069.959857 
L 2327.810795 2069.959857 
z
" clip-path="url(#p575b4af4d0)" style="fill: #ffa500; fill-opacity: 0.5; stroke: #ffffff; stroke-linejoin: miter"/>
   </g>
   <g id="patch_69">
    <path d="M 2358.631705 2071.986779 
L 2389.452614 2071.986779 
L 2389.452614 2070.973318 
L 2358.631705 2070.973318 
z
" clip-path="url(#p575b4af4d0)" style="fill: #ffa500; fill-opacity: 0.5; stroke: #ffffff; stroke-linejoin: miter"/>
   </g>
   <g id="patch_70">
    <path d="M 2389.452614 2071.986779 
L 2420.273523 2071.986779 
L 2420.273523 1945.304123 
L 2389.452614 1945.304123 
z
" clip-path="url(#p575b4af4d0)" style="fill: #ffa500; fill-opacity: 0.5; stroke: #ffffff; stroke-linejoin: miter"/>
   </g>
   <g id="patch_71">
    <path d="M 2420.273523 2071.986779 
L 2451.094432 2071.986779 
L 2451.094432 1912.873363 
L 2420.273523 1912.873363 
z
" clip-path="url(#p575b4af4d0)" style="fill: #ffa500; fill-opacity: 0.5; stroke: #ffffff; stroke-linejoin: miter"/>
   </g>
   <g id="patch_72">
    <path d="M 2451.094432 2071.986779 
L 2481.915341 2071.986779 
L 2481.915341 2059.825244 
L 2451.094432 2059.825244 
z
" clip-path="url(#p575b4af4d0)" style="fill: #ffa500; fill-opacity: 0.5; stroke: #ffffff; stroke-linejoin: miter"/>
   </g>
   <g id="patch_73">
    <path d="M 2481.915341 2071.986779 
L 2512.73625 2071.986779 
L 2512.73625 2068.946396 
L 2481.915341 2068.946396 
z
" clip-path="url(#p575b4af4d0)" style="fill: #ffa500; fill-opacity: 0.5; stroke: #ffffff; stroke-linejoin: miter"/>
   </g>
   <g id="patch_74">
    <path d="M 2512.73625 2071.986779 
L 2543.557159 2071.986779 
L 2543.557159 2061.852167 
L 2512.73625 2061.852167 
z
" clip-path="url(#p575b4af4d0)" style="fill: #ffa500; fill-opacity: 0.5; stroke: #ffffff; stroke-linejoin: miter"/>
   </g>
   <g id="patch_75">
    <path d="M 2543.557159 2071.986779 
L 2574.378068 2071.986779 
L 2574.378068 2060.838706 
L 2543.557159 2060.838706 
z
" clip-path="url(#p575b4af4d0)" style="fill: #ffa500; fill-opacity: 0.5; stroke: #ffffff; stroke-linejoin: miter"/>
   </g>
   <g id="patch_76">
    <path d="M 2574.378068 2071.986779 
L 2605.198977 2071.986779 
L 2605.198977 2062.865628 
L 2574.378068 2062.865628 
z
" clip-path="url(#p575b4af4d0)" style="fill: #ffa500; fill-opacity: 0.5; stroke: #ffffff; stroke-linejoin: miter"/>
   </g>
   <g id="patch_77">
    <path d="M 2605.198977 2071.986779 
L 2636.019886 2071.986779 
L 2636.019886 2024.354101 
L 2605.198977 2024.354101 
z
" clip-path="url(#p575b4af4d0)" style="fill: #ffa500; fill-opacity: 0.5; stroke: #ffffff; stroke-linejoin: miter"/>
   </g>
   <g id="patch_78">
    <path d="M 2636.019886 2071.986779 
L 2666.840795 2071.986779 
L 2666.840795 2069.959857 
L 2636.019886 2069.959857 
z
" clip-path="url(#p575b4af4d0)" style="fill: #ffa500; fill-opacity: 0.5; stroke: #ffffff; stroke-linejoin: miter"/>
   </g>
   <g id="patch_79">
    <path d="M 2666.840795 2071.986779 
L 2697.661705 2071.986779 
L 2697.661705 2068.946396 
L 2666.840795 2068.946396 
z
" clip-path="url(#p575b4af4d0)" style="fill: #ffa500; fill-opacity: 0.5; stroke: #ffffff; stroke-linejoin: miter"/>
   </g>
   <g id="patch_80">
    <path d="M 2697.661705 2071.986779 
L 2728.482614 2071.986779 
L 2728.482614 2070.973318 
L 2697.661705 2070.973318 
z
" clip-path="url(#p575b4af4d0)" style="fill: #ffa500; fill-opacity: 0.5; stroke: #ffffff; stroke-linejoin: miter"/>
   </g>
   <g id="patch_81">
    <path d="M 2728.482614 2071.986779 
L 2759.303523 2071.986779 
L 2759.303523 2065.906012 
L 2728.482614 2065.906012 
z
" clip-path="url(#p575b4af4d0)" style="fill: #ffa500; fill-opacity: 0.5; stroke: #ffffff; stroke-linejoin: miter"/>
   </g>
   <g id="patch_82">
    <path d="M 2759.303523 2071.986779 
L 2790.124432 2071.986779 
L 2790.124432 2067.932934 
L 2759.303523 2067.932934 
z
" clip-path="url(#p575b4af4d0)" style="fill: #ffa500; fill-opacity: 0.5; stroke: #ffffff; stroke-linejoin: miter"/>
   </g>
   <g id="patch_83">
    <path d="M 2790.124432 2071.986779 
L 2820.945341 2071.986779 
L 2820.945341 2057.798322 
L 2790.124432 2057.798322 
z
" clip-path="url(#p575b4af4d0)" style="fill: #ffa500; fill-opacity: 0.5; stroke: #ffffff; stroke-linejoin: miter"/>
   </g>
   <g id="patch_84">
    <path d="M 2820.945341 2071.986779 
L 2851.76625 2071.986779 
L 2851.76625 2066.919473 
L 2820.945341 2066.919473 
z
" clip-path="url(#p575b4af4d0)" style="fill: #ffa500; fill-opacity: 0.5; stroke: #ffffff; stroke-linejoin: miter"/>
   </g>
   <g id="patch_85">
    <path d="M 2851.76625 2071.986779 
L 2882.587159 2071.986779 
L 2882.587159 2068.946396 
L 2851.76625 2068.946396 
z
" clip-path="url(#p575b4af4d0)" style="fill: #ffa500; fill-opacity: 0.5; stroke: #ffffff; stroke-linejoin: miter"/>
   </g>
   <g id="patch_86">
    <path d="M 2882.587159 2071.986779 
L 2913.408068 2071.986779 
L 2913.408068 2067.932934 
L 2882.587159 2067.932934 
z
" clip-path="url(#p575b4af4d0)" style="fill: #ffa500; fill-opacity: 0.5; stroke: #ffffff; stroke-linejoin: miter"/>
   </g>
   <g id="patch_87">
    <path d="M 2913.408068 2071.986779 
L 2944.228977 2071.986779 
L 2944.228977 2069.959857 
L 2913.408068 2069.959857 
z
" clip-path="url(#p575b4af4d0)" style="fill: #ffa500; fill-opacity: 0.5; stroke: #ffffff; stroke-linejoin: miter"/>
   </g>
   <g id="patch_88">
    <path d="M 2944.228977 2071.986779 
L 2975.049886 2071.986779 
L 2975.049886 2067.932934 
L 2944.228977 2067.932934 
z
" clip-path="url(#p575b4af4d0)" style="fill: #ffa500; fill-opacity: 0.5; stroke: #ffffff; stroke-linejoin: miter"/>
   </g>
   <g id="patch_89">
    <path d="M 2975.049886 2071.986779 
L 3005.870795 2071.986779 
L 3005.870795 2070.973318 
L 2975.049886 2070.973318 
z
" clip-path="url(#p575b4af4d0)" style="fill: #ffa500; fill-opacity: 0.5; stroke: #ffffff; stroke-linejoin: miter"/>
   </g>
   <g id="patch_90">
    <path d="M 3005.870795 2071.986779 
L 3036.691705 2071.986779 
L 3036.691705 2068.946396 
L 3005.870795 2068.946396 
z
" clip-path="url(#p575b4af4d0)" style="fill: #ffa500; fill-opacity: 0.5; stroke: #ffffff; stroke-linejoin: miter"/>
   </g>
   <g id="patch_91">
    <path d="M 3036.691705 2071.986779 
L 3067.512614 2071.986779 
L 3067.512614 2067.932934 
L 3036.691705 2067.932934 
z
" clip-path="url(#p575b4af4d0)" style="fill: #ffa500; fill-opacity: 0.5; stroke: #ffffff; stroke-linejoin: miter"/>
   </g>
   <g id="patch_92">
    <path d="M 3067.512614 2071.986779 
L 3098.333523 2071.986779 
L 3098.333523 2063.879089 
L 3067.512614 2063.879089 
z
" clip-path="url(#p575b4af4d0)" style="fill: #ffa500; fill-opacity: 0.5; stroke: #ffffff; stroke-linejoin: miter"/>
   </g>
   <g id="patch_93">
    <path d="M 3098.333523 2071.986779 
L 3129.154432 2071.986779 
L 3129.154432 2028.407946 
L 3098.333523 2028.407946 
z
" clip-path="url(#p575b4af4d0)" style="fill: #ffa500; fill-opacity: 0.5; stroke: #ffffff; stroke-linejoin: miter"/>
   </g>
   <g id="patch_94">
    <path d="M 3129.154432 2071.986779 
L 3159.975341 2071.986779 
L 3159.975341 2055.771399 
L 3129.154432 2055.771399 
z
" clip-path="url(#p575b4af4d0)" style="fill: #ffa500; fill-opacity: 0.5; stroke: #ffffff; stroke-linejoin: miter"/>
   </g>
   <g id="patch_95">
    <path d="M 3159.975341 2071.986779 
L 3190.79625 2071.986779 
L 3190.79625 2071.986779 
L 3159.975341 2071.986779 
z
" clip-path="url(#p575b4af4d0)" style="fill: #ffa500; fill-opacity: 0.5; stroke: #ffffff; stroke-linejoin: miter"/>
   </g>
   <g id="patch_96">
    <path d="M 3190.79625 2071.986779 
L 3221.617159 2071.986779 
L 3221.617159 2069.959857 
L 3190.79625 2069.959857 
z
" clip-path="url(#p575b4af4d0)" style="fill: #ffa500; fill-opacity: 0.5; stroke: #ffffff; stroke-linejoin: miter"/>
   </g>
   <g id="patch_97">
    <path d="M 3221.617159 2071.986779 
L 3252.438068 2071.986779 
L 3252.438068 2069.959857 
L 3221.617159 2069.959857 
z
" clip-path="url(#p575b4af4d0)" style="fill: #ffa500; fill-opacity: 0.5; stroke: #ffffff; stroke-linejoin: miter"/>
   </g>
   <g id="patch_98">
    <path d="M 3252.438068 2071.986779 
L 3283.258977 2071.986779 
L 3283.258977 2066.919473 
L 3252.438068 2066.919473 
z
" clip-path="url(#p575b4af4d0)" style="fill: #ffa500; fill-opacity: 0.5; stroke: #ffffff; stroke-linejoin: miter"/>
   </g>
   <g id="patch_99">
    <path d="M 3283.258977 2071.986779 
L 3314.079886 2071.986779 
L 3314.079886 2071.986779 
L 3283.258977 2071.986779 
z
" clip-path="url(#p575b4af4d0)" style="fill: #ffa500; fill-opacity: 0.5; stroke: #ffffff; stroke-linejoin: miter"/>
   </g>
   <g id="patch_100">
    <path d="M 3314.079886 2071.986779 
L 3344.900795 2071.986779 
L 3344.900795 2064.892551 
L 3314.079886 2064.892551 
z
" clip-path="url(#p575b4af4d0)" style="fill: #ffa500; fill-opacity: 0.5; stroke: #ffffff; stroke-linejoin: miter"/>
   </g>
   <g id="patch_101">
    <path d="M 3344.900795 2071.986779 
L 3375.721705 2071.986779 
L 3375.721705 2071.986779 
L 3344.900795 2071.986779 
z
" clip-path="url(#p575b4af4d0)" style="fill: #ffa500; fill-opacity: 0.5; stroke: #ffffff; stroke-linejoin: miter"/>
   </g>
   <g id="patch_102">
    <path d="M 324.451705 2071.986779 
L 355.272614 2071.986779 
L 355.272614 1972.667577 
L 324.451705 1972.667577 
z
" clip-path="url(#p575b4af4d0)" style="fill: #0000ff; fill-opacity: 0.5; stroke: #ffffff; stroke-linejoin: miter"/>
   </g>
   <g id="patch_103">
    <path d="M 355.272614 2071.986779 
L 386.093523 2071.986779 
L 386.093523 2060.838706 
L 355.272614 2060.838706 
z
" clip-path="url(#p575b4af4d0)" style="fill: #0000ff; fill-opacity: 0.5; stroke: #ffffff; stroke-linejoin: miter"/>
   </g>
   <g id="patch_104">
    <path d="M 386.093523 2071.986779 
L 416.914432 2071.986779 
L 416.914432 137.289251 
L 386.093523 137.289251 
z
" clip-path="url(#p575b4af4d0)" style="fill: #0000ff; fill-opacity: 0.5; stroke: #ffffff; stroke-linejoin: miter"/>
   </g>
   <g id="patch_105">
    <path d="M 416.914432 2071.986779 
L 447.735341 2071.986779 
L 447.735341 1028.121691 
L 416.914432 1028.121691 
z
" clip-path="url(#p575b4af4d0)" style="fill: #0000ff; fill-opacity: 0.5; stroke: #ffffff; stroke-linejoin: miter"/>
   </g>
   <g id="patch_106">
    <path d="M 447.735341 2071.986779 
L 478.55625 2071.986779 
L 478.55625 1505.46194 
L 447.735341 1505.46194 
z
" clip-path="url(#p575b4af4d0)" style="fill: #0000ff; fill-opacity: 0.5; stroke: #ffffff; stroke-linejoin: miter"/>
   </g>
   <g id="patch_107">
    <path d="M 478.55625 2071.986779 
L 509.377159 2071.986779 
L 509.377159 1595.659991 
L 478.55625 1595.659991 
z
" clip-path="url(#p575b4af4d0)" style="fill: #0000ff; fill-opacity: 0.5; stroke: #ffffff; stroke-linejoin: miter"/>
   </g>
   <g id="patch_108">
    <path d="M 509.377159 2071.986779 
L 540.198068 2071.986779 
L 540.198068 1890.577215 
L 509.377159 1890.577215 
z
" clip-path="url(#p575b4af4d0)" style="fill: #0000ff; fill-opacity: 0.5; stroke: #ffffff; stroke-linejoin: miter"/>
   </g>
   <g id="patch_109">
    <path d="M 540.198068 2071.986779 
L 571.018977 2071.986779 
L 571.018977 1890.577215 
L 540.198068 1890.577215 
z
" clip-path="url(#p575b4af4d0)" style="fill: #0000ff; fill-opacity: 0.5; stroke: #ffffff; stroke-linejoin: miter"/>
   </g>
   <g id="patch_110">
    <path d="M 571.018977 2071.986779 
L 601.839886 2071.986779 
L 601.839886 1945.304123 
L 571.018977 1945.304123 
z
" clip-path="url(#p575b4af4d0)" style="fill: #0000ff; fill-opacity: 0.5; stroke: #ffffff; stroke-linejoin: miter"/>
   </g>
   <g id="patch_111">
    <path d="M 601.839886 2071.986779 
L 632.660795 2071.986779 
L 632.660795 1874.361835 
L 601.839886 1874.361835 
z
" clip-path="url(#p575b4af4d0)" style="fill: #0000ff; fill-opacity: 0.5; stroke: #ffffff; stroke-linejoin: miter"/>
   </g>
   <g id="patch_112">
    <path d="M 632.660795 2071.986779 
L 663.481705 2071.986779 
L 663.481705 1942.263739 
L 632.660795 1942.263739 
z
" clip-path="url(#p575b4af4d0)" style="fill: #0000ff; fill-opacity: 0.5; stroke: #ffffff; stroke-linejoin: miter"/>
   </g>
   <g id="patch_113">
    <path d="M 663.481705 2071.986779 
L 694.302614 2071.986779 
L 694.302614 2012.192566 
L 663.481705 2012.192566 
z
" clip-path="url(#p575b4af4d0)" style="fill: #0000ff; fill-opacity: 0.5; stroke: #ffffff; stroke-linejoin: miter"/>
   </g>
   <g id="patch_114">
    <path d="M 694.302614 2071.986779 
L 725.123523 2071.986779 
L 725.123523 2057.798322 
L 694.302614 2057.798322 
z
" clip-path="url(#p575b4af4d0)" style="fill: #0000ff; fill-opacity: 0.5; stroke: #ffffff; stroke-linejoin: miter"/>
   </g>
   <g id="patch_115">
    <path d="M 725.123523 2071.986779 
L 755.944432 2071.986779 
L 755.944432 2068.946396 
L 725.123523 2068.946396 
z
" clip-path="url(#p575b4af4d0)" style="fill: #0000ff; fill-opacity: 0.5; stroke: #ffffff; stroke-linejoin: miter"/>
   </g>
   <g id="patch_116">
    <path d="M 755.944432 2071.986779 
L 786.765341 2071.986779 
L 786.765341 2060.838706 
L 755.944432 2060.838706 
z
" clip-path="url(#p575b4af4d0)" style="fill: #0000ff; fill-opacity: 0.5; stroke: #ffffff; stroke-linejoin: miter"/>
   </g>
   <g id="patch_117">
    <path d="M 786.765341 2071.986779 
L 817.58625 2071.986779 
L 817.58625 2067.932934 
L 786.765341 2067.932934 
z
" clip-path="url(#p575b4af4d0)" style="fill: #0000ff; fill-opacity: 0.5; stroke: #ffffff; stroke-linejoin: miter"/>
   </g>
   <g id="patch_118">
    <path d="M 817.58625 2071.986779 
L 848.407159 2071.986779 
L 848.407159 2060.838706 
L 817.58625 2060.838706 
z
" clip-path="url(#p575b4af4d0)" style="fill: #0000ff; fill-opacity: 0.5; stroke: #ffffff; stroke-linejoin: miter"/>
   </g>
   <g id="patch_119">
    <path d="M 848.407159 2071.986779 
L 879.228068 2071.986779 
L 879.228068 2038.542558 
L 848.407159 2038.542558 
z
" clip-path="url(#p575b4af4d0)" style="fill: #0000ff; fill-opacity: 0.5; stroke: #ffffff; stroke-linejoin: miter"/>
   </g>
   <g id="patch_120">
    <path d="M 879.228068 2071.986779 
L 910.048977 2071.986779 
L 910.048977 1480.125409 
L 879.228068 1480.125409 
z
" clip-path="url(#p575b4af4d0)" style="fill: #0000ff; fill-opacity: 0.5; stroke: #ffffff; stroke-linejoin: miter"/>
   </g>
   <g id="patch_121">
    <path d="M 910.048977 2071.986779 
L 940.869886 2071.986779 
L 940.869886 2038.542558 
L 910.048977 2038.542558 
z
" clip-path="url(#p575b4af4d0)" style="fill: #0000ff; fill-opacity: 0.5; stroke: #ffffff; stroke-linejoin: miter"/>
   </g>
   <g id="patch_122">
    <path d="M 940.869886 2071.986779 
L 971.690795 2071.986779 
L 971.690795 2050.704093 
L 940.869886 2050.704093 
z
" clip-path="url(#p575b4af4d0)" style="fill: #0000ff; fill-opacity: 0.5; stroke: #ffffff; stroke-linejoin: miter"/>
   </g>
   <g id="patch_123">
    <path d="M 971.690795 2071.986779 
L 1002.511705 2071.986779 
L 1002.511705 1966.586809 
L 971.690795 1966.586809 
z
" clip-path="url(#p575b4af4d0)" style="fill: #0000ff; fill-opacity: 0.5; stroke: #ffffff; stroke-linejoin: miter"/>
   </g>
   <g id="patch_124">
    <path d="M 1002.511705 2071.986779 
L 1033.332614 2071.986779 
L 1033.332614 1989.896418 
L 1002.511705 1989.896418 
z
" clip-path="url(#p575b4af4d0)" style="fill: #0000ff; fill-opacity: 0.5; stroke: #ffffff; stroke-linejoin: miter"/>
   </g>
   <g id="patch_125">
    <path d="M 1033.332614 2071.986779 
L 1064.153523 2071.986779 
L 1064.153523 1984.829112 
L 1033.332614 1984.829112 
z
" clip-path="url(#p575b4af4d0)" style="fill: #0000ff; fill-opacity: 0.5; stroke: #ffffff; stroke-linejoin: miter"/>
   </g>
   <g id="patch_126">
    <path d="M 1064.153523 2071.986779 
L 1094.974432 2071.986779 
L 1094.974432 2036.515636 
L 1064.153523 2036.515636 
z
" clip-path="url(#p575b4af4d0)" style="fill: #0000ff; fill-opacity: 0.5; stroke: #ffffff; stroke-linejoin: miter"/>
   </g>
   <g id="patch_127">
    <path d="M 1094.974432 2071.986779 
L 1125.795341 2071.986779 
L 1125.795341 2060.838706 
L 1094.974432 2060.838706 
z
" clip-path="url(#p575b4af4d0)" style="fill: #0000ff; fill-opacity: 0.5; stroke: #ffffff; stroke-linejoin: miter"/>
   </g>
   <g id="patch_128">
    <path d="M 1125.795341 2071.986779 
L 1156.61625 2071.986779 
L 1156.61625 2067.932934 
L 1125.795341 2067.932934 
z
" clip-path="url(#p575b4af4d0)" style="fill: #0000ff; fill-opacity: 0.5; stroke: #ffffff; stroke-linejoin: miter"/>
   </g>
   <g id="patch_129">
    <path d="M 1156.61625 2071.986779 
L 1187.437159 2071.986779 
L 1187.437159 2065.906012 
L 1156.61625 2065.906012 
z
" clip-path="url(#p575b4af4d0)" style="fill: #0000ff; fill-opacity: 0.5; stroke: #ffffff; stroke-linejoin: miter"/>
   </g>
   <g id="patch_130">
    <path d="M 1187.437159 2071.986779 
L 1218.258068 2071.986779 
L 1218.258068 2069.959857 
L 1187.437159 2069.959857 
z
" clip-path="url(#p575b4af4d0)" style="fill: #0000ff; fill-opacity: 0.5; stroke: #ffffff; stroke-linejoin: miter"/>
   </g>
   <g id="patch_131">
    <path d="M 1218.258068 2071.986779 
L 1249.078977 2071.986779 
L 1249.078977 2068.946396 
L 1218.258068 2068.946396 
z
" clip-path="url(#p575b4af4d0)" style="fill: #0000ff; fill-opacity: 0.5; stroke: #ffffff; stroke-linejoin: miter"/>
   </g>
   <g id="patch_132">
    <path d="M 1249.078977 2071.986779 
L 1279.899886 2071.986779 
L 1279.899886 2059.825244 
L 1249.078977 2059.825244 
z
" clip-path="url(#p575b4af4d0)" style="fill: #0000ff; fill-opacity: 0.5; stroke: #ffffff; stroke-linejoin: miter"/>
   </g>
   <g id="patch_133">
    <path d="M 1279.899886 2071.986779 
L 1310.720795 2071.986779 
L 1310.720795 2066.919473 
L 1279.899886 2066.919473 
z
" clip-path="url(#p575b4af4d0)" style="fill: #0000ff; fill-opacity: 0.5; stroke: #ffffff; stroke-linejoin: miter"/>
   </g>
   <g id="patch_134">
    <path d="M 1310.720795 2071.986779 
L 1341.541705 2071.986779 
L 1341.541705 2063.879089 
L 1310.720795 2063.879089 
z
" clip-path="url(#p575b4af4d0)" style="fill: #0000ff; fill-opacity: 0.5; stroke: #ffffff; stroke-linejoin: miter"/>
   </g>
   <g id="patch_135">
    <path d="M 1341.541705 2071.986779 
L 1372.362614 2071.986779 
L 1372.362614 2066.919473 
L 1341.541705 2066.919473 
z
" clip-path="url(#p575b4af4d0)" style="fill: #0000ff; fill-opacity: 0.5; stroke: #ffffff; stroke-linejoin: miter"/>
   </g>
   <g id="patch_136">
    <path d="M 1372.362614 2071.986779 
L 1403.183523 2071.986779 
L 1403.183523 2071.986779 
L 1372.362614 2071.986779 
z
" clip-path="url(#p575b4af4d0)" style="fill: #0000ff; fill-opacity: 0.5; stroke: #ffffff; stroke-linejoin: miter"/>
   </g>
   <g id="patch_137">
    <path d="M 1403.183523 2071.986779 
L 1434.004432 2071.986779 
L 1434.004432 2039.556019 
L 1403.183523 2039.556019 
z
" clip-path="url(#p575b4af4d0)" style="fill: #0000ff; fill-opacity: 0.5; stroke: #ffffff; stroke-linejoin: miter"/>
   </g>
   <g id="patch_138">
    <path d="M 1434.004432 2071.986779 
L 1464.825341 2071.986779 
L 1464.825341 2064.892551 
L 1434.004432 2064.892551 
z
" clip-path="url(#p575b4af4d0)" style="fill: #0000ff; fill-opacity: 0.5; stroke: #ffffff; stroke-linejoin: miter"/>
   </g>
   <g id="patch_139">
    <path d="M 1464.825341 2071.986779 
L 1495.64625 2071.986779 
L 1495.64625 2063.879089 
L 1464.825341 2063.879089 
z
" clip-path="url(#p575b4af4d0)" style="fill: #0000ff; fill-opacity: 0.5; stroke: #ffffff; stroke-linejoin: miter"/>
   </g>
   <g id="patch_140">
    <path d="M 1495.64625 2071.986779 
L 1526.467159 2071.986779 
L 1526.467159 2064.892551 
L 1495.64625 2064.892551 
z
" clip-path="url(#p575b4af4d0)" style="fill: #0000ff; fill-opacity: 0.5; stroke: #ffffff; stroke-linejoin: miter"/>
   </g>
   <g id="patch_141">
    <path d="M 1526.467159 2071.986779 
L 1557.288068 2071.986779 
L 1557.288068 2068.946396 
L 1526.467159 2068.946396 
z
" clip-path="url(#p575b4af4d0)" style="fill: #0000ff; fill-opacity: 0.5; stroke: #ffffff; stroke-linejoin: miter"/>
   </g>
   <g id="patch_142">
    <path d="M 1557.288068 2071.986779 
L 1588.108977 2071.986779 
L 1588.108977 2068.946396 
L 1557.288068 2068.946396 
z
" clip-path="url(#p575b4af4d0)" style="fill: #0000ff; fill-opacity: 0.5; stroke: #ffffff; stroke-linejoin: miter"/>
   </g>
   <g id="patch_143">
    <path d="M 1588.108977 2071.986779 
L 1618.929886 2071.986779 
L 1618.929886 2068.946396 
L 1588.108977 2068.946396 
z
" clip-path="url(#p575b4af4d0)" style="fill: #0000ff; fill-opacity: 0.5; stroke: #ffffff; stroke-linejoin: miter"/>
   </g>
   <g id="patch_144">
    <path d="M 1618.929886 2071.986779 
L 1649.750795 2071.986779 
L 1649.750795 2068.946396 
L 1618.929886 2068.946396 
z
" clip-path="url(#p575b4af4d0)" style="fill: #0000ff; fill-opacity: 0.5; stroke: #ffffff; stroke-linejoin: miter"/>
   </g>
   <g id="patch_145">
    <path d="M 1649.750795 2071.986779 
L 1680.571705 2071.986779 
L 1680.571705 2060.838706 
L 1649.750795 2060.838706 
z
" clip-path="url(#p575b4af4d0)" style="fill: #0000ff; fill-opacity: 0.5; stroke: #ffffff; stroke-linejoin: miter"/>
   </g>
   <g id="patch_146">
    <path d="M 1680.571705 2071.986779 
L 1711.392614 2071.986779 
L 1711.392614 2071.986779 
L 1680.571705 2071.986779 
z
" clip-path="url(#p575b4af4d0)" style="fill: #0000ff; fill-opacity: 0.5; stroke: #ffffff; stroke-linejoin: miter"/>
   </g>
   <g id="patch_147">
    <path d="M 1711.392614 2071.986779 
L 1742.213523 2071.986779 
L 1742.213523 2064.892551 
L 1711.392614 2064.892551 
z
" clip-path="url(#p575b4af4d0)" style="fill: #0000ff; fill-opacity: 0.5; stroke: #ffffff; stroke-linejoin: miter"/>
   </g>
   <g id="patch_148">
    <path d="M 1742.213523 2071.986779 
L 1773.034432 2071.986779 
L 1773.034432 2063.879089 
L 1742.213523 2063.879089 
z
" clip-path="url(#p575b4af4d0)" style="fill: #0000ff; fill-opacity: 0.5; stroke: #ffffff; stroke-linejoin: miter"/>
   </g>
   <g id="patch_149">
    <path d="M 1773.034432 2071.986779 
L 1803.855341 2071.986779 
L 1803.855341 2057.798322 
L 1773.034432 2057.798322 
z
" clip-path="url(#p575b4af4d0)" style="fill: #0000ff; fill-opacity: 0.5; stroke: #ffffff; stroke-linejoin: miter"/>
   </g>
   <g id="patch_150">
    <path d="M 1803.855341 2071.986779 
L 1834.67625 2071.986779 
L 1834.67625 2071.986779 
L 1803.855341 2071.986779 
z
" clip-path="url(#p575b4af4d0)" style="fill: #0000ff; fill-opacity: 0.5; stroke: #ffffff; stroke-linejoin: miter"/>
   </g>
   <g id="patch_151">
    <path d="M 1834.67625 2071.986779 
L 1865.497159 2071.986779 
L 1865.497159 2067.932934 
L 1834.67625 2067.932934 
z
" clip-path="url(#p575b4af4d0)" style="fill: #0000ff; fill-opacity: 0.5; stroke: #ffffff; stroke-linejoin: miter"/>
   </g>
   <g id="patch_152">
    <path d="M 1865.497159 2071.986779 
L 1896.318068 2071.986779 
L 1896.318068 2067.932934 
L 1865.497159 2067.932934 
z
" clip-path="url(#p575b4af4d0)" style="fill: #0000ff; fill-opacity: 0.5; stroke: #ffffff; stroke-linejoin: miter"/>
   </g>
   <g id="patch_153">
    <path d="M 1896.318068 2071.986779 
L 1927.138977 2071.986779 
L 1927.138977 2071.986779 
L 1896.318068 2071.986779 
z
" clip-path="url(#p575b4af4d0)" style="fill: #0000ff; fill-opacity: 0.5; stroke: #ffffff; stroke-linejoin: miter"/>
   </g>
   <g id="patch_154">
    <path d="M 1927.138977 2071.986779 
L 1957.959886 2071.986779 
L 1957.959886 2069.959857 
L 1927.138977 2069.959857 
z
" clip-path="url(#p575b4af4d0)" style="fill: #0000ff; fill-opacity: 0.5; stroke: #ffffff; stroke-linejoin: miter"/>
   </g>
   <g id="patch_155">
    <path d="M 1957.959886 2071.986779 
L 1988.780795 2071.986779 
L 1988.780795 2071.986779 
L 1957.959886 2071.986779 
z
" clip-path="url(#p575b4af4d0)" style="fill: #0000ff; fill-opacity: 0.5; stroke: #ffffff; stroke-linejoin: miter"/>
   </g>
   <g id="patch_156">
    <path d="M 1988.780795 2071.986779 
L 2019.601705 2071.986779 
L 2019.601705 2069.959857 
L 1988.780795 2069.959857 
z
" clip-path="url(#p575b4af4d0)" style="fill: #0000ff; fill-opacity: 0.5; stroke: #ffffff; stroke-linejoin: miter"/>
   </g>
   <g id="patch_157">
    <path d="M 2019.601705 2071.986779 
L 2050.422614 2071.986779 
L 2050.422614 2071.986779 
L 2019.601705 2071.986779 
z
" clip-path="url(#p575b4af4d0)" style="fill: #0000ff; fill-opacity: 0.5; stroke: #ffffff; stroke-linejoin: miter"/>
   </g>
   <g id="patch_158">
    <path d="M 2050.422614 2071.986779 
L 2081.243523 2071.986779 
L 2081.243523 2062.865628 
L 2050.422614 2062.865628 
z
" clip-path="url(#p575b4af4d0)" style="fill: #0000ff; fill-opacity: 0.5; stroke: #ffffff; stroke-linejoin: miter"/>
   </g>
   <g id="patch_159">
    <path d="M 2081.243523 2071.986779 
L 2112.064432 2071.986779 
L 2112.064432 2070.973318 
L 2081.243523 2070.973318 
z
" clip-path="url(#p575b4af4d0)" style="fill: #0000ff; fill-opacity: 0.5; stroke: #ffffff; stroke-linejoin: miter"/>
   </g>
   <g id="patch_160">
    <path d="M 2112.064432 2071.986779 
L 2142.885341 2071.986779 
L 2142.885341 2067.932934 
L 2112.064432 2067.932934 
z
" clip-path="url(#p575b4af4d0)" style="fill: #0000ff; fill-opacity: 0.5; stroke: #ffffff; stroke-linejoin: miter"/>
   </g>
   <g id="patch_161">
    <path d="M 2142.885341 2071.986779 
L 2173.70625 2071.986779 
L 2173.70625 2071.986779 
L 2142.885341 2071.986779 
z
" clip-path="url(#p575b4af4d0)" style="fill: #0000ff; fill-opacity: 0.5; stroke: #ffffff; stroke-linejoin: miter"/>
   </g>
   <g id="patch_162">
    <path d="M 2173.70625 2071.986779 
L 2204.527159 2071.986779 
L 2204.527159 2071.986779 
L 2173.70625 2071.986779 
z
" clip-path="url(#p575b4af4d0)" style="fill: #0000ff; fill-opacity: 0.5; stroke: #ffffff; stroke-linejoin: miter"/>
   </g>
   <g id="patch_163">
    <path d="M 2204.527159 2071.986779 
L 2235.348068 2071.986779 
L 2235.348068 2071.986779 
L 2204.527159 2071.986779 
z
" clip-path="url(#p575b4af4d0)" style="fill: #0000ff; fill-opacity: 0.5; stroke: #ffffff; stroke-linejoin: miter"/>
   </g>
   <g id="patch_164">
    <path d="M 2235.348068 2071.986779 
L 2266.168977 2071.986779 
L 2266.168977 2069.959857 
L 2235.348068 2069.959857 
z
" clip-path="url(#p575b4af4d0)" style="fill: #0000ff; fill-opacity: 0.5; stroke: #ffffff; stroke-linejoin: miter"/>
   </g>
   <g id="patch_165">
    <path d="M 2266.168977 2071.986779 
L 2296.989886 2071.986779 
L 2296.989886 2071.986779 
L 2266.168977 2071.986779 
z
" clip-path="url(#p575b4af4d0)" style="fill: #0000ff; fill-opacity: 0.5; stroke: #ffffff; stroke-linejoin: miter"/>
   </g>
   <g id="patch_166">
    <path d="M 2296.989886 2071.986779 
L 2327.810795 2071.986779 
L 2327.810795 2071.986779 
L 2296.989886 2071.986779 
z
" clip-path="url(#p575b4af4d0)" style="fill: #0000ff; fill-opacity: 0.5; stroke: #ffffff; stroke-linejoin: miter"/>
   </g>
   <g id="patch_167">
    <path d="M 2327.810795 2071.986779 
L 2358.631705 2071.986779 
L 2358.631705 2071.986779 
L 2327.810795 2071.986779 
z
" clip-path="url(#p575b4af4d0)" style="fill: #0000ff; fill-opacity: 0.5; stroke: #ffffff; stroke-linejoin: miter"/>
   </g>
   <g id="patch_168">
    <path d="M 2358.631705 2071.986779 
L 2389.452614 2071.986779 
L 2389.452614 2071.986779 
L 2358.631705 2071.986779 
z
" clip-path="url(#p575b4af4d0)" style="fill: #0000ff; fill-opacity: 0.5; stroke: #ffffff; stroke-linejoin: miter"/>
   </g>
   <g id="patch_169">
    <path d="M 2389.452614 2071.986779 
L 2420.273523 2071.986779 
L 2420.273523 2071.986779 
L 2389.452614 2071.986779 
z
" clip-path="url(#p575b4af4d0)" style="fill: #0000ff; fill-opacity: 0.5; stroke: #ffffff; stroke-linejoin: miter"/>
   </g>
   <g id="patch_170">
    <path d="M 2420.273523 2071.986779 
L 2451.094432 2071.986779 
L 2451.094432 2071.986779 
L 2420.273523 2071.986779 
z
" clip-path="url(#p575b4af4d0)" style="fill: #0000ff; fill-opacity: 0.5; stroke: #ffffff; stroke-linejoin: miter"/>
   </g>
   <g id="patch_171">
    <path d="M 2451.094432 2071.986779 
L 2481.915341 2071.986779 
L 2481.915341 2071.986779 
L 2451.094432 2071.986779 
z
" clip-path="url(#p575b4af4d0)" style="fill: #0000ff; fill-opacity: 0.5; stroke: #ffffff; stroke-linejoin: miter"/>
   </g>
   <g id="patch_172">
    <path d="M 2481.915341 2071.986779 
L 2512.73625 2071.986779 
L 2512.73625 2070.973318 
L 2481.915341 2070.973318 
z
" clip-path="url(#p575b4af4d0)" style="fill: #0000ff; fill-opacity: 0.5; stroke: #ffffff; stroke-linejoin: miter"/>
   </g>
   <g id="patch_173">
    <path d="M 2512.73625 2071.986779 
L 2543.557159 2071.986779 
L 2543.557159 2064.892551 
L 2512.73625 2064.892551 
z
" clip-path="url(#p575b4af4d0)" style="fill: #0000ff; fill-opacity: 0.5; stroke: #ffffff; stroke-linejoin: miter"/>
   </g>
   <g id="patch_174">
    <path d="M 2543.557159 2071.986779 
L 2574.378068 2071.986779 
L 2574.378068 2071.986779 
L 2543.557159 2071.986779 
z
" clip-path="url(#p575b4af4d0)" style="fill: #0000ff; fill-opacity: 0.5; stroke: #ffffff; stroke-linejoin: miter"/>
   </g>
   <g id="patch_175">
    <path d="M 2574.378068 2071.986779 
L 2605.198977 2071.986779 
L 2605.198977 2071.986779 
L 2574.378068 2071.986779 
z
" clip-path="url(#p575b4af4d0)" style="fill: #0000ff; fill-opacity: 0.5; stroke: #ffffff; stroke-linejoin: miter"/>
   </g>
   <g id="patch_176">
    <path d="M 2605.198977 2071.986779 
L 2636.019886 2071.986779 
L 2636.019886 2071.986779 
L 2605.198977 2071.986779 
z
" clip-path="url(#p575b4af4d0)" style="fill: #0000ff; fill-opacity: 0.5; stroke: #ffffff; stroke-linejoin: miter"/>
   </g>
   <g id="patch_177">
    <path d="M 2636.019886 2071.986779 
L 2666.840795 2071.986779 
L 2666.840795 2070.973318 
L 2636.019886 2070.973318 
z
" clip-path="url(#p575b4af4d0)" style="fill: #0000ff; fill-opacity: 0.5; stroke: #ffffff; stroke-linejoin: miter"/>
   </g>
   <g id="patch_178">
    <path d="M 2666.840795 2071.986779 
L 2697.661705 2071.986779 
L 2697.661705 2071.986779 
L 2666.840795 2071.986779 
z
" clip-path="url(#p575b4af4d0)" style="fill: #0000ff; fill-opacity: 0.5; stroke: #ffffff; stroke-linejoin: miter"/>
   </g>
   <g id="patch_179">
    <path d="M 2697.661705 2071.986779 
L 2728.482614 2071.986779 
L 2728.482614 2071.986779 
L 2697.661705 2071.986779 
z
" clip-path="url(#p575b4af4d0)" style="fill: #0000ff; fill-opacity: 0.5; stroke: #ffffff; stroke-linejoin: miter"/>
   </g>
   <g id="patch_180">
    <path d="M 2728.482614 2071.986779 
L 2759.303523 2071.986779 
L 2759.303523 2068.946396 
L 2728.482614 2068.946396 
z
" clip-path="url(#p575b4af4d0)" style="fill: #0000ff; fill-opacity: 0.5; stroke: #ffffff; stroke-linejoin: miter"/>
   </g>
   <g id="patch_181">
    <path d="M 2759.303523 2071.986779 
L 2790.124432 2071.986779 
L 2790.124432 2070.973318 
L 2759.303523 2070.973318 
z
" clip-path="url(#p575b4af4d0)" style="fill: #0000ff; fill-opacity: 0.5; stroke: #ffffff; stroke-linejoin: miter"/>
   </g>
   <g id="patch_182">
    <path d="M 2790.124432 2071.986779 
L 2820.945341 2071.986779 
L 2820.945341 2071.986779 
L 2790.124432 2071.986779 
z
" clip-path="url(#p575b4af4d0)" style="fill: #0000ff; fill-opacity: 0.5; stroke: #ffffff; stroke-linejoin: miter"/>
   </g>
   <g id="patch_183">
    <path d="M 2820.945341 2071.986779 
L 2851.76625 2071.986779 
L 2851.76625 2070.973318 
L 2820.945341 2070.973318 
z
" clip-path="url(#p575b4af4d0)" style="fill: #0000ff; fill-opacity: 0.5; stroke: #ffffff; stroke-linejoin: miter"/>
   </g>
   <g id="patch_184">
    <path d="M 2851.76625 2071.986779 
L 2882.587159 2071.986779 
L 2882.587159 2069.959857 
L 2851.76625 2069.959857 
z
" clip-path="url(#p575b4af4d0)" style="fill: #0000ff; fill-opacity: 0.5; stroke: #ffffff; stroke-linejoin: miter"/>
   </g>
   <g id="patch_185">
    <path d="M 2882.587159 2071.986779 
L 2913.408068 2071.986779 
L 2913.408068 2071.986779 
L 2882.587159 2071.986779 
z
" clip-path="url(#p575b4af4d0)" style="fill: #0000ff; fill-opacity: 0.5; stroke: #ffffff; stroke-linejoin: miter"/>
   </g>
   <g id="patch_186">
    <path d="M 2913.408068 2071.986779 
L 2944.228977 2071.986779 
L 2944.228977 2070.973318 
L 2913.408068 2070.973318 
z
" clip-path="url(#p575b4af4d0)" style="fill: #0000ff; fill-opacity: 0.5; stroke: #ffffff; stroke-linejoin: miter"/>
   </g>
   <g id="patch_187">
    <path d="M 2944.228977 2071.986779 
L 2975.049886 2071.986779 
L 2975.049886 2069.959857 
L 2944.228977 2069.959857 
z
" clip-path="url(#p575b4af4d0)" style="fill: #0000ff; fill-opacity: 0.5; stroke: #ffffff; stroke-linejoin: miter"/>
   </g>
   <g id="patch_188">
    <path d="M 2975.049886 2071.986779 
L 3005.870795 2071.986779 
L 3005.870795 2071.986779 
L 2975.049886 2071.986779 
z
" clip-path="url(#p575b4af4d0)" style="fill: #0000ff; fill-opacity: 0.5; stroke: #ffffff; stroke-linejoin: miter"/>
   </g>
   <g id="patch_189">
    <path d="M 3005.870795 2071.986779 
L 3036.691705 2071.986779 
L 3036.691705 2071.986779 
L 3005.870795 2071.986779 
z
" clip-path="url(#p575b4af4d0)" style="fill: #0000ff; fill-opacity: 0.5; stroke: #ffffff; stroke-linejoin: miter"/>
   </g>
   <g id="patch_190">
    <path d="M 3036.691705 2071.986779 
L 3067.512614 2071.986779 
L 3067.512614 2070.973318 
L 3036.691705 2070.973318 
z
" clip-path="url(#p575b4af4d0)" style="fill: #0000ff; fill-opacity: 0.5; stroke: #ffffff; stroke-linejoin: miter"/>
   </g>
   <g id="patch_191">
    <path d="M 3067.512614 2071.986779 
L 3098.333523 2071.986779 
L 3098.333523 2071.986779 
L 3067.512614 2071.986779 
z
" clip-path="url(#p575b4af4d0)" style="fill: #0000ff; fill-opacity: 0.5; stroke: #ffffff; stroke-linejoin: miter"/>
   </g>
   <g id="patch_192">
    <path d="M 3098.333523 2071.986779 
L 3129.154432 2071.986779 
L 3129.154432 2071.986779 
L 3098.333523 2071.986779 
z
" clip-path="url(#p575b4af4d0)" style="fill: #0000ff; fill-opacity: 0.5; stroke: #ffffff; stroke-linejoin: miter"/>
   </g>
   <g id="patch_193">
    <path d="M 3129.154432 2071.986779 
L 3159.975341 2071.986779 
L 3159.975341 2071.986779 
L 3129.154432 2071.986779 
z
" clip-path="url(#p575b4af4d0)" style="fill: #0000ff; fill-opacity: 0.5; stroke: #ffffff; stroke-linejoin: miter"/>
   </g>
   <g id="patch_194">
    <path d="M 3159.975341 2071.986779 
L 3190.79625 2071.986779 
L 3190.79625 2071.986779 
L 3159.975341 2071.986779 
z
" clip-path="url(#p575b4af4d0)" style="fill: #0000ff; fill-opacity: 0.5; stroke: #ffffff; stroke-linejoin: miter"/>
   </g>
   <g id="patch_195">
    <path d="M 3190.79625 2071.986779 
L 3221.617159 2071.986779 
L 3221.617159 2071.986779 
L 3190.79625 2071.986779 
z
" clip-path="url(#p575b4af4d0)" style="fill: #0000ff; fill-opacity: 0.5; stroke: #ffffff; stroke-linejoin: miter"/>
   </g>
   <g id="patch_196">
    <path d="M 3221.617159 2071.986779 
L 3252.438068 2071.986779 
L 3252.438068 2071.986779 
L 3221.617159 2071.986779 
z
" clip-path="url(#p575b4af4d0)" style="fill: #0000ff; fill-opacity: 0.5; stroke: #ffffff; stroke-linejoin: miter"/>
   </g>
   <g id="patch_197">
    <path d="M 3252.438068 2071.986779 
L 3283.258977 2071.986779 
L 3283.258977 2071.986779 
L 3252.438068 2071.986779 
z
" clip-path="url(#p575b4af4d0)" style="fill: #0000ff; fill-opacity: 0.5; stroke: #ffffff; stroke-linejoin: miter"/>
   </g>
   <g id="patch_198">
    <path d="M 3283.258977 2071.986779 
L 3314.079886 2071.986779 
L 3314.079886 2071.986779 
L 3283.258977 2071.986779 
z
" clip-path="url(#p575b4af4d0)" style="fill: #0000ff; fill-opacity: 0.5; stroke: #ffffff; stroke-linejoin: miter"/>
   </g>
   <g id="patch_199">
    <path d="M 3314.079886 2071.986779 
L 3344.900795 2071.986779 
L 3344.900795 2071.986779 
L 3314.079886 2071.986779 
z
" clip-path="url(#p575b4af4d0)" style="fill: #0000ff; fill-opacity: 0.5; stroke: #ffffff; stroke-linejoin: miter"/>
   </g>
   <g id="patch_200">
    <path d="M 3344.900795 2071.986779 
L 3375.721705 2071.986779 
L 3375.721705 2071.986779 
L 3344.900795 2071.986779 
z
" clip-path="url(#p575b4af4d0)" style="fill: #0000ff; fill-opacity: 0.5; stroke: #ffffff; stroke-linejoin: miter"/>
   </g>
   <g id="line2d_16">
    <path d="M 593.103318 2071.205445 
L 661.825875 2070.744291 
L 716.803921 2070.190358 
L 771.781967 2069.440104 
L 840.504525 2068.270748 
L 922.971594 2066.841187 
L 964.205128 2066.303358 
L 1005.438663 2065.992223 
L 1046.672197 2065.959672 
L 1087.905732 2066.21647 
L 1129.139266 2066.728759 
L 1184.117312 2067.684145 
L 1294.073404 2069.740423 
L 1349.05145 2070.523229 
L 1404.029496 2071.063815 
L 1459.007542 2071.38673 
L 1527.7301 2071.564962 
L 1623.94168 2071.571621 
L 1788.875818 2071.325098 
L 1885.087399 2070.998943 
L 1940.065445 2070.607955 
L 1981.298979 2070.114295 
L 2022.532514 2069.352914 
L 2050.021537 2068.645724 
L 2077.51056 2067.742241 
L 2104.999583 2066.614763 
L 2132.488606 2065.243748 
L 2159.977629 2063.622858 
L 2187.466652 2061.763848 
L 2214.955675 2059.700404 
L 2256.189209 2056.353994 
L 2311.167255 2051.892878 
L 2338.656278 2049.905748 
L 2366.145301 2048.22792 
L 2393.634324 2046.954166 
L 2407.378836 2046.491945 
L 2421.123347 2046.154708 
L 2434.867859 2045.946186 
L 2448.61237 2045.86785 
L 2462.356882 2045.918903 
L 2476.101393 2046.096321 
L 2489.845905 2046.394976 
L 2517.334928 2047.32604 
L 2544.823951 2048.636701 
L 2572.312974 2050.23325 
L 2613.546508 2052.940565 
L 2668.524554 2056.626699 
L 2696.013577 2058.324518 
L 2723.5026 2059.851865 
L 2750.991623 2061.176359 
L 2778.480646 2062.282152 
L 2805.969669 2063.167397 
L 2833.458692 2063.84148 
L 2860.947715 2064.322469 
L 2888.436738 2064.63497 
L 2929.670273 2064.853129 
L 2984.648319 2064.853428 
L 3067.115388 2064.78837 
L 3108.348922 2064.935353 
L 3149.582457 2065.275779 
L 3190.815991 2065.81441 
L 3245.794037 2066.779515 
L 3328.261106 2068.448856 
L 3328.261106 2068.448856 
" clip-path="url(#p575b4af4d0)" style="fill: none; stroke: #ffa500; stroke-width: 1.5; stroke-linecap: round"/>
   </g>
   <g id="line2d_17">
    <path d="M 293.630795 1607.661014 
L 307.523445 1584.220841 
L 321.416095 1582.98749 
L 335.308745 1589.111263 
L 349.201395 1584.96043 
L 363.094045 1558.648647 
L 376.986695 1510.099062 
L 390.879345 1451.425331 
L 404.771995 1401.503938 
L 418.664645 1377.721921 
L 432.557295 1389.170094 
L 446.449945 1434.335496 
L 460.342595 1503.554498 
L 488.127895 1664.303324 
L 502.020545 1736.894753 
L 515.913195 1798.142051 
L 529.805845 1847.184204 
L 543.698495 1884.686539 
L 557.591145 1912.06481 
L 571.483795 1931.187281 
L 585.376445 1944.285368 
L 599.269095 1953.811711 
L 613.161744 1962.13422 
L 627.054394 1971.125777 
L 640.947044 1981.818457 
L 654.839694 1994.287228 
L 682.624994 2021.29002 
L 696.517644 2033.572741 
L 710.410294 2043.845303 
L 724.302944 2051.700979 
L 738.195594 2057.076492 
L 752.088244 2060.049112 
L 765.980894 2060.580441 
L 779.873544 2058.299197 
L 793.766194 2052.43597 
L 807.658844 2042.027628 
L 821.551494 2026.444323 
L 835.444144 2006.119014 
L 849.336794 1983.130464 
L 863.229444 1961.177895 
L 877.122094 1944.676471 
L 891.014744 1937.197232 
L 904.907394 1939.98011 
L 918.800044 1951.354225 
L 932.692694 1967.441137 
L 946.585343 1983.775631 
L 960.477993 1996.978518 
L 974.370643 2005.685728 
L 988.263293 2010.461954 
L 1002.155943 2012.994549 
L 1016.048593 2015.124812 
L 1029.941243 2018.167046 
L 1043.833893 2022.671294 
L 1057.726543 2028.53155 
L 1071.619193 2035.245062 
L 1085.511843 2042.168575 
L 1099.404493 2048.70407 
L 1113.297143 2054.407701 
L 1127.189793 2059.035115 
L 1141.082443 2062.535311 
L 1154.975093 2065.005415 
L 1168.867743 2066.624637 
L 1182.760393 2067.590066 
L 1196.653043 2068.073605 
L 1210.545693 2068.208149 
L 1224.438343 2068.097284 
L 1293.901592 2066.876561 
L 1335.579542 2066.791064 
L 1349.472192 2066.537723 
L 1363.364842 2066.030719 
L 1377.257492 2065.273545 
L 1405.042792 2063.511648 
L 1418.935442 2062.909996 
L 1432.828092 2062.7209 
L 1446.720742 2062.982886 
L 1460.613392 2063.615083 
L 1516.183992 2067.053197 
L 1530.076642 2067.723084 
L 1543.969292 2068.26692 
L 1557.861942 2068.673178 
L 1571.754592 2068.930254 
L 1585.647242 2069.034733 
L 1613.432541 2068.857722 
L 1724.573741 2067.144201 
L 1752.359041 2066.578651 
L 1766.251691 2066.493256 
L 1780.144341 2066.61361 
L 1794.036991 2066.937068 
L 1821.822291 2067.964973 
L 1849.607591 2069.03222 
L 1877.392891 2069.888513 
L 1905.178191 2070.549296 
L 1932.96349 2070.974515 
L 1960.74879 2071.115069 
L 1988.53409 2070.969104 
L 2016.31939 2070.506843 
L 2071.88999 2069.27022 
L 2085.78264 2069.219332 
L 2099.67529 2069.354707 
L 2127.46059 2070.064743 
L 2155.24589 2070.915918 
L 2183.03119 2071.453438 
L 2210.81649 2071.60121 
L 2280.279739 2071.650034 
L 2349.742989 2071.94462 
L 2405.313589 2071.899383 
L 2433.098889 2071.687404 
L 2460.884189 2071.248418 
L 2502.562139 2070.49343 
L 2516.454789 2070.401842 
L 2530.347439 2070.446313 
L 2558.132739 2070.864165 
L 2585.918039 2071.380614 
L 2613.703338 2071.673249 
L 2641.488638 2071.725755 
L 2683.166588 2071.587519 
L 2766.522488 2071.06315 
L 2919.341638 2071.211415 
L 2961.019587 2071.313087 
L 3030.482837 2071.697879 
L 3058.268137 2071.749798 
L 3058.268137 2071.749798 
" clip-path="url(#p575b4af4d0)" style="fill: none; stroke: #0000ff; stroke-width: 1.5; stroke-linecap: round"/>
   </g>
   <g id="patch_201">
    <path d="M 139.52625 2071.986779 
L 139.52625 40.554375 
" style="fill: none; stroke: #ffffff; stroke-width: 1.25; stroke-linejoin: miter; stroke-linecap: square"/>
   </g>
   <g id="patch_202">
    <path d="M 3529.82625 2071.986779 
L 3529.82625 40.554375 
" style="fill: none; stroke: #ffffff; stroke-width: 1.25; stroke-linejoin: miter; stroke-linecap: square"/>
   </g>
   <g id="patch_203">
    <path d="M 139.52625 2071.986779 
L 3529.82625 2071.986779 
" style="fill: none; stroke: #ffffff; stroke-width: 1.25; stroke-linejoin: miter; stroke-linecap: square"/>
   </g>
   <g id="patch_204">
    <path d="M 139.52625 40.554375 
L 3529.82625 40.554375 
" style="fill: none; stroke: #ffffff; stroke-width: 1.25; stroke-linejoin: miter; stroke-linecap: square"/>
   </g>
   <g id="text_18">
    <!-- active_site_166fg_bi_type_bond3_rf_PF08241_ACS_remove_redundant_11_60_MACCS_no_same_sub_random10_prediction probability distribution -->
    <g style="fill: #262626" transform="translate(523.561875 34.554375)scale(0.36 -0.36)">
     <defs>
      <path id="DejaVuSans-63" d="M 3122 3366 
L 3122 2828 
Q 2878 2963 2633 3030 
Q 2388 3097 2138 3097 
Q 1578 3097 1268 2742 
Q 959 2388 959 1747 
Q 959 1106 1268 751 
Q 1578 397 2138 397 
Q 2388 397 2633 464 
Q 2878 531 3122 666 
L 3122 134 
Q 2881 22 2623 -34 
Q 2366 -91 2075 -91 
Q 1284 -91 818 406 
Q 353 903 353 1747 
Q 353 2603 823 3093 
Q 1294 3584 2113 3584 
Q 2378 3584 2631 3529 
Q 2884 3475 3122 3366 
z
" transform="scale(0.015625)"/>
      <path id="DejaVuSans-76" d="M 191 3500 
L 800 3500 
L 1894 563 
L 2988 3500 
L 3597 3500 
L 2284 0 
L 1503 0 
L 191 3500 
z
" transform="scale(0.015625)"/>
      <path id="DejaVuSans-65" d="M 3597 1894 
L 3597 1613 
L 953 1613 
Q 991 1019 1311 708 
Q 1631 397 2203 397 
Q 2534 397 2845 478 
Q 3156 559 3463 722 
L 3463 178 
Q 3153 47 2828 -22 
Q 2503 -91 2169 -91 
Q 1331 -91 842 396 
Q 353 884 353 1716 
Q 353 2575 817 3079 
Q 1281 3584 2069 3584 
Q 2775 3584 3186 3129 
Q 3597 2675 3597 1894 
z
M 3022 2063 
Q 3016 2534 2758 2815 
Q 2500 3097 2075 3097 
Q 1594 3097 1305 2825 
Q 1016 2553 972 2059 
L 3022 2063 
z
" transform="scale(0.015625)"/>
      <path id="DejaVuSans-5f" d="M 3263 -1063 
L 3263 -1509 
L -63 -1509 
L -63 -1063 
L 3263 -1063 
z
" transform="scale(0.015625)"/>
      <path id="DejaVuSans-73" d="M 2834 3397 
L 2834 2853 
Q 2591 2978 2328 3040 
Q 2066 3103 1784 3103 
Q 1356 3103 1142 2972 
Q 928 2841 928 2578 
Q 928 2378 1081 2264 
Q 1234 2150 1697 2047 
L 1894 2003 
Q 2506 1872 2764 1633 
Q 3022 1394 3022 966 
Q 3022 478 2636 193 
Q 2250 -91 1575 -91 
Q 1294 -91 989 -36 
Q 684 19 347 128 
L 347 722 
Q 666 556 975 473 
Q 1284 391 1588 391 
Q 1994 391 2212 530 
Q 2431 669 2431 922 
Q 2431 1156 2273 1281 
Q 2116 1406 1581 1522 
L 1381 1569 
Q 847 1681 609 1914 
Q 372 2147 372 2553 
Q 372 3047 722 3315 
Q 1072 3584 1716 3584 
Q 2034 3584 2315 3537 
Q 2597 3491 2834 3397 
z
" transform="scale(0.015625)"/>
      <path id="DejaVuSans-66" d="M 2375 4863 
L 2375 4384 
L 1825 4384 
Q 1516 4384 1395 4259 
Q 1275 4134 1275 3809 
L 1275 3500 
L 2222 3500 
L 2222 3053 
L 1275 3053 
L 1275 0 
L 697 0 
L 697 3053 
L 147 3053 
L 147 3500 
L 697 3500 
L 697 3744 
Q 697 4328 969 4595 
Q 1241 4863 1831 4863 
L 2375 4863 
z
" transform="scale(0.015625)"/>
      <path id="DejaVuSans-67" d="M 2906 1791 
Q 2906 2416 2648 2759 
Q 2391 3103 1925 3103 
Q 1463 3103 1205 2759 
Q 947 2416 947 1791 
Q 947 1169 1205 825 
Q 1463 481 1925 481 
Q 2391 481 2648 825 
Q 2906 1169 2906 1791 
z
M 3481 434 
Q 3481 -459 3084 -895 
Q 2688 -1331 1869 -1331 
Q 1566 -1331 1297 -1286 
Q 1028 -1241 775 -1147 
L 775 -588 
Q 1028 -725 1275 -790 
Q 1522 -856 1778 -856 
Q 2344 -856 2625 -561 
Q 2906 -266 2906 331 
L 2906 616 
Q 2728 306 2450 153 
Q 2172 0 1784 0 
Q 1141 0 747 490 
Q 353 981 353 1791 
Q 353 2603 747 3093 
Q 1141 3584 1784 3584 
Q 2172 3584 2450 3431 
Q 2728 3278 2906 2969 
L 2906 3500 
L 3481 3500 
L 3481 434 
z
" transform="scale(0.015625)"/>
      <path id="DejaVuSans-64" d="M 2906 2969 
L 2906 4863 
L 3481 4863 
L 3481 0 
L 2906 0 
L 2906 525 
Q 2725 213 2448 61 
Q 2172 -91 1784 -91 
Q 1150 -91 751 415 
Q 353 922 353 1747 
Q 353 2572 751 3078 
Q 1150 3584 1784 3584 
Q 2172 3584 2448 3432 
Q 2725 3281 2906 2969 
z
M 947 1747 
Q 947 1113 1208 752 
Q 1469 391 1925 391 
Q 2381 391 2643 752 
Q 2906 1113 2906 1747 
Q 2906 2381 2643 2742 
Q 2381 3103 1925 3103 
Q 1469 3103 1208 2742 
Q 947 2381 947 1747 
z
" transform="scale(0.015625)"/>
      <path id="DejaVuSans-33" d="M 2597 2516 
Q 3050 2419 3304 2112 
Q 3559 1806 3559 1356 
Q 3559 666 3084 287 
Q 2609 -91 1734 -91 
Q 1441 -91 1130 -33 
Q 819 25 488 141 
L 488 750 
Q 750 597 1062 519 
Q 1375 441 1716 441 
Q 2309 441 2620 675 
Q 2931 909 2931 1356 
Q 2931 1769 2642 2001 
Q 2353 2234 1838 2234 
L 1294 2234 
L 1294 2753 
L 1863 2753 
Q 2328 2753 2575 2939 
Q 2822 3125 2822 3475 
Q 2822 3834 2567 4026 
Q 2313 4219 1838 4219 
Q 1578 4219 1281 4162 
Q 984 4106 628 3988 
L 628 4550 
Q 988 4650 1302 4700 
Q 1616 4750 1894 4750 
Q 2613 4750 3031 4423 
Q 3450 4097 3450 3541 
Q 3450 3153 3228 2886 
Q 3006 2619 2597 2516 
z
" transform="scale(0.015625)"/>
      <path id="DejaVuSans-50" d="M 1259 4147 
L 1259 2394 
L 2053 2394 
Q 2494 2394 2734 2622 
Q 2975 2850 2975 3272 
Q 2975 3691 2734 3919 
Q 2494 4147 2053 4147 
L 1259 4147 
z
M 628 4666 
L 2053 4666 
Q 2838 4666 3239 4311 
Q 3641 3956 3641 3272 
Q 3641 2581 3239 2228 
Q 2838 1875 2053 1875 
L 1259 1875 
L 1259 0 
L 628 0 
L 628 4666 
z
" transform="scale(0.015625)"/>
      <path id="DejaVuSans-46" d="M 628 4666 
L 3309 4666 
L 3309 4134 
L 1259 4134 
L 1259 2759 
L 3109 2759 
L 3109 2228 
L 1259 2228 
L 1259 0 
L 628 0 
L 628 4666 
z
" transform="scale(0.015625)"/>
      <path id="DejaVuSans-41" d="M 2188 4044 
L 1331 1722 
L 3047 1722 
L 2188 4044 
z
M 1831 4666 
L 2547 4666 
L 4325 0 
L 3669 0 
L 3244 1197 
L 1141 1197 
L 716 0 
L 50 0 
L 1831 4666 
z
" transform="scale(0.015625)"/>
      <path id="DejaVuSans-53" d="M 3425 4513 
L 3425 3897 
Q 3066 4069 2747 4153 
Q 2428 4238 2131 4238 
Q 1616 4238 1336 4038 
Q 1056 3838 1056 3469 
Q 1056 3159 1242 3001 
Q 1428 2844 1947 2747 
L 2328 2669 
Q 3034 2534 3370 2195 
Q 3706 1856 3706 1288 
Q 3706 609 3251 259 
Q 2797 -91 1919 -91 
Q 1588 -91 1214 -16 
Q 841 59 441 206 
L 441 856 
Q 825 641 1194 531 
Q 1563 422 1919 422 
Q 2459 422 2753 634 
Q 3047 847 3047 1241 
Q 3047 1584 2836 1778 
Q 2625 1972 2144 2069 
L 1759 2144 
Q 1053 2284 737 2584 
Q 422 2884 422 3419 
Q 422 4038 858 4394 
Q 1294 4750 2059 4750 
Q 2388 4750 2728 4690 
Q 3069 4631 3425 4513 
z
" transform="scale(0.015625)"/>
      <path id="DejaVuSans-6d" d="M 3328 2828 
Q 3544 3216 3844 3400 
Q 4144 3584 4550 3584 
Q 5097 3584 5394 3201 
Q 5691 2819 5691 2113 
L 5691 0 
L 5113 0 
L 5113 2094 
Q 5113 2597 4934 2840 
Q 4756 3084 4391 3084 
Q 3944 3084 3684 2787 
Q 3425 2491 3425 1978 
L 3425 0 
L 2847 0 
L 2847 2094 
Q 2847 2600 2669 2842 
Q 2491 3084 2119 3084 
Q 1678 3084 1418 2786 
Q 1159 2488 1159 1978 
L 1159 0 
L 581 0 
L 581 3500 
L 1159 3500 
L 1159 2956 
Q 1356 3278 1631 3431 
Q 1906 3584 2284 3584 
Q 2666 3584 2933 3390 
Q 3200 3197 3328 2828 
z
" transform="scale(0.015625)"/>
      <path id="DejaVuSans-4d" d="M 628 4666 
L 1569 4666 
L 2759 1491 
L 3956 4666 
L 4897 4666 
L 4897 0 
L 4281 0 
L 4281 4097 
L 3078 897 
L 2444 897 
L 1241 4097 
L 1241 0 
L 628 0 
L 628 4666 
z
" transform="scale(0.015625)"/>
      <path id="DejaVuSans-20" transform="scale(0.015625)"/>
     </defs>
     <use xlink:href="#DejaVuSans-61"/>
     <use xlink:href="#DejaVuSans-63" x="61.279297"/>
     <use xlink:href="#DejaVuSans-74" x="116.259766"/>
     <use xlink:href="#DejaVuSans-69" x="155.46875"/>
     <use xlink:href="#DejaVuSans-76" x="183.251953"/>
     <use xlink:href="#DejaVuSans-65" x="242.431641"/>
     <use xlink:href="#DejaVuSans-5f" x="303.955078"/>
     <use xlink:href="#DejaVuSans-73" x="353.955078"/>
     <use xlink:href="#DejaVuSans-69" x="406.054688"/>
     <use xlink:href="#DejaVuSans-74" x="433.837891"/>
     <use xlink:href="#DejaVuSans-65" x="473.046875"/>
     <use xlink:href="#DejaVuSans-5f" x="534.570312"/>
     <use xlink:href="#DejaVuSans-31" x="584.570312"/>
     <use xlink:href="#DejaVuSans-36" x="648.193359"/>
     <use xlink:href="#DejaVuSans-36" x="711.816406"/>
     <use xlink:href="#DejaVuSans-66" x="775.439453"/>
     <use xlink:href="#DejaVuSans-67" x="810.644531"/>
     <use xlink:href="#DejaVuSans-5f" x="874.121094"/>
     <use xlink:href="#DejaVuSans-62" x="924.121094"/>
     <use xlink:href="#DejaVuSans-69" x="987.597656"/>
     <use xlink:href="#DejaVuSans-5f" x="1015.380859"/>
     <use xlink:href="#DejaVuSans-74" x="1065.380859"/>
     <use xlink:href="#DejaVuSans-79" x="1104.589844"/>
     <use xlink:href="#DejaVuSans-70" x="1163.769531"/>
     <use xlink:href="#DejaVuSans-65" x="1227.246094"/>
     <use xlink:href="#DejaVuSans-5f" x="1288.769531"/>
     <use xlink:href="#DejaVuSans-62" x="1338.769531"/>
     <use xlink:href="#DejaVuSans-6f" x="1402.246094"/>
     <use xlink:href="#DejaVuSans-6e" x="1463.427734"/>
     <use xlink:href="#DejaVuSans-64" x="1526.806641"/>
     <use xlink:href="#DejaVuSans-33" x="1590.283203"/>
     <use xlink:href="#DejaVuSans-5f" x="1653.90625"/>
     <use xlink:href="#DejaVuSans-72" x="1703.90625"/>
     <use xlink:href="#DejaVuSans-66" x="1745.019531"/>
     <use xlink:href="#DejaVuSans-5f" x="1780.224609"/>
     <use xlink:href="#DejaVuSans-50" x="1830.224609"/>
     <use xlink:href="#DejaVuSans-46" x="1890.527344"/>
     <use xlink:href="#DejaVuSans-30" x="1948.046875"/>
     <use xlink:href="#DejaVuSans-38" x="2011.669922"/>
     <use xlink:href="#DejaVuSans-32" x="2075.292969"/>
     <use xlink:href="#DejaVuSans-34" x="2138.916016"/>
     <use xlink:href="#DejaVuSans-31" x="2202.539062"/>
     <use xlink:href="#DejaVuSans-5f" x="2266.162109"/>
     <use xlink:href="#DejaVuSans-41" x="2316.162109"/>
     <use xlink:href="#DejaVuSans-43" x="2382.820312"/>
     <use xlink:href="#DejaVuSans-53" x="2452.644531"/>
     <use xlink:href="#DejaVuSans-5f" x="2516.121094"/>
     <use xlink:href="#DejaVuSans-72" x="2566.121094"/>
     <use xlink:href="#DejaVuSans-65" x="2604.984375"/>
     <use xlink:href="#DejaVuSans-6d" x="2666.507812"/>
     <use xlink:href="#DejaVuSans-6f" x="2763.919922"/>
     <use xlink:href="#DejaVuSans-76" x="2825.101562"/>
     <use xlink:href="#DejaVuSans-65" x="2884.28125"/>
     <use xlink:href="#DejaVuSans-5f" x="2945.804688"/>
     <use xlink:href="#DejaVuSans-72" x="2995.804688"/>
     <use xlink:href="#DejaVuSans-65" x="3034.667969"/>
     <use xlink:href="#DejaVuSans-64" x="3096.191406"/>
     <use xlink:href="#DejaVuSans-75" x="3159.667969"/>
     <use xlink:href="#DejaVuSans-6e" x="3223.046875"/>
     <use xlink:href="#DejaVuSans-64" x="3286.425781"/>
     <use xlink:href="#DejaVuSans-61" x="3349.902344"/>
     <use xlink:href="#DejaVuSans-6e" x="3411.181641"/>
     <use xlink:href="#DejaVuSans-74" x="3474.560547"/>
     <use xlink:href="#DejaVuSans-5f" x="3513.769531"/>
     <use xlink:href="#DejaVuSans-31" x="3563.769531"/>
     <use xlink:href="#DejaVuSans-31" x="3627.392578"/>
     <use xlink:href="#DejaVuSans-5f" x="3691.015625"/>
     <use xlink:href="#DejaVuSans-36" x="3741.015625"/>
     <use xlink:href="#DejaVuSans-30" x="3804.638672"/>
     <use xlink:href="#DejaVuSans-5f" x="3868.261719"/>
     <use xlink:href="#DejaVuSans-4d" x="3918.261719"/>
     <use xlink:href="#DejaVuSans-41" x="4004.541016"/>
     <use xlink:href="#DejaVuSans-43" x="4071.199219"/>
     <use xlink:href="#DejaVuSans-43" x="4141.023438"/>
     <use xlink:href="#DejaVuSans-53" x="4210.847656"/>
     <use xlink:href="#DejaVuSans-5f" x="4274.324219"/>
     <use xlink:href="#DejaVuSans-6e" x="4324.324219"/>
     <use xlink:href="#DejaVuSans-6f" x="4387.703125"/>
     <use xlink:href="#DejaVuSans-5f" x="4448.884766"/>
     <use xlink:href="#DejaVuSans-73" x="4498.884766"/>
     <use xlink:href="#DejaVuSans-61" x="4550.984375"/>
     <use xlink:href="#DejaVuSans-6d" x="4612.263672"/>
     <use xlink:href="#DejaVuSans-65" x="4709.675781"/>
     <use xlink:href="#DejaVuSans-5f" x="4771.199219"/>
     <use xlink:href="#DejaVuSans-73" x="4821.199219"/>
     <use xlink:href="#DejaVuSans-75" x="4873.298828"/>
     <use xlink:href="#DejaVuSans-62" x="4936.677734"/>
     <use xlink:href="#DejaVuSans-5f" x="5000.154297"/>
     <use xlink:href="#DejaVuSans-72" x="5050.154297"/>
     <use xlink:href="#DejaVuSans-61" x="5091.267578"/>
     <use xlink:href="#DejaVuSans-6e" x="5152.546875"/>
     <use xlink:href="#DejaVuSans-64" x="5215.925781"/>
     <use xlink:href="#DejaVuSans-6f" x="5279.402344"/>
     <use xlink:href="#DejaVuSans-6d" x="5340.583984"/>
     <use xlink:href="#DejaVuSans-31" x="5437.996094"/>
     <use xlink:href="#DejaVuSans-30" x="5501.619141"/>
     <use xlink:href="#DejaVuSans-5f" x="5565.242188"/>
     <use xlink:href="#DejaVuSans-70" x="5615.242188"/>
     <use xlink:href="#DejaVuSans-72" x="5678.71875"/>
     <use xlink:href="#DejaVuSans-65" x="5717.582031"/>
     <use xlink:href="#DejaVuSans-64" x="5779.105469"/>
     <use xlink:href="#DejaVuSans-69" x="5842.582031"/>
     <use xlink:href="#DejaVuSans-63" x="5870.365234"/>
     <use xlink:href="#DejaVuSans-74" x="5925.345703"/>
     <use xlink:href="#DejaVuSans-69" x="5964.554688"/>
     <use xlink:href="#DejaVuSans-6f" x="5992.337891"/>
     <use xlink:href="#DejaVuSans-6e" x="6053.519531"/>
     <use xlink:href="#DejaVuSans-20" x="6116.898438"/>
     <use xlink:href="#DejaVuSans-70" x="6148.685547"/>
     <use xlink:href="#DejaVuSans-72" x="6212.162109"/>
     <use xlink:href="#DejaVuSans-6f" x="6251.025391"/>
     <use xlink:href="#DejaVuSans-62" x="6312.207031"/>
     <use xlink:href="#DejaVuSans-61" x="6375.683594"/>
     <use xlink:href="#DejaVuSans-62" x="6436.962891"/>
     <use xlink:href="#DejaVuSans-69" x="6500.439453"/>
     <use xlink:href="#DejaVuSans-6c" x="6528.222656"/>
     <use xlink:href="#DejaVuSans-69" x="6556.005859"/>
     <use xlink:href="#DejaVuSans-74" x="6583.789062"/>
     <use xlink:href="#DejaVuSans-79" x="6622.998047"/>
     <use xlink:href="#DejaVuSans-20" x="6682.177734"/>
     <use xlink:href="#DejaVuSans-64" x="6713.964844"/>
     <use xlink:href="#DejaVuSans-69" x="6777.441406"/>
     <use xlink:href="#DejaVuSans-73" x="6805.224609"/>
     <use xlink:href="#DejaVuSans-74" x="6857.324219"/>
     <use xlink:href="#DejaVuSans-72" x="6896.533203"/>
     <use xlink:href="#DejaVuSans-69" x="6937.646484"/>
     <use xlink:href="#DejaVuSans-62" x="6965.429688"/>
     <use xlink:href="#DejaVuSans-75" x="7028.90625"/>
     <use xlink:href="#DejaVuSans-74" x="7092.285156"/>
     <use xlink:href="#DejaVuSans-69" x="7131.494141"/>
     <use xlink:href="#DejaVuSans-6f" x="7159.277344"/>
     <use xlink:href="#DejaVuSans-6e" x="7220.458984"/>
    </g>
   </g>
   <g id="legend_1">
    <g id="patch_205">
     <path d="M 3423.899375 109.280625 
L 3524.22625 109.280625 
Q 3525.82625 109.280625 3525.82625 107.680625 
L 3525.82625 46.154375 
Q 3525.82625 44.554375 3524.22625 44.554375 
L 3423.899375 44.554375 
Q 3422.299375 44.554375 3422.299375 46.154375 
L 3422.299375 107.680625 
Q 3422.299375 109.280625 3423.899375 109.280625 
z
" style="fill: #eaeaf2; opacity: 0.8; stroke: #cccccc; stroke-linejoin: miter"/>
    </g>
    <g id="text_19">
     <!-- Label -->
     <g style="fill: #262626" transform="translate(3425.499375 75.10875)scale(0.36 -0.36)">
      <defs>
       <path id="DejaVuSans-4c" d="M 628 4666 
L 1259 4666 
L 1259 531 
L 3531 531 
L 3531 0 
L 628 0 
L 628 4666 
z
" transform="scale(0.015625)"/>
      </defs>
      <use xlink:href="#DejaVuSans-4c"/>
      <use xlink:href="#DejaVuSans-61" x="55.712891"/>
      <use xlink:href="#DejaVuSans-62" x="116.992188"/>
      <use xlink:href="#DejaVuSans-65" x="180.46875"/>
      <use xlink:href="#DejaVuSans-6c" x="241.992188"/>
     </g>
    </g>
    <g id="patch_206">
     <path d="M 3450.643437 92.674375 
L 3466.643437 92.674375 
L 3466.643437 87.074375 
L 3450.643437 87.074375 
z
" style="fill: #ffa500; fill-opacity: 0.5; stroke: #ffffff; stroke-linejoin: miter"/>
    </g>
    <g id="text_20">
     <!-- label1 -->
     <g style="fill: #262626" transform="translate(3473.043437 92.674375)scale(0.08 -0.08)">
      <use xlink:href="#DejaVuSans-6c"/>
      <use xlink:href="#DejaVuSans-61" x="27.783203"/>
      <use xlink:href="#DejaVuSans-62" x="89.0625"/>
      <use xlink:href="#DejaVuSans-65" x="152.539062"/>
      <use xlink:href="#DejaVuSans-6c" x="214.0625"/>
      <use xlink:href="#DejaVuSans-31" x="241.845703"/>
     </g>
    </g>
    <g id="patch_207">
     <path d="M 3450.643437 104.416875 
L 3466.643437 104.416875 
L 3466.643437 98.816875 
L 3450.643437 98.816875 
z
" style="fill: #0000ff; fill-opacity: 0.5; stroke: #ffffff; stroke-linejoin: miter"/>
    </g>
    <g id="text_21">
     <!-- label0 -->
     <g style="fill: #262626" transform="translate(3473.043437 104.416875)scale(0.08 -0.08)">
      <use xlink:href="#DejaVuSans-6c"/>
      <use xlink:href="#DejaVuSans-61" x="27.783203"/>
      <use xlink:href="#DejaVuSans-62" x="89.0625"/>
      <use xlink:href="#DejaVuSans-65" x="152.539062"/>
      <use xlink:href="#DejaVuSans-6c" x="214.0625"/>
      <use xlink:href="#DejaVuSans-30" x="241.845703"/>
     </g>
    </g>
   </g>
  </g>
 </g>
 <defs>
  <clipPath id="p575b4af4d0">
   <rect x="139.52625" y="40.554375" width="3390.3" height="2031.432404"/>
  </clipPath>
 </defs>
</svg>
