<?xml version="1.0" encoding="utf-8" standalone="no"?>
<!DOCTYPE svg PUBLIC "-//W3C//DTD SVG 1.1//EN"
  "http://www.w3.org/Graphics/SVG/1.1/DTD/svg11.dtd">
<svg xmlns:xlink="http://www.w3.org/1999/xlink" width="3537.02625pt" height="2168.373437pt" viewBox="0 0 3537.02625 2168.373437" xmlns="http://www.w3.org/2000/svg" version="1.1">
 <metadata>
  <rdf:RDF xmlns:dc="http://purl.org/dc/elements/1.1/" xmlns:cc="http://creativecommons.org/ns#" xmlns:rdf="http://www.w3.org/1999/02/22-rdf-syntax-ns#">
   <cc:Work>
    <dc:type rdf:resource="http://purl.org/dc/dcmitype/StillImage"/>
    <dc:date>2022-11-25T14:57:01.676428</dc:date>
    <dc:format>image/svg+xml</dc:format>
    <dc:creator>
     <cc:Agent>
      <dc:title>Matplotlib v3.5.2, https://matplotlib.org/</dc:title>
     </cc:Agent>
    </dc:creator>
   </cc:Work>
  </rdf:RDF>
 </metadata>
 <defs>
  <style type="text/css">*{stroke-linejoin: round; stroke-linecap: butt}</style>
 </defs>
 <g id="figure_1">
  <g id="patch_1">
   <path d="M -0 2168.373437 
L 3537.02625 2168.373437 
L 3537.02625 0 
L -0 0 
z
" style="fill: #ffffff"/>
  </g>
  <g id="axes_1">
   <g id="patch_2">
    <path d="M 139.52625 2080.894375 
L 3529.82625 2080.894375 
L 3529.82625 40.554375 
L 139.52625 40.554375 
z
" style="fill: #eaeaf2"/>
   </g>
   <g id="matplotlib.axis_1">
    <g id="xtick_1">
     <g id="line2d_1">
      <path d="M 293.630795 2080.894375 
L 293.630795 40.554375 
" clip-path="url(#pce673dfbd1)" style="fill: none; stroke: #ffffff; stroke-linecap: round"/>
     </g>
     <g id="text_1">
      <!-- 0.0 -->
      <g style="fill: #262626" transform="translate(267.390639 2115.469219)scale(0.33 -0.33)">
       <defs>
        <path id="DejaVuSans-30" d="M 2034 4250 
Q 1547 4250 1301 3770 
Q 1056 3291 1056 2328 
Q 1056 1369 1301 889 
Q 1547 409 2034 409 
Q 2525 409 2770 889 
Q 3016 1369 3016 2328 
Q 3016 3291 2770 3770 
Q 2525 4250 2034 4250 
z
M 2034 4750 
Q 2819 4750 3233 4129 
Q 3647 3509 3647 2328 
Q 3647 1150 3233 529 
Q 2819 -91 2034 -91 
Q 1250 -91 836 529 
Q 422 1150 422 2328 
Q 422 3509 836 4129 
Q 1250 4750 2034 4750 
z
" transform="scale(0.015625)"/>
        <path id="DejaVuSans-2e" d="M 684 794 
L 1344 794 
L 1344 0 
L 684 0 
L 684 794 
z
" transform="scale(0.015625)"/>
       </defs>
       <use xlink:href="#DejaVuSans-30"/>
       <use xlink:href="#DejaVuSans-2e" x="63.623047"/>
       <use xlink:href="#DejaVuSans-30" x="95.410156"/>
      </g>
     </g>
    </g>
    <g id="xtick_2">
     <g id="line2d_2">
      <path d="M 910.048977 2080.894375 
L 910.048977 40.554375 
" clip-path="url(#pce673dfbd1)" style="fill: none; stroke: #ffffff; stroke-linecap: round"/>
     </g>
     <g id="text_2">
      <!-- 0.2 -->
      <g style="fill: #262626" transform="translate(883.808821 2115.469219)scale(0.33 -0.33)">
       <defs>
        <path id="DejaVuSans-32" d="M 1228 531 
L 3431 531 
L 3431 0 
L 469 0 
L 469 531 
Q 828 903 1448 1529 
Q 2069 2156 2228 2338 
Q 2531 2678 2651 2914 
Q 2772 3150 2772 3378 
Q 2772 3750 2511 3984 
Q 2250 4219 1831 4219 
Q 1534 4219 1204 4116 
Q 875 4013 500 3803 
L 500 4441 
Q 881 4594 1212 4672 
Q 1544 4750 1819 4750 
Q 2544 4750 2975 4387 
Q 3406 4025 3406 3419 
Q 3406 3131 3298 2873 
Q 3191 2616 2906 2266 
Q 2828 2175 2409 1742 
Q 1991 1309 1228 531 
z
" transform="scale(0.015625)"/>
       </defs>
       <use xlink:href="#DejaVuSans-30"/>
       <use xlink:href="#DejaVuSans-2e" x="63.623047"/>
       <use xlink:href="#DejaVuSans-32" x="95.410156"/>
      </g>
     </g>
    </g>
    <g id="xtick_3">
     <g id="line2d_3">
      <path d="M 1526.467159 2080.894375 
L 1526.467159 40.554375 
" clip-path="url(#pce673dfbd1)" style="fill: none; stroke: #ffffff; stroke-linecap: round"/>
     </g>
     <g id="text_3">
      <!-- 0.4 -->
      <g style="fill: #262626" transform="translate(1500.227003 2115.469219)scale(0.33 -0.33)">
       <defs>
        <path id="DejaVuSans-34" d="M 2419 4116 
L 825 1625 
L 2419 1625 
L 2419 4116 
z
M 2253 4666 
L 3047 4666 
L 3047 1625 
L 3713 1625 
L 3713 1100 
L 3047 1100 
L 3047 0 
L 2419 0 
L 2419 1100 
L 313 1100 
L 313 1709 
L 2253 4666 
z
" transform="scale(0.015625)"/>
       </defs>
       <use xlink:href="#DejaVuSans-30"/>
       <use xlink:href="#DejaVuSans-2e" x="63.623047"/>
       <use xlink:href="#DejaVuSans-34" x="95.410156"/>
      </g>
     </g>
    </g>
    <g id="xtick_4">
     <g id="line2d_4">
      <path d="M 2142.885341 2080.894375 
L 2142.885341 40.554375 
" clip-path="url(#pce673dfbd1)" style="fill: none; stroke: #ffffff; stroke-linecap: round"/>
     </g>
     <g id="text_4">
      <!-- 0.6 -->
      <g style="fill: #262626" transform="translate(2116.645185 2115.469219)scale(0.33 -0.33)">
       <defs>
        <path id="DejaVuSans-36" d="M 2113 2584 
Q 1688 2584 1439 2293 
Q 1191 2003 1191 1497 
Q 1191 994 1439 701 
Q 1688 409 2113 409 
Q 2538 409 2786 701 
Q 3034 994 3034 1497 
Q 3034 2003 2786 2293 
Q 2538 2584 2113 2584 
z
M 3366 4563 
L 3366 3988 
Q 3128 4100 2886 4159 
Q 2644 4219 2406 4219 
Q 1781 4219 1451 3797 
Q 1122 3375 1075 2522 
Q 1259 2794 1537 2939 
Q 1816 3084 2150 3084 
Q 2853 3084 3261 2657 
Q 3669 2231 3669 1497 
Q 3669 778 3244 343 
Q 2819 -91 2113 -91 
Q 1303 -91 875 529 
Q 447 1150 447 2328 
Q 447 3434 972 4092 
Q 1497 4750 2381 4750 
Q 2619 4750 2861 4703 
Q 3103 4656 3366 4563 
z
" transform="scale(0.015625)"/>
       </defs>
       <use xlink:href="#DejaVuSans-30"/>
       <use xlink:href="#DejaVuSans-2e" x="63.623047"/>
       <use xlink:href="#DejaVuSans-36" x="95.410156"/>
      </g>
     </g>
    </g>
    <g id="xtick_5">
     <g id="line2d_5">
      <path d="M 2759.303523 2080.894375 
L 2759.303523 40.554375 
" clip-path="url(#pce673dfbd1)" style="fill: none; stroke: #ffffff; stroke-linecap: round"/>
     </g>
     <g id="text_5">
      <!-- 0.8 -->
      <g style="fill: #262626" transform="translate(2733.063366 2115.469219)scale(0.33 -0.33)">
       <defs>
        <path id="DejaVuSans-38" d="M 2034 2216 
Q 1584 2216 1326 1975 
Q 1069 1734 1069 1313 
Q 1069 891 1326 650 
Q 1584 409 2034 409 
Q 2484 409 2743 651 
Q 3003 894 3003 1313 
Q 3003 1734 2745 1975 
Q 2488 2216 2034 2216 
z
M 1403 2484 
Q 997 2584 770 2862 
Q 544 3141 544 3541 
Q 544 4100 942 4425 
Q 1341 4750 2034 4750 
Q 2731 4750 3128 4425 
Q 3525 4100 3525 3541 
Q 3525 3141 3298 2862 
Q 3072 2584 2669 2484 
Q 3125 2378 3379 2068 
Q 3634 1759 3634 1313 
Q 3634 634 3220 271 
Q 2806 -91 2034 -91 
Q 1263 -91 848 271 
Q 434 634 434 1313 
Q 434 1759 690 2068 
Q 947 2378 1403 2484 
z
M 1172 3481 
Q 1172 3119 1398 2916 
Q 1625 2713 2034 2713 
Q 2441 2713 2670 2916 
Q 2900 3119 2900 3481 
Q 2900 3844 2670 4047 
Q 2441 4250 2034 4250 
Q 1625 4250 1398 4047 
Q 1172 3844 1172 3481 
z
" transform="scale(0.015625)"/>
       </defs>
       <use xlink:href="#DejaVuSans-30"/>
       <use xlink:href="#DejaVuSans-2e" x="63.623047"/>
       <use xlink:href="#DejaVuSans-38" x="95.410156"/>
      </g>
     </g>
    </g>
    <g id="xtick_6">
     <g id="line2d_6">
      <path d="M 3375.721705 2080.894375 
L 3375.721705 40.554375 
" clip-path="url(#pce673dfbd1)" style="fill: none; stroke: #ffffff; stroke-linecap: round"/>
     </g>
     <g id="text_6">
      <!-- 1.0 -->
      <g style="fill: #262626" transform="translate(3349.481548 2115.469219)scale(0.33 -0.33)">
       <defs>
        <path id="DejaVuSans-31" d="M 794 531 
L 1825 531 
L 1825 4091 
L 703 3866 
L 703 4441 
L 1819 4666 
L 2450 4666 
L 2450 531 
L 3481 531 
L 3481 0 
L 794 0 
L 794 531 
z
" transform="scale(0.015625)"/>
       </defs>
       <use xlink:href="#DejaVuSans-31"/>
       <use xlink:href="#DejaVuSans-2e" x="63.623047"/>
       <use xlink:href="#DejaVuSans-30" x="95.410156"/>
      </g>
     </g>
    </g>
    <g id="text_7">
     <!-- probability -->
     <g style="fill: #262626" transform="translate(1738.643437 2153.686563)scale(0.36 -0.36)">
      <defs>
       <path id="DejaVuSans-70" d="M 1159 525 
L 1159 -1331 
L 581 -1331 
L 581 3500 
L 1159 3500 
L 1159 2969 
Q 1341 3281 1617 3432 
Q 1894 3584 2278 3584 
Q 2916 3584 3314 3078 
Q 3713 2572 3713 1747 
Q 3713 922 3314 415 
Q 2916 -91 2278 -91 
Q 1894 -91 1617 61 
Q 1341 213 1159 525 
z
M 3116 1747 
Q 3116 2381 2855 2742 
Q 2594 3103 2138 3103 
Q 1681 3103 1420 2742 
Q 1159 2381 1159 1747 
Q 1159 1113 1420 752 
Q 1681 391 2138 391 
Q 2594 391 2855 752 
Q 3116 1113 3116 1747 
z
" transform="scale(0.015625)"/>
       <path id="DejaVuSans-72" d="M 2631 2963 
Q 2534 3019 2420 3045 
Q 2306 3072 2169 3072 
Q 1681 3072 1420 2755 
Q 1159 2438 1159 1844 
L 1159 0 
L 581 0 
L 581 3500 
L 1159 3500 
L 1159 2956 
Q 1341 3275 1631 3429 
Q 1922 3584 2338 3584 
Q 2397 3584 2469 3576 
Q 2541 3569 2628 3553 
L 2631 2963 
z
" transform="scale(0.015625)"/>
       <path id="DejaVuSans-6f" d="M 1959 3097 
Q 1497 3097 1228 2736 
Q 959 2375 959 1747 
Q 959 1119 1226 758 
Q 1494 397 1959 397 
Q 2419 397 2687 759 
Q 2956 1122 2956 1747 
Q 2956 2369 2687 2733 
Q 2419 3097 1959 3097 
z
M 1959 3584 
Q 2709 3584 3137 3096 
Q 3566 2609 3566 1747 
Q 3566 888 3137 398 
Q 2709 -91 1959 -91 
Q 1206 -91 779 398 
Q 353 888 353 1747 
Q 353 2609 779 3096 
Q 1206 3584 1959 3584 
z
" transform="scale(0.015625)"/>
       <path id="DejaVuSans-62" d="M 3116 1747 
Q 3116 2381 2855 2742 
Q 2594 3103 2138 3103 
Q 1681 3103 1420 2742 
Q 1159 2381 1159 1747 
Q 1159 1113 1420 752 
Q 1681 391 2138 391 
Q 2594 391 2855 752 
Q 3116 1113 3116 1747 
z
M 1159 2969 
Q 1341 3281 1617 3432 
Q 1894 3584 2278 3584 
Q 2916 3584 3314 3078 
Q 3713 2572 3713 1747 
Q 3713 922 3314 415 
Q 2916 -91 2278 -91 
Q 1894 -91 1617 61 
Q 1341 213 1159 525 
L 1159 0 
L 581 0 
L 581 4863 
L 1159 4863 
L 1159 2969 
z
" transform="scale(0.015625)"/>
       <path id="DejaVuSans-61" d="M 2194 1759 
Q 1497 1759 1228 1600 
Q 959 1441 959 1056 
Q 959 750 1161 570 
Q 1363 391 1709 391 
Q 2188 391 2477 730 
Q 2766 1069 2766 1631 
L 2766 1759 
L 2194 1759 
z
M 3341 1997 
L 3341 0 
L 2766 0 
L 2766 531 
Q 2569 213 2275 61 
Q 1981 -91 1556 -91 
Q 1019 -91 701 211 
Q 384 513 384 1019 
Q 384 1609 779 1909 
Q 1175 2209 1959 2209 
L 2766 2209 
L 2766 2266 
Q 2766 2663 2505 2880 
Q 2244 3097 1772 3097 
Q 1472 3097 1187 3025 
Q 903 2953 641 2809 
L 641 3341 
Q 956 3463 1253 3523 
Q 1550 3584 1831 3584 
Q 2591 3584 2966 3190 
Q 3341 2797 3341 1997 
z
" transform="scale(0.015625)"/>
       <path id="DejaVuSans-69" d="M 603 3500 
L 1178 3500 
L 1178 0 
L 603 0 
L 603 3500 
z
M 603 4863 
L 1178 4863 
L 1178 4134 
L 603 4134 
L 603 4863 
z
" transform="scale(0.015625)"/>
       <path id="DejaVuSans-6c" d="M 603 4863 
L 1178 4863 
L 1178 0 
L 603 0 
L 603 4863 
z
" transform="scale(0.015625)"/>
       <path id="DejaVuSans-74" d="M 1172 4494 
L 1172 3500 
L 2356 3500 
L 2356 3053 
L 1172 3053 
L 1172 1153 
Q 1172 725 1289 603 
Q 1406 481 1766 481 
L 2356 481 
L 2356 0 
L 1766 0 
Q 1100 0 847 248 
Q 594 497 594 1153 
L 594 3053 
L 172 3053 
L 172 3500 
L 594 3500 
L 594 4494 
L 1172 4494 
z
" transform="scale(0.015625)"/>
       <path id="DejaVuSans-79" d="M 2059 -325 
Q 1816 -950 1584 -1140 
Q 1353 -1331 966 -1331 
L 506 -1331 
L 506 -850 
L 844 -850 
Q 1081 -850 1212 -737 
Q 1344 -625 1503 -206 
L 1606 56 
L 191 3500 
L 800 3500 
L 1894 763 
L 2988 3500 
L 3597 3500 
L 2059 -325 
z
" transform="scale(0.015625)"/>
      </defs>
      <use xlink:href="#DejaVuSans-70"/>
      <use xlink:href="#DejaVuSans-72" x="63.476562"/>
      <use xlink:href="#DejaVuSans-6f" x="102.339844"/>
      <use xlink:href="#DejaVuSans-62" x="163.521484"/>
      <use xlink:href="#DejaVuSans-61" x="226.998047"/>
      <use xlink:href="#DejaVuSans-62" x="288.277344"/>
      <use xlink:href="#DejaVuSans-69" x="351.753906"/>
      <use xlink:href="#DejaVuSans-6c" x="379.537109"/>
      <use xlink:href="#DejaVuSans-69" x="407.320312"/>
      <use xlink:href="#DejaVuSans-74" x="435.103516"/>
      <use xlink:href="#DejaVuSans-79" x="474.3125"/>
     </g>
    </g>
   </g>
   <g id="matplotlib.axis_2">
    <g id="ytick_1">
     <g id="line2d_7">
      <path d="M 139.52625 2080.894375 
L 3529.82625 2080.894375 
" clip-path="url(#pce673dfbd1)" style="fill: none; stroke: #ffffff; stroke-linecap: round"/>
     </g>
     <g id="text_8">
      <!-- 0 -->
      <g style="fill: #262626" transform="translate(109.03 2093.431797)scale(0.33 -0.33)">
       <use xlink:href="#DejaVuSans-30"/>
      </g>
     </g>
    </g>
    <g id="ytick_2">
     <g id="line2d_8">
      <path d="M 139.52625 1849.893311 
L 3529.82625 1849.893311 
" clip-path="url(#pce673dfbd1)" style="fill: none; stroke: #ffffff; stroke-linecap: round"/>
     </g>
     <g id="text_9">
      <!-- 250 -->
      <g style="fill: #262626" transform="translate(67.0375 1862.430733)scale(0.33 -0.33)">
       <defs>
        <path id="DejaVuSans-35" d="M 691 4666 
L 3169 4666 
L 3169 4134 
L 1269 4134 
L 1269 2991 
Q 1406 3038 1543 3061 
Q 1681 3084 1819 3084 
Q 2600 3084 3056 2656 
Q 3513 2228 3513 1497 
Q 3513 744 3044 326 
Q 2575 -91 1722 -91 
Q 1428 -91 1123 -41 
Q 819 9 494 109 
L 494 744 
Q 775 591 1075 516 
Q 1375 441 1709 441 
Q 2250 441 2565 725 
Q 2881 1009 2881 1497 
Q 2881 1984 2565 2268 
Q 2250 2553 1709 2553 
Q 1456 2553 1204 2497 
Q 953 2441 691 2322 
L 691 4666 
z
" transform="scale(0.015625)"/>
       </defs>
       <use xlink:href="#DejaVuSans-32"/>
       <use xlink:href="#DejaVuSans-35" x="63.623047"/>
       <use xlink:href="#DejaVuSans-30" x="127.246094"/>
      </g>
     </g>
    </g>
    <g id="ytick_3">
     <g id="line2d_9">
      <path d="M 139.52625 1618.892247 
L 3529.82625 1618.892247 
" clip-path="url(#pce673dfbd1)" style="fill: none; stroke: #ffffff; stroke-linecap: round"/>
     </g>
     <g id="text_10">
      <!-- 500 -->
      <g style="fill: #262626" transform="translate(67.0375 1631.429668)scale(0.33 -0.33)">
       <use xlink:href="#DejaVuSans-35"/>
       <use xlink:href="#DejaVuSans-30" x="63.623047"/>
       <use xlink:href="#DejaVuSans-30" x="127.246094"/>
      </g>
     </g>
    </g>
    <g id="ytick_4">
     <g id="line2d_10">
      <path d="M 139.52625 1387.891182 
L 3529.82625 1387.891182 
" clip-path="url(#pce673dfbd1)" style="fill: none; stroke: #ffffff; stroke-linecap: round"/>
     </g>
     <g id="text_11">
      <!-- 750 -->
      <g style="fill: #262626" transform="translate(67.0375 1400.428604)scale(0.33 -0.33)">
       <defs>
        <path id="DejaVuSans-37" d="M 525 4666 
L 3525 4666 
L 3525 4397 
L 1831 0 
L 1172 0 
L 2766 4134 
L 525 4134 
L 525 4666 
z
" transform="scale(0.015625)"/>
       </defs>
       <use xlink:href="#DejaVuSans-37"/>
       <use xlink:href="#DejaVuSans-35" x="63.623047"/>
       <use xlink:href="#DejaVuSans-30" x="127.246094"/>
      </g>
     </g>
    </g>
    <g id="ytick_5">
     <g id="line2d_11">
      <path d="M 139.52625 1156.890118 
L 3529.82625 1156.890118 
" clip-path="url(#pce673dfbd1)" style="fill: none; stroke: #ffffff; stroke-linecap: round"/>
     </g>
     <g id="text_12">
      <!-- 1000 -->
      <g style="fill: #262626" transform="translate(46.04125 1169.42754)scale(0.33 -0.33)">
       <use xlink:href="#DejaVuSans-31"/>
       <use xlink:href="#DejaVuSans-30" x="63.623047"/>
       <use xlink:href="#DejaVuSans-30" x="127.246094"/>
       <use xlink:href="#DejaVuSans-30" x="190.869141"/>
      </g>
     </g>
    </g>
    <g id="ytick_6">
     <g id="line2d_12">
      <path d="M 139.52625 925.889054 
L 3529.82625 925.889054 
" clip-path="url(#pce673dfbd1)" style="fill: none; stroke: #ffffff; stroke-linecap: round"/>
     </g>
     <g id="text_13">
      <!-- 1250 -->
      <g style="fill: #262626" transform="translate(46.04125 938.426476)scale(0.33 -0.33)">
       <use xlink:href="#DejaVuSans-31"/>
       <use xlink:href="#DejaVuSans-32" x="63.623047"/>
       <use xlink:href="#DejaVuSans-35" x="127.246094"/>
       <use xlink:href="#DejaVuSans-30" x="190.869141"/>
      </g>
     </g>
    </g>
    <g id="ytick_7">
     <g id="line2d_13">
      <path d="M 139.52625 694.88799 
L 3529.82625 694.88799 
" clip-path="url(#pce673dfbd1)" style="fill: none; stroke: #ffffff; stroke-linecap: round"/>
     </g>
     <g id="text_14">
      <!-- 1500 -->
      <g style="fill: #262626" transform="translate(46.04125 707.425411)scale(0.33 -0.33)">
       <use xlink:href="#DejaVuSans-31"/>
       <use xlink:href="#DejaVuSans-35" x="63.623047"/>
       <use xlink:href="#DejaVuSans-30" x="127.246094"/>
       <use xlink:href="#DejaVuSans-30" x="190.869141"/>
      </g>
     </g>
    </g>
    <g id="ytick_8">
     <g id="line2d_14">
      <path d="M 139.52625 463.886925 
L 3529.82625 463.886925 
" clip-path="url(#pce673dfbd1)" style="fill: none; stroke: #ffffff; stroke-linecap: round"/>
     </g>
     <g id="text_15">
      <!-- 1750 -->
      <g style="fill: #262626" transform="translate(46.04125 476.424347)scale(0.33 -0.33)">
       <use xlink:href="#DejaVuSans-31"/>
       <use xlink:href="#DejaVuSans-37" x="63.623047"/>
       <use xlink:href="#DejaVuSans-35" x="127.246094"/>
       <use xlink:href="#DejaVuSans-30" x="190.869141"/>
      </g>
     </g>
    </g>
    <g id="ytick_9">
     <g id="line2d_15">
      <path d="M 139.52625 232.885861 
L 3529.82625 232.885861 
" clip-path="url(#pce673dfbd1)" style="fill: none; stroke: #ffffff; stroke-linecap: round"/>
     </g>
     <g id="text_16">
      <!-- 2000 -->
      <g style="fill: #262626" transform="translate(46.04125 245.423283)scale(0.33 -0.33)">
       <use xlink:href="#DejaVuSans-32"/>
       <use xlink:href="#DejaVuSans-30" x="63.623047"/>
       <use xlink:href="#DejaVuSans-30" x="127.246094"/>
       <use xlink:href="#DejaVuSans-30" x="190.869141"/>
      </g>
     </g>
    </g>
    <g id="text_17">
     <!-- Count -->
     <g style="fill: #262626" transform="translate(34.554375 1114.17875)rotate(-90)scale(0.36 -0.36)">
      <defs>
       <path id="DejaVuSans-43" d="M 4122 4306 
L 4122 3641 
Q 3803 3938 3442 4084 
Q 3081 4231 2675 4231 
Q 1875 4231 1450 3742 
Q 1025 3253 1025 2328 
Q 1025 1406 1450 917 
Q 1875 428 2675 428 
Q 3081 428 3442 575 
Q 3803 722 4122 1019 
L 4122 359 
Q 3791 134 3420 21 
Q 3050 -91 2638 -91 
Q 1578 -91 968 557 
Q 359 1206 359 2328 
Q 359 3453 968 4101 
Q 1578 4750 2638 4750 
Q 3056 4750 3426 4639 
Q 3797 4528 4122 4306 
z
" transform="scale(0.015625)"/>
       <path id="DejaVuSans-75" d="M 544 1381 
L 544 3500 
L 1119 3500 
L 1119 1403 
Q 1119 906 1312 657 
Q 1506 409 1894 409 
Q 2359 409 2629 706 
Q 2900 1003 2900 1516 
L 2900 3500 
L 3475 3500 
L 3475 0 
L 2900 0 
L 2900 538 
Q 2691 219 2414 64 
Q 2138 -91 1772 -91 
Q 1169 -91 856 284 
Q 544 659 544 1381 
z
M 1991 3584 
L 1991 3584 
z
" transform="scale(0.015625)"/>
       <path id="DejaVuSans-6e" d="M 3513 2113 
L 3513 0 
L 2938 0 
L 2938 2094 
Q 2938 2591 2744 2837 
Q 2550 3084 2163 3084 
Q 1697 3084 1428 2787 
Q 1159 2491 1159 1978 
L 1159 0 
L 581 0 
L 581 3500 
L 1159 3500 
L 1159 2956 
Q 1366 3272 1645 3428 
Q 1925 3584 2291 3584 
Q 2894 3584 3203 3211 
Q 3513 2838 3513 2113 
z
" transform="scale(0.015625)"/>
      </defs>
      <use xlink:href="#DejaVuSans-43"/>
      <use xlink:href="#DejaVuSans-6f" x="69.824219"/>
      <use xlink:href="#DejaVuSans-75" x="131.005859"/>
      <use xlink:href="#DejaVuSans-6e" x="194.384766"/>
      <use xlink:href="#DejaVuSans-74" x="257.763672"/>
     </g>
    </g>
   </g>
   <g id="patch_3">
    <path d="M 324.451705 2080.894375 
L 355.272614 2080.894375 
L 355.272614 2080.894375 
L 324.451705 2080.894375 
z
" clip-path="url(#pce673dfbd1)" style="fill: #ffa500; fill-opacity: 0.5; stroke: #ffffff; stroke-linejoin: miter"/>
   </g>
   <g id="patch_4">
    <path d="M 355.272614 2080.894375 
L 386.093523 2080.894375 
L 386.093523 2080.894375 
L 355.272614 2080.894375 
z
" clip-path="url(#pce673dfbd1)" style="fill: #ffa500; fill-opacity: 0.5; stroke: #ffffff; stroke-linejoin: miter"/>
   </g>
   <g id="patch_5">
    <path d="M 386.093523 2080.894375 
L 416.914432 2080.894375 
L 416.914432 2080.894375 
L 386.093523 2080.894375 
z
" clip-path="url(#pce673dfbd1)" style="fill: #ffa500; fill-opacity: 0.5; stroke: #ffffff; stroke-linejoin: miter"/>
   </g>
   <g id="patch_6">
    <path d="M 416.914432 2080.894375 
L 447.735341 2080.894375 
L 447.735341 2080.894375 
L 416.914432 2080.894375 
z
" clip-path="url(#pce673dfbd1)" style="fill: #ffa500; fill-opacity: 0.5; stroke: #ffffff; stroke-linejoin: miter"/>
   </g>
   <g id="patch_7">
    <path d="M 447.735341 2080.894375 
L 478.55625 2080.894375 
L 478.55625 2079.970371 
L 447.735341 2079.970371 
z
" clip-path="url(#pce673dfbd1)" style="fill: #ffa500; fill-opacity: 0.5; stroke: #ffffff; stroke-linejoin: miter"/>
   </g>
   <g id="patch_8">
    <path d="M 478.55625 2080.894375 
L 509.377159 2080.894375 
L 509.377159 2078.122362 
L 478.55625 2078.122362 
z
" clip-path="url(#pce673dfbd1)" style="fill: #ffa500; fill-opacity: 0.5; stroke: #ffffff; stroke-linejoin: miter"/>
   </g>
   <g id="patch_9">
    <path d="M 509.377159 2080.894375 
L 540.198068 2080.894375 
L 540.198068 2080.894375 
L 509.377159 2080.894375 
z
" clip-path="url(#pce673dfbd1)" style="fill: #ffa500; fill-opacity: 0.5; stroke: #ffffff; stroke-linejoin: miter"/>
   </g>
   <g id="patch_10">
    <path d="M 540.198068 2080.894375 
L 571.018977 2080.894375 
L 571.018977 2080.894375 
L 540.198068 2080.894375 
z
" clip-path="url(#pce673dfbd1)" style="fill: #ffa500; fill-opacity: 0.5; stroke: #ffffff; stroke-linejoin: miter"/>
   </g>
   <g id="patch_11">
    <path d="M 571.018977 2080.894375 
L 601.839886 2080.894375 
L 601.839886 2080.894375 
L 571.018977 2080.894375 
z
" clip-path="url(#pce673dfbd1)" style="fill: #ffa500; fill-opacity: 0.5; stroke: #ffffff; stroke-linejoin: miter"/>
   </g>
   <g id="patch_12">
    <path d="M 601.839886 2080.894375 
L 632.660795 2080.894375 
L 632.660795 2080.894375 
L 601.839886 2080.894375 
z
" clip-path="url(#pce673dfbd1)" style="fill: #ffa500; fill-opacity: 0.5; stroke: #ffffff; stroke-linejoin: miter"/>
   </g>
   <g id="patch_13">
    <path d="M 632.660795 2080.894375 
L 663.481705 2080.894375 
L 663.481705 2079.970371 
L 632.660795 2079.970371 
z
" clip-path="url(#pce673dfbd1)" style="fill: #ffa500; fill-opacity: 0.5; stroke: #ffffff; stroke-linejoin: miter"/>
   </g>
   <g id="patch_14">
    <path d="M 663.481705 2080.894375 
L 694.302614 2080.894375 
L 694.302614 2080.894375 
L 663.481705 2080.894375 
z
" clip-path="url(#pce673dfbd1)" style="fill: #ffa500; fill-opacity: 0.5; stroke: #ffffff; stroke-linejoin: miter"/>
   </g>
   <g id="patch_15">
    <path d="M 694.302614 2080.894375 
L 725.123523 2080.894375 
L 725.123523 2080.894375 
L 694.302614 2080.894375 
z
" clip-path="url(#pce673dfbd1)" style="fill: #ffa500; fill-opacity: 0.5; stroke: #ffffff; stroke-linejoin: miter"/>
   </g>
   <g id="patch_16">
    <path d="M 725.123523 2080.894375 
L 755.944432 2080.894375 
L 755.944432 2079.970371 
L 725.123523 2079.970371 
z
" clip-path="url(#pce673dfbd1)" style="fill: #ffa500; fill-opacity: 0.5; stroke: #ffffff; stroke-linejoin: miter"/>
   </g>
   <g id="patch_17">
    <path d="M 755.944432 2080.894375 
L 786.765341 2080.894375 
L 786.765341 2079.970371 
L 755.944432 2079.970371 
z
" clip-path="url(#pce673dfbd1)" style="fill: #ffa500; fill-opacity: 0.5; stroke: #ffffff; stroke-linejoin: miter"/>
   </g>
   <g id="patch_18">
    <path d="M 786.765341 2080.894375 
L 817.58625 2080.894375 
L 817.58625 2080.894375 
L 786.765341 2080.894375 
z
" clip-path="url(#pce673dfbd1)" style="fill: #ffa500; fill-opacity: 0.5; stroke: #ffffff; stroke-linejoin: miter"/>
   </g>
   <g id="patch_19">
    <path d="M 817.58625 2080.894375 
L 848.407159 2080.894375 
L 848.407159 2080.894375 
L 817.58625 2080.894375 
z
" clip-path="url(#pce673dfbd1)" style="fill: #ffa500; fill-opacity: 0.5; stroke: #ffffff; stroke-linejoin: miter"/>
   </g>
   <g id="patch_20">
    <path d="M 848.407159 2080.894375 
L 879.228068 2080.894375 
L 879.228068 2080.894375 
L 848.407159 2080.894375 
z
" clip-path="url(#pce673dfbd1)" style="fill: #ffa500; fill-opacity: 0.5; stroke: #ffffff; stroke-linejoin: miter"/>
   </g>
   <g id="patch_21">
    <path d="M 879.228068 2080.894375 
L 910.048977 2080.894375 
L 910.048977 2080.894375 
L 879.228068 2080.894375 
z
" clip-path="url(#pce673dfbd1)" style="fill: #ffa500; fill-opacity: 0.5; stroke: #ffffff; stroke-linejoin: miter"/>
   </g>
   <g id="patch_22">
    <path d="M 910.048977 2080.894375 
L 940.869886 2080.894375 
L 940.869886 2080.894375 
L 910.048977 2080.894375 
z
" clip-path="url(#pce673dfbd1)" style="fill: #ffa500; fill-opacity: 0.5; stroke: #ffffff; stroke-linejoin: miter"/>
   </g>
   <g id="patch_23">
    <path d="M 940.869886 2080.894375 
L 971.690795 2080.894375 
L 971.690795 2080.894375 
L 940.869886 2080.894375 
z
" clip-path="url(#pce673dfbd1)" style="fill: #ffa500; fill-opacity: 0.5; stroke: #ffffff; stroke-linejoin: miter"/>
   </g>
   <g id="patch_24">
    <path d="M 971.690795 2080.894375 
L 1002.511705 2080.894375 
L 1002.511705 2080.894375 
L 971.690795 2080.894375 
z
" clip-path="url(#pce673dfbd1)" style="fill: #ffa500; fill-opacity: 0.5; stroke: #ffffff; stroke-linejoin: miter"/>
   </g>
   <g id="patch_25">
    <path d="M 1002.511705 2080.894375 
L 1033.332614 2080.894375 
L 1033.332614 2079.970371 
L 1002.511705 2079.970371 
z
" clip-path="url(#pce673dfbd1)" style="fill: #ffa500; fill-opacity: 0.5; stroke: #ffffff; stroke-linejoin: miter"/>
   </g>
   <g id="patch_26">
    <path d="M 1033.332614 2080.894375 
L 1064.153523 2080.894375 
L 1064.153523 2080.894375 
L 1033.332614 2080.894375 
z
" clip-path="url(#pce673dfbd1)" style="fill: #ffa500; fill-opacity: 0.5; stroke: #ffffff; stroke-linejoin: miter"/>
   </g>
   <g id="patch_27">
    <path d="M 1064.153523 2080.894375 
L 1094.974432 2080.894375 
L 1094.974432 2080.894375 
L 1064.153523 2080.894375 
z
" clip-path="url(#pce673dfbd1)" style="fill: #ffa500; fill-opacity: 0.5; stroke: #ffffff; stroke-linejoin: miter"/>
   </g>
   <g id="patch_28">
    <path d="M 1094.974432 2080.894375 
L 1125.795341 2080.894375 
L 1125.795341 2080.894375 
L 1094.974432 2080.894375 
z
" clip-path="url(#pce673dfbd1)" style="fill: #ffa500; fill-opacity: 0.5; stroke: #ffffff; stroke-linejoin: miter"/>
   </g>
   <g id="patch_29">
    <path d="M 1125.795341 2080.894375 
L 1156.61625 2080.894375 
L 1156.61625 2079.970371 
L 1125.795341 2079.970371 
z
" clip-path="url(#pce673dfbd1)" style="fill: #ffa500; fill-opacity: 0.5; stroke: #ffffff; stroke-linejoin: miter"/>
   </g>
   <g id="patch_30">
    <path d="M 1156.61625 2080.894375 
L 1187.437159 2080.894375 
L 1187.437159 2080.894375 
L 1156.61625 2080.894375 
z
" clip-path="url(#pce673dfbd1)" style="fill: #ffa500; fill-opacity: 0.5; stroke: #ffffff; stroke-linejoin: miter"/>
   </g>
   <g id="patch_31">
    <path d="M 1187.437159 2080.894375 
L 1218.258068 2080.894375 
L 1218.258068 2080.894375 
L 1187.437159 2080.894375 
z
" clip-path="url(#pce673dfbd1)" style="fill: #ffa500; fill-opacity: 0.5; stroke: #ffffff; stroke-linejoin: miter"/>
   </g>
   <g id="patch_32">
    <path d="M 1218.258068 2080.894375 
L 1249.078977 2080.894375 
L 1249.078977 2080.894375 
L 1218.258068 2080.894375 
z
" clip-path="url(#pce673dfbd1)" style="fill: #ffa500; fill-opacity: 0.5; stroke: #ffffff; stroke-linejoin: miter"/>
   </g>
   <g id="patch_33">
    <path d="M 1249.078977 2080.894375 
L 1279.899886 2080.894375 
L 1279.899886 2080.894375 
L 1249.078977 2080.894375 
z
" clip-path="url(#pce673dfbd1)" style="fill: #ffa500; fill-opacity: 0.5; stroke: #ffffff; stroke-linejoin: miter"/>
   </g>
   <g id="patch_34">
    <path d="M 1279.899886 2080.894375 
L 1310.720795 2080.894375 
L 1310.720795 2080.894375 
L 1279.899886 2080.894375 
z
" clip-path="url(#pce673dfbd1)" style="fill: #ffa500; fill-opacity: 0.5; stroke: #ffffff; stroke-linejoin: miter"/>
   </g>
   <g id="patch_35">
    <path d="M 1310.720795 2080.894375 
L 1341.541705 2080.894375 
L 1341.541705 2076.274354 
L 1310.720795 2076.274354 
z
" clip-path="url(#pce673dfbd1)" style="fill: #ffa500; fill-opacity: 0.5; stroke: #ffffff; stroke-linejoin: miter"/>
   </g>
   <g id="patch_36">
    <path d="M 1341.541705 2080.894375 
L 1372.362614 2080.894375 
L 1372.362614 2080.894375 
L 1341.541705 2080.894375 
z
" clip-path="url(#pce673dfbd1)" style="fill: #ffa500; fill-opacity: 0.5; stroke: #ffffff; stroke-linejoin: miter"/>
   </g>
   <g id="patch_37">
    <path d="M 1372.362614 2080.894375 
L 1403.183523 2080.894375 
L 1403.183523 2080.894375 
L 1372.362614 2080.894375 
z
" clip-path="url(#pce673dfbd1)" style="fill: #ffa500; fill-opacity: 0.5; stroke: #ffffff; stroke-linejoin: miter"/>
   </g>
   <g id="patch_38">
    <path d="M 1403.183523 2080.894375 
L 1434.004432 2080.894375 
L 1434.004432 2080.894375 
L 1403.183523 2080.894375 
z
" clip-path="url(#pce673dfbd1)" style="fill: #ffa500; fill-opacity: 0.5; stroke: #ffffff; stroke-linejoin: miter"/>
   </g>
   <g id="patch_39">
    <path d="M 1434.004432 2080.894375 
L 1464.825341 2080.894375 
L 1464.825341 2080.894375 
L 1434.004432 2080.894375 
z
" clip-path="url(#pce673dfbd1)" style="fill: #ffa500; fill-opacity: 0.5; stroke: #ffffff; stroke-linejoin: miter"/>
   </g>
   <g id="patch_40">
    <path d="M 1464.825341 2080.894375 
L 1495.64625 2080.894375 
L 1495.64625 2079.046366 
L 1464.825341 2079.046366 
z
" clip-path="url(#pce673dfbd1)" style="fill: #ffa500; fill-opacity: 0.5; stroke: #ffffff; stroke-linejoin: miter"/>
   </g>
   <g id="patch_41">
    <path d="M 1495.64625 2080.894375 
L 1526.467159 2080.894375 
L 1526.467159 2080.894375 
L 1495.64625 2080.894375 
z
" clip-path="url(#pce673dfbd1)" style="fill: #ffa500; fill-opacity: 0.5; stroke: #ffffff; stroke-linejoin: miter"/>
   </g>
   <g id="patch_42">
    <path d="M 1526.467159 2080.894375 
L 1557.288068 2080.894375 
L 1557.288068 2079.970371 
L 1526.467159 2079.970371 
z
" clip-path="url(#pce673dfbd1)" style="fill: #ffa500; fill-opacity: 0.5; stroke: #ffffff; stroke-linejoin: miter"/>
   </g>
   <g id="patch_43">
    <path d="M 1557.288068 2080.894375 
L 1588.108977 2080.894375 
L 1588.108977 2080.894375 
L 1557.288068 2080.894375 
z
" clip-path="url(#pce673dfbd1)" style="fill: #ffa500; fill-opacity: 0.5; stroke: #ffffff; stroke-linejoin: miter"/>
   </g>
   <g id="patch_44">
    <path d="M 1588.108977 2080.894375 
L 1618.929886 2080.894375 
L 1618.929886 2080.894375 
L 1588.108977 2080.894375 
z
" clip-path="url(#pce673dfbd1)" style="fill: #ffa500; fill-opacity: 0.5; stroke: #ffffff; stroke-linejoin: miter"/>
   </g>
   <g id="patch_45">
    <path d="M 1618.929886 2080.894375 
L 1649.750795 2080.894375 
L 1649.750795 2079.970371 
L 1618.929886 2079.970371 
z
" clip-path="url(#pce673dfbd1)" style="fill: #ffa500; fill-opacity: 0.5; stroke: #ffffff; stroke-linejoin: miter"/>
   </g>
   <g id="patch_46">
    <path d="M 1649.750795 2080.894375 
L 1680.571705 2080.894375 
L 1680.571705 2080.894375 
L 1649.750795 2080.894375 
z
" clip-path="url(#pce673dfbd1)" style="fill: #ffa500; fill-opacity: 0.5; stroke: #ffffff; stroke-linejoin: miter"/>
   </g>
   <g id="patch_47">
    <path d="M 1680.571705 2080.894375 
L 1711.392614 2080.894375 
L 1711.392614 2080.894375 
L 1680.571705 2080.894375 
z
" clip-path="url(#pce673dfbd1)" style="fill: #ffa500; fill-opacity: 0.5; stroke: #ffffff; stroke-linejoin: miter"/>
   </g>
   <g id="patch_48">
    <path d="M 1711.392614 2080.894375 
L 1742.213523 2080.894375 
L 1742.213523 2080.894375 
L 1711.392614 2080.894375 
z
" clip-path="url(#pce673dfbd1)" style="fill: #ffa500; fill-opacity: 0.5; stroke: #ffffff; stroke-linejoin: miter"/>
   </g>
   <g id="patch_49">
    <path d="M 1742.213523 2080.894375 
L 1773.034432 2080.894375 
L 1773.034432 2079.970371 
L 1742.213523 2079.970371 
z
" clip-path="url(#pce673dfbd1)" style="fill: #ffa500; fill-opacity: 0.5; stroke: #ffffff; stroke-linejoin: miter"/>
   </g>
   <g id="patch_50">
    <path d="M 1773.034432 2080.894375 
L 1803.855341 2080.894375 
L 1803.855341 2079.970371 
L 1773.034432 2079.970371 
z
" clip-path="url(#pce673dfbd1)" style="fill: #ffa500; fill-opacity: 0.5; stroke: #ffffff; stroke-linejoin: miter"/>
   </g>
   <g id="patch_51">
    <path d="M 1803.855341 2080.894375 
L 1834.67625 2080.894375 
L 1834.67625 2079.970371 
L 1803.855341 2079.970371 
z
" clip-path="url(#pce673dfbd1)" style="fill: #ffa500; fill-opacity: 0.5; stroke: #ffffff; stroke-linejoin: miter"/>
   </g>
   <g id="patch_52">
    <path d="M 1834.67625 2080.894375 
L 1865.497159 2080.894375 
L 1865.497159 2079.046366 
L 1834.67625 2079.046366 
z
" clip-path="url(#pce673dfbd1)" style="fill: #ffa500; fill-opacity: 0.5; stroke: #ffffff; stroke-linejoin: miter"/>
   </g>
   <g id="patch_53">
    <path d="M 1865.497159 2080.894375 
L 1896.318068 2080.894375 
L 1896.318068 2080.894375 
L 1865.497159 2080.894375 
z
" clip-path="url(#pce673dfbd1)" style="fill: #ffa500; fill-opacity: 0.5; stroke: #ffffff; stroke-linejoin: miter"/>
   </g>
   <g id="patch_54">
    <path d="M 1896.318068 2080.894375 
L 1927.138977 2080.894375 
L 1927.138977 2080.894375 
L 1896.318068 2080.894375 
z
" clip-path="url(#pce673dfbd1)" style="fill: #ffa500; fill-opacity: 0.5; stroke: #ffffff; stroke-linejoin: miter"/>
   </g>
   <g id="patch_55">
    <path d="M 1927.138977 2080.894375 
L 1957.959886 2080.894375 
L 1957.959886 2079.970371 
L 1927.138977 2079.970371 
z
" clip-path="url(#pce673dfbd1)" style="fill: #ffa500; fill-opacity: 0.5; stroke: #ffffff; stroke-linejoin: miter"/>
   </g>
   <g id="patch_56">
    <path d="M 1957.959886 2080.894375 
L 1988.780795 2080.894375 
L 1988.780795 2079.970371 
L 1957.959886 2079.970371 
z
" clip-path="url(#pce673dfbd1)" style="fill: #ffa500; fill-opacity: 0.5; stroke: #ffffff; stroke-linejoin: miter"/>
   </g>
   <g id="patch_57">
    <path d="M 1988.780795 2080.894375 
L 2019.601705 2080.894375 
L 2019.601705 2080.894375 
L 1988.780795 2080.894375 
z
" clip-path="url(#pce673dfbd1)" style="fill: #ffa500; fill-opacity: 0.5; stroke: #ffffff; stroke-linejoin: miter"/>
   </g>
   <g id="patch_58">
    <path d="M 2019.601705 2080.894375 
L 2050.422614 2080.894375 
L 2050.422614 2079.970371 
L 2019.601705 2079.970371 
z
" clip-path="url(#pce673dfbd1)" style="fill: #ffa500; fill-opacity: 0.5; stroke: #ffffff; stroke-linejoin: miter"/>
   </g>
   <g id="patch_59">
    <path d="M 2050.422614 2080.894375 
L 2081.243523 2080.894375 
L 2081.243523 2080.894375 
L 2050.422614 2080.894375 
z
" clip-path="url(#pce673dfbd1)" style="fill: #ffa500; fill-opacity: 0.5; stroke: #ffffff; stroke-linejoin: miter"/>
   </g>
   <g id="patch_60">
    <path d="M 2081.243523 2080.894375 
L 2112.064432 2080.894375 
L 2112.064432 2079.970371 
L 2081.243523 2079.970371 
z
" clip-path="url(#pce673dfbd1)" style="fill: #ffa500; fill-opacity: 0.5; stroke: #ffffff; stroke-linejoin: miter"/>
   </g>
   <g id="patch_61">
    <path d="M 2112.064432 2080.894375 
L 2142.885341 2080.894375 
L 2142.885341 2079.046366 
L 2112.064432 2079.046366 
z
" clip-path="url(#pce673dfbd1)" style="fill: #ffa500; fill-opacity: 0.5; stroke: #ffffff; stroke-linejoin: miter"/>
   </g>
   <g id="patch_62">
    <path d="M 2142.885341 2080.894375 
L 2173.70625 2080.894375 
L 2173.70625 2079.046366 
L 2142.885341 2079.046366 
z
" clip-path="url(#pce673dfbd1)" style="fill: #ffa500; fill-opacity: 0.5; stroke: #ffffff; stroke-linejoin: miter"/>
   </g>
   <g id="patch_63">
    <path d="M 2173.70625 2080.894375 
L 2204.527159 2080.894375 
L 2204.527159 2078.122362 
L 2173.70625 2078.122362 
z
" clip-path="url(#pce673dfbd1)" style="fill: #ffa500; fill-opacity: 0.5; stroke: #ffffff; stroke-linejoin: miter"/>
   </g>
   <g id="patch_64">
    <path d="M 2204.527159 2080.894375 
L 2235.348068 2080.894375 
L 2235.348068 2078.122362 
L 2204.527159 2078.122362 
z
" clip-path="url(#pce673dfbd1)" style="fill: #ffa500; fill-opacity: 0.5; stroke: #ffffff; stroke-linejoin: miter"/>
   </g>
   <g id="patch_65">
    <path d="M 2235.348068 2080.894375 
L 2266.168977 2080.894375 
L 2266.168977 2078.122362 
L 2235.348068 2078.122362 
z
" clip-path="url(#pce673dfbd1)" style="fill: #ffa500; fill-opacity: 0.5; stroke: #ffffff; stroke-linejoin: miter"/>
   </g>
   <g id="patch_66">
    <path d="M 2266.168977 2080.894375 
L 2296.989886 2080.894375 
L 2296.989886 2079.970371 
L 2266.168977 2079.970371 
z
" clip-path="url(#pce673dfbd1)" style="fill: #ffa500; fill-opacity: 0.5; stroke: #ffffff; stroke-linejoin: miter"/>
   </g>
   <g id="patch_67">
    <path d="M 2296.989886 2080.894375 
L 2327.810795 2080.894375 
L 2327.810795 2079.046366 
L 2296.989886 2079.046366 
z
" clip-path="url(#pce673dfbd1)" style="fill: #ffa500; fill-opacity: 0.5; stroke: #ffffff; stroke-linejoin: miter"/>
   </g>
   <g id="patch_68">
    <path d="M 2327.810795 2080.894375 
L 2358.631705 2080.894375 
L 2358.631705 2080.894375 
L 2327.810795 2080.894375 
z
" clip-path="url(#pce673dfbd1)" style="fill: #ffa500; fill-opacity: 0.5; stroke: #ffffff; stroke-linejoin: miter"/>
   </g>
   <g id="patch_69">
    <path d="M 2358.631705 2080.894375 
L 2389.452614 2080.894375 
L 2389.452614 2079.970371 
L 2358.631705 2079.970371 
z
" clip-path="url(#pce673dfbd1)" style="fill: #ffa500; fill-opacity: 0.5; stroke: #ffffff; stroke-linejoin: miter"/>
   </g>
   <g id="patch_70">
    <path d="M 2389.452614 2080.894375 
L 2420.273523 2080.894375 
L 2420.273523 2079.970371 
L 2389.452614 2079.970371 
z
" clip-path="url(#pce673dfbd1)" style="fill: #ffa500; fill-opacity: 0.5; stroke: #ffffff; stroke-linejoin: miter"/>
   </g>
   <g id="patch_71">
    <path d="M 2420.273523 2080.894375 
L 2451.094432 2080.894375 
L 2451.094432 2079.046366 
L 2420.273523 2079.046366 
z
" clip-path="url(#pce673dfbd1)" style="fill: #ffa500; fill-opacity: 0.5; stroke: #ffffff; stroke-linejoin: miter"/>
   </g>
   <g id="patch_72">
    <path d="M 2451.094432 2080.894375 
L 2481.915341 2080.894375 
L 2481.915341 2080.894375 
L 2451.094432 2080.894375 
z
" clip-path="url(#pce673dfbd1)" style="fill: #ffa500; fill-opacity: 0.5; stroke: #ffffff; stroke-linejoin: miter"/>
   </g>
   <g id="patch_73">
    <path d="M 2481.915341 2080.894375 
L 2512.73625 2080.894375 
L 2512.73625 2076.274354 
L 2481.915341 2076.274354 
z
" clip-path="url(#pce673dfbd1)" style="fill: #ffa500; fill-opacity: 0.5; stroke: #ffffff; stroke-linejoin: miter"/>
   </g>
   <g id="patch_74">
    <path d="M 2512.73625 2080.894375 
L 2543.557159 2080.894375 
L 2543.557159 2073.502341 
L 2512.73625 2073.502341 
z
" clip-path="url(#pce673dfbd1)" style="fill: #ffa500; fill-opacity: 0.5; stroke: #ffffff; stroke-linejoin: miter"/>
   </g>
   <g id="patch_75">
    <path d="M 2543.557159 2080.894375 
L 2574.378068 2080.894375 
L 2574.378068 2079.046366 
L 2543.557159 2079.046366 
z
" clip-path="url(#pce673dfbd1)" style="fill: #ffa500; fill-opacity: 0.5; stroke: #ffffff; stroke-linejoin: miter"/>
   </g>
   <g id="patch_76">
    <path d="M 2574.378068 2080.894375 
L 2605.198977 2080.894375 
L 2605.198977 2078.122362 
L 2574.378068 2078.122362 
z
" clip-path="url(#pce673dfbd1)" style="fill: #ffa500; fill-opacity: 0.5; stroke: #ffffff; stroke-linejoin: miter"/>
   </g>
   <g id="patch_77">
    <path d="M 2605.198977 2080.894375 
L 2636.019886 2080.894375 
L 2636.019886 2079.046366 
L 2605.198977 2079.046366 
z
" clip-path="url(#pce673dfbd1)" style="fill: #ffa500; fill-opacity: 0.5; stroke: #ffffff; stroke-linejoin: miter"/>
   </g>
   <g id="patch_78">
    <path d="M 2636.019886 2080.894375 
L 2666.840795 2080.894375 
L 2666.840795 2073.502341 
L 2636.019886 2073.502341 
z
" clip-path="url(#pce673dfbd1)" style="fill: #ffa500; fill-opacity: 0.5; stroke: #ffffff; stroke-linejoin: miter"/>
   </g>
   <g id="patch_79">
    <path d="M 2666.840795 2080.894375 
L 2697.661705 2080.894375 
L 2697.661705 2076.274354 
L 2666.840795 2076.274354 
z
" clip-path="url(#pce673dfbd1)" style="fill: #ffa500; fill-opacity: 0.5; stroke: #ffffff; stroke-linejoin: miter"/>
   </g>
   <g id="patch_80">
    <path d="M 2697.661705 2080.894375 
L 2728.482614 2080.894375 
L 2728.482614 2074.426345 
L 2697.661705 2074.426345 
z
" clip-path="url(#pce673dfbd1)" style="fill: #ffa500; fill-opacity: 0.5; stroke: #ffffff; stroke-linejoin: miter"/>
   </g>
   <g id="patch_81">
    <path d="M 2728.482614 2080.894375 
L 2759.303523 2080.894375 
L 2759.303523 2076.274354 
L 2728.482614 2076.274354 
z
" clip-path="url(#pce673dfbd1)" style="fill: #ffa500; fill-opacity: 0.5; stroke: #ffffff; stroke-linejoin: miter"/>
   </g>
   <g id="patch_82">
    <path d="M 2759.303523 2080.894375 
L 2790.124432 2080.894375 
L 2790.124432 2069.806324 
L 2759.303523 2069.806324 
z
" clip-path="url(#pce673dfbd1)" style="fill: #ffa500; fill-opacity: 0.5; stroke: #ffffff; stroke-linejoin: miter"/>
   </g>
   <g id="patch_83">
    <path d="M 2790.124432 2080.894375 
L 2820.945341 2080.894375 
L 2820.945341 2076.274354 
L 2790.124432 2076.274354 
z
" clip-path="url(#pce673dfbd1)" style="fill: #ffa500; fill-opacity: 0.5; stroke: #ffffff; stroke-linejoin: miter"/>
   </g>
   <g id="patch_84">
    <path d="M 2820.945341 2080.894375 
L 2851.76625 2080.894375 
L 2851.76625 2071.654332 
L 2820.945341 2071.654332 
z
" clip-path="url(#pce673dfbd1)" style="fill: #ffa500; fill-opacity: 0.5; stroke: #ffffff; stroke-linejoin: miter"/>
   </g>
   <g id="patch_85">
    <path d="M 2851.76625 2080.894375 
L 2882.587159 2080.894375 
L 2882.587159 2073.502341 
L 2851.76625 2073.502341 
z
" clip-path="url(#pce673dfbd1)" style="fill: #ffa500; fill-opacity: 0.5; stroke: #ffffff; stroke-linejoin: miter"/>
   </g>
   <g id="patch_86">
    <path d="M 2882.587159 2080.894375 
L 2913.408068 2080.894375 
L 2913.408068 2071.654332 
L 2882.587159 2071.654332 
z
" clip-path="url(#pce673dfbd1)" style="fill: #ffa500; fill-opacity: 0.5; stroke: #ffffff; stroke-linejoin: miter"/>
   </g>
   <g id="patch_87">
    <path d="M 2913.408068 2080.894375 
L 2944.228977 2080.894375 
L 2944.228977 2067.958315 
L 2913.408068 2067.958315 
z
" clip-path="url(#pce673dfbd1)" style="fill: #ffa500; fill-opacity: 0.5; stroke: #ffffff; stroke-linejoin: miter"/>
   </g>
   <g id="patch_88">
    <path d="M 2944.228977 2080.894375 
L 2975.049886 2080.894375 
L 2975.049886 2061.490286 
L 2944.228977 2061.490286 
z
" clip-path="url(#pce673dfbd1)" style="fill: #ffa500; fill-opacity: 0.5; stroke: #ffffff; stroke-linejoin: miter"/>
   </g>
   <g id="patch_89">
    <path d="M 2975.049886 2080.894375 
L 3005.870795 2080.894375 
L 3005.870795 2054.098252 
L 2975.049886 2054.098252 
z
" clip-path="url(#pce673dfbd1)" style="fill: #ffa500; fill-opacity: 0.5; stroke: #ffffff; stroke-linejoin: miter"/>
   </g>
   <g id="patch_90">
    <path d="M 3005.870795 2080.894375 
L 3036.691705 2080.894375 
L 3036.691705 2047.630222 
L 3005.870795 2047.630222 
z
" clip-path="url(#pce673dfbd1)" style="fill: #ffa500; fill-opacity: 0.5; stroke: #ffffff; stroke-linejoin: miter"/>
   </g>
   <g id="patch_91">
    <path d="M 3036.691705 2080.894375 
L 3067.512614 2080.894375 
L 3067.512614 2040.238188 
L 3036.691705 2040.238188 
z
" clip-path="url(#pce673dfbd1)" style="fill: #ffa500; fill-opacity: 0.5; stroke: #ffffff; stroke-linejoin: miter"/>
   </g>
   <g id="patch_92">
    <path d="M 3067.512614 2080.894375 
L 3098.333523 2080.894375 
L 3098.333523 1929.357677 
L 3067.512614 1929.357677 
z
" clip-path="url(#pce673dfbd1)" style="fill: #ffa500; fill-opacity: 0.5; stroke: #ffffff; stroke-linejoin: miter"/>
   </g>
   <g id="patch_93">
    <path d="M 3098.333523 2080.894375 
L 3129.154432 2080.894375 
L 3129.154432 1995.885983 
L 3098.333523 1995.885983 
z
" clip-path="url(#pce673dfbd1)" style="fill: #ffa500; fill-opacity: 0.5; stroke: #ffffff; stroke-linejoin: miter"/>
   </g>
   <g id="patch_94">
    <path d="M 3129.154432 2080.894375 
L 3159.975341 2080.894375 
L 3159.975341 1970.937868 
L 3129.154432 1970.937868 
z
" clip-path="url(#pce673dfbd1)" style="fill: #ffa500; fill-opacity: 0.5; stroke: #ffffff; stroke-linejoin: miter"/>
   </g>
   <g id="patch_95">
    <path d="M 3159.975341 2080.894375 
L 3190.79625 2080.894375 
L 3190.79625 2036.542171 
L 3159.975341 2036.542171 
z
" clip-path="url(#pce673dfbd1)" style="fill: #ffa500; fill-opacity: 0.5; stroke: #ffffff; stroke-linejoin: miter"/>
   </g>
   <g id="patch_96">
    <path d="M 3190.79625 2080.894375 
L 3221.617159 2080.894375 
L 3221.617159 1714.988689 
L 3190.79625 1714.988689 
z
" clip-path="url(#pce673dfbd1)" style="fill: #ffa500; fill-opacity: 0.5; stroke: #ffffff; stroke-linejoin: miter"/>
   </g>
   <g id="patch_97">
    <path d="M 3221.617159 2080.894375 
L 3252.438068 2080.894375 
L 3252.438068 1569.920021 
L 3221.617159 1569.920021 
z
" clip-path="url(#pce673dfbd1)" style="fill: #ffa500; fill-opacity: 0.5; stroke: #ffffff; stroke-linejoin: miter"/>
   </g>
   <g id="patch_98">
    <path d="M 3252.438068 2080.894375 
L 3283.258977 2080.894375 
L 3283.258977 1976.481894 
L 3252.438068 1976.481894 
z
" clip-path="url(#pce673dfbd1)" style="fill: #ffa500; fill-opacity: 0.5; stroke: #ffffff; stroke-linejoin: miter"/>
   </g>
   <g id="patch_99">
    <path d="M 3283.258977 2080.894375 
L 3314.079886 2080.894375 
L 3314.079886 1912.7256 
L 3283.258977 1912.7256 
z
" clip-path="url(#pce673dfbd1)" style="fill: #ffa500; fill-opacity: 0.5; stroke: #ffffff; stroke-linejoin: miter"/>
   </g>
   <g id="patch_100">
    <path d="M 3314.079886 2080.894375 
L 3344.900795 2080.894375 
L 3344.900795 1654.928413 
L 3314.079886 1654.928413 
z
" clip-path="url(#pce673dfbd1)" style="fill: #ffa500; fill-opacity: 0.5; stroke: #ffffff; stroke-linejoin: miter"/>
   </g>
   <g id="patch_101">
    <path d="M 3344.900795 2080.894375 
L 3375.721705 2080.894375 
L 3375.721705 1841.577272 
L 3344.900795 1841.577272 
z
" clip-path="url(#pce673dfbd1)" style="fill: #ffa500; fill-opacity: 0.5; stroke: #ffffff; stroke-linejoin: miter"/>
   </g>
   <g id="patch_102">
    <path d="M 324.451705 2080.894375 
L 355.272614 2080.894375 
L 355.272614 137.713423 
L 324.451705 137.713423 
z
" clip-path="url(#pce673dfbd1)" style="fill: #0000ff; fill-opacity: 0.5; stroke: #ffffff; stroke-linejoin: miter"/>
   </g>
   <g id="patch_103">
    <path d="M 355.272614 2080.894375 
L 386.093523 2080.894375 
L 386.093523 1385.11917 
L 355.272614 1385.11917 
z
" clip-path="url(#pce673dfbd1)" style="fill: #0000ff; fill-opacity: 0.5; stroke: #ffffff; stroke-linejoin: miter"/>
   </g>
   <g id="patch_104">
    <path d="M 386.093523 2080.894375 
L 416.914432 2080.894375 
L 416.914432 1687.268562 
L 386.093523 1687.268562 
z
" clip-path="url(#pce673dfbd1)" style="fill: #0000ff; fill-opacity: 0.5; stroke: #ffffff; stroke-linejoin: miter"/>
   </g>
   <g id="patch_105">
    <path d="M 416.914432 2080.894375 
L 447.735341 2080.894375 
L 447.735341 1667.864472 
L 416.914432 1667.864472 
z
" clip-path="url(#pce673dfbd1)" style="fill: #0000ff; fill-opacity: 0.5; stroke: #ffffff; stroke-linejoin: miter"/>
   </g>
   <g id="patch_106">
    <path d="M 447.735341 2080.894375 
L 478.55625 2080.894375 
L 478.55625 1860.057358 
L 447.735341 1860.057358 
z
" clip-path="url(#pce673dfbd1)" style="fill: #0000ff; fill-opacity: 0.5; stroke: #ffffff; stroke-linejoin: miter"/>
   </g>
   <g id="patch_107">
    <path d="M 478.55625 2080.894375 
L 509.377159 2080.894375 
L 509.377159 1775.048966 
L 478.55625 1775.048966 
z
" clip-path="url(#pce673dfbd1)" style="fill: #0000ff; fill-opacity: 0.5; stroke: #ffffff; stroke-linejoin: miter"/>
   </g>
   <g id="patch_108">
    <path d="M 509.377159 2080.894375 
L 540.198068 2080.894375 
L 540.198068 1860.981362 
L 509.377159 1860.981362 
z
" clip-path="url(#pce673dfbd1)" style="fill: #0000ff; fill-opacity: 0.5; stroke: #ffffff; stroke-linejoin: miter"/>
   </g>
   <g id="patch_109">
    <path d="M 540.198068 2080.894375 
L 571.018977 2080.894375 
L 571.018977 1867.449392 
L 540.198068 1867.449392 
z
" clip-path="url(#pce673dfbd1)" style="fill: #0000ff; fill-opacity: 0.5; stroke: #ffffff; stroke-linejoin: miter"/>
   </g>
   <g id="patch_110">
    <path d="M 571.018977 2080.894375 
L 601.839886 2080.894375 
L 601.839886 1860.981362 
L 571.018977 1860.981362 
z
" clip-path="url(#pce673dfbd1)" style="fill: #0000ff; fill-opacity: 0.5; stroke: #ffffff; stroke-linejoin: miter"/>
   </g>
   <g id="patch_111">
    <path d="M 601.839886 2080.894375 
L 632.660795 2080.894375 
L 632.660795 1909.953587 
L 601.839886 1909.953587 
z
" clip-path="url(#pce673dfbd1)" style="fill: #0000ff; fill-opacity: 0.5; stroke: #ffffff; stroke-linejoin: miter"/>
   </g>
   <g id="patch_112">
    <path d="M 632.660795 2080.894375 
L 663.481705 2080.894375 
L 663.481705 1981.101915 
L 632.660795 1981.101915 
z
" clip-path="url(#pce673dfbd1)" style="fill: #0000ff; fill-opacity: 0.5; stroke: #ffffff; stroke-linejoin: miter"/>
   </g>
   <g id="patch_113">
    <path d="M 663.481705 2080.894375 
L 694.302614 2080.894375 
L 694.302614 1989.417954 
L 663.481705 1989.417954 
z
" clip-path="url(#pce673dfbd1)" style="fill: #0000ff; fill-opacity: 0.5; stroke: #ffffff; stroke-linejoin: miter"/>
   </g>
   <g id="patch_114">
    <path d="M 694.302614 2080.894375 
L 725.123523 2080.894375 
L 725.123523 1989.417954 
L 694.302614 1989.417954 
z
" clip-path="url(#pce673dfbd1)" style="fill: #0000ff; fill-opacity: 0.5; stroke: #ffffff; stroke-linejoin: miter"/>
   </g>
   <g id="patch_115">
    <path d="M 725.123523 2080.894375 
L 755.944432 2080.894375 
L 755.944432 2012.51806 
L 725.123523 2012.51806 
z
" clip-path="url(#pce673dfbd1)" style="fill: #0000ff; fill-opacity: 0.5; stroke: #ffffff; stroke-linejoin: miter"/>
   </g>
   <g id="patch_116">
    <path d="M 755.944432 2080.894375 
L 786.765341 2080.894375 
L 786.765341 2004.202022 
L 755.944432 2004.202022 
z
" clip-path="url(#pce673dfbd1)" style="fill: #0000ff; fill-opacity: 0.5; stroke: #ffffff; stroke-linejoin: miter"/>
   </g>
   <g id="patch_117">
    <path d="M 786.765341 2080.894375 
L 817.58625 2080.894375 
L 817.58625 2021.758103 
L 786.765341 2021.758103 
z
" clip-path="url(#pce673dfbd1)" style="fill: #0000ff; fill-opacity: 0.5; stroke: #ffffff; stroke-linejoin: miter"/>
   </g>
   <g id="patch_118">
    <path d="M 817.58625 2080.894375 
L 848.407159 2080.894375 
L 848.407159 2010.670051 
L 817.58625 2010.670051 
z
" clip-path="url(#pce673dfbd1)" style="fill: #0000ff; fill-opacity: 0.5; stroke: #ffffff; stroke-linejoin: miter"/>
   </g>
   <g id="patch_119">
    <path d="M 848.407159 2080.894375 
L 879.228068 2080.894375 
L 879.228068 2042.086196 
L 848.407159 2042.086196 
z
" clip-path="url(#pce673dfbd1)" style="fill: #0000ff; fill-opacity: 0.5; stroke: #ffffff; stroke-linejoin: miter"/>
   </g>
   <g id="patch_120">
    <path d="M 879.228068 2080.894375 
L 910.048977 2080.894375 
L 910.048977 2049.47823 
L 879.228068 2049.47823 
z
" clip-path="url(#pce673dfbd1)" style="fill: #0000ff; fill-opacity: 0.5; stroke: #ffffff; stroke-linejoin: miter"/>
   </g>
   <g id="patch_121">
    <path d="M 910.048977 2080.894375 
L 940.869886 2080.894375 
L 940.869886 2024.530115 
L 910.048977 2024.530115 
z
" clip-path="url(#pce673dfbd1)" style="fill: #0000ff; fill-opacity: 0.5; stroke: #ffffff; stroke-linejoin: miter"/>
   </g>
   <g id="patch_122">
    <path d="M 940.869886 2080.894375 
L 971.690795 2080.894375 
L 971.690795 2050.402235 
L 940.869886 2050.402235 
z
" clip-path="url(#pce673dfbd1)" style="fill: #0000ff; fill-opacity: 0.5; stroke: #ffffff; stroke-linejoin: miter"/>
   </g>
   <g id="patch_123">
    <path d="M 971.690795 2080.894375 
L 1002.511705 2080.894375 
L 1002.511705 2051.326239 
L 971.690795 2051.326239 
z
" clip-path="url(#pce673dfbd1)" style="fill: #0000ff; fill-opacity: 0.5; stroke: #ffffff; stroke-linejoin: miter"/>
   </g>
   <g id="patch_124">
    <path d="M 1002.511705 2080.894375 
L 1033.332614 2080.894375 
L 1033.332614 2047.630222 
L 1002.511705 2047.630222 
z
" clip-path="url(#pce673dfbd1)" style="fill: #0000ff; fill-opacity: 0.5; stroke: #ffffff; stroke-linejoin: miter"/>
   </g>
   <g id="patch_125">
    <path d="M 1033.332614 2080.894375 
L 1064.153523 2080.894375 
L 1064.153523 2062.41429 
L 1033.332614 2062.41429 
z
" clip-path="url(#pce673dfbd1)" style="fill: #0000ff; fill-opacity: 0.5; stroke: #ffffff; stroke-linejoin: miter"/>
   </g>
   <g id="patch_126">
    <path d="M 1064.153523 2080.894375 
L 1094.974432 2080.894375 
L 1094.974432 2055.022256 
L 1064.153523 2055.022256 
z
" clip-path="url(#pce673dfbd1)" style="fill: #0000ff; fill-opacity: 0.5; stroke: #ffffff; stroke-linejoin: miter"/>
   </g>
   <g id="patch_127">
    <path d="M 1094.974432 2080.894375 
L 1125.795341 2080.894375 
L 1125.795341 2038.390179 
L 1094.974432 2038.390179 
z
" clip-path="url(#pce673dfbd1)" style="fill: #0000ff; fill-opacity: 0.5; stroke: #ffffff; stroke-linejoin: miter"/>
   </g>
   <g id="patch_128">
    <path d="M 1125.795341 2080.894375 
L 1156.61625 2080.894375 
L 1156.61625 1997.733992 
L 1125.795341 1997.733992 
z
" clip-path="url(#pce673dfbd1)" style="fill: #0000ff; fill-opacity: 0.5; stroke: #ffffff; stroke-linejoin: miter"/>
   </g>
   <g id="patch_129">
    <path d="M 1156.61625 2080.894375 
L 1187.437159 2080.894375 
L 1187.437159 2032.846154 
L 1156.61625 2032.846154 
z
" clip-path="url(#pce673dfbd1)" style="fill: #0000ff; fill-opacity: 0.5; stroke: #ffffff; stroke-linejoin: miter"/>
   </g>
   <g id="patch_130">
    <path d="M 1187.437159 2080.894375 
L 1218.258068 2080.894375 
L 1218.258068 2057.794269 
L 1187.437159 2057.794269 
z
" clip-path="url(#pce673dfbd1)" style="fill: #0000ff; fill-opacity: 0.5; stroke: #ffffff; stroke-linejoin: miter"/>
   </g>
   <g id="patch_131">
    <path d="M 1218.258068 2080.894375 
L 1249.078977 2080.894375 
L 1249.078977 2072.578337 
L 1218.258068 2072.578337 
z
" clip-path="url(#pce673dfbd1)" style="fill: #0000ff; fill-opacity: 0.5; stroke: #ffffff; stroke-linejoin: miter"/>
   </g>
   <g id="patch_132">
    <path d="M 1249.078977 2080.894375 
L 1279.899886 2080.894375 
L 1279.899886 2067.958315 
L 1249.078977 2067.958315 
z
" clip-path="url(#pce673dfbd1)" style="fill: #0000ff; fill-opacity: 0.5; stroke: #ffffff; stroke-linejoin: miter"/>
   </g>
   <g id="patch_133">
    <path d="M 1279.899886 2080.894375 
L 1310.720795 2080.894375 
L 1310.720795 2055.94626 
L 1279.899886 2055.94626 
z
" clip-path="url(#pce673dfbd1)" style="fill: #0000ff; fill-opacity: 0.5; stroke: #ffffff; stroke-linejoin: miter"/>
   </g>
   <g id="patch_134">
    <path d="M 1310.720795 2080.894375 
L 1341.541705 2080.894375 
L 1341.541705 2066.110307 
L 1310.720795 2066.110307 
z
" clip-path="url(#pce673dfbd1)" style="fill: #0000ff; fill-opacity: 0.5; stroke: #ffffff; stroke-linejoin: miter"/>
   </g>
   <g id="patch_135">
    <path d="M 1341.541705 2080.894375 
L 1372.362614 2080.894375 
L 1372.362614 2057.794269 
L 1341.541705 2057.794269 
z
" clip-path="url(#pce673dfbd1)" style="fill: #0000ff; fill-opacity: 0.5; stroke: #ffffff; stroke-linejoin: miter"/>
   </g>
   <g id="patch_136">
    <path d="M 1372.362614 2080.894375 
L 1403.183523 2080.894375 
L 1403.183523 2069.806324 
L 1372.362614 2069.806324 
z
" clip-path="url(#pce673dfbd1)" style="fill: #0000ff; fill-opacity: 0.5; stroke: #ffffff; stroke-linejoin: miter"/>
   </g>
   <g id="patch_137">
    <path d="M 1403.183523 2080.894375 
L 1434.004432 2080.894375 
L 1434.004432 2065.186303 
L 1403.183523 2065.186303 
z
" clip-path="url(#pce673dfbd1)" style="fill: #0000ff; fill-opacity: 0.5; stroke: #ffffff; stroke-linejoin: miter"/>
   </g>
   <g id="patch_138">
    <path d="M 1434.004432 2080.894375 
L 1464.825341 2080.894375 
L 1464.825341 2067.034311 
L 1434.004432 2067.034311 
z
" clip-path="url(#pce673dfbd1)" style="fill: #0000ff; fill-opacity: 0.5; stroke: #ffffff; stroke-linejoin: miter"/>
   </g>
   <g id="patch_139">
    <path d="M 1464.825341 2080.894375 
L 1495.64625 2080.894375 
L 1495.64625 2051.326239 
L 1464.825341 2051.326239 
z
" clip-path="url(#pce673dfbd1)" style="fill: #0000ff; fill-opacity: 0.5; stroke: #ffffff; stroke-linejoin: miter"/>
   </g>
   <g id="patch_140">
    <path d="M 1495.64625 2080.894375 
L 1526.467159 2080.894375 
L 1526.467159 2058.718273 
L 1495.64625 2058.718273 
z
" clip-path="url(#pce673dfbd1)" style="fill: #0000ff; fill-opacity: 0.5; stroke: #ffffff; stroke-linejoin: miter"/>
   </g>
   <g id="patch_141">
    <path d="M 1526.467159 2080.894375 
L 1557.288068 2080.894375 
L 1557.288068 2056.870264 
L 1526.467159 2056.870264 
z
" clip-path="url(#pce673dfbd1)" style="fill: #0000ff; fill-opacity: 0.5; stroke: #ffffff; stroke-linejoin: miter"/>
   </g>
   <g id="patch_142">
    <path d="M 1557.288068 2080.894375 
L 1588.108977 2080.894375 
L 1588.108977 2054.098252 
L 1557.288068 2054.098252 
z
" clip-path="url(#pce673dfbd1)" style="fill: #0000ff; fill-opacity: 0.5; stroke: #ffffff; stroke-linejoin: miter"/>
   </g>
   <g id="patch_143">
    <path d="M 1588.108977 2080.894375 
L 1618.929886 2080.894375 
L 1618.929886 2053.174247 
L 1588.108977 2053.174247 
z
" clip-path="url(#pce673dfbd1)" style="fill: #0000ff; fill-opacity: 0.5; stroke: #ffffff; stroke-linejoin: miter"/>
   </g>
   <g id="patch_144">
    <path d="M 1618.929886 2080.894375 
L 1649.750795 2080.894375 
L 1649.750795 2057.794269 
L 1618.929886 2057.794269 
z
" clip-path="url(#pce673dfbd1)" style="fill: #0000ff; fill-opacity: 0.5; stroke: #ffffff; stroke-linejoin: miter"/>
   </g>
   <g id="patch_145">
    <path d="M 1649.750795 2080.894375 
L 1680.571705 2080.894375 
L 1680.571705 2055.022256 
L 1649.750795 2055.022256 
z
" clip-path="url(#pce673dfbd1)" style="fill: #0000ff; fill-opacity: 0.5; stroke: #ffffff; stroke-linejoin: miter"/>
   </g>
   <g id="patch_146">
    <path d="M 1680.571705 2080.894375 
L 1711.392614 2080.894375 
L 1711.392614 2062.41429 
L 1680.571705 2062.41429 
z
" clip-path="url(#pce673dfbd1)" style="fill: #0000ff; fill-opacity: 0.5; stroke: #ffffff; stroke-linejoin: miter"/>
   </g>
   <g id="patch_147">
    <path d="M 1711.392614 2080.894375 
L 1742.213523 2080.894375 
L 1742.213523 2063.338294 
L 1711.392614 2063.338294 
z
" clip-path="url(#pce673dfbd1)" style="fill: #0000ff; fill-opacity: 0.5; stroke: #ffffff; stroke-linejoin: miter"/>
   </g>
   <g id="patch_148">
    <path d="M 1742.213523 2080.894375 
L 1773.034432 2080.894375 
L 1773.034432 2050.402235 
L 1742.213523 2050.402235 
z
" clip-path="url(#pce673dfbd1)" style="fill: #0000ff; fill-opacity: 0.5; stroke: #ffffff; stroke-linejoin: miter"/>
   </g>
   <g id="patch_149">
    <path d="M 1773.034432 2080.894375 
L 1803.855341 2080.894375 
L 1803.855341 2060.566281 
L 1773.034432 2060.566281 
z
" clip-path="url(#pce673dfbd1)" style="fill: #0000ff; fill-opacity: 0.5; stroke: #ffffff; stroke-linejoin: miter"/>
   </g>
   <g id="patch_150">
    <path d="M 1803.855341 2080.894375 
L 1834.67625 2080.894375 
L 1834.67625 2064.262298 
L 1803.855341 2064.262298 
z
" clip-path="url(#pce673dfbd1)" style="fill: #0000ff; fill-opacity: 0.5; stroke: #ffffff; stroke-linejoin: miter"/>
   </g>
   <g id="patch_151">
    <path d="M 1834.67625 2080.894375 
L 1865.497159 2080.894375 
L 1865.497159 2070.730328 
L 1834.67625 2070.730328 
z
" clip-path="url(#pce673dfbd1)" style="fill: #0000ff; fill-opacity: 0.5; stroke: #ffffff; stroke-linejoin: miter"/>
   </g>
   <g id="patch_152">
    <path d="M 1865.497159 2080.894375 
L 1896.318068 2080.894375 
L 1896.318068 2063.338294 
L 1865.497159 2063.338294 
z
" clip-path="url(#pce673dfbd1)" style="fill: #0000ff; fill-opacity: 0.5; stroke: #ffffff; stroke-linejoin: miter"/>
   </g>
   <g id="patch_153">
    <path d="M 1896.318068 2080.894375 
L 1927.138977 2080.894375 
L 1927.138977 2058.718273 
L 1896.318068 2058.718273 
z
" clip-path="url(#pce673dfbd1)" style="fill: #0000ff; fill-opacity: 0.5; stroke: #ffffff; stroke-linejoin: miter"/>
   </g>
   <g id="patch_154">
    <path d="M 1927.138977 2080.894375 
L 1957.959886 2080.894375 
L 1957.959886 2075.350349 
L 1927.138977 2075.350349 
z
" clip-path="url(#pce673dfbd1)" style="fill: #0000ff; fill-opacity: 0.5; stroke: #ffffff; stroke-linejoin: miter"/>
   </g>
   <g id="patch_155">
    <path d="M 1957.959886 2080.894375 
L 1988.780795 2080.894375 
L 1988.780795 2066.110307 
L 1957.959886 2066.110307 
z
" clip-path="url(#pce673dfbd1)" style="fill: #0000ff; fill-opacity: 0.5; stroke: #ffffff; stroke-linejoin: miter"/>
   </g>
   <g id="patch_156">
    <path d="M 1988.780795 2080.894375 
L 2019.601705 2080.894375 
L 2019.601705 2063.338294 
L 1988.780795 2063.338294 
z
" clip-path="url(#pce673dfbd1)" style="fill: #0000ff; fill-opacity: 0.5; stroke: #ffffff; stroke-linejoin: miter"/>
   </g>
   <g id="patch_157">
    <path d="M 2019.601705 2080.894375 
L 2050.422614 2080.894375 
L 2050.422614 2074.426345 
L 2019.601705 2074.426345 
z
" clip-path="url(#pce673dfbd1)" style="fill: #0000ff; fill-opacity: 0.5; stroke: #ffffff; stroke-linejoin: miter"/>
   </g>
   <g id="patch_158">
    <path d="M 2050.422614 2080.894375 
L 2081.243523 2080.894375 
L 2081.243523 2067.958315 
L 2050.422614 2067.958315 
z
" clip-path="url(#pce673dfbd1)" style="fill: #0000ff; fill-opacity: 0.5; stroke: #ffffff; stroke-linejoin: miter"/>
   </g>
   <g id="patch_159">
    <path d="M 2081.243523 2080.894375 
L 2112.064432 2080.894375 
L 2112.064432 2065.186303 
L 2081.243523 2065.186303 
z
" clip-path="url(#pce673dfbd1)" style="fill: #0000ff; fill-opacity: 0.5; stroke: #ffffff; stroke-linejoin: miter"/>
   </g>
   <g id="patch_160">
    <path d="M 2112.064432 2080.894375 
L 2142.885341 2080.894375 
L 2142.885341 2070.730328 
L 2112.064432 2070.730328 
z
" clip-path="url(#pce673dfbd1)" style="fill: #0000ff; fill-opacity: 0.5; stroke: #ffffff; stroke-linejoin: miter"/>
   </g>
   <g id="patch_161">
    <path d="M 2142.885341 2080.894375 
L 2173.70625 2080.894375 
L 2173.70625 2075.350349 
L 2142.885341 2075.350349 
z
" clip-path="url(#pce673dfbd1)" style="fill: #0000ff; fill-opacity: 0.5; stroke: #ffffff; stroke-linejoin: miter"/>
   </g>
   <g id="patch_162">
    <path d="M 2173.70625 2080.894375 
L 2204.527159 2080.894375 
L 2204.527159 2071.654332 
L 2173.70625 2071.654332 
z
" clip-path="url(#pce673dfbd1)" style="fill: #0000ff; fill-opacity: 0.5; stroke: #ffffff; stroke-linejoin: miter"/>
   </g>
   <g id="patch_163">
    <path d="M 2204.527159 2080.894375 
L 2235.348068 2080.894375 
L 2235.348068 2069.806324 
L 2204.527159 2069.806324 
z
" clip-path="url(#pce673dfbd1)" style="fill: #0000ff; fill-opacity: 0.5; stroke: #ffffff; stroke-linejoin: miter"/>
   </g>
   <g id="patch_164">
    <path d="M 2235.348068 2080.894375 
L 2266.168977 2080.894375 
L 2266.168977 2071.654332 
L 2235.348068 2071.654332 
z
" clip-path="url(#pce673dfbd1)" style="fill: #0000ff; fill-opacity: 0.5; stroke: #ffffff; stroke-linejoin: miter"/>
   </g>
   <g id="patch_165">
    <path d="M 2266.168977 2080.894375 
L 2296.989886 2080.894375 
L 2296.989886 2066.110307 
L 2266.168977 2066.110307 
z
" clip-path="url(#pce673dfbd1)" style="fill: #0000ff; fill-opacity: 0.5; stroke: #ffffff; stroke-linejoin: miter"/>
   </g>
   <g id="patch_166">
    <path d="M 2296.989886 2080.894375 
L 2327.810795 2080.894375 
L 2327.810795 2030.998145 
L 2296.989886 2030.998145 
z
" clip-path="url(#pce673dfbd1)" style="fill: #0000ff; fill-opacity: 0.5; stroke: #ffffff; stroke-linejoin: miter"/>
   </g>
   <g id="patch_167">
    <path d="M 2327.810795 2080.894375 
L 2358.631705 2080.894375 
L 2358.631705 2036.542171 
L 2327.810795 2036.542171 
z
" clip-path="url(#pce673dfbd1)" style="fill: #0000ff; fill-opacity: 0.5; stroke: #ffffff; stroke-linejoin: miter"/>
   </g>
   <g id="patch_168">
    <path d="M 2358.631705 2080.894375 
L 2389.452614 2080.894375 
L 2389.452614 2055.94626 
L 2358.631705 2055.94626 
z
" clip-path="url(#pce673dfbd1)" style="fill: #0000ff; fill-opacity: 0.5; stroke: #ffffff; stroke-linejoin: miter"/>
   </g>
   <g id="patch_169">
    <path d="M 2389.452614 2080.894375 
L 2420.273523 2080.894375 
L 2420.273523 2002.354013 
L 2389.452614 2002.354013 
z
" clip-path="url(#pce673dfbd1)" style="fill: #0000ff; fill-opacity: 0.5; stroke: #ffffff; stroke-linejoin: miter"/>
   </g>
   <g id="patch_170">
    <path d="M 2420.273523 2080.894375 
L 2451.094432 2080.894375 
L 2451.094432 2021.758103 
L 2420.273523 2021.758103 
z
" clip-path="url(#pce673dfbd1)" style="fill: #0000ff; fill-opacity: 0.5; stroke: #ffffff; stroke-linejoin: miter"/>
   </g>
   <g id="patch_171">
    <path d="M 2451.094432 2080.894375 
L 2481.915341 2080.894375 
L 2481.915341 2055.022256 
L 2451.094432 2055.022256 
z
" clip-path="url(#pce673dfbd1)" style="fill: #0000ff; fill-opacity: 0.5; stroke: #ffffff; stroke-linejoin: miter"/>
   </g>
   <g id="patch_172">
    <path d="M 2481.915341 2080.894375 
L 2512.73625 2080.894375 
L 2512.73625 2022.682107 
L 2481.915341 2022.682107 
z
" clip-path="url(#pce673dfbd1)" style="fill: #0000ff; fill-opacity: 0.5; stroke: #ffffff; stroke-linejoin: miter"/>
   </g>
   <g id="patch_173">
    <path d="M 2512.73625 2080.894375 
L 2543.557159 2080.894375 
L 2543.557159 2049.47823 
L 2512.73625 2049.47823 
z
" clip-path="url(#pce673dfbd1)" style="fill: #0000ff; fill-opacity: 0.5; stroke: #ffffff; stroke-linejoin: miter"/>
   </g>
   <g id="patch_174">
    <path d="M 2543.557159 2080.894375 
L 2574.378068 2080.894375 
L 2574.378068 2051.326239 
L 2543.557159 2051.326239 
z
" clip-path="url(#pce673dfbd1)" style="fill: #0000ff; fill-opacity: 0.5; stroke: #ffffff; stroke-linejoin: miter"/>
   </g>
   <g id="patch_175">
    <path d="M 2574.378068 2080.894375 
L 2605.198977 2080.894375 
L 2605.198977 2046.706217 
L 2574.378068 2046.706217 
z
" clip-path="url(#pce673dfbd1)" style="fill: #0000ff; fill-opacity: 0.5; stroke: #ffffff; stroke-linejoin: miter"/>
   </g>
   <g id="patch_176">
    <path d="M 2605.198977 2080.894375 
L 2636.019886 2080.894375 
L 2636.019886 2063.338294 
L 2605.198977 2063.338294 
z
" clip-path="url(#pce673dfbd1)" style="fill: #0000ff; fill-opacity: 0.5; stroke: #ffffff; stroke-linejoin: miter"/>
   </g>
   <g id="patch_177">
    <path d="M 2636.019886 2080.894375 
L 2666.840795 2080.894375 
L 2666.840795 2056.870264 
L 2636.019886 2056.870264 
z
" clip-path="url(#pce673dfbd1)" style="fill: #0000ff; fill-opacity: 0.5; stroke: #ffffff; stroke-linejoin: miter"/>
   </g>
   <g id="patch_178">
    <path d="M 2666.840795 2080.894375 
L 2697.661705 2080.894375 
L 2697.661705 2058.718273 
L 2666.840795 2058.718273 
z
" clip-path="url(#pce673dfbd1)" style="fill: #0000ff; fill-opacity: 0.5; stroke: #ffffff; stroke-linejoin: miter"/>
   </g>
   <g id="patch_179">
    <path d="M 2697.661705 2080.894375 
L 2728.482614 2080.894375 
L 2728.482614 2067.958315 
L 2697.661705 2067.958315 
z
" clip-path="url(#pce673dfbd1)" style="fill: #0000ff; fill-opacity: 0.5; stroke: #ffffff; stroke-linejoin: miter"/>
   </g>
   <g id="patch_180">
    <path d="M 2728.482614 2080.894375 
L 2759.303523 2080.894375 
L 2759.303523 2044.858209 
L 2728.482614 2044.858209 
z
" clip-path="url(#pce673dfbd1)" style="fill: #0000ff; fill-opacity: 0.5; stroke: #ffffff; stroke-linejoin: miter"/>
   </g>
   <g id="patch_181">
    <path d="M 2759.303523 2080.894375 
L 2790.124432 2080.894375 
L 2790.124432 2037.466175 
L 2759.303523 2037.466175 
z
" clip-path="url(#pce673dfbd1)" style="fill: #0000ff; fill-opacity: 0.5; stroke: #ffffff; stroke-linejoin: miter"/>
   </g>
   <g id="patch_182">
    <path d="M 2790.124432 2080.894375 
L 2820.945341 2080.894375 
L 2820.945341 2046.706217 
L 2790.124432 2046.706217 
z
" clip-path="url(#pce673dfbd1)" style="fill: #0000ff; fill-opacity: 0.5; stroke: #ffffff; stroke-linejoin: miter"/>
   </g>
   <g id="patch_183">
    <path d="M 2820.945341 2080.894375 
L 2851.76625 2080.894375 
L 2851.76625 2043.0102 
L 2820.945341 2043.0102 
z
" clip-path="url(#pce673dfbd1)" style="fill: #0000ff; fill-opacity: 0.5; stroke: #ffffff; stroke-linejoin: miter"/>
   </g>
   <g id="patch_184">
    <path d="M 2851.76625 2080.894375 
L 2882.587159 2080.894375 
L 2882.587159 2041.162192 
L 2851.76625 2041.162192 
z
" clip-path="url(#pce673dfbd1)" style="fill: #0000ff; fill-opacity: 0.5; stroke: #ffffff; stroke-linejoin: miter"/>
   </g>
   <g id="patch_185">
    <path d="M 2882.587159 2080.894375 
L 2913.408068 2080.894375 
L 2913.408068 2059.642277 
L 2882.587159 2059.642277 
z
" clip-path="url(#pce673dfbd1)" style="fill: #0000ff; fill-opacity: 0.5; stroke: #ffffff; stroke-linejoin: miter"/>
   </g>
   <g id="patch_186">
    <path d="M 2913.408068 2080.894375 
L 2944.228977 2080.894375 
L 2944.228977 2056.870264 
L 2913.408068 2056.870264 
z
" clip-path="url(#pce673dfbd1)" style="fill: #0000ff; fill-opacity: 0.5; stroke: #ffffff; stroke-linejoin: miter"/>
   </g>
   <g id="patch_187">
    <path d="M 2944.228977 2080.894375 
L 2975.049886 2080.894375 
L 2975.049886 2049.47823 
L 2944.228977 2049.47823 
z
" clip-path="url(#pce673dfbd1)" style="fill: #0000ff; fill-opacity: 0.5; stroke: #ffffff; stroke-linejoin: miter"/>
   </g>
   <g id="patch_188">
    <path d="M 2975.049886 2080.894375 
L 3005.870795 2080.894375 
L 3005.870795 2041.162192 
L 2975.049886 2041.162192 
z
" clip-path="url(#pce673dfbd1)" style="fill: #0000ff; fill-opacity: 0.5; stroke: #ffffff; stroke-linejoin: miter"/>
   </g>
   <g id="patch_189">
    <path d="M 3005.870795 2080.894375 
L 3036.691705 2080.894375 
L 3036.691705 2041.162192 
L 3005.870795 2041.162192 
z
" clip-path="url(#pce673dfbd1)" style="fill: #0000ff; fill-opacity: 0.5; stroke: #ffffff; stroke-linejoin: miter"/>
   </g>
   <g id="patch_190">
    <path d="M 3036.691705 2080.894375 
L 3067.512614 2080.894375 
L 3067.512614 2032.846154 
L 3036.691705 2032.846154 
z
" clip-path="url(#pce673dfbd1)" style="fill: #0000ff; fill-opacity: 0.5; stroke: #ffffff; stroke-linejoin: miter"/>
   </g>
   <g id="patch_191">
    <path d="M 3067.512614 2080.894375 
L 3098.333523 2080.894375 
L 3098.333523 2037.466175 
L 3067.512614 2037.466175 
z
" clip-path="url(#pce673dfbd1)" style="fill: #0000ff; fill-opacity: 0.5; stroke: #ffffff; stroke-linejoin: miter"/>
   </g>
   <g id="patch_192">
    <path d="M 3098.333523 2080.894375 
L 3129.154432 2080.894375 
L 3129.154432 1992.189966 
L 3098.333523 1992.189966 
z
" clip-path="url(#pce673dfbd1)" style="fill: #0000ff; fill-opacity: 0.5; stroke: #ffffff; stroke-linejoin: miter"/>
   </g>
   <g id="patch_193">
    <path d="M 3129.154432 2080.894375 
L 3159.975341 2080.894375 
L 3159.975341 2001.430009 
L 3129.154432 2001.430009 
z
" clip-path="url(#pce673dfbd1)" style="fill: #0000ff; fill-opacity: 0.5; stroke: #ffffff; stroke-linejoin: miter"/>
   </g>
   <g id="patch_194">
    <path d="M 3159.975341 2080.894375 
L 3190.79625 2080.894375 
L 3190.79625 2045.782213 
L 3159.975341 2045.782213 
z
" clip-path="url(#pce673dfbd1)" style="fill: #0000ff; fill-opacity: 0.5; stroke: #ffffff; stroke-linejoin: miter"/>
   </g>
   <g id="patch_195">
    <path d="M 3190.79625 2080.894375 
L 3221.617159 2080.894375 
L 3221.617159 2042.086196 
L 3190.79625 2042.086196 
z
" clip-path="url(#pce673dfbd1)" style="fill: #0000ff; fill-opacity: 0.5; stroke: #ffffff; stroke-linejoin: miter"/>
   </g>
   <g id="patch_196">
    <path d="M 3221.617159 2080.894375 
L 3252.438068 2080.894375 
L 3252.438068 2055.94626 
L 3221.617159 2055.94626 
z
" clip-path="url(#pce673dfbd1)" style="fill: #0000ff; fill-opacity: 0.5; stroke: #ffffff; stroke-linejoin: miter"/>
   </g>
   <g id="patch_197">
    <path d="M 3252.438068 2080.894375 
L 3283.258977 2080.894375 
L 3283.258977 2078.122362 
L 3252.438068 2078.122362 
z
" clip-path="url(#pce673dfbd1)" style="fill: #0000ff; fill-opacity: 0.5; stroke: #ffffff; stroke-linejoin: miter"/>
   </g>
   <g id="patch_198">
    <path d="M 3283.258977 2080.894375 
L 3314.079886 2080.894375 
L 3314.079886 2078.122362 
L 3283.258977 2078.122362 
z
" clip-path="url(#pce673dfbd1)" style="fill: #0000ff; fill-opacity: 0.5; stroke: #ffffff; stroke-linejoin: miter"/>
   </g>
   <g id="patch_199">
    <path d="M 3314.079886 2080.894375 
L 3344.900795 2080.894375 
L 3344.900795 2078.122362 
L 3314.079886 2078.122362 
z
" clip-path="url(#pce673dfbd1)" style="fill: #0000ff; fill-opacity: 0.5; stroke: #ffffff; stroke-linejoin: miter"/>
   </g>
   <g id="patch_200">
    <path d="M 3344.900795 2080.894375 
L 3375.721705 2080.894375 
L 3375.721705 2080.894375 
L 3344.900795 2080.894375 
z
" clip-path="url(#pce673dfbd1)" style="fill: #0000ff; fill-opacity: 0.5; stroke: #ffffff; stroke-linejoin: miter"/>
   </g>
   <g id="line2d_16">
    <path d="M 312.128188 2080.675228 
L 404.083256 2080.611352 
L 496.038324 2080.047017 
L 526.690013 2080.218317 
L 587.993391 2080.658354 
L 633.970925 2080.651671 
L 756.577682 2080.432292 
L 817.881061 2080.681902 
L 879.184439 2080.85862 
L 955.813662 2080.788815 
L 1032.442885 2080.671308 
L 1185.701331 2080.664563 
L 1231.678865 2080.53884 
L 1277.656399 2080.079212 
L 1308.308088 2079.831272 
L 1338.959778 2079.88061 
L 1415.589001 2080.448822 
L 1614.824981 2080.561808 
L 1691.454204 2080.661198 
L 1737.431738 2080.469518 
L 1814.060961 2080.045371 
L 1860.038495 2080.088936 
L 1936.667718 2080.308229 
L 2028.622785 2080.24531 
L 2074.600319 2080.030568 
L 2120.577853 2079.536642 
L 2181.881232 2078.817944 
L 2212.532921 2078.649441 
L 2243.18461 2078.703411 
L 2273.836299 2078.98695 
L 2335.139678 2079.735475 
L 2365.791367 2079.876859 
L 2396.443056 2079.76603 
L 2427.094745 2079.393115 
L 2457.746435 2078.768158 
L 2503.723969 2077.67828 
L 2534.375658 2077.231465 
L 2626.330726 2076.519153 
L 2764.263327 2074.007162 
L 2825.566706 2073.05791 
L 2840.89255 2072.634181 
L 2856.218395 2072.027927 
L 2871.544239 2071.183468 
L 2886.870084 2070.046425 
L 2902.195929 2068.560154 
L 2917.521773 2066.657403 
L 2932.847618 2064.245164 
L 2948.173462 2061.185092 
L 2963.499307 2057.281141 
L 2978.825152 2052.294105 
L 2994.150996 2046.000328 
L 3009.476841 2038.292558 
L 3024.802686 2029.288314 
L 3040.12853 2019.38116 
L 3055.454375 2009.165827 
L 3070.780219 1999.206028 
L 3101.431909 1980.124297 
L 3116.757753 1969.222455 
L 3132.083598 1955.219224 
L 3147.409443 1936.567582 
L 3162.735287 1912.841289 
L 3178.061132 1885.39901 
L 3193.386976 1857.356392 
L 3208.712821 1832.689812 
L 3224.038666 1814.793008 
L 3239.36451 1805.221332 
L 3254.690355 1803.352564 
L 3270.016199 1807.18482 
L 3285.342044 1814.780999 
L 3300.667889 1825.452827 
L 3315.993733 1839.965863 
L 3331.319578 1859.706165 
L 3346.645423 1885.405847 
L 3361.971267 1916.238262 
L 3361.971267 1916.238262 
" clip-path="url(#pce673dfbd1)" style="fill: none; stroke: #ffa500; stroke-width: 1.5; stroke-linecap: round"/>
   </g>
   <g id="line2d_17">
    <path d="M 293.630795 714.872919 
L 308.877453 723.920189 
L 324.124111 816.996685 
L 339.370769 975.082797 
L 354.617427 1169.57998 
L 369.864084 1370.536404 
L 385.110742 1553.795511 
L 400.3574 1704.8671 
L 415.604058 1819.095749 
L 430.850716 1899.202303 
L 446.097373 1951.869608 
L 461.344031 1984.757879 
L 476.590689 2004.621382 
L 491.837347 2016.538285 
L 507.084005 2023.908866 
L 522.330662 2028.819341 
L 537.57732 2032.476455 
L 552.823978 2035.560742 
L 583.317294 2041.363474 
L 613.810609 2047.442895 
L 629.057267 2050.501508 
L 644.303925 2053.415802 
L 659.550583 2056.067433 
L 674.797241 2058.378304 
L 690.043898 2060.32373 
L 705.290556 2061.92639 
L 720.537214 2063.239264 
L 735.783872 2064.327773 
L 766.277187 2066.087042 
L 842.510476 2069.905405 
L 873.003792 2071.247752 
L 903.497108 2072.276404 
L 933.990423 2073.039364 
L 979.730397 2073.96025 
L 1010.223712 2074.367162 
L 1025.47037 2074.422634 
L 1040.717028 2074.334528 
L 1055.963686 2074.086532 
L 1086.457001 2073.198788 
L 1116.950317 2072.282012 
L 1132.196975 2072.06683 
L 1147.443632 2072.120954 
L 1162.69029 2072.466271 
L 1177.936948 2073.066913 
L 1238.923579 2076.124854 
L 1254.170237 2076.618529 
L 1269.416895 2076.941323 
L 1299.91021 2077.207657 
L 1376.143499 2077.311576 
L 1406.636815 2077.220115 
L 1452.376788 2076.770343 
L 1513.36342 2076.134609 
L 1559.103393 2075.909676 
L 1604.843367 2075.878261 
L 1650.58334 2076.070978 
L 1803.049918 2077.137256 
L 1848.789891 2077.581245 
L 1894.529865 2077.799799 
L 1986.009812 2078.157326 
L 2138.47639 2078.789605 
L 2168.969705 2078.820289 
L 2199.463021 2078.59306 
L 2214.709679 2078.335375 
L 2229.956336 2077.962174 
L 2245.202994 2077.46814 
L 2275.69631 2076.160744 
L 2336.682941 2073.157794 
L 2367.176257 2071.941194 
L 2382.422914 2071.469146 
L 2397.669572 2071.11762 
L 2412.91623 2070.911837 
L 2428.162888 2070.869229 
L 2443.409546 2070.990584 
L 2473.902861 2071.633724 
L 2595.876124 2075.111225 
L 2626.369439 2075.658139 
L 2656.862755 2075.929072 
L 2687.356071 2075.829648 
L 2717.849386 2075.358491 
L 2778.836017 2074.114886 
L 2809.329333 2073.846968 
L 2839.822649 2073.935705 
L 2916.055938 2074.567043 
L 2931.302595 2074.490562 
L 2961.795911 2073.998332 
L 2992.289227 2073.128929 
L 3022.782542 2071.988118 
L 3083.769173 2069.500346 
L 3099.015831 2069.130032 
L 3114.262489 2069.004904 
L 3129.509147 2069.173277 
L 3144.755805 2069.646177 
L 3160.002462 2070.395392 
L 3175.24912 2071.362344 
L 3205.742436 2073.651932 
L 3236.235751 2075.958852 
L 3251.482409 2076.988997 
L 3266.729067 2077.892385 
L 3281.975725 2078.651718 
L 3297.222383 2079.263297 
L 3312.46904 2079.736052 
L 3327.715698 2080.08834 
L 3327.715698 2080.08834 
" clip-path="url(#pce673dfbd1)" style="fill: none; stroke: #0000ff; stroke-width: 1.5; stroke-linecap: round"/>
   </g>
   <g id="patch_201">
    <path d="M 139.52625 2080.894375 
L 139.52625 40.554375 
" style="fill: none; stroke: #ffffff; stroke-width: 1.25; stroke-linejoin: miter; stroke-linecap: square"/>
   </g>
   <g id="patch_202">
    <path d="M 3529.82625 2080.894375 
L 3529.82625 40.554375 
" style="fill: none; stroke: #ffffff; stroke-width: 1.25; stroke-linejoin: miter; stroke-linecap: square"/>
   </g>
   <g id="patch_203">
    <path d="M 139.52625 2080.894375 
L 3529.82625 2080.894375 
" style="fill: none; stroke: #ffffff; stroke-width: 1.25; stroke-linejoin: miter; stroke-linecap: square"/>
   </g>
   <g id="patch_204">
    <path d="M 139.52625 40.554375 
L 3529.82625 40.554375 
" style="fill: none; stroke: #ffffff; stroke-width: 1.25; stroke-linejoin: miter; stroke-linecap: square"/>
   </g>
   <g id="text_18">
    <!-- all_k_mer_encoding_sepreate_without_align_MACCSkey_prediction probability distribution -->
    <g style="fill: #262626" transform="translate(1025.97 34.554375)scale(0.36 -0.36)">
     <defs>
      <path id="DejaVuSans-5f" d="M 3263 -1063 
L 3263 -1509 
L -63 -1509 
L -63 -1063 
L 3263 -1063 
z
" transform="scale(0.015625)"/>
      <path id="DejaVuSans-6b" d="M 581 4863 
L 1159 4863 
L 1159 1991 
L 2875 3500 
L 3609 3500 
L 1753 1863 
L 3688 0 
L 2938 0 
L 1159 1709 
L 1159 0 
L 581 0 
L 581 4863 
z
" transform="scale(0.015625)"/>
      <path id="DejaVuSans-6d" d="M 3328 2828 
Q 3544 3216 3844 3400 
Q 4144 3584 4550 3584 
Q 5097 3584 5394 3201 
Q 5691 2819 5691 2113 
L 5691 0 
L 5113 0 
L 5113 2094 
Q 5113 2597 4934 2840 
Q 4756 3084 4391 3084 
Q 3944 3084 3684 2787 
Q 3425 2491 3425 1978 
L 3425 0 
L 2847 0 
L 2847 2094 
Q 2847 2600 2669 2842 
Q 2491 3084 2119 3084 
Q 1678 3084 1418 2786 
Q 1159 2488 1159 1978 
L 1159 0 
L 581 0 
L 581 3500 
L 1159 3500 
L 1159 2956 
Q 1356 3278 1631 3431 
Q 1906 3584 2284 3584 
Q 2666 3584 2933 3390 
Q 3200 3197 3328 2828 
z
" transform="scale(0.015625)"/>
      <path id="DejaVuSans-65" d="M 3597 1894 
L 3597 1613 
L 953 1613 
Q 991 1019 1311 708 
Q 1631 397 2203 397 
Q 2534 397 2845 478 
Q 3156 559 3463 722 
L 3463 178 
Q 3153 47 2828 -22 
Q 2503 -91 2169 -91 
Q 1331 -91 842 396 
Q 353 884 353 1716 
Q 353 2575 817 3079 
Q 1281 3584 2069 3584 
Q 2775 3584 3186 3129 
Q 3597 2675 3597 1894 
z
M 3022 2063 
Q 3016 2534 2758 2815 
Q 2500 3097 2075 3097 
Q 1594 3097 1305 2825 
Q 1016 2553 972 2059 
L 3022 2063 
z
" transform="scale(0.015625)"/>
      <path id="DejaVuSans-63" d="M 3122 3366 
L 3122 2828 
Q 2878 2963 2633 3030 
Q 2388 3097 2138 3097 
Q 1578 3097 1268 2742 
Q 959 2388 959 1747 
Q 959 1106 1268 751 
Q 1578 397 2138 397 
Q 2388 397 2633 464 
Q 2878 531 3122 666 
L 3122 134 
Q 2881 22 2623 -34 
Q 2366 -91 2075 -91 
Q 1284 -91 818 406 
Q 353 903 353 1747 
Q 353 2603 823 3093 
Q 1294 3584 2113 3584 
Q 2378 3584 2631 3529 
Q 2884 3475 3122 3366 
z
" transform="scale(0.015625)"/>
      <path id="DejaVuSans-64" d="M 2906 2969 
L 2906 4863 
L 3481 4863 
L 3481 0 
L 2906 0 
L 2906 525 
Q 2725 213 2448 61 
Q 2172 -91 1784 -91 
Q 1150 -91 751 415 
Q 353 922 353 1747 
Q 353 2572 751 3078 
Q 1150 3584 1784 3584 
Q 2172 3584 2448 3432 
Q 2725 3281 2906 2969 
z
M 947 1747 
Q 947 1113 1208 752 
Q 1469 391 1925 391 
Q 2381 391 2643 752 
Q 2906 1113 2906 1747 
Q 2906 2381 2643 2742 
Q 2381 3103 1925 3103 
Q 1469 3103 1208 2742 
Q 947 2381 947 1747 
z
" transform="scale(0.015625)"/>
      <path id="DejaVuSans-67" d="M 2906 1791 
Q 2906 2416 2648 2759 
Q 2391 3103 1925 3103 
Q 1463 3103 1205 2759 
Q 947 2416 947 1791 
Q 947 1169 1205 825 
Q 1463 481 1925 481 
Q 2391 481 2648 825 
Q 2906 1169 2906 1791 
z
M 3481 434 
Q 3481 -459 3084 -895 
Q 2688 -1331 1869 -1331 
Q 1566 -1331 1297 -1286 
Q 1028 -1241 775 -1147 
L 775 -588 
Q 1028 -725 1275 -790 
Q 1522 -856 1778 -856 
Q 2344 -856 2625 -561 
Q 2906 -266 2906 331 
L 2906 616 
Q 2728 306 2450 153 
Q 2172 0 1784 0 
Q 1141 0 747 490 
Q 353 981 353 1791 
Q 353 2603 747 3093 
Q 1141 3584 1784 3584 
Q 2172 3584 2450 3431 
Q 2728 3278 2906 2969 
L 2906 3500 
L 3481 3500 
L 3481 434 
z
" transform="scale(0.015625)"/>
      <path id="DejaVuSans-73" d="M 2834 3397 
L 2834 2853 
Q 2591 2978 2328 3040 
Q 2066 3103 1784 3103 
Q 1356 3103 1142 2972 
Q 928 2841 928 2578 
Q 928 2378 1081 2264 
Q 1234 2150 1697 2047 
L 1894 2003 
Q 2506 1872 2764 1633 
Q 3022 1394 3022 966 
Q 3022 478 2636 193 
Q 2250 -91 1575 -91 
Q 1294 -91 989 -36 
Q 684 19 347 128 
L 347 722 
Q 666 556 975 473 
Q 1284 391 1588 391 
Q 1994 391 2212 530 
Q 2431 669 2431 922 
Q 2431 1156 2273 1281 
Q 2116 1406 1581 1522 
L 1381 1569 
Q 847 1681 609 1914 
Q 372 2147 372 2553 
Q 372 3047 722 3315 
Q 1072 3584 1716 3584 
Q 2034 3584 2315 3537 
Q 2597 3491 2834 3397 
z
" transform="scale(0.015625)"/>
      <path id="DejaVuSans-77" d="M 269 3500 
L 844 3500 
L 1563 769 
L 2278 3500 
L 2956 3500 
L 3675 769 
L 4391 3500 
L 4966 3500 
L 4050 0 
L 3372 0 
L 2619 2869 
L 1863 0 
L 1184 0 
L 269 3500 
z
" transform="scale(0.015625)"/>
      <path id="DejaVuSans-68" d="M 3513 2113 
L 3513 0 
L 2938 0 
L 2938 2094 
Q 2938 2591 2744 2837 
Q 2550 3084 2163 3084 
Q 1697 3084 1428 2787 
Q 1159 2491 1159 1978 
L 1159 0 
L 581 0 
L 581 4863 
L 1159 4863 
L 1159 2956 
Q 1366 3272 1645 3428 
Q 1925 3584 2291 3584 
Q 2894 3584 3203 3211 
Q 3513 2838 3513 2113 
z
" transform="scale(0.015625)"/>
      <path id="DejaVuSans-4d" d="M 628 4666 
L 1569 4666 
L 2759 1491 
L 3956 4666 
L 4897 4666 
L 4897 0 
L 4281 0 
L 4281 4097 
L 3078 897 
L 2444 897 
L 1241 4097 
L 1241 0 
L 628 0 
L 628 4666 
z
" transform="scale(0.015625)"/>
      <path id="DejaVuSans-41" d="M 2188 4044 
L 1331 1722 
L 3047 1722 
L 2188 4044 
z
M 1831 4666 
L 2547 4666 
L 4325 0 
L 3669 0 
L 3244 1197 
L 1141 1197 
L 716 0 
L 50 0 
L 1831 4666 
z
" transform="scale(0.015625)"/>
      <path id="DejaVuSans-53" d="M 3425 4513 
L 3425 3897 
Q 3066 4069 2747 4153 
Q 2428 4238 2131 4238 
Q 1616 4238 1336 4038 
Q 1056 3838 1056 3469 
Q 1056 3159 1242 3001 
Q 1428 2844 1947 2747 
L 2328 2669 
Q 3034 2534 3370 2195 
Q 3706 1856 3706 1288 
Q 3706 609 3251 259 
Q 2797 -91 1919 -91 
Q 1588 -91 1214 -16 
Q 841 59 441 206 
L 441 856 
Q 825 641 1194 531 
Q 1563 422 1919 422 
Q 2459 422 2753 634 
Q 3047 847 3047 1241 
Q 3047 1584 2836 1778 
Q 2625 1972 2144 2069 
L 1759 2144 
Q 1053 2284 737 2584 
Q 422 2884 422 3419 
Q 422 4038 858 4394 
Q 1294 4750 2059 4750 
Q 2388 4750 2728 4690 
Q 3069 4631 3425 4513 
z
" transform="scale(0.015625)"/>
      <path id="DejaVuSans-20" transform="scale(0.015625)"/>
     </defs>
     <use xlink:href="#DejaVuSans-61"/>
     <use xlink:href="#DejaVuSans-6c" x="61.279297"/>
     <use xlink:href="#DejaVuSans-6c" x="89.0625"/>
     <use xlink:href="#DejaVuSans-5f" x="116.845703"/>
     <use xlink:href="#DejaVuSans-6b" x="166.845703"/>
     <use xlink:href="#DejaVuSans-5f" x="224.755859"/>
     <use xlink:href="#DejaVuSans-6d" x="274.755859"/>
     <use xlink:href="#DejaVuSans-65" x="372.167969"/>
     <use xlink:href="#DejaVuSans-72" x="433.691406"/>
     <use xlink:href="#DejaVuSans-5f" x="474.804688"/>
     <use xlink:href="#DejaVuSans-65" x="524.804688"/>
     <use xlink:href="#DejaVuSans-6e" x="586.328125"/>
     <use xlink:href="#DejaVuSans-63" x="649.707031"/>
     <use xlink:href="#DejaVuSans-6f" x="704.6875"/>
     <use xlink:href="#DejaVuSans-64" x="765.869141"/>
     <use xlink:href="#DejaVuSans-69" x="829.345703"/>
     <use xlink:href="#DejaVuSans-6e" x="857.128906"/>
     <use xlink:href="#DejaVuSans-67" x="920.507812"/>
     <use xlink:href="#DejaVuSans-5f" x="983.984375"/>
     <use xlink:href="#DejaVuSans-73" x="1033.984375"/>
     <use xlink:href="#DejaVuSans-65" x="1086.083984"/>
     <use xlink:href="#DejaVuSans-70" x="1147.607422"/>
     <use xlink:href="#DejaVuSans-72" x="1211.083984"/>
     <use xlink:href="#DejaVuSans-65" x="1249.947266"/>
     <use xlink:href="#DejaVuSans-61" x="1311.470703"/>
     <use xlink:href="#DejaVuSans-74" x="1372.75"/>
     <use xlink:href="#DejaVuSans-65" x="1411.958984"/>
     <use xlink:href="#DejaVuSans-5f" x="1473.482422"/>
     <use xlink:href="#DejaVuSans-77" x="1523.482422"/>
     <use xlink:href="#DejaVuSans-69" x="1605.269531"/>
     <use xlink:href="#DejaVuSans-74" x="1633.052734"/>
     <use xlink:href="#DejaVuSans-68" x="1672.261719"/>
     <use xlink:href="#DejaVuSans-6f" x="1735.640625"/>
     <use xlink:href="#DejaVuSans-75" x="1796.822266"/>
     <use xlink:href="#DejaVuSans-74" x="1860.201172"/>
     <use xlink:href="#DejaVuSans-5f" x="1899.410156"/>
     <use xlink:href="#DejaVuSans-61" x="1949.410156"/>
     <use xlink:href="#DejaVuSans-6c" x="2010.689453"/>
     <use xlink:href="#DejaVuSans-69" x="2038.472656"/>
     <use xlink:href="#DejaVuSans-67" x="2066.255859"/>
     <use xlink:href="#DejaVuSans-6e" x="2129.732422"/>
     <use xlink:href="#DejaVuSans-5f" x="2193.111328"/>
     <use xlink:href="#DejaVuSans-4d" x="2243.111328"/>
     <use xlink:href="#DejaVuSans-41" x="2329.390625"/>
     <use xlink:href="#DejaVuSans-43" x="2396.048828"/>
     <use xlink:href="#DejaVuSans-43" x="2465.873047"/>
     <use xlink:href="#DejaVuSans-53" x="2535.697266"/>
     <use xlink:href="#DejaVuSans-6b" x="2599.173828"/>
     <use xlink:href="#DejaVuSans-65" x="2653.458984"/>
     <use xlink:href="#DejaVuSans-79" x="2714.982422"/>
     <use xlink:href="#DejaVuSans-5f" x="2774.162109"/>
     <use xlink:href="#DejaVuSans-70" x="2824.162109"/>
     <use xlink:href="#DejaVuSans-72" x="2887.638672"/>
     <use xlink:href="#DejaVuSans-65" x="2926.501953"/>
     <use xlink:href="#DejaVuSans-64" x="2988.025391"/>
     <use xlink:href="#DejaVuSans-69" x="3051.501953"/>
     <use xlink:href="#DejaVuSans-63" x="3079.285156"/>
     <use xlink:href="#DejaVuSans-74" x="3134.265625"/>
     <use xlink:href="#DejaVuSans-69" x="3173.474609"/>
     <use xlink:href="#DejaVuSans-6f" x="3201.257812"/>
     <use xlink:href="#DejaVuSans-6e" x="3262.439453"/>
     <use xlink:href="#DejaVuSans-20" x="3325.818359"/>
     <use xlink:href="#DejaVuSans-70" x="3357.605469"/>
     <use xlink:href="#DejaVuSans-72" x="3421.082031"/>
     <use xlink:href="#DejaVuSans-6f" x="3459.945312"/>
     <use xlink:href="#DejaVuSans-62" x="3521.126953"/>
     <use xlink:href="#DejaVuSans-61" x="3584.603516"/>
     <use xlink:href="#DejaVuSans-62" x="3645.882812"/>
     <use xlink:href="#DejaVuSans-69" x="3709.359375"/>
     <use xlink:href="#DejaVuSans-6c" x="3737.142578"/>
     <use xlink:href="#DejaVuSans-69" x="3764.925781"/>
     <use xlink:href="#DejaVuSans-74" x="3792.708984"/>
     <use xlink:href="#DejaVuSans-79" x="3831.917969"/>
     <use xlink:href="#DejaVuSans-20" x="3891.097656"/>
     <use xlink:href="#DejaVuSans-64" x="3922.884766"/>
     <use xlink:href="#DejaVuSans-69" x="3986.361328"/>
     <use xlink:href="#DejaVuSans-73" x="4014.144531"/>
     <use xlink:href="#DejaVuSans-74" x="4066.244141"/>
     <use xlink:href="#DejaVuSans-72" x="4105.453125"/>
     <use xlink:href="#DejaVuSans-69" x="4146.566406"/>
     <use xlink:href="#DejaVuSans-62" x="4174.349609"/>
     <use xlink:href="#DejaVuSans-75" x="4237.826172"/>
     <use xlink:href="#DejaVuSans-74" x="4301.205078"/>
     <use xlink:href="#DejaVuSans-69" x="4340.414062"/>
     <use xlink:href="#DejaVuSans-6f" x="4368.197266"/>
     <use xlink:href="#DejaVuSans-6e" x="4429.378906"/>
    </g>
   </g>
   <g id="legend_1">
    <g id="patch_205">
     <path d="M 3423.899375 109.280625 
L 3524.22625 109.280625 
Q 3525.82625 109.280625 3525.82625 107.680625 
L 3525.82625 46.154375 
Q 3525.82625 44.554375 3524.22625 44.554375 
L 3423.899375 44.554375 
Q 3422.299375 44.554375 3422.299375 46.154375 
L 3422.299375 107.680625 
Q 3422.299375 109.280625 3423.899375 109.280625 
z
" style="fill: #eaeaf2; opacity: 0.8; stroke: #cccccc; stroke-linejoin: miter"/>
    </g>
    <g id="text_19">
     <!-- Label -->
     <g style="fill: #262626" transform="translate(3425.499375 75.10875)scale(0.36 -0.36)">
      <defs>
       <path id="DejaVuSans-4c" d="M 628 4666 
L 1259 4666 
L 1259 531 
L 3531 531 
L 3531 0 
L 628 0 
L 628 4666 
z
" transform="scale(0.015625)"/>
      </defs>
      <use xlink:href="#DejaVuSans-4c"/>
      <use xlink:href="#DejaVuSans-61" x="55.712891"/>
      <use xlink:href="#DejaVuSans-62" x="116.992188"/>
      <use xlink:href="#DejaVuSans-65" x="180.46875"/>
      <use xlink:href="#DejaVuSans-6c" x="241.992188"/>
     </g>
    </g>
    <g id="patch_206">
     <path d="M 3450.643437 92.674375 
L 3466.643437 92.674375 
L 3466.643437 87.074375 
L 3450.643437 87.074375 
z
" style="fill: #ffa500; fill-opacity: 0.5; stroke: #ffffff; stroke-linejoin: miter"/>
    </g>
    <g id="text_20">
     <!-- label1 -->
     <g style="fill: #262626" transform="translate(3473.043437 92.674375)scale(0.08 -0.08)">
      <use xlink:href="#DejaVuSans-6c"/>
      <use xlink:href="#DejaVuSans-61" x="27.783203"/>
      <use xlink:href="#DejaVuSans-62" x="89.0625"/>
      <use xlink:href="#DejaVuSans-65" x="152.539062"/>
      <use xlink:href="#DejaVuSans-6c" x="214.0625"/>
      <use xlink:href="#DejaVuSans-31" x="241.845703"/>
     </g>
    </g>
    <g id="patch_207">
     <path d="M 3450.643437 104.416875 
L 3466.643437 104.416875 
L 3466.643437 98.816875 
L 3450.643437 98.816875 
z
" style="fill: #0000ff; fill-opacity: 0.5; stroke: #ffffff; stroke-linejoin: miter"/>
    </g>
    <g id="text_21">
     <!-- label0 -->
     <g style="fill: #262626" transform="translate(3473.043437 104.416875)scale(0.08 -0.08)">
      <use xlink:href="#DejaVuSans-6c"/>
      <use xlink:href="#DejaVuSans-61" x="27.783203"/>
      <use xlink:href="#DejaVuSans-62" x="89.0625"/>
      <use xlink:href="#DejaVuSans-65" x="152.539062"/>
      <use xlink:href="#DejaVuSans-6c" x="214.0625"/>
      <use xlink:href="#DejaVuSans-30" x="241.845703"/>
     </g>
    </g>
   </g>
  </g>
 </g>
 <defs>
  <clipPath id="pce673dfbd1">
   <rect x="139.52625" y="40.554375" width="3390.3" height="2040.34"/>
  </clipPath>
 </defs>
</svg>
