<?xml version="1.0" encoding="utf-8" standalone="no"?>
<!DOCTYPE svg PUBLIC "-//W3C//DTD SVG 1.1//EN"
  "http://www.w3.org/Graphics/SVG/1.1/DTD/svg11.dtd">
<svg xmlns:xlink="http://www.w3.org/1999/xlink" width="3537pt" height="2168.373437pt" viewBox="0 0 3537 2168.373437" xmlns="http://www.w3.org/2000/svg" version="1.1">
 <metadata>
  <rdf:RDF xmlns:dc="http://purl.org/dc/elements/1.1/" xmlns:cc="http://creativecommons.org/ns#" xmlns:rdf="http://www.w3.org/1999/02/22-rdf-syntax-ns#">
   <cc:Work>
    <dc:type rdf:resource="http://purl.org/dc/dcmitype/StillImage"/>
    <dc:date>2022-11-19T06:00:38.808419</dc:date>
    <dc:format>image/svg+xml</dc:format>
    <dc:creator>
     <cc:Agent>
      <dc:title>Matplotlib v3.5.2, https://matplotlib.org/</dc:title>
     </cc:Agent>
    </dc:creator>
   </cc:Work>
  </rdf:RDF>
 </metadata>
 <defs>
  <style type="text/css">*{stroke-linejoin: round; stroke-linecap: butt}</style>
 </defs>
 <g id="figure_1">
  <g id="patch_1">
   <path d="M 0 2168.373437 
L 3537 2168.373437 
L 3537 0 
L 0 0 
z
" style="fill: #ffffff"/>
  </g>
  <g id="axes_1">
   <g id="patch_2">
    <path d="M 118.53 2080.894375 
L 3529.8 2080.894375 
L 3529.8 40.554375 
L 118.53 40.554375 
z
" style="fill: #eaeaf2"/>
   </g>
   <g id="matplotlib.axis_1">
    <g id="xtick_1">
     <g id="line2d_1">
      <path d="M 273.587727 2080.894375 
L 273.587727 40.554375 
" clip-path="url(#p44acef546c)" style="fill: none; stroke: #ffffff; stroke-linecap: round"/>
     </g>
     <g id="text_1">
      <!-- 0.0 -->
      <g style="fill: #262626" transform="translate(247.347571 2115.469219)scale(0.33 -0.33)">
       <defs>
        <path id="DejaVuSans-30" d="M 2034 4250 
Q 1547 4250 1301 3770 
Q 1056 3291 1056 2328 
Q 1056 1369 1301 889 
Q 1547 409 2034 409 
Q 2525 409 2770 889 
Q 3016 1369 3016 2328 
Q 3016 3291 2770 3770 
Q 2525 4250 2034 4250 
z
M 2034 4750 
Q 2819 4750 3233 4129 
Q 3647 3509 3647 2328 
Q 3647 1150 3233 529 
Q 2819 -91 2034 -91 
Q 1250 -91 836 529 
Q 422 1150 422 2328 
Q 422 3509 836 4129 
Q 1250 4750 2034 4750 
z
" transform="scale(0.015625)"/>
        <path id="DejaVuSans-2e" d="M 684 794 
L 1344 794 
L 1344 0 
L 684 0 
L 684 794 
z
" transform="scale(0.015625)"/>
       </defs>
       <use xlink:href="#DejaVuSans-30"/>
       <use xlink:href="#DejaVuSans-2e" x="63.623047"/>
       <use xlink:href="#DejaVuSans-30" x="95.410156"/>
      </g>
     </g>
    </g>
    <g id="xtick_2">
     <g id="line2d_2">
      <path d="M 893.818636 2080.894375 
L 893.818636 40.554375 
" clip-path="url(#p44acef546c)" style="fill: none; stroke: #ffffff; stroke-linecap: round"/>
     </g>
     <g id="text_2">
      <!-- 0.2 -->
      <g style="fill: #262626" transform="translate(867.57848 2115.469219)scale(0.33 -0.33)">
       <defs>
        <path id="DejaVuSans-32" d="M 1228 531 
L 3431 531 
L 3431 0 
L 469 0 
L 469 531 
Q 828 903 1448 1529 
Q 2069 2156 2228 2338 
Q 2531 2678 2651 2914 
Q 2772 3150 2772 3378 
Q 2772 3750 2511 3984 
Q 2250 4219 1831 4219 
Q 1534 4219 1204 4116 
Q 875 4013 500 3803 
L 500 4441 
Q 881 4594 1212 4672 
Q 1544 4750 1819 4750 
Q 2544 4750 2975 4387 
Q 3406 4025 3406 3419 
Q 3406 3131 3298 2873 
Q 3191 2616 2906 2266 
Q 2828 2175 2409 1742 
Q 1991 1309 1228 531 
z
" transform="scale(0.015625)"/>
       </defs>
       <use xlink:href="#DejaVuSans-30"/>
       <use xlink:href="#DejaVuSans-2e" x="63.623047"/>
       <use xlink:href="#DejaVuSans-32" x="95.410156"/>
      </g>
     </g>
    </g>
    <g id="xtick_3">
     <g id="line2d_3">
      <path d="M 1514.049545 2080.894375 
L 1514.049545 40.554375 
" clip-path="url(#p44acef546c)" style="fill: none; stroke: #ffffff; stroke-linecap: round"/>
     </g>
     <g id="text_3">
      <!-- 0.4 -->
      <g style="fill: #262626" transform="translate(1487.809389 2115.469219)scale(0.33 -0.33)">
       <defs>
        <path id="DejaVuSans-34" d="M 2419 4116 
L 825 1625 
L 2419 1625 
L 2419 4116 
z
M 2253 4666 
L 3047 4666 
L 3047 1625 
L 3713 1625 
L 3713 1100 
L 3047 1100 
L 3047 0 
L 2419 0 
L 2419 1100 
L 313 1100 
L 313 1709 
L 2253 4666 
z
" transform="scale(0.015625)"/>
       </defs>
       <use xlink:href="#DejaVuSans-30"/>
       <use xlink:href="#DejaVuSans-2e" x="63.623047"/>
       <use xlink:href="#DejaVuSans-34" x="95.410156"/>
      </g>
     </g>
    </g>
    <g id="xtick_4">
     <g id="line2d_4">
      <path d="M 2134.280455 2080.894375 
L 2134.280455 40.554375 
" clip-path="url(#p44acef546c)" style="fill: none; stroke: #ffffff; stroke-linecap: round"/>
     </g>
     <g id="text_4">
      <!-- 0.6 -->
      <g style="fill: #262626" transform="translate(2108.040298 2115.469219)scale(0.33 -0.33)">
       <defs>
        <path id="DejaVuSans-36" d="M 2113 2584 
Q 1688 2584 1439 2293 
Q 1191 2003 1191 1497 
Q 1191 994 1439 701 
Q 1688 409 2113 409 
Q 2538 409 2786 701 
Q 3034 994 3034 1497 
Q 3034 2003 2786 2293 
Q 2538 2584 2113 2584 
z
M 3366 4563 
L 3366 3988 
Q 3128 4100 2886 4159 
Q 2644 4219 2406 4219 
Q 1781 4219 1451 3797 
Q 1122 3375 1075 2522 
Q 1259 2794 1537 2939 
Q 1816 3084 2150 3084 
Q 2853 3084 3261 2657 
Q 3669 2231 3669 1497 
Q 3669 778 3244 343 
Q 2819 -91 2113 -91 
Q 1303 -91 875 529 
Q 447 1150 447 2328 
Q 447 3434 972 4092 
Q 1497 4750 2381 4750 
Q 2619 4750 2861 4703 
Q 3103 4656 3366 4563 
z
" transform="scale(0.015625)"/>
       </defs>
       <use xlink:href="#DejaVuSans-30"/>
       <use xlink:href="#DejaVuSans-2e" x="63.623047"/>
       <use xlink:href="#DejaVuSans-36" x="95.410156"/>
      </g>
     </g>
    </g>
    <g id="xtick_5">
     <g id="line2d_5">
      <path d="M 2754.511364 2080.894375 
L 2754.511364 40.554375 
" clip-path="url(#p44acef546c)" style="fill: none; stroke: #ffffff; stroke-linecap: round"/>
     </g>
     <g id="text_5">
      <!-- 0.8 -->
      <g style="fill: #262626" transform="translate(2728.271207 2115.469219)scale(0.33 -0.33)">
       <defs>
        <path id="DejaVuSans-38" d="M 2034 2216 
Q 1584 2216 1326 1975 
Q 1069 1734 1069 1313 
Q 1069 891 1326 650 
Q 1584 409 2034 409 
Q 2484 409 2743 651 
Q 3003 894 3003 1313 
Q 3003 1734 2745 1975 
Q 2488 2216 2034 2216 
z
M 1403 2484 
Q 997 2584 770 2862 
Q 544 3141 544 3541 
Q 544 4100 942 4425 
Q 1341 4750 2034 4750 
Q 2731 4750 3128 4425 
Q 3525 4100 3525 3541 
Q 3525 3141 3298 2862 
Q 3072 2584 2669 2484 
Q 3125 2378 3379 2068 
Q 3634 1759 3634 1313 
Q 3634 634 3220 271 
Q 2806 -91 2034 -91 
Q 1263 -91 848 271 
Q 434 634 434 1313 
Q 434 1759 690 2068 
Q 947 2378 1403 2484 
z
M 1172 3481 
Q 1172 3119 1398 2916 
Q 1625 2713 2034 2713 
Q 2441 2713 2670 2916 
Q 2900 3119 2900 3481 
Q 2900 3844 2670 4047 
Q 2441 4250 2034 4250 
Q 1625 4250 1398 4047 
Q 1172 3844 1172 3481 
z
" transform="scale(0.015625)"/>
       </defs>
       <use xlink:href="#DejaVuSans-30"/>
       <use xlink:href="#DejaVuSans-2e" x="63.623047"/>
       <use xlink:href="#DejaVuSans-38" x="95.410156"/>
      </g>
     </g>
    </g>
    <g id="xtick_6">
     <g id="line2d_6">
      <path d="M 3374.742273 2080.894375 
L 3374.742273 40.554375 
" clip-path="url(#p44acef546c)" style="fill: none; stroke: #ffffff; stroke-linecap: round"/>
     </g>
     <g id="text_6">
      <!-- 1.0 -->
      <g style="fill: #262626" transform="translate(3348.502116 2115.469219)scale(0.33 -0.33)">
       <defs>
        <path id="DejaVuSans-31" d="M 794 531 
L 1825 531 
L 1825 4091 
L 703 3866 
L 703 4441 
L 1819 4666 
L 2450 4666 
L 2450 531 
L 3481 531 
L 3481 0 
L 794 0 
L 794 531 
z
" transform="scale(0.015625)"/>
       </defs>
       <use xlink:href="#DejaVuSans-31"/>
       <use xlink:href="#DejaVuSans-2e" x="63.623047"/>
       <use xlink:href="#DejaVuSans-30" x="95.410156"/>
      </g>
     </g>
    </g>
    <g id="text_7">
     <!-- probability -->
     <g style="fill: #262626" transform="translate(1728.132187 2153.686563)scale(0.36 -0.36)">
      <defs>
       <path id="DejaVuSans-70" d="M 1159 525 
L 1159 -1331 
L 581 -1331 
L 581 3500 
L 1159 3500 
L 1159 2969 
Q 1341 3281 1617 3432 
Q 1894 3584 2278 3584 
Q 2916 3584 3314 3078 
Q 3713 2572 3713 1747 
Q 3713 922 3314 415 
Q 2916 -91 2278 -91 
Q 1894 -91 1617 61 
Q 1341 213 1159 525 
z
M 3116 1747 
Q 3116 2381 2855 2742 
Q 2594 3103 2138 3103 
Q 1681 3103 1420 2742 
Q 1159 2381 1159 1747 
Q 1159 1113 1420 752 
Q 1681 391 2138 391 
Q 2594 391 2855 752 
Q 3116 1113 3116 1747 
z
" transform="scale(0.015625)"/>
       <path id="DejaVuSans-72" d="M 2631 2963 
Q 2534 3019 2420 3045 
Q 2306 3072 2169 3072 
Q 1681 3072 1420 2755 
Q 1159 2438 1159 1844 
L 1159 0 
L 581 0 
L 581 3500 
L 1159 3500 
L 1159 2956 
Q 1341 3275 1631 3429 
Q 1922 3584 2338 3584 
Q 2397 3584 2469 3576 
Q 2541 3569 2628 3553 
L 2631 2963 
z
" transform="scale(0.015625)"/>
       <path id="DejaVuSans-6f" d="M 1959 3097 
Q 1497 3097 1228 2736 
Q 959 2375 959 1747 
Q 959 1119 1226 758 
Q 1494 397 1959 397 
Q 2419 397 2687 759 
Q 2956 1122 2956 1747 
Q 2956 2369 2687 2733 
Q 2419 3097 1959 3097 
z
M 1959 3584 
Q 2709 3584 3137 3096 
Q 3566 2609 3566 1747 
Q 3566 888 3137 398 
Q 2709 -91 1959 -91 
Q 1206 -91 779 398 
Q 353 888 353 1747 
Q 353 2609 779 3096 
Q 1206 3584 1959 3584 
z
" transform="scale(0.015625)"/>
       <path id="DejaVuSans-62" d="M 3116 1747 
Q 3116 2381 2855 2742 
Q 2594 3103 2138 3103 
Q 1681 3103 1420 2742 
Q 1159 2381 1159 1747 
Q 1159 1113 1420 752 
Q 1681 391 2138 391 
Q 2594 391 2855 752 
Q 3116 1113 3116 1747 
z
M 1159 2969 
Q 1341 3281 1617 3432 
Q 1894 3584 2278 3584 
Q 2916 3584 3314 3078 
Q 3713 2572 3713 1747 
Q 3713 922 3314 415 
Q 2916 -91 2278 -91 
Q 1894 -91 1617 61 
Q 1341 213 1159 525 
L 1159 0 
L 581 0 
L 581 4863 
L 1159 4863 
L 1159 2969 
z
" transform="scale(0.015625)"/>
       <path id="DejaVuSans-61" d="M 2194 1759 
Q 1497 1759 1228 1600 
Q 959 1441 959 1056 
Q 959 750 1161 570 
Q 1363 391 1709 391 
Q 2188 391 2477 730 
Q 2766 1069 2766 1631 
L 2766 1759 
L 2194 1759 
z
M 3341 1997 
L 3341 0 
L 2766 0 
L 2766 531 
Q 2569 213 2275 61 
Q 1981 -91 1556 -91 
Q 1019 -91 701 211 
Q 384 513 384 1019 
Q 384 1609 779 1909 
Q 1175 2209 1959 2209 
L 2766 2209 
L 2766 2266 
Q 2766 2663 2505 2880 
Q 2244 3097 1772 3097 
Q 1472 3097 1187 3025 
Q 903 2953 641 2809 
L 641 3341 
Q 956 3463 1253 3523 
Q 1550 3584 1831 3584 
Q 2591 3584 2966 3190 
Q 3341 2797 3341 1997 
z
" transform="scale(0.015625)"/>
       <path id="DejaVuSans-69" d="M 603 3500 
L 1178 3500 
L 1178 0 
L 603 0 
L 603 3500 
z
M 603 4863 
L 1178 4863 
L 1178 4134 
L 603 4134 
L 603 4863 
z
" transform="scale(0.015625)"/>
       <path id="DejaVuSans-6c" d="M 603 4863 
L 1178 4863 
L 1178 0 
L 603 0 
L 603 4863 
z
" transform="scale(0.015625)"/>
       <path id="DejaVuSans-74" d="M 1172 4494 
L 1172 3500 
L 2356 3500 
L 2356 3053 
L 1172 3053 
L 1172 1153 
Q 1172 725 1289 603 
Q 1406 481 1766 481 
L 2356 481 
L 2356 0 
L 1766 0 
Q 1100 0 847 248 
Q 594 497 594 1153 
L 594 3053 
L 172 3053 
L 172 3500 
L 594 3500 
L 594 4494 
L 1172 4494 
z
" transform="scale(0.015625)"/>
       <path id="DejaVuSans-79" d="M 2059 -325 
Q 1816 -950 1584 -1140 
Q 1353 -1331 966 -1331 
L 506 -1331 
L 506 -850 
L 844 -850 
Q 1081 -850 1212 -737 
Q 1344 -625 1503 -206 
L 1606 56 
L 191 3500 
L 800 3500 
L 1894 763 
L 2988 3500 
L 3597 3500 
L 2059 -325 
z
" transform="scale(0.015625)"/>
      </defs>
      <use xlink:href="#DejaVuSans-70"/>
      <use xlink:href="#DejaVuSans-72" x="63.476562"/>
      <use xlink:href="#DejaVuSans-6f" x="102.339844"/>
      <use xlink:href="#DejaVuSans-62" x="163.521484"/>
      <use xlink:href="#DejaVuSans-61" x="226.998047"/>
      <use xlink:href="#DejaVuSans-62" x="288.277344"/>
      <use xlink:href="#DejaVuSans-69" x="351.753906"/>
      <use xlink:href="#DejaVuSans-6c" x="379.537109"/>
      <use xlink:href="#DejaVuSans-69" x="407.320312"/>
      <use xlink:href="#DejaVuSans-74" x="435.103516"/>
      <use xlink:href="#DejaVuSans-79" x="474.3125"/>
     </g>
    </g>
   </g>
   <g id="matplotlib.axis_2">
    <g id="ytick_1">
     <g id="line2d_7">
      <path d="M 118.53 2080.894375 
L 3529.8 2080.894375 
" clip-path="url(#p44acef546c)" style="fill: none; stroke: #ffffff; stroke-linecap: round"/>
     </g>
     <g id="text_8">
      <!-- 0 -->
      <g style="fill: #262626" transform="translate(88.03375 2093.431797)scale(0.33 -0.33)">
       <use xlink:href="#DejaVuSans-30"/>
      </g>
     </g>
    </g>
    <g id="ytick_2">
     <g id="line2d_8">
      <path d="M 118.53 1793.015715 
L 3529.8 1793.015715 
" clip-path="url(#p44acef546c)" style="fill: none; stroke: #ffffff; stroke-linecap: round"/>
     </g>
     <g id="text_9">
      <!-- 20 -->
      <g style="fill: #262626" transform="translate(67.0375 1805.553137)scale(0.33 -0.33)">
       <use xlink:href="#DejaVuSans-32"/>
       <use xlink:href="#DejaVuSans-30" x="63.623047"/>
      </g>
     </g>
    </g>
    <g id="ytick_3">
     <g id="line2d_9">
      <path d="M 118.53 1505.137056 
L 3529.8 1505.137056 
" clip-path="url(#p44acef546c)" style="fill: none; stroke: #ffffff; stroke-linecap: round"/>
     </g>
     <g id="text_10">
      <!-- 40 -->
      <g style="fill: #262626" transform="translate(67.0375 1517.674478)scale(0.33 -0.33)">
       <use xlink:href="#DejaVuSans-34"/>
       <use xlink:href="#DejaVuSans-30" x="63.623047"/>
      </g>
     </g>
    </g>
    <g id="ytick_4">
     <g id="line2d_10">
      <path d="M 118.53 1217.258396 
L 3529.8 1217.258396 
" clip-path="url(#p44acef546c)" style="fill: none; stroke: #ffffff; stroke-linecap: round"/>
     </g>
     <g id="text_11">
      <!-- 60 -->
      <g style="fill: #262626" transform="translate(67.0375 1229.795818)scale(0.33 -0.33)">
       <use xlink:href="#DejaVuSans-36"/>
       <use xlink:href="#DejaVuSans-30" x="63.623047"/>
      </g>
     </g>
    </g>
    <g id="ytick_5">
     <g id="line2d_11">
      <path d="M 118.53 929.379737 
L 3529.8 929.379737 
" clip-path="url(#p44acef546c)" style="fill: none; stroke: #ffffff; stroke-linecap: round"/>
     </g>
     <g id="text_12">
      <!-- 80 -->
      <g style="fill: #262626" transform="translate(67.0375 941.917158)scale(0.33 -0.33)">
       <use xlink:href="#DejaVuSans-38"/>
       <use xlink:href="#DejaVuSans-30" x="63.623047"/>
      </g>
     </g>
    </g>
    <g id="ytick_6">
     <g id="line2d_12">
      <path d="M 118.53 641.501077 
L 3529.8 641.501077 
" clip-path="url(#p44acef546c)" style="fill: none; stroke: #ffffff; stroke-linecap: round"/>
     </g>
     <g id="text_13">
      <!-- 100 -->
      <g style="fill: #262626" transform="translate(46.04125 654.038499)scale(0.33 -0.33)">
       <use xlink:href="#DejaVuSans-31"/>
       <use xlink:href="#DejaVuSans-30" x="63.623047"/>
       <use xlink:href="#DejaVuSans-30" x="127.246094"/>
      </g>
     </g>
    </g>
    <g id="ytick_7">
     <g id="line2d_13">
      <path d="M 118.53 353.622417 
L 3529.8 353.622417 
" clip-path="url(#p44acef546c)" style="fill: none; stroke: #ffffff; stroke-linecap: round"/>
     </g>
     <g id="text_14">
      <!-- 120 -->
      <g style="fill: #262626" transform="translate(46.04125 366.159839)scale(0.33 -0.33)">
       <use xlink:href="#DejaVuSans-31"/>
       <use xlink:href="#DejaVuSans-32" x="63.623047"/>
       <use xlink:href="#DejaVuSans-30" x="127.246094"/>
      </g>
     </g>
    </g>
    <g id="ytick_8">
     <g id="line2d_14">
      <path d="M 118.53 65.743758 
L 3529.8 65.743758 
" clip-path="url(#p44acef546c)" style="fill: none; stroke: #ffffff; stroke-linecap: round"/>
     </g>
     <g id="text_15">
      <!-- 140 -->
      <g style="fill: #262626" transform="translate(46.04125 78.28118)scale(0.33 -0.33)">
       <use xlink:href="#DejaVuSans-31"/>
       <use xlink:href="#DejaVuSans-34" x="63.623047"/>
       <use xlink:href="#DejaVuSans-30" x="127.246094"/>
      </g>
     </g>
    </g>
    <g id="text_16">
     <!-- Count -->
     <g style="fill: #262626" transform="translate(34.554375 1114.17875)rotate(-90)scale(0.36 -0.36)">
      <defs>
       <path id="DejaVuSans-43" d="M 4122 4306 
L 4122 3641 
Q 3803 3938 3442 4084 
Q 3081 4231 2675 4231 
Q 1875 4231 1450 3742 
Q 1025 3253 1025 2328 
Q 1025 1406 1450 917 
Q 1875 428 2675 428 
Q 3081 428 3442 575 
Q 3803 722 4122 1019 
L 4122 359 
Q 3791 134 3420 21 
Q 3050 -91 2638 -91 
Q 1578 -91 968 557 
Q 359 1206 359 2328 
Q 359 3453 968 4101 
Q 1578 4750 2638 4750 
Q 3056 4750 3426 4639 
Q 3797 4528 4122 4306 
z
" transform="scale(0.015625)"/>
       <path id="DejaVuSans-75" d="M 544 1381 
L 544 3500 
L 1119 3500 
L 1119 1403 
Q 1119 906 1312 657 
Q 1506 409 1894 409 
Q 2359 409 2629 706 
Q 2900 1003 2900 1516 
L 2900 3500 
L 3475 3500 
L 3475 0 
L 2900 0 
L 2900 538 
Q 2691 219 2414 64 
Q 2138 -91 1772 -91 
Q 1169 -91 856 284 
Q 544 659 544 1381 
z
M 1991 3584 
L 1991 3584 
z
" transform="scale(0.015625)"/>
       <path id="DejaVuSans-6e" d="M 3513 2113 
L 3513 0 
L 2938 0 
L 2938 2094 
Q 2938 2591 2744 2837 
Q 2550 3084 2163 3084 
Q 1697 3084 1428 2787 
Q 1159 2491 1159 1978 
L 1159 0 
L 581 0 
L 581 3500 
L 1159 3500 
L 1159 2956 
Q 1366 3272 1645 3428 
Q 1925 3584 2291 3584 
Q 2894 3584 3203 3211 
Q 3513 2838 3513 2113 
z
" transform="scale(0.015625)"/>
      </defs>
      <use xlink:href="#DejaVuSans-43"/>
      <use xlink:href="#DejaVuSans-6f" x="69.824219"/>
      <use xlink:href="#DejaVuSans-75" x="131.005859"/>
      <use xlink:href="#DejaVuSans-6e" x="194.384766"/>
      <use xlink:href="#DejaVuSans-74" x="257.763672"/>
     </g>
    </g>
   </g>
   <g id="patch_3">
    <path d="M 304.599273 2080.894375 
L 335.610818 2080.894375 
L 335.610818 2080.894375 
L 304.599273 2080.894375 
z
" clip-path="url(#p44acef546c)" style="fill: #ffa500; fill-opacity: 0.5; stroke: #ffffff; stroke-linejoin: miter"/>
   </g>
   <g id="patch_4">
    <path d="M 335.610818 2080.894375 
L 366.622364 2080.894375 
L 366.622364 2080.894375 
L 335.610818 2080.894375 
z
" clip-path="url(#p44acef546c)" style="fill: #ffa500; fill-opacity: 0.5; stroke: #ffffff; stroke-linejoin: miter"/>
   </g>
   <g id="patch_5">
    <path d="M 366.622364 2080.894375 
L 397.633909 2080.894375 
L 397.633909 2080.894375 
L 366.622364 2080.894375 
z
" clip-path="url(#p44acef546c)" style="fill: #ffa500; fill-opacity: 0.5; stroke: #ffffff; stroke-linejoin: miter"/>
   </g>
   <g id="patch_6">
    <path d="M 397.633909 2080.894375 
L 428.645455 2080.894375 
L 428.645455 2080.894375 
L 397.633909 2080.894375 
z
" clip-path="url(#p44acef546c)" style="fill: #ffa500; fill-opacity: 0.5; stroke: #ffffff; stroke-linejoin: miter"/>
   </g>
   <g id="patch_7">
    <path d="M 428.645455 2080.894375 
L 459.657 2080.894375 
L 459.657 2080.894375 
L 428.645455 2080.894375 
z
" clip-path="url(#p44acef546c)" style="fill: #ffa500; fill-opacity: 0.5; stroke: #ffffff; stroke-linejoin: miter"/>
   </g>
   <g id="patch_8">
    <path d="M 459.657 2080.894375 
L 490.668545 2080.894375 
L 490.668545 2080.894375 
L 459.657 2080.894375 
z
" clip-path="url(#p44acef546c)" style="fill: #ffa500; fill-opacity: 0.5; stroke: #ffffff; stroke-linejoin: miter"/>
   </g>
   <g id="patch_9">
    <path d="M 490.668545 2080.894375 
L 521.680091 2080.894375 
L 521.680091 2080.894375 
L 490.668545 2080.894375 
z
" clip-path="url(#p44acef546c)" style="fill: #ffa500; fill-opacity: 0.5; stroke: #ffffff; stroke-linejoin: miter"/>
   </g>
   <g id="patch_10">
    <path d="M 521.680091 2080.894375 
L 552.691636 2080.894375 
L 552.691636 2080.894375 
L 521.680091 2080.894375 
z
" clip-path="url(#p44acef546c)" style="fill: #ffa500; fill-opacity: 0.5; stroke: #ffffff; stroke-linejoin: miter"/>
   </g>
   <g id="patch_11">
    <path d="M 552.691636 2080.894375 
L 583.703182 2080.894375 
L 583.703182 2080.894375 
L 552.691636 2080.894375 
z
" clip-path="url(#p44acef546c)" style="fill: #ffa500; fill-opacity: 0.5; stroke: #ffffff; stroke-linejoin: miter"/>
   </g>
   <g id="patch_12">
    <path d="M 583.703182 2080.894375 
L 614.714727 2080.894375 
L 614.714727 2080.894375 
L 583.703182 2080.894375 
z
" clip-path="url(#p44acef546c)" style="fill: #ffa500; fill-opacity: 0.5; stroke: #ffffff; stroke-linejoin: miter"/>
   </g>
   <g id="patch_13">
    <path d="M 614.714727 2080.894375 
L 645.726273 2080.894375 
L 645.726273 2080.894375 
L 614.714727 2080.894375 
z
" clip-path="url(#p44acef546c)" style="fill: #ffa500; fill-opacity: 0.5; stroke: #ffffff; stroke-linejoin: miter"/>
   </g>
   <g id="patch_14">
    <path d="M 645.726273 2080.894375 
L 676.737818 2080.894375 
L 676.737818 2080.894375 
L 645.726273 2080.894375 
z
" clip-path="url(#p44acef546c)" style="fill: #ffa500; fill-opacity: 0.5; stroke: #ffffff; stroke-linejoin: miter"/>
   </g>
   <g id="patch_15">
    <path d="M 676.737818 2080.894375 
L 707.749364 2080.894375 
L 707.749364 2080.894375 
L 676.737818 2080.894375 
z
" clip-path="url(#p44acef546c)" style="fill: #ffa500; fill-opacity: 0.5; stroke: #ffffff; stroke-linejoin: miter"/>
   </g>
   <g id="patch_16">
    <path d="M 707.749364 2080.894375 
L 738.760909 2080.894375 
L 738.760909 2080.894375 
L 707.749364 2080.894375 
z
" clip-path="url(#p44acef546c)" style="fill: #ffa500; fill-opacity: 0.5; stroke: #ffffff; stroke-linejoin: miter"/>
   </g>
   <g id="patch_17">
    <path d="M 738.760909 2080.894375 
L 769.772455 2080.894375 
L 769.772455 2080.894375 
L 738.760909 2080.894375 
z
" clip-path="url(#p44acef546c)" style="fill: #ffa500; fill-opacity: 0.5; stroke: #ffffff; stroke-linejoin: miter"/>
   </g>
   <g id="patch_18">
    <path d="M 769.772455 2080.894375 
L 800.784 2080.894375 
L 800.784 2080.894375 
L 769.772455 2080.894375 
z
" clip-path="url(#p44acef546c)" style="fill: #ffa500; fill-opacity: 0.5; stroke: #ffffff; stroke-linejoin: miter"/>
   </g>
   <g id="patch_19">
    <path d="M 800.784 2080.894375 
L 831.795545 2080.894375 
L 831.795545 2080.894375 
L 800.784 2080.894375 
z
" clip-path="url(#p44acef546c)" style="fill: #ffa500; fill-opacity: 0.5; stroke: #ffffff; stroke-linejoin: miter"/>
   </g>
   <g id="patch_20">
    <path d="M 831.795545 2080.894375 
L 862.807091 2080.894375 
L 862.807091 2080.894375 
L 831.795545 2080.894375 
z
" clip-path="url(#p44acef546c)" style="fill: #ffa500; fill-opacity: 0.5; stroke: #ffffff; stroke-linejoin: miter"/>
   </g>
   <g id="patch_21">
    <path d="M 862.807091 2080.894375 
L 893.818636 2080.894375 
L 893.818636 2080.894375 
L 862.807091 2080.894375 
z
" clip-path="url(#p44acef546c)" style="fill: #ffa500; fill-opacity: 0.5; stroke: #ffffff; stroke-linejoin: miter"/>
   </g>
   <g id="patch_22">
    <path d="M 893.818636 2080.894375 
L 924.830182 2080.894375 
L 924.830182 2080.894375 
L 893.818636 2080.894375 
z
" clip-path="url(#p44acef546c)" style="fill: #ffa500; fill-opacity: 0.5; stroke: #ffffff; stroke-linejoin: miter"/>
   </g>
   <g id="patch_23">
    <path d="M 924.830182 2080.894375 
L 955.841727 2080.894375 
L 955.841727 2080.894375 
L 924.830182 2080.894375 
z
" clip-path="url(#p44acef546c)" style="fill: #ffa500; fill-opacity: 0.5; stroke: #ffffff; stroke-linejoin: miter"/>
   </g>
   <g id="patch_24">
    <path d="M 955.841727 2080.894375 
L 986.853273 2080.894375 
L 986.853273 2080.894375 
L 955.841727 2080.894375 
z
" clip-path="url(#p44acef546c)" style="fill: #ffa500; fill-opacity: 0.5; stroke: #ffffff; stroke-linejoin: miter"/>
   </g>
   <g id="patch_25">
    <path d="M 986.853273 2080.894375 
L 1017.864818 2080.894375 
L 1017.864818 2080.894375 
L 986.853273 2080.894375 
z
" clip-path="url(#p44acef546c)" style="fill: #ffa500; fill-opacity: 0.5; stroke: #ffffff; stroke-linejoin: miter"/>
   </g>
   <g id="patch_26">
    <path d="M 1017.864818 2080.894375 
L 1048.876364 2080.894375 
L 1048.876364 2080.894375 
L 1017.864818 2080.894375 
z
" clip-path="url(#p44acef546c)" style="fill: #ffa500; fill-opacity: 0.5; stroke: #ffffff; stroke-linejoin: miter"/>
   </g>
   <g id="patch_27">
    <path d="M 1048.876364 2080.894375 
L 1079.887909 2080.894375 
L 1079.887909 2080.894375 
L 1048.876364 2080.894375 
z
" clip-path="url(#p44acef546c)" style="fill: #ffa500; fill-opacity: 0.5; stroke: #ffffff; stroke-linejoin: miter"/>
   </g>
   <g id="patch_28">
    <path d="M 1079.887909 2080.894375 
L 1110.899455 2080.894375 
L 1110.899455 2080.894375 
L 1079.887909 2080.894375 
z
" clip-path="url(#p44acef546c)" style="fill: #ffa500; fill-opacity: 0.5; stroke: #ffffff; stroke-linejoin: miter"/>
   </g>
   <g id="patch_29">
    <path d="M 1110.899455 2080.894375 
L 1141.911 2080.894375 
L 1141.911 2080.894375 
L 1110.899455 2080.894375 
z
" clip-path="url(#p44acef546c)" style="fill: #ffa500; fill-opacity: 0.5; stroke: #ffffff; stroke-linejoin: miter"/>
   </g>
   <g id="patch_30">
    <path d="M 1141.911 2080.894375 
L 1172.922545 2080.894375 
L 1172.922545 2080.894375 
L 1141.911 2080.894375 
z
" clip-path="url(#p44acef546c)" style="fill: #ffa500; fill-opacity: 0.5; stroke: #ffffff; stroke-linejoin: miter"/>
   </g>
   <g id="patch_31">
    <path d="M 1172.922545 2080.894375 
L 1203.934091 2080.894375 
L 1203.934091 2080.894375 
L 1172.922545 2080.894375 
z
" clip-path="url(#p44acef546c)" style="fill: #ffa500; fill-opacity: 0.5; stroke: #ffffff; stroke-linejoin: miter"/>
   </g>
   <g id="patch_32">
    <path d="M 1203.934091 2080.894375 
L 1234.945636 2080.894375 
L 1234.945636 2080.894375 
L 1203.934091 2080.894375 
z
" clip-path="url(#p44acef546c)" style="fill: #ffa500; fill-opacity: 0.5; stroke: #ffffff; stroke-linejoin: miter"/>
   </g>
   <g id="patch_33">
    <path d="M 1234.945636 2080.894375 
L 1265.957182 2080.894375 
L 1265.957182 2080.894375 
L 1234.945636 2080.894375 
z
" clip-path="url(#p44acef546c)" style="fill: #ffa500; fill-opacity: 0.5; stroke: #ffffff; stroke-linejoin: miter"/>
   </g>
   <g id="patch_34">
    <path d="M 1265.957182 2080.894375 
L 1296.968727 2080.894375 
L 1296.968727 2080.894375 
L 1265.957182 2080.894375 
z
" clip-path="url(#p44acef546c)" style="fill: #ffa500; fill-opacity: 0.5; stroke: #ffffff; stroke-linejoin: miter"/>
   </g>
   <g id="patch_35">
    <path d="M 1296.968727 2080.894375 
L 1327.980273 2080.894375 
L 1327.980273 2080.894375 
L 1296.968727 2080.894375 
z
" clip-path="url(#p44acef546c)" style="fill: #ffa500; fill-opacity: 0.5; stroke: #ffffff; stroke-linejoin: miter"/>
   </g>
   <g id="patch_36">
    <path d="M 1327.980273 2080.894375 
L 1358.991818 2080.894375 
L 1358.991818 2080.894375 
L 1327.980273 2080.894375 
z
" clip-path="url(#p44acef546c)" style="fill: #ffa500; fill-opacity: 0.5; stroke: #ffffff; stroke-linejoin: miter"/>
   </g>
   <g id="patch_37">
    <path d="M 1358.991818 2080.894375 
L 1390.003364 2080.894375 
L 1390.003364 2080.894375 
L 1358.991818 2080.894375 
z
" clip-path="url(#p44acef546c)" style="fill: #ffa500; fill-opacity: 0.5; stroke: #ffffff; stroke-linejoin: miter"/>
   </g>
   <g id="patch_38">
    <path d="M 1390.003364 2080.894375 
L 1421.014909 2080.894375 
L 1421.014909 2080.894375 
L 1390.003364 2080.894375 
z
" clip-path="url(#p44acef546c)" style="fill: #ffa500; fill-opacity: 0.5; stroke: #ffffff; stroke-linejoin: miter"/>
   </g>
   <g id="patch_39">
    <path d="M 1421.014909 2080.894375 
L 1452.026455 2080.894375 
L 1452.026455 2080.894375 
L 1421.014909 2080.894375 
z
" clip-path="url(#p44acef546c)" style="fill: #ffa500; fill-opacity: 0.5; stroke: #ffffff; stroke-linejoin: miter"/>
   </g>
   <g id="patch_40">
    <path d="M 1452.026455 2080.894375 
L 1483.038 2080.894375 
L 1483.038 2080.894375 
L 1452.026455 2080.894375 
z
" clip-path="url(#p44acef546c)" style="fill: #ffa500; fill-opacity: 0.5; stroke: #ffffff; stroke-linejoin: miter"/>
   </g>
   <g id="patch_41">
    <path d="M 1483.038 2080.894375 
L 1514.049545 2080.894375 
L 1514.049545 2080.894375 
L 1483.038 2080.894375 
z
" clip-path="url(#p44acef546c)" style="fill: #ffa500; fill-opacity: 0.5; stroke: #ffffff; stroke-linejoin: miter"/>
   </g>
   <g id="patch_42">
    <path d="M 1514.049545 2080.894375 
L 1545.061091 2080.894375 
L 1545.061091 2080.894375 
L 1514.049545 2080.894375 
z
" clip-path="url(#p44acef546c)" style="fill: #ffa500; fill-opacity: 0.5; stroke: #ffffff; stroke-linejoin: miter"/>
   </g>
   <g id="patch_43">
    <path d="M 1545.061091 2080.894375 
L 1576.072636 2080.894375 
L 1576.072636 2080.894375 
L 1545.061091 2080.894375 
z
" clip-path="url(#p44acef546c)" style="fill: #ffa500; fill-opacity: 0.5; stroke: #ffffff; stroke-linejoin: miter"/>
   </g>
   <g id="patch_44">
    <path d="M 1576.072636 2080.894375 
L 1607.084182 2080.894375 
L 1607.084182 2080.894375 
L 1576.072636 2080.894375 
z
" clip-path="url(#p44acef546c)" style="fill: #ffa500; fill-opacity: 0.5; stroke: #ffffff; stroke-linejoin: miter"/>
   </g>
   <g id="patch_45">
    <path d="M 1607.084182 2080.894375 
L 1638.095727 2080.894375 
L 1638.095727 2080.894375 
L 1607.084182 2080.894375 
z
" clip-path="url(#p44acef546c)" style="fill: #ffa500; fill-opacity: 0.5; stroke: #ffffff; stroke-linejoin: miter"/>
   </g>
   <g id="patch_46">
    <path d="M 1638.095727 2080.894375 
L 1669.107273 2080.894375 
L 1669.107273 2080.894375 
L 1638.095727 2080.894375 
z
" clip-path="url(#p44acef546c)" style="fill: #ffa500; fill-opacity: 0.5; stroke: #ffffff; stroke-linejoin: miter"/>
   </g>
   <g id="patch_47">
    <path d="M 1669.107273 2080.894375 
L 1700.118818 2080.894375 
L 1700.118818 2080.894375 
L 1669.107273 2080.894375 
z
" clip-path="url(#p44acef546c)" style="fill: #ffa500; fill-opacity: 0.5; stroke: #ffffff; stroke-linejoin: miter"/>
   </g>
   <g id="patch_48">
    <path d="M 1700.118818 2080.894375 
L 1731.130364 2080.894375 
L 1731.130364 2080.894375 
L 1700.118818 2080.894375 
z
" clip-path="url(#p44acef546c)" style="fill: #ffa500; fill-opacity: 0.5; stroke: #ffffff; stroke-linejoin: miter"/>
   </g>
   <g id="patch_49">
    <path d="M 1731.130364 2080.894375 
L 1762.141909 2080.894375 
L 1762.141909 2080.894375 
L 1731.130364 2080.894375 
z
" clip-path="url(#p44acef546c)" style="fill: #ffa500; fill-opacity: 0.5; stroke: #ffffff; stroke-linejoin: miter"/>
   </g>
   <g id="patch_50">
    <path d="M 1762.141909 2080.894375 
L 1793.153455 2080.894375 
L 1793.153455 2080.894375 
L 1762.141909 2080.894375 
z
" clip-path="url(#p44acef546c)" style="fill: #ffa500; fill-opacity: 0.5; stroke: #ffffff; stroke-linejoin: miter"/>
   </g>
   <g id="patch_51">
    <path d="M 1793.153455 2080.894375 
L 1824.165 2080.894375 
L 1824.165 2080.894375 
L 1793.153455 2080.894375 
z
" clip-path="url(#p44acef546c)" style="fill: #ffa500; fill-opacity: 0.5; stroke: #ffffff; stroke-linejoin: miter"/>
   </g>
   <g id="patch_52">
    <path d="M 1824.165 2080.894375 
L 1855.176545 2080.894375 
L 1855.176545 2080.894375 
L 1824.165 2080.894375 
z
" clip-path="url(#p44acef546c)" style="fill: #ffa500; fill-opacity: 0.5; stroke: #ffffff; stroke-linejoin: miter"/>
   </g>
   <g id="patch_53">
    <path d="M 1855.176545 2080.894375 
L 1886.188091 2080.894375 
L 1886.188091 2080.894375 
L 1855.176545 2080.894375 
z
" clip-path="url(#p44acef546c)" style="fill: #ffa500; fill-opacity: 0.5; stroke: #ffffff; stroke-linejoin: miter"/>
   </g>
   <g id="patch_54">
    <path d="M 1886.188091 2080.894375 
L 1917.199636 2080.894375 
L 1917.199636 2080.894375 
L 1886.188091 2080.894375 
z
" clip-path="url(#p44acef546c)" style="fill: #ffa500; fill-opacity: 0.5; stroke: #ffffff; stroke-linejoin: miter"/>
   </g>
   <g id="patch_55">
    <path d="M 1917.199636 2080.894375 
L 1948.211182 2080.894375 
L 1948.211182 2080.894375 
L 1917.199636 2080.894375 
z
" clip-path="url(#p44acef546c)" style="fill: #ffa500; fill-opacity: 0.5; stroke: #ffffff; stroke-linejoin: miter"/>
   </g>
   <g id="patch_56">
    <path d="M 1948.211182 2080.894375 
L 1979.222727 2080.894375 
L 1979.222727 2080.894375 
L 1948.211182 2080.894375 
z
" clip-path="url(#p44acef546c)" style="fill: #ffa500; fill-opacity: 0.5; stroke: #ffffff; stroke-linejoin: miter"/>
   </g>
   <g id="patch_57">
    <path d="M 1979.222727 2080.894375 
L 2010.234273 2080.894375 
L 2010.234273 2080.894375 
L 1979.222727 2080.894375 
z
" clip-path="url(#p44acef546c)" style="fill: #ffa500; fill-opacity: 0.5; stroke: #ffffff; stroke-linejoin: miter"/>
   </g>
   <g id="patch_58">
    <path d="M 2010.234273 2080.894375 
L 2041.245818 2080.894375 
L 2041.245818 2080.894375 
L 2010.234273 2080.894375 
z
" clip-path="url(#p44acef546c)" style="fill: #ffa500; fill-opacity: 0.5; stroke: #ffffff; stroke-linejoin: miter"/>
   </g>
   <g id="patch_59">
    <path d="M 2041.245818 2080.894375 
L 2072.257364 2080.894375 
L 2072.257364 2080.894375 
L 2041.245818 2080.894375 
z
" clip-path="url(#p44acef546c)" style="fill: #ffa500; fill-opacity: 0.5; stroke: #ffffff; stroke-linejoin: miter"/>
   </g>
   <g id="patch_60">
    <path d="M 2072.257364 2080.894375 
L 2103.268909 2080.894375 
L 2103.268909 2080.894375 
L 2072.257364 2080.894375 
z
" clip-path="url(#p44acef546c)" style="fill: #ffa500; fill-opacity: 0.5; stroke: #ffffff; stroke-linejoin: miter"/>
   </g>
   <g id="patch_61">
    <path d="M 2103.268909 2080.894375 
L 2134.280455 2080.894375 
L 2134.280455 2080.894375 
L 2103.268909 2080.894375 
z
" clip-path="url(#p44acef546c)" style="fill: #ffa500; fill-opacity: 0.5; stroke: #ffffff; stroke-linejoin: miter"/>
   </g>
   <g id="patch_62">
    <path d="M 2134.280455 2080.894375 
L 2165.292 2080.894375 
L 2165.292 2080.894375 
L 2134.280455 2080.894375 
z
" clip-path="url(#p44acef546c)" style="fill: #ffa500; fill-opacity: 0.5; stroke: #ffffff; stroke-linejoin: miter"/>
   </g>
   <g id="patch_63">
    <path d="M 2165.292 2080.894375 
L 2196.303545 2080.894375 
L 2196.303545 2080.894375 
L 2165.292 2080.894375 
z
" clip-path="url(#p44acef546c)" style="fill: #ffa500; fill-opacity: 0.5; stroke: #ffffff; stroke-linejoin: miter"/>
   </g>
   <g id="patch_64">
    <path d="M 2196.303545 2080.894375 
L 2227.315091 2080.894375 
L 2227.315091 2080.894375 
L 2196.303545 2080.894375 
z
" clip-path="url(#p44acef546c)" style="fill: #ffa500; fill-opacity: 0.5; stroke: #ffffff; stroke-linejoin: miter"/>
   </g>
   <g id="patch_65">
    <path d="M 2227.315091 2080.894375 
L 2258.326636 2080.894375 
L 2258.326636 2080.894375 
L 2227.315091 2080.894375 
z
" clip-path="url(#p44acef546c)" style="fill: #ffa500; fill-opacity: 0.5; stroke: #ffffff; stroke-linejoin: miter"/>
   </g>
   <g id="patch_66">
    <path d="M 2258.326636 2080.894375 
L 2289.338182 2080.894375 
L 2289.338182 2080.894375 
L 2258.326636 2080.894375 
z
" clip-path="url(#p44acef546c)" style="fill: #ffa500; fill-opacity: 0.5; stroke: #ffffff; stroke-linejoin: miter"/>
   </g>
   <g id="patch_67">
    <path d="M 2289.338182 2080.894375 
L 2320.349727 2080.894375 
L 2320.349727 2080.894375 
L 2289.338182 2080.894375 
z
" clip-path="url(#p44acef546c)" style="fill: #ffa500; fill-opacity: 0.5; stroke: #ffffff; stroke-linejoin: miter"/>
   </g>
   <g id="patch_68">
    <path d="M 2320.349727 2080.894375 
L 2351.361273 2080.894375 
L 2351.361273 2080.894375 
L 2320.349727 2080.894375 
z
" clip-path="url(#p44acef546c)" style="fill: #ffa500; fill-opacity: 0.5; stroke: #ffffff; stroke-linejoin: miter"/>
   </g>
   <g id="patch_69">
    <path d="M 2351.361273 2080.894375 
L 2382.372818 2080.894375 
L 2382.372818 2080.894375 
L 2351.361273 2080.894375 
z
" clip-path="url(#p44acef546c)" style="fill: #ffa500; fill-opacity: 0.5; stroke: #ffffff; stroke-linejoin: miter"/>
   </g>
   <g id="patch_70">
    <path d="M 2382.372818 2080.894375 
L 2413.384364 2080.894375 
L 2413.384364 2080.894375 
L 2382.372818 2080.894375 
z
" clip-path="url(#p44acef546c)" style="fill: #ffa500; fill-opacity: 0.5; stroke: #ffffff; stroke-linejoin: miter"/>
   </g>
   <g id="patch_71">
    <path d="M 2413.384364 2080.894375 
L 2444.395909 2080.894375 
L 2444.395909 2080.894375 
L 2413.384364 2080.894375 
z
" clip-path="url(#p44acef546c)" style="fill: #ffa500; fill-opacity: 0.5; stroke: #ffffff; stroke-linejoin: miter"/>
   </g>
   <g id="patch_72">
    <path d="M 2444.395909 2080.894375 
L 2475.407455 2080.894375 
L 2475.407455 2080.894375 
L 2444.395909 2080.894375 
z
" clip-path="url(#p44acef546c)" style="fill: #ffa500; fill-opacity: 0.5; stroke: #ffffff; stroke-linejoin: miter"/>
   </g>
   <g id="patch_73">
    <path d="M 2475.407455 2080.894375 
L 2506.419 2080.894375 
L 2506.419 2080.894375 
L 2475.407455 2080.894375 
z
" clip-path="url(#p44acef546c)" style="fill: #ffa500; fill-opacity: 0.5; stroke: #ffffff; stroke-linejoin: miter"/>
   </g>
   <g id="patch_74">
    <path d="M 2506.419 2080.894375 
L 2537.430545 2080.894375 
L 2537.430545 2080.894375 
L 2506.419 2080.894375 
z
" clip-path="url(#p44acef546c)" style="fill: #ffa500; fill-opacity: 0.5; stroke: #ffffff; stroke-linejoin: miter"/>
   </g>
   <g id="patch_75">
    <path d="M 2537.430545 2080.894375 
L 2568.442091 2080.894375 
L 2568.442091 2080.894375 
L 2537.430545 2080.894375 
z
" clip-path="url(#p44acef546c)" style="fill: #ffa500; fill-opacity: 0.5; stroke: #ffffff; stroke-linejoin: miter"/>
   </g>
   <g id="patch_76">
    <path d="M 2568.442091 2080.894375 
L 2599.453636 2080.894375 
L 2599.453636 2080.894375 
L 2568.442091 2080.894375 
z
" clip-path="url(#p44acef546c)" style="fill: #ffa500; fill-opacity: 0.5; stroke: #ffffff; stroke-linejoin: miter"/>
   </g>
   <g id="patch_77">
    <path d="M 2599.453636 2080.894375 
L 2630.465182 2080.894375 
L 2630.465182 2080.894375 
L 2599.453636 2080.894375 
z
" clip-path="url(#p44acef546c)" style="fill: #ffa500; fill-opacity: 0.5; stroke: #ffffff; stroke-linejoin: miter"/>
   </g>
   <g id="patch_78">
    <path d="M 2630.465182 2080.894375 
L 2661.476727 2080.894375 
L 2661.476727 2080.894375 
L 2630.465182 2080.894375 
z
" clip-path="url(#p44acef546c)" style="fill: #ffa500; fill-opacity: 0.5; stroke: #ffffff; stroke-linejoin: miter"/>
   </g>
   <g id="patch_79">
    <path d="M 2661.476727 2080.894375 
L 2692.488273 2080.894375 
L 2692.488273 2080.894375 
L 2661.476727 2080.894375 
z
" clip-path="url(#p44acef546c)" style="fill: #ffa500; fill-opacity: 0.5; stroke: #ffffff; stroke-linejoin: miter"/>
   </g>
   <g id="patch_80">
    <path d="M 2692.488273 2080.894375 
L 2723.499818 2080.894375 
L 2723.499818 2080.894375 
L 2692.488273 2080.894375 
z
" clip-path="url(#p44acef546c)" style="fill: #ffa500; fill-opacity: 0.5; stroke: #ffffff; stroke-linejoin: miter"/>
   </g>
   <g id="patch_81">
    <path d="M 2723.499818 2080.894375 
L 2754.511364 2080.894375 
L 2754.511364 2080.894375 
L 2723.499818 2080.894375 
z
" clip-path="url(#p44acef546c)" style="fill: #ffa500; fill-opacity: 0.5; stroke: #ffffff; stroke-linejoin: miter"/>
   </g>
   <g id="patch_82">
    <path d="M 2754.511364 2080.894375 
L 2785.522909 2080.894375 
L 2785.522909 2080.894375 
L 2754.511364 2080.894375 
z
" clip-path="url(#p44acef546c)" style="fill: #ffa500; fill-opacity: 0.5; stroke: #ffffff; stroke-linejoin: miter"/>
   </g>
   <g id="patch_83">
    <path d="M 2785.522909 2080.894375 
L 2816.534455 2080.894375 
L 2816.534455 2080.894375 
L 2785.522909 2080.894375 
z
" clip-path="url(#p44acef546c)" style="fill: #ffa500; fill-opacity: 0.5; stroke: #ffffff; stroke-linejoin: miter"/>
   </g>
   <g id="patch_84">
    <path d="M 2816.534455 2080.894375 
L 2847.546 2080.894375 
L 2847.546 2080.894375 
L 2816.534455 2080.894375 
z
" clip-path="url(#p44acef546c)" style="fill: #ffa500; fill-opacity: 0.5; stroke: #ffffff; stroke-linejoin: miter"/>
   </g>
   <g id="patch_85">
    <path d="M 2847.546 2080.894375 
L 2878.557545 2080.894375 
L 2878.557545 2066.500442 
L 2847.546 2066.500442 
z
" clip-path="url(#p44acef546c)" style="fill: #ffa500; fill-opacity: 0.5; stroke: #ffffff; stroke-linejoin: miter"/>
   </g>
   <g id="patch_86">
    <path d="M 2878.557545 2080.894375 
L 2909.569091 2080.894375 
L 2909.569091 2066.500442 
L 2878.557545 2066.500442 
z
" clip-path="url(#p44acef546c)" style="fill: #ffa500; fill-opacity: 0.5; stroke: #ffffff; stroke-linejoin: miter"/>
   </g>
   <g id="patch_87">
    <path d="M 2909.569091 2080.894375 
L 2940.580636 2080.894375 
L 2940.580636 1893.773246 
L 2909.569091 1893.773246 
z
" clip-path="url(#p44acef546c)" style="fill: #ffa500; fill-opacity: 0.5; stroke: #ffffff; stroke-linejoin: miter"/>
   </g>
   <g id="patch_88">
    <path d="M 2940.580636 2080.894375 
L 2971.592182 2080.894375 
L 2971.592182 2066.500442 
L 2940.580636 2066.500442 
z
" clip-path="url(#p44acef546c)" style="fill: #ffa500; fill-opacity: 0.5; stroke: #ffffff; stroke-linejoin: miter"/>
   </g>
   <g id="patch_89">
    <path d="M 2971.592182 2080.894375 
L 3002.603727 2080.894375 
L 3002.603727 2052.106509 
L 2971.592182 2052.106509 
z
" clip-path="url(#p44acef546c)" style="fill: #ffa500; fill-opacity: 0.5; stroke: #ffffff; stroke-linejoin: miter"/>
   </g>
   <g id="patch_90">
    <path d="M 3002.603727 2080.894375 
L 3033.615273 2080.894375 
L 3033.615273 2052.106509 
L 3002.603727 2052.106509 
z
" clip-path="url(#p44acef546c)" style="fill: #ffa500; fill-opacity: 0.5; stroke: #ffffff; stroke-linejoin: miter"/>
   </g>
   <g id="patch_91">
    <path d="M 3033.615273 2080.894375 
L 3064.626818 2080.894375 
L 3064.626818 756.652541 
L 3033.615273 756.652541 
z
" clip-path="url(#p44acef546c)" style="fill: #ffa500; fill-opacity: 0.5; stroke: #ffffff; stroke-linejoin: miter"/>
   </g>
   <g id="patch_92">
    <path d="M 3064.626818 2080.894375 
L 3095.638364 2080.894375 
L 3095.638364 2037.712576 
L 3064.626818 2037.712576 
z
" clip-path="url(#p44acef546c)" style="fill: #ffa500; fill-opacity: 0.5; stroke: #ffffff; stroke-linejoin: miter"/>
   </g>
   <g id="patch_93">
    <path d="M 3095.638364 2080.894375 
L 3126.649909 2080.894375 
L 3126.649909 1577.106721 
L 3095.638364 1577.106721 
z
" clip-path="url(#p44acef546c)" style="fill: #ffa500; fill-opacity: 0.5; stroke: #ffffff; stroke-linejoin: miter"/>
   </g>
   <g id="patch_94">
    <path d="M 3126.649909 2080.894375 
L 3157.661455 2080.894375 
L 3157.661455 1649.076386 
L 3126.649909 1649.076386 
z
" clip-path="url(#p44acef546c)" style="fill: #ffa500; fill-opacity: 0.5; stroke: #ffffff; stroke-linejoin: miter"/>
   </g>
   <g id="patch_95">
    <path d="M 3157.661455 2080.894375 
L 3188.673 2080.894375 
L 3188.673 2023.318643 
L 3157.661455 2023.318643 
z
" clip-path="url(#p44acef546c)" style="fill: #ffa500; fill-opacity: 0.5; stroke: #ffffff; stroke-linejoin: miter"/>
   </g>
   <g id="patch_96">
    <path d="M 3188.673 2080.894375 
L 3219.684545 2080.894375 
L 3219.684545 2066.500442 
L 3188.673 2066.500442 
z
" clip-path="url(#p44acef546c)" style="fill: #ffa500; fill-opacity: 0.5; stroke: #ffffff; stroke-linejoin: miter"/>
   </g>
   <g id="patch_97">
    <path d="M 3219.684545 2080.894375 
L 3250.696091 2080.894375 
L 3250.696091 1980.136844 
L 3219.684545 1980.136844 
z
" clip-path="url(#p44acef546c)" style="fill: #ffa500; fill-opacity: 0.5; stroke: #ffffff; stroke-linejoin: miter"/>
   </g>
   <g id="patch_98">
    <path d="M 3250.696091 2080.894375 
L 3281.707636 2080.894375 
L 3281.707636 2080.894375 
L 3250.696091 2080.894375 
z
" clip-path="url(#p44acef546c)" style="fill: #ffa500; fill-opacity: 0.5; stroke: #ffffff; stroke-linejoin: miter"/>
   </g>
   <g id="patch_99">
    <path d="M 3281.707636 2080.894375 
L 3312.719182 2080.894375 
L 3312.719182 2080.894375 
L 3281.707636 2080.894375 
z
" clip-path="url(#p44acef546c)" style="fill: #ffa500; fill-opacity: 0.5; stroke: #ffffff; stroke-linejoin: miter"/>
   </g>
   <g id="patch_100">
    <path d="M 3312.719182 2080.894375 
L 3343.730727 2080.894375 
L 3343.730727 2080.894375 
L 3312.719182 2080.894375 
z
" clip-path="url(#p44acef546c)" style="fill: #ffa500; fill-opacity: 0.5; stroke: #ffffff; stroke-linejoin: miter"/>
   </g>
   <g id="patch_101">
    <path d="M 3343.730727 2080.894375 
L 3374.742273 2080.894375 
L 3374.742273 2080.894375 
L 3343.730727 2080.894375 
z
" clip-path="url(#p44acef546c)" style="fill: #ffa500; fill-opacity: 0.5; stroke: #ffffff; stroke-linejoin: miter"/>
   </g>
   <g id="patch_102">
    <path d="M 304.599273 2080.894375 
L 335.610818 2080.894375 
L 335.610818 1836.197514 
L 304.599273 1836.197514 
z
" clip-path="url(#p44acef546c)" style="fill: #0000ff; fill-opacity: 0.5; stroke: #ffffff; stroke-linejoin: miter"/>
   </g>
   <g id="patch_103">
    <path d="M 335.610818 2080.894375 
L 366.622364 2080.894375 
L 366.622364 1836.197514 
L 335.610818 1836.197514 
z
" clip-path="url(#p44acef546c)" style="fill: #0000ff; fill-opacity: 0.5; stroke: #ffffff; stroke-linejoin: miter"/>
   </g>
   <g id="patch_104">
    <path d="M 366.622364 2080.894375 
L 397.633909 2080.894375 
L 397.633909 1332.40986 
L 366.622364 1332.40986 
z
" clip-path="url(#p44acef546c)" style="fill: #0000ff; fill-opacity: 0.5; stroke: #ffffff; stroke-linejoin: miter"/>
   </g>
   <g id="patch_105">
    <path d="M 397.633909 2080.894375 
L 428.645455 2080.894375 
L 428.645455 1202.864463 
L 397.633909 1202.864463 
z
" clip-path="url(#p44acef546c)" style="fill: #0000ff; fill-opacity: 0.5; stroke: #ffffff; stroke-linejoin: miter"/>
   </g>
   <g id="patch_106">
    <path d="M 428.645455 2080.894375 
L 459.657 2080.894375 
L 459.657 2037.712576 
L 428.645455 2037.712576 
z
" clip-path="url(#p44acef546c)" style="fill: #0000ff; fill-opacity: 0.5; stroke: #ffffff; stroke-linejoin: miter"/>
   </g>
   <g id="patch_107">
    <path d="M 459.657 2080.894375 
L 490.668545 2080.894375 
L 490.668545 2080.894375 
L 459.657 2080.894375 
z
" clip-path="url(#p44acef546c)" style="fill: #0000ff; fill-opacity: 0.5; stroke: #ffffff; stroke-linejoin: miter"/>
   </g>
   <g id="patch_108">
    <path d="M 490.668545 2080.894375 
L 521.680091 2080.894375 
L 521.680091 2080.894375 
L 490.668545 2080.894375 
z
" clip-path="url(#p44acef546c)" style="fill: #0000ff; fill-opacity: 0.5; stroke: #ffffff; stroke-linejoin: miter"/>
   </g>
   <g id="patch_109">
    <path d="M 521.680091 2080.894375 
L 552.691636 2080.894375 
L 552.691636 2080.894375 
L 521.680091 2080.894375 
z
" clip-path="url(#p44acef546c)" style="fill: #0000ff; fill-opacity: 0.5; stroke: #ffffff; stroke-linejoin: miter"/>
   </g>
   <g id="patch_110">
    <path d="M 552.691636 2080.894375 
L 583.703182 2080.894375 
L 583.703182 2080.894375 
L 552.691636 2080.894375 
z
" clip-path="url(#p44acef546c)" style="fill: #0000ff; fill-opacity: 0.5; stroke: #ffffff; stroke-linejoin: miter"/>
   </g>
   <g id="patch_111">
    <path d="M 583.703182 2080.894375 
L 614.714727 2080.894375 
L 614.714727 2080.894375 
L 583.703182 2080.894375 
z
" clip-path="url(#p44acef546c)" style="fill: #0000ff; fill-opacity: 0.5; stroke: #ffffff; stroke-linejoin: miter"/>
   </g>
   <g id="patch_112">
    <path d="M 614.714727 2080.894375 
L 645.726273 2080.894375 
L 645.726273 2066.500442 
L 614.714727 2066.500442 
z
" clip-path="url(#p44acef546c)" style="fill: #0000ff; fill-opacity: 0.5; stroke: #ffffff; stroke-linejoin: miter"/>
   </g>
   <g id="patch_113">
    <path d="M 645.726273 2080.894375 
L 676.737818 2080.894375 
L 676.737818 2080.894375 
L 645.726273 2080.894375 
z
" clip-path="url(#p44acef546c)" style="fill: #0000ff; fill-opacity: 0.5; stroke: #ffffff; stroke-linejoin: miter"/>
   </g>
   <g id="patch_114">
    <path d="M 676.737818 2080.894375 
L 707.749364 2080.894375 
L 707.749364 1793.015715 
L 676.737818 1793.015715 
z
" clip-path="url(#p44acef546c)" style="fill: #0000ff; fill-opacity: 0.5; stroke: #ffffff; stroke-linejoin: miter"/>
   </g>
   <g id="patch_115">
    <path d="M 707.749364 2080.894375 
L 738.760909 2080.894375 
L 738.760909 1965.742911 
L 707.749364 1965.742911 
z
" clip-path="url(#p44acef546c)" style="fill: #0000ff; fill-opacity: 0.5; stroke: #ffffff; stroke-linejoin: miter"/>
   </g>
   <g id="patch_116">
    <path d="M 738.760909 2080.894375 
L 769.772455 2080.894375 
L 769.772455 2066.500442 
L 738.760909 2066.500442 
z
" clip-path="url(#p44acef546c)" style="fill: #0000ff; fill-opacity: 0.5; stroke: #ffffff; stroke-linejoin: miter"/>
   </g>
   <g id="patch_117">
    <path d="M 769.772455 2080.894375 
L 800.784 2080.894375 
L 800.784 2080.894375 
L 769.772455 2080.894375 
z
" clip-path="url(#p44acef546c)" style="fill: #0000ff; fill-opacity: 0.5; stroke: #ffffff; stroke-linejoin: miter"/>
   </g>
   <g id="patch_118">
    <path d="M 800.784 2080.894375 
L 831.795545 2080.894375 
L 831.795545 2037.712576 
L 800.784 2037.712576 
z
" clip-path="url(#p44acef546c)" style="fill: #0000ff; fill-opacity: 0.5; stroke: #ffffff; stroke-linejoin: miter"/>
   </g>
   <g id="patch_119">
    <path d="M 831.795545 2080.894375 
L 862.807091 2080.894375 
L 862.807091 1102.106932 
L 831.795545 1102.106932 
z
" clip-path="url(#p44acef546c)" style="fill: #0000ff; fill-opacity: 0.5; stroke: #ffffff; stroke-linejoin: miter"/>
   </g>
   <g id="patch_120">
    <path d="M 862.807091 2080.894375 
L 893.818636 2080.894375 
L 893.818636 1778.621782 
L 862.807091 1778.621782 
z
" clip-path="url(#p44acef546c)" style="fill: #0000ff; fill-opacity: 0.5; stroke: #ffffff; stroke-linejoin: miter"/>
   </g>
   <g id="patch_121">
    <path d="M 893.818636 2080.894375 
L 924.830182 2080.894375 
L 924.830182 2023.318643 
L 893.818636 2023.318643 
z
" clip-path="url(#p44acef546c)" style="fill: #0000ff; fill-opacity: 0.5; stroke: #ffffff; stroke-linejoin: miter"/>
   </g>
   <g id="patch_122">
    <path d="M 924.830182 2080.894375 
L 955.841727 2080.894375 
L 955.841727 2080.894375 
L 924.830182 2080.894375 
z
" clip-path="url(#p44acef546c)" style="fill: #0000ff; fill-opacity: 0.5; stroke: #ffffff; stroke-linejoin: miter"/>
   </g>
   <g id="patch_123">
    <path d="M 955.841727 2080.894375 
L 986.853273 2080.894375 
L 986.853273 2080.894375 
L 955.841727 2080.894375 
z
" clip-path="url(#p44acef546c)" style="fill: #0000ff; fill-opacity: 0.5; stroke: #ffffff; stroke-linejoin: miter"/>
   </g>
   <g id="patch_124">
    <path d="M 986.853273 2080.894375 
L 1017.864818 2080.894375 
L 1017.864818 2080.894375 
L 986.853273 2080.894375 
z
" clip-path="url(#p44acef546c)" style="fill: #0000ff; fill-opacity: 0.5; stroke: #ffffff; stroke-linejoin: miter"/>
   </g>
   <g id="patch_125">
    <path d="M 1017.864818 2080.894375 
L 1048.876364 2080.894375 
L 1048.876364 2080.894375 
L 1017.864818 2080.894375 
z
" clip-path="url(#p44acef546c)" style="fill: #0000ff; fill-opacity: 0.5; stroke: #ffffff; stroke-linejoin: miter"/>
   </g>
   <g id="patch_126">
    <path d="M 1048.876364 2080.894375 
L 1079.887909 2080.894375 
L 1079.887909 2066.500442 
L 1048.876364 2066.500442 
z
" clip-path="url(#p44acef546c)" style="fill: #0000ff; fill-opacity: 0.5; stroke: #ffffff; stroke-linejoin: miter"/>
   </g>
   <g id="patch_127">
    <path d="M 1079.887909 2080.894375 
L 1110.899455 2080.894375 
L 1110.899455 2080.894375 
L 1079.887909 2080.894375 
z
" clip-path="url(#p44acef546c)" style="fill: #0000ff; fill-opacity: 0.5; stroke: #ffffff; stroke-linejoin: miter"/>
   </g>
   <g id="patch_128">
    <path d="M 1110.899455 2080.894375 
L 1141.911 2080.894375 
L 1141.911 2066.500442 
L 1110.899455 2066.500442 
z
" clip-path="url(#p44acef546c)" style="fill: #0000ff; fill-opacity: 0.5; stroke: #ffffff; stroke-linejoin: miter"/>
   </g>
   <g id="patch_129">
    <path d="M 1141.911 2080.894375 
L 1172.922545 2080.894375 
L 1172.922545 2080.894375 
L 1141.911 2080.894375 
z
" clip-path="url(#p44acef546c)" style="fill: #0000ff; fill-opacity: 0.5; stroke: #ffffff; stroke-linejoin: miter"/>
   </g>
   <g id="patch_130">
    <path d="M 1172.922545 2080.894375 
L 1203.934091 2080.894375 
L 1203.934091 2080.894375 
L 1172.922545 2080.894375 
z
" clip-path="url(#p44acef546c)" style="fill: #0000ff; fill-opacity: 0.5; stroke: #ffffff; stroke-linejoin: miter"/>
   </g>
   <g id="patch_131">
    <path d="M 1203.934091 2080.894375 
L 1234.945636 2080.894375 
L 1234.945636 2080.894375 
L 1203.934091 2080.894375 
z
" clip-path="url(#p44acef546c)" style="fill: #0000ff; fill-opacity: 0.5; stroke: #ffffff; stroke-linejoin: miter"/>
   </g>
   <g id="patch_132">
    <path d="M 1234.945636 2080.894375 
L 1265.957182 2080.894375 
L 1265.957182 2080.894375 
L 1234.945636 2080.894375 
z
" clip-path="url(#p44acef546c)" style="fill: #0000ff; fill-opacity: 0.5; stroke: #ffffff; stroke-linejoin: miter"/>
   </g>
   <g id="patch_133">
    <path d="M 1265.957182 2080.894375 
L 1296.968727 2080.894375 
L 1296.968727 2080.894375 
L 1265.957182 2080.894375 
z
" clip-path="url(#p44acef546c)" style="fill: #0000ff; fill-opacity: 0.5; stroke: #ffffff; stroke-linejoin: miter"/>
   </g>
   <g id="patch_134">
    <path d="M 1296.968727 2080.894375 
L 1327.980273 2080.894375 
L 1327.980273 2080.894375 
L 1296.968727 2080.894375 
z
" clip-path="url(#p44acef546c)" style="fill: #0000ff; fill-opacity: 0.5; stroke: #ffffff; stroke-linejoin: miter"/>
   </g>
   <g id="patch_135">
    <path d="M 1327.980273 2080.894375 
L 1358.991818 2080.894375 
L 1358.991818 2080.894375 
L 1327.980273 2080.894375 
z
" clip-path="url(#p44acef546c)" style="fill: #0000ff; fill-opacity: 0.5; stroke: #ffffff; stroke-linejoin: miter"/>
   </g>
   <g id="patch_136">
    <path d="M 1358.991818 2080.894375 
L 1390.003364 2080.894375 
L 1390.003364 2080.894375 
L 1358.991818 2080.894375 
z
" clip-path="url(#p44acef546c)" style="fill: #0000ff; fill-opacity: 0.5; stroke: #ffffff; stroke-linejoin: miter"/>
   </g>
   <g id="patch_137">
    <path d="M 1390.003364 2080.894375 
L 1421.014909 2080.894375 
L 1421.014909 1433.167391 
L 1390.003364 1433.167391 
z
" clip-path="url(#p44acef546c)" style="fill: #0000ff; fill-opacity: 0.5; stroke: #ffffff; stroke-linejoin: miter"/>
   </g>
   <g id="patch_138">
    <path d="M 1421.014909 2080.894375 
L 1452.026455 2080.894375 
L 1452.026455 137.713423 
L 1421.014909 137.713423 
z
" clip-path="url(#p44acef546c)" style="fill: #0000ff; fill-opacity: 0.5; stroke: #ffffff; stroke-linejoin: miter"/>
   </g>
   <g id="patch_139">
    <path d="M 1452.026455 2080.894375 
L 1483.038 2080.894375 
L 1483.038 2080.894375 
L 1452.026455 2080.894375 
z
" clip-path="url(#p44acef546c)" style="fill: #0000ff; fill-opacity: 0.5; stroke: #ffffff; stroke-linejoin: miter"/>
   </g>
   <g id="patch_140">
    <path d="M 1483.038 2080.894375 
L 1514.049545 2080.894375 
L 1514.049545 2080.894375 
L 1483.038 2080.894375 
z
" clip-path="url(#p44acef546c)" style="fill: #0000ff; fill-opacity: 0.5; stroke: #ffffff; stroke-linejoin: miter"/>
   </g>
   <g id="patch_141">
    <path d="M 1514.049545 2080.894375 
L 1545.061091 2080.894375 
L 1545.061091 2080.894375 
L 1514.049545 2080.894375 
z
" clip-path="url(#p44acef546c)" style="fill: #0000ff; fill-opacity: 0.5; stroke: #ffffff; stroke-linejoin: miter"/>
   </g>
   <g id="patch_142">
    <path d="M 1545.061091 2080.894375 
L 1576.072636 2080.894375 
L 1576.072636 2080.894375 
L 1545.061091 2080.894375 
z
" clip-path="url(#p44acef546c)" style="fill: #0000ff; fill-opacity: 0.5; stroke: #ffffff; stroke-linejoin: miter"/>
   </g>
   <g id="patch_143">
    <path d="M 1576.072636 2080.894375 
L 1607.084182 2080.894375 
L 1607.084182 2080.894375 
L 1576.072636 2080.894375 
z
" clip-path="url(#p44acef546c)" style="fill: #0000ff; fill-opacity: 0.5; stroke: #ffffff; stroke-linejoin: miter"/>
   </g>
   <g id="patch_144">
    <path d="M 1607.084182 2080.894375 
L 1638.095727 2080.894375 
L 1638.095727 2080.894375 
L 1607.084182 2080.894375 
z
" clip-path="url(#p44acef546c)" style="fill: #0000ff; fill-opacity: 0.5; stroke: #ffffff; stroke-linejoin: miter"/>
   </g>
   <g id="patch_145">
    <path d="M 1638.095727 2080.894375 
L 1669.107273 2080.894375 
L 1669.107273 2080.894375 
L 1638.095727 2080.894375 
z
" clip-path="url(#p44acef546c)" style="fill: #0000ff; fill-opacity: 0.5; stroke: #ffffff; stroke-linejoin: miter"/>
   </g>
   <g id="patch_146">
    <path d="M 1669.107273 2080.894375 
L 1700.118818 2080.894375 
L 1700.118818 2066.500442 
L 1669.107273 2066.500442 
z
" clip-path="url(#p44acef546c)" style="fill: #0000ff; fill-opacity: 0.5; stroke: #ffffff; stroke-linejoin: miter"/>
   </g>
   <g id="patch_147">
    <path d="M 1700.118818 2080.894375 
L 1731.130364 2080.894375 
L 1731.130364 2080.894375 
L 1700.118818 2080.894375 
z
" clip-path="url(#p44acef546c)" style="fill: #0000ff; fill-opacity: 0.5; stroke: #ffffff; stroke-linejoin: miter"/>
   </g>
   <g id="patch_148">
    <path d="M 1731.130364 2080.894375 
L 1762.141909 2080.894375 
L 1762.141909 2080.894375 
L 1731.130364 2080.894375 
z
" clip-path="url(#p44acef546c)" style="fill: #0000ff; fill-opacity: 0.5; stroke: #ffffff; stroke-linejoin: miter"/>
   </g>
   <g id="patch_149">
    <path d="M 1762.141909 2080.894375 
L 1793.153455 2080.894375 
L 1793.153455 2080.894375 
L 1762.141909 2080.894375 
z
" clip-path="url(#p44acef546c)" style="fill: #0000ff; fill-opacity: 0.5; stroke: #ffffff; stroke-linejoin: miter"/>
   </g>
   <g id="patch_150">
    <path d="M 1793.153455 2080.894375 
L 1824.165 2080.894375 
L 1824.165 2080.894375 
L 1793.153455 2080.894375 
z
" clip-path="url(#p44acef546c)" style="fill: #0000ff; fill-opacity: 0.5; stroke: #ffffff; stroke-linejoin: miter"/>
   </g>
   <g id="patch_151">
    <path d="M 1824.165 2080.894375 
L 1855.176545 2080.894375 
L 1855.176545 2080.894375 
L 1824.165 2080.894375 
z
" clip-path="url(#p44acef546c)" style="fill: #0000ff; fill-opacity: 0.5; stroke: #ffffff; stroke-linejoin: miter"/>
   </g>
   <g id="patch_152">
    <path d="M 1855.176545 2080.894375 
L 1886.188091 2080.894375 
L 1886.188091 2080.894375 
L 1855.176545 2080.894375 
z
" clip-path="url(#p44acef546c)" style="fill: #0000ff; fill-opacity: 0.5; stroke: #ffffff; stroke-linejoin: miter"/>
   </g>
   <g id="patch_153">
    <path d="M 1886.188091 2080.894375 
L 1917.199636 2080.894375 
L 1917.199636 2080.894375 
L 1886.188091 2080.894375 
z
" clip-path="url(#p44acef546c)" style="fill: #0000ff; fill-opacity: 0.5; stroke: #ffffff; stroke-linejoin: miter"/>
   </g>
   <g id="patch_154">
    <path d="M 1917.199636 2080.894375 
L 1948.211182 2080.894375 
L 1948.211182 2080.894375 
L 1917.199636 2080.894375 
z
" clip-path="url(#p44acef546c)" style="fill: #0000ff; fill-opacity: 0.5; stroke: #ffffff; stroke-linejoin: miter"/>
   </g>
   <g id="patch_155">
    <path d="M 1948.211182 2080.894375 
L 1979.222727 2080.894375 
L 1979.222727 2080.894375 
L 1948.211182 2080.894375 
z
" clip-path="url(#p44acef546c)" style="fill: #0000ff; fill-opacity: 0.5; stroke: #ffffff; stroke-linejoin: miter"/>
   </g>
   <g id="patch_156">
    <path d="M 1979.222727 2080.894375 
L 2010.234273 2080.894375 
L 2010.234273 2080.894375 
L 1979.222727 2080.894375 
z
" clip-path="url(#p44acef546c)" style="fill: #0000ff; fill-opacity: 0.5; stroke: #ffffff; stroke-linejoin: miter"/>
   </g>
   <g id="patch_157">
    <path d="M 2010.234273 2080.894375 
L 2041.245818 2080.894375 
L 2041.245818 2080.894375 
L 2010.234273 2080.894375 
z
" clip-path="url(#p44acef546c)" style="fill: #0000ff; fill-opacity: 0.5; stroke: #ffffff; stroke-linejoin: miter"/>
   </g>
   <g id="patch_158">
    <path d="M 2041.245818 2080.894375 
L 2072.257364 2080.894375 
L 2072.257364 2080.894375 
L 2041.245818 2080.894375 
z
" clip-path="url(#p44acef546c)" style="fill: #0000ff; fill-opacity: 0.5; stroke: #ffffff; stroke-linejoin: miter"/>
   </g>
   <g id="patch_159">
    <path d="M 2072.257364 2080.894375 
L 2103.268909 2080.894375 
L 2103.268909 2080.894375 
L 2072.257364 2080.894375 
z
" clip-path="url(#p44acef546c)" style="fill: #0000ff; fill-opacity: 0.5; stroke: #ffffff; stroke-linejoin: miter"/>
   </g>
   <g id="patch_160">
    <path d="M 2103.268909 2080.894375 
L 2134.280455 2080.894375 
L 2134.280455 2052.106509 
L 2103.268909 2052.106509 
z
" clip-path="url(#p44acef546c)" style="fill: #0000ff; fill-opacity: 0.5; stroke: #ffffff; stroke-linejoin: miter"/>
   </g>
   <g id="patch_161">
    <path d="M 2134.280455 2080.894375 
L 2165.292 2080.894375 
L 2165.292 2080.894375 
L 2134.280455 2080.894375 
z
" clip-path="url(#p44acef546c)" style="fill: #0000ff; fill-opacity: 0.5; stroke: #ffffff; stroke-linejoin: miter"/>
   </g>
   <g id="patch_162">
    <path d="M 2165.292 2080.894375 
L 2196.303545 2080.894375 
L 2196.303545 2023.318643 
L 2165.292 2023.318643 
z
" clip-path="url(#p44acef546c)" style="fill: #0000ff; fill-opacity: 0.5; stroke: #ffffff; stroke-linejoin: miter"/>
   </g>
   <g id="patch_163">
    <path d="M 2196.303545 2080.894375 
L 2227.315091 2080.894375 
L 2227.315091 1303.621994 
L 2196.303545 1303.621994 
z
" clip-path="url(#p44acef546c)" style="fill: #0000ff; fill-opacity: 0.5; stroke: #ffffff; stroke-linejoin: miter"/>
   </g>
   <g id="patch_164">
    <path d="M 2227.315091 2080.894375 
L 2258.326636 2080.894375 
L 2258.326636 2080.894375 
L 2227.315091 2080.894375 
z
" clip-path="url(#p44acef546c)" style="fill: #0000ff; fill-opacity: 0.5; stroke: #ffffff; stroke-linejoin: miter"/>
   </g>
   <g id="patch_165">
    <path d="M 2258.326636 2080.894375 
L 2289.338182 2080.894375 
L 2289.338182 2080.894375 
L 2258.326636 2080.894375 
z
" clip-path="url(#p44acef546c)" style="fill: #0000ff; fill-opacity: 0.5; stroke: #ffffff; stroke-linejoin: miter"/>
   </g>
   <g id="patch_166">
    <path d="M 2289.338182 2080.894375 
L 2320.349727 2080.894375 
L 2320.349727 2080.894375 
L 2289.338182 2080.894375 
z
" clip-path="url(#p44acef546c)" style="fill: #0000ff; fill-opacity: 0.5; stroke: #ffffff; stroke-linejoin: miter"/>
   </g>
   <g id="patch_167">
    <path d="M 2320.349727 2080.894375 
L 2351.361273 2080.894375 
L 2351.361273 2080.894375 
L 2320.349727 2080.894375 
z
" clip-path="url(#p44acef546c)" style="fill: #0000ff; fill-opacity: 0.5; stroke: #ffffff; stroke-linejoin: miter"/>
   </g>
   <g id="patch_168">
    <path d="M 2351.361273 2080.894375 
L 2382.372818 2080.894375 
L 2382.372818 2080.894375 
L 2351.361273 2080.894375 
z
" clip-path="url(#p44acef546c)" style="fill: #0000ff; fill-opacity: 0.5; stroke: #ffffff; stroke-linejoin: miter"/>
   </g>
   <g id="patch_169">
    <path d="M 2382.372818 2080.894375 
L 2413.384364 2080.894375 
L 2413.384364 2080.894375 
L 2382.372818 2080.894375 
z
" clip-path="url(#p44acef546c)" style="fill: #0000ff; fill-opacity: 0.5; stroke: #ffffff; stroke-linejoin: miter"/>
   </g>
   <g id="patch_170">
    <path d="M 2413.384364 2080.894375 
L 2444.395909 2080.894375 
L 2444.395909 2080.894375 
L 2413.384364 2080.894375 
z
" clip-path="url(#p44acef546c)" style="fill: #0000ff; fill-opacity: 0.5; stroke: #ffffff; stroke-linejoin: miter"/>
   </g>
   <g id="patch_171">
    <path d="M 2444.395909 2080.894375 
L 2475.407455 2080.894375 
L 2475.407455 2080.894375 
L 2444.395909 2080.894375 
z
" clip-path="url(#p44acef546c)" style="fill: #0000ff; fill-opacity: 0.5; stroke: #ffffff; stroke-linejoin: miter"/>
   </g>
   <g id="patch_172">
    <path d="M 2475.407455 2080.894375 
L 2506.419 2080.894375 
L 2506.419 2080.894375 
L 2475.407455 2080.894375 
z
" clip-path="url(#p44acef546c)" style="fill: #0000ff; fill-opacity: 0.5; stroke: #ffffff; stroke-linejoin: miter"/>
   </g>
   <g id="patch_173">
    <path d="M 2506.419 2080.894375 
L 2537.430545 2080.894375 
L 2537.430545 2080.894375 
L 2506.419 2080.894375 
z
" clip-path="url(#p44acef546c)" style="fill: #0000ff; fill-opacity: 0.5; stroke: #ffffff; stroke-linejoin: miter"/>
   </g>
   <g id="patch_174">
    <path d="M 2537.430545 2080.894375 
L 2568.442091 2080.894375 
L 2568.442091 2080.894375 
L 2537.430545 2080.894375 
z
" clip-path="url(#p44acef546c)" style="fill: #0000ff; fill-opacity: 0.5; stroke: #ffffff; stroke-linejoin: miter"/>
   </g>
   <g id="patch_175">
    <path d="M 2568.442091 2080.894375 
L 2599.453636 2080.894375 
L 2599.453636 2080.894375 
L 2568.442091 2080.894375 
z
" clip-path="url(#p44acef546c)" style="fill: #0000ff; fill-opacity: 0.5; stroke: #ffffff; stroke-linejoin: miter"/>
   </g>
   <g id="patch_176">
    <path d="M 2599.453636 2080.894375 
L 2630.465182 2080.894375 
L 2630.465182 2080.894375 
L 2599.453636 2080.894375 
z
" clip-path="url(#p44acef546c)" style="fill: #0000ff; fill-opacity: 0.5; stroke: #ffffff; stroke-linejoin: miter"/>
   </g>
   <g id="patch_177">
    <path d="M 2630.465182 2080.894375 
L 2661.476727 2080.894375 
L 2661.476727 2080.894375 
L 2630.465182 2080.894375 
z
" clip-path="url(#p44acef546c)" style="fill: #0000ff; fill-opacity: 0.5; stroke: #ffffff; stroke-linejoin: miter"/>
   </g>
   <g id="patch_178">
    <path d="M 2661.476727 2080.894375 
L 2692.488273 2080.894375 
L 2692.488273 2080.894375 
L 2661.476727 2080.894375 
z
" clip-path="url(#p44acef546c)" style="fill: #0000ff; fill-opacity: 0.5; stroke: #ffffff; stroke-linejoin: miter"/>
   </g>
   <g id="patch_179">
    <path d="M 2692.488273 2080.894375 
L 2723.499818 2080.894375 
L 2723.499818 2080.894375 
L 2692.488273 2080.894375 
z
" clip-path="url(#p44acef546c)" style="fill: #0000ff; fill-opacity: 0.5; stroke: #ffffff; stroke-linejoin: miter"/>
   </g>
   <g id="patch_180">
    <path d="M 2723.499818 2080.894375 
L 2754.511364 2080.894375 
L 2754.511364 2066.500442 
L 2723.499818 2066.500442 
z
" clip-path="url(#p44acef546c)" style="fill: #0000ff; fill-opacity: 0.5; stroke: #ffffff; stroke-linejoin: miter"/>
   </g>
   <g id="patch_181">
    <path d="M 2754.511364 2080.894375 
L 2785.522909 2080.894375 
L 2785.522909 2080.894375 
L 2754.511364 2080.894375 
z
" clip-path="url(#p44acef546c)" style="fill: #0000ff; fill-opacity: 0.5; stroke: #ffffff; stroke-linejoin: miter"/>
   </g>
   <g id="patch_182">
    <path d="M 2785.522909 2080.894375 
L 2816.534455 2080.894375 
L 2816.534455 2066.500442 
L 2785.522909 2066.500442 
z
" clip-path="url(#p44acef546c)" style="fill: #0000ff; fill-opacity: 0.5; stroke: #ffffff; stroke-linejoin: miter"/>
   </g>
   <g id="patch_183">
    <path d="M 2816.534455 2080.894375 
L 2847.546 2080.894375 
L 2847.546 1649.076386 
L 2816.534455 1649.076386 
z
" clip-path="url(#p44acef546c)" style="fill: #0000ff; fill-opacity: 0.5; stroke: #ffffff; stroke-linejoin: miter"/>
   </g>
   <g id="patch_184">
    <path d="M 2847.546 2080.894375 
L 2878.557545 2080.894375 
L 2878.557545 2052.106509 
L 2847.546 2052.106509 
z
" clip-path="url(#p44acef546c)" style="fill: #0000ff; fill-opacity: 0.5; stroke: #ffffff; stroke-linejoin: miter"/>
   </g>
   <g id="patch_185">
    <path d="M 2878.557545 2080.894375 
L 2909.569091 2080.894375 
L 2909.569091 2008.92471 
L 2878.557545 2008.92471 
z
" clip-path="url(#p44acef546c)" style="fill: #0000ff; fill-opacity: 0.5; stroke: #ffffff; stroke-linejoin: miter"/>
   </g>
   <g id="patch_186">
    <path d="M 2909.569091 2080.894375 
L 2940.580636 2080.894375 
L 2940.580636 1893.773246 
L 2909.569091 1893.773246 
z
" clip-path="url(#p44acef546c)" style="fill: #0000ff; fill-opacity: 0.5; stroke: #ffffff; stroke-linejoin: miter"/>
   </g>
   <g id="patch_187">
    <path d="M 2940.580636 2080.894375 
L 2971.592182 2080.894375 
L 2971.592182 2052.106509 
L 2940.580636 2052.106509 
z
" clip-path="url(#p44acef546c)" style="fill: #0000ff; fill-opacity: 0.5; stroke: #ffffff; stroke-linejoin: miter"/>
   </g>
   <g id="patch_188">
    <path d="M 2971.592182 2080.894375 
L 3002.603727 2080.894375 
L 3002.603727 2023.318643 
L 2971.592182 2023.318643 
z
" clip-path="url(#p44acef546c)" style="fill: #0000ff; fill-opacity: 0.5; stroke: #ffffff; stroke-linejoin: miter"/>
   </g>
   <g id="patch_189">
    <path d="M 3002.603727 2080.894375 
L 3033.615273 2080.894375 
L 3033.615273 1289.228061 
L 3002.603727 1289.228061 
z
" clip-path="url(#p44acef546c)" style="fill: #0000ff; fill-opacity: 0.5; stroke: #ffffff; stroke-linejoin: miter"/>
   </g>
   <g id="patch_190">
    <path d="M 3033.615273 2080.894375 
L 3064.626818 2080.894375 
L 3064.626818 771.046474 
L 3033.615273 771.046474 
z
" clip-path="url(#p44acef546c)" style="fill: #0000ff; fill-opacity: 0.5; stroke: #ffffff; stroke-linejoin: miter"/>
   </g>
   <g id="patch_191">
    <path d="M 3064.626818 2080.894375 
L 3095.638364 2080.894375 
L 3095.638364 2066.500442 
L 3064.626818 2066.500442 
z
" clip-path="url(#p44acef546c)" style="fill: #0000ff; fill-opacity: 0.5; stroke: #ffffff; stroke-linejoin: miter"/>
   </g>
   <g id="patch_192">
    <path d="M 3095.638364 2080.894375 
L 3126.649909 2080.894375 
L 3126.649909 1577.106721 
L 3095.638364 1577.106721 
z
" clip-path="url(#p44acef546c)" style="fill: #0000ff; fill-opacity: 0.5; stroke: #ffffff; stroke-linejoin: miter"/>
   </g>
   <g id="patch_193">
    <path d="M 3126.649909 2080.894375 
L 3157.661455 2080.894375 
L 3157.661455 1634.682453 
L 3126.649909 1634.682453 
z
" clip-path="url(#p44acef546c)" style="fill: #0000ff; fill-opacity: 0.5; stroke: #ffffff; stroke-linejoin: miter"/>
   </g>
   <g id="patch_194">
    <path d="M 3157.661455 2080.894375 
L 3188.673 2080.894375 
L 3188.673 1289.228061 
L 3157.661455 1289.228061 
z
" clip-path="url(#p44acef546c)" style="fill: #0000ff; fill-opacity: 0.5; stroke: #ffffff; stroke-linejoin: miter"/>
   </g>
   <g id="patch_195">
    <path d="M 3188.673 2080.894375 
L 3219.684545 2080.894375 
L 3219.684545 2052.106509 
L 3188.673 2052.106509 
z
" clip-path="url(#p44acef546c)" style="fill: #0000ff; fill-opacity: 0.5; stroke: #ffffff; stroke-linejoin: miter"/>
   </g>
   <g id="patch_196">
    <path d="M 3219.684545 2080.894375 
L 3250.696091 2080.894375 
L 3250.696091 1879.379313 
L 3219.684545 1879.379313 
z
" clip-path="url(#p44acef546c)" style="fill: #0000ff; fill-opacity: 0.5; stroke: #ffffff; stroke-linejoin: miter"/>
   </g>
   <g id="patch_197">
    <path d="M 3250.696091 2080.894375 
L 3281.707636 2080.894375 
L 3281.707636 2066.500442 
L 3250.696091 2066.500442 
z
" clip-path="url(#p44acef546c)" style="fill: #0000ff; fill-opacity: 0.5; stroke: #ffffff; stroke-linejoin: miter"/>
   </g>
   <g id="patch_198">
    <path d="M 3281.707636 2080.894375 
L 3312.719182 2080.894375 
L 3312.719182 1980.136844 
L 3281.707636 1980.136844 
z
" clip-path="url(#p44acef546c)" style="fill: #0000ff; fill-opacity: 0.5; stroke: #ffffff; stroke-linejoin: miter"/>
   </g>
   <g id="patch_199">
    <path d="M 3312.719182 2080.894375 
L 3343.730727 2080.894375 
L 3343.730727 2080.894375 
L 3312.719182 2080.894375 
z
" clip-path="url(#p44acef546c)" style="fill: #0000ff; fill-opacity: 0.5; stroke: #ffffff; stroke-linejoin: miter"/>
   </g>
   <g id="patch_200">
    <path d="M 3343.730727 2080.894375 
L 3374.742273 2080.894375 
L 3374.742273 2080.894375 
L 3343.730727 2080.894375 
z
" clip-path="url(#p44acef546c)" style="fill: #0000ff; fill-opacity: 0.5; stroke: #ffffff; stroke-linejoin: miter"/>
   </g>
   <g id="line2d_15">
    <path d="M 273.587727 2060.536809 
L 318.378946 2060.66223 
L 363.170166 2061.044047 
L 407.961385 2061.667749 
L 452.752604 2062.510032 
L 497.543823 2063.540246 
L 557.265449 2065.1432 
L 631.917481 2067.382214 
L 796.151951 2072.39142 
L 870.803983 2074.388727 
L 930.525609 2075.776521 
L 990.247235 2076.959319 
L 1049.96886 2077.937132 
L 1109.690486 2078.722085 
L 1184.342518 2079.463412 
L 1258.99455 2079.983657 
L 1348.576988 2080.385572 
L 1468.020239 2080.662758 
L 1602.393897 2080.748193 
L 1736.767555 2080.630001 
L 1841.280399 2080.325581 
L 1915.932431 2079.91213 
L 1975.654057 2079.402576 
L 2035.375683 2078.674649 
L 2080.166902 2077.945775 
L 2124.958121 2077.025411 
L 2169.74934 2075.88018 
L 2214.540559 2074.476095 
L 2259.331779 2072.780325 
L 2304.122998 2070.763365 
L 2333.983811 2069.228288 
L 2363.844623 2067.534785 
L 2393.705436 2065.679947 
L 2423.566249 2063.66332 
L 2453.427062 2061.487256 
L 2498.218281 2057.937119 
L 2543.0095 2054.074372 
L 2587.800719 2049.950465 
L 2647.522345 2044.16969 
L 2752.03519 2033.915095 
L 2796.826409 2029.762882 
L 2826.687222 2027.167597 
L 2856.548035 2024.753756 
L 2886.408847 2022.556966 
L 2916.26966 2020.610647 
L 2946.130473 2018.945194 
L 2975.991286 2017.587182 
L 3005.852099 2016.558664 
L 3035.712911 2015.876579 
L 3065.573724 2015.552281 
L 3095.434537 2015.591231 
L 3125.29535 2015.992839 
L 3155.156163 2016.750482 
L 3185.016976 2017.851683 
L 3214.877788 2019.278457 
L 3244.738601 2021.007796 
L 3244.738601 2021.007796 
" clip-path="url(#p44acef546c)" style="fill: none; stroke: #ffa500; stroke-width: 1.5; stroke-linecap: round"/>
   </g>
   <g id="line2d_16">
    <path d="M 273.587727 1328.449835 
L 288.80183 1328.693001 
L 304.015933 1335.20686 
L 319.230036 1347.814061 
L 334.44414 1366.186522 
L 349.658243 1389.859118 
L 364.872346 1418.24872 
L 380.086449 1450.677492 
L 395.300552 1486.399144 
L 410.514655 1524.626728 
L 425.728758 1564.560534 
L 471.371067 1686.952396 
L 486.58517 1726.33372 
L 501.799273 1764.060045 
L 517.013376 1799.701012 
L 532.227479 1832.924485 
L 547.441582 1863.495452 
L 562.655685 1891.271368 
L 577.869788 1916.19461 
L 593.083891 1938.28279 
L 608.297995 1957.617668 
L 623.512098 1974.333363 
L 638.726201 1988.6045 
L 653.940304 2000.634809 
L 669.154407 2010.646586 
L 684.36851 2018.871304 
L 699.582613 2025.541541 
L 714.796716 2030.884311 
L 730.010819 2035.115764 
L 745.224922 2038.437194 
L 760.439025 2041.032224 
L 775.653128 2043.065025 
L 790.867231 2044.679399 
L 806.081334 2045.998585 
L 836.50954 2048.144171 
L 882.15185 2051.119867 
L 912.580056 2053.339828 
L 943.008262 2055.800092 
L 1003.864674 2060.877206 
L 1019.078777 2062.014887 
L 1034.29288 2063.035992 
L 1049.506983 2063.90899 
L 1064.721086 2064.604248 
L 1079.935189 2065.094912 
L 1095.149292 2065.357713 
L 1110.363395 2065.373692 
L 1125.577499 2065.128852 
L 1140.791602 2064.614742 
L 1156.005705 2063.828956 
L 1171.219808 2062.775552 
L 1186.433911 2061.46535 
L 1201.648014 2059.916096 
L 1216.862117 2058.152471 
L 1232.07622 2056.205893 
L 1262.504426 2051.920539 
L 1308.146735 2045.228047 
L 1323.360838 2043.138816 
L 1338.574941 2041.210729 
L 1353.789044 2039.494986 
L 1369.003147 2038.038354 
L 1384.21725 2036.881536 
L 1399.431354 2036.057715 
L 1414.645457 2035.591367 
L 1429.85956 2035.497396 
L 1445.073663 2035.780649 
L 1460.287766 2036.435837 
L 1475.501869 2037.447872 
L 1490.715972 2038.792592 
L 1505.930075 2040.437849 
L 1521.144178 2042.344875 
L 1536.358281 2044.469875 
L 1551.572384 2046.765742 
L 1582.00059 2051.675545 
L 1627.642899 2059.141054 
L 1642.857002 2061.495298 
L 1658.071106 2063.729562 
L 1673.285209 2065.820646 
L 1688.499312 2067.751093 
L 1703.713415 2069.508922 
L 1718.927518 2071.087142 
L 1734.141621 2072.483146 
L 1749.355724 2073.69799 
L 1764.569827 2074.735643 
L 1779.78393 2075.60224 
L 1794.998033 2076.305383 
L 1810.212136 2076.853517 
L 1825.426239 2077.255415 
L 1840.640342 2077.519788 
L 1855.854445 2077.655015 
L 1871.068548 2077.669004 
L 1901.496754 2077.36253 
L 1931.924961 2076.655938 
L 1962.353167 2075.605138 
L 1992.781373 2074.274947 
L 2038.423682 2071.939696 
L 2099.280094 2068.775913 
L 2129.7083 2067.462629 
L 2160.136506 2066.494359 
L 2175.35061 2066.170585 
L 2190.564713 2065.965467 
L 2205.778816 2065.884169 
L 2220.992919 2065.928654 
L 2236.207022 2066.097577 
L 2251.421125 2066.386329 
L 2281.849331 2067.289623 
L 2312.277537 2068.545226 
L 2357.919846 2070.811709 
L 2403.562155 2073.117921 
L 2433.990361 2074.458353 
L 2464.418568 2075.514214 
L 2494.846774 2076.201274 
L 2510.060877 2076.38555 
L 2525.27498 2076.454414 
L 2540.489083 2076.40179 
L 2555.703186 2076.222055 
L 2570.917289 2075.909855 
L 2586.131392 2075.459966 
L 2601.345495 2074.867192 
L 2616.559598 2074.126306 
L 2631.773701 2073.23205 
L 2646.987804 2072.179189 
L 2662.201907 2070.962615 
L 2677.41601 2069.577514 
L 2692.630113 2068.019581 
L 2707.844217 2066.285295 
L 2723.05832 2064.372234 
L 2738.272423 2062.279443 
L 2753.486526 2060.007827 
L 2768.700629 2057.560585 
L 2783.914732 2054.943639 
L 2799.128835 2052.166074 
L 2814.342938 2049.240541 
L 2844.771144 2043.016092 
L 2875.19935 2036.454316 
L 2920.841659 2026.551497 
L 2936.055762 2023.395967 
L 2951.269865 2020.388526 
L 2966.483969 2017.576434 
L 2981.698072 2015.006712 
L 2996.912175 2012.72485 
L 3012.126278 2010.77347 
L 3027.340381 2009.19098 
L 3042.554484 2008.010299 
L 3057.768587 2007.257703 
L 3072.98269 2006.951854 
L 3088.196793 2007.103062 
L 3103.410896 2007.712811 
L 3118.624999 2008.773593 
L 3133.839102 2010.269047 
L 3149.053205 2012.174402 
L 3164.267308 2014.457217 
L 3179.481411 2017.078361 
L 3194.695514 2019.993212 
L 3209.909617 2023.153004 
L 3225.12372 2026.506267 
L 3255.551927 2033.582621 
L 3301.194236 2044.364996 
L 3301.194236 2044.364996 
" clip-path="url(#p44acef546c)" style="fill: none; stroke: #0000ff; stroke-width: 1.5; stroke-linecap: round"/>
   </g>
   <g id="patch_201">
    <path d="M 118.53 2080.894375 
L 118.53 40.554375 
" style="fill: none; stroke: #ffffff; stroke-width: 1.25; stroke-linejoin: miter; stroke-linecap: square"/>
   </g>
   <g id="patch_202">
    <path d="M 3529.8 2080.894375 
L 3529.8 40.554375 
" style="fill: none; stroke: #ffffff; stroke-width: 1.25; stroke-linejoin: miter; stroke-linecap: square"/>
   </g>
   <g id="patch_203">
    <path d="M 118.53 2080.894375 
L 3529.8 2080.894375 
" style="fill: none; stroke: #ffffff; stroke-width: 1.25; stroke-linejoin: miter; stroke-linecap: square"/>
   </g>
   <g id="patch_204">
    <path d="M 118.53 40.554375 
L 3529.8 40.554375 
" style="fill: none; stroke: #ffffff; stroke-width: 1.25; stroke-linejoin: miter; stroke-linecap: square"/>
   </g>
   <g id="text_17">
    <!-- O_k_mer_encoding_without_align_MACCSkey_no_same_sub_prediction probability distribution -->
    <g style="fill: #262626" transform="translate(979.785 34.554375)scale(0.36 -0.36)">
     <defs>
      <path id="DejaVuSans-4f" d="M 2522 4238 
Q 1834 4238 1429 3725 
Q 1025 3213 1025 2328 
Q 1025 1447 1429 934 
Q 1834 422 2522 422 
Q 3209 422 3611 934 
Q 4013 1447 4013 2328 
Q 4013 3213 3611 3725 
Q 3209 4238 2522 4238 
z
M 2522 4750 
Q 3503 4750 4090 4092 
Q 4678 3434 4678 2328 
Q 4678 1225 4090 567 
Q 3503 -91 2522 -91 
Q 1538 -91 948 565 
Q 359 1222 359 2328 
Q 359 3434 948 4092 
Q 1538 4750 2522 4750 
z
" transform="scale(0.015625)"/>
      <path id="DejaVuSans-5f" d="M 3263 -1063 
L 3263 -1509 
L -63 -1509 
L -63 -1063 
L 3263 -1063 
z
" transform="scale(0.015625)"/>
      <path id="DejaVuSans-6b" d="M 581 4863 
L 1159 4863 
L 1159 1991 
L 2875 3500 
L 3609 3500 
L 1753 1863 
L 3688 0 
L 2938 0 
L 1159 1709 
L 1159 0 
L 581 0 
L 581 4863 
z
" transform="scale(0.015625)"/>
      <path id="DejaVuSans-6d" d="M 3328 2828 
Q 3544 3216 3844 3400 
Q 4144 3584 4550 3584 
Q 5097 3584 5394 3201 
Q 5691 2819 5691 2113 
L 5691 0 
L 5113 0 
L 5113 2094 
Q 5113 2597 4934 2840 
Q 4756 3084 4391 3084 
Q 3944 3084 3684 2787 
Q 3425 2491 3425 1978 
L 3425 0 
L 2847 0 
L 2847 2094 
Q 2847 2600 2669 2842 
Q 2491 3084 2119 3084 
Q 1678 3084 1418 2786 
Q 1159 2488 1159 1978 
L 1159 0 
L 581 0 
L 581 3500 
L 1159 3500 
L 1159 2956 
Q 1356 3278 1631 3431 
Q 1906 3584 2284 3584 
Q 2666 3584 2933 3390 
Q 3200 3197 3328 2828 
z
" transform="scale(0.015625)"/>
      <path id="DejaVuSans-65" d="M 3597 1894 
L 3597 1613 
L 953 1613 
Q 991 1019 1311 708 
Q 1631 397 2203 397 
Q 2534 397 2845 478 
Q 3156 559 3463 722 
L 3463 178 
Q 3153 47 2828 -22 
Q 2503 -91 2169 -91 
Q 1331 -91 842 396 
Q 353 884 353 1716 
Q 353 2575 817 3079 
Q 1281 3584 2069 3584 
Q 2775 3584 3186 3129 
Q 3597 2675 3597 1894 
z
M 3022 2063 
Q 3016 2534 2758 2815 
Q 2500 3097 2075 3097 
Q 1594 3097 1305 2825 
Q 1016 2553 972 2059 
L 3022 2063 
z
" transform="scale(0.015625)"/>
      <path id="DejaVuSans-63" d="M 3122 3366 
L 3122 2828 
Q 2878 2963 2633 3030 
Q 2388 3097 2138 3097 
Q 1578 3097 1268 2742 
Q 959 2388 959 1747 
Q 959 1106 1268 751 
Q 1578 397 2138 397 
Q 2388 397 2633 464 
Q 2878 531 3122 666 
L 3122 134 
Q 2881 22 2623 -34 
Q 2366 -91 2075 -91 
Q 1284 -91 818 406 
Q 353 903 353 1747 
Q 353 2603 823 3093 
Q 1294 3584 2113 3584 
Q 2378 3584 2631 3529 
Q 2884 3475 3122 3366 
z
" transform="scale(0.015625)"/>
      <path id="DejaVuSans-64" d="M 2906 2969 
L 2906 4863 
L 3481 4863 
L 3481 0 
L 2906 0 
L 2906 525 
Q 2725 213 2448 61 
Q 2172 -91 1784 -91 
Q 1150 -91 751 415 
Q 353 922 353 1747 
Q 353 2572 751 3078 
Q 1150 3584 1784 3584 
Q 2172 3584 2448 3432 
Q 2725 3281 2906 2969 
z
M 947 1747 
Q 947 1113 1208 752 
Q 1469 391 1925 391 
Q 2381 391 2643 752 
Q 2906 1113 2906 1747 
Q 2906 2381 2643 2742 
Q 2381 3103 1925 3103 
Q 1469 3103 1208 2742 
Q 947 2381 947 1747 
z
" transform="scale(0.015625)"/>
      <path id="DejaVuSans-67" d="M 2906 1791 
Q 2906 2416 2648 2759 
Q 2391 3103 1925 3103 
Q 1463 3103 1205 2759 
Q 947 2416 947 1791 
Q 947 1169 1205 825 
Q 1463 481 1925 481 
Q 2391 481 2648 825 
Q 2906 1169 2906 1791 
z
M 3481 434 
Q 3481 -459 3084 -895 
Q 2688 -1331 1869 -1331 
Q 1566 -1331 1297 -1286 
Q 1028 -1241 775 -1147 
L 775 -588 
Q 1028 -725 1275 -790 
Q 1522 -856 1778 -856 
Q 2344 -856 2625 -561 
Q 2906 -266 2906 331 
L 2906 616 
Q 2728 306 2450 153 
Q 2172 0 1784 0 
Q 1141 0 747 490 
Q 353 981 353 1791 
Q 353 2603 747 3093 
Q 1141 3584 1784 3584 
Q 2172 3584 2450 3431 
Q 2728 3278 2906 2969 
L 2906 3500 
L 3481 3500 
L 3481 434 
z
" transform="scale(0.015625)"/>
      <path id="DejaVuSans-77" d="M 269 3500 
L 844 3500 
L 1563 769 
L 2278 3500 
L 2956 3500 
L 3675 769 
L 4391 3500 
L 4966 3500 
L 4050 0 
L 3372 0 
L 2619 2869 
L 1863 0 
L 1184 0 
L 269 3500 
z
" transform="scale(0.015625)"/>
      <path id="DejaVuSans-68" d="M 3513 2113 
L 3513 0 
L 2938 0 
L 2938 2094 
Q 2938 2591 2744 2837 
Q 2550 3084 2163 3084 
Q 1697 3084 1428 2787 
Q 1159 2491 1159 1978 
L 1159 0 
L 581 0 
L 581 4863 
L 1159 4863 
L 1159 2956 
Q 1366 3272 1645 3428 
Q 1925 3584 2291 3584 
Q 2894 3584 3203 3211 
Q 3513 2838 3513 2113 
z
" transform="scale(0.015625)"/>
      <path id="DejaVuSans-4d" d="M 628 4666 
L 1569 4666 
L 2759 1491 
L 3956 4666 
L 4897 4666 
L 4897 0 
L 4281 0 
L 4281 4097 
L 3078 897 
L 2444 897 
L 1241 4097 
L 1241 0 
L 628 0 
L 628 4666 
z
" transform="scale(0.015625)"/>
      <path id="DejaVuSans-41" d="M 2188 4044 
L 1331 1722 
L 3047 1722 
L 2188 4044 
z
M 1831 4666 
L 2547 4666 
L 4325 0 
L 3669 0 
L 3244 1197 
L 1141 1197 
L 716 0 
L 50 0 
L 1831 4666 
z
" transform="scale(0.015625)"/>
      <path id="DejaVuSans-53" d="M 3425 4513 
L 3425 3897 
Q 3066 4069 2747 4153 
Q 2428 4238 2131 4238 
Q 1616 4238 1336 4038 
Q 1056 3838 1056 3469 
Q 1056 3159 1242 3001 
Q 1428 2844 1947 2747 
L 2328 2669 
Q 3034 2534 3370 2195 
Q 3706 1856 3706 1288 
Q 3706 609 3251 259 
Q 2797 -91 1919 -91 
Q 1588 -91 1214 -16 
Q 841 59 441 206 
L 441 856 
Q 825 641 1194 531 
Q 1563 422 1919 422 
Q 2459 422 2753 634 
Q 3047 847 3047 1241 
Q 3047 1584 2836 1778 
Q 2625 1972 2144 2069 
L 1759 2144 
Q 1053 2284 737 2584 
Q 422 2884 422 3419 
Q 422 4038 858 4394 
Q 1294 4750 2059 4750 
Q 2388 4750 2728 4690 
Q 3069 4631 3425 4513 
z
" transform="scale(0.015625)"/>
      <path id="DejaVuSans-73" d="M 2834 3397 
L 2834 2853 
Q 2591 2978 2328 3040 
Q 2066 3103 1784 3103 
Q 1356 3103 1142 2972 
Q 928 2841 928 2578 
Q 928 2378 1081 2264 
Q 1234 2150 1697 2047 
L 1894 2003 
Q 2506 1872 2764 1633 
Q 3022 1394 3022 966 
Q 3022 478 2636 193 
Q 2250 -91 1575 -91 
Q 1294 -91 989 -36 
Q 684 19 347 128 
L 347 722 
Q 666 556 975 473 
Q 1284 391 1588 391 
Q 1994 391 2212 530 
Q 2431 669 2431 922 
Q 2431 1156 2273 1281 
Q 2116 1406 1581 1522 
L 1381 1569 
Q 847 1681 609 1914 
Q 372 2147 372 2553 
Q 372 3047 722 3315 
Q 1072 3584 1716 3584 
Q 2034 3584 2315 3537 
Q 2597 3491 2834 3397 
z
" transform="scale(0.015625)"/>
      <path id="DejaVuSans-20" transform="scale(0.015625)"/>
     </defs>
     <use xlink:href="#DejaVuSans-4f"/>
     <use xlink:href="#DejaVuSans-5f" x="78.710938"/>
     <use xlink:href="#DejaVuSans-6b" x="128.710938"/>
     <use xlink:href="#DejaVuSans-5f" x="186.621094"/>
     <use xlink:href="#DejaVuSans-6d" x="236.621094"/>
     <use xlink:href="#DejaVuSans-65" x="334.033203"/>
     <use xlink:href="#DejaVuSans-72" x="395.556641"/>
     <use xlink:href="#DejaVuSans-5f" x="436.669922"/>
     <use xlink:href="#DejaVuSans-65" x="486.669922"/>
     <use xlink:href="#DejaVuSans-6e" x="548.193359"/>
     <use xlink:href="#DejaVuSans-63" x="611.572266"/>
     <use xlink:href="#DejaVuSans-6f" x="666.552734"/>
     <use xlink:href="#DejaVuSans-64" x="727.734375"/>
     <use xlink:href="#DejaVuSans-69" x="791.210938"/>
     <use xlink:href="#DejaVuSans-6e" x="818.994141"/>
     <use xlink:href="#DejaVuSans-67" x="882.373047"/>
     <use xlink:href="#DejaVuSans-5f" x="945.849609"/>
     <use xlink:href="#DejaVuSans-77" x="995.849609"/>
     <use xlink:href="#DejaVuSans-69" x="1077.636719"/>
     <use xlink:href="#DejaVuSans-74" x="1105.419922"/>
     <use xlink:href="#DejaVuSans-68" x="1144.628906"/>
     <use xlink:href="#DejaVuSans-6f" x="1208.007812"/>
     <use xlink:href="#DejaVuSans-75" x="1269.189453"/>
     <use xlink:href="#DejaVuSans-74" x="1332.568359"/>
     <use xlink:href="#DejaVuSans-5f" x="1371.777344"/>
     <use xlink:href="#DejaVuSans-61" x="1421.777344"/>
     <use xlink:href="#DejaVuSans-6c" x="1483.056641"/>
     <use xlink:href="#DejaVuSans-69" x="1510.839844"/>
     <use xlink:href="#DejaVuSans-67" x="1538.623047"/>
     <use xlink:href="#DejaVuSans-6e" x="1602.099609"/>
     <use xlink:href="#DejaVuSans-5f" x="1665.478516"/>
     <use xlink:href="#DejaVuSans-4d" x="1715.478516"/>
     <use xlink:href="#DejaVuSans-41" x="1801.757812"/>
     <use xlink:href="#DejaVuSans-43" x="1868.416016"/>
     <use xlink:href="#DejaVuSans-43" x="1938.240234"/>
     <use xlink:href="#DejaVuSans-53" x="2008.064453"/>
     <use xlink:href="#DejaVuSans-6b" x="2071.541016"/>
     <use xlink:href="#DejaVuSans-65" x="2125.826172"/>
     <use xlink:href="#DejaVuSans-79" x="2187.349609"/>
     <use xlink:href="#DejaVuSans-5f" x="2246.529297"/>
     <use xlink:href="#DejaVuSans-6e" x="2296.529297"/>
     <use xlink:href="#DejaVuSans-6f" x="2359.908203"/>
     <use xlink:href="#DejaVuSans-5f" x="2421.089844"/>
     <use xlink:href="#DejaVuSans-73" x="2471.089844"/>
     <use xlink:href="#DejaVuSans-61" x="2523.189453"/>
     <use xlink:href="#DejaVuSans-6d" x="2584.46875"/>
     <use xlink:href="#DejaVuSans-65" x="2681.880859"/>
     <use xlink:href="#DejaVuSans-5f" x="2743.404297"/>
     <use xlink:href="#DejaVuSans-73" x="2793.404297"/>
     <use xlink:href="#DejaVuSans-75" x="2845.503906"/>
     <use xlink:href="#DejaVuSans-62" x="2908.882812"/>
     <use xlink:href="#DejaVuSans-5f" x="2972.359375"/>
     <use xlink:href="#DejaVuSans-70" x="3022.359375"/>
     <use xlink:href="#DejaVuSans-72" x="3085.835938"/>
     <use xlink:href="#DejaVuSans-65" x="3124.699219"/>
     <use xlink:href="#DejaVuSans-64" x="3186.222656"/>
     <use xlink:href="#DejaVuSans-69" x="3249.699219"/>
     <use xlink:href="#DejaVuSans-63" x="3277.482422"/>
     <use xlink:href="#DejaVuSans-74" x="3332.462891"/>
     <use xlink:href="#DejaVuSans-69" x="3371.671875"/>
     <use xlink:href="#DejaVuSans-6f" x="3399.455078"/>
     <use xlink:href="#DejaVuSans-6e" x="3460.636719"/>
     <use xlink:href="#DejaVuSans-20" x="3524.015625"/>
     <use xlink:href="#DejaVuSans-70" x="3555.802734"/>
     <use xlink:href="#DejaVuSans-72" x="3619.279297"/>
     <use xlink:href="#DejaVuSans-6f" x="3658.142578"/>
     <use xlink:href="#DejaVuSans-62" x="3719.324219"/>
     <use xlink:href="#DejaVuSans-61" x="3782.800781"/>
     <use xlink:href="#DejaVuSans-62" x="3844.080078"/>
     <use xlink:href="#DejaVuSans-69" x="3907.556641"/>
     <use xlink:href="#DejaVuSans-6c" x="3935.339844"/>
     <use xlink:href="#DejaVuSans-69" x="3963.123047"/>
     <use xlink:href="#DejaVuSans-74" x="3990.90625"/>
     <use xlink:href="#DejaVuSans-79" x="4030.115234"/>
     <use xlink:href="#DejaVuSans-20" x="4089.294922"/>
     <use xlink:href="#DejaVuSans-64" x="4121.082031"/>
     <use xlink:href="#DejaVuSans-69" x="4184.558594"/>
     <use xlink:href="#DejaVuSans-73" x="4212.341797"/>
     <use xlink:href="#DejaVuSans-74" x="4264.441406"/>
     <use xlink:href="#DejaVuSans-72" x="4303.650391"/>
     <use xlink:href="#DejaVuSans-69" x="4344.763672"/>
     <use xlink:href="#DejaVuSans-62" x="4372.546875"/>
     <use xlink:href="#DejaVuSans-75" x="4436.023438"/>
     <use xlink:href="#DejaVuSans-74" x="4499.402344"/>
     <use xlink:href="#DejaVuSans-69" x="4538.611328"/>
     <use xlink:href="#DejaVuSans-6f" x="4566.394531"/>
     <use xlink:href="#DejaVuSans-6e" x="4627.576172"/>
    </g>
   </g>
   <g id="legend_1">
    <g id="patch_205">
     <path d="M 3423.873125 109.280625 
L 3524.2 109.280625 
Q 3525.8 109.280625 3525.8 107.680625 
L 3525.8 46.154375 
Q 3525.8 44.554375 3524.2 44.554375 
L 3423.873125 44.554375 
Q 3422.273125 44.554375 3422.273125 46.154375 
L 3422.273125 107.680625 
Q 3422.273125 109.280625 3423.873125 109.280625 
z
" style="fill: #eaeaf2; opacity: 0.8; stroke: #cccccc; stroke-linejoin: miter"/>
    </g>
    <g id="text_18">
     <!-- Label -->
     <g style="fill: #262626" transform="translate(3425.473125 75.10875)scale(0.36 -0.36)">
      <defs>
       <path id="DejaVuSans-4c" d="M 628 4666 
L 1259 4666 
L 1259 531 
L 3531 531 
L 3531 0 
L 628 0 
L 628 4666 
z
" transform="scale(0.015625)"/>
      </defs>
      <use xlink:href="#DejaVuSans-4c"/>
      <use xlink:href="#DejaVuSans-61" x="55.712891"/>
      <use xlink:href="#DejaVuSans-62" x="116.992188"/>
      <use xlink:href="#DejaVuSans-65" x="180.46875"/>
      <use xlink:href="#DejaVuSans-6c" x="241.992188"/>
     </g>
    </g>
    <g id="patch_206">
     <path d="M 3450.617187 92.674375 
L 3466.617187 92.674375 
L 3466.617187 87.074375 
L 3450.617187 87.074375 
z
" style="fill: #ffa500; fill-opacity: 0.5; stroke: #ffffff; stroke-linejoin: miter"/>
    </g>
    <g id="text_19">
     <!-- label1 -->
     <g style="fill: #262626" transform="translate(3473.017187 92.674375)scale(0.08 -0.08)">
      <use xlink:href="#DejaVuSans-6c"/>
      <use xlink:href="#DejaVuSans-61" x="27.783203"/>
      <use xlink:href="#DejaVuSans-62" x="89.0625"/>
      <use xlink:href="#DejaVuSans-65" x="152.539062"/>
      <use xlink:href="#DejaVuSans-6c" x="214.0625"/>
      <use xlink:href="#DejaVuSans-31" x="241.845703"/>
     </g>
    </g>
    <g id="patch_207">
     <path d="M 3450.617187 104.416875 
L 3466.617187 104.416875 
L 3466.617187 98.816875 
L 3450.617187 98.816875 
z
" style="fill: #0000ff; fill-opacity: 0.5; stroke: #ffffff; stroke-linejoin: miter"/>
    </g>
    <g id="text_20">
     <!-- label0 -->
     <g style="fill: #262626" transform="translate(3473.017187 104.416875)scale(0.08 -0.08)">
      <use xlink:href="#DejaVuSans-6c"/>
      <use xlink:href="#DejaVuSans-61" x="27.783203"/>
      <use xlink:href="#DejaVuSans-62" x="89.0625"/>
      <use xlink:href="#DejaVuSans-65" x="152.539062"/>
      <use xlink:href="#DejaVuSans-6c" x="214.0625"/>
      <use xlink:href="#DejaVuSans-30" x="241.845703"/>
     </g>
    </g>
   </g>
  </g>
 </g>
 <defs>
  <clipPath id="p44acef546c">
   <rect x="118.53" y="40.554375" width="3411.27" height="2040.34"/>
  </clipPath>
 </defs>
</svg>
