<?xml version="1.0" encoding="utf-8" standalone="no"?>
<!DOCTYPE svg PUBLIC "-//W3C//DTD SVG 1.1//EN"
  "http://www.w3.org/Graphics/SVG/1.1/DTD/svg11.dtd">
<svg xmlns:xlink="http://www.w3.org/1999/xlink" width="460.8pt" height="345.6pt" viewBox="0 0 460.8 345.6" xmlns="http://www.w3.org/2000/svg" version="1.1">
 <metadata>
  <rdf:RDF xmlns:dc="http://purl.org/dc/elements/1.1/" xmlns:cc="http://creativecommons.org/ns#" xmlns:rdf="http://www.w3.org/1999/02/22-rdf-syntax-ns#">
   <cc:Work>
    <dc:type rdf:resource="http://purl.org/dc/dcmitype/StillImage"/>
    <dc:date>2022-11-25T14:56:19.152250</dc:date>
    <dc:format>image/svg+xml</dc:format>
    <dc:creator>
     <cc:Agent>
      <dc:title>Matplotlib v3.5.2, https://matplotlib.org/</dc:title>
     </cc:Agent>
    </dc:creator>
   </cc:Work>
  </rdf:RDF>
 </metadata>
 <defs>
  <style type="text/css">*{stroke-linejoin: round; stroke-linecap: butt}</style>
 </defs>
 <g id="figure_1">
  <g id="patch_1">
   <path d="M 0 345.6 
L 460.8 345.6 
L 460.8 0 
L 0 0 
z
" style="fill: #ffffff"/>
  </g>
  <g id="axes_1">
   <g id="patch_2">
    <path d="M 57.6 307.584 
L 414.72 307.584 
L 414.72 41.472 
L 57.6 41.472 
z
" style="fill: #eaeaf2"/>
   </g>
   <g id="matplotlib.axis_1">
    <g id="xtick_1">
     <g id="line2d_1">
      <path d="M 73.832727 307.584 
L 73.832727 41.472 
" clip-path="url(#pc5cf75d7df)" style="fill: none; stroke: #ffffff; stroke-linecap: round"/>
     </g>
     <g id="text_1">
      <!-- 0.0 -->
      <g style="fill: #262626" transform="translate(65.086009 325.442281)scale(0.11 -0.11)">
       <defs>
        <path id="DejaVuSans-30" d="M 2034 4250 
Q 1547 4250 1301 3770 
Q 1056 3291 1056 2328 
Q 1056 1369 1301 889 
Q 1547 409 2034 409 
Q 2525 409 2770 889 
Q 3016 1369 3016 2328 
Q 3016 3291 2770 3770 
Q 2525 4250 2034 4250 
z
M 2034 4750 
Q 2819 4750 3233 4129 
Q 3647 3509 3647 2328 
Q 3647 1150 3233 529 
Q 2819 -91 2034 -91 
Q 1250 -91 836 529 
Q 422 1150 422 2328 
Q 422 3509 836 4129 
Q 1250 4750 2034 4750 
z
" transform="scale(0.015625)"/>
        <path id="DejaVuSans-2e" d="M 684 794 
L 1344 794 
L 1344 0 
L 684 0 
L 684 794 
z
" transform="scale(0.015625)"/>
       </defs>
       <use xlink:href="#DejaVuSans-30"/>
       <use xlink:href="#DejaVuSans-2e" x="63.623047"/>
       <use xlink:href="#DejaVuSans-30" x="95.410156"/>
      </g>
     </g>
    </g>
    <g id="xtick_2">
     <g id="line2d_2">
      <path d="M 138.763636 307.584 
L 138.763636 41.472 
" clip-path="url(#pc5cf75d7df)" style="fill: none; stroke: #ffffff; stroke-linecap: round"/>
     </g>
     <g id="text_2">
      <!-- 0.2 -->
      <g style="fill: #262626" transform="translate(130.016918 325.442281)scale(0.11 -0.11)">
       <defs>
        <path id="DejaVuSans-32" d="M 1228 531 
L 3431 531 
L 3431 0 
L 469 0 
L 469 531 
Q 828 903 1448 1529 
Q 2069 2156 2228 2338 
Q 2531 2678 2651 2914 
Q 2772 3150 2772 3378 
Q 2772 3750 2511 3984 
Q 2250 4219 1831 4219 
Q 1534 4219 1204 4116 
Q 875 4013 500 3803 
L 500 4441 
Q 881 4594 1212 4672 
Q 1544 4750 1819 4750 
Q 2544 4750 2975 4387 
Q 3406 4025 3406 3419 
Q 3406 3131 3298 2873 
Q 3191 2616 2906 2266 
Q 2828 2175 2409 1742 
Q 1991 1309 1228 531 
z
" transform="scale(0.015625)"/>
       </defs>
       <use xlink:href="#DejaVuSans-30"/>
       <use xlink:href="#DejaVuSans-2e" x="63.623047"/>
       <use xlink:href="#DejaVuSans-32" x="95.410156"/>
      </g>
     </g>
    </g>
    <g id="xtick_3">
     <g id="line2d_3">
      <path d="M 203.694545 307.584 
L 203.694545 41.472 
" clip-path="url(#pc5cf75d7df)" style="fill: none; stroke: #ffffff; stroke-linecap: round"/>
     </g>
     <g id="text_3">
      <!-- 0.4 -->
      <g style="fill: #262626" transform="translate(194.947827 325.442281)scale(0.11 -0.11)">
       <defs>
        <path id="DejaVuSans-34" d="M 2419 4116 
L 825 1625 
L 2419 1625 
L 2419 4116 
z
M 2253 4666 
L 3047 4666 
L 3047 1625 
L 3713 1625 
L 3713 1100 
L 3047 1100 
L 3047 0 
L 2419 0 
L 2419 1100 
L 313 1100 
L 313 1709 
L 2253 4666 
z
" transform="scale(0.015625)"/>
       </defs>
       <use xlink:href="#DejaVuSans-30"/>
       <use xlink:href="#DejaVuSans-2e" x="63.623047"/>
       <use xlink:href="#DejaVuSans-34" x="95.410156"/>
      </g>
     </g>
    </g>
    <g id="xtick_4">
     <g id="line2d_4">
      <path d="M 268.625455 307.584 
L 268.625455 41.472 
" clip-path="url(#pc5cf75d7df)" style="fill: none; stroke: #ffffff; stroke-linecap: round"/>
     </g>
     <g id="text_4">
      <!-- 0.6 -->
      <g style="fill: #262626" transform="translate(259.878736 325.442281)scale(0.11 -0.11)">
       <defs>
        <path id="DejaVuSans-36" d="M 2113 2584 
Q 1688 2584 1439 2293 
Q 1191 2003 1191 1497 
Q 1191 994 1439 701 
Q 1688 409 2113 409 
Q 2538 409 2786 701 
Q 3034 994 3034 1497 
Q 3034 2003 2786 2293 
Q 2538 2584 2113 2584 
z
M 3366 4563 
L 3366 3988 
Q 3128 4100 2886 4159 
Q 2644 4219 2406 4219 
Q 1781 4219 1451 3797 
Q 1122 3375 1075 2522 
Q 1259 2794 1537 2939 
Q 1816 3084 2150 3084 
Q 2853 3084 3261 2657 
Q 3669 2231 3669 1497 
Q 3669 778 3244 343 
Q 2819 -91 2113 -91 
Q 1303 -91 875 529 
Q 447 1150 447 2328 
Q 447 3434 972 4092 
Q 1497 4750 2381 4750 
Q 2619 4750 2861 4703 
Q 3103 4656 3366 4563 
z
" transform="scale(0.015625)"/>
       </defs>
       <use xlink:href="#DejaVuSans-30"/>
       <use xlink:href="#DejaVuSans-2e" x="63.623047"/>
       <use xlink:href="#DejaVuSans-36" x="95.410156"/>
      </g>
     </g>
    </g>
    <g id="xtick_5">
     <g id="line2d_5">
      <path d="M 333.556364 307.584 
L 333.556364 41.472 
" clip-path="url(#pc5cf75d7df)" style="fill: none; stroke: #ffffff; stroke-linecap: round"/>
     </g>
     <g id="text_5">
      <!-- 0.8 -->
      <g style="fill: #262626" transform="translate(324.809645 325.442281)scale(0.11 -0.11)">
       <defs>
        <path id="DejaVuSans-38" d="M 2034 2216 
Q 1584 2216 1326 1975 
Q 1069 1734 1069 1313 
Q 1069 891 1326 650 
Q 1584 409 2034 409 
Q 2484 409 2743 651 
Q 3003 894 3003 1313 
Q 3003 1734 2745 1975 
Q 2488 2216 2034 2216 
z
M 1403 2484 
Q 997 2584 770 2862 
Q 544 3141 544 3541 
Q 544 4100 942 4425 
Q 1341 4750 2034 4750 
Q 2731 4750 3128 4425 
Q 3525 4100 3525 3541 
Q 3525 3141 3298 2862 
Q 3072 2584 2669 2484 
Q 3125 2378 3379 2068 
Q 3634 1759 3634 1313 
Q 3634 634 3220 271 
Q 2806 -91 2034 -91 
Q 1263 -91 848 271 
Q 434 634 434 1313 
Q 434 1759 690 2068 
Q 947 2378 1403 2484 
z
M 1172 3481 
Q 1172 3119 1398 2916 
Q 1625 2713 2034 2713 
Q 2441 2713 2670 2916 
Q 2900 3119 2900 3481 
Q 2900 3844 2670 4047 
Q 2441 4250 2034 4250 
Q 1625 4250 1398 4047 
Q 1172 3844 1172 3481 
z
" transform="scale(0.015625)"/>
       </defs>
       <use xlink:href="#DejaVuSans-30"/>
       <use xlink:href="#DejaVuSans-2e" x="63.623047"/>
       <use xlink:href="#DejaVuSans-38" x="95.410156"/>
      </g>
     </g>
    </g>
    <g id="xtick_6">
     <g id="line2d_6">
      <path d="M 398.487273 307.584 
L 398.487273 41.472 
" clip-path="url(#pc5cf75d7df)" style="fill: none; stroke: #ffffff; stroke-linecap: round"/>
     </g>
     <g id="text_6">
      <!-- 1.0 -->
      <g style="fill: #262626" transform="translate(389.740554 325.442281)scale(0.11 -0.11)">
       <defs>
        <path id="DejaVuSans-31" d="M 794 531 
L 1825 531 
L 1825 4091 
L 703 3866 
L 703 4441 
L 1819 4666 
L 2450 4666 
L 2450 531 
L 3481 531 
L 3481 0 
L 794 0 
L 794 531 
z
" transform="scale(0.015625)"/>
       </defs>
       <use xlink:href="#DejaVuSans-31"/>
       <use xlink:href="#DejaVuSans-2e" x="63.623047"/>
       <use xlink:href="#DejaVuSans-30" x="95.410156"/>
      </g>
     </g>
    </g>
    <g id="text_7">
     <!-- Recall (Positive label: 1) -->
     <g style="fill: #262626" transform="translate(164.380313 340.848062)scale(0.12 -0.12)">
      <defs>
       <path id="DejaVuSans-52" d="M 2841 2188 
Q 3044 2119 3236 1894 
Q 3428 1669 3622 1275 
L 4263 0 
L 3584 0 
L 2988 1197 
Q 2756 1666 2539 1819 
Q 2322 1972 1947 1972 
L 1259 1972 
L 1259 0 
L 628 0 
L 628 4666 
L 2053 4666 
Q 2853 4666 3247 4331 
Q 3641 3997 3641 3322 
Q 3641 2881 3436 2590 
Q 3231 2300 2841 2188 
z
M 1259 4147 
L 1259 2491 
L 2053 2491 
Q 2509 2491 2742 2702 
Q 2975 2913 2975 3322 
Q 2975 3731 2742 3939 
Q 2509 4147 2053 4147 
L 1259 4147 
z
" transform="scale(0.015625)"/>
       <path id="DejaVuSans-65" d="M 3597 1894 
L 3597 1613 
L 953 1613 
Q 991 1019 1311 708 
Q 1631 397 2203 397 
Q 2534 397 2845 478 
Q 3156 559 3463 722 
L 3463 178 
Q 3153 47 2828 -22 
Q 2503 -91 2169 -91 
Q 1331 -91 842 396 
Q 353 884 353 1716 
Q 353 2575 817 3079 
Q 1281 3584 2069 3584 
Q 2775 3584 3186 3129 
Q 3597 2675 3597 1894 
z
M 3022 2063 
Q 3016 2534 2758 2815 
Q 2500 3097 2075 3097 
Q 1594 3097 1305 2825 
Q 1016 2553 972 2059 
L 3022 2063 
z
" transform="scale(0.015625)"/>
       <path id="DejaVuSans-63" d="M 3122 3366 
L 3122 2828 
Q 2878 2963 2633 3030 
Q 2388 3097 2138 3097 
Q 1578 3097 1268 2742 
Q 959 2388 959 1747 
Q 959 1106 1268 751 
Q 1578 397 2138 397 
Q 2388 397 2633 464 
Q 2878 531 3122 666 
L 3122 134 
Q 2881 22 2623 -34 
Q 2366 -91 2075 -91 
Q 1284 -91 818 406 
Q 353 903 353 1747 
Q 353 2603 823 3093 
Q 1294 3584 2113 3584 
Q 2378 3584 2631 3529 
Q 2884 3475 3122 3366 
z
" transform="scale(0.015625)"/>
       <path id="DejaVuSans-61" d="M 2194 1759 
Q 1497 1759 1228 1600 
Q 959 1441 959 1056 
Q 959 750 1161 570 
Q 1363 391 1709 391 
Q 2188 391 2477 730 
Q 2766 1069 2766 1631 
L 2766 1759 
L 2194 1759 
z
M 3341 1997 
L 3341 0 
L 2766 0 
L 2766 531 
Q 2569 213 2275 61 
Q 1981 -91 1556 -91 
Q 1019 -91 701 211 
Q 384 513 384 1019 
Q 384 1609 779 1909 
Q 1175 2209 1959 2209 
L 2766 2209 
L 2766 2266 
Q 2766 2663 2505 2880 
Q 2244 3097 1772 3097 
Q 1472 3097 1187 3025 
Q 903 2953 641 2809 
L 641 3341 
Q 956 3463 1253 3523 
Q 1550 3584 1831 3584 
Q 2591 3584 2966 3190 
Q 3341 2797 3341 1997 
z
" transform="scale(0.015625)"/>
       <path id="DejaVuSans-6c" d="M 603 4863 
L 1178 4863 
L 1178 0 
L 603 0 
L 603 4863 
z
" transform="scale(0.015625)"/>
       <path id="DejaVuSans-20" transform="scale(0.015625)"/>
       <path id="DejaVuSans-28" d="M 1984 4856 
Q 1566 4138 1362 3434 
Q 1159 2731 1159 2009 
Q 1159 1288 1364 580 
Q 1569 -128 1984 -844 
L 1484 -844 
Q 1016 -109 783 600 
Q 550 1309 550 2009 
Q 550 2706 781 3412 
Q 1013 4119 1484 4856 
L 1984 4856 
z
" transform="scale(0.015625)"/>
       <path id="DejaVuSans-50" d="M 1259 4147 
L 1259 2394 
L 2053 2394 
Q 2494 2394 2734 2622 
Q 2975 2850 2975 3272 
Q 2975 3691 2734 3919 
Q 2494 4147 2053 4147 
L 1259 4147 
z
M 628 4666 
L 2053 4666 
Q 2838 4666 3239 4311 
Q 3641 3956 3641 3272 
Q 3641 2581 3239 2228 
Q 2838 1875 2053 1875 
L 1259 1875 
L 1259 0 
L 628 0 
L 628 4666 
z
" transform="scale(0.015625)"/>
       <path id="DejaVuSans-6f" d="M 1959 3097 
Q 1497 3097 1228 2736 
Q 959 2375 959 1747 
Q 959 1119 1226 758 
Q 1494 397 1959 397 
Q 2419 397 2687 759 
Q 2956 1122 2956 1747 
Q 2956 2369 2687 2733 
Q 2419 3097 1959 3097 
z
M 1959 3584 
Q 2709 3584 3137 3096 
Q 3566 2609 3566 1747 
Q 3566 888 3137 398 
Q 2709 -91 1959 -91 
Q 1206 -91 779 398 
Q 353 888 353 1747 
Q 353 2609 779 3096 
Q 1206 3584 1959 3584 
z
" transform="scale(0.015625)"/>
       <path id="DejaVuSans-73" d="M 2834 3397 
L 2834 2853 
Q 2591 2978 2328 3040 
Q 2066 3103 1784 3103 
Q 1356 3103 1142 2972 
Q 928 2841 928 2578 
Q 928 2378 1081 2264 
Q 1234 2150 1697 2047 
L 1894 2003 
Q 2506 1872 2764 1633 
Q 3022 1394 3022 966 
Q 3022 478 2636 193 
Q 2250 -91 1575 -91 
Q 1294 -91 989 -36 
Q 684 19 347 128 
L 347 722 
Q 666 556 975 473 
Q 1284 391 1588 391 
Q 1994 391 2212 530 
Q 2431 669 2431 922 
Q 2431 1156 2273 1281 
Q 2116 1406 1581 1522 
L 1381 1569 
Q 847 1681 609 1914 
Q 372 2147 372 2553 
Q 372 3047 722 3315 
Q 1072 3584 1716 3584 
Q 2034 3584 2315 3537 
Q 2597 3491 2834 3397 
z
" transform="scale(0.015625)"/>
       <path id="DejaVuSans-69" d="M 603 3500 
L 1178 3500 
L 1178 0 
L 603 0 
L 603 3500 
z
M 603 4863 
L 1178 4863 
L 1178 4134 
L 603 4134 
L 603 4863 
z
" transform="scale(0.015625)"/>
       <path id="DejaVuSans-74" d="M 1172 4494 
L 1172 3500 
L 2356 3500 
L 2356 3053 
L 1172 3053 
L 1172 1153 
Q 1172 725 1289 603 
Q 1406 481 1766 481 
L 2356 481 
L 2356 0 
L 1766 0 
Q 1100 0 847 248 
Q 594 497 594 1153 
L 594 3053 
L 172 3053 
L 172 3500 
L 594 3500 
L 594 4494 
L 1172 4494 
z
" transform="scale(0.015625)"/>
       <path id="DejaVuSans-76" d="M 191 3500 
L 800 3500 
L 1894 563 
L 2988 3500 
L 3597 3500 
L 2284 0 
L 1503 0 
L 191 3500 
z
" transform="scale(0.015625)"/>
       <path id="DejaVuSans-62" d="M 3116 1747 
Q 3116 2381 2855 2742 
Q 2594 3103 2138 3103 
Q 1681 3103 1420 2742 
Q 1159 2381 1159 1747 
Q 1159 1113 1420 752 
Q 1681 391 2138 391 
Q 2594 391 2855 752 
Q 3116 1113 3116 1747 
z
M 1159 2969 
Q 1341 3281 1617 3432 
Q 1894 3584 2278 3584 
Q 2916 3584 3314 3078 
Q 3713 2572 3713 1747 
Q 3713 922 3314 415 
Q 2916 -91 2278 -91 
Q 1894 -91 1617 61 
Q 1341 213 1159 525 
L 1159 0 
L 581 0 
L 581 4863 
L 1159 4863 
L 1159 2969 
z
" transform="scale(0.015625)"/>
       <path id="DejaVuSans-3a" d="M 750 794 
L 1409 794 
L 1409 0 
L 750 0 
L 750 794 
z
M 750 3309 
L 1409 3309 
L 1409 2516 
L 750 2516 
L 750 3309 
z
" transform="scale(0.015625)"/>
       <path id="DejaVuSans-29" d="M 513 4856 
L 1013 4856 
Q 1481 4119 1714 3412 
Q 1947 2706 1947 2009 
Q 1947 1309 1714 600 
Q 1481 -109 1013 -844 
L 513 -844 
Q 928 -128 1133 580 
Q 1338 1288 1338 2009 
Q 1338 2731 1133 3434 
Q 928 4138 513 4856 
z
" transform="scale(0.015625)"/>
      </defs>
      <use xlink:href="#DejaVuSans-52"/>
      <use xlink:href="#DejaVuSans-65" x="64.982422"/>
      <use xlink:href="#DejaVuSans-63" x="126.505859"/>
      <use xlink:href="#DejaVuSans-61" x="181.486328"/>
      <use xlink:href="#DejaVuSans-6c" x="242.765625"/>
      <use xlink:href="#DejaVuSans-6c" x="270.548828"/>
      <use xlink:href="#DejaVuSans-20" x="298.332031"/>
      <use xlink:href="#DejaVuSans-28" x="330.119141"/>
      <use xlink:href="#DejaVuSans-50" x="369.132812"/>
      <use xlink:href="#DejaVuSans-6f" x="425.810547"/>
      <use xlink:href="#DejaVuSans-73" x="486.992188"/>
      <use xlink:href="#DejaVuSans-69" x="539.091797"/>
      <use xlink:href="#DejaVuSans-74" x="566.875"/>
      <use xlink:href="#DejaVuSans-69" x="606.083984"/>
      <use xlink:href="#DejaVuSans-76" x="633.867188"/>
      <use xlink:href="#DejaVuSans-65" x="693.046875"/>
      <use xlink:href="#DejaVuSans-20" x="754.570312"/>
      <use xlink:href="#DejaVuSans-6c" x="786.357422"/>
      <use xlink:href="#DejaVuSans-61" x="814.140625"/>
      <use xlink:href="#DejaVuSans-62" x="875.419922"/>
      <use xlink:href="#DejaVuSans-65" x="938.896484"/>
      <use xlink:href="#DejaVuSans-6c" x="1000.419922"/>
      <use xlink:href="#DejaVuSans-3a" x="1028.203125"/>
      <use xlink:href="#DejaVuSans-20" x="1061.894531"/>
      <use xlink:href="#DejaVuSans-31" x="1093.681641"/>
      <use xlink:href="#DejaVuSans-29" x="1157.304688"/>
     </g>
    </g>
   </g>
   <g id="matplotlib.axis_2">
    <g id="ytick_1">
     <g id="line2d_7">
      <path d="M 57.6 259.669882 
L 414.72 259.669882 
" clip-path="url(#pc5cf75d7df)" style="fill: none; stroke: #ffffff; stroke-linecap: round"/>
     </g>
     <g id="text_8">
      <!-- 0.2 -->
      <g style="fill: #262626" transform="translate(30.606563 263.849023)scale(0.11 -0.11)">
       <use xlink:href="#DejaVuSans-30"/>
       <use xlink:href="#DejaVuSans-2e" x="63.623047"/>
       <use xlink:href="#DejaVuSans-32" x="95.410156"/>
      </g>
     </g>
    </g>
    <g id="ytick_2">
     <g id="line2d_8">
      <path d="M 57.6 208.144412 
L 414.72 208.144412 
" clip-path="url(#pc5cf75d7df)" style="fill: none; stroke: #ffffff; stroke-linecap: round"/>
     </g>
     <g id="text_9">
      <!-- 0.4 -->
      <g style="fill: #262626" transform="translate(30.606563 212.323552)scale(0.11 -0.11)">
       <use xlink:href="#DejaVuSans-30"/>
       <use xlink:href="#DejaVuSans-2e" x="63.623047"/>
       <use xlink:href="#DejaVuSans-34" x="95.410156"/>
      </g>
     </g>
    </g>
    <g id="ytick_3">
     <g id="line2d_9">
      <path d="M 57.6 156.618941 
L 414.72 156.618941 
" clip-path="url(#pc5cf75d7df)" style="fill: none; stroke: #ffffff; stroke-linecap: round"/>
     </g>
     <g id="text_10">
      <!-- 0.6 -->
      <g style="fill: #262626" transform="translate(30.606563 160.798082)scale(0.11 -0.11)">
       <use xlink:href="#DejaVuSans-30"/>
       <use xlink:href="#DejaVuSans-2e" x="63.623047"/>
       <use xlink:href="#DejaVuSans-36" x="95.410156"/>
      </g>
     </g>
    </g>
    <g id="ytick_4">
     <g id="line2d_10">
      <path d="M 57.6 105.093471 
L 414.72 105.093471 
" clip-path="url(#pc5cf75d7df)" style="fill: none; stroke: #ffffff; stroke-linecap: round"/>
     </g>
     <g id="text_11">
      <!-- 0.8 -->
      <g style="fill: #262626" transform="translate(30.606563 109.272611)scale(0.11 -0.11)">
       <use xlink:href="#DejaVuSans-30"/>
       <use xlink:href="#DejaVuSans-2e" x="63.623047"/>
       <use xlink:href="#DejaVuSans-38" x="95.410156"/>
      </g>
     </g>
    </g>
    <g id="ytick_5">
     <g id="line2d_11">
      <path d="M 57.6 53.568 
L 414.72 53.568 
" clip-path="url(#pc5cf75d7df)" style="fill: none; stroke: #ffffff; stroke-linecap: round"/>
     </g>
     <g id="text_12">
      <!-- 1.0 -->
      <g style="fill: #262626" transform="translate(30.606563 57.747141)scale(0.11 -0.11)">
       <use xlink:href="#DejaVuSans-31"/>
       <use xlink:href="#DejaVuSans-2e" x="63.623047"/>
       <use xlink:href="#DejaVuSans-30" x="95.410156"/>
      </g>
     </g>
    </g>
    <g id="text_13">
     <!-- Precision (Positive label: 1) -->
     <g style="fill: #262626" transform="translate(24.110937 255.1755)rotate(-90)scale(0.12 -0.12)">
      <defs>
       <path id="DejaVuSans-72" d="M 2631 2963 
Q 2534 3019 2420 3045 
Q 2306 3072 2169 3072 
Q 1681 3072 1420 2755 
Q 1159 2438 1159 1844 
L 1159 0 
L 581 0 
L 581 3500 
L 1159 3500 
L 1159 2956 
Q 1341 3275 1631 3429 
Q 1922 3584 2338 3584 
Q 2397 3584 2469 3576 
Q 2541 3569 2628 3553 
L 2631 2963 
z
" transform="scale(0.015625)"/>
       <path id="DejaVuSans-6e" d="M 3513 2113 
L 3513 0 
L 2938 0 
L 2938 2094 
Q 2938 2591 2744 2837 
Q 2550 3084 2163 3084 
Q 1697 3084 1428 2787 
Q 1159 2491 1159 1978 
L 1159 0 
L 581 0 
L 581 3500 
L 1159 3500 
L 1159 2956 
Q 1366 3272 1645 3428 
Q 1925 3584 2291 3584 
Q 2894 3584 3203 3211 
Q 3513 2838 3513 2113 
z
" transform="scale(0.015625)"/>
      </defs>
      <use xlink:href="#DejaVuSans-50"/>
      <use xlink:href="#DejaVuSans-72" x="58.552734"/>
      <use xlink:href="#DejaVuSans-65" x="97.416016"/>
      <use xlink:href="#DejaVuSans-63" x="158.939453"/>
      <use xlink:href="#DejaVuSans-69" x="213.919922"/>
      <use xlink:href="#DejaVuSans-73" x="241.703125"/>
      <use xlink:href="#DejaVuSans-69" x="293.802734"/>
      <use xlink:href="#DejaVuSans-6f" x="321.585938"/>
      <use xlink:href="#DejaVuSans-6e" x="382.767578"/>
      <use xlink:href="#DejaVuSans-20" x="446.146484"/>
      <use xlink:href="#DejaVuSans-28" x="477.933594"/>
      <use xlink:href="#DejaVuSans-50" x="516.947266"/>
      <use xlink:href="#DejaVuSans-6f" x="573.625"/>
      <use xlink:href="#DejaVuSans-73" x="634.806641"/>
      <use xlink:href="#DejaVuSans-69" x="686.90625"/>
      <use xlink:href="#DejaVuSans-74" x="714.689453"/>
      <use xlink:href="#DejaVuSans-69" x="753.898438"/>
      <use xlink:href="#DejaVuSans-76" x="781.681641"/>
      <use xlink:href="#DejaVuSans-65" x="840.861328"/>
      <use xlink:href="#DejaVuSans-20" x="902.384766"/>
      <use xlink:href="#DejaVuSans-6c" x="934.171875"/>
      <use xlink:href="#DejaVuSans-61" x="961.955078"/>
      <use xlink:href="#DejaVuSans-62" x="1023.234375"/>
      <use xlink:href="#DejaVuSans-65" x="1086.710938"/>
      <use xlink:href="#DejaVuSans-6c" x="1148.234375"/>
      <use xlink:href="#DejaVuSans-3a" x="1176.017578"/>
      <use xlink:href="#DejaVuSans-20" x="1209.708984"/>
      <use xlink:href="#DejaVuSans-31" x="1241.496094"/>
      <use xlink:href="#DejaVuSans-29" x="1305.119141"/>
     </g>
    </g>
   </g>
   <g id="line2d_12">
    <path d="M 398.487273 295.488 
L 398.396095 150.822138 
L 398.365702 150.822138 
L 398.365702 150.790404 
L 398.274524 148.20288 
L 398.244131 148.208489 
L 398.244131 148.092484 
L 398.152953 146.408355 
L 398.092168 146.305193 
L 398.092168 146.300865 
L 398.00099 145.041444 
L 397.970597 145.046975 
L 397.970597 144.936384 
L 397.879419 144.51921 
L 397.849027 144.51921 
L 397.849027 144.4134 
L 397.757849 143.400662 
L 397.697063 143.395897 
L 397.697063 143.298767 
L 397.605885 142.872496 
L 397.575493 142.872496 
L 397.575493 142.846996 
L 397.514707 142.027629 
L 397.484314 142.033084 
L 397.393136 141.970945 
L 397.393136 141.945072 
L 397.301958 141.825539 
L 397.21078 141.742228 
L 397.21078 141.726726 
L 397.119602 141.396595 
L 397.08921 141.396595 
L 397.08921 141.307293 
L 396.998032 140.508603 
L 396.967639 140.508603 
L 396.967639 140.418246 
L 396.906854 140.173136 
L 396.876461 140.178545 
L 396.815676 140.119845 
L 396.815676 140.07179 
L 396.724498 139.863084 
L 396.694105 139.863084 
L 396.694105 139.771904 
L 396.602927 138.653101 
L 396.572534 138.653101 
L 396.572534 138.571371 
L 396.511749 136.799178 
L 396.481356 136.804485 
L 396.450964 136.804485 
L 396.450964 136.698521 
L 396.359786 134.982561 
L 396.329393 134.982561 
L 396.329393 134.874156 
L 396.238215 134.055674 
L 396.207822 134.055674 
L 396.207822 133.945996 
L 396.116644 130.431742 
L 396.086251 130.424866 
L 396.086251 130.353061 
L 395.995073 128.456465 
L 395.964681 128.456465 
L 395.964681 128.363594 
L 395.873503 126.210638 
L 395.84311 126.210638 
L 395.84311 126.102669 
L 395.751932 124.598736 
L 395.691147 124.539771 
L 395.691147 124.493535 
L 395.599969 123.982724 
L 395.569576 123.974706 
L 395.569576 123.948998 
L 395.478398 123.266605 
L 395.448005 123.266605 
L 395.448005 123.180688 
L 395.356827 122.374529 
L 395.296042 122.313863 
L 395.296042 122.279344 
L 395.204864 121.728694 
L 395.113686 121.64588 
L 395.113686 121.62423 
L 395.022508 121.122338 
L 394.93133 121.091951 
L 394.93133 121.016972 
L 394.840152 120.14992 
L 394.779366 120.087502 
L 394.779366 120.065323 
L 394.688188 119.202415 
L 394.627403 119.112125 
L 394.627403 119.103186 
L 394.536225 118.777188 
L 394.445047 118.704661 
L 394.445047 118.682004 
L 394.353869 118.258408 
L 394.293084 118.153327 
L 394.201906 117.414139 
L 394.110728 117.312557 
L 394.110728 117.317109 
L 394.01955 117.011754 
L 393.958764 116.918988 
L 393.958764 116.923524 
L 393.867586 116.784 
L 393.837194 116.784 
L 393.837194 116.677002 
L 393.746016 116.46711 
L 393.68523 116.401683 
L 393.68523 116.378204 
L 393.594052 115.914562 
L 393.56366 115.914562 
L 393.56366 115.834598 
L 393.472481 115.452912 
L 393.411696 115.344182 
L 393.320518 115.234518 
L 393.198947 115.191165 
L 393.198947 115.153045 
L 393.107769 114.92475 
L 393.046984 114.829508 
L 393.046984 114.819703 
L 392.955806 114.518953 
L 392.743057 114.431056 
L 392.743057 114.421164 
L 392.651879 113.960575 
L 392.530309 113.872971 
L 392.530309 113.862963 
L 392.439131 113.486163 
L 392.226382 113.382104 
L 392.226382 113.386488 
L 392.135204 113.051028 
L 392.013633 112.94764 
L 391.922455 112.804662 
L 391.831277 112.696522 
L 391.740099 112.509066 
L 391.618528 112.404825 
L 391.52735 112.290063 
L 391.496958 112.290063 
L 391.496958 112.191503 
L 391.436172 111.550871 
L 391.40578 111.555171 
L 391.314602 111.460069 
L 391.314602 111.449541 
L 391.253816 111.235478 
L 391.162638 111.214323 
L 391.162638 111.129366 
L 391.07146 110.978369 
L 391.041068 110.978369 
L 391.041068 110.893157 
L 390.94989 110.322255 
L 390.919497 110.322255 
L 390.919497 110.296469 
L 390.858712 109.58151 
L 390.706748 109.492364 
L 390.706748 109.496563 
L 390.61557 109.175348 
L 390.493999 109.096654 
L 390.493999 109.070399 
L 390.402821 108.747484 
L 390.342036 108.644671 
L 390.250858 107.847486 
L 390.129287 107.813565 
L 390.129287 107.740514 
L 390.038109 107.397073 
L 390.007717 107.397073 
L 390.007717 107.292633 
L 389.946931 106.912201 
L 389.825361 106.815311 
L 389.825361 106.803778 
L 389.734183 106.550438 
L 389.70379 106.550438 
L 389.70379 106.444945 
L 389.612612 106.127691 
L 389.491041 106.045451 
L 389.491041 106.033745 
L 389.399863 105.00212 
L 389.36947 105.00212 
L 389.36947 104.910672 
L 389.278292 104.555917 
L 389.095936 104.475803 
L 389.095936 104.451694 
L 389.004758 103.821632 
L 388.943973 103.809434 
L 388.943973 103.797232 
L 388.91358 103.057668 
L 388.852795 103.065383 
L 388.761617 103.008184 
L 388.761617 102.979564 
L 388.670439 102.551639 
L 388.579261 102.510346 
L 388.579261 102.481525 
L 388.488083 101.821306 
L 388.305727 101.758017 
L 388.305727 101.728889 
L 388.214549 101.327867 
L 388.153764 101.298566 
L 388.153764 101.269251 
L 388.062585 100.716554 
L 388.032193 100.72028 
L 388.032193 100.620434 
L 387.971407 100.511255 
L 387.941015 100.514969 
L 387.819444 100.459401 
L 387.819444 100.413047 
L 387.758659 100.32025 
L 387.728266 100.323955 
L 387.637088 100.214304 
L 387.54591 99.860255 
L 387.302769 99.751516 
L 387.272376 99.489306 
L 387.211591 99.496625 
L 387.150805 99.500286 
L 387.150805 99.436432 
L 387.059627 99.109124 
L 386.846879 99.012262 
L 386.846879 98.998927 
L 386.7557 98.856958 
L 386.664522 98.813198 
L 386.664522 98.748762 
L 386.603737 98.568591 
L 386.573344 98.572201 
L 386.360596 98.474382 
L 386.269418 98.18086 
L 386.087062 98.078772 
L 386.026276 98.003685 
L 385.995884 98.007265 
L 385.783135 97.908412 
L 385.783135 97.911989 
L 385.691957 97.784982 
L 385.539994 97.678566 
L 385.448816 97.554682 
L 385.327245 97.461612 
L 385.327245 97.465165 
L 385.236067 97.371954 
L 384.992925 97.275438 
L 384.992925 97.261633 
L 384.901747 97.202823 
L 384.749784 97.095325 
L 384.658606 96.935376 
L 384.445857 96.834463 
L 384.354679 96.761246 
L 384.263501 96.733336 
L 384.263501 96.666918 
L 384.202716 96.53392 
L 384.172323 96.537426 
L 384.081145 96.509397 
L 384.081145 96.477847 
L 383.989967 96.330435 
L 383.807611 96.224885 
L 383.807611 96.228375 
L 383.716433 96.045178 
L 383.594862 95.949811 
L 383.594862 95.93564 
L 383.534077 95.81897 
L 383.503684 95.822437 
L 383.138972 95.719044 
L 383.078187 95.694012 
L 383.047794 95.697475 
L 382.743868 95.586754 
L 382.652689 95.547315 
L 382.531119 95.468813 
L 382.531119 95.436693 
L 382.439941 95.304609 
L 382.31837 95.225805 
L 382.31837 95.193566 
L 382.227192 95.025275 
L 382.075229 94.967447 
L 382.075229 94.970873 
L 381.984051 94.837883 
L 381.86248 94.812286 
L 381.86248 94.761896 
L 381.771302 94.664425 
L 381.710517 94.649869 
L 381.710517 94.563404 
L 381.619339 94.483649 
L 381.528161 94.418411 
L 381.528161 94.385767 
L 381.436983 94.287738 
L 381.345804 94.222304 
L 381.345804 94.189562 
L 381.254626 94.091239 
L 381.07227 93.981398 
L 380.981092 93.795384 
L 380.707558 93.69506 
L 380.707558 93.643845 
L 380.61638 93.653902 
L 380.525202 93.569569 
L 380.525202 93.554698 
L 380.434024 93.126488 
L 380.221276 93.073169 
L 380.221276 93.076486 
L 380.130098 92.811262 
L 379.978134 92.769334 
L 379.978134 92.735859 
L 379.886956 92.616918 
L 379.734993 92.5195 
L 379.734993 92.522785 
L 379.643815 92.366514 
L 379.370281 92.263276 
L 379.309495 92.19903 
L 379.279103 92.202297 
L 379.218317 92.094365 
L 379.127139 92.014633 
L 379.066354 91.925026 
L 379.066354 91.909693 
L 378.975176 91.770631 
L 378.944783 91.770631 
L 378.944783 91.680755 
L 378.853605 91.410576 
L 378.701642 91.329968 
L 378.701642 91.314473 
L 378.610464 91.118081 
L 378.33693 91.012303 
L 378.245752 90.893503 
L 378.033003 90.799677 
L 378.033003 90.784021 
L 377.941825 90.586085 
L 377.820254 90.520031 
L 377.820254 90.485393 
L 377.729076 90.400298 
L 377.577113 90.318239 
L 377.577113 90.302442 
L 377.516328 90.270833 
L 377.485935 90.273983 
L 377.182008 90.169462 
L 377.121223 90.121885 
L 377.09083 90.125029 
L 377.030045 90.109158 
L 377.030045 90.017171 
L 376.969259 89.985365 
L 376.938867 89.988501 
L 376.665333 89.880131 
L 376.574155 89.797194 
L 376.543762 89.797194 
L 376.543762 89.704767 
L 376.543762 89.685647 
L 376.513369 89.688765 
L 376.391799 89.583298 
L 376.391799 89.58641 
L 376.300621 89.423238 
L 376.118265 89.323554 
L 376.118265 89.307437 
L 376.027087 89.316724 
L 375.814338 89.232952 
L 375.753552 89.152136 
L 375.72316 89.155223 
L 375.480018 89.061136 
L 375.480018 89.04492 
L 375.38884 88.860953 
L 375.236877 88.795833 
L 375.236877 88.760175 
L 375.145699 88.594902 
L 374.993736 88.568298 
L 374.993736 88.493666 
L 374.902558 88.3667 
L 374.720202 88.255964 
L 374.689809 88.115125 
L 374.629024 88.12117 
L 374.233919 88.017644 
L 374.142741 87.954462 
L 373.899599 87.857997 
L 373.808421 87.713021 
L 373.443709 87.608375 
L 373.382924 87.479477 
L 373.170175 87.438239 
L 373.170175 87.421493 
L 373.10939 87.210138 
L 372.896641 87.129 
L 372.896641 87.131967 
L 372.866248 87.016037 
L 372.531929 86.928667 
L 372.471144 86.776349 
L 371.711327 86.667629 
L 371.711327 86.670572 
L 371.620149 86.559525 
L 371.528971 86.5054 
L 371.528971 86.488325 
L 371.437793 86.397007 
L 371.073081 86.288789 
L 371.073081 86.29171 
L 370.981903 86.240219 
L 370.738761 86.177308 
L 370.738761 86.16302 
L 370.677976 85.987588 
L 370.374049 85.892637 
L 370.374049 85.895534 
L 370.313264 85.840723 
L 370.282871 85.843618 
L 369.887766 85.756956 
L 369.887766 85.739595 
L 369.857374 85.6817 
L 369.796588 85.687473 
L 368.702452 85.585407 
L 368.702452 85.588297 
L 368.672059 85.550449 
L 368.641667 85.553337 
L 368.489703 85.544512 
L 368.489703 85.445426 
L 368.398525 85.392829 
L 367.821064 85.298612 
L 367.821064 85.283887 
L 367.821064 85.263405 
L 366.63575 85.263405 
L 366.63575 85.375872 
L 366.574965 85.36111 
L 364.538656 85.470563 
L 364.538656 85.473485 
L 364.47787 85.396583 
L 364.447478 85.399501 
L 363.930802 85.369468 
L 363.930802 85.262508 
L 363.262163 85.178136 
L 363.262163 85.181048 
L 363.262163 85.118567 
L 363.170985 85.127291 
L 361.620959 85.022086 
L 361.560174 84.946916 
L 361.529781 84.949827 
L 359.219938 84.852527 
L 359.219938 84.855454 
L 359.12876 84.737074 
L 357.457163 84.724967 
L 357.457163 84.663886 
L 357.365985 84.544507 
L 356.119885 84.544507 
L 356.119885 84.664741 
L 355.633602 84.623042 
L 355.633602 84.604496 
L 355.633602 84.518487 
L 353.080618 84.518487 
L 353.080618 84.76718 
L 352.989439 84.732798 
L 352.867869 84.655001 
L 352.867869 84.636279 
L 352.867869 84.592869 
L 352.776691 84.601788 
L 352.685513 84.564293 
L 352.685513 84.545534 
L 352.685513 84.480317 
L 352.320801 84.382301 
L 352.229623 84.241463 
L 352.047267 84.146988 
L 352.047267 84.149932 
L 351.956089 84.071277 
L 351.591376 83.972154 
L 351.500198 83.786319 
L 351.257057 83.696794 
L 351.257057 83.677698 
L 351.226664 83.614551 
L 351.165879 83.620368 
L 350.983523 83.524669 
L 350.892345 83.47006 
L 350.740382 83.371164 
L 350.679596 83.247071 
L 350.649204 83.249955 
L 350.466848 83.15356 
L 350.37567 82.742835 
L 350.162921 82.648473 
L 350.071743 82.481248 
L 349.858994 82.386392 
L 349.858994 82.38921 
L 349.767816 82.240896 
L 349.403104 82.137128 
L 349.311926 82.035949 
L 349.159963 81.957107 
L 349.159963 81.937377 
L 349.068785 81.787948 
L 348.886428 81.688938 
L 348.79525 81.60959 
L 348.582502 81.535631 
L 348.582502 81.51574 
L 348.491324 81.410672 
L 348.369753 81.328142 
L 348.369753 81.308177 
L 348.278575 81.202768 
L 348.065826 81.128135 
L 348.065826 81.108091 
L 348.005041 81.045189 
L 347.88347 80.93931 
L 347.792292 80.721657 
L 347.701114 80.635501 
L 347.701114 80.61529 
L 347.609936 80.302189 
L 347.42758 80.200526 
L 347.336402 80.11905 
L 347.154046 80.017022 
L 347.062868 79.912159 
L 346.941297 79.850727 
L 346.941297 79.807108 
L 346.850119 79.60659 
L 346.606978 79.508837 
L 346.5158 79.449553 
L 346.333444 79.416034 
L 346.333444 79.348836 
L 346.272659 79.190974 
L 346.05991 79.089768 
L 345.968732 78.983221 
L 345.755983 78.881582 
L 345.664805 78.821508 
L 345.452056 78.719504 
L 345.421664 78.654138 
L 345.391271 78.656672 
L 345.087344 78.608951 
L 345.087344 78.564422 
L 344.996166 78.477803 
L 344.81381 78.372498 
L 344.722632 78.288101 
L 344.631454 78.245851 
L 344.631454 78.224713 
L 344.570669 78.087739 
L 344.540276 78.09023 
L 344.35792 77.984178 
L 344.266742 77.899181 
L 343.932423 77.805086 
L 343.932423 77.783763 
L 343.841245 77.791171 
L 343.689281 77.681941 
L 343.598103 77.500883 
L 343.476532 77.412626 
L 343.385354 77.302734 
L 342.99025 77.21202 
L 342.899072 77.053586 
L 342.595145 76.954959 
L 342.503967 76.868179 
L 342.291218 76.783647 
L 342.20004 76.698958 
L 342.139255 76.677166 
L 342.139255 76.631175 
L 342.048077 76.517257 
L 341.622579 76.426766 
L 341.592187 76.38292 
L 341.531401 76.387641 
L 341.166689 76.291972 
L 341.075511 76.130777 
L 340.953941 76.064584 
L 340.953941 76.042502 
L 340.862763 75.927302 
L 340.741192 75.860871 
L 340.741192 75.83871 
L 340.710799 75.792045 
L 337.154856 75.792045 
L 337.124464 75.966837 
L 337.063678 75.949122 
L 336.759751 75.891172 
L 336.729359 75.801183 
L 336.698966 75.803532 
L 335.817579 75.694832 
L 335.756793 75.626915 
L 335.513652 75.536224 
L 335.452867 75.399898 
L 335.300903 75.33392 
L 335.300903 75.311134 
L 335.209725 75.192452 
L 335.027369 75.101032 
L 335.027369 75.105625 
L 334.936191 75.011745 
L 334.81462 74.942955 
L 334.81462 74.920005 
L 334.753835 74.773031 
L 334.723442 74.775298 
L 334.389123 74.671429 
L 334.297945 74.553722 
L 334.176374 74.484335 
L 334.176374 74.461186 
L 334.085196 74.366258 
L 333.963625 74.271187 
L 333.872447 74.178188 
L 333.750877 74.108334 
L 333.750877 74.08503 
L 333.659699 74.015056 
L 333.507735 74.015056 
L 333.507735 73.898231 
L 333.264594 73.898231 
L 333.173416 73.486205 
L 332.07928 73.46265 
L 331.988102 72.455801 
L 331.775353 72.389961 
L 331.775353 72.365932 
L 331.684175 72.189288 
L 331.532212 72.092808 
L 331.441034 72.022358 
L 331.349855 71.973987 
L 331.349855 71.949785 
L 331.258677 71.693248 
L 331.076321 71.597952 
L 330.985143 71.500496 
L 330.83318 71.402867 
L 330.742002 71.252205 
L 330.681217 71.201262 
L 330.681217 71.150286 
L 330.650824 71.046304 
L 330.468468 71.002927 
L 330.468468 70.9518 
L 330.407683 70.743157 
L 330.225327 70.646219 
L 330.134149 70.547206 
L 329.982185 70.448018 
L 329.891007 70.321926 
L 329.708651 70.224201 
L 329.647866 70.122598 
L 329.617473 70.124439 
L 329.526295 70.047667 
L 329.526295 70.049501 
L 329.46551 69.972636 
L 329.404724 69.972636 
L 329.404724 69.868806 
L 329.313546 69.739725 
L 329.283154 69.739725 
L 329.283154 69.687668 
L 329.283154 69.606833 
L 329.191976 69.612203 
L 329.040012 69.511426 
L 328.948834 69.383433 
L 328.766478 69.284018 
L 328.6753 69.155537 
L 328.523337 69.079368 
L 328.492944 69.003096 
L 328.462551 69.004827 
L 328.280195 68.93017 
L 328.21941 68.800912 
L 328.097839 68.696977 
L 328.097839 68.698679 
L 328.097839 68.671393 
L 328.006661 68.676493 
L 327.793913 68.63206 
L 327.793913 68.579083 
L 327.733127 68.473022 
L 327.702735 68.474703 
L 327.672342 68.474703 
L 327.672342 68.421614 
L 327.672342 68.33941 
L 327.489986 68.236345 
L 327.398808 68.079755 
L 327.246844 67.976232 
L 327.155666 67.872522 
L 327.034096 67.820596 
L 327.034096 67.768623 
L 326.942918 67.552315 
L 326.912525 67.552315 
L 326.912525 67.443169 
L 326.821347 67.281558 
L 326.790954 67.281558 
L 326.790954 67.172085 
L 326.730169 67.119615 
L 326.699776 67.121158 
L 326.426242 67.048501 
L 326.426242 67.051575 
L 326.426242 66.995886 
L 324.937001 66.995886 
L 324.845823 65.44064 
L 324.815431 65.44064 
L 324.815431 65.41362 
L 324.724253 65.076409 
L 324.450718 65.00152 
L 324.450718 64.974311 
L 324.35954 64.835461 
L 324.207577 64.726268 
L 324.207577 64.727564 
L 324.146792 64.586929 
L 324.116399 64.58821 
L 323.873258 64.568493 
L 323.873258 64.483651 
L 323.78208 64.429996 
L 323.751687 64.429996 
L 323.751687 64.373761 
L 323.660509 64.089537 
L 323.32619 63.98631 
L 323.32619 63.987528 
L 323.32619 63.929722 
L 323.235011 63.933358 
L 323.022263 63.882745 
L 323.022263 63.826028 
L 322.99187 63.769271 
L 322.931085 63.771661 
L 322.444802 63.673406 
L 322.444802 63.674593 
L 322.353624 63.50354 
L 322.323231 63.50354 
L 322.323231 63.417299 
L 322.232053 63.187302 
L 321.836948 63.080488 
L 321.836948 63.084979 
L 321.806556 62.880932 
L 321.74577 62.883133 
L 321.441844 62.774421 
L 321.441844 62.7766 
L 321.441844 62.717782 
L 321.350666 62.721032 
L 321.046739 62.642398 
L 321.046739 62.61399 
L 320.985954 62.527622 
L 320.955561 62.528685 
L 320.590849 62.480216 
L 320.590849 62.452758 
L 320.499671 62.011275 
L 320.043781 61.906351 
L 320.043781 61.877567 
L 319.952603 61.880546 
L 319.739854 61.886511 
L 319.739854 61.79802 
L 319.709461 61.709444 
L 319.648676 61.711393 
L 318.55454 61.655652 
L 318.55454 61.626603 
L 318.55454 60.994479 
L 318.463362 60.997167 
L 318.341791 60.968762 
L 318.341791 60.910115 
L 318.250613 60.761511 
L 317.733937 60.745119 
L 317.733937 60.685295 
L 317.642759 60.444731 
L 317.095691 60.367457 
L 317.095691 60.33777 
L 317.095691 60.276719 
L 317.004513 60.279169 
L 316.39666 60.233487 
L 316.39666 60.173023 
L 316.39666 60.142373 
L 311.594617 60.081682 
L 311.594617 60.021527 
L 311.412261 59.962891 
L 311.412261 59.963689 
L 311.412261 59.838261 
L 311.321083 59.84061 
L 309.92302 59.781347 
L 309.892628 59.688107 
L 309.831842 59.689646 
L 308.798491 59.588091 
L 308.798491 59.588851 
L 308.798491 59.493462 
L 308.707313 59.495709 
L 308.09946 59.41426 
L 308.008282 59.353339 
L 307.248465 59.273379 
L 307.248465 59.275558 
L 307.248465 59.147191 
L 307.18768 59.148613 
L 282.296079 59.223924 
L 282.235294 59.442359 
L 280.381341 59.384436 
L 280.381341 59.385272 
L 280.381341 59.276577 
L 280.320556 59.278221 
L 279.439168 59.192076 
L 279.439168 59.192889 
L 279.439168 59.010569 
L 279.34799 59.012932 
L 279.044063 58.94691 
L 279.044063 58.911105 
L 279.044063 58.874511 
L 278.952885 58.876821 
L 278.223461 58.821107 
L 278.223461 58.821872 
L 278.132283 58.676971 
L 277.646 58.577421 
L 277.646 58.54121 
L 277.554822 58.543393 
L 277.463644 58.433875 
L 277.463644 58.434588 
L 277.463644 58.39757 
L 277.402859 58.398985 
L 277.220503 58.36546 
L 277.220503 58.291987 
L 277.220503 58.254883 
L 277.129325 58.256946 
L 276.551864 58.156975 
L 276.551864 58.158327 
L 276.491079 57.973185 
L 276.460686 57.973834 
L 275.214586 57.962415 
L 275.214586 57.887913 
L 275.214586 57.775098 
L 275.123408 57.776972 
L 275.062623 57.777597 
L 275.062623 57.702902 
L 274.971445 57.553904 
L 273.512597 57.505957 
L 273.512597 57.468519 
L 273.512597 57.430479 
L 273.421419 57.432217 
L 272.479246 57.334936 
L 272.388068 57.260607 
L 271.840999 57.154822 
L 271.840999 57.155364 
L 271.810607 57.001991 
L 271.780214 57.002511 
L 271.385109 56.892981 
L 271.385109 56.893486 
L 271.385109 56.854862 
L 271.293931 56.85636 
L 269.926261 56.761728 
L 269.926261 56.723265 
L 269.835083 56.724714 
L 269.561549 56.728102 
L 269.561549 56.650991 
L 269.561549 56.611932 
L 269.470371 56.613334 
L 255.854453 56.513677 
L 255.854453 55.870147 
L 255.763275 55.871291 
L 254.91228 55.795573 
L 254.91228 55.797055 
L 254.91228 55.754553 
L 254.881887 55.754917 
L 254.0005 55.6797 
L 254.0005 55.680053 
L 254.0005 55.637296 
L 253.909322 55.638335 
L 253.575002 55.556065 
L 253.575002 55.513499 
L 253.483824 55.514479 
L 252.237725 55.441178 
L 252.237725 55.441495 
L 252.237725 55.398235 
L 252.146547 55.399164 
L 250.414164 55.329253 
L 250.414164 55.329555 
L 250.414164 55.285809 
L 250.383772 55.286103 
L 249.867096 55.202187 
L 249.867096 55.203308 
L 249.775918 55.072264 
L 248.073928 54.997774 
L 248.073928 54.998022 
L 248.073928 54.953574 
L 247.98275 54.954295 
L 245.764085 54.881732 
L 245.733692 54.791991 
L 220.264631 54.794067 
L 220.264631 54.633016 
L 192.151408 54.556593 
L 192.151408 54.556846 
L 192.151408 54.359685 
L 192.06023 54.360293 
L 190.540596 54.303696 
L 190.540596 54.303887 
L 190.540596 54.237162 
L 190.449418 54.237684 
L 190.267062 54.171657 
L 190.267062 54.171814 
L 190.267062 54.037878 
L 190.175884 54.038245 
L 174.554049 53.955993 
L 174.554049 53.95611 
L 174.554049 53.878581 
L 174.493264 53.878769 
L 173.399128 53.803635 
L 173.399128 53.803707 
L 173.399128 53.725186 
L 173.30795 53.72533 
L 168.141195 53.650972 
L 168.141195 53.650999 
L 168.141195 53.568 
L 168.050017 53.568 
L 73.832727 53.568 
L 73.832727 53.568 
" clip-path="url(#pc5cf75d7df)" style="fill: none; stroke: #4c72b0; stroke-width: 1.5; stroke-linecap: round"/>
   </g>
   <g id="patch_3">
    <path d="M 57.6 307.584 
L 57.6 41.472 
" style="fill: none; stroke: #ffffff; stroke-width: 1.25; stroke-linejoin: miter; stroke-linecap: square"/>
   </g>
   <g id="patch_4">
    <path d="M 414.72 307.584 
L 414.72 41.472 
" style="fill: none; stroke: #ffffff; stroke-width: 1.25; stroke-linejoin: miter; stroke-linecap: square"/>
   </g>
   <g id="patch_5">
    <path d="M 57.6 307.584 
L 414.72 307.584 
" style="fill: none; stroke: #ffffff; stroke-width: 1.25; stroke-linejoin: miter; stroke-linecap: square"/>
   </g>
   <g id="patch_6">
    <path d="M 57.6 41.472 
L 414.72 41.472 
" style="fill: none; stroke: #ffffff; stroke-width: 1.25; stroke-linejoin: miter; stroke-linecap: square"/>
   </g>
   <g id="text_14">
    <!-- Precision-recall curve -->
    <g style="fill: #262626" transform="translate(172.175625 35.472)scale(0.12 -0.12)">
     <defs>
      <path id="DejaVuSans-2d" d="M 313 2009 
L 1997 2009 
L 1997 1497 
L 313 1497 
L 313 2009 
z
" transform="scale(0.015625)"/>
      <path id="DejaVuSans-75" d="M 544 1381 
L 544 3500 
L 1119 3500 
L 1119 1403 
Q 1119 906 1312 657 
Q 1506 409 1894 409 
Q 2359 409 2629 706 
Q 2900 1003 2900 1516 
L 2900 3500 
L 3475 3500 
L 3475 0 
L 2900 0 
L 2900 538 
Q 2691 219 2414 64 
Q 2138 -91 1772 -91 
Q 1169 -91 856 284 
Q 544 659 544 1381 
z
M 1991 3584 
L 1991 3584 
z
" transform="scale(0.015625)"/>
     </defs>
     <use xlink:href="#DejaVuSans-50"/>
     <use xlink:href="#DejaVuSans-72" x="58.552734"/>
     <use xlink:href="#DejaVuSans-65" x="97.416016"/>
     <use xlink:href="#DejaVuSans-63" x="158.939453"/>
     <use xlink:href="#DejaVuSans-69" x="213.919922"/>
     <use xlink:href="#DejaVuSans-73" x="241.703125"/>
     <use xlink:href="#DejaVuSans-69" x="293.802734"/>
     <use xlink:href="#DejaVuSans-6f" x="321.585938"/>
     <use xlink:href="#DejaVuSans-6e" x="382.767578"/>
     <use xlink:href="#DejaVuSans-2d" x="446.146484"/>
     <use xlink:href="#DejaVuSans-72" x="482.230469"/>
     <use xlink:href="#DejaVuSans-65" x="521.09375"/>
     <use xlink:href="#DejaVuSans-63" x="582.617188"/>
     <use xlink:href="#DejaVuSans-61" x="637.597656"/>
     <use xlink:href="#DejaVuSans-6c" x="698.876953"/>
     <use xlink:href="#DejaVuSans-6c" x="726.660156"/>
     <use xlink:href="#DejaVuSans-20" x="754.443359"/>
     <use xlink:href="#DejaVuSans-63" x="786.230469"/>
     <use xlink:href="#DejaVuSans-75" x="841.210938"/>
     <use xlink:href="#DejaVuSans-72" x="904.589844"/>
     <use xlink:href="#DejaVuSans-76" x="945.703125"/>
     <use xlink:href="#DejaVuSans-65" x="1004.882812"/>
    </g>
   </g>
   <g id="legend_1">
    <g id="patch_7">
     <path d="M 65.3 302.084 
L 250.215156 302.084 
Q 252.415156 302.084 252.415156 299.884 
L 252.415156 284.838062 
Q 252.415156 282.638062 250.215156 282.638062 
L 65.3 282.638062 
Q 63.1 282.638062 63.1 284.838062 
L 63.1 299.884 
Q 63.1 302.084 65.3 302.084 
z
" style="fill: #eaeaf2; opacity: 0.8; stroke: #cccccc; stroke-linejoin: miter"/>
    </g>
    <g id="line2d_13">
     <path d="M 67.5 291.546344 
L 78.5 291.546344 
L 78.5 291.546344 
L 89.5 291.546344 
L 89.5 291.546344 
" style="fill: none; stroke: #4c72b0; stroke-width: 1.5; stroke-linecap: round"/>
    </g>
    <g id="text_15">
     <!-- Random Forest (AP = 0.96) -->
     <g style="fill: #262626" transform="translate(98.3 295.396344)scale(0.11 -0.11)">
      <defs>
       <path id="DejaVuSans-64" d="M 2906 2969 
L 2906 4863 
L 3481 4863 
L 3481 0 
L 2906 0 
L 2906 525 
Q 2725 213 2448 61 
Q 2172 -91 1784 -91 
Q 1150 -91 751 415 
Q 353 922 353 1747 
Q 353 2572 751 3078 
Q 1150 3584 1784 3584 
Q 2172 3584 2448 3432 
Q 2725 3281 2906 2969 
z
M 947 1747 
Q 947 1113 1208 752 
Q 1469 391 1925 391 
Q 2381 391 2643 752 
Q 2906 1113 2906 1747 
Q 2906 2381 2643 2742 
Q 2381 3103 1925 3103 
Q 1469 3103 1208 2742 
Q 947 2381 947 1747 
z
" transform="scale(0.015625)"/>
       <path id="DejaVuSans-6d" d="M 3328 2828 
Q 3544 3216 3844 3400 
Q 4144 3584 4550 3584 
Q 5097 3584 5394 3201 
Q 5691 2819 5691 2113 
L 5691 0 
L 5113 0 
L 5113 2094 
Q 5113 2597 4934 2840 
Q 4756 3084 4391 3084 
Q 3944 3084 3684 2787 
Q 3425 2491 3425 1978 
L 3425 0 
L 2847 0 
L 2847 2094 
Q 2847 2600 2669 2842 
Q 2491 3084 2119 3084 
Q 1678 3084 1418 2786 
Q 1159 2488 1159 1978 
L 1159 0 
L 581 0 
L 581 3500 
L 1159 3500 
L 1159 2956 
Q 1356 3278 1631 3431 
Q 1906 3584 2284 3584 
Q 2666 3584 2933 3390 
Q 3200 3197 3328 2828 
z
" transform="scale(0.015625)"/>
       <path id="DejaVuSans-46" d="M 628 4666 
L 3309 4666 
L 3309 4134 
L 1259 4134 
L 1259 2759 
L 3109 2759 
L 3109 2228 
L 1259 2228 
L 1259 0 
L 628 0 
L 628 4666 
z
" transform="scale(0.015625)"/>
       <path id="DejaVuSans-41" d="M 2188 4044 
L 1331 1722 
L 3047 1722 
L 2188 4044 
z
M 1831 4666 
L 2547 4666 
L 4325 0 
L 3669 0 
L 3244 1197 
L 1141 1197 
L 716 0 
L 50 0 
L 1831 4666 
z
" transform="scale(0.015625)"/>
       <path id="DejaVuSans-3d" d="M 678 2906 
L 4684 2906 
L 4684 2381 
L 678 2381 
L 678 2906 
z
M 678 1631 
L 4684 1631 
L 4684 1100 
L 678 1100 
L 678 1631 
z
" transform="scale(0.015625)"/>
       <path id="DejaVuSans-39" d="M 703 97 
L 703 672 
Q 941 559 1184 500 
Q 1428 441 1663 441 
Q 2288 441 2617 861 
Q 2947 1281 2994 2138 
Q 2813 1869 2534 1725 
Q 2256 1581 1919 1581 
Q 1219 1581 811 2004 
Q 403 2428 403 3163 
Q 403 3881 828 4315 
Q 1253 4750 1959 4750 
Q 2769 4750 3195 4129 
Q 3622 3509 3622 2328 
Q 3622 1225 3098 567 
Q 2575 -91 1691 -91 
Q 1453 -91 1209 -44 
Q 966 3 703 97 
z
M 1959 2075 
Q 2384 2075 2632 2365 
Q 2881 2656 2881 3163 
Q 2881 3666 2632 3958 
Q 2384 4250 1959 4250 
Q 1534 4250 1286 3958 
Q 1038 3666 1038 3163 
Q 1038 2656 1286 2365 
Q 1534 2075 1959 2075 
z
" transform="scale(0.015625)"/>
      </defs>
      <use xlink:href="#DejaVuSans-52"/>
      <use xlink:href="#DejaVuSans-61" x="67.232422"/>
      <use xlink:href="#DejaVuSans-6e" x="128.511719"/>
      <use xlink:href="#DejaVuSans-64" x="191.890625"/>
      <use xlink:href="#DejaVuSans-6f" x="255.367188"/>
      <use xlink:href="#DejaVuSans-6d" x="316.548828"/>
      <use xlink:href="#DejaVuSans-20" x="413.960938"/>
      <use xlink:href="#DejaVuSans-46" x="445.748047"/>
      <use xlink:href="#DejaVuSans-6f" x="499.642578"/>
      <use xlink:href="#DejaVuSans-72" x="560.824219"/>
      <use xlink:href="#DejaVuSans-65" x="599.6875"/>
      <use xlink:href="#DejaVuSans-73" x="661.210938"/>
      <use xlink:href="#DejaVuSans-74" x="713.310547"/>
      <use xlink:href="#DejaVuSans-20" x="752.519531"/>
      <use xlink:href="#DejaVuSans-28" x="784.306641"/>
      <use xlink:href="#DejaVuSans-41" x="823.320312"/>
      <use xlink:href="#DejaVuSans-50" x="891.728516"/>
      <use xlink:href="#DejaVuSans-20" x="952.03125"/>
      <use xlink:href="#DejaVuSans-3d" x="983.818359"/>
      <use xlink:href="#DejaVuSans-20" x="1067.607422"/>
      <use xlink:href="#DejaVuSans-30" x="1099.394531"/>
      <use xlink:href="#DejaVuSans-2e" x="1163.017578"/>
      <use xlink:href="#DejaVuSans-39" x="1194.804688"/>
      <use xlink:href="#DejaVuSans-36" x="1258.427734"/>
      <use xlink:href="#DejaVuSans-29" x="1322.050781"/>
     </g>
    </g>
   </g>
  </g>
 </g>
 <defs>
  <clipPath id="pc5cf75d7df">
   <rect x="57.6" y="41.472" width="357.12" height="266.112"/>
  </clipPath>
 </defs>
</svg>
