<?xml version="1.0" encoding="utf-8" standalone="no"?>
<!DOCTYPE svg PUBLIC "-//W3C//DTD SVG 1.1//EN"
  "http://www.w3.org/Graphics/SVG/1.1/DTD/svg11.dtd">
<svg xmlns:xlink="http://www.w3.org/1999/xlink" width="460.8pt" height="345.6pt" viewBox="0 0 460.8 345.6" xmlns="http://www.w3.org/2000/svg" version="1.1">
 <metadata>
  <rdf:RDF xmlns:dc="http://purl.org/dc/elements/1.1/" xmlns:cc="http://creativecommons.org/ns#" xmlns:rdf="http://www.w3.org/1999/02/22-rdf-syntax-ns#">
   <cc:Work>
    <dc:type rdf:resource="http://purl.org/dc/dcmitype/StillImage"/>
    <dc:date>2022-11-18T07:58:48.392280</dc:date>
    <dc:format>image/svg+xml</dc:format>
    <dc:creator>
     <cc:Agent>
      <dc:title>Matplotlib v3.5.2, https://matplotlib.org/</dc:title>
     </cc:Agent>
    </dc:creator>
   </cc:Work>
  </rdf:RDF>
 </metadata>
 <defs>
  <style type="text/css">*{stroke-linejoin: round; stroke-linecap: butt}</style>
 </defs>
 <g id="figure_1">
  <g id="patch_1">
   <path d="M 0 345.6 
L 460.8 345.6 
L 460.8 0 
L 0 0 
z
" style="fill: #ffffff"/>
  </g>
  <g id="axes_1">
   <g id="patch_2">
    <path d="M 57.6 307.584 
L 414.72 307.584 
L 414.72 41.472 
L 57.6 41.472 
z
" style="fill: #eaeaf2"/>
   </g>
   <g id="matplotlib.axis_1">
    <g id="xtick_1">
     <g id="line2d_1">
      <path d="M 73.832727 307.584 
L 73.832727 41.472 
" clip-path="url(#p42ebfa39f6)" style="fill: none; stroke: #ffffff; stroke-linecap: round"/>
     </g>
     <g id="text_1">
      <!-- 0.0 -->
      <g style="fill: #262626" transform="translate(65.086009 325.442281)scale(0.11 -0.11)">
       <defs>
        <path id="DejaVuSans-30" d="M 2034 4250 
Q 1547 4250 1301 3770 
Q 1056 3291 1056 2328 
Q 1056 1369 1301 889 
Q 1547 409 2034 409 
Q 2525 409 2770 889 
Q 3016 1369 3016 2328 
Q 3016 3291 2770 3770 
Q 2525 4250 2034 4250 
z
M 2034 4750 
Q 2819 4750 3233 4129 
Q 3647 3509 3647 2328 
Q 3647 1150 3233 529 
Q 2819 -91 2034 -91 
Q 1250 -91 836 529 
Q 422 1150 422 2328 
Q 422 3509 836 4129 
Q 1250 4750 2034 4750 
z
" transform="scale(0.015625)"/>
        <path id="DejaVuSans-2e" d="M 684 794 
L 1344 794 
L 1344 0 
L 684 0 
L 684 794 
z
" transform="scale(0.015625)"/>
       </defs>
       <use xlink:href="#DejaVuSans-30"/>
       <use xlink:href="#DejaVuSans-2e" x="63.623047"/>
       <use xlink:href="#DejaVuSans-30" x="95.410156"/>
      </g>
     </g>
    </g>
    <g id="xtick_2">
     <g id="line2d_2">
      <path d="M 138.763636 307.584 
L 138.763636 41.472 
" clip-path="url(#p42ebfa39f6)" style="fill: none; stroke: #ffffff; stroke-linecap: round"/>
     </g>
     <g id="text_2">
      <!-- 0.2 -->
      <g style="fill: #262626" transform="translate(130.016918 325.442281)scale(0.11 -0.11)">
       <defs>
        <path id="DejaVuSans-32" d="M 1228 531 
L 3431 531 
L 3431 0 
L 469 0 
L 469 531 
Q 828 903 1448 1529 
Q 2069 2156 2228 2338 
Q 2531 2678 2651 2914 
Q 2772 3150 2772 3378 
Q 2772 3750 2511 3984 
Q 2250 4219 1831 4219 
Q 1534 4219 1204 4116 
Q 875 4013 500 3803 
L 500 4441 
Q 881 4594 1212 4672 
Q 1544 4750 1819 4750 
Q 2544 4750 2975 4387 
Q 3406 4025 3406 3419 
Q 3406 3131 3298 2873 
Q 3191 2616 2906 2266 
Q 2828 2175 2409 1742 
Q 1991 1309 1228 531 
z
" transform="scale(0.015625)"/>
       </defs>
       <use xlink:href="#DejaVuSans-30"/>
       <use xlink:href="#DejaVuSans-2e" x="63.623047"/>
       <use xlink:href="#DejaVuSans-32" x="95.410156"/>
      </g>
     </g>
    </g>
    <g id="xtick_3">
     <g id="line2d_3">
      <path d="M 203.694545 307.584 
L 203.694545 41.472 
" clip-path="url(#p42ebfa39f6)" style="fill: none; stroke: #ffffff; stroke-linecap: round"/>
     </g>
     <g id="text_3">
      <!-- 0.4 -->
      <g style="fill: #262626" transform="translate(194.947827 325.442281)scale(0.11 -0.11)">
       <defs>
        <path id="DejaVuSans-34" d="M 2419 4116 
L 825 1625 
L 2419 1625 
L 2419 4116 
z
M 2253 4666 
L 3047 4666 
L 3047 1625 
L 3713 1625 
L 3713 1100 
L 3047 1100 
L 3047 0 
L 2419 0 
L 2419 1100 
L 313 1100 
L 313 1709 
L 2253 4666 
z
" transform="scale(0.015625)"/>
       </defs>
       <use xlink:href="#DejaVuSans-30"/>
       <use xlink:href="#DejaVuSans-2e" x="63.623047"/>
       <use xlink:href="#DejaVuSans-34" x="95.410156"/>
      </g>
     </g>
    </g>
    <g id="xtick_4">
     <g id="line2d_4">
      <path d="M 268.625455 307.584 
L 268.625455 41.472 
" clip-path="url(#p42ebfa39f6)" style="fill: none; stroke: #ffffff; stroke-linecap: round"/>
     </g>
     <g id="text_4">
      <!-- 0.6 -->
      <g style="fill: #262626" transform="translate(259.878736 325.442281)scale(0.11 -0.11)">
       <defs>
        <path id="DejaVuSans-36" d="M 2113 2584 
Q 1688 2584 1439 2293 
Q 1191 2003 1191 1497 
Q 1191 994 1439 701 
Q 1688 409 2113 409 
Q 2538 409 2786 701 
Q 3034 994 3034 1497 
Q 3034 2003 2786 2293 
Q 2538 2584 2113 2584 
z
M 3366 4563 
L 3366 3988 
Q 3128 4100 2886 4159 
Q 2644 4219 2406 4219 
Q 1781 4219 1451 3797 
Q 1122 3375 1075 2522 
Q 1259 2794 1537 2939 
Q 1816 3084 2150 3084 
Q 2853 3084 3261 2657 
Q 3669 2231 3669 1497 
Q 3669 778 3244 343 
Q 2819 -91 2113 -91 
Q 1303 -91 875 529 
Q 447 1150 447 2328 
Q 447 3434 972 4092 
Q 1497 4750 2381 4750 
Q 2619 4750 2861 4703 
Q 3103 4656 3366 4563 
z
" transform="scale(0.015625)"/>
       </defs>
       <use xlink:href="#DejaVuSans-30"/>
       <use xlink:href="#DejaVuSans-2e" x="63.623047"/>
       <use xlink:href="#DejaVuSans-36" x="95.410156"/>
      </g>
     </g>
    </g>
    <g id="xtick_5">
     <g id="line2d_5">
      <path d="M 333.556364 307.584 
L 333.556364 41.472 
" clip-path="url(#p42ebfa39f6)" style="fill: none; stroke: #ffffff; stroke-linecap: round"/>
     </g>
     <g id="text_5">
      <!-- 0.8 -->
      <g style="fill: #262626" transform="translate(324.809645 325.442281)scale(0.11 -0.11)">
       <defs>
        <path id="DejaVuSans-38" d="M 2034 2216 
Q 1584 2216 1326 1975 
Q 1069 1734 1069 1313 
Q 1069 891 1326 650 
Q 1584 409 2034 409 
Q 2484 409 2743 651 
Q 3003 894 3003 1313 
Q 3003 1734 2745 1975 
Q 2488 2216 2034 2216 
z
M 1403 2484 
Q 997 2584 770 2862 
Q 544 3141 544 3541 
Q 544 4100 942 4425 
Q 1341 4750 2034 4750 
Q 2731 4750 3128 4425 
Q 3525 4100 3525 3541 
Q 3525 3141 3298 2862 
Q 3072 2584 2669 2484 
Q 3125 2378 3379 2068 
Q 3634 1759 3634 1313 
Q 3634 634 3220 271 
Q 2806 -91 2034 -91 
Q 1263 -91 848 271 
Q 434 634 434 1313 
Q 434 1759 690 2068 
Q 947 2378 1403 2484 
z
M 1172 3481 
Q 1172 3119 1398 2916 
Q 1625 2713 2034 2713 
Q 2441 2713 2670 2916 
Q 2900 3119 2900 3481 
Q 2900 3844 2670 4047 
Q 2441 4250 2034 4250 
Q 1625 4250 1398 4047 
Q 1172 3844 1172 3481 
z
" transform="scale(0.015625)"/>
       </defs>
       <use xlink:href="#DejaVuSans-30"/>
       <use xlink:href="#DejaVuSans-2e" x="63.623047"/>
       <use xlink:href="#DejaVuSans-38" x="95.410156"/>
      </g>
     </g>
    </g>
    <g id="xtick_6">
     <g id="line2d_6">
      <path d="M 398.487273 307.584 
L 398.487273 41.472 
" clip-path="url(#p42ebfa39f6)" style="fill: none; stroke: #ffffff; stroke-linecap: round"/>
     </g>
     <g id="text_6">
      <!-- 1.0 -->
      <g style="fill: #262626" transform="translate(389.740554 325.442281)scale(0.11 -0.11)">
       <defs>
        <path id="DejaVuSans-31" d="M 794 531 
L 1825 531 
L 1825 4091 
L 703 3866 
L 703 4441 
L 1819 4666 
L 2450 4666 
L 2450 531 
L 3481 531 
L 3481 0 
L 794 0 
L 794 531 
z
" transform="scale(0.015625)"/>
       </defs>
       <use xlink:href="#DejaVuSans-31"/>
       <use xlink:href="#DejaVuSans-2e" x="63.623047"/>
       <use xlink:href="#DejaVuSans-30" x="95.410156"/>
      </g>
     </g>
    </g>
    <g id="text_7">
     <!-- Recall (Positive label: 1) -->
     <g style="fill: #262626" transform="translate(164.380313 340.848062)scale(0.12 -0.12)">
      <defs>
       <path id="DejaVuSans-52" d="M 2841 2188 
Q 3044 2119 3236 1894 
Q 3428 1669 3622 1275 
L 4263 0 
L 3584 0 
L 2988 1197 
Q 2756 1666 2539 1819 
Q 2322 1972 1947 1972 
L 1259 1972 
L 1259 0 
L 628 0 
L 628 4666 
L 2053 4666 
Q 2853 4666 3247 4331 
Q 3641 3997 3641 3322 
Q 3641 2881 3436 2590 
Q 3231 2300 2841 2188 
z
M 1259 4147 
L 1259 2491 
L 2053 2491 
Q 2509 2491 2742 2702 
Q 2975 2913 2975 3322 
Q 2975 3731 2742 3939 
Q 2509 4147 2053 4147 
L 1259 4147 
z
" transform="scale(0.015625)"/>
       <path id="DejaVuSans-65" d="M 3597 1894 
L 3597 1613 
L 953 1613 
Q 991 1019 1311 708 
Q 1631 397 2203 397 
Q 2534 397 2845 478 
Q 3156 559 3463 722 
L 3463 178 
Q 3153 47 2828 -22 
Q 2503 -91 2169 -91 
Q 1331 -91 842 396 
Q 353 884 353 1716 
Q 353 2575 817 3079 
Q 1281 3584 2069 3584 
Q 2775 3584 3186 3129 
Q 3597 2675 3597 1894 
z
M 3022 2063 
Q 3016 2534 2758 2815 
Q 2500 3097 2075 3097 
Q 1594 3097 1305 2825 
Q 1016 2553 972 2059 
L 3022 2063 
z
" transform="scale(0.015625)"/>
       <path id="DejaVuSans-63" d="M 3122 3366 
L 3122 2828 
Q 2878 2963 2633 3030 
Q 2388 3097 2138 3097 
Q 1578 3097 1268 2742 
Q 959 2388 959 1747 
Q 959 1106 1268 751 
Q 1578 397 2138 397 
Q 2388 397 2633 464 
Q 2878 531 3122 666 
L 3122 134 
Q 2881 22 2623 -34 
Q 2366 -91 2075 -91 
Q 1284 -91 818 406 
Q 353 903 353 1747 
Q 353 2603 823 3093 
Q 1294 3584 2113 3584 
Q 2378 3584 2631 3529 
Q 2884 3475 3122 3366 
z
" transform="scale(0.015625)"/>
       <path id="DejaVuSans-61" d="M 2194 1759 
Q 1497 1759 1228 1600 
Q 959 1441 959 1056 
Q 959 750 1161 570 
Q 1363 391 1709 391 
Q 2188 391 2477 730 
Q 2766 1069 2766 1631 
L 2766 1759 
L 2194 1759 
z
M 3341 1997 
L 3341 0 
L 2766 0 
L 2766 531 
Q 2569 213 2275 61 
Q 1981 -91 1556 -91 
Q 1019 -91 701 211 
Q 384 513 384 1019 
Q 384 1609 779 1909 
Q 1175 2209 1959 2209 
L 2766 2209 
L 2766 2266 
Q 2766 2663 2505 2880 
Q 2244 3097 1772 3097 
Q 1472 3097 1187 3025 
Q 903 2953 641 2809 
L 641 3341 
Q 956 3463 1253 3523 
Q 1550 3584 1831 3584 
Q 2591 3584 2966 3190 
Q 3341 2797 3341 1997 
z
" transform="scale(0.015625)"/>
       <path id="DejaVuSans-6c" d="M 603 4863 
L 1178 4863 
L 1178 0 
L 603 0 
L 603 4863 
z
" transform="scale(0.015625)"/>
       <path id="DejaVuSans-20" transform="scale(0.015625)"/>
       <path id="DejaVuSans-28" d="M 1984 4856 
Q 1566 4138 1362 3434 
Q 1159 2731 1159 2009 
Q 1159 1288 1364 580 
Q 1569 -128 1984 -844 
L 1484 -844 
Q 1016 -109 783 600 
Q 550 1309 550 2009 
Q 550 2706 781 3412 
Q 1013 4119 1484 4856 
L 1984 4856 
z
" transform="scale(0.015625)"/>
       <path id="DejaVuSans-50" d="M 1259 4147 
L 1259 2394 
L 2053 2394 
Q 2494 2394 2734 2622 
Q 2975 2850 2975 3272 
Q 2975 3691 2734 3919 
Q 2494 4147 2053 4147 
L 1259 4147 
z
M 628 4666 
L 2053 4666 
Q 2838 4666 3239 4311 
Q 3641 3956 3641 3272 
Q 3641 2581 3239 2228 
Q 2838 1875 2053 1875 
L 1259 1875 
L 1259 0 
L 628 0 
L 628 4666 
z
" transform="scale(0.015625)"/>
       <path id="DejaVuSans-6f" d="M 1959 3097 
Q 1497 3097 1228 2736 
Q 959 2375 959 1747 
Q 959 1119 1226 758 
Q 1494 397 1959 397 
Q 2419 397 2687 759 
Q 2956 1122 2956 1747 
Q 2956 2369 2687 2733 
Q 2419 3097 1959 3097 
z
M 1959 3584 
Q 2709 3584 3137 3096 
Q 3566 2609 3566 1747 
Q 3566 888 3137 398 
Q 2709 -91 1959 -91 
Q 1206 -91 779 398 
Q 353 888 353 1747 
Q 353 2609 779 3096 
Q 1206 3584 1959 3584 
z
" transform="scale(0.015625)"/>
       <path id="DejaVuSans-73" d="M 2834 3397 
L 2834 2853 
Q 2591 2978 2328 3040 
Q 2066 3103 1784 3103 
Q 1356 3103 1142 2972 
Q 928 2841 928 2578 
Q 928 2378 1081 2264 
Q 1234 2150 1697 2047 
L 1894 2003 
Q 2506 1872 2764 1633 
Q 3022 1394 3022 966 
Q 3022 478 2636 193 
Q 2250 -91 1575 -91 
Q 1294 -91 989 -36 
Q 684 19 347 128 
L 347 722 
Q 666 556 975 473 
Q 1284 391 1588 391 
Q 1994 391 2212 530 
Q 2431 669 2431 922 
Q 2431 1156 2273 1281 
Q 2116 1406 1581 1522 
L 1381 1569 
Q 847 1681 609 1914 
Q 372 2147 372 2553 
Q 372 3047 722 3315 
Q 1072 3584 1716 3584 
Q 2034 3584 2315 3537 
Q 2597 3491 2834 3397 
z
" transform="scale(0.015625)"/>
       <path id="DejaVuSans-69" d="M 603 3500 
L 1178 3500 
L 1178 0 
L 603 0 
L 603 3500 
z
M 603 4863 
L 1178 4863 
L 1178 4134 
L 603 4134 
L 603 4863 
z
" transform="scale(0.015625)"/>
       <path id="DejaVuSans-74" d="M 1172 4494 
L 1172 3500 
L 2356 3500 
L 2356 3053 
L 1172 3053 
L 1172 1153 
Q 1172 725 1289 603 
Q 1406 481 1766 481 
L 2356 481 
L 2356 0 
L 1766 0 
Q 1100 0 847 248 
Q 594 497 594 1153 
L 594 3053 
L 172 3053 
L 172 3500 
L 594 3500 
L 594 4494 
L 1172 4494 
z
" transform="scale(0.015625)"/>
       <path id="DejaVuSans-76" d="M 191 3500 
L 800 3500 
L 1894 563 
L 2988 3500 
L 3597 3500 
L 2284 0 
L 1503 0 
L 191 3500 
z
" transform="scale(0.015625)"/>
       <path id="DejaVuSans-62" d="M 3116 1747 
Q 3116 2381 2855 2742 
Q 2594 3103 2138 3103 
Q 1681 3103 1420 2742 
Q 1159 2381 1159 1747 
Q 1159 1113 1420 752 
Q 1681 391 2138 391 
Q 2594 391 2855 752 
Q 3116 1113 3116 1747 
z
M 1159 2969 
Q 1341 3281 1617 3432 
Q 1894 3584 2278 3584 
Q 2916 3584 3314 3078 
Q 3713 2572 3713 1747 
Q 3713 922 3314 415 
Q 2916 -91 2278 -91 
Q 1894 -91 1617 61 
Q 1341 213 1159 525 
L 1159 0 
L 581 0 
L 581 4863 
L 1159 4863 
L 1159 2969 
z
" transform="scale(0.015625)"/>
       <path id="DejaVuSans-3a" d="M 750 794 
L 1409 794 
L 1409 0 
L 750 0 
L 750 794 
z
M 750 3309 
L 1409 3309 
L 1409 2516 
L 750 2516 
L 750 3309 
z
" transform="scale(0.015625)"/>
       <path id="DejaVuSans-29" d="M 513 4856 
L 1013 4856 
Q 1481 4119 1714 3412 
Q 1947 2706 1947 2009 
Q 1947 1309 1714 600 
Q 1481 -109 1013 -844 
L 513 -844 
Q 928 -128 1133 580 
Q 1338 1288 1338 2009 
Q 1338 2731 1133 3434 
Q 928 4138 513 4856 
z
" transform="scale(0.015625)"/>
      </defs>
      <use xlink:href="#DejaVuSans-52"/>
      <use xlink:href="#DejaVuSans-65" x="64.982422"/>
      <use xlink:href="#DejaVuSans-63" x="126.505859"/>
      <use xlink:href="#DejaVuSans-61" x="181.486328"/>
      <use xlink:href="#DejaVuSans-6c" x="242.765625"/>
      <use xlink:href="#DejaVuSans-6c" x="270.548828"/>
      <use xlink:href="#DejaVuSans-20" x="298.332031"/>
      <use xlink:href="#DejaVuSans-28" x="330.119141"/>
      <use xlink:href="#DejaVuSans-50" x="369.132812"/>
      <use xlink:href="#DejaVuSans-6f" x="425.810547"/>
      <use xlink:href="#DejaVuSans-73" x="486.992188"/>
      <use xlink:href="#DejaVuSans-69" x="539.091797"/>
      <use xlink:href="#DejaVuSans-74" x="566.875"/>
      <use xlink:href="#DejaVuSans-69" x="606.083984"/>
      <use xlink:href="#DejaVuSans-76" x="633.867188"/>
      <use xlink:href="#DejaVuSans-65" x="693.046875"/>
      <use xlink:href="#DejaVuSans-20" x="754.570312"/>
      <use xlink:href="#DejaVuSans-6c" x="786.357422"/>
      <use xlink:href="#DejaVuSans-61" x="814.140625"/>
      <use xlink:href="#DejaVuSans-62" x="875.419922"/>
      <use xlink:href="#DejaVuSans-65" x="938.896484"/>
      <use xlink:href="#DejaVuSans-6c" x="1000.419922"/>
      <use xlink:href="#DejaVuSans-3a" x="1028.203125"/>
      <use xlink:href="#DejaVuSans-20" x="1061.894531"/>
      <use xlink:href="#DejaVuSans-31" x="1093.681641"/>
      <use xlink:href="#DejaVuSans-29" x="1157.304688"/>
     </g>
    </g>
   </g>
   <g id="matplotlib.axis_2">
    <g id="ytick_1">
     <g id="line2d_7">
      <path d="M 57.6 259.790312 
L 414.72 259.790312 
" clip-path="url(#p42ebfa39f6)" style="fill: none; stroke: #ffffff; stroke-linecap: round"/>
     </g>
     <g id="text_8">
      <!-- 0.2 -->
      <g style="fill: #262626" transform="translate(30.606563 263.969453)scale(0.11 -0.11)">
       <use xlink:href="#DejaVuSans-30"/>
       <use xlink:href="#DejaVuSans-2e" x="63.623047"/>
       <use xlink:href="#DejaVuSans-32" x="95.410156"/>
      </g>
     </g>
    </g>
    <g id="ytick_2">
     <g id="line2d_8">
      <path d="M 57.6 208.234734 
L 414.72 208.234734 
" clip-path="url(#p42ebfa39f6)" style="fill: none; stroke: #ffffff; stroke-linecap: round"/>
     </g>
     <g id="text_9">
      <!-- 0.4 -->
      <g style="fill: #262626" transform="translate(30.606563 212.413875)scale(0.11 -0.11)">
       <use xlink:href="#DejaVuSans-30"/>
       <use xlink:href="#DejaVuSans-2e" x="63.623047"/>
       <use xlink:href="#DejaVuSans-34" x="95.410156"/>
      </g>
     </g>
    </g>
    <g id="ytick_3">
     <g id="line2d_9">
      <path d="M 57.6 156.679156 
L 414.72 156.679156 
" clip-path="url(#p42ebfa39f6)" style="fill: none; stroke: #ffffff; stroke-linecap: round"/>
     </g>
     <g id="text_10">
      <!-- 0.6 -->
      <g style="fill: #262626" transform="translate(30.606563 160.858297)scale(0.11 -0.11)">
       <use xlink:href="#DejaVuSans-30"/>
       <use xlink:href="#DejaVuSans-2e" x="63.623047"/>
       <use xlink:href="#DejaVuSans-36" x="95.410156"/>
      </g>
     </g>
    </g>
    <g id="ytick_4">
     <g id="line2d_10">
      <path d="M 57.6 105.123578 
L 414.72 105.123578 
" clip-path="url(#p42ebfa39f6)" style="fill: none; stroke: #ffffff; stroke-linecap: round"/>
     </g>
     <g id="text_11">
      <!-- 0.8 -->
      <g style="fill: #262626" transform="translate(30.606563 109.302719)scale(0.11 -0.11)">
       <use xlink:href="#DejaVuSans-30"/>
       <use xlink:href="#DejaVuSans-2e" x="63.623047"/>
       <use xlink:href="#DejaVuSans-38" x="95.410156"/>
      </g>
     </g>
    </g>
    <g id="ytick_5">
     <g id="line2d_11">
      <path d="M 57.6 53.568 
L 414.72 53.568 
" clip-path="url(#p42ebfa39f6)" style="fill: none; stroke: #ffffff; stroke-linecap: round"/>
     </g>
     <g id="text_12">
      <!-- 1.0 -->
      <g style="fill: #262626" transform="translate(30.606563 57.747141)scale(0.11 -0.11)">
       <use xlink:href="#DejaVuSans-31"/>
       <use xlink:href="#DejaVuSans-2e" x="63.623047"/>
       <use xlink:href="#DejaVuSans-30" x="95.410156"/>
      </g>
     </g>
    </g>
    <g id="text_13">
     <!-- Precision (Positive label: 1) -->
     <g style="fill: #262626" transform="translate(24.110937 255.1755)rotate(-90)scale(0.12 -0.12)">
      <defs>
       <path id="DejaVuSans-72" d="M 2631 2963 
Q 2534 3019 2420 3045 
Q 2306 3072 2169 3072 
Q 1681 3072 1420 2755 
Q 1159 2438 1159 1844 
L 1159 0 
L 581 0 
L 581 3500 
L 1159 3500 
L 1159 2956 
Q 1341 3275 1631 3429 
Q 1922 3584 2338 3584 
Q 2397 3584 2469 3576 
Q 2541 3569 2628 3553 
L 2631 2963 
z
" transform="scale(0.015625)"/>
       <path id="DejaVuSans-6e" d="M 3513 2113 
L 3513 0 
L 2938 0 
L 2938 2094 
Q 2938 2591 2744 2837 
Q 2550 3084 2163 3084 
Q 1697 3084 1428 2787 
Q 1159 2491 1159 1978 
L 1159 0 
L 581 0 
L 581 3500 
L 1159 3500 
L 1159 2956 
Q 1366 3272 1645 3428 
Q 1925 3584 2291 3584 
Q 2894 3584 3203 3211 
Q 3513 2838 3513 2113 
z
" transform="scale(0.015625)"/>
      </defs>
      <use xlink:href="#DejaVuSans-50"/>
      <use xlink:href="#DejaVuSans-72" x="58.552734"/>
      <use xlink:href="#DejaVuSans-65" x="97.416016"/>
      <use xlink:href="#DejaVuSans-63" x="158.939453"/>
      <use xlink:href="#DejaVuSans-69" x="213.919922"/>
      <use xlink:href="#DejaVuSans-73" x="241.703125"/>
      <use xlink:href="#DejaVuSans-69" x="293.802734"/>
      <use xlink:href="#DejaVuSans-6f" x="321.585938"/>
      <use xlink:href="#DejaVuSans-6e" x="382.767578"/>
      <use xlink:href="#DejaVuSans-20" x="446.146484"/>
      <use xlink:href="#DejaVuSans-28" x="477.933594"/>
      <use xlink:href="#DejaVuSans-50" x="516.947266"/>
      <use xlink:href="#DejaVuSans-6f" x="573.625"/>
      <use xlink:href="#DejaVuSans-73" x="634.806641"/>
      <use xlink:href="#DejaVuSans-69" x="686.90625"/>
      <use xlink:href="#DejaVuSans-74" x="714.689453"/>
      <use xlink:href="#DejaVuSans-69" x="753.898438"/>
      <use xlink:href="#DejaVuSans-76" x="781.681641"/>
      <use xlink:href="#DejaVuSans-65" x="840.861328"/>
      <use xlink:href="#DejaVuSans-20" x="902.384766"/>
      <use xlink:href="#DejaVuSans-6c" x="934.171875"/>
      <use xlink:href="#DejaVuSans-61" x="961.955078"/>
      <use xlink:href="#DejaVuSans-62" x="1023.234375"/>
      <use xlink:href="#DejaVuSans-65" x="1086.710938"/>
      <use xlink:href="#DejaVuSans-6c" x="1148.234375"/>
      <use xlink:href="#DejaVuSans-3a" x="1176.017578"/>
      <use xlink:href="#DejaVuSans-20" x="1209.708984"/>
      <use xlink:href="#DejaVuSans-31" x="1241.496094"/>
      <use xlink:href="#DejaVuSans-29" x="1305.119141"/>
     </g>
    </g>
   </g>
   <g id="line2d_12">
    <path d="M 398.487273 295.488 
L 398.383814 223.101532 
L 398.332084 222.990452 
L 398.332084 222.99508 
L 398.228625 218.7561 
L 398.20276 218.760831 
L 398.20276 218.649331 
L 398.099301 210.476281 
L 398.073436 210.481179 
L 398.073436 210.367713 
L 397.969977 208.703228 
L 397.944113 208.708157 
L 397.944113 208.600423 
L 397.840654 205.616612 
L 397.788924 205.562708 
L 397.788924 205.508741 
L 397.685465 198.190759 
L 397.6596 198.195829 
L 397.6596 198.08067 
L 397.556141 188.773591 
L 397.530276 188.778727 
L 397.530276 188.760098 
L 397.426817 174.330885 
L 397.400953 174.318551 
L 397.400953 174.225327 
L 397.297493 172.802322 
L 397.245764 172.694227 
L 397.245764 172.699351 
L 397.194034 172.524474 
L 397.142305 172.534723 
L 397.090575 172.509942 
L 397.090575 172.425271 
L 396.987116 172.271835 
L 396.935387 172.21087 
L 396.935387 172.161874 
L 396.831928 171.874884 
L 396.806063 171.88001 
L 396.806063 171.825604 
L 396.702604 169.703078 
L 396.62501 169.613474 
L 396.62501 169.599853 
L 396.52155 169.445213 
L 396.469821 169.425277 
L 396.469821 169.367729 
L 396.366362 168.42884 
L 396.340497 168.433947 
L 396.340497 168.31948 
L 396.237038 167.385254 
L 396.185309 167.377453 
L 396.185309 167.27926 
L 396.081849 165.837792 
L 396.03012 165.776924 
L 396.03012 165.735806 
L 395.926661 165.338974 
L 395.849067 165.276054 
L 395.849067 165.227937 
L 395.745608 164.914871 
L 395.693878 164.893215 
L 395.693878 164.81133 
L 395.590419 164.684241 
L 395.305906 164.63439 
L 395.305906 164.578992 
L 395.202447 164.188055 
L 395.176583 164.193138 
L 395.176583 164.159323 
L 395.073124 163.05495 
L 395.021394 162.970676 
L 395.021394 162.955113 
L 394.917935 162.830796 
L 394.814476 162.75635 
L 394.814476 162.726907 
L 394.762746 162.674882 
L 394.659287 162.695172 
L 394.659287 162.695172 
L 394.555828 162.271838 
L 394.478234 162.18647 
L 394.478234 162.189647 
L 394.374775 161.993791 
L 394.193722 161.912404 
L 394.193722 161.903487 
L 394.090262 161.580226 
L 394.012668 161.513021 
L 394.012668 161.475869 
L 393.935074 161.392463 
L 393.909209 161.397531 
L 393.624697 161.356543 
L 393.624697 161.312193 
L 393.521238 161.042337 
L 393.469508 161.011946 
L 393.469508 160.946043 
L 393.366049 160.503334 
L 393.314319 160.436915 
L 393.314319 160.399057 
L 393.21086 160.175612 
L 392.926348 160.096907 
L 392.926348 160.080392 
L 392.822889 159.906138 
L 392.745295 159.836874 
L 392.745295 159.805822 
L 392.641836 159.282226 
L 392.615971 159.287285 
L 392.615971 159.287285 
L 392.512512 158.81833 
L 392.202135 158.727295 
L 392.202135 158.710329 
L 392.202135 158.688298 
L 392.098675 158.708532 
L 391.684839 158.62268 
L 391.684839 158.605654 
L 391.58138 158.493232 
L 391.477921 158.382896 
L 391.477921 158.387961 
L 391.374462 158.186177 
L 391.348597 158.19124 
L 391.348597 158.079974 
L 391.296868 157.710568 
L 391.245138 157.720683 
L 391.193409 157.658567 
L 391.193409 157.618808 
L 391.08995 157.257021 
L 390.960626 157.164509 
L 390.960626 157.15452 
L 390.857167 157.016598 
L 390.831302 157.014112 
L 390.831302 156.931138 
L 390.727843 156.542699 
L 390.624384 156.436339 
L 390.624384 156.441386 
L 390.54679 156.266286 
L 390.469195 156.162003 
L 390.469195 156.159417 
L 390.365736 155.712648 
L 390.339871 155.70233 
L 390.339871 155.633182 
L 390.236412 155.136601 
L 390.210548 155.141632 
L 390.210548 155.033222 
L 390.107088 154.344942 
L 390.055359 154.295202 
L 390.055359 154.261083 
L 389.9519 153.817822 
L 389.874306 153.709608 
L 389.874306 153.706731 
L 389.770847 153.283698 
L 389.744982 153.288704 
L 389.744982 153.177541 
L 389.641523 152.575307 
L 389.615658 152.580302 
L 389.615658 152.556271 
L 389.563928 152.221 
L 389.486334 152.221 
L 389.486334 152.115168 
L 389.382875 151.455186 
L 389.331145 151.419507 
L 389.331145 151.359389 
L 389.227686 150.305694 
L 389.046633 150.203308 
L 389.046633 150.199999 
L 388.943174 150.104013 
L 388.606932 150.002799 
L 388.503473 149.95613 
L 388.037907 149.890841 
L 388.037907 149.879158 
L 387.934448 149.765695 
L 386.822263 149.708224 
L 386.718804 149.564353 
L 386.175644 149.453868 
L 386.175644 149.458855 
L 386.072185 149.301801 
L 385.529025 149.198754 
L 385.529025 149.195282 
L 385.425566 149.045783 
L 385.296242 148.938402 
L 385.296242 148.934895 
L 385.192783 147.618235 
L 385.166918 147.623198 
L 385.166918 147.510816 
L 385.063459 146.68715 
L 384.985865 146.657122 
L 384.985865 146.588265 
L 384.882406 144.587584 
L 384.804811 144.498641 
L 384.804811 144.503536 
L 384.701352 143.383597 
L 384.572029 143.302226 
L 384.572029 143.298597 
L 384.468569 141.678961 
L 384.442705 141.674491 
L 384.442705 141.581444 
L 384.339246 140.683365 
L 384.313381 140.669343 
L 384.313381 140.575151 
L 384.209922 139.139985 
L 384.184057 139.144749 
L 384.184057 139.029628 
L 384.080598 138.102625 
L 384.028868 138.112099 
L 384.028868 138.005255 
L 383.925409 137.585679 
L 383.87368 137.561088 
L 383.87368 137.477807 
L 383.770221 137.271365 
L 383.692626 137.241549 
L 383.692626 137.167711 
L 383.589167 136.61485 
L 383.537438 136.550294 
L 383.537438 136.535194 
L 383.433979 135.768256 
L 383.382249 135.692969 
L 383.382249 135.677641 
L 383.27879 134.649736 
L 383.227061 134.603748 
L 383.227061 134.598262 
L 383.123602 133.371987 
L 383.071872 133.294349 
L 383.071872 133.268092 
L 382.968413 132.853257 
L 382.864954 132.815315 
L 382.864954 132.778507 
L 382.761495 132.47532 
L 382.658036 132.437097 
L 382.658036 132.389671 
L 382.606306 131.551987 
L 382.554577 131.5611 
L 382.373523 131.451756 
L 382.373523 131.456312 
L 382.270064 130.426501 
L 382.166605 130.333521 
L 382.166605 130.32738 
L 382.063146 129.950017 
L 382.037281 129.943815 
L 382.037281 129.922387 
L 381.933822 128.959918 
L 381.856228 128.936368 
L 381.856228 128.875794 
L 381.752769 128.698242 
L 381.64931 128.631055 
L 381.64931 128.596461 
L 381.571716 127.580681 
L 381.545851 127.585116 
L 381.519986 127.589551 
L 381.519986 127.479373 
L 381.416527 126.999587 
L 381.313068 126.913 
L 381.313068 126.906314 
L 381.235474 126.775119 
L 381.080285 126.697031 
L 381.080285 126.668033 
L 380.976826 126.317333 
L 380.821637 126.227398 
L 380.821637 126.220594 
L 380.821637 125.906422 
L 380.718178 125.923964 
L 380.666449 125.815868 
L 380.588855 125.653119 
L 380.51126 125.616748 
L 380.51126 125.553389 
L 380.407801 125.457873 
L 379.761182 125.38171 
L 379.761182 125.363404 
L 379.657723 125.221942 
L 379.554264 125.235071 
L 379.554264 125.114324 
L 379.47667 124.739585 
L 379.399075 124.739585 
L 379.399075 124.684046 
L 379.295616 124.392016 
L 379.192157 124.313164 
L 379.192157 124.283024 
L 379.088698 123.457139 
L 379.036969 123.426636 
L 379.036969 123.372889 
L 378.933509 122.924277 
L 378.88178 122.916898 
L 378.88178 122.897837 
L 378.778321 122.599068 
L 378.674862 122.506363 
L 378.674862 122.49891 
L 378.648997 122.350467 
L 378.571403 122.363307 
L 378.493808 122.360108 
L 378.493808 122.258472 
L 378.416214 122.059089 
L 378.261026 122.067631 
L 378.261026 121.97841 
L 378.157566 121.438267 
L 377.976513 121.332853 
L 377.976513 121.337101 
L 377.976513 121.182138 
L 377.873054 121.187177 
L 377.847189 121.19142 
L 377.847189 121.107847 
L 377.74373 120.885587 
L 377.640271 120.778434 
L 377.640271 120.782664 
L 377.614406 120.738907 
L 377.588542 120.743136 
L 377.20057 120.646177 
L 377.20057 120.650408 
L 377.097111 120.438502 
L 377.019517 120.418606 
L 377.019517 120.330502 
L 376.941922 120.137643 
L 376.916058 120.141857 
L 376.812599 120.138181 
L 376.812599 120.098173 
L 376.735004 119.503181 
L 376.70914 119.507371 
L 376.372898 119.41121 
L 376.372898 119.415401 
L 376.295303 119.171043 
L 376.11425 119.073524 
L 376.11425 119.065433 
L 376.036656 118.622773 
L 376.010791 118.626936 
L 375.674549 118.565821 
L 375.674549 118.52056 
L 375.596955 118.421736 
L 375.364172 118.322839 
L 375.364172 118.335316 
L 375.338307 118.252659 
L 375.260713 118.265131 
L 374.174392 118.199582 
L 374.174392 118.203752 
L 374.174392 118.054087 
L 374.070933 118.070748 
L 374.045069 118.074915 
L 374.045069 117.96249 
L 373.967474 117.899946 
L 373.94161 117.904106 
L 373.88988 117.912429 
L 373.88988 117.887402 
L 373.838151 117.770482 
L 371.484457 117.770482 
L 371.484457 118.150973 
L 371.380998 117.903173 
L 370.57919 117.961981 
L 370.501596 118.046178 
L 369.725653 117.965991 
L 369.725653 117.970214 
L 369.725653 117.270269 
L 365.302778 117.263316 
L 365.302778 117.698864 
L 365.199319 117.651391 
L 362.845625 117.753173 
L 362.742166 117.87824 
L 360.621255 117.969087 
L 360.59539 118.2128 
L 360.517796 118.186741 
L 355.06033 118.241061 
L 355.008601 118.734477 
L 354.077469 118.639356 
L 354.077469 118.643845 
L 354.077469 118.577346 
L 353.97401 118.58199 
L 353.120473 118.472376 
L 353.042878 118.477002 
L 353.042878 118.41014 
L 352.88769 118.432627 
L 352.88769 118.370199 
L 352.83596 118.043832 
L 352.784231 118.052798 
L 352.525583 118.052832 
L 352.525583 118.016958 
L 352.422124 117.738356 
L 351.646181 117.738356 
L 351.646181 117.872875 
L 351.594452 117.854819 
L 351.128886 117.768741 
L 351.128886 117.773238 
L 351.051292 117.528743 
L 350.947832 117.419745 
L 350.896103 117.296926 
L 350.223619 117.204078 
L 350.223619 117.19488 
L 350.12016 117.034732 
L 349.680459 116.982892 
L 349.680459 116.973634 
L 349.577 116.82649 
L 348.930381 116.754774 
L 348.930381 116.731634 
L 348.930381 116.704002 
L 348.904516 116.708484 
L 348.257897 116.599539 
L 348.154438 116.533841 
L 347.89579 116.435273 
L 347.89579 116.42585 
L 347.818196 116.314022 
L 347.792331 116.318504 
L 347.507819 116.275214 
L 347.507819 116.228367 
L 347.404359 116.134553 
L 346.80947 116.0512 
L 346.80947 116.027644 
L 346.75774 115.966469 
L 346.499093 115.927641 
L 346.499093 115.912987 
L 346.395634 115.790249 
L 345.955933 115.702418 
L 345.955933 115.711382 
L 345.852473 115.021024 
L 345.438637 114.916968 
L 345.335178 114.83939 
L 345.102395 114.73214 
L 345.102395 114.736588 
L 345.102395 114.707988 
L 344.300588 114.612242 
L 344.300588 114.602339 
L 344.274723 114.434317 
L 344.248858 114.438764 
L 343.576374 114.434846 
L 343.576374 114.410456 
L 343.576374 114.266085 
L 343.472915 114.269438 
L 342.567648 114.276286 
L 342.567648 114.193717 
L 342.567648 113.72822 
L 342.464189 113.745981 
L 342.179677 113.673627 
L 342.179677 113.648846 
L 342.076218 113.520339 
L 342.024488 113.524776 
L 342.024488 113.412023 
L 341.921029 113.327078 
L 341.636517 113.234734 
L 341.533058 113.055205 
L 341.352004 112.963739 
L 341.352004 112.968158 
L 341.352004 112.923868 
L 341.170951 112.89128 
L 341.170951 112.821766 
L 341.067492 112.557925 
L 340.498467 112.467721 
L 340.395008 112.404829 
L 340.084631 112.299756 
L 339.981172 112.221614 
L 339.438011 112.115086 
L 339.334552 112.062109 
L 338.972446 111.957744 
L 338.972446 111.958495 
L 338.946581 111.797263 
L 338.920716 111.801661 
L 336.644617 111.758903 
L 336.644617 111.110347 
L 333.592574 111.167807 
L 333.489115 109.989507 
L 333.385656 109.993897 
L 333.385656 109.928688 
L 333.282197 109.553318 
L 333.204603 109.467516 
L 333.204603 109.456115 
L 333.204603 109.298315 
L 333.023549 109.304305 
L 333.023549 109.218172 
L 332.997685 109.143412 
L 332.97182 109.147763 
L 332.661443 109.076024 
L 332.661443 109.041495 
L 332.609713 108.859607 
L 330.462938 108.859607 
L 330.462938 109.222275 
L 330.462938 109.126391 
L 330.256019 109.088764 
L 330.256019 109.017492 
L 330.256019 108.937368 
L 329.583536 108.909915 
L 329.583536 108.826601 
L 329.480076 108.602462 
L 329.454212 108.590706 
L 329.454212 108.509991 
L 329.350753 107.863047 
L 329.247294 107.827268 
L 329.247294 107.799059 
L 329.143835 107.113965 
L 328.962781 107.008495 
L 328.962781 107.012789 
L 328.859322 106.832694 
L 328.807593 106.820522 
L 328.807593 106.775415 
L 328.704133 106.446049 
L 328.600674 106.343065 
L 328.600674 106.347326 
L 328.548945 106.074065 
L 328.497215 106.082558 
L 322.186212 106.027915 
L 322.186212 106.920444 
L 322.005159 106.942485 
L 322.005159 106.816091 
L 321.9017 106.392915 
L 321.875835 106.397294 
L 321.875835 106.363306 
L 321.772376 106.040236 
L 321.720647 106.027536 
L 321.720647 105.963622 
L 321.617188 105.707437 
L 321.513728 105.600507 
L 321.410269 105.416165 
L 321.177487 105.313152 
L 321.074027 105.214148 
L 320.944704 105.110628 
L 320.841245 105.028521 
L 320.634326 104.937566 
L 320.634326 104.924555 
L 320.530867 104.837784 
L 320.375679 104.7378 
L 320.27222 104.672402 
L 320.039437 104.567535 
L 319.961843 104.514996 
L 319.72906 104.409705 
L 319.625601 104.326259 
L 319.263494 104.246946 
L 319.1859 104.065983 
L 319.030711 103.977607 
L 318.953117 103.875736 
L 318.720334 103.795572 
L 318.616875 103.701839 
L 318.384092 103.62132 
L 318.306497 103.540635 
L 318.073715 103.432798 
L 317.970256 103.36525 
L 317.685743 103.256933 
L 317.659878 103.202664 
L 317.427095 103.093901 
L 317.375366 103.053037 
L 317.194313 102.953283 
L 317.090853 102.866996 
L 316.987394 102.772076 
L 316.987394 102.776311 
L 316.935665 102.694978 
L 313.443921 102.694978 
L 313.366327 100.752997 
L 313.081815 100.752997 
L 312.978356 100.349575 
L 312.900761 100.3018 
L 312.900761 100.249847 
L 312.797302 100.004163 
L 312.771438 100.008284 
L 312.771438 99.89569 
L 312.667978 99.535867 
L 312.564519 99.491572 
L 312.564519 99.495661 
L 312.51279 99.125855 
L 312.46106 99.133986 
L 312.357601 99.127245 
L 312.357601 99.112366 
L 312.280007 98.153608 
L 312.254142 98.157608 
L 312.202413 98.104209 
L 312.202413 98.108206 
L 312.098954 97.201249 
L 312.073089 97.205184 
L 312.073089 97.205184 
L 312.021359 96.92293 
L 311.96963 96.930764 
L 311.762712 96.861257 
L 311.762712 96.865173 
L 311.685117 96.546554 
L 311.581658 96.519297 
L 311.581658 96.464747 
L 311.529929 96.414044 
L 311.478199 96.42182 
L 311.400605 96.371065 
L 311.400605 96.374951 
L 311.37474 96.16391 
L 311.297146 96.175528 
L 311.064363 96.069435 
L 311.064363 96.073305 
L 311.038498 95.939874 
L 310.960904 95.951459 
L 310.857445 95.963051 
L 310.857445 95.947277 
L 310.753986 95.312453 
L 310.728121 95.316272 
L 310.728121 95.237177 
L 310.624662 94.836112 
L 310.340149 94.794466 
L 310.340149 94.798253 
L 310.262555 94.570573 
L 309.822854 94.5711 
L 309.822854 94.494934 
L 309.796989 94.158257 
L 309.74526 94.165756 
L 309.098641 94.135306 
L 309.098641 94.118941 
L 308.995182 93.892135 
L 308.788264 93.837565 
L 308.788264 93.841306 
L 308.684804 93.451341 
L 308.477886 93.43675 
L 308.477886 93.359218 
L 308.374427 92.925977 
L 308.270968 92.937013 
L 308.270968 92.838568 
L 308.167509 92.156056 
L 308.141644 92.159678 
L 308.141644 92.056764 
L 308.038185 91.223409 
L 308.012321 91.22696 
L 308.012321 91.22696 
L 307.908861 90.470118 
L 307.857132 90.410852 
L 307.857132 90.414342 
L 307.753673 90.197793 
L 307.727808 90.201268 
L 307.727808 90.201268 
L 307.624349 89.857834 
L 307.598484 89.861284 
L 307.598484 89.777029 
L 307.52089 89.681929 
L 307.495025 89.685367 
L 307.443296 89.688805 
L 307.443296 89.67114 
L 307.339837 89.028466 
L 307.158783 88.971501 
L 307.158783 88.967163 
L 307.055324 88.554437 
L 307.003595 88.51507 
L 307.003595 88.454304 
L 306.900136 88.275059 
L 306.693217 88.191182 
L 306.693217 88.173052 
L 306.589758 88.014492 
L 306.563894 88.017809 
L 306.563894 87.996304 
L 306.460435 87.232372 
L 306.356975 87.177111 
L 306.356975 87.180362 
L 306.279381 86.581177 
L 306.253516 86.58438 
L 306.072463 86.494462 
L 306.072463 86.475816 
L 305.994869 86.441697 
L 305.762086 86.401634 
L 305.762086 86.382937 
L 305.658627 85.846844 
L 305.555168 85.812261 
L 305.555168 85.749317 
L 305.555168 85.727278 
L 305.451709 85.73985 
L 304.986143 85.632439 
L 304.986143 85.641863 
L 304.882684 85.34433 
L 304.779225 85.3315 
L 304.779225 85.334619 
L 304.675766 84.679125 
L 304.649901 84.679125 
L 304.598171 84.419957 
L 304.546442 84.426046 
L 304.468848 84.387333 
L 304.468848 84.367965 
L 304.365388 84.08829 
L 304.236065 84.032892 
L 304.236065 83.990896 
L 304.15847 83.909834 
L 304.003282 83.902327 
L 304.003282 83.905335 
L 303.951552 83.096498 
L 303.899823 83.102377 
L 303.770499 83.000446 
L 303.770499 83.003379 
L 303.692905 82.898332 
L 303.66704 82.901257 
L 303.537716 82.844571 
L 303.537716 82.801871 
L 303.537716 82.779053 
L 303.434257 82.790723 
L 302.425531 82.692815 
L 302.322072 82.549559 
L 300.951239 82.493744 
L 300.951239 82.450385 
L 300.89951 82.363587 
L 295.623098 82.427831 
L 295.623098 81.927581 
L 295.545503 81.936414 
L 295.054073 81.864293 
L 295.054073 81.849242 
L 295.054073 81.538271 
L 294.950614 81.549938 
L 294.795425 81.444607 
L 294.717831 81.360184 
L 287.734344 81.286343 
L 287.65675 82.052817 
L 287.449831 81.950784 
L 287.372237 81.740295 
L 287.191184 81.634549 
L 287.191184 81.637581 
L 287.139454 81.046436 
L 287.113589 81.049413 
L 286.880807 80.948336 
L 286.880807 80.951307 
L 286.829077 80.882214 
L 286.777347 80.888146 
L 286.5187 80.836742 
L 286.5187 80.842672 
L 286.5187 80.742366 
L 286.441106 80.751238 
L 285.92381 80.656619 
L 285.846216 80.567672 
L 285.613433 80.465091 
L 285.613433 80.417513 
L 285.561703 80.42339 
L 285.303056 80.323333 
L 285.303056 80.326266 
L 285.303056 80.27561 
L 285.225461 80.284397 
L 284.88922 80.19268 
L 284.88922 80.195606 
L 284.811625 80.077275 
L 276.922872 80.09478 
L 276.922872 79.705699 
L 276.690089 79.623478 
L 276.690089 79.599903 
L 276.690089 79.573336 
L 276.58663 79.585266 
L 274.181206 79.612763 
L 274.181206 79.731514 
L 270.016979 79.657166 
L 270.016979 79.901134 
L 270.016979 79.846329 
L 264.714702 79.844398 
L 264.611243 80.457036 
L 264.611243 80.400947 
L 264.481919 80.385923 
L 264.481919 80.389183 
L 264.481919 80.108111 
L 264.456054 80.111342 
L 256.877678 80.111342 
L 256.851813 81.096414 
L 256.800083 80.899688 
L 256.61903 80.800356 
L 256.61903 80.807248 
L 256.567301 80.521962 
L 256.515571 80.528796 
L 256.360382 80.516615 
L 256.360382 80.432134 
L 256.360382 80.402819 
L 256.256923 80.416453 
L 256.179329 80.423275 
L 256.179329 80.426687 
L 256.179329 80.279886 
L 256.07587 80.293478 
L 255.868952 80.313892 
L 255.868952 80.320704 
L 255.765493 79.655412 
L 255.584439 79.658746 
L 255.584439 79.649135 
L 255.48098 79.39533 
L 255.248197 79.405261 
L 255.248197 79.425146 
L 255.248197 79.007915 
L 255.144738 79.020998 
L 255.041279 79.030819 
L 255.041279 78.9145 
L 254.963685 78.474558 
L 254.679173 78.446564 
L 254.679173 78.419681 
L 254.679173 78.238931 
L 254.627443 78.245314 
L 254.44639 78.264484 
L 254.44639 78.1469 
L 254.342931 77.947876 
L 253.825635 77.853126 
L 253.825635 77.859448 
L 253.748041 77.106438 
L 253.282475 77.039142 
L 253.282475 77.039195 
L 253.230746 75.996746 
L 253.179016 76.002652 
L 252.894504 75.930274 
L 252.894504 75.942074 
L 252.842774 75.574676 
L 252.816909 75.577585 
L 252.454803 75.550119 
L 252.454803 75.211906 
L 252.351344 75.223395 
L 251.006376 75.178742 
L 251.006376 74.804893 
L 250.954646 74.810584 
L 250.851187 74.810584 
L 250.851187 74.66332 
L 250.747728 74.674646 
L 249.739002 74.57702 
L 249.687273 74.407689 
L 249.635543 74.413325 
L 222.580998 74.350906 
L 222.580998 76.292672 
L 221.365354 76.185878 
L 221.365354 76.200346 
L 221.261895 75.988854 
L 221.029112 75.942112 
L 221.029112 75.907923 
L 220.925653 74.515056 
L 220.873923 74.518441 
L 220.873923 74.445259 
L 220.822194 74.183554 
L 220.770464 74.190231 
L 220.123845 74.190231 
L 220.123845 74.19694 
L 220.123845 73.849271 
L 220.09798 73.852575 
L 219.425496 73.780082 
L 219.425496 73.744491 
L 219.425496 73.705578 
L 219.373767 73.712177 
L 219.037525 73.673829 
L 219.037525 73.677131 
L 219.037525 73.59904 
L 218.95993 73.608918 
L 216.476913 73.684734 
L 216.451048 73.735177 
L 215.131945 73.796915 
L 215.131945 73.868552 
L 215.080216 73.795256 
L 195.629911 73.833832 
L 195.629911 76.599016 
L 195.526452 76.070435 
L 195.500588 76.074801 
L 195.500588 76.029144 
L 195.397128 74.436214 
L 195.319534 74.444378 
L 195.319534 74.355726 
L 195.216075 72.453387 
L 195.138481 72.413647 
L 195.138481 72.370143 
L 195.035022 71.388164 
L 194.957427 71.299839 
L 194.957427 71.303365 
L 194.957427 71.255624 
L 194.853968 71.269706 
L 194.828104 71.27323 
L 194.828104 71.27323 
L 194.828104 69.927478 
L 194.724645 69.940589 
L 194.517726 69.915143 
L 194.517726 69.918424 
L 194.440132 69.782727 
L 194.414267 69.785986 
L 194.336673 69.789246 
L 194.336673 69.795771 
L 194.233214 69.370476 
L 193.61246 69.346055 
L 193.61246 69.349253 
L 193.586595 68.663574 
L 193.509001 68.672788 
L 192.939976 68.588793 
L 192.939976 68.591865 
L 192.888246 68.000601 
L 192.836517 68.006524 
L 192.681328 67.921361 
L 192.681328 67.924311 
L 192.681328 67.724046 
L 192.577869 67.735702 
L 192.42268 67.649868 
L 192.42268 67.652771 
L 192.396816 67.504815 
L 192.319221 67.513449 
L 191.543278 67.439696 
L 191.543278 67.448348 
L 191.439819 67.307567 
L 191.258766 67.220123 
L 191.258766 67.225819 
L 191.232901 67.02477 
L 191.155307 67.033205 
L 190.870794 67.01024 
L 190.819065 66.762421 
L 190.7932 66.76519 
L 190.715606 66.76519 
L 190.715606 66.670762 
L 190.612147 66.269627 
L 190.224175 66.200968 
L 190.224175 66.206307 
L 190.19831 66.154492 
L 190.19831 66.157153 
L 189.784474 66.093172 
L 189.784474 66.09583 
L 189.732745 65.892697 
L 188.749884 65.885221 
L 188.749884 65.887861 
L 188.672289 64.785392 
L 188.439506 64.741896 
L 188.336047 64.496935 
L 188.180859 64.501665 
L 188.180859 64.243537 
L 188.103264 64.250486 
L 187.973941 64.259765 
L 187.973941 64.262087 
L 187.922211 62.808563 
L 187.870481 62.812604 
L 187.042809 62.869556 
L 187.042809 62.65869 
L 184.482197 62.715142 
L 184.404603 62.867766 
L 183.473471 62.770167 
L 183.473471 62.774353 
L 183.473471 62.661212 
L 183.447606 62.663282 
L 182.956176 62.663282 
L 182.878582 62.024581 
L 179.878269 62.065519 
L 179.852404 62.257825 
L 163.71279 62.227678 
L 163.71279 59.014012 
L 157.763894 59.008834 
L 157.686299 59.320583 
L 157.531111 59.32927 
L 157.531111 59.33101 
L 157.531111 59.178643 
L 157.013815 59.134372 
L 157.013815 59.136065 
L 156.936221 58.756576 
L 156.910356 58.758159 
L 156.729303 58.688893 
L 156.729303 58.692025 
L 156.729303 58.614738 
L 156.625844 58.62092 
L 155.694712 58.675673 
L 155.694712 58.677255 
L 155.591253 58.055274 
L 152.228834 58.093255 
L 152.202969 58.245758 
L 151.789133 58.186171 
L 151.789133 58.187675 
L 151.789133 58.02259 
L 151.711538 58.026952 
L 151.582214 57.949971 
L 151.582214 57.951404 
L 151.478755 57.624832 
L 151.116649 57.558633 
L 151.116649 57.559948 
L 151.064919 57.395121 
L 151.01319 57.397648 
L 150.651083 57.329933 
L 150.651083 57.331181 
L 150.651083 57.246875 
L 150.547624 57.251765 
L 150.288976 57.262816 
L 150.288976 57.264048 
L 150.288976 57.094491 
L 150.211382 57.098025 
L 149.487168 57.043266 
L 149.487168 57.045611 
L 149.383709 56.878429 
L 148.685361 56.820995 
L 148.685361 56.822105 
L 148.685361 56.735237 
L 147.857688 56.68126 
L 147.857688 56.682334 
L 147.857688 56.594398 
L 147.754229 56.598584 
L 132.649206 56.518248 
L 132.545747 57.151359 
L 131.821533 57.082123 
L 131.821533 57.083669 
L 131.769804 56.638138 
L 131.718074 56.640849 
L 131.04559 56.561401 
L 131.04559 56.562739 
L 131.04559 56.448844 
L 130.993861 56.451422 
L 130.631754 56.349776 
L 130.631754 56.239875 
L 130.528295 56.2447 
L 130.347241 56.250756 
L 130.347241 56.137603 
L 130.347241 56.021915 
L 130.269647 56.025256 
L 130.166188 56.028607 
L 130.166188 55.913568 
L 130.088594 55.916773 
L 128.717761 55.838644 
L 128.717761 55.616726 
L 128.588437 55.616726 
L 128.588437 55.501636 
L 128.433249 55.501636 
L 128.433249 55.507091 
L 128.433249 55.386753 
L 128.226331 55.386753 
L 128.226331 55.151702 
L 128.122872 55.154701 
L 127.372793 55.174478 
L 127.372793 55.053752 
L 127.372793 54.930593 
L 127.036551 54.935852 
L 127.036551 54.939159 
L 127.036551 54.815111 
L 99.645764 54.834722 
L 99.645764 53.826036 
L 98.016284 53.842524 
L 98.016284 53.568 
L 73.832727 53.568 
L 73.832727 53.568 
" clip-path="url(#p42ebfa39f6)" style="fill: none; stroke: #4c72b0; stroke-width: 1.5; stroke-linecap: round"/>
   </g>
   <g id="patch_3">
    <path d="M 57.6 307.584 
L 57.6 41.472 
" style="fill: none; stroke: #ffffff; stroke-width: 1.25; stroke-linejoin: miter; stroke-linecap: square"/>
   </g>
   <g id="patch_4">
    <path d="M 414.72 307.584 
L 414.72 41.472 
" style="fill: none; stroke: #ffffff; stroke-width: 1.25; stroke-linejoin: miter; stroke-linecap: square"/>
   </g>
   <g id="patch_5">
    <path d="M 57.6 307.584 
L 414.72 307.584 
" style="fill: none; stroke: #ffffff; stroke-width: 1.25; stroke-linejoin: miter; stroke-linecap: square"/>
   </g>
   <g id="patch_6">
    <path d="M 57.6 41.472 
L 414.72 41.472 
" style="fill: none; stroke: #ffffff; stroke-width: 1.25; stroke-linejoin: miter; stroke-linecap: square"/>
   </g>
   <g id="text_14">
    <!-- Precision-recall curve -->
    <g style="fill: #262626" transform="translate(172.175625 35.472)scale(0.12 -0.12)">
     <defs>
      <path id="DejaVuSans-2d" d="M 313 2009 
L 1997 2009 
L 1997 1497 
L 313 1497 
L 313 2009 
z
" transform="scale(0.015625)"/>
      <path id="DejaVuSans-75" d="M 544 1381 
L 544 3500 
L 1119 3500 
L 1119 1403 
Q 1119 906 1312 657 
Q 1506 409 1894 409 
Q 2359 409 2629 706 
Q 2900 1003 2900 1516 
L 2900 3500 
L 3475 3500 
L 3475 0 
L 2900 0 
L 2900 538 
Q 2691 219 2414 64 
Q 2138 -91 1772 -91 
Q 1169 -91 856 284 
Q 544 659 544 1381 
z
M 1991 3584 
L 1991 3584 
z
" transform="scale(0.015625)"/>
     </defs>
     <use xlink:href="#DejaVuSans-50"/>
     <use xlink:href="#DejaVuSans-72" x="58.552734"/>
     <use xlink:href="#DejaVuSans-65" x="97.416016"/>
     <use xlink:href="#DejaVuSans-63" x="158.939453"/>
     <use xlink:href="#DejaVuSans-69" x="213.919922"/>
     <use xlink:href="#DejaVuSans-73" x="241.703125"/>
     <use xlink:href="#DejaVuSans-69" x="293.802734"/>
     <use xlink:href="#DejaVuSans-6f" x="321.585938"/>
     <use xlink:href="#DejaVuSans-6e" x="382.767578"/>
     <use xlink:href="#DejaVuSans-2d" x="446.146484"/>
     <use xlink:href="#DejaVuSans-72" x="482.230469"/>
     <use xlink:href="#DejaVuSans-65" x="521.09375"/>
     <use xlink:href="#DejaVuSans-63" x="582.617188"/>
     <use xlink:href="#DejaVuSans-61" x="637.597656"/>
     <use xlink:href="#DejaVuSans-6c" x="698.876953"/>
     <use xlink:href="#DejaVuSans-6c" x="726.660156"/>
     <use xlink:href="#DejaVuSans-20" x="754.443359"/>
     <use xlink:href="#DejaVuSans-63" x="786.230469"/>
     <use xlink:href="#DejaVuSans-75" x="841.210938"/>
     <use xlink:href="#DejaVuSans-72" x="904.589844"/>
     <use xlink:href="#DejaVuSans-76" x="945.703125"/>
     <use xlink:href="#DejaVuSans-65" x="1004.882812"/>
    </g>
   </g>
   <g id="legend_1">
    <g id="patch_7">
     <path d="M 65.3 302.084 
L 250.215156 302.084 
Q 252.415156 302.084 252.415156 299.884 
L 252.415156 284.838062 
Q 252.415156 282.638062 250.215156 282.638062 
L 65.3 282.638062 
Q 63.1 282.638062 63.1 284.838062 
L 63.1 299.884 
Q 63.1 302.084 65.3 302.084 
z
" style="fill: #eaeaf2; opacity: 0.8; stroke: #cccccc; stroke-linejoin: miter"/>
    </g>
    <g id="line2d_13">
     <path d="M 67.5 291.546344 
L 78.5 291.546344 
L 78.5 291.546344 
L 89.5 291.546344 
L 89.5 291.546344 
" style="fill: none; stroke: #4c72b0; stroke-width: 1.5; stroke-linecap: round"/>
    </g>
    <g id="text_15">
     <!-- Random Forest (AP = 0.89) -->
     <g style="fill: #262626" transform="translate(98.3 295.396344)scale(0.11 -0.11)">
      <defs>
       <path id="DejaVuSans-64" d="M 2906 2969 
L 2906 4863 
L 3481 4863 
L 3481 0 
L 2906 0 
L 2906 525 
Q 2725 213 2448 61 
Q 2172 -91 1784 -91 
Q 1150 -91 751 415 
Q 353 922 353 1747 
Q 353 2572 751 3078 
Q 1150 3584 1784 3584 
Q 2172 3584 2448 3432 
Q 2725 3281 2906 2969 
z
M 947 1747 
Q 947 1113 1208 752 
Q 1469 391 1925 391 
Q 2381 391 2643 752 
Q 2906 1113 2906 1747 
Q 2906 2381 2643 2742 
Q 2381 3103 1925 3103 
Q 1469 3103 1208 2742 
Q 947 2381 947 1747 
z
" transform="scale(0.015625)"/>
       <path id="DejaVuSans-6d" d="M 3328 2828 
Q 3544 3216 3844 3400 
Q 4144 3584 4550 3584 
Q 5097 3584 5394 3201 
Q 5691 2819 5691 2113 
L 5691 0 
L 5113 0 
L 5113 2094 
Q 5113 2597 4934 2840 
Q 4756 3084 4391 3084 
Q 3944 3084 3684 2787 
Q 3425 2491 3425 1978 
L 3425 0 
L 2847 0 
L 2847 2094 
Q 2847 2600 2669 2842 
Q 2491 3084 2119 3084 
Q 1678 3084 1418 2786 
Q 1159 2488 1159 1978 
L 1159 0 
L 581 0 
L 581 3500 
L 1159 3500 
L 1159 2956 
Q 1356 3278 1631 3431 
Q 1906 3584 2284 3584 
Q 2666 3584 2933 3390 
Q 3200 3197 3328 2828 
z
" transform="scale(0.015625)"/>
       <path id="DejaVuSans-46" d="M 628 4666 
L 3309 4666 
L 3309 4134 
L 1259 4134 
L 1259 2759 
L 3109 2759 
L 3109 2228 
L 1259 2228 
L 1259 0 
L 628 0 
L 628 4666 
z
" transform="scale(0.015625)"/>
       <path id="DejaVuSans-41" d="M 2188 4044 
L 1331 1722 
L 3047 1722 
L 2188 4044 
z
M 1831 4666 
L 2547 4666 
L 4325 0 
L 3669 0 
L 3244 1197 
L 1141 1197 
L 716 0 
L 50 0 
L 1831 4666 
z
" transform="scale(0.015625)"/>
       <path id="DejaVuSans-3d" d="M 678 2906 
L 4684 2906 
L 4684 2381 
L 678 2381 
L 678 2906 
z
M 678 1631 
L 4684 1631 
L 4684 1100 
L 678 1100 
L 678 1631 
z
" transform="scale(0.015625)"/>
       <path id="DejaVuSans-39" d="M 703 97 
L 703 672 
Q 941 559 1184 500 
Q 1428 441 1663 441 
Q 2288 441 2617 861 
Q 2947 1281 2994 2138 
Q 2813 1869 2534 1725 
Q 2256 1581 1919 1581 
Q 1219 1581 811 2004 
Q 403 2428 403 3163 
Q 403 3881 828 4315 
Q 1253 4750 1959 4750 
Q 2769 4750 3195 4129 
Q 3622 3509 3622 2328 
Q 3622 1225 3098 567 
Q 2575 -91 1691 -91 
Q 1453 -91 1209 -44 
Q 966 3 703 97 
z
M 1959 2075 
Q 2384 2075 2632 2365 
Q 2881 2656 2881 3163 
Q 2881 3666 2632 3958 
Q 2384 4250 1959 4250 
Q 1534 4250 1286 3958 
Q 1038 3666 1038 3163 
Q 1038 2656 1286 2365 
Q 1534 2075 1959 2075 
z
" transform="scale(0.015625)"/>
      </defs>
      <use xlink:href="#DejaVuSans-52"/>
      <use xlink:href="#DejaVuSans-61" x="67.232422"/>
      <use xlink:href="#DejaVuSans-6e" x="128.511719"/>
      <use xlink:href="#DejaVuSans-64" x="191.890625"/>
      <use xlink:href="#DejaVuSans-6f" x="255.367188"/>
      <use xlink:href="#DejaVuSans-6d" x="316.548828"/>
      <use xlink:href="#DejaVuSans-20" x="413.960938"/>
      <use xlink:href="#DejaVuSans-46" x="445.748047"/>
      <use xlink:href="#DejaVuSans-6f" x="499.642578"/>
      <use xlink:href="#DejaVuSans-72" x="560.824219"/>
      <use xlink:href="#DejaVuSans-65" x="599.6875"/>
      <use xlink:href="#DejaVuSans-73" x="661.210938"/>
      <use xlink:href="#DejaVuSans-74" x="713.310547"/>
      <use xlink:href="#DejaVuSans-20" x="752.519531"/>
      <use xlink:href="#DejaVuSans-28" x="784.306641"/>
      <use xlink:href="#DejaVuSans-41" x="823.320312"/>
      <use xlink:href="#DejaVuSans-50" x="891.728516"/>
      <use xlink:href="#DejaVuSans-20" x="952.03125"/>
      <use xlink:href="#DejaVuSans-3d" x="983.818359"/>
      <use xlink:href="#DejaVuSans-20" x="1067.607422"/>
      <use xlink:href="#DejaVuSans-30" x="1099.394531"/>
      <use xlink:href="#DejaVuSans-2e" x="1163.017578"/>
      <use xlink:href="#DejaVuSans-38" x="1194.804688"/>
      <use xlink:href="#DejaVuSans-39" x="1258.427734"/>
      <use xlink:href="#DejaVuSans-29" x="1322.050781"/>
     </g>
    </g>
   </g>
  </g>
 </g>
 <defs>
  <clipPath id="p42ebfa39f6">
   <rect x="57.6" y="41.472" width="357.12" height="266.112"/>
  </clipPath>
 </defs>
</svg>
