<?xml version="1.0" encoding="utf-8" standalone="no"?>
<!DOCTYPE svg PUBLIC "-//W3C//DTD SVG 1.1//EN"
  "http://www.w3.org/Graphics/SVG/1.1/DTD/svg11.dtd">
<svg xmlns:xlink="http://www.w3.org/1999/xlink" width="460.8pt" height="345.6pt" viewBox="0 0 460.8 345.6" xmlns="http://www.w3.org/2000/svg" version="1.1">
 <metadata>
  <rdf:RDF xmlns:dc="http://purl.org/dc/elements/1.1/" xmlns:cc="http://creativecommons.org/ns#" xmlns:rdf="http://www.w3.org/1999/02/22-rdf-syntax-ns#">
   <cc:Work>
    <dc:type rdf:resource="http://purl.org/dc/dcmitype/StillImage"/>
    <dc:date>2022-11-25T14:56:27.249316</dc:date>
    <dc:format>image/svg+xml</dc:format>
    <dc:creator>
     <cc:Agent>
      <dc:title>Matplotlib v3.5.2, https://matplotlib.org/</dc:title>
     </cc:Agent>
    </dc:creator>
   </cc:Work>
  </rdf:RDF>
 </metadata>
 <defs>
  <style type="text/css">*{stroke-linejoin: round; stroke-linecap: butt}</style>
 </defs>
 <g id="figure_1">
  <g id="patch_1">
   <path d="M 0 345.6 
L 460.8 345.6 
L 460.8 0 
L 0 0 
z
" style="fill: #ffffff"/>
  </g>
  <g id="axes_1">
   <g id="patch_2">
    <path d="M 57.6 307.584 
L 414.72 307.584 
L 414.72 41.472 
L 57.6 41.472 
z
" style="fill: #eaeaf2"/>
   </g>
   <g id="matplotlib.axis_1">
    <g id="xtick_1">
     <g id="line2d_1">
      <path d="M 73.832727 307.584 
L 73.832727 41.472 
" clip-path="url(#paf677a923d)" style="fill: none; stroke: #ffffff; stroke-linecap: round"/>
     </g>
     <g id="text_1">
      <!-- 0.0 -->
      <g style="fill: #262626" transform="translate(65.086009 325.442281)scale(0.11 -0.11)">
       <defs>
        <path id="DejaVuSans-30" d="M 2034 4250 
Q 1547 4250 1301 3770 
Q 1056 3291 1056 2328 
Q 1056 1369 1301 889 
Q 1547 409 2034 409 
Q 2525 409 2770 889 
Q 3016 1369 3016 2328 
Q 3016 3291 2770 3770 
Q 2525 4250 2034 4250 
z
M 2034 4750 
Q 2819 4750 3233 4129 
Q 3647 3509 3647 2328 
Q 3647 1150 3233 529 
Q 2819 -91 2034 -91 
Q 1250 -91 836 529 
Q 422 1150 422 2328 
Q 422 3509 836 4129 
Q 1250 4750 2034 4750 
z
" transform="scale(0.015625)"/>
        <path id="DejaVuSans-2e" d="M 684 794 
L 1344 794 
L 1344 0 
L 684 0 
L 684 794 
z
" transform="scale(0.015625)"/>
       </defs>
       <use xlink:href="#DejaVuSans-30"/>
       <use xlink:href="#DejaVuSans-2e" x="63.623047"/>
       <use xlink:href="#DejaVuSans-30" x="95.410156"/>
      </g>
     </g>
    </g>
    <g id="xtick_2">
     <g id="line2d_2">
      <path d="M 138.763636 307.584 
L 138.763636 41.472 
" clip-path="url(#paf677a923d)" style="fill: none; stroke: #ffffff; stroke-linecap: round"/>
     </g>
     <g id="text_2">
      <!-- 0.2 -->
      <g style="fill: #262626" transform="translate(130.016918 325.442281)scale(0.11 -0.11)">
       <defs>
        <path id="DejaVuSans-32" d="M 1228 531 
L 3431 531 
L 3431 0 
L 469 0 
L 469 531 
Q 828 903 1448 1529 
Q 2069 2156 2228 2338 
Q 2531 2678 2651 2914 
Q 2772 3150 2772 3378 
Q 2772 3750 2511 3984 
Q 2250 4219 1831 4219 
Q 1534 4219 1204 4116 
Q 875 4013 500 3803 
L 500 4441 
Q 881 4594 1212 4672 
Q 1544 4750 1819 4750 
Q 2544 4750 2975 4387 
Q 3406 4025 3406 3419 
Q 3406 3131 3298 2873 
Q 3191 2616 2906 2266 
Q 2828 2175 2409 1742 
Q 1991 1309 1228 531 
z
" transform="scale(0.015625)"/>
       </defs>
       <use xlink:href="#DejaVuSans-30"/>
       <use xlink:href="#DejaVuSans-2e" x="63.623047"/>
       <use xlink:href="#DejaVuSans-32" x="95.410156"/>
      </g>
     </g>
    </g>
    <g id="xtick_3">
     <g id="line2d_3">
      <path d="M 203.694545 307.584 
L 203.694545 41.472 
" clip-path="url(#paf677a923d)" style="fill: none; stroke: #ffffff; stroke-linecap: round"/>
     </g>
     <g id="text_3">
      <!-- 0.4 -->
      <g style="fill: #262626" transform="translate(194.947827 325.442281)scale(0.11 -0.11)">
       <defs>
        <path id="DejaVuSans-34" d="M 2419 4116 
L 825 1625 
L 2419 1625 
L 2419 4116 
z
M 2253 4666 
L 3047 4666 
L 3047 1625 
L 3713 1625 
L 3713 1100 
L 3047 1100 
L 3047 0 
L 2419 0 
L 2419 1100 
L 313 1100 
L 313 1709 
L 2253 4666 
z
" transform="scale(0.015625)"/>
       </defs>
       <use xlink:href="#DejaVuSans-30"/>
       <use xlink:href="#DejaVuSans-2e" x="63.623047"/>
       <use xlink:href="#DejaVuSans-34" x="95.410156"/>
      </g>
     </g>
    </g>
    <g id="xtick_4">
     <g id="line2d_4">
      <path d="M 268.625455 307.584 
L 268.625455 41.472 
" clip-path="url(#paf677a923d)" style="fill: none; stroke: #ffffff; stroke-linecap: round"/>
     </g>
     <g id="text_4">
      <!-- 0.6 -->
      <g style="fill: #262626" transform="translate(259.878736 325.442281)scale(0.11 -0.11)">
       <defs>
        <path id="DejaVuSans-36" d="M 2113 2584 
Q 1688 2584 1439 2293 
Q 1191 2003 1191 1497 
Q 1191 994 1439 701 
Q 1688 409 2113 409 
Q 2538 409 2786 701 
Q 3034 994 3034 1497 
Q 3034 2003 2786 2293 
Q 2538 2584 2113 2584 
z
M 3366 4563 
L 3366 3988 
Q 3128 4100 2886 4159 
Q 2644 4219 2406 4219 
Q 1781 4219 1451 3797 
Q 1122 3375 1075 2522 
Q 1259 2794 1537 2939 
Q 1816 3084 2150 3084 
Q 2853 3084 3261 2657 
Q 3669 2231 3669 1497 
Q 3669 778 3244 343 
Q 2819 -91 2113 -91 
Q 1303 -91 875 529 
Q 447 1150 447 2328 
Q 447 3434 972 4092 
Q 1497 4750 2381 4750 
Q 2619 4750 2861 4703 
Q 3103 4656 3366 4563 
z
" transform="scale(0.015625)"/>
       </defs>
       <use xlink:href="#DejaVuSans-30"/>
       <use xlink:href="#DejaVuSans-2e" x="63.623047"/>
       <use xlink:href="#DejaVuSans-36" x="95.410156"/>
      </g>
     </g>
    </g>
    <g id="xtick_5">
     <g id="line2d_5">
      <path d="M 333.556364 307.584 
L 333.556364 41.472 
" clip-path="url(#paf677a923d)" style="fill: none; stroke: #ffffff; stroke-linecap: round"/>
     </g>
     <g id="text_5">
      <!-- 0.8 -->
      <g style="fill: #262626" transform="translate(324.809645 325.442281)scale(0.11 -0.11)">
       <defs>
        <path id="DejaVuSans-38" d="M 2034 2216 
Q 1584 2216 1326 1975 
Q 1069 1734 1069 1313 
Q 1069 891 1326 650 
Q 1584 409 2034 409 
Q 2484 409 2743 651 
Q 3003 894 3003 1313 
Q 3003 1734 2745 1975 
Q 2488 2216 2034 2216 
z
M 1403 2484 
Q 997 2584 770 2862 
Q 544 3141 544 3541 
Q 544 4100 942 4425 
Q 1341 4750 2034 4750 
Q 2731 4750 3128 4425 
Q 3525 4100 3525 3541 
Q 3525 3141 3298 2862 
Q 3072 2584 2669 2484 
Q 3125 2378 3379 2068 
Q 3634 1759 3634 1313 
Q 3634 634 3220 271 
Q 2806 -91 2034 -91 
Q 1263 -91 848 271 
Q 434 634 434 1313 
Q 434 1759 690 2068 
Q 947 2378 1403 2484 
z
M 1172 3481 
Q 1172 3119 1398 2916 
Q 1625 2713 2034 2713 
Q 2441 2713 2670 2916 
Q 2900 3119 2900 3481 
Q 2900 3844 2670 4047 
Q 2441 4250 2034 4250 
Q 1625 4250 1398 4047 
Q 1172 3844 1172 3481 
z
" transform="scale(0.015625)"/>
       </defs>
       <use xlink:href="#DejaVuSans-30"/>
       <use xlink:href="#DejaVuSans-2e" x="63.623047"/>
       <use xlink:href="#DejaVuSans-38" x="95.410156"/>
      </g>
     </g>
    </g>
    <g id="xtick_6">
     <g id="line2d_6">
      <path d="M 398.487273 307.584 
L 398.487273 41.472 
" clip-path="url(#paf677a923d)" style="fill: none; stroke: #ffffff; stroke-linecap: round"/>
     </g>
     <g id="text_6">
      <!-- 1.0 -->
      <g style="fill: #262626" transform="translate(389.740554 325.442281)scale(0.11 -0.11)">
       <defs>
        <path id="DejaVuSans-31" d="M 794 531 
L 1825 531 
L 1825 4091 
L 703 3866 
L 703 4441 
L 1819 4666 
L 2450 4666 
L 2450 531 
L 3481 531 
L 3481 0 
L 794 0 
L 794 531 
z
" transform="scale(0.015625)"/>
       </defs>
       <use xlink:href="#DejaVuSans-31"/>
       <use xlink:href="#DejaVuSans-2e" x="63.623047"/>
       <use xlink:href="#DejaVuSans-30" x="95.410156"/>
      </g>
     </g>
    </g>
    <g id="text_7">
     <!-- Recall (Positive label: 1) -->
     <g style="fill: #262626" transform="translate(164.380313 340.848062)scale(0.12 -0.12)">
      <defs>
       <path id="DejaVuSans-52" d="M 2841 2188 
Q 3044 2119 3236 1894 
Q 3428 1669 3622 1275 
L 4263 0 
L 3584 0 
L 2988 1197 
Q 2756 1666 2539 1819 
Q 2322 1972 1947 1972 
L 1259 1972 
L 1259 0 
L 628 0 
L 628 4666 
L 2053 4666 
Q 2853 4666 3247 4331 
Q 3641 3997 3641 3322 
Q 3641 2881 3436 2590 
Q 3231 2300 2841 2188 
z
M 1259 4147 
L 1259 2491 
L 2053 2491 
Q 2509 2491 2742 2702 
Q 2975 2913 2975 3322 
Q 2975 3731 2742 3939 
Q 2509 4147 2053 4147 
L 1259 4147 
z
" transform="scale(0.015625)"/>
       <path id="DejaVuSans-65" d="M 3597 1894 
L 3597 1613 
L 953 1613 
Q 991 1019 1311 708 
Q 1631 397 2203 397 
Q 2534 397 2845 478 
Q 3156 559 3463 722 
L 3463 178 
Q 3153 47 2828 -22 
Q 2503 -91 2169 -91 
Q 1331 -91 842 396 
Q 353 884 353 1716 
Q 353 2575 817 3079 
Q 1281 3584 2069 3584 
Q 2775 3584 3186 3129 
Q 3597 2675 3597 1894 
z
M 3022 2063 
Q 3016 2534 2758 2815 
Q 2500 3097 2075 3097 
Q 1594 3097 1305 2825 
Q 1016 2553 972 2059 
L 3022 2063 
z
" transform="scale(0.015625)"/>
       <path id="DejaVuSans-63" d="M 3122 3366 
L 3122 2828 
Q 2878 2963 2633 3030 
Q 2388 3097 2138 3097 
Q 1578 3097 1268 2742 
Q 959 2388 959 1747 
Q 959 1106 1268 751 
Q 1578 397 2138 397 
Q 2388 397 2633 464 
Q 2878 531 3122 666 
L 3122 134 
Q 2881 22 2623 -34 
Q 2366 -91 2075 -91 
Q 1284 -91 818 406 
Q 353 903 353 1747 
Q 353 2603 823 3093 
Q 1294 3584 2113 3584 
Q 2378 3584 2631 3529 
Q 2884 3475 3122 3366 
z
" transform="scale(0.015625)"/>
       <path id="DejaVuSans-61" d="M 2194 1759 
Q 1497 1759 1228 1600 
Q 959 1441 959 1056 
Q 959 750 1161 570 
Q 1363 391 1709 391 
Q 2188 391 2477 730 
Q 2766 1069 2766 1631 
L 2766 1759 
L 2194 1759 
z
M 3341 1997 
L 3341 0 
L 2766 0 
L 2766 531 
Q 2569 213 2275 61 
Q 1981 -91 1556 -91 
Q 1019 -91 701 211 
Q 384 513 384 1019 
Q 384 1609 779 1909 
Q 1175 2209 1959 2209 
L 2766 2209 
L 2766 2266 
Q 2766 2663 2505 2880 
Q 2244 3097 1772 3097 
Q 1472 3097 1187 3025 
Q 903 2953 641 2809 
L 641 3341 
Q 956 3463 1253 3523 
Q 1550 3584 1831 3584 
Q 2591 3584 2966 3190 
Q 3341 2797 3341 1997 
z
" transform="scale(0.015625)"/>
       <path id="DejaVuSans-6c" d="M 603 4863 
L 1178 4863 
L 1178 0 
L 603 0 
L 603 4863 
z
" transform="scale(0.015625)"/>
       <path id="DejaVuSans-20" transform="scale(0.015625)"/>
       <path id="DejaVuSans-28" d="M 1984 4856 
Q 1566 4138 1362 3434 
Q 1159 2731 1159 2009 
Q 1159 1288 1364 580 
Q 1569 -128 1984 -844 
L 1484 -844 
Q 1016 -109 783 600 
Q 550 1309 550 2009 
Q 550 2706 781 3412 
Q 1013 4119 1484 4856 
L 1984 4856 
z
" transform="scale(0.015625)"/>
       <path id="DejaVuSans-50" d="M 1259 4147 
L 1259 2394 
L 2053 2394 
Q 2494 2394 2734 2622 
Q 2975 2850 2975 3272 
Q 2975 3691 2734 3919 
Q 2494 4147 2053 4147 
L 1259 4147 
z
M 628 4666 
L 2053 4666 
Q 2838 4666 3239 4311 
Q 3641 3956 3641 3272 
Q 3641 2581 3239 2228 
Q 2838 1875 2053 1875 
L 1259 1875 
L 1259 0 
L 628 0 
L 628 4666 
z
" transform="scale(0.015625)"/>
       <path id="DejaVuSans-6f" d="M 1959 3097 
Q 1497 3097 1228 2736 
Q 959 2375 959 1747 
Q 959 1119 1226 758 
Q 1494 397 1959 397 
Q 2419 397 2687 759 
Q 2956 1122 2956 1747 
Q 2956 2369 2687 2733 
Q 2419 3097 1959 3097 
z
M 1959 3584 
Q 2709 3584 3137 3096 
Q 3566 2609 3566 1747 
Q 3566 888 3137 398 
Q 2709 -91 1959 -91 
Q 1206 -91 779 398 
Q 353 888 353 1747 
Q 353 2609 779 3096 
Q 1206 3584 1959 3584 
z
" transform="scale(0.015625)"/>
       <path id="DejaVuSans-73" d="M 2834 3397 
L 2834 2853 
Q 2591 2978 2328 3040 
Q 2066 3103 1784 3103 
Q 1356 3103 1142 2972 
Q 928 2841 928 2578 
Q 928 2378 1081 2264 
Q 1234 2150 1697 2047 
L 1894 2003 
Q 2506 1872 2764 1633 
Q 3022 1394 3022 966 
Q 3022 478 2636 193 
Q 2250 -91 1575 -91 
Q 1294 -91 989 -36 
Q 684 19 347 128 
L 347 722 
Q 666 556 975 473 
Q 1284 391 1588 391 
Q 1994 391 2212 530 
Q 2431 669 2431 922 
Q 2431 1156 2273 1281 
Q 2116 1406 1581 1522 
L 1381 1569 
Q 847 1681 609 1914 
Q 372 2147 372 2553 
Q 372 3047 722 3315 
Q 1072 3584 1716 3584 
Q 2034 3584 2315 3537 
Q 2597 3491 2834 3397 
z
" transform="scale(0.015625)"/>
       <path id="DejaVuSans-69" d="M 603 3500 
L 1178 3500 
L 1178 0 
L 603 0 
L 603 3500 
z
M 603 4863 
L 1178 4863 
L 1178 4134 
L 603 4134 
L 603 4863 
z
" transform="scale(0.015625)"/>
       <path id="DejaVuSans-74" d="M 1172 4494 
L 1172 3500 
L 2356 3500 
L 2356 3053 
L 1172 3053 
L 1172 1153 
Q 1172 725 1289 603 
Q 1406 481 1766 481 
L 2356 481 
L 2356 0 
L 1766 0 
Q 1100 0 847 248 
Q 594 497 594 1153 
L 594 3053 
L 172 3053 
L 172 3500 
L 594 3500 
L 594 4494 
L 1172 4494 
z
" transform="scale(0.015625)"/>
       <path id="DejaVuSans-76" d="M 191 3500 
L 800 3500 
L 1894 563 
L 2988 3500 
L 3597 3500 
L 2284 0 
L 1503 0 
L 191 3500 
z
" transform="scale(0.015625)"/>
       <path id="DejaVuSans-62" d="M 3116 1747 
Q 3116 2381 2855 2742 
Q 2594 3103 2138 3103 
Q 1681 3103 1420 2742 
Q 1159 2381 1159 1747 
Q 1159 1113 1420 752 
Q 1681 391 2138 391 
Q 2594 391 2855 752 
Q 3116 1113 3116 1747 
z
M 1159 2969 
Q 1341 3281 1617 3432 
Q 1894 3584 2278 3584 
Q 2916 3584 3314 3078 
Q 3713 2572 3713 1747 
Q 3713 922 3314 415 
Q 2916 -91 2278 -91 
Q 1894 -91 1617 61 
Q 1341 213 1159 525 
L 1159 0 
L 581 0 
L 581 4863 
L 1159 4863 
L 1159 2969 
z
" transform="scale(0.015625)"/>
       <path id="DejaVuSans-3a" d="M 750 794 
L 1409 794 
L 1409 0 
L 750 0 
L 750 794 
z
M 750 3309 
L 1409 3309 
L 1409 2516 
L 750 2516 
L 750 3309 
z
" transform="scale(0.015625)"/>
       <path id="DejaVuSans-29" d="M 513 4856 
L 1013 4856 
Q 1481 4119 1714 3412 
Q 1947 2706 1947 2009 
Q 1947 1309 1714 600 
Q 1481 -109 1013 -844 
L 513 -844 
Q 928 -128 1133 580 
Q 1338 1288 1338 2009 
Q 1338 2731 1133 3434 
Q 928 4138 513 4856 
z
" transform="scale(0.015625)"/>
      </defs>
      <use xlink:href="#DejaVuSans-52"/>
      <use xlink:href="#DejaVuSans-65" x="64.982422"/>
      <use xlink:href="#DejaVuSans-63" x="126.505859"/>
      <use xlink:href="#DejaVuSans-61" x="181.486328"/>
      <use xlink:href="#DejaVuSans-6c" x="242.765625"/>
      <use xlink:href="#DejaVuSans-6c" x="270.548828"/>
      <use xlink:href="#DejaVuSans-20" x="298.332031"/>
      <use xlink:href="#DejaVuSans-28" x="330.119141"/>
      <use xlink:href="#DejaVuSans-50" x="369.132812"/>
      <use xlink:href="#DejaVuSans-6f" x="425.810547"/>
      <use xlink:href="#DejaVuSans-73" x="486.992188"/>
      <use xlink:href="#DejaVuSans-69" x="539.091797"/>
      <use xlink:href="#DejaVuSans-74" x="566.875"/>
      <use xlink:href="#DejaVuSans-69" x="606.083984"/>
      <use xlink:href="#DejaVuSans-76" x="633.867188"/>
      <use xlink:href="#DejaVuSans-65" x="693.046875"/>
      <use xlink:href="#DejaVuSans-20" x="754.570312"/>
      <use xlink:href="#DejaVuSans-6c" x="786.357422"/>
      <use xlink:href="#DejaVuSans-61" x="814.140625"/>
      <use xlink:href="#DejaVuSans-62" x="875.419922"/>
      <use xlink:href="#DejaVuSans-65" x="938.896484"/>
      <use xlink:href="#DejaVuSans-6c" x="1000.419922"/>
      <use xlink:href="#DejaVuSans-3a" x="1028.203125"/>
      <use xlink:href="#DejaVuSans-20" x="1061.894531"/>
      <use xlink:href="#DejaVuSans-31" x="1093.681641"/>
      <use xlink:href="#DejaVuSans-29" x="1157.304688"/>
     </g>
    </g>
   </g>
   <g id="matplotlib.axis_2">
    <g id="ytick_1">
     <g id="line2d_7">
      <path d="M 57.6 259.804636 
L 414.72 259.804636 
" clip-path="url(#paf677a923d)" style="fill: none; stroke: #ffffff; stroke-linecap: round"/>
     </g>
     <g id="text_8">
      <!-- 0.2 -->
      <g style="fill: #262626" transform="translate(30.606563 263.983777)scale(0.11 -0.11)">
       <use xlink:href="#DejaVuSans-30"/>
       <use xlink:href="#DejaVuSans-2e" x="63.623047"/>
       <use xlink:href="#DejaVuSans-32" x="95.410156"/>
      </g>
     </g>
    </g>
    <g id="ytick_2">
     <g id="line2d_8">
      <path d="M 57.6 208.245477 
L 414.72 208.245477 
" clip-path="url(#paf677a923d)" style="fill: none; stroke: #ffffff; stroke-linecap: round"/>
     </g>
     <g id="text_9">
      <!-- 0.4 -->
      <g style="fill: #262626" transform="translate(30.606563 212.424618)scale(0.11 -0.11)">
       <use xlink:href="#DejaVuSans-30"/>
       <use xlink:href="#DejaVuSans-2e" x="63.623047"/>
       <use xlink:href="#DejaVuSans-34" x="95.410156"/>
      </g>
     </g>
    </g>
    <g id="ytick_3">
     <g id="line2d_9">
      <path d="M 57.6 156.686318 
L 414.72 156.686318 
" clip-path="url(#paf677a923d)" style="fill: none; stroke: #ffffff; stroke-linecap: round"/>
     </g>
     <g id="text_10">
      <!-- 0.6 -->
      <g style="fill: #262626" transform="translate(30.606563 160.865459)scale(0.11 -0.11)">
       <use xlink:href="#DejaVuSans-30"/>
       <use xlink:href="#DejaVuSans-2e" x="63.623047"/>
       <use xlink:href="#DejaVuSans-36" x="95.410156"/>
      </g>
     </g>
    </g>
    <g id="ytick_4">
     <g id="line2d_10">
      <path d="M 57.6 105.127159 
L 414.72 105.127159 
" clip-path="url(#paf677a923d)" style="fill: none; stroke: #ffffff; stroke-linecap: round"/>
     </g>
     <g id="text_11">
      <!-- 0.8 -->
      <g style="fill: #262626" transform="translate(30.606563 109.3063)scale(0.11 -0.11)">
       <use xlink:href="#DejaVuSans-30"/>
       <use xlink:href="#DejaVuSans-2e" x="63.623047"/>
       <use xlink:href="#DejaVuSans-38" x="95.410156"/>
      </g>
     </g>
    </g>
    <g id="ytick_5">
     <g id="line2d_11">
      <path d="M 57.6 53.568 
L 414.72 53.568 
" clip-path="url(#paf677a923d)" style="fill: none; stroke: #ffffff; stroke-linecap: round"/>
     </g>
     <g id="text_12">
      <!-- 1.0 -->
      <g style="fill: #262626" transform="translate(30.606563 57.747141)scale(0.11 -0.11)">
       <use xlink:href="#DejaVuSans-31"/>
       <use xlink:href="#DejaVuSans-2e" x="63.623047"/>
       <use xlink:href="#DejaVuSans-30" x="95.410156"/>
      </g>
     </g>
    </g>
    <g id="text_13">
     <!-- Precision (Positive label: 1) -->
     <g style="fill: #262626" transform="translate(24.110937 255.1755)rotate(-90)scale(0.12 -0.12)">
      <defs>
       <path id="DejaVuSans-72" d="M 2631 2963 
Q 2534 3019 2420 3045 
Q 2306 3072 2169 3072 
Q 1681 3072 1420 2755 
Q 1159 2438 1159 1844 
L 1159 0 
L 581 0 
L 581 3500 
L 1159 3500 
L 1159 2956 
Q 1341 3275 1631 3429 
Q 1922 3584 2338 3584 
Q 2397 3584 2469 3576 
Q 2541 3569 2628 3553 
L 2631 2963 
z
" transform="scale(0.015625)"/>
       <path id="DejaVuSans-6e" d="M 3513 2113 
L 3513 0 
L 2938 0 
L 2938 2094 
Q 2938 2591 2744 2837 
Q 2550 3084 2163 3084 
Q 1697 3084 1428 2787 
Q 1159 2491 1159 1978 
L 1159 0 
L 581 0 
L 581 3500 
L 1159 3500 
L 1159 2956 
Q 1366 3272 1645 3428 
Q 1925 3584 2291 3584 
Q 2894 3584 3203 3211 
Q 3513 2838 3513 2113 
z
" transform="scale(0.015625)"/>
      </defs>
      <use xlink:href="#DejaVuSans-50"/>
      <use xlink:href="#DejaVuSans-72" x="58.552734"/>
      <use xlink:href="#DejaVuSans-65" x="97.416016"/>
      <use xlink:href="#DejaVuSans-63" x="158.939453"/>
      <use xlink:href="#DejaVuSans-69" x="213.919922"/>
      <use xlink:href="#DejaVuSans-73" x="241.703125"/>
      <use xlink:href="#DejaVuSans-69" x="293.802734"/>
      <use xlink:href="#DejaVuSans-6f" x="321.585938"/>
      <use xlink:href="#DejaVuSans-6e" x="382.767578"/>
      <use xlink:href="#DejaVuSans-20" x="446.146484"/>
      <use xlink:href="#DejaVuSans-28" x="477.933594"/>
      <use xlink:href="#DejaVuSans-50" x="516.947266"/>
      <use xlink:href="#DejaVuSans-6f" x="573.625"/>
      <use xlink:href="#DejaVuSans-73" x="634.806641"/>
      <use xlink:href="#DejaVuSans-69" x="686.90625"/>
      <use xlink:href="#DejaVuSans-74" x="714.689453"/>
      <use xlink:href="#DejaVuSans-69" x="753.898438"/>
      <use xlink:href="#DejaVuSans-76" x="781.681641"/>
      <use xlink:href="#DejaVuSans-65" x="840.861328"/>
      <use xlink:href="#DejaVuSans-20" x="902.384766"/>
      <use xlink:href="#DejaVuSans-6c" x="934.171875"/>
      <use xlink:href="#DejaVuSans-61" x="961.955078"/>
      <use xlink:href="#DejaVuSans-62" x="1023.234375"/>
      <use xlink:href="#DejaVuSans-65" x="1086.710938"/>
      <use xlink:href="#DejaVuSans-6c" x="1148.234375"/>
      <use xlink:href="#DejaVuSans-3a" x="1176.017578"/>
      <use xlink:href="#DejaVuSans-20" x="1209.708984"/>
      <use xlink:href="#DejaVuSans-31" x="1241.496094"/>
      <use xlink:href="#DejaVuSans-29" x="1305.119141"/>
     </g>
    </g>
   </g>
   <g id="line2d_12">
    <path d="M 398.487273 295.488 
L 398.487273 256.967639 
L 398.365634 256.967639 
L 398.365634 256.867386 
L 398.365634 213.162884 
L 398.243995 213.162884 
L 398.243995 213.07339 
L 398.243995 211.022087 
L 398.122356 211.022087 
L 398.122356 210.927789 
L 398.122356 209.528918 
L 398.000717 209.528918 
L 398.000717 209.55203 
L 398.000717 208.853232 
L 397.879078 208.853232 
L 397.879078 208.784557 
L 397.879078 189.271707 
L 397.757439 189.271707 
L 397.757439 189.165468 
L 397.757439 183.92548 
L 397.6358 183.92548 
L 397.6358 183.831291 
L 397.6358 182.562668 
L 397.514161 182.562668 
L 397.514161 182.465898 
L 397.514161 171.336318 
L 397.392522 171.336318 
L 397.392522 171.245934 
L 397.392522 165.617395 
L 397.270883 165.617395 
L 397.270883 165.54822 
L 397.270883 161.499558 
L 396.662687 161.429987 
L 396.662687 161.45362 
L 396.662687 158.266897 
L 396.419409 158.266897 
L 396.419409 158.210917 
L 396.419409 156.159607 
L 396.29777 156.159607 
L 396.29777 156.077121 
L 396.29777 153.785595 
L 396.176131 153.785595 
L 396.176131 153.699623 
L 396.176131 149.898691 
L 396.054492 149.898691 
L 396.054492 149.845096 
L 396.054492 148.535693 
L 395.932853 148.535693 
L 395.932853 148.441775 
L 395.932853 148.208139 
L 395.811214 148.208139 
L 395.811214 148.113683 
L 395.811214 147.525747 
L 395.567936 147.469592 
L 395.567936 147.452767 
L 395.567936 145.70056 
L 395.446297 145.70056 
L 395.446297 145.682686 
L 395.446297 145.03581 
L 395.324658 145.03581 
L 395.324658 144.93627 
L 395.324658 143.996002 
L 395.203019 143.996002 
L 395.203019 143.894779 
L 395.203019 143.274829 
L 395.08138 143.274829 
L 395.08138 143.172418 
L 395.08138 142.421191 
L 394.959741 142.421191 
L 394.959741 142.317372 
L 394.959741 142.191312 
L 394.716463 142.17128 
L 394.716463 142.109114 
L 394.716463 141.94045 
L 394.229907 141.879783 
L 394.229907 141.859521 
L 394.229907 141.307666 
L 393.986629 141.201768 
L 393.986629 141.223742 
L 393.986629 141.138373 
L 393.86499 141.138373 
L 393.86499 141.074883 
L 393.86499 140.989332 
L 393.500073 140.904755 
L 393.500073 140.583016 
L 393.378434 140.583016 
L 393.378434 140.475692 
L 393.378434 140.08672 
L 393.256795 140.08672 
L 393.256795 140.021918 
L 393.256795 139.368938 
L 393.135156 139.368938 
L 393.135156 139.347028 
L 393.135156 135.365366 
L 393.013517 135.365366 
L 393.013517 135.295038 
L 393.013517 133.722995 
L 392.891878 133.722995 
L 392.891878 133.650689 
L 392.891878 129.59004 
L 392.770239 129.59004 
L 392.770239 129.512686 
L 392.770239 127.684291 
L 392.6486 127.684291 
L 392.6486 127.604541 
L 392.6486 125.532448 
L 392.526961 125.532448 
L 392.526961 125.501114 
L 392.526961 124.627554 
L 392.283683 124.543876 
L 392.283683 124.356483 
L 392.162044 124.356483 
L 392.162044 124.272393 
L 392.162044 123.960574 
L 392.040405 123.960574 
L 392.040405 123.875944 
L 392.040405 122.139946 
L 391.918766 122.139946 
L 391.918766 122.052926 
L 391.918766 121.62667 
L 391.43221 121.523757 
L 391.43221 121.542921 
L 391.43221 121.382192 
L 391.188932 121.401338 
L 391.188932 121.313151 
L 391.188932 121.098101 
L 391.067292 121.098101 
L 391.067292 121.009482 
L 391.067292 120.414794 
L 390.945653 120.414794 
L 390.945653 120.32524 
L 390.945653 119.61668 
L 390.824014 119.61668 
L 390.824014 119.580797 
L 390.824014 119.141809 
L 390.702375 119.141809 
L 390.702375 119.105551 
L 390.702375 117.831217 
L 390.459097 117.793942 
L 390.459097 117.756624 
L 390.459097 117.36482 
L 390.337458 117.36482 
L 390.337458 117.271012 
L 390.337458 116.538161 
L 390.215819 116.538161 
L 390.215819 116.443195 
L 390.215819 116.21628 
L 389.972541 116.177695 
L 389.972541 116.082166 
L 389.850902 116.082166 
L 389.850902 115.986469 
L 389.850902 115.758224 
L 389.729263 115.758224 
L 389.729263 115.662047 
L 389.729263 115.604824 
L 389.485985 115.5084 
L 389.485985 115.526533 
L 389.485985 115.354393 
L 389.364346 115.354393 
L 389.364346 115.257551 
L 389.364346 115.084872 
L 389.242707 115.084872 
L 389.242707 114.987621 
L 389.242707 114.929914 
L 389.121068 114.929914 
L 389.121068 114.832413 
L 389.121068 114.658849 
L 388.999429 114.658849 
L 388.999429 114.560936 
L 388.999429 114.095956 
L 388.756151 114.055548 
L 388.756151 114.015092 
L 388.756151 113.664354 
L 388.512873 113.68216 
L 388.512873 113.582739 
L 388.512873 113.524068 
L 388.147956 113.442165 
L 388.147956 113.459952 
L 388.147956 113.40114 
L 387.904678 113.40114 
L 387.904678 113.318945 
L 387.904678 113.201026 
L 387.783039 113.201026 
L 387.783039 113.1007 
L 387.783039 112.92331 
L 387.6614 112.92331 
L 387.6614 112.822556 
L 387.6614 111.989349 
L 387.418122 111.947072 
L 387.418122 111.304325 
L 387.296483 111.304325 
L 387.296483 111.261457 
L 387.296483 110.778118 
L 387.053205 110.734802 
L 387.053205 110.691434 
L 387.053205 110.630752 
L 386.931566 110.630752 
L 386.931566 110.648013 
L 386.931566 110.283075 
L 386.809927 110.283075 
L 386.809927 110.239301 
L 386.809927 110.056183 
L 386.688288 110.056183 
L 386.688288 110.012205 
L 386.688288 109.706014 
L 386.323371 109.61739 
L 386.323371 108.646502 
L 386.201732 108.646502 
L 386.201732 108.539162 
L 386.201732 108.414806 
L 386.080093 108.414806 
L 386.080093 108.307089 
L 386.080093 108.244763 
L 385.715176 108.153526 
L 385.715176 108.170307 
L 385.715176 107.606576 
L 385.471898 107.497512 
L 385.471898 107.009579 
L 385.10698 106.979393 
L 385.10698 106.932608 
L 385.10698 105.657702 
L 384.742063 105.561782 
L 384.742063 105.449404 
L 384.620424 105.449404 
L 384.620424 105.401238 
L 384.620424 104.495624 
L 384.498785 104.495624 
L 384.498785 104.251351 
L 384.377146 104.251351 
L 384.377146 104.267299 
L 384.377146 104.006308 
L 384.255507 104.006308 
L 384.255507 103.956838 
L 384.255507 103.69496 
L 383.89059 103.595376 
L 383.89059 103.611193 
L 383.89059 102.621266 
L 383.768951 102.621266 
L 383.768951 102.570507 
L 383.768951 102.504118 
L 383.647312 102.504118 
L 383.647312 102.453235 
L 383.647312 101.986917 
L 383.404034 101.935558 
L 383.404034 101.884134 
L 383.404034 100.876051 
L 383.039117 100.771213 
L 383.039117 100.786382 
L 383.039117 100.718694 
L 382.917478 100.718694 
L 382.917478 99.986217 
L 382.430922 99.894588 
L 382.430922 99.772746 
L 382.309283 99.772746 
L 382.309283 99.719206 
L 382.309283 99.513459 
L 381.822727 99.489444 
L 381.822727 99.435564 
L 381.822727 99.366733 
L 381.701088 99.366733 
L 381.701088 99.31272 
L 381.701088 99.105774 
L 381.579449 99.105774 
L 381.579449 99.051503 
L 381.579449 98.843964 
L 381.45781 98.843964 
L 381.45781 98.789434 
L 381.45781 98.720101 
L 381.214532 98.734833 
L 381.214532 98.610701 
L 381.214532 98.402051 
L 381.092893 98.402051 
L 381.092893 98.347054 
L 381.092893 98.277349 
L 380.606337 98.181628 
L 380.606337 97.846227 
L 380.484698 97.846227 
L 380.484698 97.790611 
L 380.484698 97.720403 
L 380.363059 97.720403 
L 380.363059 97.664649 
L 380.363059 97.59433 
L 379.876503 97.496947 
L 379.876503 97.440899 
L 379.754864 97.440899 
L 379.754864 97.384777 
L 379.754864 97.101923 
L 379.389947 97.059848 
L 379.389947 97.003306 
L 379.389947 96.790224 
L 378.90339 96.690828 
L 378.90339 96.633854 
L 378.781751 96.633854 
L 378.781751 96.576803 
L 378.781751 96.505398 
L 378.538473 96.448206 
L 378.538473 96.390937 
L 378.416834 96.390937 
L 378.416834 96.333592 
L 378.416834 96.261939 
L 378.051917 96.218672 
L 378.051917 96.161097 
L 378.051917 96.089243 
L 377.930278 96.089243 
L 377.930278 96.031524 
L 377.930278 95.959555 
L 377.687 95.901691 
L 377.687 95.84375 
L 377.565361 95.84375 
L 377.565361 95.785731 
L 377.565361 95.496558 
L 377.443722 95.496558 
L 377.443722 95.43819 
L 377.443722 95.365707 
L 377.200444 95.307192 
L 377.200444 95.248598 
L 377.078805 95.248598 
L 377.078805 94.971567 
L 376.835527 94.912609 
L 376.835527 94.853571 
L 376.713888 94.853571 
L 376.713888 94.794453 
L 376.713888 94.721362 
L 376.592249 94.721362 
L 376.592249 94.662095 
L 376.592249 94.588885 
L 376.47061 94.588885 
L 376.47061 94.529469 
L 376.47061 94.456139 
L 375.984054 94.424225 
L 375.984054 94.364556 
L 375.984054 94.217388 
L 375.740776 94.231177 
L 375.740776 94.171275 
L 375.740776 94.023726 
L 375.619137 94.023726 
L 375.619137 93.963602 
L 375.619137 93.889682 
L 375.375859 93.829405 
L 375.375859 93.620771 
L 375.010942 93.573828 
L 375.010942 93.513151 
L 375.010942 93.364345 
L 374.889303 93.364345 
L 374.889303 93.303442 
L 374.889303 93.15429 
L 374.159469 93.147341 
L 374.159469 93.08608 
L 374.159469 93.011199 
L 374.03783 93.011199 
L 374.03783 92.949781 
L 374.03783 92.874777 
L 373.916191 92.874777 
L 373.916191 92.813202 
L 373.916191 92.361651 
L 373.794552 92.361651 
L 373.794552 92.299553 
L 373.794552 92.22404 
L 373.672913 92.22404 
L 373.672913 92.161782 
L 373.672913 91.858913 
L 373.307996 91.885384 
L 373.307996 91.82272 
L 373.307996 91.670736 
L 373.064717 91.607837 
L 373.064717 91.316031 
L 372.943078 91.316031 
L 372.943078 91.252733 
L 372.943078 91.176279 
L 372.6998 91.112817 
L 372.6998 90.972609 
L 372.456522 90.908895 
L 372.456522 90.921901 
L 372.456522 90.845092 
L 372.334883 90.845092 
L 372.334883 90.62727 
L 372.091605 90.563137 
L 372.091605 90.498914 
L 371.848327 90.434602 
L 371.848327 90.447496 
L 371.848327 90.292847 
L 371.48341 90.241123 
L 371.48341 90.176449 
L 370.510298 90.110985 
L 370.510298 90.045969 
L 370.26702 89.980862 
L 370.26702 89.915662 
L 369.658825 89.966983 
L 369.658825 89.82338 
L 369.658825 89.74507 
L 369.293908 89.692252 
L 369.293908 89.312027 
L 368.928991 89.337395 
L 368.928991 89.350093 
L 368.928991 88.876211 
L 368.442435 88.834685 
L 368.442435 88.767925 
L 368.442435 88.68854 
L 368.199157 88.621604 
L 368.199157 88.634119 
L 368.199157 88.474969 
L 367.955879 88.407761 
L 367.955879 88.260634 
L 367.590962 88.193152 
L 367.590962 88.057897 
L 366.617849 87.984063 
L 366.617849 87.835525 
L 365.523098 87.77301 
L 365.523098 87.704491 
L 365.158181 87.635873 
L 365.158181 87.173189 
L 365.036542 87.173189 
L 365.036542 87.103936 
L 365.036542 87.022416 
L 364.793264 86.952978 
L 364.793264 86.556088 
L 364.549986 86.568118 
L 364.549986 86.49812 
L 364.549986 86.169369 
L 364.06343 86.12274 
L 364.06343 86.13466 
L 364.06343 85.886974 
L 363.576874 85.839794 
L 363.576874 85.768797 
L 363.333596 85.697697 
L 363.333596 85.626491 
L 360.29262 85.732644 
L 360.29262 85.75655 
L 359.07623 85.864565 
L 359.07623 85.876611 
L 357.85984 85.888955 
L 357.85984 85.913165 
L 357.85984 85.744162 
L 352.994279 85.853808 
L 352.994279 85.89072 
L 352.994279 85.718734 
L 350.561499 85.743126 
L 350.561499 85.879199 
L 350.074943 85.91651 
L 350.074943 85.842127 
L 350.074943 85.668247 
L 347.033967 85.668247 
L 347.033967 85.980628 
L 346.66905 85.918057 
L 346.66905 85.842747 
L 346.304133 85.779892 
L 346.304133 85.616109 
L 345.939216 85.55284 
L 345.939216 85.476919 
L 345.331021 85.425856 
L 345.331021 85.450872 
L 345.331021 85.273338 
L 345.087743 85.196898 
L 345.087743 85.120339 
L 344.966104 85.120339 
L 344.966104 85.043658 
L 344.966104 84.954486 
L 344.722826 84.966857 
L 344.722826 84.889935 
L 344.722826 84.35263 
L 344.357909 84.287135 
L 344.357909 84.119305 
L 344.114631 84.041283 
L 344.114631 83.782446 
L 343.749714 83.715957 
L 343.749714 83.183153 
L 343.506436 83.103886 
L 343.506436 82.933229 
L 343.263157 82.853602 
L 343.263157 82.773849 
L 343.019879 82.773849 
L 343.019879 82.613958 
L 342.654962 82.53382 
L 342.654962 82.373157 
L 342.411684 82.292632 
L 342.411684 82.211977 
L 342.290045 82.211977 
L 342.290045 82.131192 
L 342.290045 81.761164 
L 341.925128 81.691178 
L 341.925128 81.702545 
L 341.925128 81.423717 
L 341.560211 81.353122 
L 341.560211 81.177773 
L 341.316933 81.095525 
L 341.316933 80.638132 
L 341.073655 80.555177 
L 341.073655 80.472086 
L 340.830377 80.38886 
L 340.830377 80.211111 
L 340.587099 80.221999 
L 340.587099 80.138364 
L 340.587099 79.949068 
L 340.46546 79.949068 
L 340.46546 79.865072 
L 340.46546 79.675241 
L 339.613987 79.644384 
L 339.613987 79.559757 
L 339.370709 79.474991 
L 339.370709 79.390085 
L 338.884153 79.326292 
L 338.884153 79.241052 
L 338.640875 79.155672 
L 338.640875 79.07015 
L 338.154319 79.005562 
L 338.154319 78.919703 
L 337.911041 78.930226 
L 337.911041 78.844198 
L 337.911041 78.554032 
L 337.667763 78.467511 
L 337.667763 78.380845 
L 337.424484 78.294035 
L 337.424484 78.207081 
L 336.451372 78.181669 
L 336.451372 77.604399 
L 336.329733 77.604399 
L 336.329733 77.516243 
L 336.329733 77.417905 
L 335.721538 77.359521 
L 335.721538 77.172088 
L 335.356621 77.093092 
L 335.356621 77.003981 
L 335.113343 77.013895 
L 335.113343 76.924605 
L 335.113343 76.825308 
L 334.748426 76.735744 
L 334.748426 76.55616 
L 334.26187 76.485619 
L 334.26187 76.395384 
L 334.018592 76.304996 
L 334.018592 76.114134 
L 333.775314 76.023313 
L 333.775314 75.932336 
L 333.04548 75.879376 
L 333.04548 75.888939 
L 333.04548 75.686901 
L 329.031392 75.687239 
L 329.031392 75.594145 
L 329.031392 75.491323 
L 328.788114 75.397936 
L 328.788114 75.304386 
L 327.693363 75.267602 
L 327.693363 75.079287 
L 327.450085 74.984881 
L 327.450085 74.89031 
L 327.206807 74.795571 
L 327.206807 74.700665 
L 326.963529 74.605592 
L 326.963529 74.510352 
L 326.84189 74.510352 
L 326.84189 74.414942 
L 326.84189 74.31019 
L 326.233695 74.241921 
L 326.233695 74.040692 
L 325.990417 73.944399 
L 325.990417 73.953452 
L 325.990417 73.847936 
L 325.747139 73.751301 
L 325.747139 73.654493 
L 325.6255 73.654493 
L 325.6255 73.557514 
L 325.6255 73.451492 
L 325.50386 73.451492 
L 325.50386 73.354201 
L 325.50386 73.247947 
L 325.017304 73.159098 
L 325.017304 72.963295 
L 324.044192 72.963295 
L 324.044192 72.065081 
L 323.800914 71.965351 
L 323.800914 71.973665 
L 323.800914 71.865441 
L 323.679275 71.865441 
L 323.679275 71.76535 
L 323.679275 71.548323 
L 323.192719 71.463988 
L 323.192719 71.254127 
L 322.949441 71.152979 
L 322.949441 70.942216 
L 322.706163 70.840553 
L 322.706163 70.738705 
L 322.341246 70.644469 
L 322.341246 70.652273 
L 322.341246 70.542209 
L 321.611412 70.470705 
L 321.611412 70.478458 
L 321.611412 70.36791 
L 321.368134 70.264926 
L 321.368134 70.161752 
L 320.881578 70.073581 
L 320.881578 69.858601 
L 320.759939 69.858601 
L 320.759939 69.754624 
L 320.759939 69.643027 
L 320.6383 69.643027 
L 320.6383 69.650455 
L 320.6383 69.202838 
L 320.395022 69.210079 
L 320.395022 69.105067 
L 320.395022 68.992702 
L 320.151744 68.887342 
L 320.151744 68.781785 
L 319.908466 68.676033 
L 319.908466 68.570083 
L 319.178631 68.484789 
L 319.178631 68.498723 
L 319.178631 68.15794 
L 318.692075 68.064483 
L 318.692075 67.842943 
L 318.570436 67.842943 
L 318.570436 67.735265 
L 318.570436 67.620778 
L 316.86749 67.539026 
L 316.86749 66.555811 
L 316.745851 66.555811 
L 316.745851 66.445525 
L 316.745851 66.328953 
L 316.624212 66.328953 
L 316.624212 66.218294 
L 316.624212 66.101447 
L 316.502573 66.101447 
L 316.502573 65.990412 
L 316.502573 65.873289 
L 316.380934 65.873289 
L 316.380934 65.879165 
L 316.380934 65.644476 
L 316.259295 65.644476 
L 316.259295 65.650252 
L 316.259295 65.532685 
L 316.137656 65.532685 
L 316.137656 65.538413 
L 316.137656 65.302835 
L 316.016017 65.302835 
L 316.016017 65.30846 
L 316.016017 65.072323 
L 315.772739 65.077846 
L 315.772739 64.965027 
L 315.772739 64.490499 
L 314.921266 64.402896 
L 314.921266 64.408133 
L 314.921266 64.288715 
L 313.948154 64.205205 
L 313.948154 64.210371 
L 313.948154 64.090277 
L 313.09668 64.000497 
L 313.09668 64.005586 
L 313.09668 63.521992 
L 312.975041 63.521992 
L 312.975041 63.52686 
L 312.975041 63.405609 
L 312.731763 63.410424 
L 312.731763 63.415244 
L 312.731763 63.172157 
L 311.515373 63.092475 
L 311.515373 63.097169 
L 311.515373 62.97475 
L 310.6639 63.002663 
L 310.6639 62.884383 
L 310.6639 62.761312 
L 310.542261 62.761312 
L 310.542261 62.765868 
L 310.542261 62.395747 
L 310.420622 62.395747 
L 310.420622 62.40013 
L 310.420622 62.276452 
L 308.474398 62.217133 
L 308.474398 62.221466 
L 308.474398 62.096583 
L 308.23112 62.10086 
L 308.23112 62.105141 
L 308.23112 61.729374 
L 308.109481 61.729374 
L 308.109481 61.733478 
L 308.109481 61.230444 
L 307.744564 61.238172 
L 307.744564 61.242042 
L 307.744564 61.115782 
L 307.622924 61.115782 
L 307.622924 61.119594 
L 307.622924 60.993144 
L 306.528173 61.023282 
L 306.528173 60.899927 
L 306.528173 60.645261 
L 302.149169 60.645261 
L 302.149169 60.777204 
L 301.176056 60.673136 
L 301.176056 60.284931 
L 301.054417 60.284931 
L 301.054417 60.288433 
L 301.054417 60.15746 
L 280.497423 60.178149 
L 280.497423 60.363763 
L 271.617774 60.38721 
L 271.617774 60.660468 
L 269.67155 60.573321 
L 269.67155 60.577553 
L 269.67155 60.425929 
L 267.846965 60.331404 
L 267.846965 60.182187 
L 266.387297 60.226932 
L 266.387297 60.076391 
L 266.387297 59.921562 
L 265.90074 59.933328 
L 265.90074 59.781867 
L 265.779101 59.781867 
L 265.779101 59.785709 
L 265.779101 59.63003 
L 265.657462 59.63003 
L 265.657462 59.477817 
L 264.805989 59.499868 
L 264.805989 59.346735 
L 264.562711 59.350336 
L 264.562711 59.353941 
L 264.562711 59.196729 
L 263.589599 59.214341 
L 263.589599 58.749825 
L 263.46796 58.749825 
L 263.46796 58.435133 
L 260.548624 58.345047 
L 260.548624 58.348101 
L 260.548624 58.186223 
L 259.575511 58.206999 
L 259.575511 58.209982 
L 259.575511 57.883963 
L 257.872565 57.920397 
L 257.872565 57.758439 
L 243.6408 57.802491 
L 243.6408 57.029569 
L 242.181132 57.05669 
L 242.181132 57.059176 
L 242.181132 56.877789 
L 241.208019 56.894397 
L 241.208019 56.714108 
L 239.86999 56.736856 
L 239.86999 56.554772 
L 237.558849 56.594216 
L 237.558849 56.596438 
L 237.558849 56.409247 
L 235.612624 56.44091 
L 235.612624 56.443046 
L 235.612624 56.253373 
L 231.720176 56.316775 
L 231.720176 56.124327 
L 230.017229 56.14993 
L 230.017229 55.954998 
L 216.028742 55.969824 
L 216.028742 56.187432 
L 202.526811 56.218237 
L 202.526811 55.981818 
L 201.796977 55.993172 
L 201.796977 55.995456 
L 201.796977 55.754769 
L 195.471748 55.86519 
L 195.471748 55.867467 
L 194.498636 55.883531 
L 194.498636 55.885844 
L 194.498636 55.630366 
L 194.012079 55.636572 
L 194.012079 55.638649 
L 194.012079 55.381639 
L 186.835377 55.455626 
L 186.835377 55.49596 
L 185.618987 55.514678 
L 185.618987 55.51678 
L 185.618987 55.240189 
L 178.563924 55.349999 
L 178.563924 55.352054 
L 173.333446 55.442879 
L 173.333446 55.445154 
L 173.333446 55.134196 
L 169.927553 55.18732 
L 169.927553 55.189357 
L 169.927553 54.866719 
L 163.237407 54.961491 
L 163.237407 54.963376 
L 163.237407 54.61595 
L 154.479398 54.72231 
L 154.479398 54.729242 
L 153.871203 54.736259 
L 153.871203 54.349199 
L 148.154169 54.404999 
L 148.154169 53.989235 
L 127.475535 53.992705 
L 127.475535 54.151248 
L 117.257858 54.206108 
L 117.257858 54.2881 
L 112.149019 54.381236 
L 112.149019 54.383809 
L 112.149019 53.568 
L 73.832727 53.568 
L 73.832727 53.568 
" clip-path="url(#paf677a923d)" style="fill: none; stroke: #4c72b0; stroke-width: 1.5; stroke-linecap: round"/>
   </g>
   <g id="patch_3">
    <path d="M 57.6 307.584 
L 57.6 41.472 
" style="fill: none; stroke: #ffffff; stroke-width: 1.25; stroke-linejoin: miter; stroke-linecap: square"/>
   </g>
   <g id="patch_4">
    <path d="M 414.72 307.584 
L 414.72 41.472 
" style="fill: none; stroke: #ffffff; stroke-width: 1.25; stroke-linejoin: miter; stroke-linecap: square"/>
   </g>
   <g id="patch_5">
    <path d="M 57.6 307.584 
L 414.72 307.584 
" style="fill: none; stroke: #ffffff; stroke-width: 1.25; stroke-linejoin: miter; stroke-linecap: square"/>
   </g>
   <g id="patch_6">
    <path d="M 57.6 41.472 
L 414.72 41.472 
" style="fill: none; stroke: #ffffff; stroke-width: 1.25; stroke-linejoin: miter; stroke-linecap: square"/>
   </g>
   <g id="text_14">
    <!-- Precision-recall curve -->
    <g style="fill: #262626" transform="translate(172.175625 35.472)scale(0.12 -0.12)">
     <defs>
      <path id="DejaVuSans-2d" d="M 313 2009 
L 1997 2009 
L 1997 1497 
L 313 1497 
L 313 2009 
z
" transform="scale(0.015625)"/>
      <path id="DejaVuSans-75" d="M 544 1381 
L 544 3500 
L 1119 3500 
L 1119 1403 
Q 1119 906 1312 657 
Q 1506 409 1894 409 
Q 2359 409 2629 706 
Q 2900 1003 2900 1516 
L 2900 3500 
L 3475 3500 
L 3475 0 
L 2900 0 
L 2900 538 
Q 2691 219 2414 64 
Q 2138 -91 1772 -91 
Q 1169 -91 856 284 
Q 544 659 544 1381 
z
M 1991 3584 
L 1991 3584 
z
" transform="scale(0.015625)"/>
     </defs>
     <use xlink:href="#DejaVuSans-50"/>
     <use xlink:href="#DejaVuSans-72" x="58.552734"/>
     <use xlink:href="#DejaVuSans-65" x="97.416016"/>
     <use xlink:href="#DejaVuSans-63" x="158.939453"/>
     <use xlink:href="#DejaVuSans-69" x="213.919922"/>
     <use xlink:href="#DejaVuSans-73" x="241.703125"/>
     <use xlink:href="#DejaVuSans-69" x="293.802734"/>
     <use xlink:href="#DejaVuSans-6f" x="321.585938"/>
     <use xlink:href="#DejaVuSans-6e" x="382.767578"/>
     <use xlink:href="#DejaVuSans-2d" x="446.146484"/>
     <use xlink:href="#DejaVuSans-72" x="482.230469"/>
     <use xlink:href="#DejaVuSans-65" x="521.09375"/>
     <use xlink:href="#DejaVuSans-63" x="582.617188"/>
     <use xlink:href="#DejaVuSans-61" x="637.597656"/>
     <use xlink:href="#DejaVuSans-6c" x="698.876953"/>
     <use xlink:href="#DejaVuSans-6c" x="726.660156"/>
     <use xlink:href="#DejaVuSans-20" x="754.443359"/>
     <use xlink:href="#DejaVuSans-63" x="786.230469"/>
     <use xlink:href="#DejaVuSans-75" x="841.210938"/>
     <use xlink:href="#DejaVuSans-72" x="904.589844"/>
     <use xlink:href="#DejaVuSans-76" x="945.703125"/>
     <use xlink:href="#DejaVuSans-65" x="1004.882812"/>
    </g>
   </g>
   <g id="legend_1">
    <g id="patch_7">
     <path d="M 65.3 302.084 
L 250.215156 302.084 
Q 252.415156 302.084 252.415156 299.884 
L 252.415156 284.838062 
Q 252.415156 282.638062 250.215156 282.638062 
L 65.3 282.638062 
Q 63.1 282.638062 63.1 284.838062 
L 63.1 299.884 
Q 63.1 302.084 65.3 302.084 
z
" style="fill: #eaeaf2; opacity: 0.8; stroke: #cccccc; stroke-linejoin: miter"/>
    </g>
    <g id="line2d_13">
     <path d="M 67.5 291.546344 
L 78.5 291.546344 
L 78.5 291.546344 
L 89.5 291.546344 
L 89.5 291.546344 
" style="fill: none; stroke: #4c72b0; stroke-width: 1.5; stroke-linecap: round"/>
    </g>
    <g id="text_15">
     <!-- Random Forest (AP = 0.95) -->
     <g style="fill: #262626" transform="translate(98.3 295.396344)scale(0.11 -0.11)">
      <defs>
       <path id="DejaVuSans-64" d="M 2906 2969 
L 2906 4863 
L 3481 4863 
L 3481 0 
L 2906 0 
L 2906 525 
Q 2725 213 2448 61 
Q 2172 -91 1784 -91 
Q 1150 -91 751 415 
Q 353 922 353 1747 
Q 353 2572 751 3078 
Q 1150 3584 1784 3584 
Q 2172 3584 2448 3432 
Q 2725 3281 2906 2969 
z
M 947 1747 
Q 947 1113 1208 752 
Q 1469 391 1925 391 
Q 2381 391 2643 752 
Q 2906 1113 2906 1747 
Q 2906 2381 2643 2742 
Q 2381 3103 1925 3103 
Q 1469 3103 1208 2742 
Q 947 2381 947 1747 
z
" transform="scale(0.015625)"/>
       <path id="DejaVuSans-6d" d="M 3328 2828 
Q 3544 3216 3844 3400 
Q 4144 3584 4550 3584 
Q 5097 3584 5394 3201 
Q 5691 2819 5691 2113 
L 5691 0 
L 5113 0 
L 5113 2094 
Q 5113 2597 4934 2840 
Q 4756 3084 4391 3084 
Q 3944 3084 3684 2787 
Q 3425 2491 3425 1978 
L 3425 0 
L 2847 0 
L 2847 2094 
Q 2847 2600 2669 2842 
Q 2491 3084 2119 3084 
Q 1678 3084 1418 2786 
Q 1159 2488 1159 1978 
L 1159 0 
L 581 0 
L 581 3500 
L 1159 3500 
L 1159 2956 
Q 1356 3278 1631 3431 
Q 1906 3584 2284 3584 
Q 2666 3584 2933 3390 
Q 3200 3197 3328 2828 
z
" transform="scale(0.015625)"/>
       <path id="DejaVuSans-46" d="M 628 4666 
L 3309 4666 
L 3309 4134 
L 1259 4134 
L 1259 2759 
L 3109 2759 
L 3109 2228 
L 1259 2228 
L 1259 0 
L 628 0 
L 628 4666 
z
" transform="scale(0.015625)"/>
       <path id="DejaVuSans-41" d="M 2188 4044 
L 1331 1722 
L 3047 1722 
L 2188 4044 
z
M 1831 4666 
L 2547 4666 
L 4325 0 
L 3669 0 
L 3244 1197 
L 1141 1197 
L 716 0 
L 50 0 
L 1831 4666 
z
" transform="scale(0.015625)"/>
       <path id="DejaVuSans-3d" d="M 678 2906 
L 4684 2906 
L 4684 2381 
L 678 2381 
L 678 2906 
z
M 678 1631 
L 4684 1631 
L 4684 1100 
L 678 1100 
L 678 1631 
z
" transform="scale(0.015625)"/>
       <path id="DejaVuSans-39" d="M 703 97 
L 703 672 
Q 941 559 1184 500 
Q 1428 441 1663 441 
Q 2288 441 2617 861 
Q 2947 1281 2994 2138 
Q 2813 1869 2534 1725 
Q 2256 1581 1919 1581 
Q 1219 1581 811 2004 
Q 403 2428 403 3163 
Q 403 3881 828 4315 
Q 1253 4750 1959 4750 
Q 2769 4750 3195 4129 
Q 3622 3509 3622 2328 
Q 3622 1225 3098 567 
Q 2575 -91 1691 -91 
Q 1453 -91 1209 -44 
Q 966 3 703 97 
z
M 1959 2075 
Q 2384 2075 2632 2365 
Q 2881 2656 2881 3163 
Q 2881 3666 2632 3958 
Q 2384 4250 1959 4250 
Q 1534 4250 1286 3958 
Q 1038 3666 1038 3163 
Q 1038 2656 1286 2365 
Q 1534 2075 1959 2075 
z
" transform="scale(0.015625)"/>
       <path id="DejaVuSans-35" d="M 691 4666 
L 3169 4666 
L 3169 4134 
L 1269 4134 
L 1269 2991 
Q 1406 3038 1543 3061 
Q 1681 3084 1819 3084 
Q 2600 3084 3056 2656 
Q 3513 2228 3513 1497 
Q 3513 744 3044 326 
Q 2575 -91 1722 -91 
Q 1428 -91 1123 -41 
Q 819 9 494 109 
L 494 744 
Q 775 591 1075 516 
Q 1375 441 1709 441 
Q 2250 441 2565 725 
Q 2881 1009 2881 1497 
Q 2881 1984 2565 2268 
Q 2250 2553 1709 2553 
Q 1456 2553 1204 2497 
Q 953 2441 691 2322 
L 691 4666 
z
" transform="scale(0.015625)"/>
      </defs>
      <use xlink:href="#DejaVuSans-52"/>
      <use xlink:href="#DejaVuSans-61" x="67.232422"/>
      <use xlink:href="#DejaVuSans-6e" x="128.511719"/>
      <use xlink:href="#DejaVuSans-64" x="191.890625"/>
      <use xlink:href="#DejaVuSans-6f" x="255.367188"/>
      <use xlink:href="#DejaVuSans-6d" x="316.548828"/>
      <use xlink:href="#DejaVuSans-20" x="413.960938"/>
      <use xlink:href="#DejaVuSans-46" x="445.748047"/>
      <use xlink:href="#DejaVuSans-6f" x="499.642578"/>
      <use xlink:href="#DejaVuSans-72" x="560.824219"/>
      <use xlink:href="#DejaVuSans-65" x="599.6875"/>
      <use xlink:href="#DejaVuSans-73" x="661.210938"/>
      <use xlink:href="#DejaVuSans-74" x="713.310547"/>
      <use xlink:href="#DejaVuSans-20" x="752.519531"/>
      <use xlink:href="#DejaVuSans-28" x="784.306641"/>
      <use xlink:href="#DejaVuSans-41" x="823.320312"/>
      <use xlink:href="#DejaVuSans-50" x="891.728516"/>
      <use xlink:href="#DejaVuSans-20" x="952.03125"/>
      <use xlink:href="#DejaVuSans-3d" x="983.818359"/>
      <use xlink:href="#DejaVuSans-20" x="1067.607422"/>
      <use xlink:href="#DejaVuSans-30" x="1099.394531"/>
      <use xlink:href="#DejaVuSans-2e" x="1163.017578"/>
      <use xlink:href="#DejaVuSans-39" x="1194.804688"/>
      <use xlink:href="#DejaVuSans-35" x="1258.427734"/>
      <use xlink:href="#DejaVuSans-29" x="1322.050781"/>
     </g>
    </g>
   </g>
  </g>
 </g>
 <defs>
  <clipPath id="paf677a923d">
   <rect x="57.6" y="41.472" width="357.12" height="266.112"/>
  </clipPath>
 </defs>
</svg>
