<?xml version="1.0" encoding="utf-8" standalone="no"?>
<!DOCTYPE svg PUBLIC "-//W3C//DTD SVG 1.1//EN"
  "http://www.w3.org/Graphics/SVG/1.1/DTD/svg11.dtd">
<svg xmlns:xlink="http://www.w3.org/1999/xlink" width="460.8pt" height="345.6pt" viewBox="0 0 460.8 345.6" xmlns="http://www.w3.org/2000/svg" version="1.1">
 <metadata>
  <rdf:RDF xmlns:dc="http://purl.org/dc/elements/1.1/" xmlns:cc="http://creativecommons.org/ns#" xmlns:rdf="http://www.w3.org/1999/02/22-rdf-syntax-ns#">
   <cc:Work>
    <dc:type rdf:resource="http://purl.org/dc/dcmitype/StillImage"/>
    <dc:date>2022-11-18T07:58:57.309491</dc:date>
    <dc:format>image/svg+xml</dc:format>
    <dc:creator>
     <cc:Agent>
      <dc:title>Matplotlib v3.5.2, https://matplotlib.org/</dc:title>
     </cc:Agent>
    </dc:creator>
   </cc:Work>
  </rdf:RDF>
 </metadata>
 <defs>
  <style type="text/css">*{stroke-linejoin: round; stroke-linecap: butt}</style>
 </defs>
 <g id="figure_1">
  <g id="patch_1">
   <path d="M 0 345.6 
L 460.8 345.6 
L 460.8 0 
L 0 0 
z
" style="fill: #ffffff"/>
  </g>
  <g id="axes_1">
   <g id="patch_2">
    <path d="M 57.6 307.584 
L 414.72 307.584 
L 414.72 41.472 
L 57.6 41.472 
z
" style="fill: #eaeaf2"/>
   </g>
   <g id="matplotlib.axis_1">
    <g id="xtick_1">
     <g id="line2d_1">
      <path d="M 73.832727 307.584 
L 73.832727 41.472 
" clip-path="url(#p94ceea10a7)" style="fill: none; stroke: #ffffff; stroke-linecap: round"/>
     </g>
     <g id="text_1">
      <!-- 0.0 -->
      <g style="fill: #262626" transform="translate(65.086009 325.442281)scale(0.11 -0.11)">
       <defs>
        <path id="DejaVuSans-30" d="M 2034 4250 
Q 1547 4250 1301 3770 
Q 1056 3291 1056 2328 
Q 1056 1369 1301 889 
Q 1547 409 2034 409 
Q 2525 409 2770 889 
Q 3016 1369 3016 2328 
Q 3016 3291 2770 3770 
Q 2525 4250 2034 4250 
z
M 2034 4750 
Q 2819 4750 3233 4129 
Q 3647 3509 3647 2328 
Q 3647 1150 3233 529 
Q 2819 -91 2034 -91 
Q 1250 -91 836 529 
Q 422 1150 422 2328 
Q 422 3509 836 4129 
Q 1250 4750 2034 4750 
z
" transform="scale(0.015625)"/>
        <path id="DejaVuSans-2e" d="M 684 794 
L 1344 794 
L 1344 0 
L 684 0 
L 684 794 
z
" transform="scale(0.015625)"/>
       </defs>
       <use xlink:href="#DejaVuSans-30"/>
       <use xlink:href="#DejaVuSans-2e" x="63.623047"/>
       <use xlink:href="#DejaVuSans-30" x="95.410156"/>
      </g>
     </g>
    </g>
    <g id="xtick_2">
     <g id="line2d_2">
      <path d="M 138.763636 307.584 
L 138.763636 41.472 
" clip-path="url(#p94ceea10a7)" style="fill: none; stroke: #ffffff; stroke-linecap: round"/>
     </g>
     <g id="text_2">
      <!-- 0.2 -->
      <g style="fill: #262626" transform="translate(130.016918 325.442281)scale(0.11 -0.11)">
       <defs>
        <path id="DejaVuSans-32" d="M 1228 531 
L 3431 531 
L 3431 0 
L 469 0 
L 469 531 
Q 828 903 1448 1529 
Q 2069 2156 2228 2338 
Q 2531 2678 2651 2914 
Q 2772 3150 2772 3378 
Q 2772 3750 2511 3984 
Q 2250 4219 1831 4219 
Q 1534 4219 1204 4116 
Q 875 4013 500 3803 
L 500 4441 
Q 881 4594 1212 4672 
Q 1544 4750 1819 4750 
Q 2544 4750 2975 4387 
Q 3406 4025 3406 3419 
Q 3406 3131 3298 2873 
Q 3191 2616 2906 2266 
Q 2828 2175 2409 1742 
Q 1991 1309 1228 531 
z
" transform="scale(0.015625)"/>
       </defs>
       <use xlink:href="#DejaVuSans-30"/>
       <use xlink:href="#DejaVuSans-2e" x="63.623047"/>
       <use xlink:href="#DejaVuSans-32" x="95.410156"/>
      </g>
     </g>
    </g>
    <g id="xtick_3">
     <g id="line2d_3">
      <path d="M 203.694545 307.584 
L 203.694545 41.472 
" clip-path="url(#p94ceea10a7)" style="fill: none; stroke: #ffffff; stroke-linecap: round"/>
     </g>
     <g id="text_3">
      <!-- 0.4 -->
      <g style="fill: #262626" transform="translate(194.947827 325.442281)scale(0.11 -0.11)">
       <defs>
        <path id="DejaVuSans-34" d="M 2419 4116 
L 825 1625 
L 2419 1625 
L 2419 4116 
z
M 2253 4666 
L 3047 4666 
L 3047 1625 
L 3713 1625 
L 3713 1100 
L 3047 1100 
L 3047 0 
L 2419 0 
L 2419 1100 
L 313 1100 
L 313 1709 
L 2253 4666 
z
" transform="scale(0.015625)"/>
       </defs>
       <use xlink:href="#DejaVuSans-30"/>
       <use xlink:href="#DejaVuSans-2e" x="63.623047"/>
       <use xlink:href="#DejaVuSans-34" x="95.410156"/>
      </g>
     </g>
    </g>
    <g id="xtick_4">
     <g id="line2d_4">
      <path d="M 268.625455 307.584 
L 268.625455 41.472 
" clip-path="url(#p94ceea10a7)" style="fill: none; stroke: #ffffff; stroke-linecap: round"/>
     </g>
     <g id="text_4">
      <!-- 0.6 -->
      <g style="fill: #262626" transform="translate(259.878736 325.442281)scale(0.11 -0.11)">
       <defs>
        <path id="DejaVuSans-36" d="M 2113 2584 
Q 1688 2584 1439 2293 
Q 1191 2003 1191 1497 
Q 1191 994 1439 701 
Q 1688 409 2113 409 
Q 2538 409 2786 701 
Q 3034 994 3034 1497 
Q 3034 2003 2786 2293 
Q 2538 2584 2113 2584 
z
M 3366 4563 
L 3366 3988 
Q 3128 4100 2886 4159 
Q 2644 4219 2406 4219 
Q 1781 4219 1451 3797 
Q 1122 3375 1075 2522 
Q 1259 2794 1537 2939 
Q 1816 3084 2150 3084 
Q 2853 3084 3261 2657 
Q 3669 2231 3669 1497 
Q 3669 778 3244 343 
Q 2819 -91 2113 -91 
Q 1303 -91 875 529 
Q 447 1150 447 2328 
Q 447 3434 972 4092 
Q 1497 4750 2381 4750 
Q 2619 4750 2861 4703 
Q 3103 4656 3366 4563 
z
" transform="scale(0.015625)"/>
       </defs>
       <use xlink:href="#DejaVuSans-30"/>
       <use xlink:href="#DejaVuSans-2e" x="63.623047"/>
       <use xlink:href="#DejaVuSans-36" x="95.410156"/>
      </g>
     </g>
    </g>
    <g id="xtick_5">
     <g id="line2d_5">
      <path d="M 333.556364 307.584 
L 333.556364 41.472 
" clip-path="url(#p94ceea10a7)" style="fill: none; stroke: #ffffff; stroke-linecap: round"/>
     </g>
     <g id="text_5">
      <!-- 0.8 -->
      <g style="fill: #262626" transform="translate(324.809645 325.442281)scale(0.11 -0.11)">
       <defs>
        <path id="DejaVuSans-38" d="M 2034 2216 
Q 1584 2216 1326 1975 
Q 1069 1734 1069 1313 
Q 1069 891 1326 650 
Q 1584 409 2034 409 
Q 2484 409 2743 651 
Q 3003 894 3003 1313 
Q 3003 1734 2745 1975 
Q 2488 2216 2034 2216 
z
M 1403 2484 
Q 997 2584 770 2862 
Q 544 3141 544 3541 
Q 544 4100 942 4425 
Q 1341 4750 2034 4750 
Q 2731 4750 3128 4425 
Q 3525 4100 3525 3541 
Q 3525 3141 3298 2862 
Q 3072 2584 2669 2484 
Q 3125 2378 3379 2068 
Q 3634 1759 3634 1313 
Q 3634 634 3220 271 
Q 2806 -91 2034 -91 
Q 1263 -91 848 271 
Q 434 634 434 1313 
Q 434 1759 690 2068 
Q 947 2378 1403 2484 
z
M 1172 3481 
Q 1172 3119 1398 2916 
Q 1625 2713 2034 2713 
Q 2441 2713 2670 2916 
Q 2900 3119 2900 3481 
Q 2900 3844 2670 4047 
Q 2441 4250 2034 4250 
Q 1625 4250 1398 4047 
Q 1172 3844 1172 3481 
z
" transform="scale(0.015625)"/>
       </defs>
       <use xlink:href="#DejaVuSans-30"/>
       <use xlink:href="#DejaVuSans-2e" x="63.623047"/>
       <use xlink:href="#DejaVuSans-38" x="95.410156"/>
      </g>
     </g>
    </g>
    <g id="xtick_6">
     <g id="line2d_6">
      <path d="M 398.487273 307.584 
L 398.487273 41.472 
" clip-path="url(#p94ceea10a7)" style="fill: none; stroke: #ffffff; stroke-linecap: round"/>
     </g>
     <g id="text_6">
      <!-- 1.0 -->
      <g style="fill: #262626" transform="translate(389.740554 325.442281)scale(0.11 -0.11)">
       <defs>
        <path id="DejaVuSans-31" d="M 794 531 
L 1825 531 
L 1825 4091 
L 703 3866 
L 703 4441 
L 1819 4666 
L 2450 4666 
L 2450 531 
L 3481 531 
L 3481 0 
L 794 0 
L 794 531 
z
" transform="scale(0.015625)"/>
       </defs>
       <use xlink:href="#DejaVuSans-31"/>
       <use xlink:href="#DejaVuSans-2e" x="63.623047"/>
       <use xlink:href="#DejaVuSans-30" x="95.410156"/>
      </g>
     </g>
    </g>
    <g id="text_7">
     <!-- Recall (Positive label: 1) -->
     <g style="fill: #262626" transform="translate(164.380313 340.848062)scale(0.12 -0.12)">
      <defs>
       <path id="DejaVuSans-52" d="M 2841 2188 
Q 3044 2119 3236 1894 
Q 3428 1669 3622 1275 
L 4263 0 
L 3584 0 
L 2988 1197 
Q 2756 1666 2539 1819 
Q 2322 1972 1947 1972 
L 1259 1972 
L 1259 0 
L 628 0 
L 628 4666 
L 2053 4666 
Q 2853 4666 3247 4331 
Q 3641 3997 3641 3322 
Q 3641 2881 3436 2590 
Q 3231 2300 2841 2188 
z
M 1259 4147 
L 1259 2491 
L 2053 2491 
Q 2509 2491 2742 2702 
Q 2975 2913 2975 3322 
Q 2975 3731 2742 3939 
Q 2509 4147 2053 4147 
L 1259 4147 
z
" transform="scale(0.015625)"/>
       <path id="DejaVuSans-65" d="M 3597 1894 
L 3597 1613 
L 953 1613 
Q 991 1019 1311 708 
Q 1631 397 2203 397 
Q 2534 397 2845 478 
Q 3156 559 3463 722 
L 3463 178 
Q 3153 47 2828 -22 
Q 2503 -91 2169 -91 
Q 1331 -91 842 396 
Q 353 884 353 1716 
Q 353 2575 817 3079 
Q 1281 3584 2069 3584 
Q 2775 3584 3186 3129 
Q 3597 2675 3597 1894 
z
M 3022 2063 
Q 3016 2534 2758 2815 
Q 2500 3097 2075 3097 
Q 1594 3097 1305 2825 
Q 1016 2553 972 2059 
L 3022 2063 
z
" transform="scale(0.015625)"/>
       <path id="DejaVuSans-63" d="M 3122 3366 
L 3122 2828 
Q 2878 2963 2633 3030 
Q 2388 3097 2138 3097 
Q 1578 3097 1268 2742 
Q 959 2388 959 1747 
Q 959 1106 1268 751 
Q 1578 397 2138 397 
Q 2388 397 2633 464 
Q 2878 531 3122 666 
L 3122 134 
Q 2881 22 2623 -34 
Q 2366 -91 2075 -91 
Q 1284 -91 818 406 
Q 353 903 353 1747 
Q 353 2603 823 3093 
Q 1294 3584 2113 3584 
Q 2378 3584 2631 3529 
Q 2884 3475 3122 3366 
z
" transform="scale(0.015625)"/>
       <path id="DejaVuSans-61" d="M 2194 1759 
Q 1497 1759 1228 1600 
Q 959 1441 959 1056 
Q 959 750 1161 570 
Q 1363 391 1709 391 
Q 2188 391 2477 730 
Q 2766 1069 2766 1631 
L 2766 1759 
L 2194 1759 
z
M 3341 1997 
L 3341 0 
L 2766 0 
L 2766 531 
Q 2569 213 2275 61 
Q 1981 -91 1556 -91 
Q 1019 -91 701 211 
Q 384 513 384 1019 
Q 384 1609 779 1909 
Q 1175 2209 1959 2209 
L 2766 2209 
L 2766 2266 
Q 2766 2663 2505 2880 
Q 2244 3097 1772 3097 
Q 1472 3097 1187 3025 
Q 903 2953 641 2809 
L 641 3341 
Q 956 3463 1253 3523 
Q 1550 3584 1831 3584 
Q 2591 3584 2966 3190 
Q 3341 2797 3341 1997 
z
" transform="scale(0.015625)"/>
       <path id="DejaVuSans-6c" d="M 603 4863 
L 1178 4863 
L 1178 0 
L 603 0 
L 603 4863 
z
" transform="scale(0.015625)"/>
       <path id="DejaVuSans-20" transform="scale(0.015625)"/>
       <path id="DejaVuSans-28" d="M 1984 4856 
Q 1566 4138 1362 3434 
Q 1159 2731 1159 2009 
Q 1159 1288 1364 580 
Q 1569 -128 1984 -844 
L 1484 -844 
Q 1016 -109 783 600 
Q 550 1309 550 2009 
Q 550 2706 781 3412 
Q 1013 4119 1484 4856 
L 1984 4856 
z
" transform="scale(0.015625)"/>
       <path id="DejaVuSans-50" d="M 1259 4147 
L 1259 2394 
L 2053 2394 
Q 2494 2394 2734 2622 
Q 2975 2850 2975 3272 
Q 2975 3691 2734 3919 
Q 2494 4147 2053 4147 
L 1259 4147 
z
M 628 4666 
L 2053 4666 
Q 2838 4666 3239 4311 
Q 3641 3956 3641 3272 
Q 3641 2581 3239 2228 
Q 2838 1875 2053 1875 
L 1259 1875 
L 1259 0 
L 628 0 
L 628 4666 
z
" transform="scale(0.015625)"/>
       <path id="DejaVuSans-6f" d="M 1959 3097 
Q 1497 3097 1228 2736 
Q 959 2375 959 1747 
Q 959 1119 1226 758 
Q 1494 397 1959 397 
Q 2419 397 2687 759 
Q 2956 1122 2956 1747 
Q 2956 2369 2687 2733 
Q 2419 3097 1959 3097 
z
M 1959 3584 
Q 2709 3584 3137 3096 
Q 3566 2609 3566 1747 
Q 3566 888 3137 398 
Q 2709 -91 1959 -91 
Q 1206 -91 779 398 
Q 353 888 353 1747 
Q 353 2609 779 3096 
Q 1206 3584 1959 3584 
z
" transform="scale(0.015625)"/>
       <path id="DejaVuSans-73" d="M 2834 3397 
L 2834 2853 
Q 2591 2978 2328 3040 
Q 2066 3103 1784 3103 
Q 1356 3103 1142 2972 
Q 928 2841 928 2578 
Q 928 2378 1081 2264 
Q 1234 2150 1697 2047 
L 1894 2003 
Q 2506 1872 2764 1633 
Q 3022 1394 3022 966 
Q 3022 478 2636 193 
Q 2250 -91 1575 -91 
Q 1294 -91 989 -36 
Q 684 19 347 128 
L 347 722 
Q 666 556 975 473 
Q 1284 391 1588 391 
Q 1994 391 2212 530 
Q 2431 669 2431 922 
Q 2431 1156 2273 1281 
Q 2116 1406 1581 1522 
L 1381 1569 
Q 847 1681 609 1914 
Q 372 2147 372 2553 
Q 372 3047 722 3315 
Q 1072 3584 1716 3584 
Q 2034 3584 2315 3537 
Q 2597 3491 2834 3397 
z
" transform="scale(0.015625)"/>
       <path id="DejaVuSans-69" d="M 603 3500 
L 1178 3500 
L 1178 0 
L 603 0 
L 603 3500 
z
M 603 4863 
L 1178 4863 
L 1178 4134 
L 603 4134 
L 603 4863 
z
" transform="scale(0.015625)"/>
       <path id="DejaVuSans-74" d="M 1172 4494 
L 1172 3500 
L 2356 3500 
L 2356 3053 
L 1172 3053 
L 1172 1153 
Q 1172 725 1289 603 
Q 1406 481 1766 481 
L 2356 481 
L 2356 0 
L 1766 0 
Q 1100 0 847 248 
Q 594 497 594 1153 
L 594 3053 
L 172 3053 
L 172 3500 
L 594 3500 
L 594 4494 
L 1172 4494 
z
" transform="scale(0.015625)"/>
       <path id="DejaVuSans-76" d="M 191 3500 
L 800 3500 
L 1894 563 
L 2988 3500 
L 3597 3500 
L 2284 0 
L 1503 0 
L 191 3500 
z
" transform="scale(0.015625)"/>
       <path id="DejaVuSans-62" d="M 3116 1747 
Q 3116 2381 2855 2742 
Q 2594 3103 2138 3103 
Q 1681 3103 1420 2742 
Q 1159 2381 1159 1747 
Q 1159 1113 1420 752 
Q 1681 391 2138 391 
Q 2594 391 2855 752 
Q 3116 1113 3116 1747 
z
M 1159 2969 
Q 1341 3281 1617 3432 
Q 1894 3584 2278 3584 
Q 2916 3584 3314 3078 
Q 3713 2572 3713 1747 
Q 3713 922 3314 415 
Q 2916 -91 2278 -91 
Q 1894 -91 1617 61 
Q 1341 213 1159 525 
L 1159 0 
L 581 0 
L 581 4863 
L 1159 4863 
L 1159 2969 
z
" transform="scale(0.015625)"/>
       <path id="DejaVuSans-3a" d="M 750 794 
L 1409 794 
L 1409 0 
L 750 0 
L 750 794 
z
M 750 3309 
L 1409 3309 
L 1409 2516 
L 750 2516 
L 750 3309 
z
" transform="scale(0.015625)"/>
       <path id="DejaVuSans-29" d="M 513 4856 
L 1013 4856 
Q 1481 4119 1714 3412 
Q 1947 2706 1947 2009 
Q 1947 1309 1714 600 
Q 1481 -109 1013 -844 
L 513 -844 
Q 928 -128 1133 580 
Q 1338 1288 1338 2009 
Q 1338 2731 1133 3434 
Q 928 4138 513 4856 
z
" transform="scale(0.015625)"/>
      </defs>
      <use xlink:href="#DejaVuSans-52"/>
      <use xlink:href="#DejaVuSans-65" x="64.982422"/>
      <use xlink:href="#DejaVuSans-63" x="126.505859"/>
      <use xlink:href="#DejaVuSans-61" x="181.486328"/>
      <use xlink:href="#DejaVuSans-6c" x="242.765625"/>
      <use xlink:href="#DejaVuSans-6c" x="270.548828"/>
      <use xlink:href="#DejaVuSans-20" x="298.332031"/>
      <use xlink:href="#DejaVuSans-28" x="330.119141"/>
      <use xlink:href="#DejaVuSans-50" x="369.132812"/>
      <use xlink:href="#DejaVuSans-6f" x="425.810547"/>
      <use xlink:href="#DejaVuSans-73" x="486.992188"/>
      <use xlink:href="#DejaVuSans-69" x="539.091797"/>
      <use xlink:href="#DejaVuSans-74" x="566.875"/>
      <use xlink:href="#DejaVuSans-69" x="606.083984"/>
      <use xlink:href="#DejaVuSans-76" x="633.867188"/>
      <use xlink:href="#DejaVuSans-65" x="693.046875"/>
      <use xlink:href="#DejaVuSans-20" x="754.570312"/>
      <use xlink:href="#DejaVuSans-6c" x="786.357422"/>
      <use xlink:href="#DejaVuSans-61" x="814.140625"/>
      <use xlink:href="#DejaVuSans-62" x="875.419922"/>
      <use xlink:href="#DejaVuSans-65" x="938.896484"/>
      <use xlink:href="#DejaVuSans-6c" x="1000.419922"/>
      <use xlink:href="#DejaVuSans-3a" x="1028.203125"/>
      <use xlink:href="#DejaVuSans-20" x="1061.894531"/>
      <use xlink:href="#DejaVuSans-31" x="1093.681641"/>
      <use xlink:href="#DejaVuSans-29" x="1157.304688"/>
     </g>
    </g>
   </g>
   <g id="matplotlib.axis_2">
    <g id="ytick_1">
     <g id="line2d_7">
      <path d="M 57.6 258.387128 
L 414.72 258.387128 
" clip-path="url(#p94ceea10a7)" style="fill: none; stroke: #ffffff; stroke-linecap: round"/>
     </g>
     <g id="text_8">
      <!-- 0.2 -->
      <g style="fill: #262626" transform="translate(30.606563 262.566268)scale(0.11 -0.11)">
       <use xlink:href="#DejaVuSans-30"/>
       <use xlink:href="#DejaVuSans-2e" x="63.623047"/>
       <use xlink:href="#DejaVuSans-32" x="95.410156"/>
      </g>
     </g>
    </g>
    <g id="ytick_2">
     <g id="line2d_8">
      <path d="M 57.6 207.182346 
L 414.72 207.182346 
" clip-path="url(#p94ceea10a7)" style="fill: none; stroke: #ffffff; stroke-linecap: round"/>
     </g>
     <g id="text_9">
      <!-- 0.4 -->
      <g style="fill: #262626" transform="translate(30.606563 211.361486)scale(0.11 -0.11)">
       <use xlink:href="#DejaVuSans-30"/>
       <use xlink:href="#DejaVuSans-2e" x="63.623047"/>
       <use xlink:href="#DejaVuSans-34" x="95.410156"/>
      </g>
     </g>
    </g>
    <g id="ytick_3">
     <g id="line2d_9">
      <path d="M 57.6 155.977564 
L 414.72 155.977564 
" clip-path="url(#p94ceea10a7)" style="fill: none; stroke: #ffffff; stroke-linecap: round"/>
     </g>
     <g id="text_10">
      <!-- 0.6 -->
      <g style="fill: #262626" transform="translate(30.606563 160.156704)scale(0.11 -0.11)">
       <use xlink:href="#DejaVuSans-30"/>
       <use xlink:href="#DejaVuSans-2e" x="63.623047"/>
       <use xlink:href="#DejaVuSans-36" x="95.410156"/>
      </g>
     </g>
    </g>
    <g id="ytick_4">
     <g id="line2d_10">
      <path d="M 57.6 104.772782 
L 414.72 104.772782 
" clip-path="url(#p94ceea10a7)" style="fill: none; stroke: #ffffff; stroke-linecap: round"/>
     </g>
     <g id="text_11">
      <!-- 0.8 -->
      <g style="fill: #262626" transform="translate(30.606563 108.951923)scale(0.11 -0.11)">
       <use xlink:href="#DejaVuSans-30"/>
       <use xlink:href="#DejaVuSans-2e" x="63.623047"/>
       <use xlink:href="#DejaVuSans-38" x="95.410156"/>
      </g>
     </g>
    </g>
    <g id="ytick_5">
     <g id="line2d_11">
      <path d="M 57.6 53.568 
L 414.72 53.568 
" clip-path="url(#p94ceea10a7)" style="fill: none; stroke: #ffffff; stroke-linecap: round"/>
     </g>
     <g id="text_12">
      <!-- 1.0 -->
      <g style="fill: #262626" transform="translate(30.606563 57.747141)scale(0.11 -0.11)">
       <use xlink:href="#DejaVuSans-31"/>
       <use xlink:href="#DejaVuSans-2e" x="63.623047"/>
       <use xlink:href="#DejaVuSans-30" x="95.410156"/>
      </g>
     </g>
    </g>
    <g id="text_13">
     <!-- Precision (Positive label: 1) -->
     <g style="fill: #262626" transform="translate(24.110937 255.1755)rotate(-90)scale(0.12 -0.12)">
      <defs>
       <path id="DejaVuSans-72" d="M 2631 2963 
Q 2534 3019 2420 3045 
Q 2306 3072 2169 3072 
Q 1681 3072 1420 2755 
Q 1159 2438 1159 1844 
L 1159 0 
L 581 0 
L 581 3500 
L 1159 3500 
L 1159 2956 
Q 1341 3275 1631 3429 
Q 1922 3584 2338 3584 
Q 2397 3584 2469 3576 
Q 2541 3569 2628 3553 
L 2631 2963 
z
" transform="scale(0.015625)"/>
       <path id="DejaVuSans-6e" d="M 3513 2113 
L 3513 0 
L 2938 0 
L 2938 2094 
Q 2938 2591 2744 2837 
Q 2550 3084 2163 3084 
Q 1697 3084 1428 2787 
Q 1159 2491 1159 1978 
L 1159 0 
L 581 0 
L 581 3500 
L 1159 3500 
L 1159 2956 
Q 1366 3272 1645 3428 
Q 1925 3584 2291 3584 
Q 2894 3584 3203 3211 
Q 3513 2838 3513 2113 
z
" transform="scale(0.015625)"/>
      </defs>
      <use xlink:href="#DejaVuSans-50"/>
      <use xlink:href="#DejaVuSans-72" x="58.552734"/>
      <use xlink:href="#DejaVuSans-65" x="97.416016"/>
      <use xlink:href="#DejaVuSans-63" x="158.939453"/>
      <use xlink:href="#DejaVuSans-69" x="213.919922"/>
      <use xlink:href="#DejaVuSans-73" x="241.703125"/>
      <use xlink:href="#DejaVuSans-69" x="293.802734"/>
      <use xlink:href="#DejaVuSans-6f" x="321.585938"/>
      <use xlink:href="#DejaVuSans-6e" x="382.767578"/>
      <use xlink:href="#DejaVuSans-20" x="446.146484"/>
      <use xlink:href="#DejaVuSans-28" x="477.933594"/>
      <use xlink:href="#DejaVuSans-50" x="516.947266"/>
      <use xlink:href="#DejaVuSans-6f" x="573.625"/>
      <use xlink:href="#DejaVuSans-73" x="634.806641"/>
      <use xlink:href="#DejaVuSans-69" x="686.90625"/>
      <use xlink:href="#DejaVuSans-74" x="714.689453"/>
      <use xlink:href="#DejaVuSans-69" x="753.898438"/>
      <use xlink:href="#DejaVuSans-76" x="781.681641"/>
      <use xlink:href="#DejaVuSans-65" x="840.861328"/>
      <use xlink:href="#DejaVuSans-20" x="902.384766"/>
      <use xlink:href="#DejaVuSans-6c" x="934.171875"/>
      <use xlink:href="#DejaVuSans-61" x="961.955078"/>
      <use xlink:href="#DejaVuSans-62" x="1023.234375"/>
      <use xlink:href="#DejaVuSans-65" x="1086.710938"/>
      <use xlink:href="#DejaVuSans-6c" x="1148.234375"/>
      <use xlink:href="#DejaVuSans-3a" x="1176.017578"/>
      <use xlink:href="#DejaVuSans-20" x="1209.708984"/>
      <use xlink:href="#DejaVuSans-31" x="1241.496094"/>
      <use xlink:href="#DejaVuSans-29" x="1305.119141"/>
     </g>
    </g>
   </g>
   <g id="line2d_12">
    <path d="M 398.487273 295.488 
L 398.487273 291.403672 
L 397.674621 291.403672 
L 397.674621 291.296289 
L 397.674621 285.798643 
L 397.268294 285.798643 
L 397.268294 285.689138 
L 397.268294 276.55121 
L 396.455642 276.55121 
L 396.455642 276.440738 
L 396.455642 273.278408 
L 392.798707 273.208834 
L 392.798707 273.215662 
L 392.798707 272.476717 
L 392.392381 272.476717 
L 392.392381 272.372784 
L 392.392381 270.517986 
L 391.986055 270.517986 
L 391.986055 270.40764 
L 391.986055 263.069115 
L 391.579729 263.069115 
L 391.579729 262.966223 
L 391.579729 255.699393 
L 391.173403 255.699393 
L 391.173403 255.593888 
L 391.173403 255.403651 
L 389.954425 255.483764 
L 389.954425 255.538558 
L 389.954425 255.139585 
L 389.141773 255.045549 
L 389.141773 255.085859 
L 389.141773 254.14269 
L 388.735447 254.14269 
L 388.735447 254.043609 
L 388.735447 250.992226 
L 388.32912 250.992226 
L 388.32912 250.929238 
L 388.32912 250.720101 
L 387.516468 250.77869 
L 387.516468 250.837314 
L 387.516468 250.468231 
L 386.703816 250.438648 
L 386.703816 250.373402 
L 386.703816 250.159166 
L 383.859534 250.246562 
L 383.859534 250.288253 
L 382.234229 250.39563 
L 382.234229 250.455529 
L 382.234229 250.437527 
L 381.015251 250.539472 
L 381.015251 250.599506 
L 381.015251 250.581521 
L 379.389947 250.653969 
L 379.389947 250.71424 
L 379.389947 250.497379 
L 378.577294 250.557843 
L 378.577294 250.618343 
L 378.577294 250.509469 
L 377.764642 250.570085 
L 377.764642 250.630738 
L 377.764642 250.61258 
L 376.95199 250.673283 
L 376.95199 250.734025 
L 375.326686 250.825841 
L 375.326686 250.886798 
L 375.326686 250.723071 
L 373.295055 250.82188 
L 373.295055 250.864981 
L 373.295055 250.810096 
L 372.482403 250.871561 
L 372.482403 250.933065 
L 372.482403 250.67595 
L 371.669751 250.737682 
L 371.669751 250.799452 
L 370.450773 250.886302 
L 370.450773 250.948215 
L 370.450773 250.874519 
L 369.231794 250.9248 
L 369.231794 250.98694 
L 367.60649 251.044433 
L 367.60649 251.106827 
L 367.60649 251.032819 
L 366.387512 251.139332 
L 366.387512 251.201914 
L 365.168533 251.308724 
L 365.168533 251.371439 
L 365.168533 251.352968 
L 363.949555 251.441625 
L 363.949555 251.486038 
L 362.730577 251.593493 
L 362.730577 251.656518 
L 362.730577 251.601148 
L 361.511599 251.690489 
L 361.511599 251.753707 
L 361.511599 251.363536 
L 360.698946 251.427095 
L 360.698946 251.490694 
L 358.667316 251.449706 
L 358.667316 251.641389 
L 358.667316 251.5852 
L 358.26099 251.5852 
L 358.26099 251.480127 
L 358.26099 251.461278 
L 357.448338 251.412224 
L 357.448338 251.457658 
L 357.448338 251.22983 
L 356.635686 251.22983 
L 356.635686 251.35902 
L 356.635686 251.339984 
L 356.229359 251.339984 
L 356.229359 251.232901 
L 356.229359 251.213754 
L 355.416707 251.213754 
L 355.416707 251.343528 
L 355.416707 251.190142 
L 354.604055 251.255214 
L 354.604055 251.320328 
L 354.604055 251.26269 
L 352.166099 251.215399 
L 352.166099 251.152597 
L 352.166099 251.015965 
L 351.759772 251.015965 
L 351.759772 250.925124 
L 351.759772 250.767471 
L 350.540794 250.741789 
L 350.540794 250.669205 
L 350.540794 250.609405 
L 348.509164 250.616684 
L 348.509164 250.543065 
L 348.509164 250.035074 
L 346.883859 249.95048 
L 346.883859 249.935853 
L 346.883859 249.811483 
L 344.852229 249.876836 
L 344.852229 249.945403 
L 344.852229 249.6523 
L 344.039577 249.679076 
L 344.039577 249.558094 
L 344.039577 249.260265 
L 342.820598 249.313553 
L 342.820598 249.38309 
L 342.414272 249.38309 
L 342.414272 249.302702 
L 342.414272 248.453252 
L 339.56999 248.389114 
L 339.56999 248.348443 
L 339.56999 248.258709 
L 339.163664 248.258709 
L 339.163664 248.149935 
L 339.163664 247.877767 
L 338.757338 247.877767 
L 338.757338 247.766877 
L 338.757338 247.490872 
L 338.351011 247.490872 
L 338.351011 247.401027 
L 338.351011 247.191473 
L 337.944685 247.191473 
L 337.944685 247.100155 
L 337.944685 243.632519 
L 337.538359 243.632519 
L 337.538359 243.524507 
L 337.538359 242.673054 
L 337.132033 242.673054 
L 337.132033 242.587268 
L 337.132033 242.342824 
L 336.319381 242.31024 
L 336.319381 242.277524 
L 336.319381 242.057632 
L 335.913055 242.057632 
L 335.913055 241.968887 
L 335.913055 241.606969 
L 335.506729 241.606969 
L 335.506729 241.516188 
L 335.506729 241.120399 
L 335.100403 241.120399 
L 335.100403 241.027406 
L 335.100403 240.970245 
L 334.694077 240.970245 
L 334.694077 240.933869 
L 334.694077 238.406396 
L 334.287751 238.406396 
L 334.287751 238.301151 
L 334.287751 237.136578 
L 333.881425 237.136578 
L 333.881425 237.12163 
L 333.881425 236.799683 
L 333.068772 236.881119 
L 333.068772 236.962628 
L 333.068772 236.768345 
L 332.25612 236.817599 
L 332.25612 236.899407 
L 332.25612 236.80192 
L 331.443468 236.851336 
L 331.443468 236.933378 
L 331.443468 229.552877 
L 331.037142 229.552877 
L 331.037142 229.441991 
L 331.037142 219.356311 
L 330.630816 219.356311 
L 330.630816 219.247347 
L 330.630816 212.058992 
L 330.22449 212.058992 
L 330.22449 211.97796 
L 330.22449 211.622785 
L 329.818164 211.622785 
L 329.818164 211.540199 
L 329.818164 211.181255 
L 329.411838 211.181255 
L 329.411838 211.097084 
L 329.411838 210.42994 
L 329.005511 210.42994 
L 329.005511 210.343135 
L 329.005511 209.97418 
L 328.192859 209.947595 
L 328.192859 209.982856 
L 328.192859 209.672354 
L 326.973881 209.742585 
L 326.973881 209.652752 
L 326.973881 209.085989 
L 323.723272 209.139216 
L 323.723272 209.238369 
L 319.253685 209.336592 
L 319.253685 209.37257 
L 319.253685 208.981343 
L 317.628381 209.088729 
L 317.628381 209.124712 
L 316.003077 209.233227 
L 316.003077 209.269589 
L 314.377772 209.31306 
L 314.377772 209.349744 
L 314.377772 208.883501 
L 312.346142 208.962191 
L 312.346142 208.998847 
L 310.720837 209.109407 
L 310.720837 209.146459 
L 309.908185 209.115905 
L 309.908185 209.085226 
L 309.908185 208.949222 
L 308.689207 209.023495 
L 308.689207 209.060782 
L 307.470229 208.998614 
L 307.470229 208.967338 
L 307.470229 208.414076 
L 307.063903 208.414076 
L 307.063903 208.311603 
L 307.063903 207.891062 
L 306.657577 207.891062 
L 306.657577 207.786427 
L 306.657577 207.289469 
L 306.25125 207.289469 
L 306.25125 207.182346 
L 306.25125 206.750845 
L 305.844924 206.750845 
L 305.844924 206.786247 
L 305.844924 204.11597 
L 305.438598 204.11597 
L 305.438598 204.072294 
L 305.438598 202.366613 
L 305.032272 202.366613 
L 305.032272 202.318268 
L 305.032272 201.842202 
L 304.625946 201.842202 
L 304.625946 201.792369 
L 304.625946 197.643041 
L 304.21962 197.643041 
L 304.21962 197.581449 
L 304.21962 195.017674 
L 303.406968 195.017674 
L 303.406968 194.969478 
L 303.406968 194.87858 
L 302.594316 194.87858 
L 302.594316 194.462947 
L 302.18799 194.462947 
L 302.18799 194.575573 
L 302.18799 194.48356 
L 301.375337 194.48356 
L 301.375337 194.432561 
L 301.375337 194.247268 
L 300.562685 194.247268 
L 300.562685 194.195026 
L 300.562685 192.970406 
L 299.343707 192.912161 
L 299.343707 191.377875 
L 298.937381 191.377875 
L 298.937381 191.295624 
L 298.937381 190.998895 
L 298.531055 190.998895 
L 298.531055 190.915278 
L 298.531055 190.315396 
L 298.124729 190.315396 
L 298.124729 190.229411 
L 298.124729 190.027444 
L 297.718403 190.027444 
L 297.718403 189.940362 
L 297.718403 189.430773 
L 296.499424 189.457614 
L 296.499424 189.573858 
L 283.496989 189.681977 
L 283.496989 189.711386 
L 282.684337 189.72617 
L 282.684337 189.741008 
L 282.684337 188.416689 
L 281.871685 188.429303 
L 281.871685 188.441963 
L 281.871685 188.217612 
L 276.995772 188.292192 
L 276.995772 188.368468 
L 276.995772 188.138442 
L 276.18312 188.150911 
L 276.18312 188.04767 
L 276.18312 185.443996 
L 275.776794 185.443996 
L 275.776794 185.451536 
L 275.776794 166.460433 
L 275.370468 166.460433 
L 275.370468 166.264755 
L 274.557815 166.264755 
L 274.557815 165.869397 
L 274.151489 165.869397 
L 274.151489 165.669689 
L 273.745163 165.669689 
L 273.745163 164.639362 
L 272.932511 164.600284 
L 272.932511 164.393165 
L 272.526185 164.393165 
L 272.526185 164.184602 
L 272.119859 164.184602 
L 272.119859 164.313226 
L 271.307207 164.272977 
L 271.307207 164.402155 
L 271.307207 164.062529 
L 270.900881 164.021457 
L 270.900881 164.021457 
L 270.900881 163.679341 
L 269.681902 163.594804 
L 269.681902 163.552236 
L 268.462924 163.466491 
L 268.462924 163.423313 
L 267.243946 163.336335 
L 267.243946 163.292533 
L 265.618641 163.24852 
L 265.618641 163.1152 
L 264.399663 163.025238 
L 264.399663 162.979927 
L 263.180685 162.888639 
L 263.180685 162.842658 
L 261.961707 162.750013 
L 261.961707 162.521103 
L 260.742728 162.426046 
L 260.742728 162.193914 
L 260.336402 162.193914 
L 260.336402 162.330037 
L 260.336402 162.145267 
L 259.52375 162.145267 
L 259.52375 162.418417 
L 259.52375 162.047235 
L 259.117424 162.047235 
L 259.117424 161.247687 
L 258.711098 161.247687 
L 258.711098 161.006605 
L 258.304772 161.006605 
L 258.304772 160.572865 
L 257.898446 160.572865 
L 257.898446 157.588199 
L 257.49212 157.588199 
L 257.49212 157.724709 
L 257.49212 156.113386 
L 257.085794 156.113386 
L 257.085794 156.249568 
L 257.085794 150.327381 
L 255.866815 150.327381 
L 255.866815 150.729428 
L 255.460489 150.729428 
L 255.460489 150.864188 
L 255.054163 150.864188 
L 255.054163 150.999321 
L 254.241511 150.999321 
L 254.241511 151.270718 
L 253.835185 151.270718 
L 253.835185 151.406984 
L 253.428859 151.406984 
L 253.428859 151.54363 
L 253.022533 151.54363 
L 253.022533 151.680659 
L 252.616207 151.680659 
L 252.616207 151.818072 
L 252.616207 151.59679 
L 252.209881 151.59679 
L 252.209881 151.734471 
L 251.803554 151.734471 
L 251.803554 151.872539 
L 251.803554 151.650399 
L 251.397228 151.650399 
L 251.397228 151.788738 
L 250.990902 151.788738 
L 250.990902 151.927468 
L 250.990902 151.480827 
L 250.584576 151.480827 
L 250.584576 151.61971 
L 250.584576 117.904473 
L 250.17825 117.904473 
L 250.17825 117.684523 
L 249.771924 117.684523 
L 249.771924 117.463048 
L 249.365598 117.463048 
L 249.365598 117.240033 
L 248.959272 117.240033 
L 248.959272 117.015461 
L 248.552946 117.015461 
L 248.552946 116.789316 
L 248.14662 116.789316 
L 248.14662 116.561581 
L 247.740294 116.561581 
L 247.740294 116.332239 
L 247.333967 116.332239 
L 247.333967 116.101273 
L 246.927641 116.101273 
L 246.927641 115.868667 
L 246.114989 115.979522 
L 246.114989 115.745235 
L 245.708663 115.745235 
L 245.708663 115.509268 
L 245.302337 115.509268 
L 245.302337 115.620474 
L 244.896011 115.620474 
L 244.896011 115.732079 
L 244.489685 115.732079 
L 244.489685 115.844086 
L 244.083359 115.844086 
L 244.083359 115.956498 
L 243.677033 115.956498 
L 243.677033 116.069316 
L 243.270707 116.069316 
L 243.270707 116.182543 
L 242.86438 116.182543 
L 242.86438 116.296181 
L 242.458054 116.296181 
L 242.458054 116.410232 
L 242.051728 116.410232 
L 242.051728 116.524699 
L 241.239076 116.524699 
L 241.239076 116.754888 
L 240.83275 116.754888 
L 240.83275 116.870615 
L 240.426424 116.870615 
L 240.426424 116.986767 
L 240.020098 116.986767 
L 240.020098 117.103345 
L 239.613772 117.103345 
L 239.613772 117.220353 
L 239.207446 117.220353 
L 239.207446 117.337793 
L 238.80112 117.337793 
L 238.80112 117.455667 
L 238.394793 117.455667 
L 238.394793 117.573977 
L 237.988467 117.573977 
L 237.988467 117.692727 
L 237.582141 117.692727 
L 237.582141 117.811918 
L 237.175815 117.811918 
L 237.175815 117.931553 
L 236.769489 117.931553 
L 236.769489 118.051634 
L 236.363163 118.051634 
L 236.363163 118.172164 
L 235.956837 118.172164 
L 235.956837 118.293146 
L 235.550511 118.293146 
L 235.550511 118.414581 
L 235.144185 118.414581 
L 235.144185 118.536473 
L 234.331533 118.536473 
L 234.331533 118.781637 
L 233.925207 118.781637 
L 233.925207 118.904915 
L 233.51888 118.904915 
L 233.51888 119.028659 
L 233.112554 119.028659 
L 233.112554 119.152872 
L 232.706228 119.152872 
L 232.706228 119.277559 
L 232.299902 119.277559 
L 232.299902 119.40272 
L 231.893576 119.40272 
L 231.893576 119.528358 
L 231.48725 119.528358 
L 231.48725 119.654478 
L 231.080924 119.654478 
L 231.080924 119.78108 
L 230.674598 119.78108 
L 230.674598 119.908168 
L 230.268272 119.908168 
L 230.268272 120.035746 
L 229.861946 120.035746 
L 229.861946 120.163815 
L 229.049293 120.163815 
L 229.049293 120.421439 
L 228.236641 120.421439 
L 228.236641 120.681064 
L 227.830315 120.681064 
L 227.830315 120.811634 
L 227.423989 120.811634 
L 227.423989 120.942713 
L 227.017663 120.942713 
L 227.017663 121.074304 
L 226.611337 121.074304 
L 226.611337 121.206411 
L 226.205011 121.206411 
L 226.205011 121.339035 
L 225.798685 121.339035 
L 225.798685 121.47218 
L 225.392359 121.47218 
L 225.392359 121.60585 
L 224.986033 121.60585 
L 224.986033 121.740047 
L 224.579706 121.740047 
L 224.579706 121.874774 
L 224.17338 121.874774 
L 224.17338 122.010035 
L 223.360728 122.010035 
L 223.360728 122.282171 
L 222.954402 122.282171 
L 222.954402 122.419051 
L 221.735424 122.419051 
L 221.735424 122.832986 
L 221.329098 122.832986 
L 221.329098 122.972072 
L 220.922772 122.972072 
L 220.922772 123.111718 
L 220.516446 123.111718 
L 220.516446 123.251927 
L 220.110119 123.251927 
L 220.110119 123.392703 
L 219.297467 123.392703 
L 219.297467 123.675967 
L 218.891141 123.675967 
L 218.891141 123.818463 
L 217.672163 123.818463 
L 217.672163 124.249447 
L 216.453185 124.249447 
L 216.453185 124.685753 
L 216.046859 124.685753 
L 216.046859 124.832387 
L 215.640532 124.832387 
L 215.640532 124.979628 
L 214.82788 124.979628 
L 214.82788 125.275941 
L 214.015228 125.275941 
L 214.015228 125.574725 
L 213.608902 125.574725 
L 213.608902 124.566227 
L 211.577272 124.566227 
L 211.577272 125.319924 
L 211.170946 125.319924 
L 211.170946 125.472587 
L 205.076054 125.472587 
L 205.076054 127.843068 
L 204.669728 127.843068 
L 204.669728 128.00667 
L 204.263402 128.00667 
L 204.263402 128.170994 
L 203.857076 128.170994 
L 203.857076 128.336044 
L 203.45075 128.336044 
L 203.45075 128.099405 
L 203.044424 128.099405 
L 203.044424 128.265399 
L 202.231772 128.265399 
L 202.231772 128.599616 
L 201.825445 128.599616 
L 201.825445 128.767848 
L 201.419119 128.767848 
L 201.419119 128.936836 
L 201.012793 128.936836 
L 201.012793 129.106586 
L 200.606467 129.106586 
L 200.606467 129.277102 
L 200.200141 129.277102 
L 200.200141 129.448389 
L 199.793815 129.448389 
L 199.793815 129.620454 
L 199.387489 129.620454 
L 199.387489 128.558985 
L 198.981163 128.558985 
L 198.981163 127.477905 
L 198.574837 127.477905 
L 198.574837 126.376664 
L 198.168511 126.376664 
L 198.168511 126.546778 
L 197.355858 126.546778 
L 197.355858 126.889401 
L 196.949532 126.889401 
L 196.949532 127.061922 
L 196.543206 127.061922 
L 196.543206 127.235257 
L 195.730554 127.235257 
L 195.730554 127.584391 
L 195.324228 127.584391 
L 195.324228 127.760202 
L 194.917902 127.760202 
L 194.917902 127.93685 
L 194.10525 127.93685 
L 194.10525 128.292682 
L 192.886271 128.292682 
L 192.886271 128.83286 
L 192.479945 128.83286 
L 192.479945 129.014659 
L 192.479945 127.696577 
L 192.073619 127.696577 
L 192.073619 127.877379 
L 191.667293 127.877379 
L 191.667293 128.059064 
L 191.260967 128.059064 
L 191.260967 128.24164 
L 190.448315 128.24164 
L 190.448315 127.713538 
L 189.635663 127.713538 
L 189.635663 127.174874 
L 189.229337 127.174874 
L 189.229337 127.359352 
L 188.823011 127.359352 
L 188.823011 127.544758 
L 188.823011 120.907622 
L 188.416684 120.907622 
L 188.416684 119.595219 
L 188.010358 119.595219 
L 188.010358 119.267257 
L 187.604032 119.267257 
L 187.604032 118.935807 
L 187.197706 118.935807 
L 187.197706 118.600811 
L 186.79138 118.600811 
L 186.79138 118.262214 
L 186.385054 118.262214 
L 186.385054 117.919956 
L 185.978728 117.919956 
L 185.978728 117.573977 
L 185.572402 117.573977 
L 185.572402 117.224218 
L 185.166076 117.224218 
L 185.166076 116.870615 
L 184.75975 116.870615 
L 184.75975 116.513105 
L 184.353424 116.513105 
L 184.353424 112.872973 
L 183.947098 112.872973 
L 183.947098 113.040976 
L 183.947098 112.482593 
L 183.540771 112.482593 
L 183.540771 112.650441 
L 183.540771 112.087751 
L 183.134445 112.087751 
L 183.134445 112.255429 
L 183.134445 111.68837 
L 182.321793 111.68837 
L 182.321793 112.024326 
L 182.321793 110.875677 
L 181.915467 110.875677 
L 181.915467 111.042755 
L 181.509141 111.042755 
L 181.509141 111.21081 
L 180.696489 111.21081 
L 180.696489 111.549885 
L 180.290163 111.549885 
L 180.290163 111.720923 
L 179.883837 111.720923 
L 179.883837 111.892973 
L 179.477511 111.892973 
L 179.477511 112.066045 
L 179.071184 112.066045 
L 179.071184 112.240146 
L 179.071184 111.651036 
L 178.664858 111.651036 
L 178.664858 111.824937 
L 178.258532 111.824937 
L 178.258532 111.999883 
L 177.852206 111.999883 
L 177.852206 112.175883 
L 177.852206 111.57946 
L 177.44588 111.57946 
L 177.44588 111.755252 
L 177.039554 111.755252 
L 177.039554 111.932113 
L 177.039554 111.329492 
L 176.633228 111.329492 
L 176.633228 111.506132 
L 176.226902 111.506132 
L 176.226902 111.683857 
L 175.820576 111.683857 
L 175.820576 111.862675 
L 175.820576 110.638345 
L 175.41425 110.638345 
L 175.41425 110.815582 
L 175.007924 110.815582 
L 175.007924 110.993924 
L 175.007924 110.373305 
L 174.195271 110.373305 
L 174.195271 110.730571 
L 172.976293 110.730571 
L 172.976293 111.274976 
L 172.569967 111.274976 
L 172.569967 111.458757 
L 172.163641 111.458757 
L 172.163641 111.643711 
L 171.757315 111.643711 
L 171.757315 111.829851 
L 171.350989 111.829851 
L 171.350989 112.017188 
L 170.944663 112.017188 
L 170.944663 112.205734 
L 170.538337 112.205734 
L 170.538337 112.3955 
L 169.725684 112.3955 
L 169.725684 112.778741 
L 169.319358 112.778741 
L 169.319358 112.97224 
L 168.506706 112.97224 
L 168.506706 113.363058 
L 168.10038 113.363058 
L 168.10038 113.560401 
L 167.694054 113.560401 
L 167.694054 113.759052 
L 167.287728 113.759052 
L 167.287728 113.959022 
L 166.881402 113.959022 
L 166.881402 114.160325 
L 166.06875 114.160325 
L 166.06875 114.566985 
L 165.662423 114.566985 
L 165.662423 114.772369 
L 165.256097 114.772369 
L 165.256097 114.97914 
L 164.849771 114.97914 
L 164.849771 115.187314 
L 164.443445 115.187314 
L 164.443445 115.396903 
L 164.037119 115.396903 
L 164.037119 115.607923 
L 163.630793 115.607923 
L 163.630793 115.820389 
L 162.818141 115.820389 
L 162.818141 114.228717 
L 162.411815 114.228717 
L 162.411815 114.440818 
L 162.005489 114.440818 
L 162.005489 114.654406 
L 161.599163 114.654406 
L 161.599163 114.869499 
L 161.192837 114.869499 
L 161.192837 115.086113 
L 160.380184 115.086113 
L 160.380184 115.523964 
L 159.973858 115.523964 
L 159.973858 115.745235 
L 159.567532 115.745235 
L 159.567532 115.968093 
L 159.161206 115.968093 
L 159.161206 115.494361 
L 158.75488 115.494361 
L 158.75488 115.718732 
L 158.348554 115.718732 
L 158.348554 115.944734 
L 157.129576 115.944734 
L 157.129576 116.632713 
L 156.72325 116.632713 
L 156.72325 116.151622 
L 156.316923 116.151622 
L 156.316923 116.384275 
L 155.910597 116.384275 
L 155.910597 116.618664 
L 155.504271 116.618664 
L 155.504271 116.854809 
L 155.097945 116.854809 
L 155.097945 117.092729 
L 154.691619 117.092729 
L 154.691619 117.332445 
L 154.285293 117.332445 
L 154.285293 117.573977 
L 153.878967 117.573977 
L 153.878967 116.347809 
L 153.472641 116.347809 
L 153.472641 115.844086 
L 153.066315 115.844086 
L 153.066315 116.085466 
L 152.659989 116.085466 
L 152.659989 116.328725 
L 148.596728 116.328725 
L 148.596728 118.869645 
L 148.190402 118.869645 
L 148.190402 119.135099 
L 147.784076 119.135099 
L 147.784076 119.40272 
L 147.377749 119.40272 
L 147.377749 119.672534 
L 146.971423 119.672534 
L 146.971423 119.944569 
L 146.971423 119.160902 
L 146.565097 119.160902 
L 146.565097 119.433072 
L 146.158771 119.433072 
L 146.158771 119.70751 
L 146.158771 118.913015 
L 145.752445 118.913015 
L 145.752445 119.187573 
L 145.346119 119.187573 
L 145.346119 119.464449 
L 144.939793 119.464449 
L 144.939793 119.743672 
L 144.533467 119.743672 
L 144.533467 120.02527 
L 144.533467 119.215156 
L 144.127141 119.215156 
L 144.127141 119.496904 
L 143.720815 119.496904 
L 143.720815 119.78108 
L 143.720815 118.959388 
L 143.314489 118.959388 
L 143.314489 119.243699 
L 143.314489 116.728083 
L 140.06388 116.728083 
L 140.06388 119.035301 
L 140.06388 118.161188 
L 139.657554 118.161188 
L 139.657554 118.458853 
L 139.657554 113.023789 
L 139.251228 113.023789 
L 139.251228 112.36775 
L 138.438575 112.36775 
L 138.438575 112.935863 
L 138.032249 112.935863 
L 138.032249 113.224057 
L 137.625923 113.224057 
L 137.625923 112.553901 
L 137.219597 112.553901 
L 137.219597 111.870474 
L 136.813271 111.870474 
L 136.813271 112.160537 
L 136.406945 112.160537 
L 136.406945 112.453499 
L 136.000619 112.453499 
L 136.000619 111.755252 
L 135.594293 111.755252 
L 135.594293 111.042755 
L 132.343684 111.042755 
L 132.343684 104.772782 
L 131.937358 104.772782 
L 131.937358 103.90978 
L 131.531032 103.90978 
L 131.531032 103.027164 
L 130.71838 103.027164 
L 130.71838 101.200355 
L 130.312054 101.200355 
L 130.312054 100.254713 
L 129.499402 100.254713 
L 129.499402 98.295069 
L 128.686749 98.295069 
L 128.686749 96.238652 
L 128.280423 96.238652 
L 128.280423 95.171885 
L 127.874097 95.171885 
L 127.874097 95.433545 
L 127.467771 95.433545 
L 127.467771 94.336138 
L 126.655119 94.336138 
L 126.655119 92.055254 
L 126.248793 92.055254 
L 126.248793 90.869497 
L 125.842467 90.869497 
L 125.842467 89.651907 
L 124.623488 89.651907 
L 124.623488 85.794786 
L 124.217162 85.794786 
L 124.217162 86.021735 
L 123.40451 86.021735 
L 123.40451 83.251932 
L 122.998184 83.251932 
L 122.998184 81.805931 
L 121.779206 81.805931 
L 121.779206 82.442877 
L 121.37288 82.442877 
L 121.37288 82.661626 
L 116.496967 82.661626 
L 116.496967 60.679775 
L 115.684314 60.74624 
L 115.684314 60.81396 
L 114.871662 60.882969 
L 114.871662 60.953305 
L 113.652684 60.953305 
L 113.652684 53.568 
L 73.832727 53.568 
L 73.832727 53.568 
" clip-path="url(#p94ceea10a7)" style="fill: none; stroke: #4c72b0; stroke-width: 1.5; stroke-linecap: round"/>
   </g>
   <g id="patch_3">
    <path d="M 57.6 307.584 
L 57.6 41.472 
" style="fill: none; stroke: #ffffff; stroke-width: 1.25; stroke-linejoin: miter; stroke-linecap: square"/>
   </g>
   <g id="patch_4">
    <path d="M 414.72 307.584 
L 414.72 41.472 
" style="fill: none; stroke: #ffffff; stroke-width: 1.25; stroke-linejoin: miter; stroke-linecap: square"/>
   </g>
   <g id="patch_5">
    <path d="M 57.6 307.584 
L 414.72 307.584 
" style="fill: none; stroke: #ffffff; stroke-width: 1.25; stroke-linejoin: miter; stroke-linecap: square"/>
   </g>
   <g id="patch_6">
    <path d="M 57.6 41.472 
L 414.72 41.472 
" style="fill: none; stroke: #ffffff; stroke-width: 1.25; stroke-linejoin: miter; stroke-linecap: square"/>
   </g>
   <g id="text_14">
    <!-- Precision-recall curve -->
    <g style="fill: #262626" transform="translate(172.175625 35.472)scale(0.12 -0.12)">
     <defs>
      <path id="DejaVuSans-2d" d="M 313 2009 
L 1997 2009 
L 1997 1497 
L 313 1497 
L 313 2009 
z
" transform="scale(0.015625)"/>
      <path id="DejaVuSans-75" d="M 544 1381 
L 544 3500 
L 1119 3500 
L 1119 1403 
Q 1119 906 1312 657 
Q 1506 409 1894 409 
Q 2359 409 2629 706 
Q 2900 1003 2900 1516 
L 2900 3500 
L 3475 3500 
L 3475 0 
L 2900 0 
L 2900 538 
Q 2691 219 2414 64 
Q 2138 -91 1772 -91 
Q 1169 -91 856 284 
Q 544 659 544 1381 
z
M 1991 3584 
L 1991 3584 
z
" transform="scale(0.015625)"/>
     </defs>
     <use xlink:href="#DejaVuSans-50"/>
     <use xlink:href="#DejaVuSans-72" x="58.552734"/>
     <use xlink:href="#DejaVuSans-65" x="97.416016"/>
     <use xlink:href="#DejaVuSans-63" x="158.939453"/>
     <use xlink:href="#DejaVuSans-69" x="213.919922"/>
     <use xlink:href="#DejaVuSans-73" x="241.703125"/>
     <use xlink:href="#DejaVuSans-69" x="293.802734"/>
     <use xlink:href="#DejaVuSans-6f" x="321.585938"/>
     <use xlink:href="#DejaVuSans-6e" x="382.767578"/>
     <use xlink:href="#DejaVuSans-2d" x="446.146484"/>
     <use xlink:href="#DejaVuSans-72" x="482.230469"/>
     <use xlink:href="#DejaVuSans-65" x="521.09375"/>
     <use xlink:href="#DejaVuSans-63" x="582.617188"/>
     <use xlink:href="#DejaVuSans-61" x="637.597656"/>
     <use xlink:href="#DejaVuSans-6c" x="698.876953"/>
     <use xlink:href="#DejaVuSans-6c" x="726.660156"/>
     <use xlink:href="#DejaVuSans-20" x="754.443359"/>
     <use xlink:href="#DejaVuSans-63" x="786.230469"/>
     <use xlink:href="#DejaVuSans-75" x="841.210938"/>
     <use xlink:href="#DejaVuSans-72" x="904.589844"/>
     <use xlink:href="#DejaVuSans-76" x="945.703125"/>
     <use xlink:href="#DejaVuSans-65" x="1004.882812"/>
    </g>
   </g>
   <g id="legend_1">
    <g id="patch_7">
     <path d="M 65.3 302.084 
L 250.215156 302.084 
Q 252.415156 302.084 252.415156 299.884 
L 252.415156 284.838062 
Q 252.415156 282.638062 250.215156 282.638062 
L 65.3 282.638062 
Q 63.1 282.638062 63.1 284.838062 
L 63.1 299.884 
Q 63.1 302.084 65.3 302.084 
z
" style="fill: #eaeaf2; opacity: 0.8; stroke: #cccccc; stroke-linejoin: miter"/>
    </g>
    <g id="line2d_13">
     <path d="M 67.5 291.546344 
L 78.5 291.546344 
L 78.5 291.546344 
L 89.5 291.546344 
L 89.5 291.546344 
" style="fill: none; stroke: #4c72b0; stroke-width: 1.5; stroke-linecap: round"/>
    </g>
    <g id="text_15">
     <!-- Random Forest (AP = 0.61) -->
     <g style="fill: #262626" transform="translate(98.3 295.396344)scale(0.11 -0.11)">
      <defs>
       <path id="DejaVuSans-64" d="M 2906 2969 
L 2906 4863 
L 3481 4863 
L 3481 0 
L 2906 0 
L 2906 525 
Q 2725 213 2448 61 
Q 2172 -91 1784 -91 
Q 1150 -91 751 415 
Q 353 922 353 1747 
Q 353 2572 751 3078 
Q 1150 3584 1784 3584 
Q 2172 3584 2448 3432 
Q 2725 3281 2906 2969 
z
M 947 1747 
Q 947 1113 1208 752 
Q 1469 391 1925 391 
Q 2381 391 2643 752 
Q 2906 1113 2906 1747 
Q 2906 2381 2643 2742 
Q 2381 3103 1925 3103 
Q 1469 3103 1208 2742 
Q 947 2381 947 1747 
z
" transform="scale(0.015625)"/>
       <path id="DejaVuSans-6d" d="M 3328 2828 
Q 3544 3216 3844 3400 
Q 4144 3584 4550 3584 
Q 5097 3584 5394 3201 
Q 5691 2819 5691 2113 
L 5691 0 
L 5113 0 
L 5113 2094 
Q 5113 2597 4934 2840 
Q 4756 3084 4391 3084 
Q 3944 3084 3684 2787 
Q 3425 2491 3425 1978 
L 3425 0 
L 2847 0 
L 2847 2094 
Q 2847 2600 2669 2842 
Q 2491 3084 2119 3084 
Q 1678 3084 1418 2786 
Q 1159 2488 1159 1978 
L 1159 0 
L 581 0 
L 581 3500 
L 1159 3500 
L 1159 2956 
Q 1356 3278 1631 3431 
Q 1906 3584 2284 3584 
Q 2666 3584 2933 3390 
Q 3200 3197 3328 2828 
z
" transform="scale(0.015625)"/>
       <path id="DejaVuSans-46" d="M 628 4666 
L 3309 4666 
L 3309 4134 
L 1259 4134 
L 1259 2759 
L 3109 2759 
L 3109 2228 
L 1259 2228 
L 1259 0 
L 628 0 
L 628 4666 
z
" transform="scale(0.015625)"/>
       <path id="DejaVuSans-41" d="M 2188 4044 
L 1331 1722 
L 3047 1722 
L 2188 4044 
z
M 1831 4666 
L 2547 4666 
L 4325 0 
L 3669 0 
L 3244 1197 
L 1141 1197 
L 716 0 
L 50 0 
L 1831 4666 
z
" transform="scale(0.015625)"/>
       <path id="DejaVuSans-3d" d="M 678 2906 
L 4684 2906 
L 4684 2381 
L 678 2381 
L 678 2906 
z
M 678 1631 
L 4684 1631 
L 4684 1100 
L 678 1100 
L 678 1631 
z
" transform="scale(0.015625)"/>
      </defs>
      <use xlink:href="#DejaVuSans-52"/>
      <use xlink:href="#DejaVuSans-61" x="67.232422"/>
      <use xlink:href="#DejaVuSans-6e" x="128.511719"/>
      <use xlink:href="#DejaVuSans-64" x="191.890625"/>
      <use xlink:href="#DejaVuSans-6f" x="255.367188"/>
      <use xlink:href="#DejaVuSans-6d" x="316.548828"/>
      <use xlink:href="#DejaVuSans-20" x="413.960938"/>
      <use xlink:href="#DejaVuSans-46" x="445.748047"/>
      <use xlink:href="#DejaVuSans-6f" x="499.642578"/>
      <use xlink:href="#DejaVuSans-72" x="560.824219"/>
      <use xlink:href="#DejaVuSans-65" x="599.6875"/>
      <use xlink:href="#DejaVuSans-73" x="661.210938"/>
      <use xlink:href="#DejaVuSans-74" x="713.310547"/>
      <use xlink:href="#DejaVuSans-20" x="752.519531"/>
      <use xlink:href="#DejaVuSans-28" x="784.306641"/>
      <use xlink:href="#DejaVuSans-41" x="823.320312"/>
      <use xlink:href="#DejaVuSans-50" x="891.728516"/>
      <use xlink:href="#DejaVuSans-20" x="952.03125"/>
      <use xlink:href="#DejaVuSans-3d" x="983.818359"/>
      <use xlink:href="#DejaVuSans-20" x="1067.607422"/>
      <use xlink:href="#DejaVuSans-30" x="1099.394531"/>
      <use xlink:href="#DejaVuSans-2e" x="1163.017578"/>
      <use xlink:href="#DejaVuSans-36" x="1194.804688"/>
      <use xlink:href="#DejaVuSans-31" x="1258.427734"/>
      <use xlink:href="#DejaVuSans-29" x="1322.050781"/>
     </g>
    </g>
   </g>
  </g>
 </g>
 <defs>
  <clipPath id="p94ceea10a7">
   <rect x="57.6" y="41.472" width="357.12" height="266.112"/>
  </clipPath>
 </defs>
</svg>
