<?xml version="1.0" encoding="utf-8" standalone="no"?>
<!DOCTYPE svg PUBLIC "-//W3C//DTD SVG 1.1//EN"
  "http://www.w3.org/Graphics/SVG/1.1/DTD/svg11.dtd">
<svg xmlns:xlink="http://www.w3.org/1999/xlink" width="460.8pt" height="345.6pt" viewBox="0 0 460.8 345.6" xmlns="http://www.w3.org/2000/svg" version="1.1">
 <metadata>
  <rdf:RDF xmlns:dc="http://purl.org/dc/elements/1.1/" xmlns:cc="http://creativecommons.org/ns#" xmlns:rdf="http://www.w3.org/1999/02/22-rdf-syntax-ns#">
   <cc:Work>
    <dc:type rdf:resource="http://purl.org/dc/dcmitype/StillImage"/>
    <dc:date>2022-11-18T00:01:15.253491</dc:date>
    <dc:format>image/svg+xml</dc:format>
    <dc:creator>
     <cc:Agent>
      <dc:title>Matplotlib v3.5.2, https://matplotlib.org/</dc:title>
     </cc:Agent>
    </dc:creator>
   </cc:Work>
  </rdf:RDF>
 </metadata>
 <defs>
  <style type="text/css">*{stroke-linejoin: round; stroke-linecap: butt}</style>
 </defs>
 <g id="figure_1">
  <g id="patch_1">
   <path d="M 0 345.6 
L 460.8 345.6 
L 460.8 0 
L 0 0 
z
" style="fill: #ffffff"/>
  </g>
  <g id="axes_1">
   <g id="patch_2">
    <path d="M 57.6 307.584 
L 414.72 307.584 
L 414.72 41.472 
L 57.6 41.472 
z
" style="fill: #eaeaf2"/>
   </g>
   <g id="matplotlib.axis_1">
    <g id="xtick_1">
     <g id="line2d_1">
      <path d="M 73.832727 307.584 
L 73.832727 41.472 
" clip-path="url(#pe35797ceb1)" style="fill: none; stroke: #ffffff; stroke-linecap: round"/>
     </g>
     <g id="text_1">
      <!-- 0.0 -->
      <g style="fill: #262626" transform="translate(65.086009 325.442281)scale(0.11 -0.11)">
       <defs>
        <path id="DejaVuSans-30" d="M 2034 4250 
Q 1547 4250 1301 3770 
Q 1056 3291 1056 2328 
Q 1056 1369 1301 889 
Q 1547 409 2034 409 
Q 2525 409 2770 889 
Q 3016 1369 3016 2328 
Q 3016 3291 2770 3770 
Q 2525 4250 2034 4250 
z
M 2034 4750 
Q 2819 4750 3233 4129 
Q 3647 3509 3647 2328 
Q 3647 1150 3233 529 
Q 2819 -91 2034 -91 
Q 1250 -91 836 529 
Q 422 1150 422 2328 
Q 422 3509 836 4129 
Q 1250 4750 2034 4750 
z
" transform="scale(0.015625)"/>
        <path id="DejaVuSans-2e" d="M 684 794 
L 1344 794 
L 1344 0 
L 684 0 
L 684 794 
z
" transform="scale(0.015625)"/>
       </defs>
       <use xlink:href="#DejaVuSans-30"/>
       <use xlink:href="#DejaVuSans-2e" x="63.623047"/>
       <use xlink:href="#DejaVuSans-30" x="95.410156"/>
      </g>
     </g>
    </g>
    <g id="xtick_2">
     <g id="line2d_2">
      <path d="M 138.763636 307.584 
L 138.763636 41.472 
" clip-path="url(#pe35797ceb1)" style="fill: none; stroke: #ffffff; stroke-linecap: round"/>
     </g>
     <g id="text_2">
      <!-- 0.2 -->
      <g style="fill: #262626" transform="translate(130.016918 325.442281)scale(0.11 -0.11)">
       <defs>
        <path id="DejaVuSans-32" d="M 1228 531 
L 3431 531 
L 3431 0 
L 469 0 
L 469 531 
Q 828 903 1448 1529 
Q 2069 2156 2228 2338 
Q 2531 2678 2651 2914 
Q 2772 3150 2772 3378 
Q 2772 3750 2511 3984 
Q 2250 4219 1831 4219 
Q 1534 4219 1204 4116 
Q 875 4013 500 3803 
L 500 4441 
Q 881 4594 1212 4672 
Q 1544 4750 1819 4750 
Q 2544 4750 2975 4387 
Q 3406 4025 3406 3419 
Q 3406 3131 3298 2873 
Q 3191 2616 2906 2266 
Q 2828 2175 2409 1742 
Q 1991 1309 1228 531 
z
" transform="scale(0.015625)"/>
       </defs>
       <use xlink:href="#DejaVuSans-30"/>
       <use xlink:href="#DejaVuSans-2e" x="63.623047"/>
       <use xlink:href="#DejaVuSans-32" x="95.410156"/>
      </g>
     </g>
    </g>
    <g id="xtick_3">
     <g id="line2d_3">
      <path d="M 203.694545 307.584 
L 203.694545 41.472 
" clip-path="url(#pe35797ceb1)" style="fill: none; stroke: #ffffff; stroke-linecap: round"/>
     </g>
     <g id="text_3">
      <!-- 0.4 -->
      <g style="fill: #262626" transform="translate(194.947827 325.442281)scale(0.11 -0.11)">
       <defs>
        <path id="DejaVuSans-34" d="M 2419 4116 
L 825 1625 
L 2419 1625 
L 2419 4116 
z
M 2253 4666 
L 3047 4666 
L 3047 1625 
L 3713 1625 
L 3713 1100 
L 3047 1100 
L 3047 0 
L 2419 0 
L 2419 1100 
L 313 1100 
L 313 1709 
L 2253 4666 
z
" transform="scale(0.015625)"/>
       </defs>
       <use xlink:href="#DejaVuSans-30"/>
       <use xlink:href="#DejaVuSans-2e" x="63.623047"/>
       <use xlink:href="#DejaVuSans-34" x="95.410156"/>
      </g>
     </g>
    </g>
    <g id="xtick_4">
     <g id="line2d_4">
      <path d="M 268.625455 307.584 
L 268.625455 41.472 
" clip-path="url(#pe35797ceb1)" style="fill: none; stroke: #ffffff; stroke-linecap: round"/>
     </g>
     <g id="text_4">
      <!-- 0.6 -->
      <g style="fill: #262626" transform="translate(259.878736 325.442281)scale(0.11 -0.11)">
       <defs>
        <path id="DejaVuSans-36" d="M 2113 2584 
Q 1688 2584 1439 2293 
Q 1191 2003 1191 1497 
Q 1191 994 1439 701 
Q 1688 409 2113 409 
Q 2538 409 2786 701 
Q 3034 994 3034 1497 
Q 3034 2003 2786 2293 
Q 2538 2584 2113 2584 
z
M 3366 4563 
L 3366 3988 
Q 3128 4100 2886 4159 
Q 2644 4219 2406 4219 
Q 1781 4219 1451 3797 
Q 1122 3375 1075 2522 
Q 1259 2794 1537 2939 
Q 1816 3084 2150 3084 
Q 2853 3084 3261 2657 
Q 3669 2231 3669 1497 
Q 3669 778 3244 343 
Q 2819 -91 2113 -91 
Q 1303 -91 875 529 
Q 447 1150 447 2328 
Q 447 3434 972 4092 
Q 1497 4750 2381 4750 
Q 2619 4750 2861 4703 
Q 3103 4656 3366 4563 
z
" transform="scale(0.015625)"/>
       </defs>
       <use xlink:href="#DejaVuSans-30"/>
       <use xlink:href="#DejaVuSans-2e" x="63.623047"/>
       <use xlink:href="#DejaVuSans-36" x="95.410156"/>
      </g>
     </g>
    </g>
    <g id="xtick_5">
     <g id="line2d_5">
      <path d="M 333.556364 307.584 
L 333.556364 41.472 
" clip-path="url(#pe35797ceb1)" style="fill: none; stroke: #ffffff; stroke-linecap: round"/>
     </g>
     <g id="text_5">
      <!-- 0.8 -->
      <g style="fill: #262626" transform="translate(324.809645 325.442281)scale(0.11 -0.11)">
       <defs>
        <path id="DejaVuSans-38" d="M 2034 2216 
Q 1584 2216 1326 1975 
Q 1069 1734 1069 1313 
Q 1069 891 1326 650 
Q 1584 409 2034 409 
Q 2484 409 2743 651 
Q 3003 894 3003 1313 
Q 3003 1734 2745 1975 
Q 2488 2216 2034 2216 
z
M 1403 2484 
Q 997 2584 770 2862 
Q 544 3141 544 3541 
Q 544 4100 942 4425 
Q 1341 4750 2034 4750 
Q 2731 4750 3128 4425 
Q 3525 4100 3525 3541 
Q 3525 3141 3298 2862 
Q 3072 2584 2669 2484 
Q 3125 2378 3379 2068 
Q 3634 1759 3634 1313 
Q 3634 634 3220 271 
Q 2806 -91 2034 -91 
Q 1263 -91 848 271 
Q 434 634 434 1313 
Q 434 1759 690 2068 
Q 947 2378 1403 2484 
z
M 1172 3481 
Q 1172 3119 1398 2916 
Q 1625 2713 2034 2713 
Q 2441 2713 2670 2916 
Q 2900 3119 2900 3481 
Q 2900 3844 2670 4047 
Q 2441 4250 2034 4250 
Q 1625 4250 1398 4047 
Q 1172 3844 1172 3481 
z
" transform="scale(0.015625)"/>
       </defs>
       <use xlink:href="#DejaVuSans-30"/>
       <use xlink:href="#DejaVuSans-2e" x="63.623047"/>
       <use xlink:href="#DejaVuSans-38" x="95.410156"/>
      </g>
     </g>
    </g>
    <g id="xtick_6">
     <g id="line2d_6">
      <path d="M 398.487273 307.584 
L 398.487273 41.472 
" clip-path="url(#pe35797ceb1)" style="fill: none; stroke: #ffffff; stroke-linecap: round"/>
     </g>
     <g id="text_6">
      <!-- 1.0 -->
      <g style="fill: #262626" transform="translate(389.740554 325.442281)scale(0.11 -0.11)">
       <defs>
        <path id="DejaVuSans-31" d="M 794 531 
L 1825 531 
L 1825 4091 
L 703 3866 
L 703 4441 
L 1819 4666 
L 2450 4666 
L 2450 531 
L 3481 531 
L 3481 0 
L 794 0 
L 794 531 
z
" transform="scale(0.015625)"/>
       </defs>
       <use xlink:href="#DejaVuSans-31"/>
       <use xlink:href="#DejaVuSans-2e" x="63.623047"/>
       <use xlink:href="#DejaVuSans-30" x="95.410156"/>
      </g>
     </g>
    </g>
    <g id="text_7">
     <!-- Recall (Positive label: 1) -->
     <g style="fill: #262626" transform="translate(164.380313 340.848062)scale(0.12 -0.12)">
      <defs>
       <path id="DejaVuSans-52" d="M 2841 2188 
Q 3044 2119 3236 1894 
Q 3428 1669 3622 1275 
L 4263 0 
L 3584 0 
L 2988 1197 
Q 2756 1666 2539 1819 
Q 2322 1972 1947 1972 
L 1259 1972 
L 1259 0 
L 628 0 
L 628 4666 
L 2053 4666 
Q 2853 4666 3247 4331 
Q 3641 3997 3641 3322 
Q 3641 2881 3436 2590 
Q 3231 2300 2841 2188 
z
M 1259 4147 
L 1259 2491 
L 2053 2491 
Q 2509 2491 2742 2702 
Q 2975 2913 2975 3322 
Q 2975 3731 2742 3939 
Q 2509 4147 2053 4147 
L 1259 4147 
z
" transform="scale(0.015625)"/>
       <path id="DejaVuSans-65" d="M 3597 1894 
L 3597 1613 
L 953 1613 
Q 991 1019 1311 708 
Q 1631 397 2203 397 
Q 2534 397 2845 478 
Q 3156 559 3463 722 
L 3463 178 
Q 3153 47 2828 -22 
Q 2503 -91 2169 -91 
Q 1331 -91 842 396 
Q 353 884 353 1716 
Q 353 2575 817 3079 
Q 1281 3584 2069 3584 
Q 2775 3584 3186 3129 
Q 3597 2675 3597 1894 
z
M 3022 2063 
Q 3016 2534 2758 2815 
Q 2500 3097 2075 3097 
Q 1594 3097 1305 2825 
Q 1016 2553 972 2059 
L 3022 2063 
z
" transform="scale(0.015625)"/>
       <path id="DejaVuSans-63" d="M 3122 3366 
L 3122 2828 
Q 2878 2963 2633 3030 
Q 2388 3097 2138 3097 
Q 1578 3097 1268 2742 
Q 959 2388 959 1747 
Q 959 1106 1268 751 
Q 1578 397 2138 397 
Q 2388 397 2633 464 
Q 2878 531 3122 666 
L 3122 134 
Q 2881 22 2623 -34 
Q 2366 -91 2075 -91 
Q 1284 -91 818 406 
Q 353 903 353 1747 
Q 353 2603 823 3093 
Q 1294 3584 2113 3584 
Q 2378 3584 2631 3529 
Q 2884 3475 3122 3366 
z
" transform="scale(0.015625)"/>
       <path id="DejaVuSans-61" d="M 2194 1759 
Q 1497 1759 1228 1600 
Q 959 1441 959 1056 
Q 959 750 1161 570 
Q 1363 391 1709 391 
Q 2188 391 2477 730 
Q 2766 1069 2766 1631 
L 2766 1759 
L 2194 1759 
z
M 3341 1997 
L 3341 0 
L 2766 0 
L 2766 531 
Q 2569 213 2275 61 
Q 1981 -91 1556 -91 
Q 1019 -91 701 211 
Q 384 513 384 1019 
Q 384 1609 779 1909 
Q 1175 2209 1959 2209 
L 2766 2209 
L 2766 2266 
Q 2766 2663 2505 2880 
Q 2244 3097 1772 3097 
Q 1472 3097 1187 3025 
Q 903 2953 641 2809 
L 641 3341 
Q 956 3463 1253 3523 
Q 1550 3584 1831 3584 
Q 2591 3584 2966 3190 
Q 3341 2797 3341 1997 
z
" transform="scale(0.015625)"/>
       <path id="DejaVuSans-6c" d="M 603 4863 
L 1178 4863 
L 1178 0 
L 603 0 
L 603 4863 
z
" transform="scale(0.015625)"/>
       <path id="DejaVuSans-20" transform="scale(0.015625)"/>
       <path id="DejaVuSans-28" d="M 1984 4856 
Q 1566 4138 1362 3434 
Q 1159 2731 1159 2009 
Q 1159 1288 1364 580 
Q 1569 -128 1984 -844 
L 1484 -844 
Q 1016 -109 783 600 
Q 550 1309 550 2009 
Q 550 2706 781 3412 
Q 1013 4119 1484 4856 
L 1984 4856 
z
" transform="scale(0.015625)"/>
       <path id="DejaVuSans-50" d="M 1259 4147 
L 1259 2394 
L 2053 2394 
Q 2494 2394 2734 2622 
Q 2975 2850 2975 3272 
Q 2975 3691 2734 3919 
Q 2494 4147 2053 4147 
L 1259 4147 
z
M 628 4666 
L 2053 4666 
Q 2838 4666 3239 4311 
Q 3641 3956 3641 3272 
Q 3641 2581 3239 2228 
Q 2838 1875 2053 1875 
L 1259 1875 
L 1259 0 
L 628 0 
L 628 4666 
z
" transform="scale(0.015625)"/>
       <path id="DejaVuSans-6f" d="M 1959 3097 
Q 1497 3097 1228 2736 
Q 959 2375 959 1747 
Q 959 1119 1226 758 
Q 1494 397 1959 397 
Q 2419 397 2687 759 
Q 2956 1122 2956 1747 
Q 2956 2369 2687 2733 
Q 2419 3097 1959 3097 
z
M 1959 3584 
Q 2709 3584 3137 3096 
Q 3566 2609 3566 1747 
Q 3566 888 3137 398 
Q 2709 -91 1959 -91 
Q 1206 -91 779 398 
Q 353 888 353 1747 
Q 353 2609 779 3096 
Q 1206 3584 1959 3584 
z
" transform="scale(0.015625)"/>
       <path id="DejaVuSans-73" d="M 2834 3397 
L 2834 2853 
Q 2591 2978 2328 3040 
Q 2066 3103 1784 3103 
Q 1356 3103 1142 2972 
Q 928 2841 928 2578 
Q 928 2378 1081 2264 
Q 1234 2150 1697 2047 
L 1894 2003 
Q 2506 1872 2764 1633 
Q 3022 1394 3022 966 
Q 3022 478 2636 193 
Q 2250 -91 1575 -91 
Q 1294 -91 989 -36 
Q 684 19 347 128 
L 347 722 
Q 666 556 975 473 
Q 1284 391 1588 391 
Q 1994 391 2212 530 
Q 2431 669 2431 922 
Q 2431 1156 2273 1281 
Q 2116 1406 1581 1522 
L 1381 1569 
Q 847 1681 609 1914 
Q 372 2147 372 2553 
Q 372 3047 722 3315 
Q 1072 3584 1716 3584 
Q 2034 3584 2315 3537 
Q 2597 3491 2834 3397 
z
" transform="scale(0.015625)"/>
       <path id="DejaVuSans-69" d="M 603 3500 
L 1178 3500 
L 1178 0 
L 603 0 
L 603 3500 
z
M 603 4863 
L 1178 4863 
L 1178 4134 
L 603 4134 
L 603 4863 
z
" transform="scale(0.015625)"/>
       <path id="DejaVuSans-74" d="M 1172 4494 
L 1172 3500 
L 2356 3500 
L 2356 3053 
L 1172 3053 
L 1172 1153 
Q 1172 725 1289 603 
Q 1406 481 1766 481 
L 2356 481 
L 2356 0 
L 1766 0 
Q 1100 0 847 248 
Q 594 497 594 1153 
L 594 3053 
L 172 3053 
L 172 3500 
L 594 3500 
L 594 4494 
L 1172 4494 
z
" transform="scale(0.015625)"/>
       <path id="DejaVuSans-76" d="M 191 3500 
L 800 3500 
L 1894 563 
L 2988 3500 
L 3597 3500 
L 2284 0 
L 1503 0 
L 191 3500 
z
" transform="scale(0.015625)"/>
       <path id="DejaVuSans-62" d="M 3116 1747 
Q 3116 2381 2855 2742 
Q 2594 3103 2138 3103 
Q 1681 3103 1420 2742 
Q 1159 2381 1159 1747 
Q 1159 1113 1420 752 
Q 1681 391 2138 391 
Q 2594 391 2855 752 
Q 3116 1113 3116 1747 
z
M 1159 2969 
Q 1341 3281 1617 3432 
Q 1894 3584 2278 3584 
Q 2916 3584 3314 3078 
Q 3713 2572 3713 1747 
Q 3713 922 3314 415 
Q 2916 -91 2278 -91 
Q 1894 -91 1617 61 
Q 1341 213 1159 525 
L 1159 0 
L 581 0 
L 581 4863 
L 1159 4863 
L 1159 2969 
z
" transform="scale(0.015625)"/>
       <path id="DejaVuSans-3a" d="M 750 794 
L 1409 794 
L 1409 0 
L 750 0 
L 750 794 
z
M 750 3309 
L 1409 3309 
L 1409 2516 
L 750 2516 
L 750 3309 
z
" transform="scale(0.015625)"/>
       <path id="DejaVuSans-29" d="M 513 4856 
L 1013 4856 
Q 1481 4119 1714 3412 
Q 1947 2706 1947 2009 
Q 1947 1309 1714 600 
Q 1481 -109 1013 -844 
L 513 -844 
Q 928 -128 1133 580 
Q 1338 1288 1338 2009 
Q 1338 2731 1133 3434 
Q 928 4138 513 4856 
z
" transform="scale(0.015625)"/>
      </defs>
      <use xlink:href="#DejaVuSans-52"/>
      <use xlink:href="#DejaVuSans-65" x="64.982422"/>
      <use xlink:href="#DejaVuSans-63" x="126.505859"/>
      <use xlink:href="#DejaVuSans-61" x="181.486328"/>
      <use xlink:href="#DejaVuSans-6c" x="242.765625"/>
      <use xlink:href="#DejaVuSans-6c" x="270.548828"/>
      <use xlink:href="#DejaVuSans-20" x="298.332031"/>
      <use xlink:href="#DejaVuSans-28" x="330.119141"/>
      <use xlink:href="#DejaVuSans-50" x="369.132812"/>
      <use xlink:href="#DejaVuSans-6f" x="425.810547"/>
      <use xlink:href="#DejaVuSans-73" x="486.992188"/>
      <use xlink:href="#DejaVuSans-69" x="539.091797"/>
      <use xlink:href="#DejaVuSans-74" x="566.875"/>
      <use xlink:href="#DejaVuSans-69" x="606.083984"/>
      <use xlink:href="#DejaVuSans-76" x="633.867188"/>
      <use xlink:href="#DejaVuSans-65" x="693.046875"/>
      <use xlink:href="#DejaVuSans-20" x="754.570312"/>
      <use xlink:href="#DejaVuSans-6c" x="786.357422"/>
      <use xlink:href="#DejaVuSans-61" x="814.140625"/>
      <use xlink:href="#DejaVuSans-62" x="875.419922"/>
      <use xlink:href="#DejaVuSans-65" x="938.896484"/>
      <use xlink:href="#DejaVuSans-6c" x="1000.419922"/>
      <use xlink:href="#DejaVuSans-3a" x="1028.203125"/>
      <use xlink:href="#DejaVuSans-20" x="1061.894531"/>
      <use xlink:href="#DejaVuSans-31" x="1093.681641"/>
      <use xlink:href="#DejaVuSans-29" x="1157.304688"/>
     </g>
    </g>
   </g>
   <g id="matplotlib.axis_2">
    <g id="ytick_1">
     <g id="line2d_7">
      <path d="M 57.6 258.424283 
L 414.72 258.424283 
" clip-path="url(#pe35797ceb1)" style="fill: none; stroke: #ffffff; stroke-linecap: round"/>
     </g>
     <g id="text_8">
      <!-- 0.2 -->
      <g style="fill: #262626" transform="translate(30.606563 262.603424)scale(0.11 -0.11)">
       <use xlink:href="#DejaVuSans-30"/>
       <use xlink:href="#DejaVuSans-2e" x="63.623047"/>
       <use xlink:href="#DejaVuSans-32" x="95.410156"/>
      </g>
     </g>
    </g>
    <g id="ytick_2">
     <g id="line2d_8">
      <path d="M 57.6 207.210212 
L 414.72 207.210212 
" clip-path="url(#pe35797ceb1)" style="fill: none; stroke: #ffffff; stroke-linecap: round"/>
     </g>
     <g id="text_9">
      <!-- 0.4 -->
      <g style="fill: #262626" transform="translate(30.606563 211.389353)scale(0.11 -0.11)">
       <use xlink:href="#DejaVuSans-30"/>
       <use xlink:href="#DejaVuSans-2e" x="63.623047"/>
       <use xlink:href="#DejaVuSans-34" x="95.410156"/>
      </g>
     </g>
    </g>
    <g id="ytick_3">
     <g id="line2d_9">
      <path d="M 57.6 155.996142 
L 414.72 155.996142 
" clip-path="url(#pe35797ceb1)" style="fill: none; stroke: #ffffff; stroke-linecap: round"/>
     </g>
     <g id="text_10">
      <!-- 0.6 -->
      <g style="fill: #262626" transform="translate(30.606563 160.175282)scale(0.11 -0.11)">
       <use xlink:href="#DejaVuSans-30"/>
       <use xlink:href="#DejaVuSans-2e" x="63.623047"/>
       <use xlink:href="#DejaVuSans-36" x="95.410156"/>
      </g>
     </g>
    </g>
    <g id="ytick_4">
     <g id="line2d_10">
      <path d="M 57.6 104.782071 
L 414.72 104.782071 
" clip-path="url(#pe35797ceb1)" style="fill: none; stroke: #ffffff; stroke-linecap: round"/>
     </g>
     <g id="text_11">
      <!-- 0.8 -->
      <g style="fill: #262626" transform="translate(30.606563 108.961211)scale(0.11 -0.11)">
       <use xlink:href="#DejaVuSans-30"/>
       <use xlink:href="#DejaVuSans-2e" x="63.623047"/>
       <use xlink:href="#DejaVuSans-38" x="95.410156"/>
      </g>
     </g>
    </g>
    <g id="ytick_5">
     <g id="line2d_11">
      <path d="M 57.6 53.568 
L 414.72 53.568 
" clip-path="url(#pe35797ceb1)" style="fill: none; stroke: #ffffff; stroke-linecap: round"/>
     </g>
     <g id="text_12">
      <!-- 1.0 -->
      <g style="fill: #262626" transform="translate(30.606563 57.747141)scale(0.11 -0.11)">
       <use xlink:href="#DejaVuSans-31"/>
       <use xlink:href="#DejaVuSans-2e" x="63.623047"/>
       <use xlink:href="#DejaVuSans-30" x="95.410156"/>
      </g>
     </g>
    </g>
    <g id="text_13">
     <!-- Precision (Positive label: 1) -->
     <g style="fill: #262626" transform="translate(24.110937 255.1755)rotate(-90)scale(0.12 -0.12)">
      <defs>
       <path id="DejaVuSans-72" d="M 2631 2963 
Q 2534 3019 2420 3045 
Q 2306 3072 2169 3072 
Q 1681 3072 1420 2755 
Q 1159 2438 1159 1844 
L 1159 0 
L 581 0 
L 581 3500 
L 1159 3500 
L 1159 2956 
Q 1341 3275 1631 3429 
Q 1922 3584 2338 3584 
Q 2397 3584 2469 3576 
Q 2541 3569 2628 3553 
L 2631 2963 
z
" transform="scale(0.015625)"/>
       <path id="DejaVuSans-6e" d="M 3513 2113 
L 3513 0 
L 2938 0 
L 2938 2094 
Q 2938 2591 2744 2837 
Q 2550 3084 2163 3084 
Q 1697 3084 1428 2787 
Q 1159 2491 1159 1978 
L 1159 0 
L 581 0 
L 581 3500 
L 1159 3500 
L 1159 2956 
Q 1366 3272 1645 3428 
Q 1925 3584 2291 3584 
Q 2894 3584 3203 3211 
Q 3513 2838 3513 2113 
z
" transform="scale(0.015625)"/>
      </defs>
      <use xlink:href="#DejaVuSans-50"/>
      <use xlink:href="#DejaVuSans-72" x="58.552734"/>
      <use xlink:href="#DejaVuSans-65" x="97.416016"/>
      <use xlink:href="#DejaVuSans-63" x="158.939453"/>
      <use xlink:href="#DejaVuSans-69" x="213.919922"/>
      <use xlink:href="#DejaVuSans-73" x="241.703125"/>
      <use xlink:href="#DejaVuSans-69" x="293.802734"/>
      <use xlink:href="#DejaVuSans-6f" x="321.585938"/>
      <use xlink:href="#DejaVuSans-6e" x="382.767578"/>
      <use xlink:href="#DejaVuSans-20" x="446.146484"/>
      <use xlink:href="#DejaVuSans-28" x="477.933594"/>
      <use xlink:href="#DejaVuSans-50" x="516.947266"/>
      <use xlink:href="#DejaVuSans-6f" x="573.625"/>
      <use xlink:href="#DejaVuSans-73" x="634.806641"/>
      <use xlink:href="#DejaVuSans-69" x="686.90625"/>
      <use xlink:href="#DejaVuSans-74" x="714.689453"/>
      <use xlink:href="#DejaVuSans-69" x="753.898438"/>
      <use xlink:href="#DejaVuSans-76" x="781.681641"/>
      <use xlink:href="#DejaVuSans-65" x="840.861328"/>
      <use xlink:href="#DejaVuSans-20" x="902.384766"/>
      <use xlink:href="#DejaVuSans-6c" x="934.171875"/>
      <use xlink:href="#DejaVuSans-61" x="961.955078"/>
      <use xlink:href="#DejaVuSans-62" x="1023.234375"/>
      <use xlink:href="#DejaVuSans-65" x="1086.710938"/>
      <use xlink:href="#DejaVuSans-6c" x="1148.234375"/>
      <use xlink:href="#DejaVuSans-3a" x="1176.017578"/>
      <use xlink:href="#DejaVuSans-20" x="1209.708984"/>
      <use xlink:href="#DejaVuSans-31" x="1241.496094"/>
      <use xlink:href="#DejaVuSans-29" x="1305.119141"/>
     </g>
    </g>
   </g>
   <g id="line2d_12">
    <path d="M 398.487273 295.488 
L 398.487273 217.767673 
L 397.088653 217.830184 
L 397.088653 217.683783 
L 397.088653 217.27119 
L 396.913826 217.27119 
L 396.913826 217.231009 
L 396.913826 149.983154 
L 396.389344 150.048255 
L 396.389344 150.026934 
L 396.389344 148.722209 
L 396.214516 148.722209 
L 396.214516 148.699795 
L 396.214516 148.149389 
L 396.039689 148.149389 
L 396.039689 148.071198 
L 396.039689 147.348924 
L 395.864861 147.348924 
L 395.864861 147.381184 
L 395.864861 147.213563 
L 395.690034 147.213563 
L 395.690034 147.245822 
L 395.690034 146.965641 
L 395.340379 146.965641 
L 395.340379 146.86152 
L 395.340379 145.956261 
L 395.165551 145.956261 
L 395.165551 145.874502 
L 395.165551 145.302701 
L 394.815897 145.334742 
L 394.815897 145.194433 
L 394.815897 145.136895 
L 394.466242 145.053731 
L 394.466242 145.028109 
L 394.466242 144.158076 
L 394.291414 144.158076 
L 394.291414 144.073289 
L 394.291414 143.956406 
L 393.417277 143.908461 
L 393.417277 143.881765 
L 393.417277 143.823049 
L 392.892795 143.887037 
L 392.892795 143.74258 
L 392.892795 142.137137 
L 392.54314 142.168893 
L 392.54314 142.080473 
L 392.54314 142.020309 
L 391.84383 142.083875 
L 391.84383 142.147533 
L 391.669003 142.147533 
L 391.669003 142.058835 
L 391.669003 141.149066 
L 391.14452 141.090415 
L 391.14452 141.061026 
L 391.14452 140.938647 
L 390.969693 140.938647 
L 390.969693 140.970372 
L 390.969693 140.786438 
L 390.794866 140.786438 
L 390.794866 140.756742 
L 390.794866 138.704793 
L 390.620038 138.704793 
L 390.620038 138.610163 
L 390.620038 138.35763 
L 390.445211 138.35763 
L 390.445211 138.262371 
L 390.445211 136.01671 
L 390.270383 136.01671 
L 390.270383 135.917462 
L 390.270383 135.591287 
L 390.095556 135.591287 
L 390.095556 135.49126 
L 390.095556 135.294632 
L 389.920728 135.294632 
L 389.920728 135.325402 
L 389.920728 130.051387 
L 389.745901 130.051387 
L 389.745901 129.941605 
L 389.745901 129.592 
L 389.396246 129.551493 
L 389.396246 129.581093 
L 389.396246 128.947584 
L 389.221419 128.947584 
L 389.221419 128.906383 
L 389.221419 128.764854 
L 389.046591 128.764854 
L 389.046591 124.886514 
L 388.871764 124.886514 
L 388.871764 124.470305 
L 388.347282 124.470305 
L 388.347282 122.297741 
L 388.172454 122.297741 
L 388.172454 122.249467 
L 388.172454 122.173168 
L 387.997627 122.173168 
L 387.997627 122.124733 
L 387.997627 111.635589 
L 387.822799 111.635589 
L 387.822799 111.660586 
L 387.822799 111.489989 
L 387.647972 111.489989 
L 387.647972 111.42952 
L 387.647972 110.312124 
L 387.473144 110.312124 
L 387.473144 110.336742 
L 387.473144 109.642614 
L 386.948662 109.642614 
L 386.948662 103.423424 
L 386.773835 103.423424 
L 386.773835 103.445851 
L 386.773835 98.701431 
L 386.599007 98.701431 
L 386.599007 98.722211 
L 386.599007 92.215543 
L 386.249352 92.233894 
L 386.249352 92.148942 
L 386.249352 88.896568 
L 384.850733 88.896568 
L 384.850733 89.033434 
L 384.850733 88.605283 
L 384.675905 88.605283 
L 384.675905 88.51495 
L 384.675905 87.76063 
L 384.501078 87.76063 
L 384.501078 87.777301 
L 384.501078 87.45231 
L 384.326251 87.45231 
L 384.326251 87.360275 
L 384.326251 87.033876 
L 384.151423 87.033876 
L 384.151423 86.941206 
L 384.151423 86.832041 
L 383.976596 86.832041 
L 383.976596 86.739037 
L 383.976596 86.520079 
L 382.577976 86.5238 
L 382.577976 86.429941 
L 382.577976 86.319714 
L 381.354184 86.319714 
L 381.354184 86.433323 
L 379.256255 86.502273 
L 379.256255 86.518699 
L 379.256255 85.849005 
L 379.081428 85.849005 
L 379.081428 85.753107 
L 379.081428 85.528661 
L 378.9066 85.528661 
L 378.9066 85.432249 
L 378.9066 85.319696 
L 378.731773 85.319696 
L 378.731773 85.335643 
L 378.731773 84.089517 
L 378.032463 83.990919 
L 378.032463 84.037131 
L 378.032463 83.922844 
L 377.682808 83.922844 
L 377.682808 83.95363 
L 377.682808 83.609773 
L 376.983498 83.655615 
L 376.983498 83.555872 
L 376.983498 83.4407 
L 375.759706 83.416692 
L 375.759706 83.431959 
L 375.759706 83.084306 
L 374.186259 83.084306 
L 374.186259 83.221026 
L 372.08833 83.328243 
L 372.08833 83.405302 
L 371.039366 83.420761 
L 371.039366 83.498301 
L 371.039366 83.145325 
L 369.465919 83.253441 
L 369.465919 83.284476 
L 368.591781 83.228141 
L 368.591781 83.243694 
L 368.591781 83.124914 
L 367.193162 83.233865 
L 367.193162 83.249495 
L 364.745578 83.343623 
L 364.745578 83.470058 
L 363.696613 83.429239 
L 363.696613 83.445148 
L 363.696613 83.324576 
L 361.074202 83.305202 
L 361.074202 83.321199 
L 361.074202 83.077454 
L 358.626618 83.157123 
L 358.626618 83.301617 
L 357.402826 83.317759 
L 357.402826 83.41498 
L 356.703516 83.46383 
L 356.703516 83.480148 
L 356.703516 82.861215 
L 354.605587 82.893317 
L 354.605587 83.054889 
L 354.605587 82.929981 
L 352.507658 82.929981 
L 352.507658 83.12551 
L 352.507658 82.99974 
L 351.283865 83.098119 
L 351.283865 83.114579 
L 350.060073 83.213729 
L 350.060073 83.230319 
L 348.486627 83.313546 
L 348.486627 83.380465 
L 347.262834 83.48141 
L 347.262834 83.498301 
L 346.039042 83.600047 
L 346.039042 83.617072 
L 343.766286 83.564813 
L 343.766286 83.581964 
L 343.766286 83.193551 
L 343.416631 83.210528 
L 343.416631 82.967581 
L 340.969047 83.069193 
L 340.969047 83.205772 
L 339.745255 83.30904 
L 339.745255 83.326321 
L 337.99698 83.41303 
L 337.99698 83.500245 
L 335.549396 83.508071 
L 335.549396 83.613991 
L 335.374569 83.613991 
L 335.374569 83.631717 
L 335.374569 83.498301 
L 329.430436 83.586905 
L 329.430436 84.111331 
L 329.255609 84.111331 
L 329.255609 84.129742 
L 329.255609 83.857553 
L 327.856989 83.96763 
L 327.856989 84.004501 
L 321.563202 84.022969 
L 321.563202 84.683802 
L 320.514237 84.780556 
L 320.514237 84.799978 
L 318.591135 84.854791 
L 318.591135 84.874407 
L 318.591135 84.309318 
L 318.416308 84.309318 
L 318.416308 84.328653 
L 318.416308 84.186859 
L 318.24148 84.186859 
L 318.24148 84.206141 
L 318.24148 84.064091 
L 314.570104 84.165544 
L 314.570104 84.185108 
L 313.52114 84.243949 
L 313.52114 84.303017 
L 311.073556 84.303017 
L 311.073556 84.581702 
L 309.849764 84.682461 
L 309.849764 84.722949 
L 309.674936 84.722949 
L 309.674936 84.743232 
L 309.674936 84.59672 
L 308.451144 84.677788 
L 308.451144 84.738868 
L 307.402179 84.841201 
L 307.402179 84.861749 
L 304.255286 84.923554 
L 304.255286 85.236275 
L 303.206321 85.341907 
L 303.206321 85.363117 
L 297.262188 85.317963 
L 297.262188 85.489099 
L 293.76564 85.488616 
L 293.76564 85.776988 
L 292.891502 85.776988 
L 292.891502 85.889293 
L 292.891502 85.733153 
L 292.017365 85.733153 
L 292.017365 85.845776 
L 286.94737 85.845776 
L 286.94737 86.514865 
L 286.073232 86.562033 
L 286.073232 86.312629 
L 285.54875 86.359743 
L 285.54875 86.222505 
L 285.54875 85.576794 
L 281.003237 85.599939 
L 281.003237 85.860058 
L 279.779445 85.907757 
L 279.779445 86.027622 
L 279.779445 85.861739 
L 279.604617 85.861739 
L 279.604617 85.219287 
L 278.905308 85.290148 
L 278.905308 85.146183 
L 278.905308 84.978275 
L 278.555653 85.001786 
L 278.555653 85.025332 
L 278.555653 84.856956 
L 278.380825 84.856956 
L 278.380825 84.880429 
L 278.380825 83.352618 
L 278.205998 83.352618 
L 278.205998 83.375131 
L 278.205998 83.203979 
L 277.331861 83.293921 
L 277.331861 83.316492 
L 276.982206 83.339097 
L 276.982206 83.361737 
L 276.982206 83.189533 
L 276.108069 83.084506 
L 276.108069 83.129639 
L 276.108069 81.910914 
L 274.884277 81.866347 
L 274.884277 81.888233 
L 274.884277 81.535405 
L 273.835312 81.466716 
L 273.835312 81.488444 
L 273.835312 78.791636 
L 273.660485 78.791636 
L 273.660485 78.446873 
L 273.485657 78.446873 
L 273.485657 78.100473 
L 273.31083 78.100473 
L 273.31083 71.515881 
L 273.136002 71.515881 
L 273.136002 67.982556 
L 272.786347 67.994499 
L 272.786347 68.006461 
L 272.786347 67.605079 
L 272.261865 67.628435 
L 272.261865 67.236476 
L 271.91221 67.247885 
L 271.91221 67.259314 
L 271.91221 66.853659 
L 271.562555 66.864786 
L 271.562555 66.875931 
L 271.562555 66.672271 
L 268.765316 66.621714 
L 268.765316 66.643933 
L 268.765316 66.436953 
L 266.667387 66.547511 
L 266.667387 66.569851 
L 265.268768 66.64865 
L 265.268768 66.659985 
L 265.268768 66.449249 
L 263.170839 66.527931 
L 263.170839 66.584723 
L 262.996011 66.584723 
L 262.996011 66.596141 
L 262.996011 66.382759 
L 262.471529 66.4053 
L 262.471529 66.416601 
L 262.471529 66.202308 
L 260.723255 66.303293 
L 260.723255 66.314613 
L 260.198772 66.337314 
L 260.198772 66.348695 
L 260.198772 66.131666 
L 260.023945 66.131666 
L 260.023945 65.925283 
L 258.27567 66.025477 
L 258.27567 66.03671 
L 257.401533 66.081845 
L 257.401533 66.09318 
L 257.401533 65.651175 
L 255.478431 65.761826 
L 255.478431 65.773003 
L 254.429467 65.829196 
L 254.429467 65.840496 
L 254.429467 65.61559 
L 254.079812 65.626715 
L 254.079812 65.63786 
L 254.079812 65.412142 
L 253.380502 65.445104 
L 253.380502 65.456132 
L 253.380502 65.229196 
L 251.4574 65.338589 
L 251.4574 65.349641 
L 249.709126 65.450052 
L 249.709126 65.461315 
L 248.834989 65.50658 
L 248.834989 65.51795 
L 248.834989 65.052071 
L 248.485334 65.06304 
L 248.485334 65.074029 
L 248.485334 64.135203 
L 246.73706 64.186154 
L 246.73706 64.237598 
L 246.73706 63.999576 
L 244.813958 64.101746 
L 244.813958 64.112073 
L 243.764993 64.164015 
L 243.764993 64.174464 
L 243.764993 63.932151 
L 243.065684 63.962935 
L 243.065684 63.973237 
L 243.065684 63.729522 
L 242.716029 63.739613 
L 242.716029 63.749724 
L 242.716029 63.505059 
L 242.366374 63.514956 
L 242.366374 63.524873 
L 242.366374 63.033138 
L 242.016719 63.042603 
L 242.016719 63.052087 
L 242.016719 62.805007 
L 241.317409 62.832857 
L 241.317409 62.842178 
L 241.317409 62.593642 
L 240.443272 62.630146 
L 240.443272 62.639318 
L 240.443272 62.389066 
L 240.268445 62.389066 
L 240.268445 62.398012 
L 240.268445 61.895491 
L 238.869825 61.955156 
L 238.869825 61.963749 
L 238.869825 61.709724 
L 236.422241 61.819747 
L 236.422241 61.828334 
L 233.974657 61.932785 
L 233.974657 61.950451 
L 232.40121 62.012873 
L 232.40121 62.03088 
L 232.40121 61.766624 
L 229.603971 61.846136 
L 229.603971 61.909054 
L 228.030524 61.982141 
L 228.030524 61.991367 
L 228.030524 61.719526 
L 225.757768 61.791743 
L 225.757768 61.837533 
L 224.88363 61.874533 
L 224.88363 61.883835 
L 224.88363 60.48882 
L 224.708803 60.48882 
L 224.708803 60.496623 
L 224.708803 59.651119 
L 223.834666 59.67877 
L 223.834666 59.685722 
L 223.834666 59.115704 
L 223.659838 59.115704 
L 223.659838 59.122037 
L 223.659838 57.97288 
L 223.485011 57.97288 
L 223.485011 57.977937 
L 223.485011 57.688672 
L 222.610874 57.707705 
L 222.610874 57.712491 
L 222.610874 57.42091 
L 222.436046 57.42091 
L 222.436046 57.425375 
L 222.436046 57.132785 
L 222.261219 57.132785 
L 222.261219 57.136925 
L 222.261219 56.843318 
L 217.366051 56.949481 
L 217.366051 56.953546 
L 217.366051 54.809553 
L 207.575714 54.89651 
L 207.575714 54.899965 
L 207.575714 54.568275 
L 203.904338 54.59502 
L 203.904338 54.596395 
L 203.904338 54.254516 
L 201.456754 54.262899 
L 201.456754 54.267646 
L 201.456754 53.918301 
L 195.337794 53.935389 
L 195.337794 53.935917 
L 195.337794 53.568 
L 73.832727 53.568 
L 73.832727 53.568 
" clip-path="url(#pe35797ceb1)" style="fill: none; stroke: #4c72b0; stroke-width: 1.5; stroke-linecap: round"/>
   </g>
   <g id="patch_3">
    <path d="M 57.6 307.584 
L 57.6 41.472 
" style="fill: none; stroke: #ffffff; stroke-width: 1.25; stroke-linejoin: miter; stroke-linecap: square"/>
   </g>
   <g id="patch_4">
    <path d="M 414.72 307.584 
L 414.72 41.472 
" style="fill: none; stroke: #ffffff; stroke-width: 1.25; stroke-linejoin: miter; stroke-linecap: square"/>
   </g>
   <g id="patch_5">
    <path d="M 57.6 307.584 
L 414.72 307.584 
" style="fill: none; stroke: #ffffff; stroke-width: 1.25; stroke-linejoin: miter; stroke-linecap: square"/>
   </g>
   <g id="patch_6">
    <path d="M 57.6 41.472 
L 414.72 41.472 
" style="fill: none; stroke: #ffffff; stroke-width: 1.25; stroke-linejoin: miter; stroke-linecap: square"/>
   </g>
   <g id="text_14">
    <!-- Precision-recall curve -->
    <g style="fill: #262626" transform="translate(172.175625 35.472)scale(0.12 -0.12)">
     <defs>
      <path id="DejaVuSans-2d" d="M 313 2009 
L 1997 2009 
L 1997 1497 
L 313 1497 
L 313 2009 
z
" transform="scale(0.015625)"/>
      <path id="DejaVuSans-75" d="M 544 1381 
L 544 3500 
L 1119 3500 
L 1119 1403 
Q 1119 906 1312 657 
Q 1506 409 1894 409 
Q 2359 409 2629 706 
Q 2900 1003 2900 1516 
L 2900 3500 
L 3475 3500 
L 3475 0 
L 2900 0 
L 2900 538 
Q 2691 219 2414 64 
Q 2138 -91 1772 -91 
Q 1169 -91 856 284 
Q 544 659 544 1381 
z
M 1991 3584 
L 1991 3584 
z
" transform="scale(0.015625)"/>
     </defs>
     <use xlink:href="#DejaVuSans-50"/>
     <use xlink:href="#DejaVuSans-72" x="58.552734"/>
     <use xlink:href="#DejaVuSans-65" x="97.416016"/>
     <use xlink:href="#DejaVuSans-63" x="158.939453"/>
     <use xlink:href="#DejaVuSans-69" x="213.919922"/>
     <use xlink:href="#DejaVuSans-73" x="241.703125"/>
     <use xlink:href="#DejaVuSans-69" x="293.802734"/>
     <use xlink:href="#DejaVuSans-6f" x="321.585938"/>
     <use xlink:href="#DejaVuSans-6e" x="382.767578"/>
     <use xlink:href="#DejaVuSans-2d" x="446.146484"/>
     <use xlink:href="#DejaVuSans-72" x="482.230469"/>
     <use xlink:href="#DejaVuSans-65" x="521.09375"/>
     <use xlink:href="#DejaVuSans-63" x="582.617188"/>
     <use xlink:href="#DejaVuSans-61" x="637.597656"/>
     <use xlink:href="#DejaVuSans-6c" x="698.876953"/>
     <use xlink:href="#DejaVuSans-6c" x="726.660156"/>
     <use xlink:href="#DejaVuSans-20" x="754.443359"/>
     <use xlink:href="#DejaVuSans-63" x="786.230469"/>
     <use xlink:href="#DejaVuSans-75" x="841.210938"/>
     <use xlink:href="#DejaVuSans-72" x="904.589844"/>
     <use xlink:href="#DejaVuSans-76" x="945.703125"/>
     <use xlink:href="#DejaVuSans-65" x="1004.882812"/>
    </g>
   </g>
   <g id="legend_1">
    <g id="patch_7">
     <path d="M 65.3 302.084 
L 250.215156 302.084 
Q 252.415156 302.084 252.415156 299.884 
L 252.415156 284.838062 
Q 252.415156 282.638062 250.215156 282.638062 
L 65.3 282.638062 
Q 63.1 282.638062 63.1 284.838062 
L 63.1 299.884 
Q 63.1 302.084 65.3 302.084 
z
" style="fill: #eaeaf2; opacity: 0.8; stroke: #cccccc; stroke-linejoin: miter"/>
    </g>
    <g id="line2d_13">
     <path d="M 67.5 291.546344 
L 78.5 291.546344 
L 78.5 291.546344 
L 89.5 291.546344 
L 89.5 291.546344 
" style="fill: none; stroke: #4c72b0; stroke-width: 1.5; stroke-linecap: round"/>
    </g>
    <g id="text_15">
     <!-- Random Forest (AP = 0.94) -->
     <g style="fill: #262626" transform="translate(98.3 295.396344)scale(0.11 -0.11)">
      <defs>
       <path id="DejaVuSans-64" d="M 2906 2969 
L 2906 4863 
L 3481 4863 
L 3481 0 
L 2906 0 
L 2906 525 
Q 2725 213 2448 61 
Q 2172 -91 1784 -91 
Q 1150 -91 751 415 
Q 353 922 353 1747 
Q 353 2572 751 3078 
Q 1150 3584 1784 3584 
Q 2172 3584 2448 3432 
Q 2725 3281 2906 2969 
z
M 947 1747 
Q 947 1113 1208 752 
Q 1469 391 1925 391 
Q 2381 391 2643 752 
Q 2906 1113 2906 1747 
Q 2906 2381 2643 2742 
Q 2381 3103 1925 3103 
Q 1469 3103 1208 2742 
Q 947 2381 947 1747 
z
" transform="scale(0.015625)"/>
       <path id="DejaVuSans-6d" d="M 3328 2828 
Q 3544 3216 3844 3400 
Q 4144 3584 4550 3584 
Q 5097 3584 5394 3201 
Q 5691 2819 5691 2113 
L 5691 0 
L 5113 0 
L 5113 2094 
Q 5113 2597 4934 2840 
Q 4756 3084 4391 3084 
Q 3944 3084 3684 2787 
Q 3425 2491 3425 1978 
L 3425 0 
L 2847 0 
L 2847 2094 
Q 2847 2600 2669 2842 
Q 2491 3084 2119 3084 
Q 1678 3084 1418 2786 
Q 1159 2488 1159 1978 
L 1159 0 
L 581 0 
L 581 3500 
L 1159 3500 
L 1159 2956 
Q 1356 3278 1631 3431 
Q 1906 3584 2284 3584 
Q 2666 3584 2933 3390 
Q 3200 3197 3328 2828 
z
" transform="scale(0.015625)"/>
       <path id="DejaVuSans-46" d="M 628 4666 
L 3309 4666 
L 3309 4134 
L 1259 4134 
L 1259 2759 
L 3109 2759 
L 3109 2228 
L 1259 2228 
L 1259 0 
L 628 0 
L 628 4666 
z
" transform="scale(0.015625)"/>
       <path id="DejaVuSans-41" d="M 2188 4044 
L 1331 1722 
L 3047 1722 
L 2188 4044 
z
M 1831 4666 
L 2547 4666 
L 4325 0 
L 3669 0 
L 3244 1197 
L 1141 1197 
L 716 0 
L 50 0 
L 1831 4666 
z
" transform="scale(0.015625)"/>
       <path id="DejaVuSans-3d" d="M 678 2906 
L 4684 2906 
L 4684 2381 
L 678 2381 
L 678 2906 
z
M 678 1631 
L 4684 1631 
L 4684 1100 
L 678 1100 
L 678 1631 
z
" transform="scale(0.015625)"/>
       <path id="DejaVuSans-39" d="M 703 97 
L 703 672 
Q 941 559 1184 500 
Q 1428 441 1663 441 
Q 2288 441 2617 861 
Q 2947 1281 2994 2138 
Q 2813 1869 2534 1725 
Q 2256 1581 1919 1581 
Q 1219 1581 811 2004 
Q 403 2428 403 3163 
Q 403 3881 828 4315 
Q 1253 4750 1959 4750 
Q 2769 4750 3195 4129 
Q 3622 3509 3622 2328 
Q 3622 1225 3098 567 
Q 2575 -91 1691 -91 
Q 1453 -91 1209 -44 
Q 966 3 703 97 
z
M 1959 2075 
Q 2384 2075 2632 2365 
Q 2881 2656 2881 3163 
Q 2881 3666 2632 3958 
Q 2384 4250 1959 4250 
Q 1534 4250 1286 3958 
Q 1038 3666 1038 3163 
Q 1038 2656 1286 2365 
Q 1534 2075 1959 2075 
z
" transform="scale(0.015625)"/>
      </defs>
      <use xlink:href="#DejaVuSans-52"/>
      <use xlink:href="#DejaVuSans-61" x="67.232422"/>
      <use xlink:href="#DejaVuSans-6e" x="128.511719"/>
      <use xlink:href="#DejaVuSans-64" x="191.890625"/>
      <use xlink:href="#DejaVuSans-6f" x="255.367188"/>
      <use xlink:href="#DejaVuSans-6d" x="316.548828"/>
      <use xlink:href="#DejaVuSans-20" x="413.960938"/>
      <use xlink:href="#DejaVuSans-46" x="445.748047"/>
      <use xlink:href="#DejaVuSans-6f" x="499.642578"/>
      <use xlink:href="#DejaVuSans-72" x="560.824219"/>
      <use xlink:href="#DejaVuSans-65" x="599.6875"/>
      <use xlink:href="#DejaVuSans-73" x="661.210938"/>
      <use xlink:href="#DejaVuSans-74" x="713.310547"/>
      <use xlink:href="#DejaVuSans-20" x="752.519531"/>
      <use xlink:href="#DejaVuSans-28" x="784.306641"/>
      <use xlink:href="#DejaVuSans-41" x="823.320312"/>
      <use xlink:href="#DejaVuSans-50" x="891.728516"/>
      <use xlink:href="#DejaVuSans-20" x="952.03125"/>
      <use xlink:href="#DejaVuSans-3d" x="983.818359"/>
      <use xlink:href="#DejaVuSans-20" x="1067.607422"/>
      <use xlink:href="#DejaVuSans-30" x="1099.394531"/>
      <use xlink:href="#DejaVuSans-2e" x="1163.017578"/>
      <use xlink:href="#DejaVuSans-39" x="1194.804688"/>
      <use xlink:href="#DejaVuSans-34" x="1258.427734"/>
      <use xlink:href="#DejaVuSans-29" x="1322.050781"/>
     </g>
    </g>
   </g>
  </g>
 </g>
 <defs>
  <clipPath id="pe35797ceb1">
   <rect x="57.6" y="41.472" width="357.12" height="266.112"/>
  </clipPath>
 </defs>
</svg>
