<?xml version="1.0" encoding="utf-8" standalone="no"?>
<!DOCTYPE svg PUBLIC "-//W3C//DTD SVG 1.1//EN"
  "http://www.w3.org/Graphics/SVG/1.1/DTD/svg11.dtd">
<svg xmlns:xlink="http://www.w3.org/1999/xlink" width="3537pt" height="2168.373437pt" viewBox="0 0 3537 2168.373437" xmlns="http://www.w3.org/2000/svg" version="1.1">
 <metadata>
  <rdf:RDF xmlns:dc="http://purl.org/dc/elements/1.1/" xmlns:cc="http://creativecommons.org/ns#" xmlns:rdf="http://www.w3.org/1999/02/22-rdf-syntax-ns#">
   <cc:Work>
    <dc:type rdf:resource="http://purl.org/dc/dcmitype/StillImage"/>
    <dc:date>2022-11-21T12:28:49.773518</dc:date>
    <dc:format>image/svg+xml</dc:format>
    <dc:creator>
     <cc:Agent>
      <dc:title>Matplotlib v3.5.2, https://matplotlib.org/</dc:title>
     </cc:Agent>
    </dc:creator>
   </cc:Work>
  </rdf:RDF>
 </metadata>
 <defs>
  <style type="text/css">*{stroke-linejoin: round; stroke-linecap: butt}</style>
 </defs>
 <g id="figure_1">
  <g id="patch_1">
   <path d="M 0 2168.373437 
L 3537 2168.373437 
L 3537 0 
L 0 0 
z
" style="fill: #ffffff"/>
  </g>
  <g id="axes_1">
   <g id="patch_2">
    <path d="M 118.53 2080.894375 
L 3529.8 2080.894375 
L 3529.8 40.554375 
L 118.53 40.554375 
z
" style="fill: #eaeaf2"/>
   </g>
   <g id="matplotlib.axis_1">
    <g id="xtick_1">
     <g id="line2d_1">
      <path d="M 273.587727 2080.894375 
L 273.587727 40.554375 
" clip-path="url(#pdc7b86ae9c)" style="fill: none; stroke: #ffffff; stroke-linecap: round"/>
     </g>
     <g id="text_1">
      <!-- 0.0 -->
      <g style="fill: #262626" transform="translate(247.347571 2115.469219)scale(0.33 -0.33)">
       <defs>
        <path id="DejaVuSans-30" d="M 2034 4250 
Q 1547 4250 1301 3770 
Q 1056 3291 1056 2328 
Q 1056 1369 1301 889 
Q 1547 409 2034 409 
Q 2525 409 2770 889 
Q 3016 1369 3016 2328 
Q 3016 3291 2770 3770 
Q 2525 4250 2034 4250 
z
M 2034 4750 
Q 2819 4750 3233 4129 
Q 3647 3509 3647 2328 
Q 3647 1150 3233 529 
Q 2819 -91 2034 -91 
Q 1250 -91 836 529 
Q 422 1150 422 2328 
Q 422 3509 836 4129 
Q 1250 4750 2034 4750 
z
" transform="scale(0.015625)"/>
        <path id="DejaVuSans-2e" d="M 684 794 
L 1344 794 
L 1344 0 
L 684 0 
L 684 794 
z
" transform="scale(0.015625)"/>
       </defs>
       <use xlink:href="#DejaVuSans-30"/>
       <use xlink:href="#DejaVuSans-2e" x="63.623047"/>
       <use xlink:href="#DejaVuSans-30" x="95.410156"/>
      </g>
     </g>
    </g>
    <g id="xtick_2">
     <g id="line2d_2">
      <path d="M 893.818636 2080.894375 
L 893.818636 40.554375 
" clip-path="url(#pdc7b86ae9c)" style="fill: none; stroke: #ffffff; stroke-linecap: round"/>
     </g>
     <g id="text_2">
      <!-- 0.2 -->
      <g style="fill: #262626" transform="translate(867.57848 2115.469219)scale(0.33 -0.33)">
       <defs>
        <path id="DejaVuSans-32" d="M 1228 531 
L 3431 531 
L 3431 0 
L 469 0 
L 469 531 
Q 828 903 1448 1529 
Q 2069 2156 2228 2338 
Q 2531 2678 2651 2914 
Q 2772 3150 2772 3378 
Q 2772 3750 2511 3984 
Q 2250 4219 1831 4219 
Q 1534 4219 1204 4116 
Q 875 4013 500 3803 
L 500 4441 
Q 881 4594 1212 4672 
Q 1544 4750 1819 4750 
Q 2544 4750 2975 4387 
Q 3406 4025 3406 3419 
Q 3406 3131 3298 2873 
Q 3191 2616 2906 2266 
Q 2828 2175 2409 1742 
Q 1991 1309 1228 531 
z
" transform="scale(0.015625)"/>
       </defs>
       <use xlink:href="#DejaVuSans-30"/>
       <use xlink:href="#DejaVuSans-2e" x="63.623047"/>
       <use xlink:href="#DejaVuSans-32" x="95.410156"/>
      </g>
     </g>
    </g>
    <g id="xtick_3">
     <g id="line2d_3">
      <path d="M 1514.049545 2080.894375 
L 1514.049545 40.554375 
" clip-path="url(#pdc7b86ae9c)" style="fill: none; stroke: #ffffff; stroke-linecap: round"/>
     </g>
     <g id="text_3">
      <!-- 0.4 -->
      <g style="fill: #262626" transform="translate(1487.809389 2115.469219)scale(0.33 -0.33)">
       <defs>
        <path id="DejaVuSans-34" d="M 2419 4116 
L 825 1625 
L 2419 1625 
L 2419 4116 
z
M 2253 4666 
L 3047 4666 
L 3047 1625 
L 3713 1625 
L 3713 1100 
L 3047 1100 
L 3047 0 
L 2419 0 
L 2419 1100 
L 313 1100 
L 313 1709 
L 2253 4666 
z
" transform="scale(0.015625)"/>
       </defs>
       <use xlink:href="#DejaVuSans-30"/>
       <use xlink:href="#DejaVuSans-2e" x="63.623047"/>
       <use xlink:href="#DejaVuSans-34" x="95.410156"/>
      </g>
     </g>
    </g>
    <g id="xtick_4">
     <g id="line2d_4">
      <path d="M 2134.280455 2080.894375 
L 2134.280455 40.554375 
" clip-path="url(#pdc7b86ae9c)" style="fill: none; stroke: #ffffff; stroke-linecap: round"/>
     </g>
     <g id="text_4">
      <!-- 0.6 -->
      <g style="fill: #262626" transform="translate(2108.040298 2115.469219)scale(0.33 -0.33)">
       <defs>
        <path id="DejaVuSans-36" d="M 2113 2584 
Q 1688 2584 1439 2293 
Q 1191 2003 1191 1497 
Q 1191 994 1439 701 
Q 1688 409 2113 409 
Q 2538 409 2786 701 
Q 3034 994 3034 1497 
Q 3034 2003 2786 2293 
Q 2538 2584 2113 2584 
z
M 3366 4563 
L 3366 3988 
Q 3128 4100 2886 4159 
Q 2644 4219 2406 4219 
Q 1781 4219 1451 3797 
Q 1122 3375 1075 2522 
Q 1259 2794 1537 2939 
Q 1816 3084 2150 3084 
Q 2853 3084 3261 2657 
Q 3669 2231 3669 1497 
Q 3669 778 3244 343 
Q 2819 -91 2113 -91 
Q 1303 -91 875 529 
Q 447 1150 447 2328 
Q 447 3434 972 4092 
Q 1497 4750 2381 4750 
Q 2619 4750 2861 4703 
Q 3103 4656 3366 4563 
z
" transform="scale(0.015625)"/>
       </defs>
       <use xlink:href="#DejaVuSans-30"/>
       <use xlink:href="#DejaVuSans-2e" x="63.623047"/>
       <use xlink:href="#DejaVuSans-36" x="95.410156"/>
      </g>
     </g>
    </g>
    <g id="xtick_5">
     <g id="line2d_5">
      <path d="M 2754.511364 2080.894375 
L 2754.511364 40.554375 
" clip-path="url(#pdc7b86ae9c)" style="fill: none; stroke: #ffffff; stroke-linecap: round"/>
     </g>
     <g id="text_5">
      <!-- 0.8 -->
      <g style="fill: #262626" transform="translate(2728.271207 2115.469219)scale(0.33 -0.33)">
       <defs>
        <path id="DejaVuSans-38" d="M 2034 2216 
Q 1584 2216 1326 1975 
Q 1069 1734 1069 1313 
Q 1069 891 1326 650 
Q 1584 409 2034 409 
Q 2484 409 2743 651 
Q 3003 894 3003 1313 
Q 3003 1734 2745 1975 
Q 2488 2216 2034 2216 
z
M 1403 2484 
Q 997 2584 770 2862 
Q 544 3141 544 3541 
Q 544 4100 942 4425 
Q 1341 4750 2034 4750 
Q 2731 4750 3128 4425 
Q 3525 4100 3525 3541 
Q 3525 3141 3298 2862 
Q 3072 2584 2669 2484 
Q 3125 2378 3379 2068 
Q 3634 1759 3634 1313 
Q 3634 634 3220 271 
Q 2806 -91 2034 -91 
Q 1263 -91 848 271 
Q 434 634 434 1313 
Q 434 1759 690 2068 
Q 947 2378 1403 2484 
z
M 1172 3481 
Q 1172 3119 1398 2916 
Q 1625 2713 2034 2713 
Q 2441 2713 2670 2916 
Q 2900 3119 2900 3481 
Q 2900 3844 2670 4047 
Q 2441 4250 2034 4250 
Q 1625 4250 1398 4047 
Q 1172 3844 1172 3481 
z
" transform="scale(0.015625)"/>
       </defs>
       <use xlink:href="#DejaVuSans-30"/>
       <use xlink:href="#DejaVuSans-2e" x="63.623047"/>
       <use xlink:href="#DejaVuSans-38" x="95.410156"/>
      </g>
     </g>
    </g>
    <g id="xtick_6">
     <g id="line2d_6">
      <path d="M 3374.742273 2080.894375 
L 3374.742273 40.554375 
" clip-path="url(#pdc7b86ae9c)" style="fill: none; stroke: #ffffff; stroke-linecap: round"/>
     </g>
     <g id="text_6">
      <!-- 1.0 -->
      <g style="fill: #262626" transform="translate(3348.502116 2115.469219)scale(0.33 -0.33)">
       <defs>
        <path id="DejaVuSans-31" d="M 794 531 
L 1825 531 
L 1825 4091 
L 703 3866 
L 703 4441 
L 1819 4666 
L 2450 4666 
L 2450 531 
L 3481 531 
L 3481 0 
L 794 0 
L 794 531 
z
" transform="scale(0.015625)"/>
       </defs>
       <use xlink:href="#DejaVuSans-31"/>
       <use xlink:href="#DejaVuSans-2e" x="63.623047"/>
       <use xlink:href="#DejaVuSans-30" x="95.410156"/>
      </g>
     </g>
    </g>
    <g id="text_7">
     <!-- probability -->
     <g style="fill: #262626" transform="translate(1728.132187 2153.686563)scale(0.36 -0.36)">
      <defs>
       <path id="DejaVuSans-70" d="M 1159 525 
L 1159 -1331 
L 581 -1331 
L 581 3500 
L 1159 3500 
L 1159 2969 
Q 1341 3281 1617 3432 
Q 1894 3584 2278 3584 
Q 2916 3584 3314 3078 
Q 3713 2572 3713 1747 
Q 3713 922 3314 415 
Q 2916 -91 2278 -91 
Q 1894 -91 1617 61 
Q 1341 213 1159 525 
z
M 3116 1747 
Q 3116 2381 2855 2742 
Q 2594 3103 2138 3103 
Q 1681 3103 1420 2742 
Q 1159 2381 1159 1747 
Q 1159 1113 1420 752 
Q 1681 391 2138 391 
Q 2594 391 2855 752 
Q 3116 1113 3116 1747 
z
" transform="scale(0.015625)"/>
       <path id="DejaVuSans-72" d="M 2631 2963 
Q 2534 3019 2420 3045 
Q 2306 3072 2169 3072 
Q 1681 3072 1420 2755 
Q 1159 2438 1159 1844 
L 1159 0 
L 581 0 
L 581 3500 
L 1159 3500 
L 1159 2956 
Q 1341 3275 1631 3429 
Q 1922 3584 2338 3584 
Q 2397 3584 2469 3576 
Q 2541 3569 2628 3553 
L 2631 2963 
z
" transform="scale(0.015625)"/>
       <path id="DejaVuSans-6f" d="M 1959 3097 
Q 1497 3097 1228 2736 
Q 959 2375 959 1747 
Q 959 1119 1226 758 
Q 1494 397 1959 397 
Q 2419 397 2687 759 
Q 2956 1122 2956 1747 
Q 2956 2369 2687 2733 
Q 2419 3097 1959 3097 
z
M 1959 3584 
Q 2709 3584 3137 3096 
Q 3566 2609 3566 1747 
Q 3566 888 3137 398 
Q 2709 -91 1959 -91 
Q 1206 -91 779 398 
Q 353 888 353 1747 
Q 353 2609 779 3096 
Q 1206 3584 1959 3584 
z
" transform="scale(0.015625)"/>
       <path id="DejaVuSans-62" d="M 3116 1747 
Q 3116 2381 2855 2742 
Q 2594 3103 2138 3103 
Q 1681 3103 1420 2742 
Q 1159 2381 1159 1747 
Q 1159 1113 1420 752 
Q 1681 391 2138 391 
Q 2594 391 2855 752 
Q 3116 1113 3116 1747 
z
M 1159 2969 
Q 1341 3281 1617 3432 
Q 1894 3584 2278 3584 
Q 2916 3584 3314 3078 
Q 3713 2572 3713 1747 
Q 3713 922 3314 415 
Q 2916 -91 2278 -91 
Q 1894 -91 1617 61 
Q 1341 213 1159 525 
L 1159 0 
L 581 0 
L 581 4863 
L 1159 4863 
L 1159 2969 
z
" transform="scale(0.015625)"/>
       <path id="DejaVuSans-61" d="M 2194 1759 
Q 1497 1759 1228 1600 
Q 959 1441 959 1056 
Q 959 750 1161 570 
Q 1363 391 1709 391 
Q 2188 391 2477 730 
Q 2766 1069 2766 1631 
L 2766 1759 
L 2194 1759 
z
M 3341 1997 
L 3341 0 
L 2766 0 
L 2766 531 
Q 2569 213 2275 61 
Q 1981 -91 1556 -91 
Q 1019 -91 701 211 
Q 384 513 384 1019 
Q 384 1609 779 1909 
Q 1175 2209 1959 2209 
L 2766 2209 
L 2766 2266 
Q 2766 2663 2505 2880 
Q 2244 3097 1772 3097 
Q 1472 3097 1187 3025 
Q 903 2953 641 2809 
L 641 3341 
Q 956 3463 1253 3523 
Q 1550 3584 1831 3584 
Q 2591 3584 2966 3190 
Q 3341 2797 3341 1997 
z
" transform="scale(0.015625)"/>
       <path id="DejaVuSans-69" d="M 603 3500 
L 1178 3500 
L 1178 0 
L 603 0 
L 603 3500 
z
M 603 4863 
L 1178 4863 
L 1178 4134 
L 603 4134 
L 603 4863 
z
" transform="scale(0.015625)"/>
       <path id="DejaVuSans-6c" d="M 603 4863 
L 1178 4863 
L 1178 0 
L 603 0 
L 603 4863 
z
" transform="scale(0.015625)"/>
       <path id="DejaVuSans-74" d="M 1172 4494 
L 1172 3500 
L 2356 3500 
L 2356 3053 
L 1172 3053 
L 1172 1153 
Q 1172 725 1289 603 
Q 1406 481 1766 481 
L 2356 481 
L 2356 0 
L 1766 0 
Q 1100 0 847 248 
Q 594 497 594 1153 
L 594 3053 
L 172 3053 
L 172 3500 
L 594 3500 
L 594 4494 
L 1172 4494 
z
" transform="scale(0.015625)"/>
       <path id="DejaVuSans-79" d="M 2059 -325 
Q 1816 -950 1584 -1140 
Q 1353 -1331 966 -1331 
L 506 -1331 
L 506 -850 
L 844 -850 
Q 1081 -850 1212 -737 
Q 1344 -625 1503 -206 
L 1606 56 
L 191 3500 
L 800 3500 
L 1894 763 
L 2988 3500 
L 3597 3500 
L 2059 -325 
z
" transform="scale(0.015625)"/>
      </defs>
      <use xlink:href="#DejaVuSans-70"/>
      <use xlink:href="#DejaVuSans-72" x="63.476562"/>
      <use xlink:href="#DejaVuSans-6f" x="102.339844"/>
      <use xlink:href="#DejaVuSans-62" x="163.521484"/>
      <use xlink:href="#DejaVuSans-61" x="226.998047"/>
      <use xlink:href="#DejaVuSans-62" x="288.277344"/>
      <use xlink:href="#DejaVuSans-69" x="351.753906"/>
      <use xlink:href="#DejaVuSans-6c" x="379.537109"/>
      <use xlink:href="#DejaVuSans-69" x="407.320312"/>
      <use xlink:href="#DejaVuSans-74" x="435.103516"/>
      <use xlink:href="#DejaVuSans-79" x="474.3125"/>
     </g>
    </g>
   </g>
   <g id="matplotlib.axis_2">
    <g id="ytick_1">
     <g id="line2d_7">
      <path d="M 118.53 2080.894375 
L 3529.8 2080.894375 
" clip-path="url(#pdc7b86ae9c)" style="fill: none; stroke: #ffffff; stroke-linecap: round"/>
     </g>
     <g id="text_8">
      <!-- 0 -->
      <g style="fill: #262626" transform="translate(88.03375 2093.431797)scale(0.33 -0.33)">
       <use xlink:href="#DejaVuSans-30"/>
      </g>
     </g>
    </g>
    <g id="ytick_2">
     <g id="line2d_8">
      <path d="M 118.53 1687.537907 
L 3529.8 1687.537907 
" clip-path="url(#pdc7b86ae9c)" style="fill: none; stroke: #ffffff; stroke-linecap: round"/>
     </g>
     <g id="text_9">
      <!-- 50 -->
      <g style="fill: #262626" transform="translate(67.0375 1700.075329)scale(0.33 -0.33)">
       <defs>
        <path id="DejaVuSans-35" d="M 691 4666 
L 3169 4666 
L 3169 4134 
L 1269 4134 
L 1269 2991 
Q 1406 3038 1543 3061 
Q 1681 3084 1819 3084 
Q 2600 3084 3056 2656 
Q 3513 2228 3513 1497 
Q 3513 744 3044 326 
Q 2575 -91 1722 -91 
Q 1428 -91 1123 -41 
Q 819 9 494 109 
L 494 744 
Q 775 591 1075 516 
Q 1375 441 1709 441 
Q 2250 441 2565 725 
Q 2881 1009 2881 1497 
Q 2881 1984 2565 2268 
Q 2250 2553 1709 2553 
Q 1456 2553 1204 2497 
Q 953 2441 691 2322 
L 691 4666 
z
" transform="scale(0.015625)"/>
       </defs>
       <use xlink:href="#DejaVuSans-35"/>
       <use xlink:href="#DejaVuSans-30" x="63.623047"/>
      </g>
     </g>
    </g>
    <g id="ytick_3">
     <g id="line2d_9">
      <path d="M 118.53 1294.181439 
L 3529.8 1294.181439 
" clip-path="url(#pdc7b86ae9c)" style="fill: none; stroke: #ffffff; stroke-linecap: round"/>
     </g>
     <g id="text_10">
      <!-- 100 -->
      <g style="fill: #262626" transform="translate(46.04125 1306.718861)scale(0.33 -0.33)">
       <use xlink:href="#DejaVuSans-31"/>
       <use xlink:href="#DejaVuSans-30" x="63.623047"/>
       <use xlink:href="#DejaVuSans-30" x="127.246094"/>
      </g>
     </g>
    </g>
    <g id="ytick_4">
     <g id="line2d_10">
      <path d="M 118.53 900.824971 
L 3529.8 900.824971 
" clip-path="url(#pdc7b86ae9c)" style="fill: none; stroke: #ffffff; stroke-linecap: round"/>
     </g>
     <g id="text_11">
      <!-- 150 -->
      <g style="fill: #262626" transform="translate(46.04125 913.362393)scale(0.33 -0.33)">
       <use xlink:href="#DejaVuSans-31"/>
       <use xlink:href="#DejaVuSans-35" x="63.623047"/>
       <use xlink:href="#DejaVuSans-30" x="127.246094"/>
      </g>
     </g>
    </g>
    <g id="ytick_5">
     <g id="line2d_11">
      <path d="M 118.53 507.468503 
L 3529.8 507.468503 
" clip-path="url(#pdc7b86ae9c)" style="fill: none; stroke: #ffffff; stroke-linecap: round"/>
     </g>
     <g id="text_12">
      <!-- 200 -->
      <g style="fill: #262626" transform="translate(46.04125 520.005925)scale(0.33 -0.33)">
       <use xlink:href="#DejaVuSans-32"/>
       <use xlink:href="#DejaVuSans-30" x="63.623047"/>
       <use xlink:href="#DejaVuSans-30" x="127.246094"/>
      </g>
     </g>
    </g>
    <g id="ytick_6">
     <g id="line2d_12">
      <path d="M 118.53 114.112035 
L 3529.8 114.112035 
" clip-path="url(#pdc7b86ae9c)" style="fill: none; stroke: #ffffff; stroke-linecap: round"/>
     </g>
     <g id="text_13">
      <!-- 250 -->
      <g style="fill: #262626" transform="translate(46.04125 126.649456)scale(0.33 -0.33)">
       <use xlink:href="#DejaVuSans-32"/>
       <use xlink:href="#DejaVuSans-35" x="63.623047"/>
       <use xlink:href="#DejaVuSans-30" x="127.246094"/>
      </g>
     </g>
    </g>
    <g id="text_14">
     <!-- Count -->
     <g style="fill: #262626" transform="translate(34.554375 1114.17875)rotate(-90)scale(0.36 -0.36)">
      <defs>
       <path id="DejaVuSans-43" d="M 4122 4306 
L 4122 3641 
Q 3803 3938 3442 4084 
Q 3081 4231 2675 4231 
Q 1875 4231 1450 3742 
Q 1025 3253 1025 2328 
Q 1025 1406 1450 917 
Q 1875 428 2675 428 
Q 3081 428 3442 575 
Q 3803 722 4122 1019 
L 4122 359 
Q 3791 134 3420 21 
Q 3050 -91 2638 -91 
Q 1578 -91 968 557 
Q 359 1206 359 2328 
Q 359 3453 968 4101 
Q 1578 4750 2638 4750 
Q 3056 4750 3426 4639 
Q 3797 4528 4122 4306 
z
" transform="scale(0.015625)"/>
       <path id="DejaVuSans-75" d="M 544 1381 
L 544 3500 
L 1119 3500 
L 1119 1403 
Q 1119 906 1312 657 
Q 1506 409 1894 409 
Q 2359 409 2629 706 
Q 2900 1003 2900 1516 
L 2900 3500 
L 3475 3500 
L 3475 0 
L 2900 0 
L 2900 538 
Q 2691 219 2414 64 
Q 2138 -91 1772 -91 
Q 1169 -91 856 284 
Q 544 659 544 1381 
z
M 1991 3584 
L 1991 3584 
z
" transform="scale(0.015625)"/>
       <path id="DejaVuSans-6e" d="M 3513 2113 
L 3513 0 
L 2938 0 
L 2938 2094 
Q 2938 2591 2744 2837 
Q 2550 3084 2163 3084 
Q 1697 3084 1428 2787 
Q 1159 2491 1159 1978 
L 1159 0 
L 581 0 
L 581 3500 
L 1159 3500 
L 1159 2956 
Q 1366 3272 1645 3428 
Q 1925 3584 2291 3584 
Q 2894 3584 3203 3211 
Q 3513 2838 3513 2113 
z
" transform="scale(0.015625)"/>
      </defs>
      <use xlink:href="#DejaVuSans-43"/>
      <use xlink:href="#DejaVuSans-6f" x="69.824219"/>
      <use xlink:href="#DejaVuSans-75" x="131.005859"/>
      <use xlink:href="#DejaVuSans-6e" x="194.384766"/>
      <use xlink:href="#DejaVuSans-74" x="257.763672"/>
     </g>
    </g>
   </g>
   <g id="patch_3">
    <path d="M 304.599273 2080.894375 
L 335.610818 2080.894375 
L 335.610818 2080.894375 
L 304.599273 2080.894375 
z
" clip-path="url(#pdc7b86ae9c)" style="fill: #ffa500; fill-opacity: 0.5; stroke: #ffffff; stroke-linejoin: miter"/>
   </g>
   <g id="patch_4">
    <path d="M 335.610818 2080.894375 
L 366.622364 2080.894375 
L 366.622364 2080.894375 
L 335.610818 2080.894375 
z
" clip-path="url(#pdc7b86ae9c)" style="fill: #ffa500; fill-opacity: 0.5; stroke: #ffffff; stroke-linejoin: miter"/>
   </g>
   <g id="patch_5">
    <path d="M 366.622364 2080.894375 
L 397.633909 2080.894375 
L 397.633909 2080.894375 
L 366.622364 2080.894375 
z
" clip-path="url(#pdc7b86ae9c)" style="fill: #ffa500; fill-opacity: 0.5; stroke: #ffffff; stroke-linejoin: miter"/>
   </g>
   <g id="patch_6">
    <path d="M 397.633909 2080.894375 
L 428.645455 2080.894375 
L 428.645455 2080.894375 
L 397.633909 2080.894375 
z
" clip-path="url(#pdc7b86ae9c)" style="fill: #ffa500; fill-opacity: 0.5; stroke: #ffffff; stroke-linejoin: miter"/>
   </g>
   <g id="patch_7">
    <path d="M 428.645455 2080.894375 
L 459.657 2080.894375 
L 459.657 2073.027246 
L 428.645455 2073.027246 
z
" clip-path="url(#pdc7b86ae9c)" style="fill: #ffa500; fill-opacity: 0.5; stroke: #ffffff; stroke-linejoin: miter"/>
   </g>
   <g id="patch_8">
    <path d="M 459.657 2080.894375 
L 490.668545 2080.894375 
L 490.668545 2080.894375 
L 459.657 2080.894375 
z
" clip-path="url(#pdc7b86ae9c)" style="fill: #ffa500; fill-opacity: 0.5; stroke: #ffffff; stroke-linejoin: miter"/>
   </g>
   <g id="patch_9">
    <path d="M 490.668545 2080.894375 
L 521.680091 2080.894375 
L 521.680091 2080.894375 
L 490.668545 2080.894375 
z
" clip-path="url(#pdc7b86ae9c)" style="fill: #ffa500; fill-opacity: 0.5; stroke: #ffffff; stroke-linejoin: miter"/>
   </g>
   <g id="patch_10">
    <path d="M 521.680091 2080.894375 
L 552.691636 2080.894375 
L 552.691636 2080.894375 
L 521.680091 2080.894375 
z
" clip-path="url(#pdc7b86ae9c)" style="fill: #ffa500; fill-opacity: 0.5; stroke: #ffffff; stroke-linejoin: miter"/>
   </g>
   <g id="patch_11">
    <path d="M 552.691636 2080.894375 
L 583.703182 2080.894375 
L 583.703182 2080.894375 
L 552.691636 2080.894375 
z
" clip-path="url(#pdc7b86ae9c)" style="fill: #ffa500; fill-opacity: 0.5; stroke: #ffffff; stroke-linejoin: miter"/>
   </g>
   <g id="patch_12">
    <path d="M 583.703182 2080.894375 
L 614.714727 2080.894375 
L 614.714727 2080.894375 
L 583.703182 2080.894375 
z
" clip-path="url(#pdc7b86ae9c)" style="fill: #ffa500; fill-opacity: 0.5; stroke: #ffffff; stroke-linejoin: miter"/>
   </g>
   <g id="patch_13">
    <path d="M 614.714727 2080.894375 
L 645.726273 2080.894375 
L 645.726273 2080.894375 
L 614.714727 2080.894375 
z
" clip-path="url(#pdc7b86ae9c)" style="fill: #ffa500; fill-opacity: 0.5; stroke: #ffffff; stroke-linejoin: miter"/>
   </g>
   <g id="patch_14">
    <path d="M 645.726273 2080.894375 
L 676.737818 2080.894375 
L 676.737818 2080.894375 
L 645.726273 2080.894375 
z
" clip-path="url(#pdc7b86ae9c)" style="fill: #ffa500; fill-opacity: 0.5; stroke: #ffffff; stroke-linejoin: miter"/>
   </g>
   <g id="patch_15">
    <path d="M 676.737818 2080.894375 
L 707.749364 2080.894375 
L 707.749364 2080.894375 
L 676.737818 2080.894375 
z
" clip-path="url(#pdc7b86ae9c)" style="fill: #ffa500; fill-opacity: 0.5; stroke: #ffffff; stroke-linejoin: miter"/>
   </g>
   <g id="patch_16">
    <path d="M 707.749364 2080.894375 
L 738.760909 2080.894375 
L 738.760909 2080.894375 
L 707.749364 2080.894375 
z
" clip-path="url(#pdc7b86ae9c)" style="fill: #ffa500; fill-opacity: 0.5; stroke: #ffffff; stroke-linejoin: miter"/>
   </g>
   <g id="patch_17">
    <path d="M 738.760909 2080.894375 
L 769.772455 2080.894375 
L 769.772455 2080.894375 
L 738.760909 2080.894375 
z
" clip-path="url(#pdc7b86ae9c)" style="fill: #ffa500; fill-opacity: 0.5; stroke: #ffffff; stroke-linejoin: miter"/>
   </g>
   <g id="patch_18">
    <path d="M 769.772455 2080.894375 
L 800.784 2080.894375 
L 800.784 2080.894375 
L 769.772455 2080.894375 
z
" clip-path="url(#pdc7b86ae9c)" style="fill: #ffa500; fill-opacity: 0.5; stroke: #ffffff; stroke-linejoin: miter"/>
   </g>
   <g id="patch_19">
    <path d="M 800.784 2080.894375 
L 831.795545 2080.894375 
L 831.795545 2080.894375 
L 800.784 2080.894375 
z
" clip-path="url(#pdc7b86ae9c)" style="fill: #ffa500; fill-opacity: 0.5; stroke: #ffffff; stroke-linejoin: miter"/>
   </g>
   <g id="patch_20">
    <path d="M 831.795545 2080.894375 
L 862.807091 2080.894375 
L 862.807091 2080.894375 
L 831.795545 2080.894375 
z
" clip-path="url(#pdc7b86ae9c)" style="fill: #ffa500; fill-opacity: 0.5; stroke: #ffffff; stroke-linejoin: miter"/>
   </g>
   <g id="patch_21">
    <path d="M 862.807091 2080.894375 
L 893.818636 2080.894375 
L 893.818636 2080.894375 
L 862.807091 2080.894375 
z
" clip-path="url(#pdc7b86ae9c)" style="fill: #ffa500; fill-opacity: 0.5; stroke: #ffffff; stroke-linejoin: miter"/>
   </g>
   <g id="patch_22">
    <path d="M 893.818636 2080.894375 
L 924.830182 2080.894375 
L 924.830182 2080.894375 
L 893.818636 2080.894375 
z
" clip-path="url(#pdc7b86ae9c)" style="fill: #ffa500; fill-opacity: 0.5; stroke: #ffffff; stroke-linejoin: miter"/>
   </g>
   <g id="patch_23">
    <path d="M 924.830182 2080.894375 
L 955.841727 2080.894375 
L 955.841727 2080.894375 
L 924.830182 2080.894375 
z
" clip-path="url(#pdc7b86ae9c)" style="fill: #ffa500; fill-opacity: 0.5; stroke: #ffffff; stroke-linejoin: miter"/>
   </g>
   <g id="patch_24">
    <path d="M 955.841727 2080.894375 
L 986.853273 2080.894375 
L 986.853273 2073.027246 
L 955.841727 2073.027246 
z
" clip-path="url(#pdc7b86ae9c)" style="fill: #ffa500; fill-opacity: 0.5; stroke: #ffffff; stroke-linejoin: miter"/>
   </g>
   <g id="patch_25">
    <path d="M 986.853273 2080.894375 
L 1017.864818 2080.894375 
L 1017.864818 2080.894375 
L 986.853273 2080.894375 
z
" clip-path="url(#pdc7b86ae9c)" style="fill: #ffa500; fill-opacity: 0.5; stroke: #ffffff; stroke-linejoin: miter"/>
   </g>
   <g id="patch_26">
    <path d="M 1017.864818 2080.894375 
L 1048.876364 2080.894375 
L 1048.876364 2080.894375 
L 1017.864818 2080.894375 
z
" clip-path="url(#pdc7b86ae9c)" style="fill: #ffa500; fill-opacity: 0.5; stroke: #ffffff; stroke-linejoin: miter"/>
   </g>
   <g id="patch_27">
    <path d="M 1048.876364 2080.894375 
L 1079.887909 2080.894375 
L 1079.887909 2080.894375 
L 1048.876364 2080.894375 
z
" clip-path="url(#pdc7b86ae9c)" style="fill: #ffa500; fill-opacity: 0.5; stroke: #ffffff; stroke-linejoin: miter"/>
   </g>
   <g id="patch_28">
    <path d="M 1079.887909 2080.894375 
L 1110.899455 2080.894375 
L 1110.899455 2080.894375 
L 1079.887909 2080.894375 
z
" clip-path="url(#pdc7b86ae9c)" style="fill: #ffa500; fill-opacity: 0.5; stroke: #ffffff; stroke-linejoin: miter"/>
   </g>
   <g id="patch_29">
    <path d="M 1110.899455 2080.894375 
L 1141.911 2080.894375 
L 1141.911 2080.894375 
L 1110.899455 2080.894375 
z
" clip-path="url(#pdc7b86ae9c)" style="fill: #ffa500; fill-opacity: 0.5; stroke: #ffffff; stroke-linejoin: miter"/>
   </g>
   <g id="patch_30">
    <path d="M 1141.911 2080.894375 
L 1172.922545 2080.894375 
L 1172.922545 2080.894375 
L 1141.911 2080.894375 
z
" clip-path="url(#pdc7b86ae9c)" style="fill: #ffa500; fill-opacity: 0.5; stroke: #ffffff; stroke-linejoin: miter"/>
   </g>
   <g id="patch_31">
    <path d="M 1172.922545 2080.894375 
L 1203.934091 2080.894375 
L 1203.934091 2080.894375 
L 1172.922545 2080.894375 
z
" clip-path="url(#pdc7b86ae9c)" style="fill: #ffa500; fill-opacity: 0.5; stroke: #ffffff; stroke-linejoin: miter"/>
   </g>
   <g id="patch_32">
    <path d="M 1203.934091 2080.894375 
L 1234.945636 2080.894375 
L 1234.945636 2080.894375 
L 1203.934091 2080.894375 
z
" clip-path="url(#pdc7b86ae9c)" style="fill: #ffa500; fill-opacity: 0.5; stroke: #ffffff; stroke-linejoin: miter"/>
   </g>
   <g id="patch_33">
    <path d="M 1234.945636 2080.894375 
L 1265.957182 2080.894375 
L 1265.957182 2080.894375 
L 1234.945636 2080.894375 
z
" clip-path="url(#pdc7b86ae9c)" style="fill: #ffa500; fill-opacity: 0.5; stroke: #ffffff; stroke-linejoin: miter"/>
   </g>
   <g id="patch_34">
    <path d="M 1265.957182 2080.894375 
L 1296.968727 2080.894375 
L 1296.968727 2073.027246 
L 1265.957182 2073.027246 
z
" clip-path="url(#pdc7b86ae9c)" style="fill: #ffa500; fill-opacity: 0.5; stroke: #ffffff; stroke-linejoin: miter"/>
   </g>
   <g id="patch_35">
    <path d="M 1296.968727 2080.894375 
L 1327.980273 2080.894375 
L 1327.980273 2080.894375 
L 1296.968727 2080.894375 
z
" clip-path="url(#pdc7b86ae9c)" style="fill: #ffa500; fill-opacity: 0.5; stroke: #ffffff; stroke-linejoin: miter"/>
   </g>
   <g id="patch_36">
    <path d="M 1327.980273 2080.894375 
L 1358.991818 2080.894375 
L 1358.991818 2080.894375 
L 1327.980273 2080.894375 
z
" clip-path="url(#pdc7b86ae9c)" style="fill: #ffa500; fill-opacity: 0.5; stroke: #ffffff; stroke-linejoin: miter"/>
   </g>
   <g id="patch_37">
    <path d="M 1358.991818 2080.894375 
L 1390.003364 2080.894375 
L 1390.003364 2080.894375 
L 1358.991818 2080.894375 
z
" clip-path="url(#pdc7b86ae9c)" style="fill: #ffa500; fill-opacity: 0.5; stroke: #ffffff; stroke-linejoin: miter"/>
   </g>
   <g id="patch_38">
    <path d="M 1390.003364 2080.894375 
L 1421.014909 2080.894375 
L 1421.014909 2080.894375 
L 1390.003364 2080.894375 
z
" clip-path="url(#pdc7b86ae9c)" style="fill: #ffa500; fill-opacity: 0.5; stroke: #ffffff; stroke-linejoin: miter"/>
   </g>
   <g id="patch_39">
    <path d="M 1421.014909 2080.894375 
L 1452.026455 2080.894375 
L 1452.026455 2080.894375 
L 1421.014909 2080.894375 
z
" clip-path="url(#pdc7b86ae9c)" style="fill: #ffa500; fill-opacity: 0.5; stroke: #ffffff; stroke-linejoin: miter"/>
   </g>
   <g id="patch_40">
    <path d="M 1452.026455 2080.894375 
L 1483.038 2080.894375 
L 1483.038 2080.894375 
L 1452.026455 2080.894375 
z
" clip-path="url(#pdc7b86ae9c)" style="fill: #ffa500; fill-opacity: 0.5; stroke: #ffffff; stroke-linejoin: miter"/>
   </g>
   <g id="patch_41">
    <path d="M 1483.038 2080.894375 
L 1514.049545 2080.894375 
L 1514.049545 2080.894375 
L 1483.038 2080.894375 
z
" clip-path="url(#pdc7b86ae9c)" style="fill: #ffa500; fill-opacity: 0.5; stroke: #ffffff; stroke-linejoin: miter"/>
   </g>
   <g id="patch_42">
    <path d="M 1514.049545 2080.894375 
L 1545.061091 2080.894375 
L 1545.061091 2080.894375 
L 1514.049545 2080.894375 
z
" clip-path="url(#pdc7b86ae9c)" style="fill: #ffa500; fill-opacity: 0.5; stroke: #ffffff; stroke-linejoin: miter"/>
   </g>
   <g id="patch_43">
    <path d="M 1545.061091 2080.894375 
L 1576.072636 2080.894375 
L 1576.072636 2080.894375 
L 1545.061091 2080.894375 
z
" clip-path="url(#pdc7b86ae9c)" style="fill: #ffa500; fill-opacity: 0.5; stroke: #ffffff; stroke-linejoin: miter"/>
   </g>
   <g id="patch_44">
    <path d="M 1576.072636 2080.894375 
L 1607.084182 2080.894375 
L 1607.084182 2080.894375 
L 1576.072636 2080.894375 
z
" clip-path="url(#pdc7b86ae9c)" style="fill: #ffa500; fill-opacity: 0.5; stroke: #ffffff; stroke-linejoin: miter"/>
   </g>
   <g id="patch_45">
    <path d="M 1607.084182 2080.894375 
L 1638.095727 2080.894375 
L 1638.095727 2080.894375 
L 1607.084182 2080.894375 
z
" clip-path="url(#pdc7b86ae9c)" style="fill: #ffa500; fill-opacity: 0.5; stroke: #ffffff; stroke-linejoin: miter"/>
   </g>
   <g id="patch_46">
    <path d="M 1638.095727 2080.894375 
L 1669.107273 2080.894375 
L 1669.107273 2080.894375 
L 1638.095727 2080.894375 
z
" clip-path="url(#pdc7b86ae9c)" style="fill: #ffa500; fill-opacity: 0.5; stroke: #ffffff; stroke-linejoin: miter"/>
   </g>
   <g id="patch_47">
    <path d="M 1669.107273 2080.894375 
L 1700.118818 2080.894375 
L 1700.118818 2073.027246 
L 1669.107273 2073.027246 
z
" clip-path="url(#pdc7b86ae9c)" style="fill: #ffa500; fill-opacity: 0.5; stroke: #ffffff; stroke-linejoin: miter"/>
   </g>
   <g id="patch_48">
    <path d="M 1700.118818 2080.894375 
L 1731.130364 2080.894375 
L 1731.130364 2080.894375 
L 1700.118818 2080.894375 
z
" clip-path="url(#pdc7b86ae9c)" style="fill: #ffa500; fill-opacity: 0.5; stroke: #ffffff; stroke-linejoin: miter"/>
   </g>
   <g id="patch_49">
    <path d="M 1731.130364 2080.894375 
L 1762.141909 2080.894375 
L 1762.141909 2080.894375 
L 1731.130364 2080.894375 
z
" clip-path="url(#pdc7b86ae9c)" style="fill: #ffa500; fill-opacity: 0.5; stroke: #ffffff; stroke-linejoin: miter"/>
   </g>
   <g id="patch_50">
    <path d="M 1762.141909 2080.894375 
L 1793.153455 2080.894375 
L 1793.153455 2080.894375 
L 1762.141909 2080.894375 
z
" clip-path="url(#pdc7b86ae9c)" style="fill: #ffa500; fill-opacity: 0.5; stroke: #ffffff; stroke-linejoin: miter"/>
   </g>
   <g id="patch_51">
    <path d="M 1793.153455 2080.894375 
L 1824.165 2080.894375 
L 1824.165 2080.894375 
L 1793.153455 2080.894375 
z
" clip-path="url(#pdc7b86ae9c)" style="fill: #ffa500; fill-opacity: 0.5; stroke: #ffffff; stroke-linejoin: miter"/>
   </g>
   <g id="patch_52">
    <path d="M 1824.165 2080.894375 
L 1855.176545 2080.894375 
L 1855.176545 2073.027246 
L 1824.165 2073.027246 
z
" clip-path="url(#pdc7b86ae9c)" style="fill: #ffa500; fill-opacity: 0.5; stroke: #ffffff; stroke-linejoin: miter"/>
   </g>
   <g id="patch_53">
    <path d="M 1855.176545 2080.894375 
L 1886.188091 2080.894375 
L 1886.188091 2080.894375 
L 1855.176545 2080.894375 
z
" clip-path="url(#pdc7b86ae9c)" style="fill: #ffa500; fill-opacity: 0.5; stroke: #ffffff; stroke-linejoin: miter"/>
   </g>
   <g id="patch_54">
    <path d="M 1886.188091 2080.894375 
L 1917.199636 2080.894375 
L 1917.199636 2080.894375 
L 1886.188091 2080.894375 
z
" clip-path="url(#pdc7b86ae9c)" style="fill: #ffa500; fill-opacity: 0.5; stroke: #ffffff; stroke-linejoin: miter"/>
   </g>
   <g id="patch_55">
    <path d="M 1917.199636 2080.894375 
L 1948.211182 2080.894375 
L 1948.211182 2080.894375 
L 1917.199636 2080.894375 
z
" clip-path="url(#pdc7b86ae9c)" style="fill: #ffa500; fill-opacity: 0.5; stroke: #ffffff; stroke-linejoin: miter"/>
   </g>
   <g id="patch_56">
    <path d="M 1948.211182 2080.894375 
L 1979.222727 2080.894375 
L 1979.222727 2080.894375 
L 1948.211182 2080.894375 
z
" clip-path="url(#pdc7b86ae9c)" style="fill: #ffa500; fill-opacity: 0.5; stroke: #ffffff; stroke-linejoin: miter"/>
   </g>
   <g id="patch_57">
    <path d="M 1979.222727 2080.894375 
L 2010.234273 2080.894375 
L 2010.234273 2080.894375 
L 1979.222727 2080.894375 
z
" clip-path="url(#pdc7b86ae9c)" style="fill: #ffa500; fill-opacity: 0.5; stroke: #ffffff; stroke-linejoin: miter"/>
   </g>
   <g id="patch_58">
    <path d="M 2010.234273 2080.894375 
L 2041.245818 2080.894375 
L 2041.245818 2073.027246 
L 2010.234273 2073.027246 
z
" clip-path="url(#pdc7b86ae9c)" style="fill: #ffa500; fill-opacity: 0.5; stroke: #ffffff; stroke-linejoin: miter"/>
   </g>
   <g id="patch_59">
    <path d="M 2041.245818 2080.894375 
L 2072.257364 2080.894375 
L 2072.257364 2080.894375 
L 2041.245818 2080.894375 
z
" clip-path="url(#pdc7b86ae9c)" style="fill: #ffa500; fill-opacity: 0.5; stroke: #ffffff; stroke-linejoin: miter"/>
   </g>
   <g id="patch_60">
    <path d="M 2072.257364 2080.894375 
L 2103.268909 2080.894375 
L 2103.268909 2073.027246 
L 2072.257364 2073.027246 
z
" clip-path="url(#pdc7b86ae9c)" style="fill: #ffa500; fill-opacity: 0.5; stroke: #ffffff; stroke-linejoin: miter"/>
   </g>
   <g id="patch_61">
    <path d="M 2103.268909 2080.894375 
L 2134.280455 2080.894375 
L 2134.280455 2073.027246 
L 2103.268909 2073.027246 
z
" clip-path="url(#pdc7b86ae9c)" style="fill: #ffa500; fill-opacity: 0.5; stroke: #ffffff; stroke-linejoin: miter"/>
   </g>
   <g id="patch_62">
    <path d="M 2134.280455 2080.894375 
L 2165.292 2080.894375 
L 2165.292 2080.894375 
L 2134.280455 2080.894375 
z
" clip-path="url(#pdc7b86ae9c)" style="fill: #ffa500; fill-opacity: 0.5; stroke: #ffffff; stroke-linejoin: miter"/>
   </g>
   <g id="patch_63">
    <path d="M 2165.292 2080.894375 
L 2196.303545 2080.894375 
L 2196.303545 2073.027246 
L 2165.292 2073.027246 
z
" clip-path="url(#pdc7b86ae9c)" style="fill: #ffa500; fill-opacity: 0.5; stroke: #ffffff; stroke-linejoin: miter"/>
   </g>
   <g id="patch_64">
    <path d="M 2196.303545 2080.894375 
L 2227.315091 2080.894375 
L 2227.315091 2080.894375 
L 2196.303545 2080.894375 
z
" clip-path="url(#pdc7b86ae9c)" style="fill: #ffa500; fill-opacity: 0.5; stroke: #ffffff; stroke-linejoin: miter"/>
   </g>
   <g id="patch_65">
    <path d="M 2227.315091 2080.894375 
L 2258.326636 2080.894375 
L 2258.326636 2080.894375 
L 2227.315091 2080.894375 
z
" clip-path="url(#pdc7b86ae9c)" style="fill: #ffa500; fill-opacity: 0.5; stroke: #ffffff; stroke-linejoin: miter"/>
   </g>
   <g id="patch_66">
    <path d="M 2258.326636 2080.894375 
L 2289.338182 2080.894375 
L 2289.338182 2080.894375 
L 2258.326636 2080.894375 
z
" clip-path="url(#pdc7b86ae9c)" style="fill: #ffa500; fill-opacity: 0.5; stroke: #ffffff; stroke-linejoin: miter"/>
   </g>
   <g id="patch_67">
    <path d="M 2289.338182 2080.894375 
L 2320.349727 2080.894375 
L 2320.349727 2065.160116 
L 2289.338182 2065.160116 
z
" clip-path="url(#pdc7b86ae9c)" style="fill: #ffa500; fill-opacity: 0.5; stroke: #ffffff; stroke-linejoin: miter"/>
   </g>
   <g id="patch_68">
    <path d="M 2320.349727 2080.894375 
L 2351.361273 2080.894375 
L 2351.361273 2080.894375 
L 2320.349727 2080.894375 
z
" clip-path="url(#pdc7b86ae9c)" style="fill: #ffa500; fill-opacity: 0.5; stroke: #ffffff; stroke-linejoin: miter"/>
   </g>
   <g id="patch_69">
    <path d="M 2351.361273 2080.894375 
L 2382.372818 2080.894375 
L 2382.372818 2073.027246 
L 2351.361273 2073.027246 
z
" clip-path="url(#pdc7b86ae9c)" style="fill: #ffa500; fill-opacity: 0.5; stroke: #ffffff; stroke-linejoin: miter"/>
   </g>
   <g id="patch_70">
    <path d="M 2382.372818 2080.894375 
L 2413.384364 2080.894375 
L 2413.384364 2073.027246 
L 2382.372818 2073.027246 
z
" clip-path="url(#pdc7b86ae9c)" style="fill: #ffa500; fill-opacity: 0.5; stroke: #ffffff; stroke-linejoin: miter"/>
   </g>
   <g id="patch_71">
    <path d="M 2413.384364 2080.894375 
L 2444.395909 2080.894375 
L 2444.395909 2057.292987 
L 2413.384364 2057.292987 
z
" clip-path="url(#pdc7b86ae9c)" style="fill: #ffa500; fill-opacity: 0.5; stroke: #ffffff; stroke-linejoin: miter"/>
   </g>
   <g id="patch_72">
    <path d="M 2444.395909 2080.894375 
L 2475.407455 2080.894375 
L 2475.407455 2080.894375 
L 2444.395909 2080.894375 
z
" clip-path="url(#pdc7b86ae9c)" style="fill: #ffa500; fill-opacity: 0.5; stroke: #ffffff; stroke-linejoin: miter"/>
   </g>
   <g id="patch_73">
    <path d="M 2475.407455 2080.894375 
L 2506.419 2080.894375 
L 2506.419 2073.027246 
L 2475.407455 2073.027246 
z
" clip-path="url(#pdc7b86ae9c)" style="fill: #ffa500; fill-opacity: 0.5; stroke: #ffffff; stroke-linejoin: miter"/>
   </g>
   <g id="patch_74">
    <path d="M 2506.419 2080.894375 
L 2537.430545 2080.894375 
L 2537.430545 2049.425858 
L 2506.419 2049.425858 
z
" clip-path="url(#pdc7b86ae9c)" style="fill: #ffa500; fill-opacity: 0.5; stroke: #ffffff; stroke-linejoin: miter"/>
   </g>
   <g id="patch_75">
    <path d="M 2537.430545 2080.894375 
L 2568.442091 2080.894375 
L 2568.442091 2080.894375 
L 2537.430545 2080.894375 
z
" clip-path="url(#pdc7b86ae9c)" style="fill: #ffa500; fill-opacity: 0.5; stroke: #ffffff; stroke-linejoin: miter"/>
   </g>
   <g id="patch_76">
    <path d="M 2568.442091 2080.894375 
L 2599.453636 2080.894375 
L 2599.453636 2065.160116 
L 2568.442091 2065.160116 
z
" clip-path="url(#pdc7b86ae9c)" style="fill: #ffa500; fill-opacity: 0.5; stroke: #ffffff; stroke-linejoin: miter"/>
   </g>
   <g id="patch_77">
    <path d="M 2599.453636 2080.894375 
L 2630.465182 2080.894375 
L 2630.465182 2080.894375 
L 2599.453636 2080.894375 
z
" clip-path="url(#pdc7b86ae9c)" style="fill: #ffa500; fill-opacity: 0.5; stroke: #ffffff; stroke-linejoin: miter"/>
   </g>
   <g id="patch_78">
    <path d="M 2630.465182 2080.894375 
L 2661.476727 2080.894375 
L 2661.476727 2041.558728 
L 2630.465182 2041.558728 
z
" clip-path="url(#pdc7b86ae9c)" style="fill: #ffa500; fill-opacity: 0.5; stroke: #ffffff; stroke-linejoin: miter"/>
   </g>
   <g id="patch_79">
    <path d="M 2661.476727 2080.894375 
L 2692.488273 2080.894375 
L 2692.488273 2057.292987 
L 2661.476727 2057.292987 
z
" clip-path="url(#pdc7b86ae9c)" style="fill: #ffa500; fill-opacity: 0.5; stroke: #ffffff; stroke-linejoin: miter"/>
   </g>
   <g id="patch_80">
    <path d="M 2692.488273 2080.894375 
L 2723.499818 2080.894375 
L 2723.499818 2073.027246 
L 2692.488273 2073.027246 
z
" clip-path="url(#pdc7b86ae9c)" style="fill: #ffa500; fill-opacity: 0.5; stroke: #ffffff; stroke-linejoin: miter"/>
   </g>
   <g id="patch_81">
    <path d="M 2723.499818 2080.894375 
L 2754.511364 2080.894375 
L 2754.511364 2049.425858 
L 2723.499818 2049.425858 
z
" clip-path="url(#pdc7b86ae9c)" style="fill: #ffa500; fill-opacity: 0.5; stroke: #ffffff; stroke-linejoin: miter"/>
   </g>
   <g id="patch_82">
    <path d="M 2754.511364 2080.894375 
L 2785.522909 2080.894375 
L 2785.522909 2080.894375 
L 2754.511364 2080.894375 
z
" clip-path="url(#pdc7b86ae9c)" style="fill: #ffa500; fill-opacity: 0.5; stroke: #ffffff; stroke-linejoin: miter"/>
   </g>
   <g id="patch_83">
    <path d="M 2785.522909 2080.894375 
L 2816.534455 2080.894375 
L 2816.534455 2073.027246 
L 2785.522909 2073.027246 
z
" clip-path="url(#pdc7b86ae9c)" style="fill: #ffa500; fill-opacity: 0.5; stroke: #ffffff; stroke-linejoin: miter"/>
   </g>
   <g id="patch_84">
    <path d="M 2816.534455 2080.894375 
L 2847.546 2080.894375 
L 2847.546 2065.160116 
L 2816.534455 2065.160116 
z
" clip-path="url(#pdc7b86ae9c)" style="fill: #ffa500; fill-opacity: 0.5; stroke: #ffffff; stroke-linejoin: miter"/>
   </g>
   <g id="patch_85">
    <path d="M 2847.546 2080.894375 
L 2878.557545 2080.894375 
L 2878.557545 2041.558728 
L 2847.546 2041.558728 
z
" clip-path="url(#pdc7b86ae9c)" style="fill: #ffa500; fill-opacity: 0.5; stroke: #ffffff; stroke-linejoin: miter"/>
   </g>
   <g id="patch_86">
    <path d="M 2878.557545 2080.894375 
L 2909.569091 2080.894375 
L 2909.569091 2025.824469 
L 2878.557545 2025.824469 
z
" clip-path="url(#pdc7b86ae9c)" style="fill: #ffa500; fill-opacity: 0.5; stroke: #ffffff; stroke-linejoin: miter"/>
   </g>
   <g id="patch_87">
    <path d="M 2909.569091 2080.894375 
L 2940.580636 2080.894375 
L 2940.580636 2065.160116 
L 2909.569091 2065.160116 
z
" clip-path="url(#pdc7b86ae9c)" style="fill: #ffa500; fill-opacity: 0.5; stroke: #ffffff; stroke-linejoin: miter"/>
   </g>
   <g id="patch_88">
    <path d="M 2940.580636 2080.894375 
L 2971.592182 2080.894375 
L 2971.592182 2049.425858 
L 2940.580636 2049.425858 
z
" clip-path="url(#pdc7b86ae9c)" style="fill: #ffa500; fill-opacity: 0.5; stroke: #ffffff; stroke-linejoin: miter"/>
   </g>
   <g id="patch_89">
    <path d="M 2971.592182 2080.894375 
L 3002.603727 2080.894375 
L 3002.603727 2033.691599 
L 2971.592182 2033.691599 
z
" clip-path="url(#pdc7b86ae9c)" style="fill: #ffa500; fill-opacity: 0.5; stroke: #ffffff; stroke-linejoin: miter"/>
   </g>
   <g id="patch_90">
    <path d="M 3002.603727 2080.894375 
L 3033.615273 2080.894375 
L 3033.615273 1994.355952 
L 3002.603727 1994.355952 
z
" clip-path="url(#pdc7b86ae9c)" style="fill: #ffa500; fill-opacity: 0.5; stroke: #ffffff; stroke-linejoin: miter"/>
   </g>
   <g id="patch_91">
    <path d="M 3033.615273 2080.894375 
L 3064.626818 2080.894375 
L 3064.626818 2010.090211 
L 3033.615273 2010.090211 
z
" clip-path="url(#pdc7b86ae9c)" style="fill: #ffa500; fill-opacity: 0.5; stroke: #ffffff; stroke-linejoin: miter"/>
   </g>
   <g id="patch_92">
    <path d="M 3064.626818 2080.894375 
L 3095.638364 2080.894375 
L 3095.638364 2010.090211 
L 3064.626818 2010.090211 
z
" clip-path="url(#pdc7b86ae9c)" style="fill: #ffa500; fill-opacity: 0.5; stroke: #ffffff; stroke-linejoin: miter"/>
   </g>
   <g id="patch_93">
    <path d="M 3095.638364 2080.894375 
L 3126.649909 2080.894375 
L 3126.649909 1522.32819 
L 3095.638364 1522.32819 
z
" clip-path="url(#pdc7b86ae9c)" style="fill: #ffa500; fill-opacity: 0.5; stroke: #ffffff; stroke-linejoin: miter"/>
   </g>
   <g id="patch_94">
    <path d="M 3126.649909 2080.894375 
L 3157.661455 2080.894375 
L 3157.661455 1010.964782 
L 3126.649909 1010.964782 
z
" clip-path="url(#pdc7b86ae9c)" style="fill: #ffa500; fill-opacity: 0.5; stroke: #ffffff; stroke-linejoin: miter"/>
   </g>
   <g id="patch_95">
    <path d="M 3157.661455 2080.894375 
L 3188.673 2080.894375 
L 3188.673 1899.9504 
L 3157.661455 1899.9504 
z
" clip-path="url(#pdc7b86ae9c)" style="fill: #ffa500; fill-opacity: 0.5; stroke: #ffffff; stroke-linejoin: miter"/>
   </g>
   <g id="patch_96">
    <path d="M 3188.673 2080.894375 
L 3219.684545 2080.894375 
L 3219.684545 2065.160116 
L 3188.673 2065.160116 
z
" clip-path="url(#pdc7b86ae9c)" style="fill: #ffa500; fill-opacity: 0.5; stroke: #ffffff; stroke-linejoin: miter"/>
   </g>
   <g id="patch_97">
    <path d="M 3219.684545 2080.894375 
L 3250.696091 2080.894375 
L 3250.696091 2057.292987 
L 3219.684545 2057.292987 
z
" clip-path="url(#pdc7b86ae9c)" style="fill: #ffa500; fill-opacity: 0.5; stroke: #ffffff; stroke-linejoin: miter"/>
   </g>
   <g id="patch_98">
    <path d="M 3250.696091 2080.894375 
L 3281.707636 2080.894375 
L 3281.707636 2073.027246 
L 3250.696091 2073.027246 
z
" clip-path="url(#pdc7b86ae9c)" style="fill: #ffa500; fill-opacity: 0.5; stroke: #ffffff; stroke-linejoin: miter"/>
   </g>
   <g id="patch_99">
    <path d="M 3281.707636 2080.894375 
L 3312.719182 2080.894375 
L 3312.719182 1899.9504 
L 3281.707636 1899.9504 
z
" clip-path="url(#pdc7b86ae9c)" style="fill: #ffa500; fill-opacity: 0.5; stroke: #ffffff; stroke-linejoin: miter"/>
   </g>
   <g id="patch_100">
    <path d="M 3312.719182 2080.894375 
L 3343.730727 2080.894375 
L 3343.730727 885.090712 
L 3312.719182 885.090712 
z
" clip-path="url(#pdc7b86ae9c)" style="fill: #ffa500; fill-opacity: 0.5; stroke: #ffffff; stroke-linejoin: miter"/>
   </g>
   <g id="patch_101">
    <path d="M 3343.730727 2080.894375 
L 3374.742273 2080.894375 
L 3374.742273 1750.474942 
L 3343.730727 1750.474942 
z
" clip-path="url(#pdc7b86ae9c)" style="fill: #ffa500; fill-opacity: 0.5; stroke: #ffffff; stroke-linejoin: miter"/>
   </g>
   <g id="patch_102">
    <path d="M 304.599273 2080.894375 
L 335.610818 2080.894375 
L 335.610818 137.713423 
L 304.599273 137.713423 
z
" clip-path="url(#pdc7b86ae9c)" style="fill: #0000ff; fill-opacity: 0.5; stroke: #ffffff; stroke-linejoin: miter"/>
   </g>
   <g id="patch_103">
    <path d="M 335.610818 2080.894375 
L 366.622364 2080.894375 
L 366.622364 1309.915698 
L 335.610818 1309.915698 
z
" clip-path="url(#pdc7b86ae9c)" style="fill: #0000ff; fill-opacity: 0.5; stroke: #ffffff; stroke-linejoin: miter"/>
   </g>
   <g id="patch_104">
    <path d="M 366.622364 2080.894375 
L 397.633909 2080.894375 
L 397.633909 554.671279 
L 366.622364 554.671279 
z
" clip-path="url(#pdc7b86ae9c)" style="fill: #0000ff; fill-opacity: 0.5; stroke: #ffffff; stroke-linejoin: miter"/>
   </g>
   <g id="patch_105">
    <path d="M 397.633909 2080.894375 
L 428.645455 2080.894375 
L 428.645455 1726.873554 
L 397.633909 1726.873554 
z
" clip-path="url(#pdc7b86ae9c)" style="fill: #0000ff; fill-opacity: 0.5; stroke: #ffffff; stroke-linejoin: miter"/>
   </g>
   <g id="patch_106">
    <path d="M 428.645455 2080.894375 
L 459.657 2080.894375 
L 459.657 1349.251344 
L 428.645455 1349.251344 
z
" clip-path="url(#pdc7b86ae9c)" style="fill: #0000ff; fill-opacity: 0.5; stroke: #ffffff; stroke-linejoin: miter"/>
   </g>
   <g id="patch_107">
    <path d="M 459.657 2080.894375 
L 490.668545 2080.894375 
L 490.668545 1955.020305 
L 459.657 1955.020305 
z
" clip-path="url(#pdc7b86ae9c)" style="fill: #0000ff; fill-opacity: 0.5; stroke: #ffffff; stroke-linejoin: miter"/>
   </g>
   <g id="patch_108">
    <path d="M 490.668545 2080.894375 
L 521.680091 2080.894375 
L 521.680091 1805.544847 
L 490.668545 1805.544847 
z
" clip-path="url(#pdc7b86ae9c)" style="fill: #0000ff; fill-opacity: 0.5; stroke: #ffffff; stroke-linejoin: miter"/>
   </g>
   <g id="patch_109">
    <path d="M 521.680091 2080.894375 
L 552.691636 2080.894375 
L 552.691636 1805.544847 
L 521.680091 1805.544847 
z
" clip-path="url(#pdc7b86ae9c)" style="fill: #0000ff; fill-opacity: 0.5; stroke: #ffffff; stroke-linejoin: miter"/>
   </g>
   <g id="patch_110">
    <path d="M 552.691636 2080.894375 
L 583.703182 2080.894375 
L 583.703182 1970.754564 
L 552.691636 1970.754564 
z
" clip-path="url(#pdc7b86ae9c)" style="fill: #0000ff; fill-opacity: 0.5; stroke: #ffffff; stroke-linejoin: miter"/>
   </g>
   <g id="patch_111">
    <path d="M 583.703182 2080.894375 
L 614.714727 2080.894375 
L 614.714727 1813.411977 
L 583.703182 1813.411977 
z
" clip-path="url(#pdc7b86ae9c)" style="fill: #0000ff; fill-opacity: 0.5; stroke: #ffffff; stroke-linejoin: miter"/>
   </g>
   <g id="patch_112">
    <path d="M 614.714727 2080.894375 
L 645.726273 2080.894375 
L 645.726273 1978.621693 
L 614.714727 1978.621693 
z
" clip-path="url(#pdc7b86ae9c)" style="fill: #0000ff; fill-opacity: 0.5; stroke: #ffffff; stroke-linejoin: miter"/>
   </g>
   <g id="patch_113">
    <path d="M 645.726273 2080.894375 
L 676.737818 2080.894375 
L 676.737818 1915.684658 
L 645.726273 1915.684658 
z
" clip-path="url(#pdc7b86ae9c)" style="fill: #0000ff; fill-opacity: 0.5; stroke: #ffffff; stroke-linejoin: miter"/>
   </g>
   <g id="patch_114">
    <path d="M 676.737818 2080.894375 
L 707.749364 2080.894375 
L 707.749364 1994.355952 
L 676.737818 1994.355952 
z
" clip-path="url(#pdc7b86ae9c)" style="fill: #0000ff; fill-opacity: 0.5; stroke: #ffffff; stroke-linejoin: miter"/>
   </g>
   <g id="patch_115">
    <path d="M 707.749364 2080.894375 
L 738.760909 2080.894375 
L 738.760909 1986.488823 
L 707.749364 1986.488823 
z
" clip-path="url(#pdc7b86ae9c)" style="fill: #0000ff; fill-opacity: 0.5; stroke: #ffffff; stroke-linejoin: miter"/>
   </g>
   <g id="patch_116">
    <path d="M 738.760909 2080.894375 
L 769.772455 2080.894375 
L 769.772455 1829.146235 
L 738.760909 1829.146235 
z
" clip-path="url(#pdc7b86ae9c)" style="fill: #0000ff; fill-opacity: 0.5; stroke: #ffffff; stroke-linejoin: miter"/>
   </g>
   <g id="patch_117">
    <path d="M 769.772455 2080.894375 
L 800.784 2080.894375 
L 800.784 2010.090211 
L 769.772455 2010.090211 
z
" clip-path="url(#pdc7b86ae9c)" style="fill: #0000ff; fill-opacity: 0.5; stroke: #ffffff; stroke-linejoin: miter"/>
   </g>
   <g id="patch_118">
    <path d="M 800.784 2080.894375 
L 831.795545 2080.894375 
L 831.795545 1970.754564 
L 800.784 1970.754564 
z
" clip-path="url(#pdc7b86ae9c)" style="fill: #0000ff; fill-opacity: 0.5; stroke: #ffffff; stroke-linejoin: miter"/>
   </g>
   <g id="patch_119">
    <path d="M 831.795545 2080.894375 
L 862.807091 2080.894375 
L 862.807091 1514.461061 
L 831.795545 1514.461061 
z
" clip-path="url(#pdc7b86ae9c)" style="fill: #0000ff; fill-opacity: 0.5; stroke: #ffffff; stroke-linejoin: miter"/>
   </g>
   <g id="patch_120">
    <path d="M 862.807091 2080.894375 
L 893.818636 2080.894375 
L 893.818636 1168.307369 
L 862.807091 1168.307369 
z
" clip-path="url(#pdc7b86ae9c)" style="fill: #0000ff; fill-opacity: 0.5; stroke: #ffffff; stroke-linejoin: miter"/>
   </g>
   <g id="patch_121">
    <path d="M 893.818636 2080.894375 
L 924.830182 2080.894375 
L 924.830182 2025.824469 
L 893.818636 2025.824469 
z
" clip-path="url(#pdc7b86ae9c)" style="fill: #0000ff; fill-opacity: 0.5; stroke: #ffffff; stroke-linejoin: miter"/>
   </g>
   <g id="patch_122">
    <path d="M 924.830182 2080.894375 
L 955.841727 2080.894375 
L 955.841727 2017.95734 
L 924.830182 2017.95734 
z
" clip-path="url(#pdc7b86ae9c)" style="fill: #0000ff; fill-opacity: 0.5; stroke: #ffffff; stroke-linejoin: miter"/>
   </g>
   <g id="patch_123">
    <path d="M 955.841727 2080.894375 
L 986.853273 2080.894375 
L 986.853273 2033.691599 
L 955.841727 2033.691599 
z
" clip-path="url(#pdc7b86ae9c)" style="fill: #0000ff; fill-opacity: 0.5; stroke: #ffffff; stroke-linejoin: miter"/>
   </g>
   <g id="patch_124">
    <path d="M 986.853273 2080.894375 
L 1017.864818 2080.894375 
L 1017.864818 2017.95734 
L 986.853273 2017.95734 
z
" clip-path="url(#pdc7b86ae9c)" style="fill: #0000ff; fill-opacity: 0.5; stroke: #ffffff; stroke-linejoin: miter"/>
   </g>
   <g id="patch_125">
    <path d="M 1017.864818 2080.894375 
L 1048.876364 2080.894375 
L 1048.876364 2065.160116 
L 1017.864818 2065.160116 
z
" clip-path="url(#pdc7b86ae9c)" style="fill: #0000ff; fill-opacity: 0.5; stroke: #ffffff; stroke-linejoin: miter"/>
   </g>
   <g id="patch_126">
    <path d="M 1048.876364 2080.894375 
L 1079.887909 2080.894375 
L 1079.887909 2065.160116 
L 1048.876364 2065.160116 
z
" clip-path="url(#pdc7b86ae9c)" style="fill: #0000ff; fill-opacity: 0.5; stroke: #ffffff; stroke-linejoin: miter"/>
   </g>
   <g id="patch_127">
    <path d="M 1079.887909 2080.894375 
L 1110.899455 2080.894375 
L 1110.899455 2017.95734 
L 1079.887909 2017.95734 
z
" clip-path="url(#pdc7b86ae9c)" style="fill: #0000ff; fill-opacity: 0.5; stroke: #ffffff; stroke-linejoin: miter"/>
   </g>
   <g id="patch_128">
    <path d="M 1110.899455 2080.894375 
L 1141.911 2080.894375 
L 1141.911 2057.292987 
L 1110.899455 2057.292987 
z
" clip-path="url(#pdc7b86ae9c)" style="fill: #0000ff; fill-opacity: 0.5; stroke: #ffffff; stroke-linejoin: miter"/>
   </g>
   <g id="patch_129">
    <path d="M 1141.911 2080.894375 
L 1172.922545 2080.894375 
L 1172.922545 2033.691599 
L 1141.911 2033.691599 
z
" clip-path="url(#pdc7b86ae9c)" style="fill: #0000ff; fill-opacity: 0.5; stroke: #ffffff; stroke-linejoin: miter"/>
   </g>
   <g id="patch_130">
    <path d="M 1172.922545 2080.894375 
L 1203.934091 2080.894375 
L 1203.934091 2065.160116 
L 1172.922545 2065.160116 
z
" clip-path="url(#pdc7b86ae9c)" style="fill: #0000ff; fill-opacity: 0.5; stroke: #ffffff; stroke-linejoin: miter"/>
   </g>
   <g id="patch_131">
    <path d="M 1203.934091 2080.894375 
L 1234.945636 2080.894375 
L 1234.945636 2073.027246 
L 1203.934091 2073.027246 
z
" clip-path="url(#pdc7b86ae9c)" style="fill: #0000ff; fill-opacity: 0.5; stroke: #ffffff; stroke-linejoin: miter"/>
   </g>
   <g id="patch_132">
    <path d="M 1234.945636 2080.894375 
L 1265.957182 2080.894375 
L 1265.957182 2065.160116 
L 1234.945636 2065.160116 
z
" clip-path="url(#pdc7b86ae9c)" style="fill: #0000ff; fill-opacity: 0.5; stroke: #ffffff; stroke-linejoin: miter"/>
   </g>
   <g id="patch_133">
    <path d="M 1265.957182 2080.894375 
L 1296.968727 2080.894375 
L 1296.968727 2049.425858 
L 1265.957182 2049.425858 
z
" clip-path="url(#pdc7b86ae9c)" style="fill: #0000ff; fill-opacity: 0.5; stroke: #ffffff; stroke-linejoin: miter"/>
   </g>
   <g id="patch_134">
    <path d="M 1296.968727 2080.894375 
L 1327.980273 2080.894375 
L 1327.980273 2073.027246 
L 1296.968727 2073.027246 
z
" clip-path="url(#pdc7b86ae9c)" style="fill: #0000ff; fill-opacity: 0.5; stroke: #ffffff; stroke-linejoin: miter"/>
   </g>
   <g id="patch_135">
    <path d="M 1327.980273 2080.894375 
L 1358.991818 2080.894375 
L 1358.991818 2033.691599 
L 1327.980273 2033.691599 
z
" clip-path="url(#pdc7b86ae9c)" style="fill: #0000ff; fill-opacity: 0.5; stroke: #ffffff; stroke-linejoin: miter"/>
   </g>
   <g id="patch_136">
    <path d="M 1358.991818 2080.894375 
L 1390.003364 2080.894375 
L 1390.003364 2049.425858 
L 1358.991818 2049.425858 
z
" clip-path="url(#pdc7b86ae9c)" style="fill: #0000ff; fill-opacity: 0.5; stroke: #ffffff; stroke-linejoin: miter"/>
   </g>
   <g id="patch_137">
    <path d="M 1390.003364 2080.894375 
L 1421.014909 2080.894375 
L 1421.014909 2057.292987 
L 1390.003364 2057.292987 
z
" clip-path="url(#pdc7b86ae9c)" style="fill: #0000ff; fill-opacity: 0.5; stroke: #ffffff; stroke-linejoin: miter"/>
   </g>
   <g id="patch_138">
    <path d="M 1421.014909 2080.894375 
L 1452.026455 2080.894375 
L 1452.026455 2049.425858 
L 1421.014909 2049.425858 
z
" clip-path="url(#pdc7b86ae9c)" style="fill: #0000ff; fill-opacity: 0.5; stroke: #ffffff; stroke-linejoin: miter"/>
   </g>
   <g id="patch_139">
    <path d="M 1452.026455 2080.894375 
L 1483.038 2080.894375 
L 1483.038 2025.824469 
L 1452.026455 2025.824469 
z
" clip-path="url(#pdc7b86ae9c)" style="fill: #0000ff; fill-opacity: 0.5; stroke: #ffffff; stroke-linejoin: miter"/>
   </g>
   <g id="patch_140">
    <path d="M 1483.038 2080.894375 
L 1514.049545 2080.894375 
L 1514.049545 2049.425858 
L 1483.038 2049.425858 
z
" clip-path="url(#pdc7b86ae9c)" style="fill: #0000ff; fill-opacity: 0.5; stroke: #ffffff; stroke-linejoin: miter"/>
   </g>
   <g id="patch_141">
    <path d="M 1514.049545 2080.894375 
L 1545.061091 2080.894375 
L 1545.061091 2073.027246 
L 1514.049545 2073.027246 
z
" clip-path="url(#pdc7b86ae9c)" style="fill: #0000ff; fill-opacity: 0.5; stroke: #ffffff; stroke-linejoin: miter"/>
   </g>
   <g id="patch_142">
    <path d="M 1545.061091 2080.894375 
L 1576.072636 2080.894375 
L 1576.072636 2057.292987 
L 1545.061091 2057.292987 
z
" clip-path="url(#pdc7b86ae9c)" style="fill: #0000ff; fill-opacity: 0.5; stroke: #ffffff; stroke-linejoin: miter"/>
   </g>
   <g id="patch_143">
    <path d="M 1576.072636 2080.894375 
L 1607.084182 2080.894375 
L 1607.084182 2057.292987 
L 1576.072636 2057.292987 
z
" clip-path="url(#pdc7b86ae9c)" style="fill: #0000ff; fill-opacity: 0.5; stroke: #ffffff; stroke-linejoin: miter"/>
   </g>
   <g id="patch_144">
    <path d="M 1607.084182 2080.894375 
L 1638.095727 2080.894375 
L 1638.095727 2065.160116 
L 1607.084182 2065.160116 
z
" clip-path="url(#pdc7b86ae9c)" style="fill: #0000ff; fill-opacity: 0.5; stroke: #ffffff; stroke-linejoin: miter"/>
   </g>
   <g id="patch_145">
    <path d="M 1638.095727 2080.894375 
L 1669.107273 2080.894375 
L 1669.107273 2065.160116 
L 1638.095727 2065.160116 
z
" clip-path="url(#pdc7b86ae9c)" style="fill: #0000ff; fill-opacity: 0.5; stroke: #ffffff; stroke-linejoin: miter"/>
   </g>
   <g id="patch_146">
    <path d="M 1669.107273 2080.894375 
L 1700.118818 2080.894375 
L 1700.118818 2073.027246 
L 1669.107273 2073.027246 
z
" clip-path="url(#pdc7b86ae9c)" style="fill: #0000ff; fill-opacity: 0.5; stroke: #ffffff; stroke-linejoin: miter"/>
   </g>
   <g id="patch_147">
    <path d="M 1700.118818 2080.894375 
L 1731.130364 2080.894375 
L 1731.130364 2080.894375 
L 1700.118818 2080.894375 
z
" clip-path="url(#pdc7b86ae9c)" style="fill: #0000ff; fill-opacity: 0.5; stroke: #ffffff; stroke-linejoin: miter"/>
   </g>
   <g id="patch_148">
    <path d="M 1731.130364 2080.894375 
L 1762.141909 2080.894375 
L 1762.141909 2080.894375 
L 1731.130364 2080.894375 
z
" clip-path="url(#pdc7b86ae9c)" style="fill: #0000ff; fill-opacity: 0.5; stroke: #ffffff; stroke-linejoin: miter"/>
   </g>
   <g id="patch_149">
    <path d="M 1762.141909 2080.894375 
L 1793.153455 2080.894375 
L 1793.153455 2073.027246 
L 1762.141909 2073.027246 
z
" clip-path="url(#pdc7b86ae9c)" style="fill: #0000ff; fill-opacity: 0.5; stroke: #ffffff; stroke-linejoin: miter"/>
   </g>
   <g id="patch_150">
    <path d="M 1793.153455 2080.894375 
L 1824.165 2080.894375 
L 1824.165 2057.292987 
L 1793.153455 2057.292987 
z
" clip-path="url(#pdc7b86ae9c)" style="fill: #0000ff; fill-opacity: 0.5; stroke: #ffffff; stroke-linejoin: miter"/>
   </g>
   <g id="patch_151">
    <path d="M 1824.165 2080.894375 
L 1855.176545 2080.894375 
L 1855.176545 2002.223081 
L 1824.165 2002.223081 
z
" clip-path="url(#pdc7b86ae9c)" style="fill: #0000ff; fill-opacity: 0.5; stroke: #ffffff; stroke-linejoin: miter"/>
   </g>
   <g id="patch_152">
    <path d="M 1855.176545 2080.894375 
L 1886.188091 2080.894375 
L 1886.188091 2080.894375 
L 1855.176545 2080.894375 
z
" clip-path="url(#pdc7b86ae9c)" style="fill: #0000ff; fill-opacity: 0.5; stroke: #ffffff; stroke-linejoin: miter"/>
   </g>
   <g id="patch_153">
    <path d="M 1886.188091 2080.894375 
L 1917.199636 2080.894375 
L 1917.199636 2049.425858 
L 1886.188091 2049.425858 
z
" clip-path="url(#pdc7b86ae9c)" style="fill: #0000ff; fill-opacity: 0.5; stroke: #ffffff; stroke-linejoin: miter"/>
   </g>
   <g id="patch_154">
    <path d="M 1917.199636 2080.894375 
L 1948.211182 2080.894375 
L 1948.211182 2080.894375 
L 1917.199636 2080.894375 
z
" clip-path="url(#pdc7b86ae9c)" style="fill: #0000ff; fill-opacity: 0.5; stroke: #ffffff; stroke-linejoin: miter"/>
   </g>
   <g id="patch_155">
    <path d="M 1948.211182 2080.894375 
L 1979.222727 2080.894375 
L 1979.222727 2057.292987 
L 1948.211182 2057.292987 
z
" clip-path="url(#pdc7b86ae9c)" style="fill: #0000ff; fill-opacity: 0.5; stroke: #ffffff; stroke-linejoin: miter"/>
   </g>
   <g id="patch_156">
    <path d="M 1979.222727 2080.894375 
L 2010.234273 2080.894375 
L 2010.234273 2080.894375 
L 1979.222727 2080.894375 
z
" clip-path="url(#pdc7b86ae9c)" style="fill: #0000ff; fill-opacity: 0.5; stroke: #ffffff; stroke-linejoin: miter"/>
   </g>
   <g id="patch_157">
    <path d="M 2010.234273 2080.894375 
L 2041.245818 2080.894375 
L 2041.245818 2065.160116 
L 2010.234273 2065.160116 
z
" clip-path="url(#pdc7b86ae9c)" style="fill: #0000ff; fill-opacity: 0.5; stroke: #ffffff; stroke-linejoin: miter"/>
   </g>
   <g id="patch_158">
    <path d="M 2041.245818 2080.894375 
L 2072.257364 2080.894375 
L 2072.257364 2080.894375 
L 2041.245818 2080.894375 
z
" clip-path="url(#pdc7b86ae9c)" style="fill: #0000ff; fill-opacity: 0.5; stroke: #ffffff; stroke-linejoin: miter"/>
   </g>
   <g id="patch_159">
    <path d="M 2072.257364 2080.894375 
L 2103.268909 2080.894375 
L 2103.268909 2033.691599 
L 2072.257364 2033.691599 
z
" clip-path="url(#pdc7b86ae9c)" style="fill: #0000ff; fill-opacity: 0.5; stroke: #ffffff; stroke-linejoin: miter"/>
   </g>
   <g id="patch_160">
    <path d="M 2103.268909 2080.894375 
L 2134.280455 2080.894375 
L 2134.280455 2080.894375 
L 2103.268909 2080.894375 
z
" clip-path="url(#pdc7b86ae9c)" style="fill: #0000ff; fill-opacity: 0.5; stroke: #ffffff; stroke-linejoin: miter"/>
   </g>
   <g id="patch_161">
    <path d="M 2134.280455 2080.894375 
L 2165.292 2080.894375 
L 2165.292 2080.894375 
L 2134.280455 2080.894375 
z
" clip-path="url(#pdc7b86ae9c)" style="fill: #0000ff; fill-opacity: 0.5; stroke: #ffffff; stroke-linejoin: miter"/>
   </g>
   <g id="patch_162">
    <path d="M 2165.292 2080.894375 
L 2196.303545 2080.894375 
L 2196.303545 2065.160116 
L 2165.292 2065.160116 
z
" clip-path="url(#pdc7b86ae9c)" style="fill: #0000ff; fill-opacity: 0.5; stroke: #ffffff; stroke-linejoin: miter"/>
   </g>
   <g id="patch_163">
    <path d="M 2196.303545 2080.894375 
L 2227.315091 2080.894375 
L 2227.315091 1978.621693 
L 2196.303545 1978.621693 
z
" clip-path="url(#pdc7b86ae9c)" style="fill: #0000ff; fill-opacity: 0.5; stroke: #ffffff; stroke-linejoin: miter"/>
   </g>
   <g id="patch_164">
    <path d="M 2227.315091 2080.894375 
L 2258.326636 2080.894375 
L 2258.326636 2041.558728 
L 2227.315091 2041.558728 
z
" clip-path="url(#pdc7b86ae9c)" style="fill: #0000ff; fill-opacity: 0.5; stroke: #ffffff; stroke-linejoin: miter"/>
   </g>
   <g id="patch_165">
    <path d="M 2258.326636 2080.894375 
L 2289.338182 2080.894375 
L 2289.338182 1907.817529 
L 2258.326636 1907.817529 
z
" clip-path="url(#pdc7b86ae9c)" style="fill: #0000ff; fill-opacity: 0.5; stroke: #ffffff; stroke-linejoin: miter"/>
   </g>
   <g id="patch_166">
    <path d="M 2289.338182 2080.894375 
L 2320.349727 2080.894375 
L 2320.349727 2041.558728 
L 2289.338182 2041.558728 
z
" clip-path="url(#pdc7b86ae9c)" style="fill: #0000ff; fill-opacity: 0.5; stroke: #ffffff; stroke-linejoin: miter"/>
   </g>
   <g id="patch_167">
    <path d="M 2320.349727 2080.894375 
L 2351.361273 2080.894375 
L 2351.361273 2073.027246 
L 2320.349727 2073.027246 
z
" clip-path="url(#pdc7b86ae9c)" style="fill: #0000ff; fill-opacity: 0.5; stroke: #ffffff; stroke-linejoin: miter"/>
   </g>
   <g id="patch_168">
    <path d="M 2351.361273 2080.894375 
L 2382.372818 2080.894375 
L 2382.372818 2057.292987 
L 2351.361273 2057.292987 
z
" clip-path="url(#pdc7b86ae9c)" style="fill: #0000ff; fill-opacity: 0.5; stroke: #ffffff; stroke-linejoin: miter"/>
   </g>
   <g id="patch_169">
    <path d="M 2382.372818 2080.894375 
L 2413.384364 2080.894375 
L 2413.384364 2057.292987 
L 2382.372818 2057.292987 
z
" clip-path="url(#pdc7b86ae9c)" style="fill: #0000ff; fill-opacity: 0.5; stroke: #ffffff; stroke-linejoin: miter"/>
   </g>
   <g id="patch_170">
    <path d="M 2413.384364 2080.894375 
L 2444.395909 2080.894375 
L 2444.395909 2049.425858 
L 2413.384364 2049.425858 
z
" clip-path="url(#pdc7b86ae9c)" style="fill: #0000ff; fill-opacity: 0.5; stroke: #ffffff; stroke-linejoin: miter"/>
   </g>
   <g id="patch_171">
    <path d="M 2444.395909 2080.894375 
L 2475.407455 2080.894375 
L 2475.407455 2080.894375 
L 2444.395909 2080.894375 
z
" clip-path="url(#pdc7b86ae9c)" style="fill: #0000ff; fill-opacity: 0.5; stroke: #ffffff; stroke-linejoin: miter"/>
   </g>
   <g id="patch_172">
    <path d="M 2475.407455 2080.894375 
L 2506.419 2080.894375 
L 2506.419 2065.160116 
L 2475.407455 2065.160116 
z
" clip-path="url(#pdc7b86ae9c)" style="fill: #0000ff; fill-opacity: 0.5; stroke: #ffffff; stroke-linejoin: miter"/>
   </g>
   <g id="patch_173">
    <path d="M 2506.419 2080.894375 
L 2537.430545 2080.894375 
L 2537.430545 2041.558728 
L 2506.419 2041.558728 
z
" clip-path="url(#pdc7b86ae9c)" style="fill: #0000ff; fill-opacity: 0.5; stroke: #ffffff; stroke-linejoin: miter"/>
   </g>
   <g id="patch_174">
    <path d="M 2537.430545 2080.894375 
L 2568.442091 2080.894375 
L 2568.442091 2057.292987 
L 2537.430545 2057.292987 
z
" clip-path="url(#pdc7b86ae9c)" style="fill: #0000ff; fill-opacity: 0.5; stroke: #ffffff; stroke-linejoin: miter"/>
   </g>
   <g id="patch_175">
    <path d="M 2568.442091 2080.894375 
L 2599.453636 2080.894375 
L 2599.453636 2049.425858 
L 2568.442091 2049.425858 
z
" clip-path="url(#pdc7b86ae9c)" style="fill: #0000ff; fill-opacity: 0.5; stroke: #ffffff; stroke-linejoin: miter"/>
   </g>
   <g id="patch_176">
    <path d="M 2599.453636 2080.894375 
L 2630.465182 2080.894375 
L 2630.465182 2080.894375 
L 2599.453636 2080.894375 
z
" clip-path="url(#pdc7b86ae9c)" style="fill: #0000ff; fill-opacity: 0.5; stroke: #ffffff; stroke-linejoin: miter"/>
   </g>
   <g id="patch_177">
    <path d="M 2630.465182 2080.894375 
L 2661.476727 2080.894375 
L 2661.476727 2025.824469 
L 2630.465182 2025.824469 
z
" clip-path="url(#pdc7b86ae9c)" style="fill: #0000ff; fill-opacity: 0.5; stroke: #ffffff; stroke-linejoin: miter"/>
   </g>
   <g id="patch_178">
    <path d="M 2661.476727 2080.894375 
L 2692.488273 2080.894375 
L 2692.488273 2041.558728 
L 2661.476727 2041.558728 
z
" clip-path="url(#pdc7b86ae9c)" style="fill: #0000ff; fill-opacity: 0.5; stroke: #ffffff; stroke-linejoin: miter"/>
   </g>
   <g id="patch_179">
    <path d="M 2692.488273 2080.894375 
L 2723.499818 2080.894375 
L 2723.499818 2065.160116 
L 2692.488273 2065.160116 
z
" clip-path="url(#pdc7b86ae9c)" style="fill: #0000ff; fill-opacity: 0.5; stroke: #ffffff; stroke-linejoin: miter"/>
   </g>
   <g id="patch_180">
    <path d="M 2723.499818 2080.894375 
L 2754.511364 2080.894375 
L 2754.511364 2065.160116 
L 2723.499818 2065.160116 
z
" clip-path="url(#pdc7b86ae9c)" style="fill: #0000ff; fill-opacity: 0.5; stroke: #ffffff; stroke-linejoin: miter"/>
   </g>
   <g id="patch_181">
    <path d="M 2754.511364 2080.894375 
L 2785.522909 2080.894375 
L 2785.522909 1939.286046 
L 2754.511364 1939.286046 
z
" clip-path="url(#pdc7b86ae9c)" style="fill: #0000ff; fill-opacity: 0.5; stroke: #ffffff; stroke-linejoin: miter"/>
   </g>
   <g id="patch_182">
    <path d="M 2785.522909 2080.894375 
L 2816.534455 2080.894375 
L 2816.534455 1860.614753 
L 2785.522909 1860.614753 
z
" clip-path="url(#pdc7b86ae9c)" style="fill: #0000ff; fill-opacity: 0.5; stroke: #ffffff; stroke-linejoin: miter"/>
   </g>
   <g id="patch_183">
    <path d="M 2816.534455 2080.894375 
L 2847.546 2080.894375 
L 2847.546 2073.027246 
L 2816.534455 2073.027246 
z
" clip-path="url(#pdc7b86ae9c)" style="fill: #0000ff; fill-opacity: 0.5; stroke: #ffffff; stroke-linejoin: miter"/>
   </g>
   <g id="patch_184">
    <path d="M 2847.546 2080.894375 
L 2878.557545 2080.894375 
L 2878.557545 2073.027246 
L 2847.546 2073.027246 
z
" clip-path="url(#pdc7b86ae9c)" style="fill: #0000ff; fill-opacity: 0.5; stroke: #ffffff; stroke-linejoin: miter"/>
   </g>
   <g id="patch_185">
    <path d="M 2878.557545 2080.894375 
L 2909.569091 2080.894375 
L 2909.569091 2065.160116 
L 2878.557545 2065.160116 
z
" clip-path="url(#pdc7b86ae9c)" style="fill: #0000ff; fill-opacity: 0.5; stroke: #ffffff; stroke-linejoin: miter"/>
   </g>
   <g id="patch_186">
    <path d="M 2909.569091 2080.894375 
L 2940.580636 2080.894375 
L 2940.580636 2041.558728 
L 2909.569091 2041.558728 
z
" clip-path="url(#pdc7b86ae9c)" style="fill: #0000ff; fill-opacity: 0.5; stroke: #ffffff; stroke-linejoin: miter"/>
   </g>
   <g id="patch_187">
    <path d="M 2940.580636 2080.894375 
L 2971.592182 2080.894375 
L 2971.592182 2049.425858 
L 2940.580636 2049.425858 
z
" clip-path="url(#pdc7b86ae9c)" style="fill: #0000ff; fill-opacity: 0.5; stroke: #ffffff; stroke-linejoin: miter"/>
   </g>
   <g id="patch_188">
    <path d="M 2971.592182 2080.894375 
L 3002.603727 2080.894375 
L 3002.603727 2041.558728 
L 2971.592182 2041.558728 
z
" clip-path="url(#pdc7b86ae9c)" style="fill: #0000ff; fill-opacity: 0.5; stroke: #ffffff; stroke-linejoin: miter"/>
   </g>
   <g id="patch_189">
    <path d="M 3002.603727 2080.894375 
L 3033.615273 2080.894375 
L 3033.615273 2010.090211 
L 3002.603727 2010.090211 
z
" clip-path="url(#pdc7b86ae9c)" style="fill: #0000ff; fill-opacity: 0.5; stroke: #ffffff; stroke-linejoin: miter"/>
   </g>
   <g id="patch_190">
    <path d="M 3033.615273 2080.894375 
L 3064.626818 2080.894375 
L 3064.626818 2033.691599 
L 3033.615273 2033.691599 
z
" clip-path="url(#pdc7b86ae9c)" style="fill: #0000ff; fill-opacity: 0.5; stroke: #ffffff; stroke-linejoin: miter"/>
   </g>
   <g id="patch_191">
    <path d="M 3064.626818 2080.894375 
L 3095.638364 2080.894375 
L 3095.638364 2017.95734 
L 3064.626818 2017.95734 
z
" clip-path="url(#pdc7b86ae9c)" style="fill: #0000ff; fill-opacity: 0.5; stroke: #ffffff; stroke-linejoin: miter"/>
   </g>
   <g id="patch_192">
    <path d="M 3095.638364 2080.894375 
L 3126.649909 2080.894375 
L 3126.649909 1553.796708 
L 3095.638364 1553.796708 
z
" clip-path="url(#pdc7b86ae9c)" style="fill: #0000ff; fill-opacity: 0.5; stroke: #ffffff; stroke-linejoin: miter"/>
   </g>
   <g id="patch_193">
    <path d="M 3126.649909 2080.894375 
L 3157.661455 2080.894375 
L 3157.661455 1640.335131 
L 3126.649909 1640.335131 
z
" clip-path="url(#pdc7b86ae9c)" style="fill: #0000ff; fill-opacity: 0.5; stroke: #ffffff; stroke-linejoin: miter"/>
   </g>
   <g id="patch_194">
    <path d="M 3157.661455 2080.894375 
L 3188.673 2080.894375 
L 3188.673 2080.894375 
L 3157.661455 2080.894375 
z
" clip-path="url(#pdc7b86ae9c)" style="fill: #0000ff; fill-opacity: 0.5; stroke: #ffffff; stroke-linejoin: miter"/>
   </g>
   <g id="patch_195">
    <path d="M 3188.673 2080.894375 
L 3219.684545 2080.894375 
L 3219.684545 2080.894375 
L 3188.673 2080.894375 
z
" clip-path="url(#pdc7b86ae9c)" style="fill: #0000ff; fill-opacity: 0.5; stroke: #ffffff; stroke-linejoin: miter"/>
   </g>
   <g id="patch_196">
    <path d="M 3219.684545 2080.894375 
L 3250.696091 2080.894375 
L 3250.696091 2080.894375 
L 3219.684545 2080.894375 
z
" clip-path="url(#pdc7b86ae9c)" style="fill: #0000ff; fill-opacity: 0.5; stroke: #ffffff; stroke-linejoin: miter"/>
   </g>
   <g id="patch_197">
    <path d="M 3250.696091 2080.894375 
L 3281.707636 2080.894375 
L 3281.707636 2080.894375 
L 3250.696091 2080.894375 
z
" clip-path="url(#pdc7b86ae9c)" style="fill: #0000ff; fill-opacity: 0.5; stroke: #ffffff; stroke-linejoin: miter"/>
   </g>
   <g id="patch_198">
    <path d="M 3281.707636 2080.894375 
L 3312.719182 2080.894375 
L 3312.719182 2080.894375 
L 3281.707636 2080.894375 
z
" clip-path="url(#pdc7b86ae9c)" style="fill: #0000ff; fill-opacity: 0.5; stroke: #ffffff; stroke-linejoin: miter"/>
   </g>
   <g id="patch_199">
    <path d="M 3312.719182 2080.894375 
L 3343.730727 2080.894375 
L 3343.730727 2080.894375 
L 3312.719182 2080.894375 
z
" clip-path="url(#pdc7b86ae9c)" style="fill: #0000ff; fill-opacity: 0.5; stroke: #ffffff; stroke-linejoin: miter"/>
   </g>
   <g id="patch_200">
    <path d="M 3343.730727 2080.894375 
L 3374.742273 2080.894375 
L 3374.742273 2080.894375 
L 3343.730727 2080.894375 
z
" clip-path="url(#pdc7b86ae9c)" style="fill: #0000ff; fill-opacity: 0.5; stroke: #ffffff; stroke-linejoin: miter"/>
   </g>
   <g id="line2d_13">
    <path d="M 440.744095 2079.675989 
L 484.7605 2079.847586 
L 616.809717 2080.786949 
L 690.170393 2080.883612 
L 792.875339 2080.823084 
L 851.563879 2080.581237 
L 924.924555 2079.960966 
L 968.940961 2079.69466 
L 998.285231 2079.694637 
L 1042.301637 2079.951123 
L 1100.990177 2080.37615 
L 1145.006583 2080.427574 
L 1189.022988 2080.18751 
L 1262.383664 2079.693995 
L 1291.727934 2079.695305 
L 1335.74434 2079.962875 
L 1423.777151 2080.660269 
L 1467.793556 2080.784699 
L 1511.809962 2080.735704 
L 1555.826367 2080.506536 
L 1702.547719 2079.432405 
L 1805.252665 2079.395961 
L 1937.301882 2079.409178 
L 1966.646152 2079.071517 
L 2010.662558 2078.228776 
L 2054.678963 2077.312833 
L 2084.023233 2076.895957 
L 2113.367504 2076.743573 
L 2142.711774 2076.843552 
L 2201.400315 2077.22844 
L 2230.744585 2077.119744 
L 2260.088855 2076.639792 
L 2289.433126 2075.80605 
L 2318.777396 2074.727242 
L 2421.482342 2070.706878 
L 2450.826613 2069.789454 
L 2494.843018 2068.665622 
L 2538.859424 2067.563282 
L 2568.203694 2066.636732 
L 2641.56437 2064.013369 
L 2656.236505 2063.658742 
L 2685.580775 2063.277843 
L 2744.269316 2062.929895 
L 2758.941451 2062.552572 
L 2773.613586 2061.917023 
L 2788.285722 2060.974511 
L 2802.957857 2059.698039 
L 2817.629992 2058.080384 
L 2832.302127 2056.125354 
L 2846.974262 2053.832469 
L 2861.646397 2051.176502 
L 2876.318533 2048.084456 
L 2890.990668 2044.413427 
L 2905.662803 2039.933404 
L 2920.334938 2034.319443 
L 2935.007073 2027.157817 
L 2949.679208 2017.970638 
L 2964.351344 2006.262491 
L 2979.023479 1991.590384 
L 2993.695614 1973.654091 
L 3008.367749 1952.397894 
L 3023.039884 1928.107571 
L 3037.712019 1901.480369 
L 3052.384155 1873.643195 
L 3067.05629 1846.097949 
L 3081.728425 1820.584033 
L 3096.40056 1798.865536 
L 3111.072695 1782.470861 
L 3125.74483 1772.430128 
L 3140.416966 1769.06486 
L 3155.089101 1771.881067 
L 3169.761236 1779.600172 
L 3184.433371 1790.33522 
L 3199.105506 1801.888758 
L 3213.777641 1812.121148 
L 3228.449777 1819.320765 
L 3243.121912 1822.504675 
L 3257.794047 1821.590788 
L 3272.466182 1817.407353 
L 3287.138317 1811.537727 
L 3301.810452 1806.030854 
L 3316.482588 1803.034052 
L 3331.154723 1804.419056 
L 3345.826858 1811.471664 
L 3360.498993 1824.699923 
L 3360.498993 1824.699923 
" clip-path="url(#pdc7b86ae9c)" style="fill: none; stroke: #ffa500; stroke-width: 1.5; stroke-linecap: round"/>
   </g>
   <g id="line2d_14">
    <path d="M 273.587727 774.991576 
L 288.063967 767.512134 
L 302.540208 788.062535 
L 317.016448 834.995274 
L 331.492688 905.022014 
L 345.968928 993.58052 
L 360.445169 1095.314768 
L 374.921409 1204.598573 
L 389.397649 1316.032546 
L 403.873889 1424.855473 
L 418.35013 1527.231024 
L 432.82637 1620.39418 
L 447.30261 1702.664209 
L 461.77885 1773.348395 
L 476.25509 1832.570869 
L 490.731331 1881.063567 
L 505.207571 1919.952514 
L 519.683811 1950.56481 
L 534.160051 1974.271962 
L 548.636292 1992.375984 
L 563.112532 2006.037259 
L 577.588772 2016.238242 
L 592.065012 2023.774706 
L 606.541252 2029.265888 
L 621.017493 2033.175929 
L 635.493733 2035.840719 
L 649.969973 2037.496071 
L 664.446213 2038.304783 
L 678.922454 2038.381242 
L 693.398694 2037.812987 
L 707.874934 2036.678894 
L 722.351174 2035.0637 
L 736.827414 2033.068514 
L 765.779895 2028.455901 
L 780.256135 2026.152697 
L 794.732375 2024.085845 
L 809.208616 2022.43333 
L 823.684856 2021.358084 
L 838.161096 2020.993125 
L 852.637336 2021.428413 
L 867.113576 2022.701416 
L 881.589817 2024.792884 
L 896.066057 2027.628613 
L 910.542297 2031.087036 
L 925.018537 2035.011604 
L 953.971018 2043.551683 
L 968.447258 2047.820841 
L 982.923498 2051.891021 
L 997.399738 2055.652239 
L 1011.875979 2059.030962 
L 1026.352219 2061.989572 
L 1040.828459 2064.522342 
L 1055.304699 2066.649023 
L 1069.78094 2068.407257 
L 1084.25718 2069.84494 
L 1098.73342 2071.013392 
L 1113.20966 2071.961932 
L 1127.6859 2072.734116 
L 1142.162141 2073.365643 
L 1171.114621 2074.307651 
L 1200.067102 2074.918751 
L 1229.019582 2075.252679 
L 1257.972062 2075.339446 
L 1286.924543 2075.221661 
L 1344.829504 2074.653888 
L 1388.258224 2074.257676 
L 1431.686945 2074.127741 
L 1460.639426 2074.240357 
L 1504.068146 2074.703628 
L 1547.496867 2075.436936 
L 1634.354308 2077.059285 
L 1663.306789 2077.417984 
L 1692.259269 2077.584272 
L 1721.21175 2077.53274 
L 1764.64047 2077.117392 
L 1822.545431 2076.436168 
L 1851.497912 2076.281854 
L 1880.450392 2076.319477 
L 1923.879113 2076.650214 
L 1981.784074 2077.104731 
L 2010.736554 2077.11027 
L 2039.689034 2076.863792 
L 2068.641515 2076.313766 
L 2097.593995 2075.436443 
L 2126.546476 2074.255017 
L 2213.403917 2070.227689 
L 2227.880157 2069.773401 
L 2242.356398 2069.45464 
L 2256.832638 2069.287619 
L 2271.308878 2069.279425 
L 2285.785118 2069.427253 
L 2300.261358 2069.718627 
L 2329.213839 2070.641743 
L 2416.07128 2073.986481 
L 2445.023761 2074.670505 
L 2473.976241 2075.028694 
L 2502.928722 2075.089812 
L 2531.881202 2074.893074 
L 2560.833683 2074.456751 
L 2589.786163 2073.768688 
L 2618.738643 2072.803632 
L 2647.691124 2071.563533 
L 2734.548565 2067.437517 
L 2749.024805 2066.993733 
L 2763.501046 2066.696722 
L 2777.977286 2066.559134 
L 2792.453526 2066.580229 
L 2806.929766 2066.744493 
L 2835.882247 2067.368287 
L 2864.834727 2068.04682 
L 2879.310967 2068.254157 
L 2893.787208 2068.290157 
L 2908.263448 2068.098329 
L 2922.739688 2067.631729 
L 2937.215928 2066.85654 
L 2951.692169 2065.755354 
L 2966.168409 2064.330119 
L 2980.644649 2062.60458 
L 2995.120889 2060.625914 
L 3024.07337 2056.215309 
L 3038.54961 2053.988509 
L 3053.02585 2051.908996 
L 3067.50209 2050.105103 
L 3081.978331 2048.699038 
L 3096.454571 2047.796095 
L 3110.930811 2047.474518 
L 3125.407051 2047.777414 
L 3139.883291 2048.707922 
L 3154.359532 2050.228451 
L 3154.359532 2050.228451 
" clip-path="url(#pdc7b86ae9c)" style="fill: none; stroke: #0000ff; stroke-width: 1.5; stroke-linecap: round"/>
   </g>
   <g id="patch_201">
    <path d="M 118.53 2080.894375 
L 118.53 40.554375 
" style="fill: none; stroke: #ffffff; stroke-width: 1.25; stroke-linejoin: miter; stroke-linecap: square"/>
   </g>
   <g id="patch_202">
    <path d="M 3529.8 2080.894375 
L 3529.8 40.554375 
" style="fill: none; stroke: #ffffff; stroke-width: 1.25; stroke-linejoin: miter; stroke-linecap: square"/>
   </g>
   <g id="patch_203">
    <path d="M 118.53 2080.894375 
L 3529.8 2080.894375 
" style="fill: none; stroke: #ffffff; stroke-width: 1.25; stroke-linejoin: miter; stroke-linecap: square"/>
   </g>
   <g id="patch_204">
    <path d="M 118.53 40.554375 
L 3529.8 40.554375 
" style="fill: none; stroke: #ffffff; stroke-width: 1.25; stroke-linejoin: miter; stroke-linecap: square"/>
   </g>
   <g id="text_15">
    <!-- PF08241_bit_score11_coverage0.6_ACS_bit128_3_remove_redundant_MACCS_prediction probability distribution -->
    <g style="fill: #262626" transform="translate(817.43625 34.554375)scale(0.36 -0.36)">
     <defs>
      <path id="DejaVuSans-50" d="M 1259 4147 
L 1259 2394 
L 2053 2394 
Q 2494 2394 2734 2622 
Q 2975 2850 2975 3272 
Q 2975 3691 2734 3919 
Q 2494 4147 2053 4147 
L 1259 4147 
z
M 628 4666 
L 2053 4666 
Q 2838 4666 3239 4311 
Q 3641 3956 3641 3272 
Q 3641 2581 3239 2228 
Q 2838 1875 2053 1875 
L 1259 1875 
L 1259 0 
L 628 0 
L 628 4666 
z
" transform="scale(0.015625)"/>
      <path id="DejaVuSans-46" d="M 628 4666 
L 3309 4666 
L 3309 4134 
L 1259 4134 
L 1259 2759 
L 3109 2759 
L 3109 2228 
L 1259 2228 
L 1259 0 
L 628 0 
L 628 4666 
z
" transform="scale(0.015625)"/>
      <path id="DejaVuSans-5f" d="M 3263 -1063 
L 3263 -1509 
L -63 -1509 
L -63 -1063 
L 3263 -1063 
z
" transform="scale(0.015625)"/>
      <path id="DejaVuSans-73" d="M 2834 3397 
L 2834 2853 
Q 2591 2978 2328 3040 
Q 2066 3103 1784 3103 
Q 1356 3103 1142 2972 
Q 928 2841 928 2578 
Q 928 2378 1081 2264 
Q 1234 2150 1697 2047 
L 1894 2003 
Q 2506 1872 2764 1633 
Q 3022 1394 3022 966 
Q 3022 478 2636 193 
Q 2250 -91 1575 -91 
Q 1294 -91 989 -36 
Q 684 19 347 128 
L 347 722 
Q 666 556 975 473 
Q 1284 391 1588 391 
Q 1994 391 2212 530 
Q 2431 669 2431 922 
Q 2431 1156 2273 1281 
Q 2116 1406 1581 1522 
L 1381 1569 
Q 847 1681 609 1914 
Q 372 2147 372 2553 
Q 372 3047 722 3315 
Q 1072 3584 1716 3584 
Q 2034 3584 2315 3537 
Q 2597 3491 2834 3397 
z
" transform="scale(0.015625)"/>
      <path id="DejaVuSans-63" d="M 3122 3366 
L 3122 2828 
Q 2878 2963 2633 3030 
Q 2388 3097 2138 3097 
Q 1578 3097 1268 2742 
Q 959 2388 959 1747 
Q 959 1106 1268 751 
Q 1578 397 2138 397 
Q 2388 397 2633 464 
Q 2878 531 3122 666 
L 3122 134 
Q 2881 22 2623 -34 
Q 2366 -91 2075 -91 
Q 1284 -91 818 406 
Q 353 903 353 1747 
Q 353 2603 823 3093 
Q 1294 3584 2113 3584 
Q 2378 3584 2631 3529 
Q 2884 3475 3122 3366 
z
" transform="scale(0.015625)"/>
      <path id="DejaVuSans-65" d="M 3597 1894 
L 3597 1613 
L 953 1613 
Q 991 1019 1311 708 
Q 1631 397 2203 397 
Q 2534 397 2845 478 
Q 3156 559 3463 722 
L 3463 178 
Q 3153 47 2828 -22 
Q 2503 -91 2169 -91 
Q 1331 -91 842 396 
Q 353 884 353 1716 
Q 353 2575 817 3079 
Q 1281 3584 2069 3584 
Q 2775 3584 3186 3129 
Q 3597 2675 3597 1894 
z
M 3022 2063 
Q 3016 2534 2758 2815 
Q 2500 3097 2075 3097 
Q 1594 3097 1305 2825 
Q 1016 2553 972 2059 
L 3022 2063 
z
" transform="scale(0.015625)"/>
      <path id="DejaVuSans-76" d="M 191 3500 
L 800 3500 
L 1894 563 
L 2988 3500 
L 3597 3500 
L 2284 0 
L 1503 0 
L 191 3500 
z
" transform="scale(0.015625)"/>
      <path id="DejaVuSans-67" d="M 2906 1791 
Q 2906 2416 2648 2759 
Q 2391 3103 1925 3103 
Q 1463 3103 1205 2759 
Q 947 2416 947 1791 
Q 947 1169 1205 825 
Q 1463 481 1925 481 
Q 2391 481 2648 825 
Q 2906 1169 2906 1791 
z
M 3481 434 
Q 3481 -459 3084 -895 
Q 2688 -1331 1869 -1331 
Q 1566 -1331 1297 -1286 
Q 1028 -1241 775 -1147 
L 775 -588 
Q 1028 -725 1275 -790 
Q 1522 -856 1778 -856 
Q 2344 -856 2625 -561 
Q 2906 -266 2906 331 
L 2906 616 
Q 2728 306 2450 153 
Q 2172 0 1784 0 
Q 1141 0 747 490 
Q 353 981 353 1791 
Q 353 2603 747 3093 
Q 1141 3584 1784 3584 
Q 2172 3584 2450 3431 
Q 2728 3278 2906 2969 
L 2906 3500 
L 3481 3500 
L 3481 434 
z
" transform="scale(0.015625)"/>
      <path id="DejaVuSans-41" d="M 2188 4044 
L 1331 1722 
L 3047 1722 
L 2188 4044 
z
M 1831 4666 
L 2547 4666 
L 4325 0 
L 3669 0 
L 3244 1197 
L 1141 1197 
L 716 0 
L 50 0 
L 1831 4666 
z
" transform="scale(0.015625)"/>
      <path id="DejaVuSans-53" d="M 3425 4513 
L 3425 3897 
Q 3066 4069 2747 4153 
Q 2428 4238 2131 4238 
Q 1616 4238 1336 4038 
Q 1056 3838 1056 3469 
Q 1056 3159 1242 3001 
Q 1428 2844 1947 2747 
L 2328 2669 
Q 3034 2534 3370 2195 
Q 3706 1856 3706 1288 
Q 3706 609 3251 259 
Q 2797 -91 1919 -91 
Q 1588 -91 1214 -16 
Q 841 59 441 206 
L 441 856 
Q 825 641 1194 531 
Q 1563 422 1919 422 
Q 2459 422 2753 634 
Q 3047 847 3047 1241 
Q 3047 1584 2836 1778 
Q 2625 1972 2144 2069 
L 1759 2144 
Q 1053 2284 737 2584 
Q 422 2884 422 3419 
Q 422 4038 858 4394 
Q 1294 4750 2059 4750 
Q 2388 4750 2728 4690 
Q 3069 4631 3425 4513 
z
" transform="scale(0.015625)"/>
      <path id="DejaVuSans-33" d="M 2597 2516 
Q 3050 2419 3304 2112 
Q 3559 1806 3559 1356 
Q 3559 666 3084 287 
Q 2609 -91 1734 -91 
Q 1441 -91 1130 -33 
Q 819 25 488 141 
L 488 750 
Q 750 597 1062 519 
Q 1375 441 1716 441 
Q 2309 441 2620 675 
Q 2931 909 2931 1356 
Q 2931 1769 2642 2001 
Q 2353 2234 1838 2234 
L 1294 2234 
L 1294 2753 
L 1863 2753 
Q 2328 2753 2575 2939 
Q 2822 3125 2822 3475 
Q 2822 3834 2567 4026 
Q 2313 4219 1838 4219 
Q 1578 4219 1281 4162 
Q 984 4106 628 3988 
L 628 4550 
Q 988 4650 1302 4700 
Q 1616 4750 1894 4750 
Q 2613 4750 3031 4423 
Q 3450 4097 3450 3541 
Q 3450 3153 3228 2886 
Q 3006 2619 2597 2516 
z
" transform="scale(0.015625)"/>
      <path id="DejaVuSans-6d" d="M 3328 2828 
Q 3544 3216 3844 3400 
Q 4144 3584 4550 3584 
Q 5097 3584 5394 3201 
Q 5691 2819 5691 2113 
L 5691 0 
L 5113 0 
L 5113 2094 
Q 5113 2597 4934 2840 
Q 4756 3084 4391 3084 
Q 3944 3084 3684 2787 
Q 3425 2491 3425 1978 
L 3425 0 
L 2847 0 
L 2847 2094 
Q 2847 2600 2669 2842 
Q 2491 3084 2119 3084 
Q 1678 3084 1418 2786 
Q 1159 2488 1159 1978 
L 1159 0 
L 581 0 
L 581 3500 
L 1159 3500 
L 1159 2956 
Q 1356 3278 1631 3431 
Q 1906 3584 2284 3584 
Q 2666 3584 2933 3390 
Q 3200 3197 3328 2828 
z
" transform="scale(0.015625)"/>
      <path id="DejaVuSans-64" d="M 2906 2969 
L 2906 4863 
L 3481 4863 
L 3481 0 
L 2906 0 
L 2906 525 
Q 2725 213 2448 61 
Q 2172 -91 1784 -91 
Q 1150 -91 751 415 
Q 353 922 353 1747 
Q 353 2572 751 3078 
Q 1150 3584 1784 3584 
Q 2172 3584 2448 3432 
Q 2725 3281 2906 2969 
z
M 947 1747 
Q 947 1113 1208 752 
Q 1469 391 1925 391 
Q 2381 391 2643 752 
Q 2906 1113 2906 1747 
Q 2906 2381 2643 2742 
Q 2381 3103 1925 3103 
Q 1469 3103 1208 2742 
Q 947 2381 947 1747 
z
" transform="scale(0.015625)"/>
      <path id="DejaVuSans-4d" d="M 628 4666 
L 1569 4666 
L 2759 1491 
L 3956 4666 
L 4897 4666 
L 4897 0 
L 4281 0 
L 4281 4097 
L 3078 897 
L 2444 897 
L 1241 4097 
L 1241 0 
L 628 0 
L 628 4666 
z
" transform="scale(0.015625)"/>
      <path id="DejaVuSans-20" transform="scale(0.015625)"/>
     </defs>
     <use xlink:href="#DejaVuSans-50"/>
     <use xlink:href="#DejaVuSans-46" x="60.302734"/>
     <use xlink:href="#DejaVuSans-30" x="117.822266"/>
     <use xlink:href="#DejaVuSans-38" x="181.445312"/>
     <use xlink:href="#DejaVuSans-32" x="245.068359"/>
     <use xlink:href="#DejaVuSans-34" x="308.691406"/>
     <use xlink:href="#DejaVuSans-31" x="372.314453"/>
     <use xlink:href="#DejaVuSans-5f" x="435.9375"/>
     <use xlink:href="#DejaVuSans-62" x="485.9375"/>
     <use xlink:href="#DejaVuSans-69" x="549.414062"/>
     <use xlink:href="#DejaVuSans-74" x="577.197266"/>
     <use xlink:href="#DejaVuSans-5f" x="616.40625"/>
     <use xlink:href="#DejaVuSans-73" x="666.40625"/>
     <use xlink:href="#DejaVuSans-63" x="718.505859"/>
     <use xlink:href="#DejaVuSans-6f" x="773.486328"/>
     <use xlink:href="#DejaVuSans-72" x="834.667969"/>
     <use xlink:href="#DejaVuSans-65" x="873.53125"/>
     <use xlink:href="#DejaVuSans-31" x="935.054688"/>
     <use xlink:href="#DejaVuSans-31" x="998.677734"/>
     <use xlink:href="#DejaVuSans-5f" x="1062.300781"/>
     <use xlink:href="#DejaVuSans-63" x="1112.300781"/>
     <use xlink:href="#DejaVuSans-6f" x="1167.28125"/>
     <use xlink:href="#DejaVuSans-76" x="1228.462891"/>
     <use xlink:href="#DejaVuSans-65" x="1287.642578"/>
     <use xlink:href="#DejaVuSans-72" x="1349.166016"/>
     <use xlink:href="#DejaVuSans-61" x="1390.279297"/>
     <use xlink:href="#DejaVuSans-67" x="1451.558594"/>
     <use xlink:href="#DejaVuSans-65" x="1515.035156"/>
     <use xlink:href="#DejaVuSans-30" x="1576.558594"/>
     <use xlink:href="#DejaVuSans-2e" x="1640.181641"/>
     <use xlink:href="#DejaVuSans-36" x="1671.96875"/>
     <use xlink:href="#DejaVuSans-5f" x="1735.591797"/>
     <use xlink:href="#DejaVuSans-41" x="1785.591797"/>
     <use xlink:href="#DejaVuSans-43" x="1852.25"/>
     <use xlink:href="#DejaVuSans-53" x="1922.074219"/>
     <use xlink:href="#DejaVuSans-5f" x="1985.550781"/>
     <use xlink:href="#DejaVuSans-62" x="2035.550781"/>
     <use xlink:href="#DejaVuSans-69" x="2099.027344"/>
     <use xlink:href="#DejaVuSans-74" x="2126.810547"/>
     <use xlink:href="#DejaVuSans-31" x="2166.019531"/>
     <use xlink:href="#DejaVuSans-32" x="2229.642578"/>
     <use xlink:href="#DejaVuSans-38" x="2293.265625"/>
     <use xlink:href="#DejaVuSans-5f" x="2356.888672"/>
     <use xlink:href="#DejaVuSans-33" x="2406.888672"/>
     <use xlink:href="#DejaVuSans-5f" x="2470.511719"/>
     <use xlink:href="#DejaVuSans-72" x="2520.511719"/>
     <use xlink:href="#DejaVuSans-65" x="2559.375"/>
     <use xlink:href="#DejaVuSans-6d" x="2620.898438"/>
     <use xlink:href="#DejaVuSans-6f" x="2718.310547"/>
     <use xlink:href="#DejaVuSans-76" x="2779.492188"/>
     <use xlink:href="#DejaVuSans-65" x="2838.671875"/>
     <use xlink:href="#DejaVuSans-5f" x="2900.195312"/>
     <use xlink:href="#DejaVuSans-72" x="2950.195312"/>
     <use xlink:href="#DejaVuSans-65" x="2989.058594"/>
     <use xlink:href="#DejaVuSans-64" x="3050.582031"/>
     <use xlink:href="#DejaVuSans-75" x="3114.058594"/>
     <use xlink:href="#DejaVuSans-6e" x="3177.4375"/>
     <use xlink:href="#DejaVuSans-64" x="3240.816406"/>
     <use xlink:href="#DejaVuSans-61" x="3304.292969"/>
     <use xlink:href="#DejaVuSans-6e" x="3365.572266"/>
     <use xlink:href="#DejaVuSans-74" x="3428.951172"/>
     <use xlink:href="#DejaVuSans-5f" x="3468.160156"/>
     <use xlink:href="#DejaVuSans-4d" x="3518.160156"/>
     <use xlink:href="#DejaVuSans-41" x="3604.439453"/>
     <use xlink:href="#DejaVuSans-43" x="3671.097656"/>
     <use xlink:href="#DejaVuSans-43" x="3740.921875"/>
     <use xlink:href="#DejaVuSans-53" x="3810.746094"/>
     <use xlink:href="#DejaVuSans-5f" x="3874.222656"/>
     <use xlink:href="#DejaVuSans-70" x="3924.222656"/>
     <use xlink:href="#DejaVuSans-72" x="3987.699219"/>
     <use xlink:href="#DejaVuSans-65" x="4026.5625"/>
     <use xlink:href="#DejaVuSans-64" x="4088.085938"/>
     <use xlink:href="#DejaVuSans-69" x="4151.5625"/>
     <use xlink:href="#DejaVuSans-63" x="4179.345703"/>
     <use xlink:href="#DejaVuSans-74" x="4234.326172"/>
     <use xlink:href="#DejaVuSans-69" x="4273.535156"/>
     <use xlink:href="#DejaVuSans-6f" x="4301.318359"/>
     <use xlink:href="#DejaVuSans-6e" x="4362.5"/>
     <use xlink:href="#DejaVuSans-20" x="4425.878906"/>
     <use xlink:href="#DejaVuSans-70" x="4457.666016"/>
     <use xlink:href="#DejaVuSans-72" x="4521.142578"/>
     <use xlink:href="#DejaVuSans-6f" x="4560.005859"/>
     <use xlink:href="#DejaVuSans-62" x="4621.1875"/>
     <use xlink:href="#DejaVuSans-61" x="4684.664062"/>
     <use xlink:href="#DejaVuSans-62" x="4745.943359"/>
     <use xlink:href="#DejaVuSans-69" x="4809.419922"/>
     <use xlink:href="#DejaVuSans-6c" x="4837.203125"/>
     <use xlink:href="#DejaVuSans-69" x="4864.986328"/>
     <use xlink:href="#DejaVuSans-74" x="4892.769531"/>
     <use xlink:href="#DejaVuSans-79" x="4931.978516"/>
     <use xlink:href="#DejaVuSans-20" x="4991.158203"/>
     <use xlink:href="#DejaVuSans-64" x="5022.945312"/>
     <use xlink:href="#DejaVuSans-69" x="5086.421875"/>
     <use xlink:href="#DejaVuSans-73" x="5114.205078"/>
     <use xlink:href="#DejaVuSans-74" x="5166.304688"/>
     <use xlink:href="#DejaVuSans-72" x="5205.513672"/>
     <use xlink:href="#DejaVuSans-69" x="5246.626953"/>
     <use xlink:href="#DejaVuSans-62" x="5274.410156"/>
     <use xlink:href="#DejaVuSans-75" x="5337.886719"/>
     <use xlink:href="#DejaVuSans-74" x="5401.265625"/>
     <use xlink:href="#DejaVuSans-69" x="5440.474609"/>
     <use xlink:href="#DejaVuSans-6f" x="5468.257812"/>
     <use xlink:href="#DejaVuSans-6e" x="5529.439453"/>
    </g>
   </g>
   <g id="legend_1">
    <g id="patch_205">
     <path d="M 3423.873125 109.280625 
L 3524.2 109.280625 
Q 3525.8 109.280625 3525.8 107.680625 
L 3525.8 46.154375 
Q 3525.8 44.554375 3524.2 44.554375 
L 3423.873125 44.554375 
Q 3422.273125 44.554375 3422.273125 46.154375 
L 3422.273125 107.680625 
Q 3422.273125 109.280625 3423.873125 109.280625 
z
" style="fill: #eaeaf2; opacity: 0.8; stroke: #cccccc; stroke-linejoin: miter"/>
    </g>
    <g id="text_16">
     <!-- Label -->
     <g style="fill: #262626" transform="translate(3425.473125 75.10875)scale(0.36 -0.36)">
      <defs>
       <path id="DejaVuSans-4c" d="M 628 4666 
L 1259 4666 
L 1259 531 
L 3531 531 
L 3531 0 
L 628 0 
L 628 4666 
z
" transform="scale(0.015625)"/>
      </defs>
      <use xlink:href="#DejaVuSans-4c"/>
      <use xlink:href="#DejaVuSans-61" x="55.712891"/>
      <use xlink:href="#DejaVuSans-62" x="116.992188"/>
      <use xlink:href="#DejaVuSans-65" x="180.46875"/>
      <use xlink:href="#DejaVuSans-6c" x="241.992188"/>
     </g>
    </g>
    <g id="patch_206">
     <path d="M 3450.617187 92.674375 
L 3466.617187 92.674375 
L 3466.617187 87.074375 
L 3450.617187 87.074375 
z
" style="fill: #ffa500; fill-opacity: 0.5; stroke: #ffffff; stroke-linejoin: miter"/>
    </g>
    <g id="text_17">
     <!-- label1 -->
     <g style="fill: #262626" transform="translate(3473.017187 92.674375)scale(0.08 -0.08)">
      <use xlink:href="#DejaVuSans-6c"/>
      <use xlink:href="#DejaVuSans-61" x="27.783203"/>
      <use xlink:href="#DejaVuSans-62" x="89.0625"/>
      <use xlink:href="#DejaVuSans-65" x="152.539062"/>
      <use xlink:href="#DejaVuSans-6c" x="214.0625"/>
      <use xlink:href="#DejaVuSans-31" x="241.845703"/>
     </g>
    </g>
    <g id="patch_207">
     <path d="M 3450.617187 104.416875 
L 3466.617187 104.416875 
L 3466.617187 98.816875 
L 3450.617187 98.816875 
z
" style="fill: #0000ff; fill-opacity: 0.5; stroke: #ffffff; stroke-linejoin: miter"/>
    </g>
    <g id="text_18">
     <!-- label0 -->
     <g style="fill: #262626" transform="translate(3473.017187 104.416875)scale(0.08 -0.08)">
      <use xlink:href="#DejaVuSans-6c"/>
      <use xlink:href="#DejaVuSans-61" x="27.783203"/>
      <use xlink:href="#DejaVuSans-62" x="89.0625"/>
      <use xlink:href="#DejaVuSans-65" x="152.539062"/>
      <use xlink:href="#DejaVuSans-6c" x="214.0625"/>
      <use xlink:href="#DejaVuSans-30" x="241.845703"/>
     </g>
    </g>
   </g>
  </g>
 </g>
 <defs>
  <clipPath id="pdc7b86ae9c">
   <rect x="118.53" y="40.554375" width="3411.27" height="2040.34"/>
  </clipPath>
 </defs>
</svg>
