<?xml version="1.0" encoding="utf-8" standalone="no"?>
<!DOCTYPE svg PUBLIC "-//W3C//DTD SVG 1.1//EN"
  "http://www.w3.org/Graphics/SVG/1.1/DTD/svg11.dtd">
<svg xmlns:xlink="http://www.w3.org/1999/xlink" width="460.8pt" height="345.6pt" viewBox="0 0 460.8 345.6" xmlns="http://www.w3.org/2000/svg" version="1.1">
 <metadata>
  <rdf:RDF xmlns:dc="http://purl.org/dc/elements/1.1/" xmlns:cc="http://creativecommons.org/ns#" xmlns:rdf="http://www.w3.org/1999/02/22-rdf-syntax-ns#">
   <cc:Work>
    <dc:type rdf:resource="http://purl.org/dc/dcmitype/StillImage"/>
    <dc:date>2022-11-21T17:26:48.348850</dc:date>
    <dc:format>image/svg+xml</dc:format>
    <dc:creator>
     <cc:Agent>
      <dc:title>Matplotlib v3.5.2, https://matplotlib.org/</dc:title>
     </cc:Agent>
    </dc:creator>
   </cc:Work>
  </rdf:RDF>
 </metadata>
 <defs>
  <style type="text/css">*{stroke-linejoin: round; stroke-linecap: butt}</style>
 </defs>
 <g id="figure_1">
  <g id="patch_1">
   <path d="M 0 345.6 
L 460.8 345.6 
L 460.8 0 
L 0 0 
z
" style="fill: #ffffff"/>
  </g>
  <g id="axes_1">
   <g id="patch_2">
    <path d="M 57.6 307.584 
L 414.72 307.584 
L 414.72 41.472 
L 57.6 41.472 
z
" style="fill: #eaeaf2"/>
   </g>
   <g id="matplotlib.axis_1">
    <g id="xtick_1">
     <g id="line2d_1">
      <path d="M 73.832727 307.584 
L 73.832727 41.472 
" clip-path="url(#p33f090b141)" style="fill: none; stroke: #ffffff; stroke-linecap: round"/>
     </g>
     <g id="text_1">
      <!-- 0.0 -->
      <g style="fill: #262626" transform="translate(65.086009 325.442281)scale(0.11 -0.11)">
       <defs>
        <path id="DejaVuSans-30" d="M 2034 4250 
Q 1547 4250 1301 3770 
Q 1056 3291 1056 2328 
Q 1056 1369 1301 889 
Q 1547 409 2034 409 
Q 2525 409 2770 889 
Q 3016 1369 3016 2328 
Q 3016 3291 2770 3770 
Q 2525 4250 2034 4250 
z
M 2034 4750 
Q 2819 4750 3233 4129 
Q 3647 3509 3647 2328 
Q 3647 1150 3233 529 
Q 2819 -91 2034 -91 
Q 1250 -91 836 529 
Q 422 1150 422 2328 
Q 422 3509 836 4129 
Q 1250 4750 2034 4750 
z
" transform="scale(0.015625)"/>
        <path id="DejaVuSans-2e" d="M 684 794 
L 1344 794 
L 1344 0 
L 684 0 
L 684 794 
z
" transform="scale(0.015625)"/>
       </defs>
       <use xlink:href="#DejaVuSans-30"/>
       <use xlink:href="#DejaVuSans-2e" x="63.623047"/>
       <use xlink:href="#DejaVuSans-30" x="95.410156"/>
      </g>
     </g>
    </g>
    <g id="xtick_2">
     <g id="line2d_2">
      <path d="M 138.763636 307.584 
L 138.763636 41.472 
" clip-path="url(#p33f090b141)" style="fill: none; stroke: #ffffff; stroke-linecap: round"/>
     </g>
     <g id="text_2">
      <!-- 0.2 -->
      <g style="fill: #262626" transform="translate(130.016918 325.442281)scale(0.11 -0.11)">
       <defs>
        <path id="DejaVuSans-32" d="M 1228 531 
L 3431 531 
L 3431 0 
L 469 0 
L 469 531 
Q 828 903 1448 1529 
Q 2069 2156 2228 2338 
Q 2531 2678 2651 2914 
Q 2772 3150 2772 3378 
Q 2772 3750 2511 3984 
Q 2250 4219 1831 4219 
Q 1534 4219 1204 4116 
Q 875 4013 500 3803 
L 500 4441 
Q 881 4594 1212 4672 
Q 1544 4750 1819 4750 
Q 2544 4750 2975 4387 
Q 3406 4025 3406 3419 
Q 3406 3131 3298 2873 
Q 3191 2616 2906 2266 
Q 2828 2175 2409 1742 
Q 1991 1309 1228 531 
z
" transform="scale(0.015625)"/>
       </defs>
       <use xlink:href="#DejaVuSans-30"/>
       <use xlink:href="#DejaVuSans-2e" x="63.623047"/>
       <use xlink:href="#DejaVuSans-32" x="95.410156"/>
      </g>
     </g>
    </g>
    <g id="xtick_3">
     <g id="line2d_3">
      <path d="M 203.694545 307.584 
L 203.694545 41.472 
" clip-path="url(#p33f090b141)" style="fill: none; stroke: #ffffff; stroke-linecap: round"/>
     </g>
     <g id="text_3">
      <!-- 0.4 -->
      <g style="fill: #262626" transform="translate(194.947827 325.442281)scale(0.11 -0.11)">
       <defs>
        <path id="DejaVuSans-34" d="M 2419 4116 
L 825 1625 
L 2419 1625 
L 2419 4116 
z
M 2253 4666 
L 3047 4666 
L 3047 1625 
L 3713 1625 
L 3713 1100 
L 3047 1100 
L 3047 0 
L 2419 0 
L 2419 1100 
L 313 1100 
L 313 1709 
L 2253 4666 
z
" transform="scale(0.015625)"/>
       </defs>
       <use xlink:href="#DejaVuSans-30"/>
       <use xlink:href="#DejaVuSans-2e" x="63.623047"/>
       <use xlink:href="#DejaVuSans-34" x="95.410156"/>
      </g>
     </g>
    </g>
    <g id="xtick_4">
     <g id="line2d_4">
      <path d="M 268.625455 307.584 
L 268.625455 41.472 
" clip-path="url(#p33f090b141)" style="fill: none; stroke: #ffffff; stroke-linecap: round"/>
     </g>
     <g id="text_4">
      <!-- 0.6 -->
      <g style="fill: #262626" transform="translate(259.878736 325.442281)scale(0.11 -0.11)">
       <defs>
        <path id="DejaVuSans-36" d="M 2113 2584 
Q 1688 2584 1439 2293 
Q 1191 2003 1191 1497 
Q 1191 994 1439 701 
Q 1688 409 2113 409 
Q 2538 409 2786 701 
Q 3034 994 3034 1497 
Q 3034 2003 2786 2293 
Q 2538 2584 2113 2584 
z
M 3366 4563 
L 3366 3988 
Q 3128 4100 2886 4159 
Q 2644 4219 2406 4219 
Q 1781 4219 1451 3797 
Q 1122 3375 1075 2522 
Q 1259 2794 1537 2939 
Q 1816 3084 2150 3084 
Q 2853 3084 3261 2657 
Q 3669 2231 3669 1497 
Q 3669 778 3244 343 
Q 2819 -91 2113 -91 
Q 1303 -91 875 529 
Q 447 1150 447 2328 
Q 447 3434 972 4092 
Q 1497 4750 2381 4750 
Q 2619 4750 2861 4703 
Q 3103 4656 3366 4563 
z
" transform="scale(0.015625)"/>
       </defs>
       <use xlink:href="#DejaVuSans-30"/>
       <use xlink:href="#DejaVuSans-2e" x="63.623047"/>
       <use xlink:href="#DejaVuSans-36" x="95.410156"/>
      </g>
     </g>
    </g>
    <g id="xtick_5">
     <g id="line2d_5">
      <path d="M 333.556364 307.584 
L 333.556364 41.472 
" clip-path="url(#p33f090b141)" style="fill: none; stroke: #ffffff; stroke-linecap: round"/>
     </g>
     <g id="text_5">
      <!-- 0.8 -->
      <g style="fill: #262626" transform="translate(324.809645 325.442281)scale(0.11 -0.11)">
       <defs>
        <path id="DejaVuSans-38" d="M 2034 2216 
Q 1584 2216 1326 1975 
Q 1069 1734 1069 1313 
Q 1069 891 1326 650 
Q 1584 409 2034 409 
Q 2484 409 2743 651 
Q 3003 894 3003 1313 
Q 3003 1734 2745 1975 
Q 2488 2216 2034 2216 
z
M 1403 2484 
Q 997 2584 770 2862 
Q 544 3141 544 3541 
Q 544 4100 942 4425 
Q 1341 4750 2034 4750 
Q 2731 4750 3128 4425 
Q 3525 4100 3525 3541 
Q 3525 3141 3298 2862 
Q 3072 2584 2669 2484 
Q 3125 2378 3379 2068 
Q 3634 1759 3634 1313 
Q 3634 634 3220 271 
Q 2806 -91 2034 -91 
Q 1263 -91 848 271 
Q 434 634 434 1313 
Q 434 1759 690 2068 
Q 947 2378 1403 2484 
z
M 1172 3481 
Q 1172 3119 1398 2916 
Q 1625 2713 2034 2713 
Q 2441 2713 2670 2916 
Q 2900 3119 2900 3481 
Q 2900 3844 2670 4047 
Q 2441 4250 2034 4250 
Q 1625 4250 1398 4047 
Q 1172 3844 1172 3481 
z
" transform="scale(0.015625)"/>
       </defs>
       <use xlink:href="#DejaVuSans-30"/>
       <use xlink:href="#DejaVuSans-2e" x="63.623047"/>
       <use xlink:href="#DejaVuSans-38" x="95.410156"/>
      </g>
     </g>
    </g>
    <g id="xtick_6">
     <g id="line2d_6">
      <path d="M 398.487273 307.584 
L 398.487273 41.472 
" clip-path="url(#p33f090b141)" style="fill: none; stroke: #ffffff; stroke-linecap: round"/>
     </g>
     <g id="text_6">
      <!-- 1.0 -->
      <g style="fill: #262626" transform="translate(389.740554 325.442281)scale(0.11 -0.11)">
       <defs>
        <path id="DejaVuSans-31" d="M 794 531 
L 1825 531 
L 1825 4091 
L 703 3866 
L 703 4441 
L 1819 4666 
L 2450 4666 
L 2450 531 
L 3481 531 
L 3481 0 
L 794 0 
L 794 531 
z
" transform="scale(0.015625)"/>
       </defs>
       <use xlink:href="#DejaVuSans-31"/>
       <use xlink:href="#DejaVuSans-2e" x="63.623047"/>
       <use xlink:href="#DejaVuSans-30" x="95.410156"/>
      </g>
     </g>
    </g>
    <g id="text_7">
     <!-- Recall (Positive label: 1.0) -->
     <g style="fill: #262626" transform="translate(158.655937 340.848062)scale(0.12 -0.12)">
      <defs>
       <path id="DejaVuSans-52" d="M 2841 2188 
Q 3044 2119 3236 1894 
Q 3428 1669 3622 1275 
L 4263 0 
L 3584 0 
L 2988 1197 
Q 2756 1666 2539 1819 
Q 2322 1972 1947 1972 
L 1259 1972 
L 1259 0 
L 628 0 
L 628 4666 
L 2053 4666 
Q 2853 4666 3247 4331 
Q 3641 3997 3641 3322 
Q 3641 2881 3436 2590 
Q 3231 2300 2841 2188 
z
M 1259 4147 
L 1259 2491 
L 2053 2491 
Q 2509 2491 2742 2702 
Q 2975 2913 2975 3322 
Q 2975 3731 2742 3939 
Q 2509 4147 2053 4147 
L 1259 4147 
z
" transform="scale(0.015625)"/>
       <path id="DejaVuSans-65" d="M 3597 1894 
L 3597 1613 
L 953 1613 
Q 991 1019 1311 708 
Q 1631 397 2203 397 
Q 2534 397 2845 478 
Q 3156 559 3463 722 
L 3463 178 
Q 3153 47 2828 -22 
Q 2503 -91 2169 -91 
Q 1331 -91 842 396 
Q 353 884 353 1716 
Q 353 2575 817 3079 
Q 1281 3584 2069 3584 
Q 2775 3584 3186 3129 
Q 3597 2675 3597 1894 
z
M 3022 2063 
Q 3016 2534 2758 2815 
Q 2500 3097 2075 3097 
Q 1594 3097 1305 2825 
Q 1016 2553 972 2059 
L 3022 2063 
z
" transform="scale(0.015625)"/>
       <path id="DejaVuSans-63" d="M 3122 3366 
L 3122 2828 
Q 2878 2963 2633 3030 
Q 2388 3097 2138 3097 
Q 1578 3097 1268 2742 
Q 959 2388 959 1747 
Q 959 1106 1268 751 
Q 1578 397 2138 397 
Q 2388 397 2633 464 
Q 2878 531 3122 666 
L 3122 134 
Q 2881 22 2623 -34 
Q 2366 -91 2075 -91 
Q 1284 -91 818 406 
Q 353 903 353 1747 
Q 353 2603 823 3093 
Q 1294 3584 2113 3584 
Q 2378 3584 2631 3529 
Q 2884 3475 3122 3366 
z
" transform="scale(0.015625)"/>
       <path id="DejaVuSans-61" d="M 2194 1759 
Q 1497 1759 1228 1600 
Q 959 1441 959 1056 
Q 959 750 1161 570 
Q 1363 391 1709 391 
Q 2188 391 2477 730 
Q 2766 1069 2766 1631 
L 2766 1759 
L 2194 1759 
z
M 3341 1997 
L 3341 0 
L 2766 0 
L 2766 531 
Q 2569 213 2275 61 
Q 1981 -91 1556 -91 
Q 1019 -91 701 211 
Q 384 513 384 1019 
Q 384 1609 779 1909 
Q 1175 2209 1959 2209 
L 2766 2209 
L 2766 2266 
Q 2766 2663 2505 2880 
Q 2244 3097 1772 3097 
Q 1472 3097 1187 3025 
Q 903 2953 641 2809 
L 641 3341 
Q 956 3463 1253 3523 
Q 1550 3584 1831 3584 
Q 2591 3584 2966 3190 
Q 3341 2797 3341 1997 
z
" transform="scale(0.015625)"/>
       <path id="DejaVuSans-6c" d="M 603 4863 
L 1178 4863 
L 1178 0 
L 603 0 
L 603 4863 
z
" transform="scale(0.015625)"/>
       <path id="DejaVuSans-20" transform="scale(0.015625)"/>
       <path id="DejaVuSans-28" d="M 1984 4856 
Q 1566 4138 1362 3434 
Q 1159 2731 1159 2009 
Q 1159 1288 1364 580 
Q 1569 -128 1984 -844 
L 1484 -844 
Q 1016 -109 783 600 
Q 550 1309 550 2009 
Q 550 2706 781 3412 
Q 1013 4119 1484 4856 
L 1984 4856 
z
" transform="scale(0.015625)"/>
       <path id="DejaVuSans-50" d="M 1259 4147 
L 1259 2394 
L 2053 2394 
Q 2494 2394 2734 2622 
Q 2975 2850 2975 3272 
Q 2975 3691 2734 3919 
Q 2494 4147 2053 4147 
L 1259 4147 
z
M 628 4666 
L 2053 4666 
Q 2838 4666 3239 4311 
Q 3641 3956 3641 3272 
Q 3641 2581 3239 2228 
Q 2838 1875 2053 1875 
L 1259 1875 
L 1259 0 
L 628 0 
L 628 4666 
z
" transform="scale(0.015625)"/>
       <path id="DejaVuSans-6f" d="M 1959 3097 
Q 1497 3097 1228 2736 
Q 959 2375 959 1747 
Q 959 1119 1226 758 
Q 1494 397 1959 397 
Q 2419 397 2687 759 
Q 2956 1122 2956 1747 
Q 2956 2369 2687 2733 
Q 2419 3097 1959 3097 
z
M 1959 3584 
Q 2709 3584 3137 3096 
Q 3566 2609 3566 1747 
Q 3566 888 3137 398 
Q 2709 -91 1959 -91 
Q 1206 -91 779 398 
Q 353 888 353 1747 
Q 353 2609 779 3096 
Q 1206 3584 1959 3584 
z
" transform="scale(0.015625)"/>
       <path id="DejaVuSans-73" d="M 2834 3397 
L 2834 2853 
Q 2591 2978 2328 3040 
Q 2066 3103 1784 3103 
Q 1356 3103 1142 2972 
Q 928 2841 928 2578 
Q 928 2378 1081 2264 
Q 1234 2150 1697 2047 
L 1894 2003 
Q 2506 1872 2764 1633 
Q 3022 1394 3022 966 
Q 3022 478 2636 193 
Q 2250 -91 1575 -91 
Q 1294 -91 989 -36 
Q 684 19 347 128 
L 347 722 
Q 666 556 975 473 
Q 1284 391 1588 391 
Q 1994 391 2212 530 
Q 2431 669 2431 922 
Q 2431 1156 2273 1281 
Q 2116 1406 1581 1522 
L 1381 1569 
Q 847 1681 609 1914 
Q 372 2147 372 2553 
Q 372 3047 722 3315 
Q 1072 3584 1716 3584 
Q 2034 3584 2315 3537 
Q 2597 3491 2834 3397 
z
" transform="scale(0.015625)"/>
       <path id="DejaVuSans-69" d="M 603 3500 
L 1178 3500 
L 1178 0 
L 603 0 
L 603 3500 
z
M 603 4863 
L 1178 4863 
L 1178 4134 
L 603 4134 
L 603 4863 
z
" transform="scale(0.015625)"/>
       <path id="DejaVuSans-74" d="M 1172 4494 
L 1172 3500 
L 2356 3500 
L 2356 3053 
L 1172 3053 
L 1172 1153 
Q 1172 725 1289 603 
Q 1406 481 1766 481 
L 2356 481 
L 2356 0 
L 1766 0 
Q 1100 0 847 248 
Q 594 497 594 1153 
L 594 3053 
L 172 3053 
L 172 3500 
L 594 3500 
L 594 4494 
L 1172 4494 
z
" transform="scale(0.015625)"/>
       <path id="DejaVuSans-76" d="M 191 3500 
L 800 3500 
L 1894 563 
L 2988 3500 
L 3597 3500 
L 2284 0 
L 1503 0 
L 191 3500 
z
" transform="scale(0.015625)"/>
       <path id="DejaVuSans-62" d="M 3116 1747 
Q 3116 2381 2855 2742 
Q 2594 3103 2138 3103 
Q 1681 3103 1420 2742 
Q 1159 2381 1159 1747 
Q 1159 1113 1420 752 
Q 1681 391 2138 391 
Q 2594 391 2855 752 
Q 3116 1113 3116 1747 
z
M 1159 2969 
Q 1341 3281 1617 3432 
Q 1894 3584 2278 3584 
Q 2916 3584 3314 3078 
Q 3713 2572 3713 1747 
Q 3713 922 3314 415 
Q 2916 -91 2278 -91 
Q 1894 -91 1617 61 
Q 1341 213 1159 525 
L 1159 0 
L 581 0 
L 581 4863 
L 1159 4863 
L 1159 2969 
z
" transform="scale(0.015625)"/>
       <path id="DejaVuSans-3a" d="M 750 794 
L 1409 794 
L 1409 0 
L 750 0 
L 750 794 
z
M 750 3309 
L 1409 3309 
L 1409 2516 
L 750 2516 
L 750 3309 
z
" transform="scale(0.015625)"/>
       <path id="DejaVuSans-29" d="M 513 4856 
L 1013 4856 
Q 1481 4119 1714 3412 
Q 1947 2706 1947 2009 
Q 1947 1309 1714 600 
Q 1481 -109 1013 -844 
L 513 -844 
Q 928 -128 1133 580 
Q 1338 1288 1338 2009 
Q 1338 2731 1133 3434 
Q 928 4138 513 4856 
z
" transform="scale(0.015625)"/>
      </defs>
      <use xlink:href="#DejaVuSans-52"/>
      <use xlink:href="#DejaVuSans-65" x="64.982422"/>
      <use xlink:href="#DejaVuSans-63" x="126.505859"/>
      <use xlink:href="#DejaVuSans-61" x="181.486328"/>
      <use xlink:href="#DejaVuSans-6c" x="242.765625"/>
      <use xlink:href="#DejaVuSans-6c" x="270.548828"/>
      <use xlink:href="#DejaVuSans-20" x="298.332031"/>
      <use xlink:href="#DejaVuSans-28" x="330.119141"/>
      <use xlink:href="#DejaVuSans-50" x="369.132812"/>
      <use xlink:href="#DejaVuSans-6f" x="425.810547"/>
      <use xlink:href="#DejaVuSans-73" x="486.992188"/>
      <use xlink:href="#DejaVuSans-69" x="539.091797"/>
      <use xlink:href="#DejaVuSans-74" x="566.875"/>
      <use xlink:href="#DejaVuSans-69" x="606.083984"/>
      <use xlink:href="#DejaVuSans-76" x="633.867188"/>
      <use xlink:href="#DejaVuSans-65" x="693.046875"/>
      <use xlink:href="#DejaVuSans-20" x="754.570312"/>
      <use xlink:href="#DejaVuSans-6c" x="786.357422"/>
      <use xlink:href="#DejaVuSans-61" x="814.140625"/>
      <use xlink:href="#DejaVuSans-62" x="875.419922"/>
      <use xlink:href="#DejaVuSans-65" x="938.896484"/>
      <use xlink:href="#DejaVuSans-6c" x="1000.419922"/>
      <use xlink:href="#DejaVuSans-3a" x="1028.203125"/>
      <use xlink:href="#DejaVuSans-20" x="1061.894531"/>
      <use xlink:href="#DejaVuSans-31" x="1093.681641"/>
      <use xlink:href="#DejaVuSans-2e" x="1157.304688"/>
      <use xlink:href="#DejaVuSans-30" x="1189.091797"/>
      <use xlink:href="#DejaVuSans-29" x="1252.714844"/>
     </g>
    </g>
   </g>
   <g id="matplotlib.axis_2">
    <g id="ytick_1">
     <g id="line2d_7">
      <path d="M 57.6 262.221838 
L 414.72 262.221838 
" clip-path="url(#p33f090b141)" style="fill: none; stroke: #ffffff; stroke-linecap: round"/>
     </g>
     <g id="text_8">
      <!-- 0.2 -->
      <g style="fill: #262626" transform="translate(30.606563 266.400978)scale(0.11 -0.11)">
       <use xlink:href="#DejaVuSans-30"/>
       <use xlink:href="#DejaVuSans-2e" x="63.623047"/>
       <use xlink:href="#DejaVuSans-32" x="95.410156"/>
      </g>
     </g>
    </g>
    <g id="ytick_2">
     <g id="line2d_8">
      <path d="M 57.6 210.058378 
L 414.72 210.058378 
" clip-path="url(#p33f090b141)" style="fill: none; stroke: #ffffff; stroke-linecap: round"/>
     </g>
     <g id="text_9">
      <!-- 0.4 -->
      <g style="fill: #262626" transform="translate(30.606563 214.237519)scale(0.11 -0.11)">
       <use xlink:href="#DejaVuSans-30"/>
       <use xlink:href="#DejaVuSans-2e" x="63.623047"/>
       <use xlink:href="#DejaVuSans-34" x="95.410156"/>
      </g>
     </g>
    </g>
    <g id="ytick_3">
     <g id="line2d_9">
      <path d="M 57.6 157.894919 
L 414.72 157.894919 
" clip-path="url(#p33f090b141)" style="fill: none; stroke: #ffffff; stroke-linecap: round"/>
     </g>
     <g id="text_10">
      <!-- 0.6 -->
      <g style="fill: #262626" transform="translate(30.606563 162.07406)scale(0.11 -0.11)">
       <use xlink:href="#DejaVuSans-30"/>
       <use xlink:href="#DejaVuSans-2e" x="63.623047"/>
       <use xlink:href="#DejaVuSans-36" x="95.410156"/>
      </g>
     </g>
    </g>
    <g id="ytick_4">
     <g id="line2d_10">
      <path d="M 57.6 105.731459 
L 414.72 105.731459 
" clip-path="url(#p33f090b141)" style="fill: none; stroke: #ffffff; stroke-linecap: round"/>
     </g>
     <g id="text_11">
      <!-- 0.8 -->
      <g style="fill: #262626" transform="translate(30.606563 109.9106)scale(0.11 -0.11)">
       <use xlink:href="#DejaVuSans-30"/>
       <use xlink:href="#DejaVuSans-2e" x="63.623047"/>
       <use xlink:href="#DejaVuSans-38" x="95.410156"/>
      </g>
     </g>
    </g>
    <g id="ytick_5">
     <g id="line2d_11">
      <path d="M 57.6 53.568 
L 414.72 53.568 
" clip-path="url(#p33f090b141)" style="fill: none; stroke: #ffffff; stroke-linecap: round"/>
     </g>
     <g id="text_12">
      <!-- 1.0 -->
      <g style="fill: #262626" transform="translate(30.606563 57.747141)scale(0.11 -0.11)">
       <use xlink:href="#DejaVuSans-31"/>
       <use xlink:href="#DejaVuSans-2e" x="63.623047"/>
       <use xlink:href="#DejaVuSans-30" x="95.410156"/>
      </g>
     </g>
    </g>
    <g id="text_13">
     <!-- Precision (Positive label: 1.0) -->
     <g style="fill: #262626" transform="translate(24.110937 260.899875)rotate(-90)scale(0.12 -0.12)">
      <defs>
       <path id="DejaVuSans-72" d="M 2631 2963 
Q 2534 3019 2420 3045 
Q 2306 3072 2169 3072 
Q 1681 3072 1420 2755 
Q 1159 2438 1159 1844 
L 1159 0 
L 581 0 
L 581 3500 
L 1159 3500 
L 1159 2956 
Q 1341 3275 1631 3429 
Q 1922 3584 2338 3584 
Q 2397 3584 2469 3576 
Q 2541 3569 2628 3553 
L 2631 2963 
z
" transform="scale(0.015625)"/>
       <path id="DejaVuSans-6e" d="M 3513 2113 
L 3513 0 
L 2938 0 
L 2938 2094 
Q 2938 2591 2744 2837 
Q 2550 3084 2163 3084 
Q 1697 3084 1428 2787 
Q 1159 2491 1159 1978 
L 1159 0 
L 581 0 
L 581 3500 
L 1159 3500 
L 1159 2956 
Q 1366 3272 1645 3428 
Q 1925 3584 2291 3584 
Q 2894 3584 3203 3211 
Q 3513 2838 3513 2113 
z
" transform="scale(0.015625)"/>
      </defs>
      <use xlink:href="#DejaVuSans-50"/>
      <use xlink:href="#DejaVuSans-72" x="58.552734"/>
      <use xlink:href="#DejaVuSans-65" x="97.416016"/>
      <use xlink:href="#DejaVuSans-63" x="158.939453"/>
      <use xlink:href="#DejaVuSans-69" x="213.919922"/>
      <use xlink:href="#DejaVuSans-73" x="241.703125"/>
      <use xlink:href="#DejaVuSans-69" x="293.802734"/>
      <use xlink:href="#DejaVuSans-6f" x="321.585938"/>
      <use xlink:href="#DejaVuSans-6e" x="382.767578"/>
      <use xlink:href="#DejaVuSans-20" x="446.146484"/>
      <use xlink:href="#DejaVuSans-28" x="477.933594"/>
      <use xlink:href="#DejaVuSans-50" x="516.947266"/>
      <use xlink:href="#DejaVuSans-6f" x="573.625"/>
      <use xlink:href="#DejaVuSans-73" x="634.806641"/>
      <use xlink:href="#DejaVuSans-69" x="686.90625"/>
      <use xlink:href="#DejaVuSans-74" x="714.689453"/>
      <use xlink:href="#DejaVuSans-69" x="753.898438"/>
      <use xlink:href="#DejaVuSans-76" x="781.681641"/>
      <use xlink:href="#DejaVuSans-65" x="840.861328"/>
      <use xlink:href="#DejaVuSans-20" x="902.384766"/>
      <use xlink:href="#DejaVuSans-6c" x="934.171875"/>
      <use xlink:href="#DejaVuSans-61" x="961.955078"/>
      <use xlink:href="#DejaVuSans-62" x="1023.234375"/>
      <use xlink:href="#DejaVuSans-65" x="1086.710938"/>
      <use xlink:href="#DejaVuSans-6c" x="1148.234375"/>
      <use xlink:href="#DejaVuSans-3a" x="1176.017578"/>
      <use xlink:href="#DejaVuSans-20" x="1209.708984"/>
      <use xlink:href="#DejaVuSans-31" x="1241.496094"/>
      <use xlink:href="#DejaVuSans-2e" x="1305.119141"/>
      <use xlink:href="#DejaVuSans-30" x="1336.90625"/>
      <use xlink:href="#DejaVuSans-29" x="1400.529297"/>
     </g>
    </g>
   </g>
   <g id="line2d_12">
    <path d="M 398.487273 295.488 
L 398.487273 127.598737 
L 398.338689 127.598737 
L 398.338689 127.500462 
L 398.338689 126.699967 
L 398.190106 126.699967 
L 398.190106 126.600284 
L 398.190106 125.854118 
L 398.041523 125.854118 
L 398.041523 125.753099 
L 398.041523 124.304021 
L 397.595773 124.224191 
L 397.595773 123.60957 
L 397.298606 123.504896 
L 397.298606 123.528404 
L 397.298606 123.464229 
L 397.150023 123.464229 
L 397.150023 123.359232 
L 397.150023 123.230552 
L 397.00144 123.230552 
L 397.00144 123.125142 
L 397.00144 122.802176 
L 396.852856 122.802176 
L 396.852856 122.696046 
L 396.852856 122.631221 
L 396.704273 122.631221 
L 396.704273 122.524774 
L 396.704273 122.134284 
L 396.407106 122.027005 
L 396.407106 122.050259 
L 396.407106 121.919508 
L 396.10994 121.942749 
L 396.10994 121.835019 
L 396.10994 121.440987 
L 395.961356 121.440987 
L 395.961356 121.332412 
L 395.961356 120.33866 
L 395.812773 120.33866 
L 395.812773 120.228278 
L 395.812773 119.626137 
L 395.66419 119.626137 
L 395.66419 119.447317 
L 395.515606 119.447317 
L 395.515606 119.402753 
L 395.515606 119.133067 
L 395.367023 119.133067 
L 395.367023 119.155747 
L 395.367023 117.246411 
L 395.21844 117.246411 
L 395.21844 117.268661 
L 395.21844 116.716126 
L 395.069856 116.716126 
L 395.069856 116.668959 
L 395.069856 116.391268 
L 394.475523 116.318275 
L 394.475523 116.340354 
L 394.475523 116.061221 
L 394.32694 116.061221 
L 394.32694 115.943354 
L 394.178357 115.943354 
L 394.178357 115.544387 
L 394.029773 115.544387 
L 394.029773 115.425554 
L 393.43544 115.350253 
L 393.43544 115.230875 
L 393.138273 115.252773 
L 393.138273 115.062263 
L 392.09819 114.980564 
L 392.09819 114.931298 
L 390.612357 114.843226 
L 390.612357 114.72193 
L 389.720857 114.616341 
L 389.720857 114.566352 
L 388.680774 114.554191 
L 388.680774 114.43166 
L 387.640691 114.41906 
L 387.640691 114.368546 
L 387.640691 114.295892 
L 387.046357 114.216564 
L 387.046357 114.165755 
L 386.154857 114.203262 
L 386.154857 113.932661 
L 385.114774 113.918464 
L 385.114774 113.793433 
L 384.520441 113.76398 
L 384.520441 113.512749 
L 383.034608 113.415048 
L 383.034608 113.36278 
L 382.588858 113.384935 
L 382.588858 113.130806 
L 382.440275 113.130806 
L 382.440275 113.003317 
L 381.400191 112.910988 
L 381.400191 112.857934 
L 380.657275 112.84909 
L 380.657275 112.742572 
L 379.171442 112.639487 
L 379.171442 112.585769 
L 378.725692 112.478091 
L 378.725692 112.42413 
L 377.685608 112.404907 
L 377.685608 112.350686 
L 377.685608 112.274129 
L 377.091275 112.187529 
L 377.091275 112.132978 
L 376.348359 112.068148 
L 376.348359 112.013339 
L 375.754025 111.925746 
L 375.754025 111.793268 
L 375.011109 111.727259 
L 375.011109 111.671853 
L 374.416776 111.583065 
L 374.416776 111.527399 
L 374.119609 111.471648 
L 374.119609 111.41581 
L 373.822442 111.359887 
L 373.822442 111.303877 
L 373.079526 111.236146 
L 373.079526 111.179867 
L 372.782359 111.123501 
L 372.782359 111.067048 
L 372.336609 111.010507 
L 372.336609 110.897161 
L 372.039442 110.840356 
L 372.039442 110.783463 
L 371.445109 110.691664 
L 371.445109 110.634499 
L 371.147943 110.577245 
L 371.147943 110.519902 
L 370.553609 110.427192 
L 370.553609 110.369574 
L 369.810693 110.298578 
L 369.810693 110.240678 
L 368.77061 110.133266 
L 368.77061 110.074984 
L 368.027693 110.164323 
L 368.027693 110.186702 
L 367.730526 110.1283 
L 367.730526 110.069807 
L 367.43336 110.01122 
L 367.43336 109.952541 
L 367.136193 109.893768 
L 367.136193 109.834902 
L 366.393276 109.879647 
L 366.393276 109.702452 
L 366.09611 109.643199 
L 366.09611 109.583851 
L 364.461693 109.479857 
L 364.461693 109.419997 
L 364.015943 109.360039 
L 364.015943 109.239836 
L 363.718777 109.179588 
L 363.718777 109.119244 
L 361.787194 109.056536 
L 361.787194 108.99565 
L 361.490027 108.934665 
L 361.490027 108.873581 
L 361.19286 108.812397 
L 361.19286 108.751113 
L 360.895694 108.751113 
L 360.895694 108.628246 
L 360.301361 108.527455 
L 360.301361 108.465662 
L 360.004194 108.403768 
L 360.004194 108.341772 
L 359.707027 108.279674 
L 359.707027 108.217475 
L 359.409861 108.155173 
L 359.409861 108.092768 
L 358.815527 107.990083 
L 358.815527 107.927362 
L 358.518361 107.864538 
L 358.518361 107.801609 
L 358.221194 107.738576 
L 358.221194 107.675439 
L 357.626861 107.57125 
L 357.626861 107.50779 
L 357.329694 107.444225 
L 357.329694 107.380554 
L 356.735361 107.275272 
L 356.735361 107.211274 
L 356.438194 107.147169 
L 356.438194 107.082957 
L 356.141028 107.018638 
L 356.141028 106.954211 
L 355.843861 106.889676 
L 355.843861 106.825033 
L 355.546694 106.760281 
L 355.546694 106.695421 
L 354.803778 106.610002 
L 354.803778 106.544796 
L 353.466528 106.458707 
L 353.466528 106.129823 
L 353.169361 106.063711 
L 353.169361 105.997486 
L 352.872195 105.931149 
L 352.872195 105.864699 
L 352.277861 105.753713 
L 352.277861 105.686913 
L 350.494862 105.709177 
L 350.494862 104.966665 
L 348.563279 104.966665 
L 348.563279 104.070782 
L 348.266112 104.070782 
L 348.266112 103.931148 
L 347.374612 103.857049 
L 347.374612 103.786769 
L 346.780279 103.716365 
L 346.780279 103.50441 
L 345.888779 103.592482 
L 345.888779 103.636634 
L 344.848696 103.565662 
L 344.848696 103.137184 
L 343.065696 103.097648 
L 343.065696 103.025305 
L 340.985529 103.079876 
L 340.985529 102.86094 
L 340.539779 102.86094 
L 340.539779 102.640816 
L 339.796863 102.685246 
L 339.796863 102.463844 
L 338.905363 102.486049 
L 338.905363 102.114285 
L 338.013863 102.203035 
L 338.013863 102.247532 
L 337.270947 102.142231 
L 337.270947 102.067084 
L 336.97378 101.9918 
L 336.97378 101.916377 
L 336.676613 101.916377 
L 336.676613 101.765113 
L 336.379447 101.765113 
L 336.379447 101.613292 
L 336.08228 101.613292 
L 336.08228 101.460908 
L 307.85145 101.48307 
L 307.85145 83.994247 
L 307.108533 84.011321 
L 307.108533 83.560519 
L 277.986203 83.485714 
L 277.986203 86.997628 
L 277.83762 86.997628 
L 277.83762 86.874402 
L 277.39187 86.895576 
L 277.39187 86.648078 
L 277.243287 86.648078 
L 277.243287 86.523855 
L 277.094704 86.523855 
L 277.094704 86.399315 
L 276.50037 86.31636 
L 276.50037 86.191074 
L 276.351787 86.191074 
L 276.351787 86.065467 
L 276.203204 86.065467 
L 276.203204 85.939536 
L 276.05462 85.939536 
L 276.05462 85.813281 
L 275.460287 85.834057 
L 275.460287 85.453168 
L 275.311704 85.453168 
L 275.311704 85.325547 
L 275.16312 85.325547 
L 275.16312 85.197594 
L 275.014537 85.197594 
L 275.014537 85.06931 
L 274.123037 84.961103 
L 274.123037 84.443037 
L 273.974454 84.443037 
L 273.974454 84.312672 
L 273.825871 84.312672 
L 273.825871 84.181965 
L 273.677287 84.181965 
L 273.677287 84.050915 
L 273.528704 84.050915 
L 273.528704 83.91952 
L 273.380121 83.91952 
L 273.380121 83.787779 
L 273.231537 83.787779 
L 273.231537 83.655691 
L 273.082954 83.655691 
L 273.082954 83.523254 
L 272.934371 83.523254 
L 272.934371 83.390467 
L 272.785787 83.390467 
L 272.785787 83.257328 
L 272.488621 83.257328 
L 272.488621 82.989991 
L 272.340037 82.989991 
L 272.340037 82.85579 
L 272.042871 82.85579 
L 272.042871 82.586314 
L 271.894287 82.586314 
L 271.894287 82.451036 
L 271.448538 82.451036 
L 271.448538 82.04303 
L 271.299954 82.04303 
L 271.299954 81.906298 
L 271.151371 81.906298 
L 271.151371 81.769199 
L 270.854204 81.769199 
L 270.854204 81.493892 
L 270.705621 81.493892 
L 270.705621 81.355682 
L 269.368371 81.355682 
L 269.368371 80.09481 
L 268.476871 80.09481 
L 268.476871 79.236874 
L 268.328288 79.236874 
L 268.328288 79.092505 
L 265.505205 79.092505 
L 265.505205 76.271841 
L 265.356622 76.271841 
L 265.356622 76.119177 
L 264.465122 76.029846 
L 264.465122 75.875966 
L 264.316538 75.875966 
L 264.316538 75.721646 
L 264.167955 75.721646 
L 264.167955 75.566886 
L 264.019372 75.566886 
L 264.019372 75.411682 
L 263.870788 75.411682 
L 263.870788 75.256033 
L 263.722205 75.256033 
L 263.722205 75.099938 
L 263.573622 75.099938 
L 263.573622 74.943393 
L 256.441623 74.943393 
L 256.441623 66.860619 
L 255.847289 66.860619 
L 255.847289 66.132625 
L 255.698706 66.132625 
L 255.698706 65.94921 
L 255.104373 65.94921 
L 255.104373 65.209806 
L 254.658623 65.209806 
L 254.658623 64.649144 
L 254.51004 64.649144 
L 254.51004 64.461079 
L 253.61854 64.461079 
L 253.61854 63.320119 
L 252.578456 63.366891 
L 252.578456 63.173761 
L 252.429873 63.173761 
L 252.429873 62.980012 
L 251.38979 63.017902 
L 251.38979 62.627082 
L 251.092623 62.627082 
L 251.092623 62.233729 
L 250.94404 62.233729 
L 250.94404 62.036094 
L 249.458207 62.036094 
L 249.458207 60.023874 
L 249.309623 60.023874 
L 249.309623 59.818993 
L 249.16104 59.818993 
L 249.16104 59.613434 
L 249.012457 59.613434 
L 249.012457 59.407193 
L 248.863874 59.407193 
L 248.863874 59.200267 
L 248.71529 59.200267 
L 248.71529 58.992653 
L 248.566707 58.992653 
L 248.566707 58.784346 
L 248.418124 58.784346 
L 248.418124 58.575344 
L 248.120957 58.575344 
L 248.120957 58.155239 
L 247.675207 58.155239 
L 247.675207 57.519777 
L 247.37804 57.523106 
L 247.37804 57.309683 
L 247.080874 57.309683 
L 247.080874 56.880667 
L 246.189374 56.880667 
L 246.189374 55.576003 
L 246.040791 55.576003 
L 246.040791 55.355951 
L 245.892207 55.355951 
L 245.892207 55.135143 
L 245.743624 55.135143 
L 245.743624 54.913575 
L 245.446457 54.914733 
L 245.446457 54.692212 
L 245.149291 54.693182 
L 245.149291 54.469702 
L 245.000707 54.469702 
L 245.000707 54.245448 
L 244.852124 54.245448 
L 244.852124 54.020415 
L 244.703541 54.020415 
L 244.703541 53.794601 
L 243.960624 53.795391 
L 243.960624 53.568 
L 73.832727 53.568 
L 73.832727 53.568 
" clip-path="url(#p33f090b141)" style="fill: none; stroke: #4c72b0; stroke-width: 1.5; stroke-linecap: round"/>
   </g>
   <g id="patch_3">
    <path d="M 57.6 307.584 
L 57.6 41.472 
" style="fill: none; stroke: #ffffff; stroke-width: 1.25; stroke-linejoin: miter; stroke-linecap: square"/>
   </g>
   <g id="patch_4">
    <path d="M 414.72 307.584 
L 414.72 41.472 
" style="fill: none; stroke: #ffffff; stroke-width: 1.25; stroke-linejoin: miter; stroke-linecap: square"/>
   </g>
   <g id="patch_5">
    <path d="M 57.6 307.584 
L 414.72 307.584 
" style="fill: none; stroke: #ffffff; stroke-width: 1.25; stroke-linejoin: miter; stroke-linecap: square"/>
   </g>
   <g id="patch_6">
    <path d="M 57.6 41.472 
L 414.72 41.472 
" style="fill: none; stroke: #ffffff; stroke-width: 1.25; stroke-linejoin: miter; stroke-linecap: square"/>
   </g>
   <g id="text_14">
    <!-- Precision-recall curve -->
    <g style="fill: #262626" transform="translate(172.175625 35.472)scale(0.12 -0.12)">
     <defs>
      <path id="DejaVuSans-2d" d="M 313 2009 
L 1997 2009 
L 1997 1497 
L 313 1497 
L 313 2009 
z
" transform="scale(0.015625)"/>
      <path id="DejaVuSans-75" d="M 544 1381 
L 544 3500 
L 1119 3500 
L 1119 1403 
Q 1119 906 1312 657 
Q 1506 409 1894 409 
Q 2359 409 2629 706 
Q 2900 1003 2900 1516 
L 2900 3500 
L 3475 3500 
L 3475 0 
L 2900 0 
L 2900 538 
Q 2691 219 2414 64 
Q 2138 -91 1772 -91 
Q 1169 -91 856 284 
Q 544 659 544 1381 
z
M 1991 3584 
L 1991 3584 
z
" transform="scale(0.015625)"/>
     </defs>
     <use xlink:href="#DejaVuSans-50"/>
     <use xlink:href="#DejaVuSans-72" x="58.552734"/>
     <use xlink:href="#DejaVuSans-65" x="97.416016"/>
     <use xlink:href="#DejaVuSans-63" x="158.939453"/>
     <use xlink:href="#DejaVuSans-69" x="213.919922"/>
     <use xlink:href="#DejaVuSans-73" x="241.703125"/>
     <use xlink:href="#DejaVuSans-69" x="293.802734"/>
     <use xlink:href="#DejaVuSans-6f" x="321.585938"/>
     <use xlink:href="#DejaVuSans-6e" x="382.767578"/>
     <use xlink:href="#DejaVuSans-2d" x="446.146484"/>
     <use xlink:href="#DejaVuSans-72" x="482.230469"/>
     <use xlink:href="#DejaVuSans-65" x="521.09375"/>
     <use xlink:href="#DejaVuSans-63" x="582.617188"/>
     <use xlink:href="#DejaVuSans-61" x="637.597656"/>
     <use xlink:href="#DejaVuSans-6c" x="698.876953"/>
     <use xlink:href="#DejaVuSans-6c" x="726.660156"/>
     <use xlink:href="#DejaVuSans-20" x="754.443359"/>
     <use xlink:href="#DejaVuSans-63" x="786.230469"/>
     <use xlink:href="#DejaVuSans-75" x="841.210938"/>
     <use xlink:href="#DejaVuSans-72" x="904.589844"/>
     <use xlink:href="#DejaVuSans-76" x="945.703125"/>
     <use xlink:href="#DejaVuSans-65" x="1004.882812"/>
    </g>
   </g>
   <g id="legend_1">
    <g id="patch_7">
     <path d="M 65.3 302.084 
L 250.215156 302.084 
Q 252.415156 302.084 252.415156 299.884 
L 252.415156 284.838062 
Q 252.415156 282.638062 250.215156 282.638062 
L 65.3 282.638062 
Q 63.1 282.638062 63.1 284.838062 
L 63.1 299.884 
Q 63.1 302.084 65.3 302.084 
z
" style="fill: #eaeaf2; opacity: 0.8; stroke: #cccccc; stroke-linejoin: miter"/>
    </g>
    <g id="line2d_13">
     <path d="M 67.5 291.546344 
L 78.5 291.546344 
L 78.5 291.546344 
L 89.5 291.546344 
L 89.5 291.546344 
" style="fill: none; stroke: #4c72b0; stroke-width: 1.5; stroke-linecap: round"/>
    </g>
    <g id="text_15">
     <!-- Random Forest (AP = 0.92) -->
     <g style="fill: #262626" transform="translate(98.3 295.396344)scale(0.11 -0.11)">
      <defs>
       <path id="DejaVuSans-64" d="M 2906 2969 
L 2906 4863 
L 3481 4863 
L 3481 0 
L 2906 0 
L 2906 525 
Q 2725 213 2448 61 
Q 2172 -91 1784 -91 
Q 1150 -91 751 415 
Q 353 922 353 1747 
Q 353 2572 751 3078 
Q 1150 3584 1784 3584 
Q 2172 3584 2448 3432 
Q 2725 3281 2906 2969 
z
M 947 1747 
Q 947 1113 1208 752 
Q 1469 391 1925 391 
Q 2381 391 2643 752 
Q 2906 1113 2906 1747 
Q 2906 2381 2643 2742 
Q 2381 3103 1925 3103 
Q 1469 3103 1208 2742 
Q 947 2381 947 1747 
z
" transform="scale(0.015625)"/>
       <path id="DejaVuSans-6d" d="M 3328 2828 
Q 3544 3216 3844 3400 
Q 4144 3584 4550 3584 
Q 5097 3584 5394 3201 
Q 5691 2819 5691 2113 
L 5691 0 
L 5113 0 
L 5113 2094 
Q 5113 2597 4934 2840 
Q 4756 3084 4391 3084 
Q 3944 3084 3684 2787 
Q 3425 2491 3425 1978 
L 3425 0 
L 2847 0 
L 2847 2094 
Q 2847 2600 2669 2842 
Q 2491 3084 2119 3084 
Q 1678 3084 1418 2786 
Q 1159 2488 1159 1978 
L 1159 0 
L 581 0 
L 581 3500 
L 1159 3500 
L 1159 2956 
Q 1356 3278 1631 3431 
Q 1906 3584 2284 3584 
Q 2666 3584 2933 3390 
Q 3200 3197 3328 2828 
z
" transform="scale(0.015625)"/>
       <path id="DejaVuSans-46" d="M 628 4666 
L 3309 4666 
L 3309 4134 
L 1259 4134 
L 1259 2759 
L 3109 2759 
L 3109 2228 
L 1259 2228 
L 1259 0 
L 628 0 
L 628 4666 
z
" transform="scale(0.015625)"/>
       <path id="DejaVuSans-41" d="M 2188 4044 
L 1331 1722 
L 3047 1722 
L 2188 4044 
z
M 1831 4666 
L 2547 4666 
L 4325 0 
L 3669 0 
L 3244 1197 
L 1141 1197 
L 716 0 
L 50 0 
L 1831 4666 
z
" transform="scale(0.015625)"/>
       <path id="DejaVuSans-3d" d="M 678 2906 
L 4684 2906 
L 4684 2381 
L 678 2381 
L 678 2906 
z
M 678 1631 
L 4684 1631 
L 4684 1100 
L 678 1100 
L 678 1631 
z
" transform="scale(0.015625)"/>
       <path id="DejaVuSans-39" d="M 703 97 
L 703 672 
Q 941 559 1184 500 
Q 1428 441 1663 441 
Q 2288 441 2617 861 
Q 2947 1281 2994 2138 
Q 2813 1869 2534 1725 
Q 2256 1581 1919 1581 
Q 1219 1581 811 2004 
Q 403 2428 403 3163 
Q 403 3881 828 4315 
Q 1253 4750 1959 4750 
Q 2769 4750 3195 4129 
Q 3622 3509 3622 2328 
Q 3622 1225 3098 567 
Q 2575 -91 1691 -91 
Q 1453 -91 1209 -44 
Q 966 3 703 97 
z
M 1959 2075 
Q 2384 2075 2632 2365 
Q 2881 2656 2881 3163 
Q 2881 3666 2632 3958 
Q 2384 4250 1959 4250 
Q 1534 4250 1286 3958 
Q 1038 3666 1038 3163 
Q 1038 2656 1286 2365 
Q 1534 2075 1959 2075 
z
" transform="scale(0.015625)"/>
      </defs>
      <use xlink:href="#DejaVuSans-52"/>
      <use xlink:href="#DejaVuSans-61" x="67.232422"/>
      <use xlink:href="#DejaVuSans-6e" x="128.511719"/>
      <use xlink:href="#DejaVuSans-64" x="191.890625"/>
      <use xlink:href="#DejaVuSans-6f" x="255.367188"/>
      <use xlink:href="#DejaVuSans-6d" x="316.548828"/>
      <use xlink:href="#DejaVuSans-20" x="413.960938"/>
      <use xlink:href="#DejaVuSans-46" x="445.748047"/>
      <use xlink:href="#DejaVuSans-6f" x="499.642578"/>
      <use xlink:href="#DejaVuSans-72" x="560.824219"/>
      <use xlink:href="#DejaVuSans-65" x="599.6875"/>
      <use xlink:href="#DejaVuSans-73" x="661.210938"/>
      <use xlink:href="#DejaVuSans-74" x="713.310547"/>
      <use xlink:href="#DejaVuSans-20" x="752.519531"/>
      <use xlink:href="#DejaVuSans-28" x="784.306641"/>
      <use xlink:href="#DejaVuSans-41" x="823.320312"/>
      <use xlink:href="#DejaVuSans-50" x="891.728516"/>
      <use xlink:href="#DejaVuSans-20" x="952.03125"/>
      <use xlink:href="#DejaVuSans-3d" x="983.818359"/>
      <use xlink:href="#DejaVuSans-20" x="1067.607422"/>
      <use xlink:href="#DejaVuSans-30" x="1099.394531"/>
      <use xlink:href="#DejaVuSans-2e" x="1163.017578"/>
      <use xlink:href="#DejaVuSans-39" x="1194.804688"/>
      <use xlink:href="#DejaVuSans-32" x="1258.427734"/>
      <use xlink:href="#DejaVuSans-29" x="1322.050781"/>
     </g>
    </g>
   </g>
  </g>
 </g>
 <defs>
  <clipPath id="p33f090b141">
   <rect x="57.6" y="41.472" width="357.12" height="266.112"/>
  </clipPath>
 </defs>
</svg>
