<?xml version="1.0" encoding="utf-8" standalone="no"?>
<!DOCTYPE svg PUBLIC "-//W3C//DTD SVG 1.1//EN"
  "http://www.w3.org/Graphics/SVG/1.1/DTD/svg11.dtd">
<svg xmlns:xlink="http://www.w3.org/1999/xlink" width="3537pt" height="2168.373437pt" viewBox="0 0 3537 2168.373437" xmlns="http://www.w3.org/2000/svg" version="1.1">
 <metadata>
  <rdf:RDF xmlns:dc="http://purl.org/dc/elements/1.1/" xmlns:cc="http://creativecommons.org/ns#" xmlns:rdf="http://www.w3.org/1999/02/22-rdf-syntax-ns#">
   <cc:Work>
    <dc:type rdf:resource="http://purl.org/dc/dcmitype/StillImage"/>
    <dc:date>2022-11-22T17:59:36.436462</dc:date>
    <dc:format>image/svg+xml</dc:format>
    <dc:creator>
     <cc:Agent>
      <dc:title>Matplotlib v3.5.2, https://matplotlib.org/</dc:title>
     </cc:Agent>
    </dc:creator>
   </cc:Work>
  </rdf:RDF>
 </metadata>
 <defs>
  <style type="text/css">*{stroke-linejoin: round; stroke-linecap: butt}</style>
 </defs>
 <g id="figure_1">
  <g id="patch_1">
   <path d="M 0 2168.373437 
L 3537 2168.373437 
L 3537 0 
L 0 0 
z
" style="fill: #ffffff"/>
  </g>
  <g id="axes_1">
   <g id="patch_2">
    <path d="M 118.53 2080.894375 
L 3529.8 2080.894375 
L 3529.8 40.554375 
L 118.53 40.554375 
z
" style="fill: #eaeaf2"/>
   </g>
   <g id="matplotlib.axis_1">
    <g id="xtick_1">
     <g id="line2d_1">
      <path d="M 273.587727 2080.894375 
L 273.587727 40.554375 
" clip-path="url(#p5bff2ad645)" style="fill: none; stroke: #ffffff; stroke-linecap: round"/>
     </g>
     <g id="text_1">
      <!-- 0.0 -->
      <g style="fill: #262626" transform="translate(247.347571 2115.469219)scale(0.33 -0.33)">
       <defs>
        <path id="DejaVuSans-30" d="M 2034 4250 
Q 1547 4250 1301 3770 
Q 1056 3291 1056 2328 
Q 1056 1369 1301 889 
Q 1547 409 2034 409 
Q 2525 409 2770 889 
Q 3016 1369 3016 2328 
Q 3016 3291 2770 3770 
Q 2525 4250 2034 4250 
z
M 2034 4750 
Q 2819 4750 3233 4129 
Q 3647 3509 3647 2328 
Q 3647 1150 3233 529 
Q 2819 -91 2034 -91 
Q 1250 -91 836 529 
Q 422 1150 422 2328 
Q 422 3509 836 4129 
Q 1250 4750 2034 4750 
z
" transform="scale(0.015625)"/>
        <path id="DejaVuSans-2e" d="M 684 794 
L 1344 794 
L 1344 0 
L 684 0 
L 684 794 
z
" transform="scale(0.015625)"/>
       </defs>
       <use xlink:href="#DejaVuSans-30"/>
       <use xlink:href="#DejaVuSans-2e" x="63.623047"/>
       <use xlink:href="#DejaVuSans-30" x="95.410156"/>
      </g>
     </g>
    </g>
    <g id="xtick_2">
     <g id="line2d_2">
      <path d="M 893.818636 2080.894375 
L 893.818636 40.554375 
" clip-path="url(#p5bff2ad645)" style="fill: none; stroke: #ffffff; stroke-linecap: round"/>
     </g>
     <g id="text_2">
      <!-- 0.2 -->
      <g style="fill: #262626" transform="translate(867.57848 2115.469219)scale(0.33 -0.33)">
       <defs>
        <path id="DejaVuSans-32" d="M 1228 531 
L 3431 531 
L 3431 0 
L 469 0 
L 469 531 
Q 828 903 1448 1529 
Q 2069 2156 2228 2338 
Q 2531 2678 2651 2914 
Q 2772 3150 2772 3378 
Q 2772 3750 2511 3984 
Q 2250 4219 1831 4219 
Q 1534 4219 1204 4116 
Q 875 4013 500 3803 
L 500 4441 
Q 881 4594 1212 4672 
Q 1544 4750 1819 4750 
Q 2544 4750 2975 4387 
Q 3406 4025 3406 3419 
Q 3406 3131 3298 2873 
Q 3191 2616 2906 2266 
Q 2828 2175 2409 1742 
Q 1991 1309 1228 531 
z
" transform="scale(0.015625)"/>
       </defs>
       <use xlink:href="#DejaVuSans-30"/>
       <use xlink:href="#DejaVuSans-2e" x="63.623047"/>
       <use xlink:href="#DejaVuSans-32" x="95.410156"/>
      </g>
     </g>
    </g>
    <g id="xtick_3">
     <g id="line2d_3">
      <path d="M 1514.049545 2080.894375 
L 1514.049545 40.554375 
" clip-path="url(#p5bff2ad645)" style="fill: none; stroke: #ffffff; stroke-linecap: round"/>
     </g>
     <g id="text_3">
      <!-- 0.4 -->
      <g style="fill: #262626" transform="translate(1487.809389 2115.469219)scale(0.33 -0.33)">
       <defs>
        <path id="DejaVuSans-34" d="M 2419 4116 
L 825 1625 
L 2419 1625 
L 2419 4116 
z
M 2253 4666 
L 3047 4666 
L 3047 1625 
L 3713 1625 
L 3713 1100 
L 3047 1100 
L 3047 0 
L 2419 0 
L 2419 1100 
L 313 1100 
L 313 1709 
L 2253 4666 
z
" transform="scale(0.015625)"/>
       </defs>
       <use xlink:href="#DejaVuSans-30"/>
       <use xlink:href="#DejaVuSans-2e" x="63.623047"/>
       <use xlink:href="#DejaVuSans-34" x="95.410156"/>
      </g>
     </g>
    </g>
    <g id="xtick_4">
     <g id="line2d_4">
      <path d="M 2134.280455 2080.894375 
L 2134.280455 40.554375 
" clip-path="url(#p5bff2ad645)" style="fill: none; stroke: #ffffff; stroke-linecap: round"/>
     </g>
     <g id="text_4">
      <!-- 0.6 -->
      <g style="fill: #262626" transform="translate(2108.040298 2115.469219)scale(0.33 -0.33)">
       <defs>
        <path id="DejaVuSans-36" d="M 2113 2584 
Q 1688 2584 1439 2293 
Q 1191 2003 1191 1497 
Q 1191 994 1439 701 
Q 1688 409 2113 409 
Q 2538 409 2786 701 
Q 3034 994 3034 1497 
Q 3034 2003 2786 2293 
Q 2538 2584 2113 2584 
z
M 3366 4563 
L 3366 3988 
Q 3128 4100 2886 4159 
Q 2644 4219 2406 4219 
Q 1781 4219 1451 3797 
Q 1122 3375 1075 2522 
Q 1259 2794 1537 2939 
Q 1816 3084 2150 3084 
Q 2853 3084 3261 2657 
Q 3669 2231 3669 1497 
Q 3669 778 3244 343 
Q 2819 -91 2113 -91 
Q 1303 -91 875 529 
Q 447 1150 447 2328 
Q 447 3434 972 4092 
Q 1497 4750 2381 4750 
Q 2619 4750 2861 4703 
Q 3103 4656 3366 4563 
z
" transform="scale(0.015625)"/>
       </defs>
       <use xlink:href="#DejaVuSans-30"/>
       <use xlink:href="#DejaVuSans-2e" x="63.623047"/>
       <use xlink:href="#DejaVuSans-36" x="95.410156"/>
      </g>
     </g>
    </g>
    <g id="xtick_5">
     <g id="line2d_5">
      <path d="M 2754.511364 2080.894375 
L 2754.511364 40.554375 
" clip-path="url(#p5bff2ad645)" style="fill: none; stroke: #ffffff; stroke-linecap: round"/>
     </g>
     <g id="text_5">
      <!-- 0.8 -->
      <g style="fill: #262626" transform="translate(2728.271207 2115.469219)scale(0.33 -0.33)">
       <defs>
        <path id="DejaVuSans-38" d="M 2034 2216 
Q 1584 2216 1326 1975 
Q 1069 1734 1069 1313 
Q 1069 891 1326 650 
Q 1584 409 2034 409 
Q 2484 409 2743 651 
Q 3003 894 3003 1313 
Q 3003 1734 2745 1975 
Q 2488 2216 2034 2216 
z
M 1403 2484 
Q 997 2584 770 2862 
Q 544 3141 544 3541 
Q 544 4100 942 4425 
Q 1341 4750 2034 4750 
Q 2731 4750 3128 4425 
Q 3525 4100 3525 3541 
Q 3525 3141 3298 2862 
Q 3072 2584 2669 2484 
Q 3125 2378 3379 2068 
Q 3634 1759 3634 1313 
Q 3634 634 3220 271 
Q 2806 -91 2034 -91 
Q 1263 -91 848 271 
Q 434 634 434 1313 
Q 434 1759 690 2068 
Q 947 2378 1403 2484 
z
M 1172 3481 
Q 1172 3119 1398 2916 
Q 1625 2713 2034 2713 
Q 2441 2713 2670 2916 
Q 2900 3119 2900 3481 
Q 2900 3844 2670 4047 
Q 2441 4250 2034 4250 
Q 1625 4250 1398 4047 
Q 1172 3844 1172 3481 
z
" transform="scale(0.015625)"/>
       </defs>
       <use xlink:href="#DejaVuSans-30"/>
       <use xlink:href="#DejaVuSans-2e" x="63.623047"/>
       <use xlink:href="#DejaVuSans-38" x="95.410156"/>
      </g>
     </g>
    </g>
    <g id="xtick_6">
     <g id="line2d_6">
      <path d="M 3374.742273 2080.894375 
L 3374.742273 40.554375 
" clip-path="url(#p5bff2ad645)" style="fill: none; stroke: #ffffff; stroke-linecap: round"/>
     </g>
     <g id="text_6">
      <!-- 1.0 -->
      <g style="fill: #262626" transform="translate(3348.502116 2115.469219)scale(0.33 -0.33)">
       <defs>
        <path id="DejaVuSans-31" d="M 794 531 
L 1825 531 
L 1825 4091 
L 703 3866 
L 703 4441 
L 1819 4666 
L 2450 4666 
L 2450 531 
L 3481 531 
L 3481 0 
L 794 0 
L 794 531 
z
" transform="scale(0.015625)"/>
       </defs>
       <use xlink:href="#DejaVuSans-31"/>
       <use xlink:href="#DejaVuSans-2e" x="63.623047"/>
       <use xlink:href="#DejaVuSans-30" x="95.410156"/>
      </g>
     </g>
    </g>
    <g id="text_7">
     <!-- probability -->
     <g style="fill: #262626" transform="translate(1728.132187 2153.686563)scale(0.36 -0.36)">
      <defs>
       <path id="DejaVuSans-70" d="M 1159 525 
L 1159 -1331 
L 581 -1331 
L 581 3500 
L 1159 3500 
L 1159 2969 
Q 1341 3281 1617 3432 
Q 1894 3584 2278 3584 
Q 2916 3584 3314 3078 
Q 3713 2572 3713 1747 
Q 3713 922 3314 415 
Q 2916 -91 2278 -91 
Q 1894 -91 1617 61 
Q 1341 213 1159 525 
z
M 3116 1747 
Q 3116 2381 2855 2742 
Q 2594 3103 2138 3103 
Q 1681 3103 1420 2742 
Q 1159 2381 1159 1747 
Q 1159 1113 1420 752 
Q 1681 391 2138 391 
Q 2594 391 2855 752 
Q 3116 1113 3116 1747 
z
" transform="scale(0.015625)"/>
       <path id="DejaVuSans-72" d="M 2631 2963 
Q 2534 3019 2420 3045 
Q 2306 3072 2169 3072 
Q 1681 3072 1420 2755 
Q 1159 2438 1159 1844 
L 1159 0 
L 581 0 
L 581 3500 
L 1159 3500 
L 1159 2956 
Q 1341 3275 1631 3429 
Q 1922 3584 2338 3584 
Q 2397 3584 2469 3576 
Q 2541 3569 2628 3553 
L 2631 2963 
z
" transform="scale(0.015625)"/>
       <path id="DejaVuSans-6f" d="M 1959 3097 
Q 1497 3097 1228 2736 
Q 959 2375 959 1747 
Q 959 1119 1226 758 
Q 1494 397 1959 397 
Q 2419 397 2687 759 
Q 2956 1122 2956 1747 
Q 2956 2369 2687 2733 
Q 2419 3097 1959 3097 
z
M 1959 3584 
Q 2709 3584 3137 3096 
Q 3566 2609 3566 1747 
Q 3566 888 3137 398 
Q 2709 -91 1959 -91 
Q 1206 -91 779 398 
Q 353 888 353 1747 
Q 353 2609 779 3096 
Q 1206 3584 1959 3584 
z
" transform="scale(0.015625)"/>
       <path id="DejaVuSans-62" d="M 3116 1747 
Q 3116 2381 2855 2742 
Q 2594 3103 2138 3103 
Q 1681 3103 1420 2742 
Q 1159 2381 1159 1747 
Q 1159 1113 1420 752 
Q 1681 391 2138 391 
Q 2594 391 2855 752 
Q 3116 1113 3116 1747 
z
M 1159 2969 
Q 1341 3281 1617 3432 
Q 1894 3584 2278 3584 
Q 2916 3584 3314 3078 
Q 3713 2572 3713 1747 
Q 3713 922 3314 415 
Q 2916 -91 2278 -91 
Q 1894 -91 1617 61 
Q 1341 213 1159 525 
L 1159 0 
L 581 0 
L 581 4863 
L 1159 4863 
L 1159 2969 
z
" transform="scale(0.015625)"/>
       <path id="DejaVuSans-61" d="M 2194 1759 
Q 1497 1759 1228 1600 
Q 959 1441 959 1056 
Q 959 750 1161 570 
Q 1363 391 1709 391 
Q 2188 391 2477 730 
Q 2766 1069 2766 1631 
L 2766 1759 
L 2194 1759 
z
M 3341 1997 
L 3341 0 
L 2766 0 
L 2766 531 
Q 2569 213 2275 61 
Q 1981 -91 1556 -91 
Q 1019 -91 701 211 
Q 384 513 384 1019 
Q 384 1609 779 1909 
Q 1175 2209 1959 2209 
L 2766 2209 
L 2766 2266 
Q 2766 2663 2505 2880 
Q 2244 3097 1772 3097 
Q 1472 3097 1187 3025 
Q 903 2953 641 2809 
L 641 3341 
Q 956 3463 1253 3523 
Q 1550 3584 1831 3584 
Q 2591 3584 2966 3190 
Q 3341 2797 3341 1997 
z
" transform="scale(0.015625)"/>
       <path id="DejaVuSans-69" d="M 603 3500 
L 1178 3500 
L 1178 0 
L 603 0 
L 603 3500 
z
M 603 4863 
L 1178 4863 
L 1178 4134 
L 603 4134 
L 603 4863 
z
" transform="scale(0.015625)"/>
       <path id="DejaVuSans-6c" d="M 603 4863 
L 1178 4863 
L 1178 0 
L 603 0 
L 603 4863 
z
" transform="scale(0.015625)"/>
       <path id="DejaVuSans-74" d="M 1172 4494 
L 1172 3500 
L 2356 3500 
L 2356 3053 
L 1172 3053 
L 1172 1153 
Q 1172 725 1289 603 
Q 1406 481 1766 481 
L 2356 481 
L 2356 0 
L 1766 0 
Q 1100 0 847 248 
Q 594 497 594 1153 
L 594 3053 
L 172 3053 
L 172 3500 
L 594 3500 
L 594 4494 
L 1172 4494 
z
" transform="scale(0.015625)"/>
       <path id="DejaVuSans-79" d="M 2059 -325 
Q 1816 -950 1584 -1140 
Q 1353 -1331 966 -1331 
L 506 -1331 
L 506 -850 
L 844 -850 
Q 1081 -850 1212 -737 
Q 1344 -625 1503 -206 
L 1606 56 
L 191 3500 
L 800 3500 
L 1894 763 
L 2988 3500 
L 3597 3500 
L 2059 -325 
z
" transform="scale(0.015625)"/>
      </defs>
      <use xlink:href="#DejaVuSans-70"/>
      <use xlink:href="#DejaVuSans-72" x="63.476562"/>
      <use xlink:href="#DejaVuSans-6f" x="102.339844"/>
      <use xlink:href="#DejaVuSans-62" x="163.521484"/>
      <use xlink:href="#DejaVuSans-61" x="226.998047"/>
      <use xlink:href="#DejaVuSans-62" x="288.277344"/>
      <use xlink:href="#DejaVuSans-69" x="351.753906"/>
      <use xlink:href="#DejaVuSans-6c" x="379.537109"/>
      <use xlink:href="#DejaVuSans-69" x="407.320312"/>
      <use xlink:href="#DejaVuSans-74" x="435.103516"/>
      <use xlink:href="#DejaVuSans-79" x="474.3125"/>
     </g>
    </g>
   </g>
   <g id="matplotlib.axis_2">
    <g id="ytick_1">
     <g id="line2d_7">
      <path d="M 118.53 2080.894375 
L 3529.8 2080.894375 
" clip-path="url(#p5bff2ad645)" style="fill: none; stroke: #ffffff; stroke-linecap: round"/>
     </g>
     <g id="text_8">
      <!-- 0 -->
      <g style="fill: #262626" transform="translate(88.03375 2093.431797)scale(0.33 -0.33)">
       <use xlink:href="#DejaVuSans-30"/>
      </g>
     </g>
    </g>
    <g id="ytick_2">
     <g id="line2d_8">
      <path d="M 118.53 1725.000428 
L 3529.8 1725.000428 
" clip-path="url(#p5bff2ad645)" style="fill: none; stroke: #ffffff; stroke-linecap: round"/>
     </g>
     <g id="text_9">
      <!-- 50 -->
      <g style="fill: #262626" transform="translate(67.0375 1737.53785)scale(0.33 -0.33)">
       <defs>
        <path id="DejaVuSans-35" d="M 691 4666 
L 3169 4666 
L 3169 4134 
L 1269 4134 
L 1269 2991 
Q 1406 3038 1543 3061 
Q 1681 3084 1819 3084 
Q 2600 3084 3056 2656 
Q 3513 2228 3513 1497 
Q 3513 744 3044 326 
Q 2575 -91 1722 -91 
Q 1428 -91 1123 -41 
Q 819 9 494 109 
L 494 744 
Q 775 591 1075 516 
Q 1375 441 1709 441 
Q 2250 441 2565 725 
Q 2881 1009 2881 1497 
Q 2881 1984 2565 2268 
Q 2250 2553 1709 2553 
Q 1456 2553 1204 2497 
Q 953 2441 691 2322 
L 691 4666 
z
" transform="scale(0.015625)"/>
       </defs>
       <use xlink:href="#DejaVuSans-35"/>
       <use xlink:href="#DejaVuSans-30" x="63.623047"/>
      </g>
     </g>
    </g>
    <g id="ytick_3">
     <g id="line2d_9">
      <path d="M 118.53 1369.10648 
L 3529.8 1369.10648 
" clip-path="url(#p5bff2ad645)" style="fill: none; stroke: #ffffff; stroke-linecap: round"/>
     </g>
     <g id="text_10">
      <!-- 100 -->
      <g style="fill: #262626" transform="translate(46.04125 1381.643902)scale(0.33 -0.33)">
       <use xlink:href="#DejaVuSans-31"/>
       <use xlink:href="#DejaVuSans-30" x="63.623047"/>
       <use xlink:href="#DejaVuSans-30" x="127.246094"/>
      </g>
     </g>
    </g>
    <g id="ytick_4">
     <g id="line2d_10">
      <path d="M 118.53 1013.212533 
L 3529.8 1013.212533 
" clip-path="url(#p5bff2ad645)" style="fill: none; stroke: #ffffff; stroke-linecap: round"/>
     </g>
     <g id="text_11">
      <!-- 150 -->
      <g style="fill: #262626" transform="translate(46.04125 1025.749955)scale(0.33 -0.33)">
       <use xlink:href="#DejaVuSans-31"/>
       <use xlink:href="#DejaVuSans-35" x="63.623047"/>
       <use xlink:href="#DejaVuSans-30" x="127.246094"/>
      </g>
     </g>
    </g>
    <g id="ytick_5">
     <g id="line2d_11">
      <path d="M 118.53 657.318586 
L 3529.8 657.318586 
" clip-path="url(#p5bff2ad645)" style="fill: none; stroke: #ffffff; stroke-linecap: round"/>
     </g>
     <g id="text_12">
      <!-- 200 -->
      <g style="fill: #262626" transform="translate(46.04125 669.856008)scale(0.33 -0.33)">
       <use xlink:href="#DejaVuSans-32"/>
       <use xlink:href="#DejaVuSans-30" x="63.623047"/>
       <use xlink:href="#DejaVuSans-30" x="127.246094"/>
      </g>
     </g>
    </g>
    <g id="ytick_6">
     <g id="line2d_12">
      <path d="M 118.53 301.424638 
L 3529.8 301.424638 
" clip-path="url(#p5bff2ad645)" style="fill: none; stroke: #ffffff; stroke-linecap: round"/>
     </g>
     <g id="text_13">
      <!-- 250 -->
      <g style="fill: #262626" transform="translate(46.04125 313.96206)scale(0.33 -0.33)">
       <use xlink:href="#DejaVuSans-32"/>
       <use xlink:href="#DejaVuSans-35" x="63.623047"/>
       <use xlink:href="#DejaVuSans-30" x="127.246094"/>
      </g>
     </g>
    </g>
    <g id="text_14">
     <!-- Count -->
     <g style="fill: #262626" transform="translate(34.554375 1114.17875)rotate(-90)scale(0.36 -0.36)">
      <defs>
       <path id="DejaVuSans-43" d="M 4122 4306 
L 4122 3641 
Q 3803 3938 3442 4084 
Q 3081 4231 2675 4231 
Q 1875 4231 1450 3742 
Q 1025 3253 1025 2328 
Q 1025 1406 1450 917 
Q 1875 428 2675 428 
Q 3081 428 3442 575 
Q 3803 722 4122 1019 
L 4122 359 
Q 3791 134 3420 21 
Q 3050 -91 2638 -91 
Q 1578 -91 968 557 
Q 359 1206 359 2328 
Q 359 3453 968 4101 
Q 1578 4750 2638 4750 
Q 3056 4750 3426 4639 
Q 3797 4528 4122 4306 
z
" transform="scale(0.015625)"/>
       <path id="DejaVuSans-75" d="M 544 1381 
L 544 3500 
L 1119 3500 
L 1119 1403 
Q 1119 906 1312 657 
Q 1506 409 1894 409 
Q 2359 409 2629 706 
Q 2900 1003 2900 1516 
L 2900 3500 
L 3475 3500 
L 3475 0 
L 2900 0 
L 2900 538 
Q 2691 219 2414 64 
Q 2138 -91 1772 -91 
Q 1169 -91 856 284 
Q 544 659 544 1381 
z
M 1991 3584 
L 1991 3584 
z
" transform="scale(0.015625)"/>
       <path id="DejaVuSans-6e" d="M 3513 2113 
L 3513 0 
L 2938 0 
L 2938 2094 
Q 2938 2591 2744 2837 
Q 2550 3084 2163 3084 
Q 1697 3084 1428 2787 
Q 1159 2491 1159 1978 
L 1159 0 
L 581 0 
L 581 3500 
L 1159 3500 
L 1159 2956 
Q 1366 3272 1645 3428 
Q 1925 3584 2291 3584 
Q 2894 3584 3203 3211 
Q 3513 2838 3513 2113 
z
" transform="scale(0.015625)"/>
      </defs>
      <use xlink:href="#DejaVuSans-43"/>
      <use xlink:href="#DejaVuSans-6f" x="69.824219"/>
      <use xlink:href="#DejaVuSans-75" x="131.005859"/>
      <use xlink:href="#DejaVuSans-6e" x="194.384766"/>
      <use xlink:href="#DejaVuSans-74" x="257.763672"/>
     </g>
    </g>
   </g>
   <g id="patch_3">
    <path d="M 304.599273 2080.894375 
L 335.610818 2080.894375 
L 335.610818 2080.894375 
L 304.599273 2080.894375 
z
" clip-path="url(#p5bff2ad645)" style="fill: #ffa500; fill-opacity: 0.5; stroke: #ffffff; stroke-linejoin: miter"/>
   </g>
   <g id="patch_4">
    <path d="M 335.610818 2080.894375 
L 366.622364 2080.894375 
L 366.622364 2080.894375 
L 335.610818 2080.894375 
z
" clip-path="url(#p5bff2ad645)" style="fill: #ffa500; fill-opacity: 0.5; stroke: #ffffff; stroke-linejoin: miter"/>
   </g>
   <g id="patch_5">
    <path d="M 366.622364 2080.894375 
L 397.633909 2080.894375 
L 397.633909 2080.894375 
L 366.622364 2080.894375 
z
" clip-path="url(#p5bff2ad645)" style="fill: #ffa500; fill-opacity: 0.5; stroke: #ffffff; stroke-linejoin: miter"/>
   </g>
   <g id="patch_6">
    <path d="M 397.633909 2080.894375 
L 428.645455 2080.894375 
L 428.645455 2080.894375 
L 397.633909 2080.894375 
z
" clip-path="url(#p5bff2ad645)" style="fill: #ffa500; fill-opacity: 0.5; stroke: #ffffff; stroke-linejoin: miter"/>
   </g>
   <g id="patch_7">
    <path d="M 428.645455 2080.894375 
L 459.657 2080.894375 
L 459.657 2080.894375 
L 428.645455 2080.894375 
z
" clip-path="url(#p5bff2ad645)" style="fill: #ffa500; fill-opacity: 0.5; stroke: #ffffff; stroke-linejoin: miter"/>
   </g>
   <g id="patch_8">
    <path d="M 459.657 2080.894375 
L 490.668545 2080.894375 
L 490.668545 2080.894375 
L 459.657 2080.894375 
z
" clip-path="url(#p5bff2ad645)" style="fill: #ffa500; fill-opacity: 0.5; stroke: #ffffff; stroke-linejoin: miter"/>
   </g>
   <g id="patch_9">
    <path d="M 490.668545 2080.894375 
L 521.680091 2080.894375 
L 521.680091 2080.894375 
L 490.668545 2080.894375 
z
" clip-path="url(#p5bff2ad645)" style="fill: #ffa500; fill-opacity: 0.5; stroke: #ffffff; stroke-linejoin: miter"/>
   </g>
   <g id="patch_10">
    <path d="M 521.680091 2080.894375 
L 552.691636 2080.894375 
L 552.691636 2080.894375 
L 521.680091 2080.894375 
z
" clip-path="url(#p5bff2ad645)" style="fill: #ffa500; fill-opacity: 0.5; stroke: #ffffff; stroke-linejoin: miter"/>
   </g>
   <g id="patch_11">
    <path d="M 552.691636 2080.894375 
L 583.703182 2080.894375 
L 583.703182 2080.894375 
L 552.691636 2080.894375 
z
" clip-path="url(#p5bff2ad645)" style="fill: #ffa500; fill-opacity: 0.5; stroke: #ffffff; stroke-linejoin: miter"/>
   </g>
   <g id="patch_12">
    <path d="M 583.703182 2080.894375 
L 614.714727 2080.894375 
L 614.714727 2080.894375 
L 583.703182 2080.894375 
z
" clip-path="url(#p5bff2ad645)" style="fill: #ffa500; fill-opacity: 0.5; stroke: #ffffff; stroke-linejoin: miter"/>
   </g>
   <g id="patch_13">
    <path d="M 614.714727 2080.894375 
L 645.726273 2080.894375 
L 645.726273 2080.894375 
L 614.714727 2080.894375 
z
" clip-path="url(#p5bff2ad645)" style="fill: #ffa500; fill-opacity: 0.5; stroke: #ffffff; stroke-linejoin: miter"/>
   </g>
   <g id="patch_14">
    <path d="M 645.726273 2080.894375 
L 676.737818 2080.894375 
L 676.737818 2080.894375 
L 645.726273 2080.894375 
z
" clip-path="url(#p5bff2ad645)" style="fill: #ffa500; fill-opacity: 0.5; stroke: #ffffff; stroke-linejoin: miter"/>
   </g>
   <g id="patch_15">
    <path d="M 676.737818 2080.894375 
L 707.749364 2080.894375 
L 707.749364 2080.894375 
L 676.737818 2080.894375 
z
" clip-path="url(#p5bff2ad645)" style="fill: #ffa500; fill-opacity: 0.5; stroke: #ffffff; stroke-linejoin: miter"/>
   </g>
   <g id="patch_16">
    <path d="M 707.749364 2080.894375 
L 738.760909 2080.894375 
L 738.760909 2080.894375 
L 707.749364 2080.894375 
z
" clip-path="url(#p5bff2ad645)" style="fill: #ffa500; fill-opacity: 0.5; stroke: #ffffff; stroke-linejoin: miter"/>
   </g>
   <g id="patch_17">
    <path d="M 738.760909 2080.894375 
L 769.772455 2080.894375 
L 769.772455 2073.776496 
L 738.760909 2073.776496 
z
" clip-path="url(#p5bff2ad645)" style="fill: #ffa500; fill-opacity: 0.5; stroke: #ffffff; stroke-linejoin: miter"/>
   </g>
   <g id="patch_18">
    <path d="M 769.772455 2080.894375 
L 800.784 2080.894375 
L 800.784 2073.776496 
L 769.772455 2073.776496 
z
" clip-path="url(#p5bff2ad645)" style="fill: #ffa500; fill-opacity: 0.5; stroke: #ffffff; stroke-linejoin: miter"/>
   </g>
   <g id="patch_19">
    <path d="M 800.784 2080.894375 
L 831.795545 2080.894375 
L 831.795545 2073.776496 
L 800.784 2073.776496 
z
" clip-path="url(#p5bff2ad645)" style="fill: #ffa500; fill-opacity: 0.5; stroke: #ffffff; stroke-linejoin: miter"/>
   </g>
   <g id="patch_20">
    <path d="M 831.795545 2080.894375 
L 862.807091 2080.894375 
L 862.807091 2059.540738 
L 831.795545 2059.540738 
z
" clip-path="url(#p5bff2ad645)" style="fill: #ffa500; fill-opacity: 0.5; stroke: #ffffff; stroke-linejoin: miter"/>
   </g>
   <g id="patch_21">
    <path d="M 862.807091 2080.894375 
L 893.818636 2080.894375 
L 893.818636 1717.882549 
L 862.807091 1717.882549 
z
" clip-path="url(#p5bff2ad645)" style="fill: #ffa500; fill-opacity: 0.5; stroke: #ffffff; stroke-linejoin: miter"/>
   </g>
   <g id="patch_22">
    <path d="M 893.818636 2080.894375 
L 924.830182 2080.894375 
L 924.830182 2009.715586 
L 893.818636 2009.715586 
z
" clip-path="url(#p5bff2ad645)" style="fill: #ffa500; fill-opacity: 0.5; stroke: #ffffff; stroke-linejoin: miter"/>
   </g>
   <g id="patch_23">
    <path d="M 924.830182 2080.894375 
L 955.841727 2080.894375 
L 955.841727 2023.951343 
L 924.830182 2023.951343 
z
" clip-path="url(#p5bff2ad645)" style="fill: #ffa500; fill-opacity: 0.5; stroke: #ffffff; stroke-linejoin: miter"/>
   </g>
   <g id="patch_24">
    <path d="M 955.841727 2080.894375 
L 986.853273 2080.894375 
L 986.853273 1967.008312 
L 955.841727 1967.008312 
z
" clip-path="url(#p5bff2ad645)" style="fill: #ffa500; fill-opacity: 0.5; stroke: #ffffff; stroke-linejoin: miter"/>
   </g>
   <g id="patch_25">
    <path d="M 986.853273 2080.894375 
L 1017.864818 2080.894375 
L 1017.864818 2052.422859 
L 986.853273 2052.422859 
z
" clip-path="url(#p5bff2ad645)" style="fill: #ffa500; fill-opacity: 0.5; stroke: #ffffff; stroke-linejoin: miter"/>
   </g>
   <g id="patch_26">
    <path d="M 1017.864818 2080.894375 
L 1048.876364 2080.894375 
L 1048.876364 1660.939517 
L 1017.864818 1660.939517 
z
" clip-path="url(#p5bff2ad645)" style="fill: #ffa500; fill-opacity: 0.5; stroke: #ffffff; stroke-linejoin: miter"/>
   </g>
   <g id="patch_27">
    <path d="M 1048.876364 2080.894375 
L 1079.887909 2080.894375 
L 1079.887909 2045.30498 
L 1048.876364 2045.30498 
z
" clip-path="url(#p5bff2ad645)" style="fill: #ffa500; fill-opacity: 0.5; stroke: #ffffff; stroke-linejoin: miter"/>
   </g>
   <g id="patch_28">
    <path d="M 1079.887909 2080.894375 
L 1110.899455 2080.894375 
L 1110.899455 2066.658617 
L 1079.887909 2066.658617 
z
" clip-path="url(#p5bff2ad645)" style="fill: #ffa500; fill-opacity: 0.5; stroke: #ffffff; stroke-linejoin: miter"/>
   </g>
   <g id="patch_29">
    <path d="M 1110.899455 2080.894375 
L 1141.911 2080.894375 
L 1141.911 2080.894375 
L 1110.899455 2080.894375 
z
" clip-path="url(#p5bff2ad645)" style="fill: #ffa500; fill-opacity: 0.5; stroke: #ffffff; stroke-linejoin: miter"/>
   </g>
   <g id="patch_30">
    <path d="M 1141.911 2080.894375 
L 1172.922545 2080.894375 
L 1172.922545 2080.894375 
L 1141.911 2080.894375 
z
" clip-path="url(#p5bff2ad645)" style="fill: #ffa500; fill-opacity: 0.5; stroke: #ffffff; stroke-linejoin: miter"/>
   </g>
   <g id="patch_31">
    <path d="M 1172.922545 2080.894375 
L 1203.934091 2080.894375 
L 1203.934091 2080.894375 
L 1172.922545 2080.894375 
z
" clip-path="url(#p5bff2ad645)" style="fill: #ffa500; fill-opacity: 0.5; stroke: #ffffff; stroke-linejoin: miter"/>
   </g>
   <g id="patch_32">
    <path d="M 1203.934091 2080.894375 
L 1234.945636 2080.894375 
L 1234.945636 2080.894375 
L 1203.934091 2080.894375 
z
" clip-path="url(#p5bff2ad645)" style="fill: #ffa500; fill-opacity: 0.5; stroke: #ffffff; stroke-linejoin: miter"/>
   </g>
   <g id="patch_33">
    <path d="M 1234.945636 2080.894375 
L 1265.957182 2080.894375 
L 1265.957182 2080.894375 
L 1234.945636 2080.894375 
z
" clip-path="url(#p5bff2ad645)" style="fill: #ffa500; fill-opacity: 0.5; stroke: #ffffff; stroke-linejoin: miter"/>
   </g>
   <g id="patch_34">
    <path d="M 1265.957182 2080.894375 
L 1296.968727 2080.894375 
L 1296.968727 2080.894375 
L 1265.957182 2080.894375 
z
" clip-path="url(#p5bff2ad645)" style="fill: #ffa500; fill-opacity: 0.5; stroke: #ffffff; stroke-linejoin: miter"/>
   </g>
   <g id="patch_35">
    <path d="M 1296.968727 2080.894375 
L 1327.980273 2080.894375 
L 1327.980273 2080.894375 
L 1296.968727 2080.894375 
z
" clip-path="url(#p5bff2ad645)" style="fill: #ffa500; fill-opacity: 0.5; stroke: #ffffff; stroke-linejoin: miter"/>
   </g>
   <g id="patch_36">
    <path d="M 1327.980273 2080.894375 
L 1358.991818 2080.894375 
L 1358.991818 2080.894375 
L 1327.980273 2080.894375 
z
" clip-path="url(#p5bff2ad645)" style="fill: #ffa500; fill-opacity: 0.5; stroke: #ffffff; stroke-linejoin: miter"/>
   </g>
   <g id="patch_37">
    <path d="M 1358.991818 2080.894375 
L 1390.003364 2080.894375 
L 1390.003364 2080.894375 
L 1358.991818 2080.894375 
z
" clip-path="url(#p5bff2ad645)" style="fill: #ffa500; fill-opacity: 0.5; stroke: #ffffff; stroke-linejoin: miter"/>
   </g>
   <g id="patch_38">
    <path d="M 1390.003364 2080.894375 
L 1421.014909 2080.894375 
L 1421.014909 2080.894375 
L 1390.003364 2080.894375 
z
" clip-path="url(#p5bff2ad645)" style="fill: #ffa500; fill-opacity: 0.5; stroke: #ffffff; stroke-linejoin: miter"/>
   </g>
   <g id="patch_39">
    <path d="M 1421.014909 2080.894375 
L 1452.026455 2080.894375 
L 1452.026455 2080.894375 
L 1421.014909 2080.894375 
z
" clip-path="url(#p5bff2ad645)" style="fill: #ffa500; fill-opacity: 0.5; stroke: #ffffff; stroke-linejoin: miter"/>
   </g>
   <g id="patch_40">
    <path d="M 1452.026455 2080.894375 
L 1483.038 2080.894375 
L 1483.038 2080.894375 
L 1452.026455 2080.894375 
z
" clip-path="url(#p5bff2ad645)" style="fill: #ffa500; fill-opacity: 0.5; stroke: #ffffff; stroke-linejoin: miter"/>
   </g>
   <g id="patch_41">
    <path d="M 1483.038 2080.894375 
L 1514.049545 2080.894375 
L 1514.049545 2080.894375 
L 1483.038 2080.894375 
z
" clip-path="url(#p5bff2ad645)" style="fill: #ffa500; fill-opacity: 0.5; stroke: #ffffff; stroke-linejoin: miter"/>
   </g>
   <g id="patch_42">
    <path d="M 1514.049545 2080.894375 
L 1545.061091 2080.894375 
L 1545.061091 2073.776496 
L 1514.049545 2073.776496 
z
" clip-path="url(#p5bff2ad645)" style="fill: #ffa500; fill-opacity: 0.5; stroke: #ffffff; stroke-linejoin: miter"/>
   </g>
   <g id="patch_43">
    <path d="M 1545.061091 2080.894375 
L 1576.072636 2080.894375 
L 1576.072636 2080.894375 
L 1545.061091 2080.894375 
z
" clip-path="url(#p5bff2ad645)" style="fill: #ffa500; fill-opacity: 0.5; stroke: #ffffff; stroke-linejoin: miter"/>
   </g>
   <g id="patch_44">
    <path d="M 1576.072636 2080.894375 
L 1607.084182 2080.894375 
L 1607.084182 2080.894375 
L 1576.072636 2080.894375 
z
" clip-path="url(#p5bff2ad645)" style="fill: #ffa500; fill-opacity: 0.5; stroke: #ffffff; stroke-linejoin: miter"/>
   </g>
   <g id="patch_45">
    <path d="M 1607.084182 2080.894375 
L 1638.095727 2080.894375 
L 1638.095727 2080.894375 
L 1607.084182 2080.894375 
z
" clip-path="url(#p5bff2ad645)" style="fill: #ffa500; fill-opacity: 0.5; stroke: #ffffff; stroke-linejoin: miter"/>
   </g>
   <g id="patch_46">
    <path d="M 1638.095727 2080.894375 
L 1669.107273 2080.894375 
L 1669.107273 2080.894375 
L 1638.095727 2080.894375 
z
" clip-path="url(#p5bff2ad645)" style="fill: #ffa500; fill-opacity: 0.5; stroke: #ffffff; stroke-linejoin: miter"/>
   </g>
   <g id="patch_47">
    <path d="M 1669.107273 2080.894375 
L 1700.118818 2080.894375 
L 1700.118818 2066.658617 
L 1669.107273 2066.658617 
z
" clip-path="url(#p5bff2ad645)" style="fill: #ffa500; fill-opacity: 0.5; stroke: #ffffff; stroke-linejoin: miter"/>
   </g>
   <g id="patch_48">
    <path d="M 1700.118818 2080.894375 
L 1731.130364 2080.894375 
L 1731.130364 2080.894375 
L 1700.118818 2080.894375 
z
" clip-path="url(#p5bff2ad645)" style="fill: #ffa500; fill-opacity: 0.5; stroke: #ffffff; stroke-linejoin: miter"/>
   </g>
   <g id="patch_49">
    <path d="M 1731.130364 2080.894375 
L 1762.141909 2080.894375 
L 1762.141909 2080.894375 
L 1731.130364 2080.894375 
z
" clip-path="url(#p5bff2ad645)" style="fill: #ffa500; fill-opacity: 0.5; stroke: #ffffff; stroke-linejoin: miter"/>
   </g>
   <g id="patch_50">
    <path d="M 1762.141909 2080.894375 
L 1793.153455 2080.894375 
L 1793.153455 2073.776496 
L 1762.141909 2073.776496 
z
" clip-path="url(#p5bff2ad645)" style="fill: #ffa500; fill-opacity: 0.5; stroke: #ffffff; stroke-linejoin: miter"/>
   </g>
   <g id="patch_51">
    <path d="M 1793.153455 2080.894375 
L 1824.165 2080.894375 
L 1824.165 2080.894375 
L 1793.153455 2080.894375 
z
" clip-path="url(#p5bff2ad645)" style="fill: #ffa500; fill-opacity: 0.5; stroke: #ffffff; stroke-linejoin: miter"/>
   </g>
   <g id="patch_52">
    <path d="M 1824.165 2080.894375 
L 1855.176545 2080.894375 
L 1855.176545 2080.894375 
L 1824.165 2080.894375 
z
" clip-path="url(#p5bff2ad645)" style="fill: #ffa500; fill-opacity: 0.5; stroke: #ffffff; stroke-linejoin: miter"/>
   </g>
   <g id="patch_53">
    <path d="M 1855.176545 2080.894375 
L 1886.188091 2080.894375 
L 1886.188091 2080.894375 
L 1855.176545 2080.894375 
z
" clip-path="url(#p5bff2ad645)" style="fill: #ffa500; fill-opacity: 0.5; stroke: #ffffff; stroke-linejoin: miter"/>
   </g>
   <g id="patch_54">
    <path d="M 1886.188091 2080.894375 
L 1917.199636 2080.894375 
L 1917.199636 2080.894375 
L 1886.188091 2080.894375 
z
" clip-path="url(#p5bff2ad645)" style="fill: #ffa500; fill-opacity: 0.5; stroke: #ffffff; stroke-linejoin: miter"/>
   </g>
   <g id="patch_55">
    <path d="M 1917.199636 2080.894375 
L 1948.211182 2080.894375 
L 1948.211182 2066.658617 
L 1917.199636 2066.658617 
z
" clip-path="url(#p5bff2ad645)" style="fill: #ffa500; fill-opacity: 0.5; stroke: #ffffff; stroke-linejoin: miter"/>
   </g>
   <g id="patch_56">
    <path d="M 1948.211182 2080.894375 
L 1979.222727 2080.894375 
L 1979.222727 2080.894375 
L 1948.211182 2080.894375 
z
" clip-path="url(#p5bff2ad645)" style="fill: #ffa500; fill-opacity: 0.5; stroke: #ffffff; stroke-linejoin: miter"/>
   </g>
   <g id="patch_57">
    <path d="M 1979.222727 2080.894375 
L 2010.234273 2080.894375 
L 2010.234273 2073.776496 
L 1979.222727 2073.776496 
z
" clip-path="url(#p5bff2ad645)" style="fill: #ffa500; fill-opacity: 0.5; stroke: #ffffff; stroke-linejoin: miter"/>
   </g>
   <g id="patch_58">
    <path d="M 2010.234273 2080.894375 
L 2041.245818 2080.894375 
L 2041.245818 2080.894375 
L 2010.234273 2080.894375 
z
" clip-path="url(#p5bff2ad645)" style="fill: #ffa500; fill-opacity: 0.5; stroke: #ffffff; stroke-linejoin: miter"/>
   </g>
   <g id="patch_59">
    <path d="M 2041.245818 2080.894375 
L 2072.257364 2080.894375 
L 2072.257364 2073.776496 
L 2041.245818 2073.776496 
z
" clip-path="url(#p5bff2ad645)" style="fill: #ffa500; fill-opacity: 0.5; stroke: #ffffff; stroke-linejoin: miter"/>
   </g>
   <g id="patch_60">
    <path d="M 2072.257364 2080.894375 
L 2103.268909 2080.894375 
L 2103.268909 2073.776496 
L 2072.257364 2073.776496 
z
" clip-path="url(#p5bff2ad645)" style="fill: #ffa500; fill-opacity: 0.5; stroke: #ffffff; stroke-linejoin: miter"/>
   </g>
   <g id="patch_61">
    <path d="M 2103.268909 2080.894375 
L 2134.280455 2080.894375 
L 2134.280455 2080.894375 
L 2103.268909 2080.894375 
z
" clip-path="url(#p5bff2ad645)" style="fill: #ffa500; fill-opacity: 0.5; stroke: #ffffff; stroke-linejoin: miter"/>
   </g>
   <g id="patch_62">
    <path d="M 2134.280455 2080.894375 
L 2165.292 2080.894375 
L 2165.292 2080.894375 
L 2134.280455 2080.894375 
z
" clip-path="url(#p5bff2ad645)" style="fill: #ffa500; fill-opacity: 0.5; stroke: #ffffff; stroke-linejoin: miter"/>
   </g>
   <g id="patch_63">
    <path d="M 2165.292 2080.894375 
L 2196.303545 2080.894375 
L 2196.303545 2066.658617 
L 2165.292 2066.658617 
z
" clip-path="url(#p5bff2ad645)" style="fill: #ffa500; fill-opacity: 0.5; stroke: #ffffff; stroke-linejoin: miter"/>
   </g>
   <g id="patch_64">
    <path d="M 2196.303545 2080.894375 
L 2227.315091 2080.894375 
L 2227.315091 2080.894375 
L 2196.303545 2080.894375 
z
" clip-path="url(#p5bff2ad645)" style="fill: #ffa500; fill-opacity: 0.5; stroke: #ffffff; stroke-linejoin: miter"/>
   </g>
   <g id="patch_65">
    <path d="M 2227.315091 2080.894375 
L 2258.326636 2080.894375 
L 2258.326636 2066.658617 
L 2227.315091 2066.658617 
z
" clip-path="url(#p5bff2ad645)" style="fill: #ffa500; fill-opacity: 0.5; stroke: #ffffff; stroke-linejoin: miter"/>
   </g>
   <g id="patch_66">
    <path d="M 2258.326636 2080.894375 
L 2289.338182 2080.894375 
L 2289.338182 2066.658617 
L 2258.326636 2066.658617 
z
" clip-path="url(#p5bff2ad645)" style="fill: #ffa500; fill-opacity: 0.5; stroke: #ffffff; stroke-linejoin: miter"/>
   </g>
   <g id="patch_67">
    <path d="M 2289.338182 2080.894375 
L 2320.349727 2080.894375 
L 2320.349727 2080.894375 
L 2289.338182 2080.894375 
z
" clip-path="url(#p5bff2ad645)" style="fill: #ffa500; fill-opacity: 0.5; stroke: #ffffff; stroke-linejoin: miter"/>
   </g>
   <g id="patch_68">
    <path d="M 2320.349727 2080.894375 
L 2351.361273 2080.894375 
L 2351.361273 2080.894375 
L 2320.349727 2080.894375 
z
" clip-path="url(#p5bff2ad645)" style="fill: #ffa500; fill-opacity: 0.5; stroke: #ffffff; stroke-linejoin: miter"/>
   </g>
   <g id="patch_69">
    <path d="M 2351.361273 2080.894375 
L 2382.372818 2080.894375 
L 2382.372818 2080.894375 
L 2351.361273 2080.894375 
z
" clip-path="url(#p5bff2ad645)" style="fill: #ffa500; fill-opacity: 0.5; stroke: #ffffff; stroke-linejoin: miter"/>
   </g>
   <g id="patch_70">
    <path d="M 2382.372818 2080.894375 
L 2413.384364 2080.894375 
L 2413.384364 2080.894375 
L 2382.372818 2080.894375 
z
" clip-path="url(#p5bff2ad645)" style="fill: #ffa500; fill-opacity: 0.5; stroke: #ffffff; stroke-linejoin: miter"/>
   </g>
   <g id="patch_71">
    <path d="M 2413.384364 2080.894375 
L 2444.395909 2080.894375 
L 2444.395909 2080.894375 
L 2413.384364 2080.894375 
z
" clip-path="url(#p5bff2ad645)" style="fill: #ffa500; fill-opacity: 0.5; stroke: #ffffff; stroke-linejoin: miter"/>
   </g>
   <g id="patch_72">
    <path d="M 2444.395909 2080.894375 
L 2475.407455 2080.894375 
L 2475.407455 2080.894375 
L 2444.395909 2080.894375 
z
" clip-path="url(#p5bff2ad645)" style="fill: #ffa500; fill-opacity: 0.5; stroke: #ffffff; stroke-linejoin: miter"/>
   </g>
   <g id="patch_73">
    <path d="M 2475.407455 2080.894375 
L 2506.419 2080.894375 
L 2506.419 2080.894375 
L 2475.407455 2080.894375 
z
" clip-path="url(#p5bff2ad645)" style="fill: #ffa500; fill-opacity: 0.5; stroke: #ffffff; stroke-linejoin: miter"/>
   </g>
   <g id="patch_74">
    <path d="M 2506.419 2080.894375 
L 2537.430545 2080.894375 
L 2537.430545 2080.894375 
L 2506.419 2080.894375 
z
" clip-path="url(#p5bff2ad645)" style="fill: #ffa500; fill-opacity: 0.5; stroke: #ffffff; stroke-linejoin: miter"/>
   </g>
   <g id="patch_75">
    <path d="M 2537.430545 2080.894375 
L 2568.442091 2080.894375 
L 2568.442091 2080.894375 
L 2537.430545 2080.894375 
z
" clip-path="url(#p5bff2ad645)" style="fill: #ffa500; fill-opacity: 0.5; stroke: #ffffff; stroke-linejoin: miter"/>
   </g>
   <g id="patch_76">
    <path d="M 2568.442091 2080.894375 
L 2599.453636 2080.894375 
L 2599.453636 2080.894375 
L 2568.442091 2080.894375 
z
" clip-path="url(#p5bff2ad645)" style="fill: #ffa500; fill-opacity: 0.5; stroke: #ffffff; stroke-linejoin: miter"/>
   </g>
   <g id="patch_77">
    <path d="M 2599.453636 2080.894375 
L 2630.465182 2080.894375 
L 2630.465182 2073.776496 
L 2599.453636 2073.776496 
z
" clip-path="url(#p5bff2ad645)" style="fill: #ffa500; fill-opacity: 0.5; stroke: #ffffff; stroke-linejoin: miter"/>
   </g>
   <g id="patch_78">
    <path d="M 2630.465182 2080.894375 
L 2661.476727 2080.894375 
L 2661.476727 2073.776496 
L 2630.465182 2073.776496 
z
" clip-path="url(#p5bff2ad645)" style="fill: #ffa500; fill-opacity: 0.5; stroke: #ffffff; stroke-linejoin: miter"/>
   </g>
   <g id="patch_79">
    <path d="M 2661.476727 2080.894375 
L 2692.488273 2080.894375 
L 2692.488273 2080.894375 
L 2661.476727 2080.894375 
z
" clip-path="url(#p5bff2ad645)" style="fill: #ffa500; fill-opacity: 0.5; stroke: #ffffff; stroke-linejoin: miter"/>
   </g>
   <g id="patch_80">
    <path d="M 2692.488273 2080.894375 
L 2723.499818 2080.894375 
L 2723.499818 2080.894375 
L 2692.488273 2080.894375 
z
" clip-path="url(#p5bff2ad645)" style="fill: #ffa500; fill-opacity: 0.5; stroke: #ffffff; stroke-linejoin: miter"/>
   </g>
   <g id="patch_81">
    <path d="M 2723.499818 2080.894375 
L 2754.511364 2080.894375 
L 2754.511364 2080.894375 
L 2723.499818 2080.894375 
z
" clip-path="url(#p5bff2ad645)" style="fill: #ffa500; fill-opacity: 0.5; stroke: #ffffff; stroke-linejoin: miter"/>
   </g>
   <g id="patch_82">
    <path d="M 2754.511364 2080.894375 
L 2785.522909 2080.894375 
L 2785.522909 2059.540738 
L 2754.511364 2059.540738 
z
" clip-path="url(#p5bff2ad645)" style="fill: #ffa500; fill-opacity: 0.5; stroke: #ffffff; stroke-linejoin: miter"/>
   </g>
   <g id="patch_83">
    <path d="M 2785.522909 2080.894375 
L 2816.534455 2080.894375 
L 2816.534455 2080.894375 
L 2785.522909 2080.894375 
z
" clip-path="url(#p5bff2ad645)" style="fill: #ffa500; fill-opacity: 0.5; stroke: #ffffff; stroke-linejoin: miter"/>
   </g>
   <g id="patch_84">
    <path d="M 2816.534455 2080.894375 
L 2847.546 2080.894375 
L 2847.546 2066.658617 
L 2816.534455 2066.658617 
z
" clip-path="url(#p5bff2ad645)" style="fill: #ffa500; fill-opacity: 0.5; stroke: #ffffff; stroke-linejoin: miter"/>
   </g>
   <g id="patch_85">
    <path d="M 2847.546 2080.894375 
L 2878.557545 2080.894375 
L 2878.557545 2080.894375 
L 2847.546 2080.894375 
z
" clip-path="url(#p5bff2ad645)" style="fill: #ffa500; fill-opacity: 0.5; stroke: #ffffff; stroke-linejoin: miter"/>
   </g>
   <g id="patch_86">
    <path d="M 2878.557545 2080.894375 
L 2909.569091 2080.894375 
L 2909.569091 2080.894375 
L 2878.557545 2080.894375 
z
" clip-path="url(#p5bff2ad645)" style="fill: #ffa500; fill-opacity: 0.5; stroke: #ffffff; stroke-linejoin: miter"/>
   </g>
   <g id="patch_87">
    <path d="M 2909.569091 2080.894375 
L 2940.580636 2080.894375 
L 2940.580636 2080.894375 
L 2909.569091 2080.894375 
z
" clip-path="url(#p5bff2ad645)" style="fill: #ffa500; fill-opacity: 0.5; stroke: #ffffff; stroke-linejoin: miter"/>
   </g>
   <g id="patch_88">
    <path d="M 2940.580636 2080.894375 
L 2971.592182 2080.894375 
L 2971.592182 2080.894375 
L 2940.580636 2080.894375 
z
" clip-path="url(#p5bff2ad645)" style="fill: #ffa500; fill-opacity: 0.5; stroke: #ffffff; stroke-linejoin: miter"/>
   </g>
   <g id="patch_89">
    <path d="M 2971.592182 2080.894375 
L 3002.603727 2080.894375 
L 3002.603727 2080.894375 
L 2971.592182 2080.894375 
z
" clip-path="url(#p5bff2ad645)" style="fill: #ffa500; fill-opacity: 0.5; stroke: #ffffff; stroke-linejoin: miter"/>
   </g>
   <g id="patch_90">
    <path d="M 3002.603727 2080.894375 
L 3033.615273 2080.894375 
L 3033.615273 2080.894375 
L 3002.603727 2080.894375 
z
" clip-path="url(#p5bff2ad645)" style="fill: #ffa500; fill-opacity: 0.5; stroke: #ffffff; stroke-linejoin: miter"/>
   </g>
   <g id="patch_91">
    <path d="M 3033.615273 2080.894375 
L 3064.626818 2080.894375 
L 3064.626818 2080.894375 
L 3033.615273 2080.894375 
z
" clip-path="url(#p5bff2ad645)" style="fill: #ffa500; fill-opacity: 0.5; stroke: #ffffff; stroke-linejoin: miter"/>
   </g>
   <g id="patch_92">
    <path d="M 3064.626818 2080.894375 
L 3095.638364 2080.894375 
L 3095.638364 2080.894375 
L 3064.626818 2080.894375 
z
" clip-path="url(#p5bff2ad645)" style="fill: #ffa500; fill-opacity: 0.5; stroke: #ffffff; stroke-linejoin: miter"/>
   </g>
   <g id="patch_93">
    <path d="M 3095.638364 2080.894375 
L 3126.649909 2080.894375 
L 3126.649909 2080.894375 
L 3095.638364 2080.894375 
z
" clip-path="url(#p5bff2ad645)" style="fill: #ffa500; fill-opacity: 0.5; stroke: #ffffff; stroke-linejoin: miter"/>
   </g>
   <g id="patch_94">
    <path d="M 3126.649909 2080.894375 
L 3157.661455 2080.894375 
L 3157.661455 2080.894375 
L 3126.649909 2080.894375 
z
" clip-path="url(#p5bff2ad645)" style="fill: #ffa500; fill-opacity: 0.5; stroke: #ffffff; stroke-linejoin: miter"/>
   </g>
   <g id="patch_95">
    <path d="M 3157.661455 2080.894375 
L 3188.673 2080.894375 
L 3188.673 2080.894375 
L 3157.661455 2080.894375 
z
" clip-path="url(#p5bff2ad645)" style="fill: #ffa500; fill-opacity: 0.5; stroke: #ffffff; stroke-linejoin: miter"/>
   </g>
   <g id="patch_96">
    <path d="M 3188.673 2080.894375 
L 3219.684545 2080.894375 
L 3219.684545 2080.894375 
L 3188.673 2080.894375 
z
" clip-path="url(#p5bff2ad645)" style="fill: #ffa500; fill-opacity: 0.5; stroke: #ffffff; stroke-linejoin: miter"/>
   </g>
   <g id="patch_97">
    <path d="M 3219.684545 2080.894375 
L 3250.696091 2080.894375 
L 3250.696091 2080.894375 
L 3219.684545 2080.894375 
z
" clip-path="url(#p5bff2ad645)" style="fill: #ffa500; fill-opacity: 0.5; stroke: #ffffff; stroke-linejoin: miter"/>
   </g>
   <g id="patch_98">
    <path d="M 3250.696091 2080.894375 
L 3281.707636 2080.894375 
L 3281.707636 2080.894375 
L 3250.696091 2080.894375 
z
" clip-path="url(#p5bff2ad645)" style="fill: #ffa500; fill-opacity: 0.5; stroke: #ffffff; stroke-linejoin: miter"/>
   </g>
   <g id="patch_99">
    <path d="M 3281.707636 2080.894375 
L 3312.719182 2080.894375 
L 3312.719182 2080.894375 
L 3281.707636 2080.894375 
z
" clip-path="url(#p5bff2ad645)" style="fill: #ffa500; fill-opacity: 0.5; stroke: #ffffff; stroke-linejoin: miter"/>
   </g>
   <g id="patch_100">
    <path d="M 3312.719182 2080.894375 
L 3343.730727 2080.894375 
L 3343.730727 2080.894375 
L 3312.719182 2080.894375 
z
" clip-path="url(#p5bff2ad645)" style="fill: #ffa500; fill-opacity: 0.5; stroke: #ffffff; stroke-linejoin: miter"/>
   </g>
   <g id="patch_101">
    <path d="M 3343.730727 2080.894375 
L 3374.742273 2080.894375 
L 3374.742273 2080.894375 
L 3343.730727 2080.894375 
z
" clip-path="url(#p5bff2ad645)" style="fill: #ffa500; fill-opacity: 0.5; stroke: #ffffff; stroke-linejoin: miter"/>
   </g>
   <g id="patch_102">
    <path d="M 304.599273 2080.894375 
L 335.610818 2080.894375 
L 335.610818 1426.049512 
L 304.599273 1426.049512 
z
" clip-path="url(#p5bff2ad645)" style="fill: #0000ff; fill-opacity: 0.5; stroke: #ffffff; stroke-linejoin: miter"/>
   </g>
   <g id="patch_103">
    <path d="M 335.610818 2080.894375 
L 366.622364 2080.894375 
L 366.622364 372.603428 
L 335.610818 372.603428 
z
" clip-path="url(#p5bff2ad645)" style="fill: #0000ff; fill-opacity: 0.5; stroke: #ffffff; stroke-linejoin: miter"/>
   </g>
   <g id="patch_104">
    <path d="M 366.622364 2080.894375 
L 397.633909 2080.894375 
L 397.633909 137.713423 
L 366.622364 137.713423 
z
" clip-path="url(#p5bff2ad645)" style="fill: #0000ff; fill-opacity: 0.5; stroke: #ffffff; stroke-linejoin: miter"/>
   </g>
   <g id="patch_105">
    <path d="M 397.633909 2080.894375 
L 428.645455 2080.894375 
L 428.645455 970.505259 
L 397.633909 970.505259 
z
" clip-path="url(#p5bff2ad645)" style="fill: #0000ff; fill-opacity: 0.5; stroke: #ffffff; stroke-linejoin: miter"/>
   </g>
   <g id="patch_106">
    <path d="M 428.645455 2080.894375 
L 459.657 2080.894375 
L 459.657 1660.939517 
L 428.645455 1660.939517 
z
" clip-path="url(#p5bff2ad645)" style="fill: #0000ff; fill-opacity: 0.5; stroke: #ffffff; stroke-linejoin: miter"/>
   </g>
   <g id="patch_107">
    <path d="M 459.657 2080.894375 
L 490.668545 2080.894375 
L 490.668545 2009.715586 
L 459.657 2009.715586 
z
" clip-path="url(#p5bff2ad645)" style="fill: #0000ff; fill-opacity: 0.5; stroke: #ffffff; stroke-linejoin: miter"/>
   </g>
   <g id="patch_108">
    <path d="M 490.668545 2080.894375 
L 521.680091 2080.894375 
L 521.680091 1988.361949 
L 490.668545 1988.361949 
z
" clip-path="url(#p5bff2ad645)" style="fill: #0000ff; fill-opacity: 0.5; stroke: #ffffff; stroke-linejoin: miter"/>
   </g>
   <g id="patch_109">
    <path d="M 521.680091 2080.894375 
L 552.691636 2080.894375 
L 552.691636 2009.715586 
L 521.680091 2009.715586 
z
" clip-path="url(#p5bff2ad645)" style="fill: #0000ff; fill-opacity: 0.5; stroke: #ffffff; stroke-linejoin: miter"/>
   </g>
   <g id="patch_110">
    <path d="M 552.691636 2080.894375 
L 583.703182 2080.894375 
L 583.703182 2059.540738 
L 552.691636 2059.540738 
z
" clip-path="url(#p5bff2ad645)" style="fill: #0000ff; fill-opacity: 0.5; stroke: #ffffff; stroke-linejoin: miter"/>
   </g>
   <g id="patch_111">
    <path d="M 583.703182 2080.894375 
L 614.714727 2080.894375 
L 614.714727 1959.890433 
L 583.703182 1959.890433 
z
" clip-path="url(#p5bff2ad645)" style="fill: #0000ff; fill-opacity: 0.5; stroke: #ffffff; stroke-linejoin: miter"/>
   </g>
   <g id="patch_112">
    <path d="M 614.714727 2080.894375 
L 645.726273 2080.894375 
L 645.726273 1653.821638 
L 614.714727 1653.821638 
z
" clip-path="url(#p5bff2ad645)" style="fill: #0000ff; fill-opacity: 0.5; stroke: #ffffff; stroke-linejoin: miter"/>
   </g>
   <g id="patch_113">
    <path d="M 645.726273 2080.894375 
L 676.737818 2080.894375 
L 676.737818 1710.76467 
L 645.726273 1710.76467 
z
" clip-path="url(#p5bff2ad645)" style="fill: #0000ff; fill-opacity: 0.5; stroke: #ffffff; stroke-linejoin: miter"/>
   </g>
   <g id="patch_114">
    <path d="M 676.737818 2080.894375 
L 707.749364 2080.894375 
L 707.749364 1262.338296 
L 676.737818 1262.338296 
z
" clip-path="url(#p5bff2ad645)" style="fill: #0000ff; fill-opacity: 0.5; stroke: #ffffff; stroke-linejoin: miter"/>
   </g>
   <g id="patch_115">
    <path d="M 707.749364 2080.894375 
L 738.760909 2080.894375 
L 738.760909 1739.236186 
L 707.749364 1739.236186 
z
" clip-path="url(#p5bff2ad645)" style="fill: #0000ff; fill-opacity: 0.5; stroke: #ffffff; stroke-linejoin: miter"/>
   </g>
   <g id="patch_116">
    <path d="M 738.760909 2080.894375 
L 769.772455 2080.894375 
L 769.772455 1995.479828 
L 738.760909 1995.479828 
z
" clip-path="url(#p5bff2ad645)" style="fill: #0000ff; fill-opacity: 0.5; stroke: #ffffff; stroke-linejoin: miter"/>
   </g>
   <g id="patch_117">
    <path d="M 769.772455 2080.894375 
L 800.784 2080.894375 
L 800.784 2045.30498 
L 769.772455 2045.30498 
z
" clip-path="url(#p5bff2ad645)" style="fill: #0000ff; fill-opacity: 0.5; stroke: #ffffff; stroke-linejoin: miter"/>
   </g>
   <g id="patch_118">
    <path d="M 800.784 2080.894375 
L 831.795545 2080.894375 
L 831.795545 1981.24407 
L 800.784 1981.24407 
z
" clip-path="url(#p5bff2ad645)" style="fill: #0000ff; fill-opacity: 0.5; stroke: #ffffff; stroke-linejoin: miter"/>
   </g>
   <g id="patch_119">
    <path d="M 831.795545 2080.894375 
L 862.807091 2080.894375 
L 862.807091 2023.951343 
L 831.795545 2023.951343 
z
" clip-path="url(#p5bff2ad645)" style="fill: #0000ff; fill-opacity: 0.5; stroke: #ffffff; stroke-linejoin: miter"/>
   </g>
   <g id="patch_120">
    <path d="M 862.807091 2080.894375 
L 893.818636 2080.894375 
L 893.818636 1603.996486 
L 862.807091 1603.996486 
z
" clip-path="url(#p5bff2ad645)" style="fill: #0000ff; fill-opacity: 0.5; stroke: #ffffff; stroke-linejoin: miter"/>
   </g>
   <g id="patch_121">
    <path d="M 893.818636 2080.894375 
L 924.830182 2080.894375 
L 924.830182 1532.817696 
L 893.818636 1532.817696 
z
" clip-path="url(#p5bff2ad645)" style="fill: #0000ff; fill-opacity: 0.5; stroke: #ffffff; stroke-linejoin: miter"/>
   </g>
   <g id="patch_122">
    <path d="M 924.830182 2080.894375 
L 955.841727 2080.894375 
L 955.841727 1888.711643 
L 924.830182 1888.711643 
z
" clip-path="url(#p5bff2ad645)" style="fill: #0000ff; fill-opacity: 0.5; stroke: #ffffff; stroke-linejoin: miter"/>
   </g>
   <g id="patch_123">
    <path d="M 955.841727 2080.894375 
L 986.853273 2080.894375 
L 986.853273 2059.540738 
L 955.841727 2059.540738 
z
" clip-path="url(#p5bff2ad645)" style="fill: #0000ff; fill-opacity: 0.5; stroke: #ffffff; stroke-linejoin: miter"/>
   </g>
   <g id="patch_124">
    <path d="M 986.853273 2080.894375 
L 1017.864818 2080.894375 
L 1017.864818 2066.658617 
L 986.853273 2066.658617 
z
" clip-path="url(#p5bff2ad645)" style="fill: #0000ff; fill-opacity: 0.5; stroke: #ffffff; stroke-linejoin: miter"/>
   </g>
   <g id="patch_125">
    <path d="M 1017.864818 2080.894375 
L 1048.876364 2080.894375 
L 1048.876364 1689.411033 
L 1017.864818 1689.411033 
z
" clip-path="url(#p5bff2ad645)" style="fill: #0000ff; fill-opacity: 0.5; stroke: #ffffff; stroke-linejoin: miter"/>
   </g>
   <g id="patch_126">
    <path d="M 1048.876364 2080.894375 
L 1079.887909 2080.894375 
L 1079.887909 1860.240128 
L 1048.876364 1860.240128 
z
" clip-path="url(#p5bff2ad645)" style="fill: #0000ff; fill-opacity: 0.5; stroke: #ffffff; stroke-linejoin: miter"/>
   </g>
   <g id="patch_127">
    <path d="M 1079.887909 2080.894375 
L 1110.899455 2080.894375 
L 1110.899455 1660.939517 
L 1079.887909 1660.939517 
z
" clip-path="url(#p5bff2ad645)" style="fill: #0000ff; fill-opacity: 0.5; stroke: #ffffff; stroke-linejoin: miter"/>
   </g>
   <g id="patch_128">
    <path d="M 1110.899455 2080.894375 
L 1141.911 2080.894375 
L 1141.911 1860.240128 
L 1110.899455 1860.240128 
z
" clip-path="url(#p5bff2ad645)" style="fill: #0000ff; fill-opacity: 0.5; stroke: #ffffff; stroke-linejoin: miter"/>
   </g>
   <g id="patch_129">
    <path d="M 1141.911 2080.894375 
L 1172.922545 2080.894375 
L 1172.922545 2073.776496 
L 1141.911 2073.776496 
z
" clip-path="url(#p5bff2ad645)" style="fill: #0000ff; fill-opacity: 0.5; stroke: #ffffff; stroke-linejoin: miter"/>
   </g>
   <g id="patch_130">
    <path d="M 1172.922545 2080.894375 
L 1203.934091 2080.894375 
L 1203.934091 2031.069222 
L 1172.922545 2031.069222 
z
" clip-path="url(#p5bff2ad645)" style="fill: #0000ff; fill-opacity: 0.5; stroke: #ffffff; stroke-linejoin: miter"/>
   </g>
   <g id="patch_131">
    <path d="M 1203.934091 2080.894375 
L 1234.945636 2080.894375 
L 1234.945636 1554.171333 
L 1203.934091 1554.171333 
z
" clip-path="url(#p5bff2ad645)" style="fill: #0000ff; fill-opacity: 0.5; stroke: #ffffff; stroke-linejoin: miter"/>
   </g>
   <g id="patch_132">
    <path d="M 1234.945636 2080.894375 
L 1265.957182 2080.894375 
L 1265.957182 1618.232243 
L 1234.945636 1618.232243 
z
" clip-path="url(#p5bff2ad645)" style="fill: #0000ff; fill-opacity: 0.5; stroke: #ffffff; stroke-linejoin: miter"/>
   </g>
   <g id="patch_133">
    <path d="M 1265.957182 2080.894375 
L 1296.968727 2080.894375 
L 1296.968727 1867.358007 
L 1265.957182 1867.358007 
z
" clip-path="url(#p5bff2ad645)" style="fill: #0000ff; fill-opacity: 0.5; stroke: #ffffff; stroke-linejoin: miter"/>
   </g>
   <g id="patch_134">
    <path d="M 1296.968727 2080.894375 
L 1327.980273 2080.894375 
L 1327.980273 2002.597707 
L 1296.968727 2002.597707 
z
" clip-path="url(#p5bff2ad645)" style="fill: #0000ff; fill-opacity: 0.5; stroke: #ffffff; stroke-linejoin: miter"/>
   </g>
   <g id="patch_135">
    <path d="M 1327.980273 2080.894375 
L 1358.991818 2080.894375 
L 1358.991818 2073.776496 
L 1327.980273 2073.776496 
z
" clip-path="url(#p5bff2ad645)" style="fill: #0000ff; fill-opacity: 0.5; stroke: #ffffff; stroke-linejoin: miter"/>
   </g>
   <g id="patch_136">
    <path d="M 1358.991818 2080.894375 
L 1390.003364 2080.894375 
L 1390.003364 2080.894375 
L 1358.991818 2080.894375 
z
" clip-path="url(#p5bff2ad645)" style="fill: #0000ff; fill-opacity: 0.5; stroke: #ffffff; stroke-linejoin: miter"/>
   </g>
   <g id="patch_137">
    <path d="M 1390.003364 2080.894375 
L 1421.014909 2080.894375 
L 1421.014909 1995.479828 
L 1390.003364 1995.479828 
z
" clip-path="url(#p5bff2ad645)" style="fill: #0000ff; fill-opacity: 0.5; stroke: #ffffff; stroke-linejoin: miter"/>
   </g>
   <g id="patch_138">
    <path d="M 1421.014909 2080.894375 
L 1452.026455 2080.894375 
L 1452.026455 2038.187101 
L 1421.014909 2038.187101 
z
" clip-path="url(#p5bff2ad645)" style="fill: #0000ff; fill-opacity: 0.5; stroke: #ffffff; stroke-linejoin: miter"/>
   </g>
   <g id="patch_139">
    <path d="M 1452.026455 2080.894375 
L 1483.038 2080.894375 
L 1483.038 2045.30498 
L 1452.026455 2045.30498 
z
" clip-path="url(#p5bff2ad645)" style="fill: #0000ff; fill-opacity: 0.5; stroke: #ffffff; stroke-linejoin: miter"/>
   </g>
   <g id="patch_140">
    <path d="M 1483.038 2080.894375 
L 1514.049545 2080.894375 
L 1514.049545 2045.30498 
L 1483.038 2045.30498 
z
" clip-path="url(#p5bff2ad645)" style="fill: #0000ff; fill-opacity: 0.5; stroke: #ffffff; stroke-linejoin: miter"/>
   </g>
   <g id="patch_141">
    <path d="M 1514.049545 2080.894375 
L 1545.061091 2080.894375 
L 1545.061091 2073.776496 
L 1514.049545 2073.776496 
z
" clip-path="url(#p5bff2ad645)" style="fill: #0000ff; fill-opacity: 0.5; stroke: #ffffff; stroke-linejoin: miter"/>
   </g>
   <g id="patch_142">
    <path d="M 1545.061091 2080.894375 
L 1576.072636 2080.894375 
L 1576.072636 2059.540738 
L 1545.061091 2059.540738 
z
" clip-path="url(#p5bff2ad645)" style="fill: #0000ff; fill-opacity: 0.5; stroke: #ffffff; stroke-linejoin: miter"/>
   </g>
   <g id="patch_143">
    <path d="M 1576.072636 2080.894375 
L 1607.084182 2080.894375 
L 1607.084182 2059.540738 
L 1576.072636 2059.540738 
z
" clip-path="url(#p5bff2ad645)" style="fill: #0000ff; fill-opacity: 0.5; stroke: #ffffff; stroke-linejoin: miter"/>
   </g>
   <g id="patch_144">
    <path d="M 1607.084182 2080.894375 
L 1638.095727 2080.894375 
L 1638.095727 2052.422859 
L 1607.084182 2052.422859 
z
" clip-path="url(#p5bff2ad645)" style="fill: #0000ff; fill-opacity: 0.5; stroke: #ffffff; stroke-linejoin: miter"/>
   </g>
   <g id="patch_145">
    <path d="M 1638.095727 2080.894375 
L 1669.107273 2080.894375 
L 1669.107273 1981.24407 
L 1638.095727 1981.24407 
z
" clip-path="url(#p5bff2ad645)" style="fill: #0000ff; fill-opacity: 0.5; stroke: #ffffff; stroke-linejoin: miter"/>
   </g>
   <g id="patch_146">
    <path d="M 1669.107273 2080.894375 
L 1700.118818 2080.894375 
L 1700.118818 1703.646791 
L 1669.107273 1703.646791 
z
" clip-path="url(#p5bff2ad645)" style="fill: #0000ff; fill-opacity: 0.5; stroke: #ffffff; stroke-linejoin: miter"/>
   </g>
   <g id="patch_147">
    <path d="M 1700.118818 2080.894375 
L 1731.130364 2080.894375 
L 1731.130364 1952.772554 
L 1700.118818 1952.772554 
z
" clip-path="url(#p5bff2ad645)" style="fill: #0000ff; fill-opacity: 0.5; stroke: #ffffff; stroke-linejoin: miter"/>
   </g>
   <g id="patch_148">
    <path d="M 1731.130364 2080.894375 
L 1762.141909 2080.894375 
L 1762.141909 2016.833464 
L 1731.130364 2016.833464 
z
" clip-path="url(#p5bff2ad645)" style="fill: #0000ff; fill-opacity: 0.5; stroke: #ffffff; stroke-linejoin: miter"/>
   </g>
   <g id="patch_149">
    <path d="M 1762.141909 2080.894375 
L 1793.153455 2080.894375 
L 1793.153455 2059.540738 
L 1762.141909 2059.540738 
z
" clip-path="url(#p5bff2ad645)" style="fill: #0000ff; fill-opacity: 0.5; stroke: #ffffff; stroke-linejoin: miter"/>
   </g>
   <g id="patch_150">
    <path d="M 1793.153455 2080.894375 
L 1824.165 2080.894375 
L 1824.165 2052.422859 
L 1793.153455 2052.422859 
z
" clip-path="url(#p5bff2ad645)" style="fill: #0000ff; fill-opacity: 0.5; stroke: #ffffff; stroke-linejoin: miter"/>
   </g>
   <g id="patch_151">
    <path d="M 1824.165 2080.894375 
L 1855.176545 2080.894375 
L 1855.176545 1682.293154 
L 1824.165 1682.293154 
z
" clip-path="url(#p5bff2ad645)" style="fill: #0000ff; fill-opacity: 0.5; stroke: #ffffff; stroke-linejoin: miter"/>
   </g>
   <g id="patch_152">
    <path d="M 1855.176545 2080.894375 
L 1886.188091 2080.894375 
L 1886.188091 1938.536796 
L 1855.176545 1938.536796 
z
" clip-path="url(#p5bff2ad645)" style="fill: #0000ff; fill-opacity: 0.5; stroke: #ffffff; stroke-linejoin: miter"/>
   </g>
   <g id="patch_153">
    <path d="M 1886.188091 2080.894375 
L 1917.199636 2080.894375 
L 1917.199636 2031.069222 
L 1886.188091 2031.069222 
z
" clip-path="url(#p5bff2ad645)" style="fill: #0000ff; fill-opacity: 0.5; stroke: #ffffff; stroke-linejoin: miter"/>
   </g>
   <g id="patch_154">
    <path d="M 1917.199636 2080.894375 
L 1948.211182 2080.894375 
L 1948.211182 1959.890433 
L 1917.199636 1959.890433 
z
" clip-path="url(#p5bff2ad645)" style="fill: #0000ff; fill-opacity: 0.5; stroke: #ffffff; stroke-linejoin: miter"/>
   </g>
   <g id="patch_155">
    <path d="M 1948.211182 2080.894375 
L 1979.222727 2080.894375 
L 1979.222727 2002.597707 
L 1948.211182 2002.597707 
z
" clip-path="url(#p5bff2ad645)" style="fill: #0000ff; fill-opacity: 0.5; stroke: #ffffff; stroke-linejoin: miter"/>
   </g>
   <g id="patch_156">
    <path d="M 1979.222727 2080.894375 
L 2010.234273 2080.894375 
L 2010.234273 2038.187101 
L 1979.222727 2038.187101 
z
" clip-path="url(#p5bff2ad645)" style="fill: #0000ff; fill-opacity: 0.5; stroke: #ffffff; stroke-linejoin: miter"/>
   </g>
   <g id="patch_157">
    <path d="M 2010.234273 2080.894375 
L 2041.245818 2080.894375 
L 2041.245818 2031.069222 
L 2010.234273 2031.069222 
z
" clip-path="url(#p5bff2ad645)" style="fill: #0000ff; fill-opacity: 0.5; stroke: #ffffff; stroke-linejoin: miter"/>
   </g>
   <g id="patch_158">
    <path d="M 2041.245818 2080.894375 
L 2072.257364 2080.894375 
L 2072.257364 2038.187101 
L 2041.245818 2038.187101 
z
" clip-path="url(#p5bff2ad645)" style="fill: #0000ff; fill-opacity: 0.5; stroke: #ffffff; stroke-linejoin: miter"/>
   </g>
   <g id="patch_159">
    <path d="M 2072.257364 2080.894375 
L 2103.268909 2080.894375 
L 2103.268909 2073.776496 
L 2072.257364 2073.776496 
z
" clip-path="url(#p5bff2ad645)" style="fill: #0000ff; fill-opacity: 0.5; stroke: #ffffff; stroke-linejoin: miter"/>
   </g>
   <g id="patch_160">
    <path d="M 2103.268909 2080.894375 
L 2134.280455 2080.894375 
L 2134.280455 2066.658617 
L 2103.268909 2066.658617 
z
" clip-path="url(#p5bff2ad645)" style="fill: #0000ff; fill-opacity: 0.5; stroke: #ffffff; stroke-linejoin: miter"/>
   </g>
   <g id="patch_161">
    <path d="M 2134.280455 2080.894375 
L 2165.292 2080.894375 
L 2165.292 2066.658617 
L 2134.280455 2066.658617 
z
" clip-path="url(#p5bff2ad645)" style="fill: #0000ff; fill-opacity: 0.5; stroke: #ffffff; stroke-linejoin: miter"/>
   </g>
   <g id="patch_162">
    <path d="M 2165.292 2080.894375 
L 2196.303545 2080.894375 
L 2196.303545 2073.776496 
L 2165.292 2073.776496 
z
" clip-path="url(#p5bff2ad645)" style="fill: #0000ff; fill-opacity: 0.5; stroke: #ffffff; stroke-linejoin: miter"/>
   </g>
   <g id="patch_163">
    <path d="M 2196.303545 2080.894375 
L 2227.315091 2080.894375 
L 2227.315091 2080.894375 
L 2196.303545 2080.894375 
z
" clip-path="url(#p5bff2ad645)" style="fill: #0000ff; fill-opacity: 0.5; stroke: #ffffff; stroke-linejoin: miter"/>
   </g>
   <g id="patch_164">
    <path d="M 2227.315091 2080.894375 
L 2258.326636 2080.894375 
L 2258.326636 2066.658617 
L 2227.315091 2066.658617 
z
" clip-path="url(#p5bff2ad645)" style="fill: #0000ff; fill-opacity: 0.5; stroke: #ffffff; stroke-linejoin: miter"/>
   </g>
   <g id="patch_165">
    <path d="M 2258.326636 2080.894375 
L 2289.338182 2080.894375 
L 2289.338182 2066.658617 
L 2258.326636 2066.658617 
z
" clip-path="url(#p5bff2ad645)" style="fill: #0000ff; fill-opacity: 0.5; stroke: #ffffff; stroke-linejoin: miter"/>
   </g>
   <g id="patch_166">
    <path d="M 2289.338182 2080.894375 
L 2320.349727 2080.894375 
L 2320.349727 2080.894375 
L 2289.338182 2080.894375 
z
" clip-path="url(#p5bff2ad645)" style="fill: #0000ff; fill-opacity: 0.5; stroke: #ffffff; stroke-linejoin: miter"/>
   </g>
   <g id="patch_167">
    <path d="M 2320.349727 2080.894375 
L 2351.361273 2080.894375 
L 2351.361273 2080.894375 
L 2320.349727 2080.894375 
z
" clip-path="url(#p5bff2ad645)" style="fill: #0000ff; fill-opacity: 0.5; stroke: #ffffff; stroke-linejoin: miter"/>
   </g>
   <g id="patch_168">
    <path d="M 2351.361273 2080.894375 
L 2382.372818 2080.894375 
L 2382.372818 2066.658617 
L 2351.361273 2066.658617 
z
" clip-path="url(#p5bff2ad645)" style="fill: #0000ff; fill-opacity: 0.5; stroke: #ffffff; stroke-linejoin: miter"/>
   </g>
   <g id="patch_169">
    <path d="M 2382.372818 2080.894375 
L 2413.384364 2080.894375 
L 2413.384364 2080.894375 
L 2382.372818 2080.894375 
z
" clip-path="url(#p5bff2ad645)" style="fill: #0000ff; fill-opacity: 0.5; stroke: #ffffff; stroke-linejoin: miter"/>
   </g>
   <g id="patch_170">
    <path d="M 2413.384364 2080.894375 
L 2444.395909 2080.894375 
L 2444.395909 2080.894375 
L 2413.384364 2080.894375 
z
" clip-path="url(#p5bff2ad645)" style="fill: #0000ff; fill-opacity: 0.5; stroke: #ffffff; stroke-linejoin: miter"/>
   </g>
   <g id="patch_171">
    <path d="M 2444.395909 2080.894375 
L 2475.407455 2080.894375 
L 2475.407455 2080.894375 
L 2444.395909 2080.894375 
z
" clip-path="url(#p5bff2ad645)" style="fill: #0000ff; fill-opacity: 0.5; stroke: #ffffff; stroke-linejoin: miter"/>
   </g>
   <g id="patch_172">
    <path d="M 2475.407455 2080.894375 
L 2506.419 2080.894375 
L 2506.419 2080.894375 
L 2475.407455 2080.894375 
z
" clip-path="url(#p5bff2ad645)" style="fill: #0000ff; fill-opacity: 0.5; stroke: #ffffff; stroke-linejoin: miter"/>
   </g>
   <g id="patch_173">
    <path d="M 2506.419 2080.894375 
L 2537.430545 2080.894375 
L 2537.430545 2080.894375 
L 2506.419 2080.894375 
z
" clip-path="url(#p5bff2ad645)" style="fill: #0000ff; fill-opacity: 0.5; stroke: #ffffff; stroke-linejoin: miter"/>
   </g>
   <g id="patch_174">
    <path d="M 2537.430545 2080.894375 
L 2568.442091 2080.894375 
L 2568.442091 2080.894375 
L 2537.430545 2080.894375 
z
" clip-path="url(#p5bff2ad645)" style="fill: #0000ff; fill-opacity: 0.5; stroke: #ffffff; stroke-linejoin: miter"/>
   </g>
   <g id="patch_175">
    <path d="M 2568.442091 2080.894375 
L 2599.453636 2080.894375 
L 2599.453636 2080.894375 
L 2568.442091 2080.894375 
z
" clip-path="url(#p5bff2ad645)" style="fill: #0000ff; fill-opacity: 0.5; stroke: #ffffff; stroke-linejoin: miter"/>
   </g>
   <g id="patch_176">
    <path d="M 2599.453636 2080.894375 
L 2630.465182 2080.894375 
L 2630.465182 2080.894375 
L 2599.453636 2080.894375 
z
" clip-path="url(#p5bff2ad645)" style="fill: #0000ff; fill-opacity: 0.5; stroke: #ffffff; stroke-linejoin: miter"/>
   </g>
   <g id="patch_177">
    <path d="M 2630.465182 2080.894375 
L 2661.476727 2080.894375 
L 2661.476727 2080.894375 
L 2630.465182 2080.894375 
z
" clip-path="url(#p5bff2ad645)" style="fill: #0000ff; fill-opacity: 0.5; stroke: #ffffff; stroke-linejoin: miter"/>
   </g>
   <g id="patch_178">
    <path d="M 2661.476727 2080.894375 
L 2692.488273 2080.894375 
L 2692.488273 2080.894375 
L 2661.476727 2080.894375 
z
" clip-path="url(#p5bff2ad645)" style="fill: #0000ff; fill-opacity: 0.5; stroke: #ffffff; stroke-linejoin: miter"/>
   </g>
   <g id="patch_179">
    <path d="M 2692.488273 2080.894375 
L 2723.499818 2080.894375 
L 2723.499818 2080.894375 
L 2692.488273 2080.894375 
z
" clip-path="url(#p5bff2ad645)" style="fill: #0000ff; fill-opacity: 0.5; stroke: #ffffff; stroke-linejoin: miter"/>
   </g>
   <g id="patch_180">
    <path d="M 2723.499818 2080.894375 
L 2754.511364 2080.894375 
L 2754.511364 2080.894375 
L 2723.499818 2080.894375 
z
" clip-path="url(#p5bff2ad645)" style="fill: #0000ff; fill-opacity: 0.5; stroke: #ffffff; stroke-linejoin: miter"/>
   </g>
   <g id="patch_181">
    <path d="M 2754.511364 2080.894375 
L 2785.522909 2080.894375 
L 2785.522909 2059.540738 
L 2754.511364 2059.540738 
z
" clip-path="url(#p5bff2ad645)" style="fill: #0000ff; fill-opacity: 0.5; stroke: #ffffff; stroke-linejoin: miter"/>
   </g>
   <g id="patch_182">
    <path d="M 2785.522909 2080.894375 
L 2816.534455 2080.894375 
L 2816.534455 2080.894375 
L 2785.522909 2080.894375 
z
" clip-path="url(#p5bff2ad645)" style="fill: #0000ff; fill-opacity: 0.5; stroke: #ffffff; stroke-linejoin: miter"/>
   </g>
   <g id="patch_183">
    <path d="M 2816.534455 2080.894375 
L 2847.546 2080.894375 
L 2847.546 2080.894375 
L 2816.534455 2080.894375 
z
" clip-path="url(#p5bff2ad645)" style="fill: #0000ff; fill-opacity: 0.5; stroke: #ffffff; stroke-linejoin: miter"/>
   </g>
   <g id="patch_184">
    <path d="M 2847.546 2080.894375 
L 2878.557545 2080.894375 
L 2878.557545 2080.894375 
L 2847.546 2080.894375 
z
" clip-path="url(#p5bff2ad645)" style="fill: #0000ff; fill-opacity: 0.5; stroke: #ffffff; stroke-linejoin: miter"/>
   </g>
   <g id="patch_185">
    <path d="M 2878.557545 2080.894375 
L 2909.569091 2080.894375 
L 2909.569091 2080.894375 
L 2878.557545 2080.894375 
z
" clip-path="url(#p5bff2ad645)" style="fill: #0000ff; fill-opacity: 0.5; stroke: #ffffff; stroke-linejoin: miter"/>
   </g>
   <g id="patch_186">
    <path d="M 2909.569091 2080.894375 
L 2940.580636 2080.894375 
L 2940.580636 2080.894375 
L 2909.569091 2080.894375 
z
" clip-path="url(#p5bff2ad645)" style="fill: #0000ff; fill-opacity: 0.5; stroke: #ffffff; stroke-linejoin: miter"/>
   </g>
   <g id="patch_187">
    <path d="M 2940.580636 2080.894375 
L 2971.592182 2080.894375 
L 2971.592182 2080.894375 
L 2940.580636 2080.894375 
z
" clip-path="url(#p5bff2ad645)" style="fill: #0000ff; fill-opacity: 0.5; stroke: #ffffff; stroke-linejoin: miter"/>
   </g>
   <g id="patch_188">
    <path d="M 2971.592182 2080.894375 
L 3002.603727 2080.894375 
L 3002.603727 2080.894375 
L 2971.592182 2080.894375 
z
" clip-path="url(#p5bff2ad645)" style="fill: #0000ff; fill-opacity: 0.5; stroke: #ffffff; stroke-linejoin: miter"/>
   </g>
   <g id="patch_189">
    <path d="M 3002.603727 2080.894375 
L 3033.615273 2080.894375 
L 3033.615273 2080.894375 
L 3002.603727 2080.894375 
z
" clip-path="url(#p5bff2ad645)" style="fill: #0000ff; fill-opacity: 0.5; stroke: #ffffff; stroke-linejoin: miter"/>
   </g>
   <g id="patch_190">
    <path d="M 3033.615273 2080.894375 
L 3064.626818 2080.894375 
L 3064.626818 2080.894375 
L 3033.615273 2080.894375 
z
" clip-path="url(#p5bff2ad645)" style="fill: #0000ff; fill-opacity: 0.5; stroke: #ffffff; stroke-linejoin: miter"/>
   </g>
   <g id="patch_191">
    <path d="M 3064.626818 2080.894375 
L 3095.638364 2080.894375 
L 3095.638364 2080.894375 
L 3064.626818 2080.894375 
z
" clip-path="url(#p5bff2ad645)" style="fill: #0000ff; fill-opacity: 0.5; stroke: #ffffff; stroke-linejoin: miter"/>
   </g>
   <g id="patch_192">
    <path d="M 3095.638364 2080.894375 
L 3126.649909 2080.894375 
L 3126.649909 2080.894375 
L 3095.638364 2080.894375 
z
" clip-path="url(#p5bff2ad645)" style="fill: #0000ff; fill-opacity: 0.5; stroke: #ffffff; stroke-linejoin: miter"/>
   </g>
   <g id="patch_193">
    <path d="M 3126.649909 2080.894375 
L 3157.661455 2080.894375 
L 3157.661455 2080.894375 
L 3126.649909 2080.894375 
z
" clip-path="url(#p5bff2ad645)" style="fill: #0000ff; fill-opacity: 0.5; stroke: #ffffff; stroke-linejoin: miter"/>
   </g>
   <g id="patch_194">
    <path d="M 3157.661455 2080.894375 
L 3188.673 2080.894375 
L 3188.673 2080.894375 
L 3157.661455 2080.894375 
z
" clip-path="url(#p5bff2ad645)" style="fill: #0000ff; fill-opacity: 0.5; stroke: #ffffff; stroke-linejoin: miter"/>
   </g>
   <g id="patch_195">
    <path d="M 3188.673 2080.894375 
L 3219.684545 2080.894375 
L 3219.684545 2080.894375 
L 3188.673 2080.894375 
z
" clip-path="url(#p5bff2ad645)" style="fill: #0000ff; fill-opacity: 0.5; stroke: #ffffff; stroke-linejoin: miter"/>
   </g>
   <g id="patch_196">
    <path d="M 3219.684545 2080.894375 
L 3250.696091 2080.894375 
L 3250.696091 2080.894375 
L 3219.684545 2080.894375 
z
" clip-path="url(#p5bff2ad645)" style="fill: #0000ff; fill-opacity: 0.5; stroke: #ffffff; stroke-linejoin: miter"/>
   </g>
   <g id="patch_197">
    <path d="M 3250.696091 2080.894375 
L 3281.707636 2080.894375 
L 3281.707636 2080.894375 
L 3250.696091 2080.894375 
z
" clip-path="url(#p5bff2ad645)" style="fill: #0000ff; fill-opacity: 0.5; stroke: #ffffff; stroke-linejoin: miter"/>
   </g>
   <g id="patch_198">
    <path d="M 3281.707636 2080.894375 
L 3312.719182 2080.894375 
L 3312.719182 2080.894375 
L 3281.707636 2080.894375 
z
" clip-path="url(#p5bff2ad645)" style="fill: #0000ff; fill-opacity: 0.5; stroke: #ffffff; stroke-linejoin: miter"/>
   </g>
   <g id="patch_199">
    <path d="M 3312.719182 2080.894375 
L 3343.730727 2080.894375 
L 3343.730727 2080.894375 
L 3312.719182 2080.894375 
z
" clip-path="url(#p5bff2ad645)" style="fill: #0000ff; fill-opacity: 0.5; stroke: #ffffff; stroke-linejoin: miter"/>
   </g>
   <g id="patch_200">
    <path d="M 3343.730727 2080.894375 
L 3374.742273 2080.894375 
L 3374.742273 2080.894375 
L 3343.730727 2080.894375 
z
" clip-path="url(#p5bff2ad645)" style="fill: #0000ff; fill-opacity: 0.5; stroke: #ffffff; stroke-linejoin: miter"/>
   </g>
   <g id="line2d_13">
    <path d="M 278.934505 2078.701783 
L 355.854898 2078.744194 
L 407.135161 2078.71226 
L 445.595358 2078.43423 
L 471.235489 2078.01869 
L 496.87562 2077.334644 
L 522.515751 2076.29983 
L 535.335817 2075.623452 
L 548.155883 2074.826089 
L 560.975948 2073.896567 
L 573.796014 2072.824043 
L 586.61608 2071.59827 
L 599.436145 2070.209892 
L 612.256211 2068.650762 
L 625.076276 2066.914283 
L 637.896342 2064.995761 
L 650.716408 2062.892759 
L 663.536473 2060.605433 
L 676.356539 2058.13686 
L 689.176605 2055.493317 
L 701.99667 2052.684514 
L 714.816736 2049.723768 
L 740.456867 2043.418233 
L 766.096998 2036.756808 
L 804.557195 2026.622534 
L 817.377261 2023.347619 
L 830.197326 2020.18799 
L 843.017392 2017.182811 
L 855.837458 2014.370832 
L 868.657523 2011.789596 
L 881.477589 2009.474645 
L 894.297654 2007.45874 
L 907.11772 2005.771115 
L 919.937786 2004.436808 
L 932.757851 2003.476057 
L 945.577917 2002.903807 
L 958.397983 2002.729337 
L 971.218048 2002.956011 
L 984.038114 2003.581171 
L 996.858179 2004.596179 
L 1009.678245 2005.986596 
L 1022.498311 2007.732505 
L 1035.318376 2009.808964 
L 1048.138442 2012.186574 
L 1060.958508 2014.832152 
L 1073.778573 2017.709475 
L 1086.598639 2020.780087 
L 1112.23877 2027.341217 
L 1176.339098 2044.368869 
L 1189.159164 2047.601643 
L 1201.979229 2050.710733 
L 1214.799295 2053.675223 
L 1227.619361 2056.478211 
L 1240.439426 2059.106785 
L 1253.259492 2061.551912 
L 1266.079557 2063.808235 
L 1278.899623 2065.873803 
L 1291.719689 2067.749734 
L 1304.539754 2069.43985 
L 1317.35982 2070.950274 
L 1330.179886 2072.289026 
L 1342.999951 2073.465618 
L 1355.820017 2074.490667 
L 1368.640082 2075.37553 
L 1381.460148 2076.131971 
L 1407.100279 2077.306996 
L 1432.74041 2078.10802 
L 1458.380542 2078.619557 
L 1484.020673 2078.914899 
L 1522.48087 2079.081973 
L 1573.761132 2079.01422 
L 1701.961788 2078.469874 
L 1907.082838 2077.495086 
L 2086.563757 2076.551725 
L 2150.664085 2076.461631 
L 2201.944348 2076.577034 
L 2266.044676 2076.973548 
L 2458.34566 2078.525376 
L 2509.625923 2078.56619 
L 2560.906185 2078.390707 
L 2740.387104 2077.518028 
L 2791.667366 2077.639424 
L 2830.127563 2077.885341 
L 2830.127563 2077.885341 
" clip-path="url(#p5bff2ad645)" style="fill: none; stroke: #ffa500; stroke-width: 1.5; stroke-linecap: round"/>
   </g>
   <g id="line2d_14">
    <path d="M 273.587727 1041.737916 
L 286.083293 1013.121783 
L 298.578859 999.204229 
L 311.074425 1000.121379 
L 323.569991 1015.374013 
L 336.065556 1043.896274 
L 348.561122 1084.158955 
L 361.056688 1134.29363 
L 373.552254 1192.223519 
L 386.04782 1255.788514 
L 398.543386 1322.854891 
L 423.534517 1459.597783 
L 436.030083 1525.822794 
L 448.525649 1588.714926 
L 461.021215 1647.169945 
L 473.51678 1700.343356 
L 486.012346 1747.643219 
L 498.507912 1788.71828 
L 511.003478 1823.442798 
L 523.499044 1851.898583 
L 535.99461 1874.35427 
L 548.490175 1891.241617 
L 560.985741 1903.128693 
L 573.481307 1910.690033 
L 585.976873 1914.674143 
L 598.472439 1915.869084 
L 610.968005 1915.06718 
L 623.46357 1913.030143 
L 648.454702 1907.950821 
L 660.950268 1906.003016 
L 673.445834 1904.968466 
L 685.9414 1905.061221 
L 698.436965 1906.354632 
L 710.932531 1908.791803 
L 723.428097 1912.20498 
L 735.923663 1916.34245 
L 773.41036 1930.012197 
L 785.905926 1934.002098 
L 798.401492 1937.337918 
L 810.897058 1939.91078 
L 823.392624 1941.696846 
L 835.888189 1942.750759 
L 848.383755 1943.190577 
L 860.879321 1943.17657 
L 885.870453 1942.494157 
L 898.366019 1942.143875 
L 910.861584 1941.940821 
L 923.35715 1941.941169 
L 935.852716 1942.152854 
L 948.348282 1942.5426 
L 998.330545 1944.495853 
L 1010.826111 1944.745888 
L 1023.321677 1944.824508 
L 1035.817243 1944.732828 
L 1048.312808 1944.490134 
L 1073.30394 1943.681357 
L 1123.286203 1941.785091 
L 1135.781769 1941.473379 
L 1148.277335 1941.328956 
L 1160.772901 1941.42899 
L 1173.268467 1941.868546 
L 1185.764033 1942.757188 
L 1198.259598 1944.211496 
L 1210.755164 1946.344197 
L 1223.25073 1949.251322 
L 1235.746296 1952.99924 
L 1248.241862 1957.613574 
L 1260.737427 1963.071766 
L 1273.232993 1969.300532 
L 1285.728559 1976.178729 
L 1298.224125 1983.54531 
L 1335.710822 2006.6347 
L 1348.206388 2014.006915 
L 1360.701954 2020.933637 
L 1373.19752 2027.291614 
L 1385.693086 2032.995104 
L 1398.188652 2037.994833 
L 1410.684217 2042.273469 
L 1423.179783 2045.838621 
L 1435.675349 2048.714618 
L 1448.170915 2050.934293 
L 1460.666481 2052.531883 
L 1473.162047 2053.537878 
L 1485.657612 2053.976312 
L 1498.153178 2053.864625 
L 1510.648744 2053.21586 
L 1523.14431 2052.04268 
L 1535.639876 2050.362432 
L 1548.135441 2048.202387 
L 1560.631007 2045.604228 
L 1573.126573 2042.62698 
L 1585.622139 2039.347738 
L 1610.613271 2032.268623 
L 1635.604402 2025.216368 
L 1648.099968 2021.960866 
L 1660.595534 2018.996991 
L 1673.0911 2016.379075 
L 1685.586666 2014.133829 
L 1698.082231 2012.260417 
L 1710.577797 2010.733875 
L 1723.073363 2009.511477 
L 1735.568929 2008.541183 
L 1748.064495 2007.770972 
L 1760.560061 2007.157725 
L 1773.055626 2006.674371 
L 1785.551192 2006.314305 
L 1798.046758 2006.092491 
L 1810.542324 2006.04321 
L 1823.03789 2006.214898 
L 1835.533455 2006.662957 
L 1848.029021 2007.441668 
L 1860.524587 2008.596404 
L 1873.020153 2010.157208 
L 1885.515719 2012.13451 
L 1898.011285 2014.517369 
L 1910.50685 2017.274242 
L 1923.002416 2020.355884 
L 1935.497982 2023.699796 
L 1947.993548 2027.235451 
L 1997.975811 2041.881744 
L 2010.471377 2045.366659 
L 2022.966943 2048.691487 
L 2035.462509 2051.828551 
L 2047.958075 2054.758805 
L 2060.45364 2057.470593 
L 2072.949206 2059.958349 
L 2085.444772 2062.221412 
L 2097.940338 2064.263025 
L 2110.435904 2066.089549 
L 2122.931469 2067.709866 
L 2135.427035 2069.134947 
L 2147.922601 2070.377507 
L 2160.418167 2071.451726 
L 2172.913733 2072.37298 
L 2185.409299 2073.157554 
L 2210.40043 2074.38445 
L 2235.391562 2075.268161 
L 2272.878259 2076.223166 
L 2435.320615 2079.639492 
L 2472.807313 2080.179833 
L 2510.29401 2080.506976 
L 2547.780708 2080.627567 
L 2585.267405 2080.557987 
L 2635.249668 2080.201117 
L 2735.214195 2079.252316 
L 2760.205327 2079.193571 
L 2760.205327 2079.193571 
" clip-path="url(#p5bff2ad645)" style="fill: none; stroke: #0000ff; stroke-width: 1.5; stroke-linecap: round"/>
   </g>
   <g id="patch_201">
    <path d="M 118.53 2080.894375 
L 118.53 40.554375 
" style="fill: none; stroke: #ffffff; stroke-width: 1.25; stroke-linejoin: miter; stroke-linecap: square"/>
   </g>
   <g id="patch_202">
    <path d="M 3529.8 2080.894375 
L 3529.8 40.554375 
" style="fill: none; stroke: #ffffff; stroke-width: 1.25; stroke-linejoin: miter; stroke-linecap: square"/>
   </g>
   <g id="patch_203">
    <path d="M 118.53 2080.894375 
L 3529.8 2080.894375 
" style="fill: none; stroke: #ffffff; stroke-width: 1.25; stroke-linejoin: miter; stroke-linecap: square"/>
   </g>
   <g id="patch_204">
    <path d="M 118.53 40.554375 
L 3529.8 40.554375 
" style="fill: none; stroke: #ffffff; stroke-width: 1.25; stroke-linejoin: miter; stroke-linecap: square"/>
   </g>
   <g id="text_15">
    <!-- active_site_166fg_bi_type_bond3_rf_PF08241_ACS_remove_redundant_15_90_MACCS_no_same_sub_prediction probability distribution -->
    <g style="fill: #262626" transform="translate(614.7675 34.554375)scale(0.36 -0.36)">
     <defs>
      <path id="DejaVuSans-63" d="M 3122 3366 
L 3122 2828 
Q 2878 2963 2633 3030 
Q 2388 3097 2138 3097 
Q 1578 3097 1268 2742 
Q 959 2388 959 1747 
Q 959 1106 1268 751 
Q 1578 397 2138 397 
Q 2388 397 2633 464 
Q 2878 531 3122 666 
L 3122 134 
Q 2881 22 2623 -34 
Q 2366 -91 2075 -91 
Q 1284 -91 818 406 
Q 353 903 353 1747 
Q 353 2603 823 3093 
Q 1294 3584 2113 3584 
Q 2378 3584 2631 3529 
Q 2884 3475 3122 3366 
z
" transform="scale(0.015625)"/>
      <path id="DejaVuSans-76" d="M 191 3500 
L 800 3500 
L 1894 563 
L 2988 3500 
L 3597 3500 
L 2284 0 
L 1503 0 
L 191 3500 
z
" transform="scale(0.015625)"/>
      <path id="DejaVuSans-65" d="M 3597 1894 
L 3597 1613 
L 953 1613 
Q 991 1019 1311 708 
Q 1631 397 2203 397 
Q 2534 397 2845 478 
Q 3156 559 3463 722 
L 3463 178 
Q 3153 47 2828 -22 
Q 2503 -91 2169 -91 
Q 1331 -91 842 396 
Q 353 884 353 1716 
Q 353 2575 817 3079 
Q 1281 3584 2069 3584 
Q 2775 3584 3186 3129 
Q 3597 2675 3597 1894 
z
M 3022 2063 
Q 3016 2534 2758 2815 
Q 2500 3097 2075 3097 
Q 1594 3097 1305 2825 
Q 1016 2553 972 2059 
L 3022 2063 
z
" transform="scale(0.015625)"/>
      <path id="DejaVuSans-5f" d="M 3263 -1063 
L 3263 -1509 
L -63 -1509 
L -63 -1063 
L 3263 -1063 
z
" transform="scale(0.015625)"/>
      <path id="DejaVuSans-73" d="M 2834 3397 
L 2834 2853 
Q 2591 2978 2328 3040 
Q 2066 3103 1784 3103 
Q 1356 3103 1142 2972 
Q 928 2841 928 2578 
Q 928 2378 1081 2264 
Q 1234 2150 1697 2047 
L 1894 2003 
Q 2506 1872 2764 1633 
Q 3022 1394 3022 966 
Q 3022 478 2636 193 
Q 2250 -91 1575 -91 
Q 1294 -91 989 -36 
Q 684 19 347 128 
L 347 722 
Q 666 556 975 473 
Q 1284 391 1588 391 
Q 1994 391 2212 530 
Q 2431 669 2431 922 
Q 2431 1156 2273 1281 
Q 2116 1406 1581 1522 
L 1381 1569 
Q 847 1681 609 1914 
Q 372 2147 372 2553 
Q 372 3047 722 3315 
Q 1072 3584 1716 3584 
Q 2034 3584 2315 3537 
Q 2597 3491 2834 3397 
z
" transform="scale(0.015625)"/>
      <path id="DejaVuSans-66" d="M 2375 4863 
L 2375 4384 
L 1825 4384 
Q 1516 4384 1395 4259 
Q 1275 4134 1275 3809 
L 1275 3500 
L 2222 3500 
L 2222 3053 
L 1275 3053 
L 1275 0 
L 697 0 
L 697 3053 
L 147 3053 
L 147 3500 
L 697 3500 
L 697 3744 
Q 697 4328 969 4595 
Q 1241 4863 1831 4863 
L 2375 4863 
z
" transform="scale(0.015625)"/>
      <path id="DejaVuSans-67" d="M 2906 1791 
Q 2906 2416 2648 2759 
Q 2391 3103 1925 3103 
Q 1463 3103 1205 2759 
Q 947 2416 947 1791 
Q 947 1169 1205 825 
Q 1463 481 1925 481 
Q 2391 481 2648 825 
Q 2906 1169 2906 1791 
z
M 3481 434 
Q 3481 -459 3084 -895 
Q 2688 -1331 1869 -1331 
Q 1566 -1331 1297 -1286 
Q 1028 -1241 775 -1147 
L 775 -588 
Q 1028 -725 1275 -790 
Q 1522 -856 1778 -856 
Q 2344 -856 2625 -561 
Q 2906 -266 2906 331 
L 2906 616 
Q 2728 306 2450 153 
Q 2172 0 1784 0 
Q 1141 0 747 490 
Q 353 981 353 1791 
Q 353 2603 747 3093 
Q 1141 3584 1784 3584 
Q 2172 3584 2450 3431 
Q 2728 3278 2906 2969 
L 2906 3500 
L 3481 3500 
L 3481 434 
z
" transform="scale(0.015625)"/>
      <path id="DejaVuSans-64" d="M 2906 2969 
L 2906 4863 
L 3481 4863 
L 3481 0 
L 2906 0 
L 2906 525 
Q 2725 213 2448 61 
Q 2172 -91 1784 -91 
Q 1150 -91 751 415 
Q 353 922 353 1747 
Q 353 2572 751 3078 
Q 1150 3584 1784 3584 
Q 2172 3584 2448 3432 
Q 2725 3281 2906 2969 
z
M 947 1747 
Q 947 1113 1208 752 
Q 1469 391 1925 391 
Q 2381 391 2643 752 
Q 2906 1113 2906 1747 
Q 2906 2381 2643 2742 
Q 2381 3103 1925 3103 
Q 1469 3103 1208 2742 
Q 947 2381 947 1747 
z
" transform="scale(0.015625)"/>
      <path id="DejaVuSans-33" d="M 2597 2516 
Q 3050 2419 3304 2112 
Q 3559 1806 3559 1356 
Q 3559 666 3084 287 
Q 2609 -91 1734 -91 
Q 1441 -91 1130 -33 
Q 819 25 488 141 
L 488 750 
Q 750 597 1062 519 
Q 1375 441 1716 441 
Q 2309 441 2620 675 
Q 2931 909 2931 1356 
Q 2931 1769 2642 2001 
Q 2353 2234 1838 2234 
L 1294 2234 
L 1294 2753 
L 1863 2753 
Q 2328 2753 2575 2939 
Q 2822 3125 2822 3475 
Q 2822 3834 2567 4026 
Q 2313 4219 1838 4219 
Q 1578 4219 1281 4162 
Q 984 4106 628 3988 
L 628 4550 
Q 988 4650 1302 4700 
Q 1616 4750 1894 4750 
Q 2613 4750 3031 4423 
Q 3450 4097 3450 3541 
Q 3450 3153 3228 2886 
Q 3006 2619 2597 2516 
z
" transform="scale(0.015625)"/>
      <path id="DejaVuSans-50" d="M 1259 4147 
L 1259 2394 
L 2053 2394 
Q 2494 2394 2734 2622 
Q 2975 2850 2975 3272 
Q 2975 3691 2734 3919 
Q 2494 4147 2053 4147 
L 1259 4147 
z
M 628 4666 
L 2053 4666 
Q 2838 4666 3239 4311 
Q 3641 3956 3641 3272 
Q 3641 2581 3239 2228 
Q 2838 1875 2053 1875 
L 1259 1875 
L 1259 0 
L 628 0 
L 628 4666 
z
" transform="scale(0.015625)"/>
      <path id="DejaVuSans-46" d="M 628 4666 
L 3309 4666 
L 3309 4134 
L 1259 4134 
L 1259 2759 
L 3109 2759 
L 3109 2228 
L 1259 2228 
L 1259 0 
L 628 0 
L 628 4666 
z
" transform="scale(0.015625)"/>
      <path id="DejaVuSans-41" d="M 2188 4044 
L 1331 1722 
L 3047 1722 
L 2188 4044 
z
M 1831 4666 
L 2547 4666 
L 4325 0 
L 3669 0 
L 3244 1197 
L 1141 1197 
L 716 0 
L 50 0 
L 1831 4666 
z
" transform="scale(0.015625)"/>
      <path id="DejaVuSans-53" d="M 3425 4513 
L 3425 3897 
Q 3066 4069 2747 4153 
Q 2428 4238 2131 4238 
Q 1616 4238 1336 4038 
Q 1056 3838 1056 3469 
Q 1056 3159 1242 3001 
Q 1428 2844 1947 2747 
L 2328 2669 
Q 3034 2534 3370 2195 
Q 3706 1856 3706 1288 
Q 3706 609 3251 259 
Q 2797 -91 1919 -91 
Q 1588 -91 1214 -16 
Q 841 59 441 206 
L 441 856 
Q 825 641 1194 531 
Q 1563 422 1919 422 
Q 2459 422 2753 634 
Q 3047 847 3047 1241 
Q 3047 1584 2836 1778 
Q 2625 1972 2144 2069 
L 1759 2144 
Q 1053 2284 737 2584 
Q 422 2884 422 3419 
Q 422 4038 858 4394 
Q 1294 4750 2059 4750 
Q 2388 4750 2728 4690 
Q 3069 4631 3425 4513 
z
" transform="scale(0.015625)"/>
      <path id="DejaVuSans-6d" d="M 3328 2828 
Q 3544 3216 3844 3400 
Q 4144 3584 4550 3584 
Q 5097 3584 5394 3201 
Q 5691 2819 5691 2113 
L 5691 0 
L 5113 0 
L 5113 2094 
Q 5113 2597 4934 2840 
Q 4756 3084 4391 3084 
Q 3944 3084 3684 2787 
Q 3425 2491 3425 1978 
L 3425 0 
L 2847 0 
L 2847 2094 
Q 2847 2600 2669 2842 
Q 2491 3084 2119 3084 
Q 1678 3084 1418 2786 
Q 1159 2488 1159 1978 
L 1159 0 
L 581 0 
L 581 3500 
L 1159 3500 
L 1159 2956 
Q 1356 3278 1631 3431 
Q 1906 3584 2284 3584 
Q 2666 3584 2933 3390 
Q 3200 3197 3328 2828 
z
" transform="scale(0.015625)"/>
      <path id="DejaVuSans-39" d="M 703 97 
L 703 672 
Q 941 559 1184 500 
Q 1428 441 1663 441 
Q 2288 441 2617 861 
Q 2947 1281 2994 2138 
Q 2813 1869 2534 1725 
Q 2256 1581 1919 1581 
Q 1219 1581 811 2004 
Q 403 2428 403 3163 
Q 403 3881 828 4315 
Q 1253 4750 1959 4750 
Q 2769 4750 3195 4129 
Q 3622 3509 3622 2328 
Q 3622 1225 3098 567 
Q 2575 -91 1691 -91 
Q 1453 -91 1209 -44 
Q 966 3 703 97 
z
M 1959 2075 
Q 2384 2075 2632 2365 
Q 2881 2656 2881 3163 
Q 2881 3666 2632 3958 
Q 2384 4250 1959 4250 
Q 1534 4250 1286 3958 
Q 1038 3666 1038 3163 
Q 1038 2656 1286 2365 
Q 1534 2075 1959 2075 
z
" transform="scale(0.015625)"/>
      <path id="DejaVuSans-4d" d="M 628 4666 
L 1569 4666 
L 2759 1491 
L 3956 4666 
L 4897 4666 
L 4897 0 
L 4281 0 
L 4281 4097 
L 3078 897 
L 2444 897 
L 1241 4097 
L 1241 0 
L 628 0 
L 628 4666 
z
" transform="scale(0.015625)"/>
      <path id="DejaVuSans-20" transform="scale(0.015625)"/>
     </defs>
     <use xlink:href="#DejaVuSans-61"/>
     <use xlink:href="#DejaVuSans-63" x="61.279297"/>
     <use xlink:href="#DejaVuSans-74" x="116.259766"/>
     <use xlink:href="#DejaVuSans-69" x="155.46875"/>
     <use xlink:href="#DejaVuSans-76" x="183.251953"/>
     <use xlink:href="#DejaVuSans-65" x="242.431641"/>
     <use xlink:href="#DejaVuSans-5f" x="303.955078"/>
     <use xlink:href="#DejaVuSans-73" x="353.955078"/>
     <use xlink:href="#DejaVuSans-69" x="406.054688"/>
     <use xlink:href="#DejaVuSans-74" x="433.837891"/>
     <use xlink:href="#DejaVuSans-65" x="473.046875"/>
     <use xlink:href="#DejaVuSans-5f" x="534.570312"/>
     <use xlink:href="#DejaVuSans-31" x="584.570312"/>
     <use xlink:href="#DejaVuSans-36" x="648.193359"/>
     <use xlink:href="#DejaVuSans-36" x="711.816406"/>
     <use xlink:href="#DejaVuSans-66" x="775.439453"/>
     <use xlink:href="#DejaVuSans-67" x="810.644531"/>
     <use xlink:href="#DejaVuSans-5f" x="874.121094"/>
     <use xlink:href="#DejaVuSans-62" x="924.121094"/>
     <use xlink:href="#DejaVuSans-69" x="987.597656"/>
     <use xlink:href="#DejaVuSans-5f" x="1015.380859"/>
     <use xlink:href="#DejaVuSans-74" x="1065.380859"/>
     <use xlink:href="#DejaVuSans-79" x="1104.589844"/>
     <use xlink:href="#DejaVuSans-70" x="1163.769531"/>
     <use xlink:href="#DejaVuSans-65" x="1227.246094"/>
     <use xlink:href="#DejaVuSans-5f" x="1288.769531"/>
     <use xlink:href="#DejaVuSans-62" x="1338.769531"/>
     <use xlink:href="#DejaVuSans-6f" x="1402.246094"/>
     <use xlink:href="#DejaVuSans-6e" x="1463.427734"/>
     <use xlink:href="#DejaVuSans-64" x="1526.806641"/>
     <use xlink:href="#DejaVuSans-33" x="1590.283203"/>
     <use xlink:href="#DejaVuSans-5f" x="1653.90625"/>
     <use xlink:href="#DejaVuSans-72" x="1703.90625"/>
     <use xlink:href="#DejaVuSans-66" x="1745.019531"/>
     <use xlink:href="#DejaVuSans-5f" x="1780.224609"/>
     <use xlink:href="#DejaVuSans-50" x="1830.224609"/>
     <use xlink:href="#DejaVuSans-46" x="1890.527344"/>
     <use xlink:href="#DejaVuSans-30" x="1948.046875"/>
     <use xlink:href="#DejaVuSans-38" x="2011.669922"/>
     <use xlink:href="#DejaVuSans-32" x="2075.292969"/>
     <use xlink:href="#DejaVuSans-34" x="2138.916016"/>
     <use xlink:href="#DejaVuSans-31" x="2202.539062"/>
     <use xlink:href="#DejaVuSans-5f" x="2266.162109"/>
     <use xlink:href="#DejaVuSans-41" x="2316.162109"/>
     <use xlink:href="#DejaVuSans-43" x="2382.820312"/>
     <use xlink:href="#DejaVuSans-53" x="2452.644531"/>
     <use xlink:href="#DejaVuSans-5f" x="2516.121094"/>
     <use xlink:href="#DejaVuSans-72" x="2566.121094"/>
     <use xlink:href="#DejaVuSans-65" x="2604.984375"/>
     <use xlink:href="#DejaVuSans-6d" x="2666.507812"/>
     <use xlink:href="#DejaVuSans-6f" x="2763.919922"/>
     <use xlink:href="#DejaVuSans-76" x="2825.101562"/>
     <use xlink:href="#DejaVuSans-65" x="2884.28125"/>
     <use xlink:href="#DejaVuSans-5f" x="2945.804688"/>
     <use xlink:href="#DejaVuSans-72" x="2995.804688"/>
     <use xlink:href="#DejaVuSans-65" x="3034.667969"/>
     <use xlink:href="#DejaVuSans-64" x="3096.191406"/>
     <use xlink:href="#DejaVuSans-75" x="3159.667969"/>
     <use xlink:href="#DejaVuSans-6e" x="3223.046875"/>
     <use xlink:href="#DejaVuSans-64" x="3286.425781"/>
     <use xlink:href="#DejaVuSans-61" x="3349.902344"/>
     <use xlink:href="#DejaVuSans-6e" x="3411.181641"/>
     <use xlink:href="#DejaVuSans-74" x="3474.560547"/>
     <use xlink:href="#DejaVuSans-5f" x="3513.769531"/>
     <use xlink:href="#DejaVuSans-31" x="3563.769531"/>
     <use xlink:href="#DejaVuSans-35" x="3627.392578"/>
     <use xlink:href="#DejaVuSans-5f" x="3691.015625"/>
     <use xlink:href="#DejaVuSans-39" x="3741.015625"/>
     <use xlink:href="#DejaVuSans-30" x="3804.638672"/>
     <use xlink:href="#DejaVuSans-5f" x="3868.261719"/>
     <use xlink:href="#DejaVuSans-4d" x="3918.261719"/>
     <use xlink:href="#DejaVuSans-41" x="4004.541016"/>
     <use xlink:href="#DejaVuSans-43" x="4071.199219"/>
     <use xlink:href="#DejaVuSans-43" x="4141.023438"/>
     <use xlink:href="#DejaVuSans-53" x="4210.847656"/>
     <use xlink:href="#DejaVuSans-5f" x="4274.324219"/>
     <use xlink:href="#DejaVuSans-6e" x="4324.324219"/>
     <use xlink:href="#DejaVuSans-6f" x="4387.703125"/>
     <use xlink:href="#DejaVuSans-5f" x="4448.884766"/>
     <use xlink:href="#DejaVuSans-73" x="4498.884766"/>
     <use xlink:href="#DejaVuSans-61" x="4550.984375"/>
     <use xlink:href="#DejaVuSans-6d" x="4612.263672"/>
     <use xlink:href="#DejaVuSans-65" x="4709.675781"/>
     <use xlink:href="#DejaVuSans-5f" x="4771.199219"/>
     <use xlink:href="#DejaVuSans-73" x="4821.199219"/>
     <use xlink:href="#DejaVuSans-75" x="4873.298828"/>
     <use xlink:href="#DejaVuSans-62" x="4936.677734"/>
     <use xlink:href="#DejaVuSans-5f" x="5000.154297"/>
     <use xlink:href="#DejaVuSans-70" x="5050.154297"/>
     <use xlink:href="#DejaVuSans-72" x="5113.630859"/>
     <use xlink:href="#DejaVuSans-65" x="5152.494141"/>
     <use xlink:href="#DejaVuSans-64" x="5214.017578"/>
     <use xlink:href="#DejaVuSans-69" x="5277.494141"/>
     <use xlink:href="#DejaVuSans-63" x="5305.277344"/>
     <use xlink:href="#DejaVuSans-74" x="5360.257812"/>
     <use xlink:href="#DejaVuSans-69" x="5399.466797"/>
     <use xlink:href="#DejaVuSans-6f" x="5427.25"/>
     <use xlink:href="#DejaVuSans-6e" x="5488.431641"/>
     <use xlink:href="#DejaVuSans-20" x="5551.810547"/>
     <use xlink:href="#DejaVuSans-70" x="5583.597656"/>
     <use xlink:href="#DejaVuSans-72" x="5647.074219"/>
     <use xlink:href="#DejaVuSans-6f" x="5685.9375"/>
     <use xlink:href="#DejaVuSans-62" x="5747.119141"/>
     <use xlink:href="#DejaVuSans-61" x="5810.595703"/>
     <use xlink:href="#DejaVuSans-62" x="5871.875"/>
     <use xlink:href="#DejaVuSans-69" x="5935.351562"/>
     <use xlink:href="#DejaVuSans-6c" x="5963.134766"/>
     <use xlink:href="#DejaVuSans-69" x="5990.917969"/>
     <use xlink:href="#DejaVuSans-74" x="6018.701172"/>
     <use xlink:href="#DejaVuSans-79" x="6057.910156"/>
     <use xlink:href="#DejaVuSans-20" x="6117.089844"/>
     <use xlink:href="#DejaVuSans-64" x="6148.876953"/>
     <use xlink:href="#DejaVuSans-69" x="6212.353516"/>
     <use xlink:href="#DejaVuSans-73" x="6240.136719"/>
     <use xlink:href="#DejaVuSans-74" x="6292.236328"/>
     <use xlink:href="#DejaVuSans-72" x="6331.445312"/>
     <use xlink:href="#DejaVuSans-69" x="6372.558594"/>
     <use xlink:href="#DejaVuSans-62" x="6400.341797"/>
     <use xlink:href="#DejaVuSans-75" x="6463.818359"/>
     <use xlink:href="#DejaVuSans-74" x="6527.197266"/>
     <use xlink:href="#DejaVuSans-69" x="6566.40625"/>
     <use xlink:href="#DejaVuSans-6f" x="6594.189453"/>
     <use xlink:href="#DejaVuSans-6e" x="6655.371094"/>
    </g>
   </g>
   <g id="legend_1">
    <g id="patch_205">
     <path d="M 3423.873125 109.280625 
L 3524.2 109.280625 
Q 3525.8 109.280625 3525.8 107.680625 
L 3525.8 46.154375 
Q 3525.8 44.554375 3524.2 44.554375 
L 3423.873125 44.554375 
Q 3422.273125 44.554375 3422.273125 46.154375 
L 3422.273125 107.680625 
Q 3422.273125 109.280625 3423.873125 109.280625 
z
" style="fill: #eaeaf2; opacity: 0.8; stroke: #cccccc; stroke-linejoin: miter"/>
    </g>
    <g id="text_16">
     <!-- Label -->
     <g style="fill: #262626" transform="translate(3425.473125 75.10875)scale(0.36 -0.36)">
      <defs>
       <path id="DejaVuSans-4c" d="M 628 4666 
L 1259 4666 
L 1259 531 
L 3531 531 
L 3531 0 
L 628 0 
L 628 4666 
z
" transform="scale(0.015625)"/>
      </defs>
      <use xlink:href="#DejaVuSans-4c"/>
      <use xlink:href="#DejaVuSans-61" x="55.712891"/>
      <use xlink:href="#DejaVuSans-62" x="116.992188"/>
      <use xlink:href="#DejaVuSans-65" x="180.46875"/>
      <use xlink:href="#DejaVuSans-6c" x="241.992188"/>
     </g>
    </g>
    <g id="patch_206">
     <path d="M 3450.617187 92.674375 
L 3466.617187 92.674375 
L 3466.617187 87.074375 
L 3450.617187 87.074375 
z
" style="fill: #ffa500; fill-opacity: 0.5; stroke: #ffffff; stroke-linejoin: miter"/>
    </g>
    <g id="text_17">
     <!-- label1 -->
     <g style="fill: #262626" transform="translate(3473.017187 92.674375)scale(0.08 -0.08)">
      <use xlink:href="#DejaVuSans-6c"/>
      <use xlink:href="#DejaVuSans-61" x="27.783203"/>
      <use xlink:href="#DejaVuSans-62" x="89.0625"/>
      <use xlink:href="#DejaVuSans-65" x="152.539062"/>
      <use xlink:href="#DejaVuSans-6c" x="214.0625"/>
      <use xlink:href="#DejaVuSans-31" x="241.845703"/>
     </g>
    </g>
    <g id="patch_207">
     <path d="M 3450.617187 104.416875 
L 3466.617187 104.416875 
L 3466.617187 98.816875 
L 3450.617187 98.816875 
z
" style="fill: #0000ff; fill-opacity: 0.5; stroke: #ffffff; stroke-linejoin: miter"/>
    </g>
    <g id="text_18">
     <!-- label0 -->
     <g style="fill: #262626" transform="translate(3473.017187 104.416875)scale(0.08 -0.08)">
      <use xlink:href="#DejaVuSans-6c"/>
      <use xlink:href="#DejaVuSans-61" x="27.783203"/>
      <use xlink:href="#DejaVuSans-62" x="89.0625"/>
      <use xlink:href="#DejaVuSans-65" x="152.539062"/>
      <use xlink:href="#DejaVuSans-6c" x="214.0625"/>
      <use xlink:href="#DejaVuSans-30" x="241.845703"/>
     </g>
    </g>
   </g>
  </g>
 </g>
 <defs>
  <clipPath id="p5bff2ad645">
   <rect x="118.53" y="40.554375" width="3411.27" height="2040.34"/>
  </clipPath>
 </defs>
</svg>
