<?xml version="1.0" encoding="utf-8" standalone="no"?>
<!DOCTYPE svg PUBLIC "-//W3C//DTD SVG 1.1//EN"
  "http://www.w3.org/Graphics/SVG/1.1/DTD/svg11.dtd">
<svg xmlns:xlink="http://www.w3.org/1999/xlink" width="3536.97375pt" height="2168.373437pt" viewBox="0 0 3536.97375 2168.373437" xmlns="http://www.w3.org/2000/svg" version="1.1">
 <metadata>
  <rdf:RDF xmlns:dc="http://purl.org/dc/elements/1.1/" xmlns:cc="http://creativecommons.org/ns#" xmlns:rdf="http://www.w3.org/1999/02/22-rdf-syntax-ns#">
   <cc:Work>
    <dc:type rdf:resource="http://purl.org/dc/dcmitype/StillImage"/>
    <dc:date>2022-11-22T17:39:15.917983</dc:date>
    <dc:format>image/svg+xml</dc:format>
    <dc:creator>
     <cc:Agent>
      <dc:title>Matplotlib v3.5.2, https://matplotlib.org/</dc:title>
     </cc:Agent>
    </dc:creator>
   </cc:Work>
  </rdf:RDF>
 </metadata>
 <defs>
  <style type="text/css">*{stroke-linejoin: round; stroke-linecap: butt}</style>
 </defs>
 <g id="figure_1">
  <g id="patch_1">
   <path d="M -0 2168.373437 
L 3536.97375 2168.373437 
L 3536.97375 0 
L -0 0 
z
" style="fill: #ffffff"/>
  </g>
  <g id="axes_1">
   <g id="patch_2">
    <path d="M 97.53375 2080.894375 
L 3529.77375 2080.894375 
L 3529.77375 40.554375 
L 97.53375 40.554375 
z
" style="fill: #eaeaf2"/>
   </g>
   <g id="matplotlib.axis_1">
    <g id="xtick_1">
     <g id="line2d_1">
      <path d="M 253.544659 2080.894375 
L 253.544659 40.554375 
" clip-path="url(#p0705b27d6d)" style="fill: none; stroke: #ffffff; stroke-linecap: round"/>
     </g>
     <g id="text_1">
      <!-- 0.0 -->
      <g style="fill: #262626" transform="translate(227.304503 2115.469219)scale(0.33 -0.33)">
       <defs>
        <path id="DejaVuSans-30" d="M 2034 4250 
Q 1547 4250 1301 3770 
Q 1056 3291 1056 2328 
Q 1056 1369 1301 889 
Q 1547 409 2034 409 
Q 2525 409 2770 889 
Q 3016 1369 3016 2328 
Q 3016 3291 2770 3770 
Q 2525 4250 2034 4250 
z
M 2034 4750 
Q 2819 4750 3233 4129 
Q 3647 3509 3647 2328 
Q 3647 1150 3233 529 
Q 2819 -91 2034 -91 
Q 1250 -91 836 529 
Q 422 1150 422 2328 
Q 422 3509 836 4129 
Q 1250 4750 2034 4750 
z
" transform="scale(0.015625)"/>
        <path id="DejaVuSans-2e" d="M 684 794 
L 1344 794 
L 1344 0 
L 684 0 
L 684 794 
z
" transform="scale(0.015625)"/>
       </defs>
       <use xlink:href="#DejaVuSans-30"/>
       <use xlink:href="#DejaVuSans-2e" x="63.623047"/>
       <use xlink:href="#DejaVuSans-30" x="95.410156"/>
      </g>
     </g>
    </g>
    <g id="xtick_2">
     <g id="line2d_2">
      <path d="M 877.588295 2080.894375 
L 877.588295 40.554375 
" clip-path="url(#p0705b27d6d)" style="fill: none; stroke: #ffffff; stroke-linecap: round"/>
     </g>
     <g id="text_2">
      <!-- 0.2 -->
      <g style="fill: #262626" transform="translate(851.348139 2115.469219)scale(0.33 -0.33)">
       <defs>
        <path id="DejaVuSans-32" d="M 1228 531 
L 3431 531 
L 3431 0 
L 469 0 
L 469 531 
Q 828 903 1448 1529 
Q 2069 2156 2228 2338 
Q 2531 2678 2651 2914 
Q 2772 3150 2772 3378 
Q 2772 3750 2511 3984 
Q 2250 4219 1831 4219 
Q 1534 4219 1204 4116 
Q 875 4013 500 3803 
L 500 4441 
Q 881 4594 1212 4672 
Q 1544 4750 1819 4750 
Q 2544 4750 2975 4387 
Q 3406 4025 3406 3419 
Q 3406 3131 3298 2873 
Q 3191 2616 2906 2266 
Q 2828 2175 2409 1742 
Q 1991 1309 1228 531 
z
" transform="scale(0.015625)"/>
       </defs>
       <use xlink:href="#DejaVuSans-30"/>
       <use xlink:href="#DejaVuSans-2e" x="63.623047"/>
       <use xlink:href="#DejaVuSans-32" x="95.410156"/>
      </g>
     </g>
    </g>
    <g id="xtick_3">
     <g id="line2d_3">
      <path d="M 1501.631932 2080.894375 
L 1501.631932 40.554375 
" clip-path="url(#p0705b27d6d)" style="fill: none; stroke: #ffffff; stroke-linecap: round"/>
     </g>
     <g id="text_3">
      <!-- 0.4 -->
      <g style="fill: #262626" transform="translate(1475.391776 2115.469219)scale(0.33 -0.33)">
       <defs>
        <path id="DejaVuSans-34" d="M 2419 4116 
L 825 1625 
L 2419 1625 
L 2419 4116 
z
M 2253 4666 
L 3047 4666 
L 3047 1625 
L 3713 1625 
L 3713 1100 
L 3047 1100 
L 3047 0 
L 2419 0 
L 2419 1100 
L 313 1100 
L 313 1709 
L 2253 4666 
z
" transform="scale(0.015625)"/>
       </defs>
       <use xlink:href="#DejaVuSans-30"/>
       <use xlink:href="#DejaVuSans-2e" x="63.623047"/>
       <use xlink:href="#DejaVuSans-34" x="95.410156"/>
      </g>
     </g>
    </g>
    <g id="xtick_4">
     <g id="line2d_4">
      <path d="M 2125.675568 2080.894375 
L 2125.675568 40.554375 
" clip-path="url(#p0705b27d6d)" style="fill: none; stroke: #ffffff; stroke-linecap: round"/>
     </g>
     <g id="text_4">
      <!-- 0.6 -->
      <g style="fill: #262626" transform="translate(2099.435412 2115.469219)scale(0.33 -0.33)">
       <defs>
        <path id="DejaVuSans-36" d="M 2113 2584 
Q 1688 2584 1439 2293 
Q 1191 2003 1191 1497 
Q 1191 994 1439 701 
Q 1688 409 2113 409 
Q 2538 409 2786 701 
Q 3034 994 3034 1497 
Q 3034 2003 2786 2293 
Q 2538 2584 2113 2584 
z
M 3366 4563 
L 3366 3988 
Q 3128 4100 2886 4159 
Q 2644 4219 2406 4219 
Q 1781 4219 1451 3797 
Q 1122 3375 1075 2522 
Q 1259 2794 1537 2939 
Q 1816 3084 2150 3084 
Q 2853 3084 3261 2657 
Q 3669 2231 3669 1497 
Q 3669 778 3244 343 
Q 2819 -91 2113 -91 
Q 1303 -91 875 529 
Q 447 1150 447 2328 
Q 447 3434 972 4092 
Q 1497 4750 2381 4750 
Q 2619 4750 2861 4703 
Q 3103 4656 3366 4563 
z
" transform="scale(0.015625)"/>
       </defs>
       <use xlink:href="#DejaVuSans-30"/>
       <use xlink:href="#DejaVuSans-2e" x="63.623047"/>
       <use xlink:href="#DejaVuSans-36" x="95.410156"/>
      </g>
     </g>
    </g>
    <g id="xtick_5">
     <g id="line2d_5">
      <path d="M 2749.719205 2080.894375 
L 2749.719205 40.554375 
" clip-path="url(#p0705b27d6d)" style="fill: none; stroke: #ffffff; stroke-linecap: round"/>
     </g>
     <g id="text_5">
      <!-- 0.8 -->
      <g style="fill: #262626" transform="translate(2723.479048 2115.469219)scale(0.33 -0.33)">
       <defs>
        <path id="DejaVuSans-38" d="M 2034 2216 
Q 1584 2216 1326 1975 
Q 1069 1734 1069 1313 
Q 1069 891 1326 650 
Q 1584 409 2034 409 
Q 2484 409 2743 651 
Q 3003 894 3003 1313 
Q 3003 1734 2745 1975 
Q 2488 2216 2034 2216 
z
M 1403 2484 
Q 997 2584 770 2862 
Q 544 3141 544 3541 
Q 544 4100 942 4425 
Q 1341 4750 2034 4750 
Q 2731 4750 3128 4425 
Q 3525 4100 3525 3541 
Q 3525 3141 3298 2862 
Q 3072 2584 2669 2484 
Q 3125 2378 3379 2068 
Q 3634 1759 3634 1313 
Q 3634 634 3220 271 
Q 2806 -91 2034 -91 
Q 1263 -91 848 271 
Q 434 634 434 1313 
Q 434 1759 690 2068 
Q 947 2378 1403 2484 
z
M 1172 3481 
Q 1172 3119 1398 2916 
Q 1625 2713 2034 2713 
Q 2441 2713 2670 2916 
Q 2900 3119 2900 3481 
Q 2900 3844 2670 4047 
Q 2441 4250 2034 4250 
Q 1625 4250 1398 4047 
Q 1172 3844 1172 3481 
z
" transform="scale(0.015625)"/>
       </defs>
       <use xlink:href="#DejaVuSans-30"/>
       <use xlink:href="#DejaVuSans-2e" x="63.623047"/>
       <use xlink:href="#DejaVuSans-38" x="95.410156"/>
      </g>
     </g>
    </g>
    <g id="xtick_6">
     <g id="line2d_6">
      <path d="M 3373.762841 2080.894375 
L 3373.762841 40.554375 
" clip-path="url(#p0705b27d6d)" style="fill: none; stroke: #ffffff; stroke-linecap: round"/>
     </g>
     <g id="text_6">
      <!-- 1.0 -->
      <g style="fill: #262626" transform="translate(3347.522685 2115.469219)scale(0.33 -0.33)">
       <defs>
        <path id="DejaVuSans-31" d="M 794 531 
L 1825 531 
L 1825 4091 
L 703 3866 
L 703 4441 
L 1819 4666 
L 2450 4666 
L 2450 531 
L 3481 531 
L 3481 0 
L 794 0 
L 794 531 
z
" transform="scale(0.015625)"/>
       </defs>
       <use xlink:href="#DejaVuSans-31"/>
       <use xlink:href="#DejaVuSans-2e" x="63.623047"/>
       <use xlink:href="#DejaVuSans-30" x="95.410156"/>
      </g>
     </g>
    </g>
    <g id="text_7">
     <!-- probability -->
     <g style="fill: #262626" transform="translate(1717.620938 2153.686563)scale(0.36 -0.36)">
      <defs>
       <path id="DejaVuSans-70" d="M 1159 525 
L 1159 -1331 
L 581 -1331 
L 581 3500 
L 1159 3500 
L 1159 2969 
Q 1341 3281 1617 3432 
Q 1894 3584 2278 3584 
Q 2916 3584 3314 3078 
Q 3713 2572 3713 1747 
Q 3713 922 3314 415 
Q 2916 -91 2278 -91 
Q 1894 -91 1617 61 
Q 1341 213 1159 525 
z
M 3116 1747 
Q 3116 2381 2855 2742 
Q 2594 3103 2138 3103 
Q 1681 3103 1420 2742 
Q 1159 2381 1159 1747 
Q 1159 1113 1420 752 
Q 1681 391 2138 391 
Q 2594 391 2855 752 
Q 3116 1113 3116 1747 
z
" transform="scale(0.015625)"/>
       <path id="DejaVuSans-72" d="M 2631 2963 
Q 2534 3019 2420 3045 
Q 2306 3072 2169 3072 
Q 1681 3072 1420 2755 
Q 1159 2438 1159 1844 
L 1159 0 
L 581 0 
L 581 3500 
L 1159 3500 
L 1159 2956 
Q 1341 3275 1631 3429 
Q 1922 3584 2338 3584 
Q 2397 3584 2469 3576 
Q 2541 3569 2628 3553 
L 2631 2963 
z
" transform="scale(0.015625)"/>
       <path id="DejaVuSans-6f" d="M 1959 3097 
Q 1497 3097 1228 2736 
Q 959 2375 959 1747 
Q 959 1119 1226 758 
Q 1494 397 1959 397 
Q 2419 397 2687 759 
Q 2956 1122 2956 1747 
Q 2956 2369 2687 2733 
Q 2419 3097 1959 3097 
z
M 1959 3584 
Q 2709 3584 3137 3096 
Q 3566 2609 3566 1747 
Q 3566 888 3137 398 
Q 2709 -91 1959 -91 
Q 1206 -91 779 398 
Q 353 888 353 1747 
Q 353 2609 779 3096 
Q 1206 3584 1959 3584 
z
" transform="scale(0.015625)"/>
       <path id="DejaVuSans-62" d="M 3116 1747 
Q 3116 2381 2855 2742 
Q 2594 3103 2138 3103 
Q 1681 3103 1420 2742 
Q 1159 2381 1159 1747 
Q 1159 1113 1420 752 
Q 1681 391 2138 391 
Q 2594 391 2855 752 
Q 3116 1113 3116 1747 
z
M 1159 2969 
Q 1341 3281 1617 3432 
Q 1894 3584 2278 3584 
Q 2916 3584 3314 3078 
Q 3713 2572 3713 1747 
Q 3713 922 3314 415 
Q 2916 -91 2278 -91 
Q 1894 -91 1617 61 
Q 1341 213 1159 525 
L 1159 0 
L 581 0 
L 581 4863 
L 1159 4863 
L 1159 2969 
z
" transform="scale(0.015625)"/>
       <path id="DejaVuSans-61" d="M 2194 1759 
Q 1497 1759 1228 1600 
Q 959 1441 959 1056 
Q 959 750 1161 570 
Q 1363 391 1709 391 
Q 2188 391 2477 730 
Q 2766 1069 2766 1631 
L 2766 1759 
L 2194 1759 
z
M 3341 1997 
L 3341 0 
L 2766 0 
L 2766 531 
Q 2569 213 2275 61 
Q 1981 -91 1556 -91 
Q 1019 -91 701 211 
Q 384 513 384 1019 
Q 384 1609 779 1909 
Q 1175 2209 1959 2209 
L 2766 2209 
L 2766 2266 
Q 2766 2663 2505 2880 
Q 2244 3097 1772 3097 
Q 1472 3097 1187 3025 
Q 903 2953 641 2809 
L 641 3341 
Q 956 3463 1253 3523 
Q 1550 3584 1831 3584 
Q 2591 3584 2966 3190 
Q 3341 2797 3341 1997 
z
" transform="scale(0.015625)"/>
       <path id="DejaVuSans-69" d="M 603 3500 
L 1178 3500 
L 1178 0 
L 603 0 
L 603 3500 
z
M 603 4863 
L 1178 4863 
L 1178 4134 
L 603 4134 
L 603 4863 
z
" transform="scale(0.015625)"/>
       <path id="DejaVuSans-6c" d="M 603 4863 
L 1178 4863 
L 1178 0 
L 603 0 
L 603 4863 
z
" transform="scale(0.015625)"/>
       <path id="DejaVuSans-74" d="M 1172 4494 
L 1172 3500 
L 2356 3500 
L 2356 3053 
L 1172 3053 
L 1172 1153 
Q 1172 725 1289 603 
Q 1406 481 1766 481 
L 2356 481 
L 2356 0 
L 1766 0 
Q 1100 0 847 248 
Q 594 497 594 1153 
L 594 3053 
L 172 3053 
L 172 3500 
L 594 3500 
L 594 4494 
L 1172 4494 
z
" transform="scale(0.015625)"/>
       <path id="DejaVuSans-79" d="M 2059 -325 
Q 1816 -950 1584 -1140 
Q 1353 -1331 966 -1331 
L 506 -1331 
L 506 -850 
L 844 -850 
Q 1081 -850 1212 -737 
Q 1344 -625 1503 -206 
L 1606 56 
L 191 3500 
L 800 3500 
L 1894 763 
L 2988 3500 
L 3597 3500 
L 2059 -325 
z
" transform="scale(0.015625)"/>
      </defs>
      <use xlink:href="#DejaVuSans-70"/>
      <use xlink:href="#DejaVuSans-72" x="63.476562"/>
      <use xlink:href="#DejaVuSans-6f" x="102.339844"/>
      <use xlink:href="#DejaVuSans-62" x="163.521484"/>
      <use xlink:href="#DejaVuSans-61" x="226.998047"/>
      <use xlink:href="#DejaVuSans-62" x="288.277344"/>
      <use xlink:href="#DejaVuSans-69" x="351.753906"/>
      <use xlink:href="#DejaVuSans-6c" x="379.537109"/>
      <use xlink:href="#DejaVuSans-69" x="407.320312"/>
      <use xlink:href="#DejaVuSans-74" x="435.103516"/>
      <use xlink:href="#DejaVuSans-79" x="474.3125"/>
     </g>
    </g>
   </g>
   <g id="matplotlib.axis_2">
    <g id="ytick_1">
     <g id="line2d_7">
      <path d="M 97.53375 2080.894375 
L 3529.77375 2080.894375 
" clip-path="url(#p0705b27d6d)" style="fill: none; stroke: #ffffff; stroke-linecap: round"/>
     </g>
     <g id="text_8">
      <!-- 0 -->
      <g style="fill: #262626" transform="translate(67.0375 2093.431797)scale(0.33 -0.33)">
       <use xlink:href="#DejaVuSans-30"/>
      </g>
     </g>
    </g>
    <g id="ytick_2">
     <g id="line2d_8">
      <path d="M 97.53375 1821.803581 
L 3529.77375 1821.803581 
" clip-path="url(#p0705b27d6d)" style="fill: none; stroke: #ffffff; stroke-linecap: round"/>
     </g>
     <g id="text_9">
      <!-- 10 -->
      <g style="fill: #262626" transform="translate(46.04125 1834.341003)scale(0.33 -0.33)">
       <use xlink:href="#DejaVuSans-31"/>
       <use xlink:href="#DejaVuSans-30" x="63.623047"/>
      </g>
     </g>
    </g>
    <g id="ytick_3">
     <g id="line2d_9">
      <path d="M 97.53375 1562.712788 
L 3529.77375 1562.712788 
" clip-path="url(#p0705b27d6d)" style="fill: none; stroke: #ffffff; stroke-linecap: round"/>
     </g>
     <g id="text_10">
      <!-- 20 -->
      <g style="fill: #262626" transform="translate(46.04125 1575.25021)scale(0.33 -0.33)">
       <use xlink:href="#DejaVuSans-32"/>
       <use xlink:href="#DejaVuSans-30" x="63.623047"/>
      </g>
     </g>
    </g>
    <g id="ytick_4">
     <g id="line2d_10">
      <path d="M 97.53375 1303.621994 
L 3529.77375 1303.621994 
" clip-path="url(#p0705b27d6d)" style="fill: none; stroke: #ffffff; stroke-linecap: round"/>
     </g>
     <g id="text_11">
      <!-- 30 -->
      <g style="fill: #262626" transform="translate(46.04125 1316.159416)scale(0.33 -0.33)">
       <defs>
        <path id="DejaVuSans-33" d="M 2597 2516 
Q 3050 2419 3304 2112 
Q 3559 1806 3559 1356 
Q 3559 666 3084 287 
Q 2609 -91 1734 -91 
Q 1441 -91 1130 -33 
Q 819 25 488 141 
L 488 750 
Q 750 597 1062 519 
Q 1375 441 1716 441 
Q 2309 441 2620 675 
Q 2931 909 2931 1356 
Q 2931 1769 2642 2001 
Q 2353 2234 1838 2234 
L 1294 2234 
L 1294 2753 
L 1863 2753 
Q 2328 2753 2575 2939 
Q 2822 3125 2822 3475 
Q 2822 3834 2567 4026 
Q 2313 4219 1838 4219 
Q 1578 4219 1281 4162 
Q 984 4106 628 3988 
L 628 4550 
Q 988 4650 1302 4700 
Q 1616 4750 1894 4750 
Q 2613 4750 3031 4423 
Q 3450 4097 3450 3541 
Q 3450 3153 3228 2886 
Q 3006 2619 2597 2516 
z
" transform="scale(0.015625)"/>
       </defs>
       <use xlink:href="#DejaVuSans-33"/>
       <use xlink:href="#DejaVuSans-30" x="63.623047"/>
      </g>
     </g>
    </g>
    <g id="ytick_5">
     <g id="line2d_11">
      <path d="M 97.53375 1044.5312 
L 3529.77375 1044.5312 
" clip-path="url(#p0705b27d6d)" style="fill: none; stroke: #ffffff; stroke-linecap: round"/>
     </g>
     <g id="text_12">
      <!-- 40 -->
      <g style="fill: #262626" transform="translate(46.04125 1057.068622)scale(0.33 -0.33)">
       <use xlink:href="#DejaVuSans-34"/>
       <use xlink:href="#DejaVuSans-30" x="63.623047"/>
      </g>
     </g>
    </g>
    <g id="ytick_6">
     <g id="line2d_12">
      <path d="M 97.53375 785.440407 
L 3529.77375 785.440407 
" clip-path="url(#p0705b27d6d)" style="fill: none; stroke: #ffffff; stroke-linecap: round"/>
     </g>
     <g id="text_13">
      <!-- 50 -->
      <g style="fill: #262626" transform="translate(46.04125 797.977829)scale(0.33 -0.33)">
       <defs>
        <path id="DejaVuSans-35" d="M 691 4666 
L 3169 4666 
L 3169 4134 
L 1269 4134 
L 1269 2991 
Q 1406 3038 1543 3061 
Q 1681 3084 1819 3084 
Q 2600 3084 3056 2656 
Q 3513 2228 3513 1497 
Q 3513 744 3044 326 
Q 2575 -91 1722 -91 
Q 1428 -91 1123 -41 
Q 819 9 494 109 
L 494 744 
Q 775 591 1075 516 
Q 1375 441 1709 441 
Q 2250 441 2565 725 
Q 2881 1009 2881 1497 
Q 2881 1984 2565 2268 
Q 2250 2553 1709 2553 
Q 1456 2553 1204 2497 
Q 953 2441 691 2322 
L 691 4666 
z
" transform="scale(0.015625)"/>
       </defs>
       <use xlink:href="#DejaVuSans-35"/>
       <use xlink:href="#DejaVuSans-30" x="63.623047"/>
      </g>
     </g>
    </g>
    <g id="ytick_7">
     <g id="line2d_13">
      <path d="M 97.53375 526.349613 
L 3529.77375 526.349613 
" clip-path="url(#p0705b27d6d)" style="fill: none; stroke: #ffffff; stroke-linecap: round"/>
     </g>
     <g id="text_14">
      <!-- 60 -->
      <g style="fill: #262626" transform="translate(46.04125 538.887035)scale(0.33 -0.33)">
       <use xlink:href="#DejaVuSans-36"/>
       <use xlink:href="#DejaVuSans-30" x="63.623047"/>
      </g>
     </g>
    </g>
    <g id="ytick_8">
     <g id="line2d_14">
      <path d="M 97.53375 267.258819 
L 3529.77375 267.258819 
" clip-path="url(#p0705b27d6d)" style="fill: none; stroke: #ffffff; stroke-linecap: round"/>
     </g>
     <g id="text_15">
      <!-- 70 -->
      <g style="fill: #262626" transform="translate(46.04125 279.796241)scale(0.33 -0.33)">
       <defs>
        <path id="DejaVuSans-37" d="M 525 4666 
L 3525 4666 
L 3525 4397 
L 1831 0 
L 1172 0 
L 2766 4134 
L 525 4134 
L 525 4666 
z
" transform="scale(0.015625)"/>
       </defs>
       <use xlink:href="#DejaVuSans-37"/>
       <use xlink:href="#DejaVuSans-30" x="63.623047"/>
      </g>
     </g>
    </g>
    <g id="text_16">
     <!-- Count -->
     <g style="fill: #262626" transform="translate(34.554375 1114.17875)rotate(-90)scale(0.36 -0.36)">
      <defs>
       <path id="DejaVuSans-43" d="M 4122 4306 
L 4122 3641 
Q 3803 3938 3442 4084 
Q 3081 4231 2675 4231 
Q 1875 4231 1450 3742 
Q 1025 3253 1025 2328 
Q 1025 1406 1450 917 
Q 1875 428 2675 428 
Q 3081 428 3442 575 
Q 3803 722 4122 1019 
L 4122 359 
Q 3791 134 3420 21 
Q 3050 -91 2638 -91 
Q 1578 -91 968 557 
Q 359 1206 359 2328 
Q 359 3453 968 4101 
Q 1578 4750 2638 4750 
Q 3056 4750 3426 4639 
Q 3797 4528 4122 4306 
z
" transform="scale(0.015625)"/>
       <path id="DejaVuSans-75" d="M 544 1381 
L 544 3500 
L 1119 3500 
L 1119 1403 
Q 1119 906 1312 657 
Q 1506 409 1894 409 
Q 2359 409 2629 706 
Q 2900 1003 2900 1516 
L 2900 3500 
L 3475 3500 
L 3475 0 
L 2900 0 
L 2900 538 
Q 2691 219 2414 64 
Q 2138 -91 1772 -91 
Q 1169 -91 856 284 
Q 544 659 544 1381 
z
M 1991 3584 
L 1991 3584 
z
" transform="scale(0.015625)"/>
       <path id="DejaVuSans-6e" d="M 3513 2113 
L 3513 0 
L 2938 0 
L 2938 2094 
Q 2938 2591 2744 2837 
Q 2550 3084 2163 3084 
Q 1697 3084 1428 2787 
Q 1159 2491 1159 1978 
L 1159 0 
L 581 0 
L 581 3500 
L 1159 3500 
L 1159 2956 
Q 1366 3272 1645 3428 
Q 1925 3584 2291 3584 
Q 2894 3584 3203 3211 
Q 3513 2838 3513 2113 
z
" transform="scale(0.015625)"/>
      </defs>
      <use xlink:href="#DejaVuSans-43"/>
      <use xlink:href="#DejaVuSans-6f" x="69.824219"/>
      <use xlink:href="#DejaVuSans-75" x="131.005859"/>
      <use xlink:href="#DejaVuSans-6e" x="194.384766"/>
      <use xlink:href="#DejaVuSans-74" x="257.763672"/>
     </g>
    </g>
   </g>
   <g id="patch_3">
    <path d="M 284.746841 2080.894375 
L 315.949023 2080.894375 
L 315.949023 2054.985296 
L 284.746841 2054.985296 
z
" clip-path="url(#p0705b27d6d)" style="fill: #ffa500; fill-opacity: 0.5; stroke: #ffffff; stroke-linejoin: miter"/>
   </g>
   <g id="patch_4">
    <path d="M 315.949023 2080.894375 
L 347.151205 2080.894375 
L 347.151205 2080.894375 
L 315.949023 2080.894375 
z
" clip-path="url(#p0705b27d6d)" style="fill: #ffa500; fill-opacity: 0.5; stroke: #ffffff; stroke-linejoin: miter"/>
   </g>
   <g id="patch_5">
    <path d="M 347.151205 2080.894375 
L 378.353386 2080.894375 
L 378.353386 2080.894375 
L 347.151205 2080.894375 
z
" clip-path="url(#p0705b27d6d)" style="fill: #ffa500; fill-opacity: 0.5; stroke: #ffffff; stroke-linejoin: miter"/>
   </g>
   <g id="patch_6">
    <path d="M 378.353386 2080.894375 
L 409.555568 2080.894375 
L 409.555568 2080.894375 
L 378.353386 2080.894375 
z
" clip-path="url(#p0705b27d6d)" style="fill: #ffa500; fill-opacity: 0.5; stroke: #ffffff; stroke-linejoin: miter"/>
   </g>
   <g id="patch_7">
    <path d="M 409.555568 2080.894375 
L 440.75775 2080.894375 
L 440.75775 2080.894375 
L 409.555568 2080.894375 
z
" clip-path="url(#p0705b27d6d)" style="fill: #ffa500; fill-opacity: 0.5; stroke: #ffffff; stroke-linejoin: miter"/>
   </g>
   <g id="patch_8">
    <path d="M 440.75775 2080.894375 
L 471.959932 2080.894375 
L 471.959932 2080.894375 
L 440.75775 2080.894375 
z
" clip-path="url(#p0705b27d6d)" style="fill: #ffa500; fill-opacity: 0.5; stroke: #ffffff; stroke-linejoin: miter"/>
   </g>
   <g id="patch_9">
    <path d="M 471.959932 2080.894375 
L 503.162114 2080.894375 
L 503.162114 2080.894375 
L 471.959932 2080.894375 
z
" clip-path="url(#p0705b27d6d)" style="fill: #ffa500; fill-opacity: 0.5; stroke: #ffffff; stroke-linejoin: miter"/>
   </g>
   <g id="patch_10">
    <path d="M 503.162114 2080.894375 
L 534.364295 2080.894375 
L 534.364295 2080.894375 
L 503.162114 2080.894375 
z
" clip-path="url(#p0705b27d6d)" style="fill: #ffa500; fill-opacity: 0.5; stroke: #ffffff; stroke-linejoin: miter"/>
   </g>
   <g id="patch_11">
    <path d="M 534.364295 2080.894375 
L 565.566477 2080.894375 
L 565.566477 2080.894375 
L 534.364295 2080.894375 
z
" clip-path="url(#p0705b27d6d)" style="fill: #ffa500; fill-opacity: 0.5; stroke: #ffffff; stroke-linejoin: miter"/>
   </g>
   <g id="patch_12">
    <path d="M 565.566477 2080.894375 
L 596.768659 2080.894375 
L 596.768659 2080.894375 
L 565.566477 2080.894375 
z
" clip-path="url(#p0705b27d6d)" style="fill: #ffa500; fill-opacity: 0.5; stroke: #ffffff; stroke-linejoin: miter"/>
   </g>
   <g id="patch_13">
    <path d="M 596.768659 2080.894375 
L 627.970841 2080.894375 
L 627.970841 2080.894375 
L 596.768659 2080.894375 
z
" clip-path="url(#p0705b27d6d)" style="fill: #ffa500; fill-opacity: 0.5; stroke: #ffffff; stroke-linejoin: miter"/>
   </g>
   <g id="patch_14">
    <path d="M 627.970841 2080.894375 
L 659.173023 2080.894375 
L 659.173023 2080.894375 
L 627.970841 2080.894375 
z
" clip-path="url(#p0705b27d6d)" style="fill: #ffa500; fill-opacity: 0.5; stroke: #ffffff; stroke-linejoin: miter"/>
   </g>
   <g id="patch_15">
    <path d="M 659.173023 2080.894375 
L 690.375205 2080.894375 
L 690.375205 2080.894375 
L 659.173023 2080.894375 
z
" clip-path="url(#p0705b27d6d)" style="fill: #ffa500; fill-opacity: 0.5; stroke: #ffffff; stroke-linejoin: miter"/>
   </g>
   <g id="patch_16">
    <path d="M 690.375205 2080.894375 
L 721.577386 2080.894375 
L 721.577386 2080.894375 
L 690.375205 2080.894375 
z
" clip-path="url(#p0705b27d6d)" style="fill: #ffa500; fill-opacity: 0.5; stroke: #ffffff; stroke-linejoin: miter"/>
   </g>
   <g id="patch_17">
    <path d="M 721.577386 2080.894375 
L 752.779568 2080.894375 
L 752.779568 2080.894375 
L 721.577386 2080.894375 
z
" clip-path="url(#p0705b27d6d)" style="fill: #ffa500; fill-opacity: 0.5; stroke: #ffffff; stroke-linejoin: miter"/>
   </g>
   <g id="patch_18">
    <path d="M 752.779568 2080.894375 
L 783.98175 2080.894375 
L 783.98175 2080.894375 
L 752.779568 2080.894375 
z
" clip-path="url(#p0705b27d6d)" style="fill: #ffa500; fill-opacity: 0.5; stroke: #ffffff; stroke-linejoin: miter"/>
   </g>
   <g id="patch_19">
    <path d="M 783.98175 2080.894375 
L 815.183932 2080.894375 
L 815.183932 2080.894375 
L 783.98175 2080.894375 
z
" clip-path="url(#p0705b27d6d)" style="fill: #ffa500; fill-opacity: 0.5; stroke: #ffffff; stroke-linejoin: miter"/>
   </g>
   <g id="patch_20">
    <path d="M 815.183932 2080.894375 
L 846.386114 2080.894375 
L 846.386114 2080.894375 
L 815.183932 2080.894375 
z
" clip-path="url(#p0705b27d6d)" style="fill: #ffa500; fill-opacity: 0.5; stroke: #ffffff; stroke-linejoin: miter"/>
   </g>
   <g id="patch_21">
    <path d="M 846.386114 2080.894375 
L 877.588295 2080.894375 
L 877.588295 2080.894375 
L 846.386114 2080.894375 
z
" clip-path="url(#p0705b27d6d)" style="fill: #ffa500; fill-opacity: 0.5; stroke: #ffffff; stroke-linejoin: miter"/>
   </g>
   <g id="patch_22">
    <path d="M 877.588295 2080.894375 
L 908.790477 2080.894375 
L 908.790477 2080.894375 
L 877.588295 2080.894375 
z
" clip-path="url(#p0705b27d6d)" style="fill: #ffa500; fill-opacity: 0.5; stroke: #ffffff; stroke-linejoin: miter"/>
   </g>
   <g id="patch_23">
    <path d="M 908.790477 2080.894375 
L 939.992659 2080.894375 
L 939.992659 2080.894375 
L 908.790477 2080.894375 
z
" clip-path="url(#p0705b27d6d)" style="fill: #ffa500; fill-opacity: 0.5; stroke: #ffffff; stroke-linejoin: miter"/>
   </g>
   <g id="patch_24">
    <path d="M 939.992659 2080.894375 
L 971.194841 2080.894375 
L 971.194841 2029.076216 
L 939.992659 2029.076216 
z
" clip-path="url(#p0705b27d6d)" style="fill: #ffa500; fill-opacity: 0.5; stroke: #ffffff; stroke-linejoin: miter"/>
   </g>
   <g id="patch_25">
    <path d="M 971.194841 2080.894375 
L 1002.397023 2080.894375 
L 1002.397023 2080.894375 
L 971.194841 2080.894375 
z
" clip-path="url(#p0705b27d6d)" style="fill: #ffa500; fill-opacity: 0.5; stroke: #ffffff; stroke-linejoin: miter"/>
   </g>
   <g id="patch_26">
    <path d="M 1002.397023 2080.894375 
L 1033.599205 2080.894375 
L 1033.599205 2080.894375 
L 1002.397023 2080.894375 
z
" clip-path="url(#p0705b27d6d)" style="fill: #ffa500; fill-opacity: 0.5; stroke: #ffffff; stroke-linejoin: miter"/>
   </g>
   <g id="patch_27">
    <path d="M 1033.599205 2080.894375 
L 1064.801386 2080.894375 
L 1064.801386 2080.894375 
L 1033.599205 2080.894375 
z
" clip-path="url(#p0705b27d6d)" style="fill: #ffa500; fill-opacity: 0.5; stroke: #ffffff; stroke-linejoin: miter"/>
   </g>
   <g id="patch_28">
    <path d="M 1064.801386 2080.894375 
L 1096.003568 2080.894375 
L 1096.003568 2080.894375 
L 1064.801386 2080.894375 
z
" clip-path="url(#p0705b27d6d)" style="fill: #ffa500; fill-opacity: 0.5; stroke: #ffffff; stroke-linejoin: miter"/>
   </g>
   <g id="patch_29">
    <path d="M 1096.003568 2080.894375 
L 1127.20575 2080.894375 
L 1127.20575 2080.894375 
L 1096.003568 2080.894375 
z
" clip-path="url(#p0705b27d6d)" style="fill: #ffa500; fill-opacity: 0.5; stroke: #ffffff; stroke-linejoin: miter"/>
   </g>
   <g id="patch_30">
    <path d="M 1127.20575 2080.894375 
L 1158.407932 2080.894375 
L 1158.407932 2003.167137 
L 1127.20575 2003.167137 
z
" clip-path="url(#p0705b27d6d)" style="fill: #ffa500; fill-opacity: 0.5; stroke: #ffffff; stroke-linejoin: miter"/>
   </g>
   <g id="patch_31">
    <path d="M 1158.407932 2080.894375 
L 1189.610114 2080.894375 
L 1189.610114 2080.894375 
L 1158.407932 2080.894375 
z
" clip-path="url(#p0705b27d6d)" style="fill: #ffa500; fill-opacity: 0.5; stroke: #ffffff; stroke-linejoin: miter"/>
   </g>
   <g id="patch_32">
    <path d="M 1189.610114 2080.894375 
L 1220.812295 2080.894375 
L 1220.812295 2054.985296 
L 1189.610114 2054.985296 
z
" clip-path="url(#p0705b27d6d)" style="fill: #ffa500; fill-opacity: 0.5; stroke: #ffffff; stroke-linejoin: miter"/>
   </g>
   <g id="patch_33">
    <path d="M 1220.812295 2080.894375 
L 1252.014477 2080.894375 
L 1252.014477 2080.894375 
L 1220.812295 2080.894375 
z
" clip-path="url(#p0705b27d6d)" style="fill: #ffa500; fill-opacity: 0.5; stroke: #ffffff; stroke-linejoin: miter"/>
   </g>
   <g id="patch_34">
    <path d="M 1252.014477 2080.894375 
L 1283.216659 2080.894375 
L 1283.216659 2080.894375 
L 1252.014477 2080.894375 
z
" clip-path="url(#p0705b27d6d)" style="fill: #ffa500; fill-opacity: 0.5; stroke: #ffffff; stroke-linejoin: miter"/>
   </g>
   <g id="patch_35">
    <path d="M 1283.216659 2080.894375 
L 1314.418841 2080.894375 
L 1314.418841 2080.894375 
L 1283.216659 2080.894375 
z
" clip-path="url(#p0705b27d6d)" style="fill: #ffa500; fill-opacity: 0.5; stroke: #ffffff; stroke-linejoin: miter"/>
   </g>
   <g id="patch_36">
    <path d="M 1314.418841 2080.894375 
L 1345.621023 2080.894375 
L 1345.621023 2080.894375 
L 1314.418841 2080.894375 
z
" clip-path="url(#p0705b27d6d)" style="fill: #ffa500; fill-opacity: 0.5; stroke: #ffffff; stroke-linejoin: miter"/>
   </g>
   <g id="patch_37">
    <path d="M 1345.621023 2080.894375 
L 1376.823205 2080.894375 
L 1376.823205 2080.894375 
L 1345.621023 2080.894375 
z
" clip-path="url(#p0705b27d6d)" style="fill: #ffa500; fill-opacity: 0.5; stroke: #ffffff; stroke-linejoin: miter"/>
   </g>
   <g id="patch_38">
    <path d="M 1376.823205 2080.894375 
L 1408.025386 2080.894375 
L 1408.025386 2054.985296 
L 1376.823205 2054.985296 
z
" clip-path="url(#p0705b27d6d)" style="fill: #ffa500; fill-opacity: 0.5; stroke: #ffffff; stroke-linejoin: miter"/>
   </g>
   <g id="patch_39">
    <path d="M 1408.025386 2080.894375 
L 1439.227568 2080.894375 
L 1439.227568 2029.076216 
L 1408.025386 2029.076216 
z
" clip-path="url(#p0705b27d6d)" style="fill: #ffa500; fill-opacity: 0.5; stroke: #ffffff; stroke-linejoin: miter"/>
   </g>
   <g id="patch_40">
    <path d="M 1439.227568 2080.894375 
L 1470.42975 2080.894375 
L 1470.42975 2080.894375 
L 1439.227568 2080.894375 
z
" clip-path="url(#p0705b27d6d)" style="fill: #ffa500; fill-opacity: 0.5; stroke: #ffffff; stroke-linejoin: miter"/>
   </g>
   <g id="patch_41">
    <path d="M 1470.42975 2080.894375 
L 1501.631932 2080.894375 
L 1501.631932 2054.985296 
L 1470.42975 2054.985296 
z
" clip-path="url(#p0705b27d6d)" style="fill: #ffa500; fill-opacity: 0.5; stroke: #ffffff; stroke-linejoin: miter"/>
   </g>
   <g id="patch_42">
    <path d="M 1501.631932 2080.894375 
L 1532.834114 2080.894375 
L 1532.834114 1951.348978 
L 1501.631932 1951.348978 
z
" clip-path="url(#p0705b27d6d)" style="fill: #ffa500; fill-opacity: 0.5; stroke: #ffffff; stroke-linejoin: miter"/>
   </g>
   <g id="patch_43">
    <path d="M 1532.834114 2080.894375 
L 1564.036295 2080.894375 
L 1564.036295 2003.167137 
L 1532.834114 2003.167137 
z
" clip-path="url(#p0705b27d6d)" style="fill: #ffa500; fill-opacity: 0.5; stroke: #ffffff; stroke-linejoin: miter"/>
   </g>
   <g id="patch_44">
    <path d="M 1564.036295 2080.894375 
L 1595.238477 2080.894375 
L 1595.238477 1977.258058 
L 1564.036295 1977.258058 
z
" clip-path="url(#p0705b27d6d)" style="fill: #ffa500; fill-opacity: 0.5; stroke: #ffffff; stroke-linejoin: miter"/>
   </g>
   <g id="patch_45">
    <path d="M 1595.238477 2080.894375 
L 1626.440659 2080.894375 
L 1626.440659 2029.076216 
L 1595.238477 2029.076216 
z
" clip-path="url(#p0705b27d6d)" style="fill: #ffa500; fill-opacity: 0.5; stroke: #ffffff; stroke-linejoin: miter"/>
   </g>
   <g id="patch_46">
    <path d="M 1626.440659 2080.894375 
L 1657.642841 2080.894375 
L 1657.642841 2080.894375 
L 1626.440659 2080.894375 
z
" clip-path="url(#p0705b27d6d)" style="fill: #ffa500; fill-opacity: 0.5; stroke: #ffffff; stroke-linejoin: miter"/>
   </g>
   <g id="patch_47">
    <path d="M 1657.642841 2080.894375 
L 1688.845023 2080.894375 
L 1688.845023 2080.894375 
L 1657.642841 2080.894375 
z
" clip-path="url(#p0705b27d6d)" style="fill: #ffa500; fill-opacity: 0.5; stroke: #ffffff; stroke-linejoin: miter"/>
   </g>
   <g id="patch_48">
    <path d="M 1688.845023 2080.894375 
L 1720.047205 2080.894375 
L 1720.047205 2054.985296 
L 1688.845023 2054.985296 
z
" clip-path="url(#p0705b27d6d)" style="fill: #ffa500; fill-opacity: 0.5; stroke: #ffffff; stroke-linejoin: miter"/>
   </g>
   <g id="patch_49">
    <path d="M 1720.047205 2080.894375 
L 1751.249386 2080.894375 
L 1751.249386 2080.894375 
L 1720.047205 2080.894375 
z
" clip-path="url(#p0705b27d6d)" style="fill: #ffa500; fill-opacity: 0.5; stroke: #ffffff; stroke-linejoin: miter"/>
   </g>
   <g id="patch_50">
    <path d="M 1751.249386 2080.894375 
L 1782.451568 2080.894375 
L 1782.451568 2080.894375 
L 1751.249386 2080.894375 
z
" clip-path="url(#p0705b27d6d)" style="fill: #ffa500; fill-opacity: 0.5; stroke: #ffffff; stroke-linejoin: miter"/>
   </g>
   <g id="patch_51">
    <path d="M 1782.451568 2080.894375 
L 1813.65375 2080.894375 
L 1813.65375 2080.894375 
L 1782.451568 2080.894375 
z
" clip-path="url(#p0705b27d6d)" style="fill: #ffa500; fill-opacity: 0.5; stroke: #ffffff; stroke-linejoin: miter"/>
   </g>
   <g id="patch_52">
    <path d="M 1813.65375 2080.894375 
L 1844.855932 2080.894375 
L 1844.855932 2080.894375 
L 1813.65375 2080.894375 
z
" clip-path="url(#p0705b27d6d)" style="fill: #ffa500; fill-opacity: 0.5; stroke: #ffffff; stroke-linejoin: miter"/>
   </g>
   <g id="patch_53">
    <path d="M 1844.855932 2080.894375 
L 1876.058114 2080.894375 
L 1876.058114 2029.076216 
L 1844.855932 2029.076216 
z
" clip-path="url(#p0705b27d6d)" style="fill: #ffa500; fill-opacity: 0.5; stroke: #ffffff; stroke-linejoin: miter"/>
   </g>
   <g id="patch_54">
    <path d="M 1876.058114 2080.894375 
L 1907.260295 2080.894375 
L 1907.260295 1977.258058 
L 1876.058114 1977.258058 
z
" clip-path="url(#p0705b27d6d)" style="fill: #ffa500; fill-opacity: 0.5; stroke: #ffffff; stroke-linejoin: miter"/>
   </g>
   <g id="patch_55">
    <path d="M 1907.260295 2080.894375 
L 1938.462477 2080.894375 
L 1938.462477 2003.167137 
L 1907.260295 2003.167137 
z
" clip-path="url(#p0705b27d6d)" style="fill: #ffa500; fill-opacity: 0.5; stroke: #ffffff; stroke-linejoin: miter"/>
   </g>
   <g id="patch_56">
    <path d="M 1938.462477 2080.894375 
L 1969.664659 2080.894375 
L 1969.664659 1925.439899 
L 1938.462477 1925.439899 
z
" clip-path="url(#p0705b27d6d)" style="fill: #ffa500; fill-opacity: 0.5; stroke: #ffffff; stroke-linejoin: miter"/>
   </g>
   <g id="patch_57">
    <path d="M 1969.664659 2080.894375 
L 2000.866841 2080.894375 
L 2000.866841 1925.439899 
L 1969.664659 1925.439899 
z
" clip-path="url(#p0705b27d6d)" style="fill: #ffa500; fill-opacity: 0.5; stroke: #ffffff; stroke-linejoin: miter"/>
   </g>
   <g id="patch_58">
    <path d="M 2000.866841 2080.894375 
L 2032.069023 2080.894375 
L 2032.069023 2054.985296 
L 2000.866841 2054.985296 
z
" clip-path="url(#p0705b27d6d)" style="fill: #ffa500; fill-opacity: 0.5; stroke: #ffffff; stroke-linejoin: miter"/>
   </g>
   <g id="patch_59">
    <path d="M 2032.069023 2080.894375 
L 2063.271205 2080.894375 
L 2063.271205 2080.894375 
L 2032.069023 2080.894375 
z
" clip-path="url(#p0705b27d6d)" style="fill: #ffa500; fill-opacity: 0.5; stroke: #ffffff; stroke-linejoin: miter"/>
   </g>
   <g id="patch_60">
    <path d="M 2063.271205 2080.894375 
L 2094.473386 2080.894375 
L 2094.473386 2080.894375 
L 2063.271205 2080.894375 
z
" clip-path="url(#p0705b27d6d)" style="fill: #ffa500; fill-opacity: 0.5; stroke: #ffffff; stroke-linejoin: miter"/>
   </g>
   <g id="patch_61">
    <path d="M 2094.473386 2080.894375 
L 2125.675568 2080.894375 
L 2125.675568 2080.894375 
L 2094.473386 2080.894375 
z
" clip-path="url(#p0705b27d6d)" style="fill: #ffa500; fill-opacity: 0.5; stroke: #ffffff; stroke-linejoin: miter"/>
   </g>
   <g id="patch_62">
    <path d="M 2125.675568 2080.894375 
L 2156.87775 2080.894375 
L 2156.87775 2054.985296 
L 2125.675568 2054.985296 
z
" clip-path="url(#p0705b27d6d)" style="fill: #ffa500; fill-opacity: 0.5; stroke: #ffffff; stroke-linejoin: miter"/>
   </g>
   <g id="patch_63">
    <path d="M 2156.87775 2080.894375 
L 2188.079932 2080.894375 
L 2188.079932 2054.985296 
L 2156.87775 2054.985296 
z
" clip-path="url(#p0705b27d6d)" style="fill: #ffa500; fill-opacity: 0.5; stroke: #ffffff; stroke-linejoin: miter"/>
   </g>
   <g id="patch_64">
    <path d="M 2188.079932 2080.894375 
L 2219.282114 2080.894375 
L 2219.282114 2080.894375 
L 2188.079932 2080.894375 
z
" clip-path="url(#p0705b27d6d)" style="fill: #ffa500; fill-opacity: 0.5; stroke: #ffffff; stroke-linejoin: miter"/>
   </g>
   <g id="patch_65">
    <path d="M 2219.282114 2080.894375 
L 2250.484295 2080.894375 
L 2250.484295 2080.894375 
L 2219.282114 2080.894375 
z
" clip-path="url(#p0705b27d6d)" style="fill: #ffa500; fill-opacity: 0.5; stroke: #ffffff; stroke-linejoin: miter"/>
   </g>
   <g id="patch_66">
    <path d="M 2250.484295 2080.894375 
L 2281.686477 2080.894375 
L 2281.686477 2054.985296 
L 2250.484295 2054.985296 
z
" clip-path="url(#p0705b27d6d)" style="fill: #ffa500; fill-opacity: 0.5; stroke: #ffffff; stroke-linejoin: miter"/>
   </g>
   <g id="patch_67">
    <path d="M 2281.686477 2080.894375 
L 2312.888659 2080.894375 
L 2312.888659 2054.985296 
L 2281.686477 2054.985296 
z
" clip-path="url(#p0705b27d6d)" style="fill: #ffa500; fill-opacity: 0.5; stroke: #ffffff; stroke-linejoin: miter"/>
   </g>
   <g id="patch_68">
    <path d="M 2312.888659 2080.894375 
L 2344.090841 2080.894375 
L 2344.090841 2054.985296 
L 2312.888659 2054.985296 
z
" clip-path="url(#p0705b27d6d)" style="fill: #ffa500; fill-opacity: 0.5; stroke: #ffffff; stroke-linejoin: miter"/>
   </g>
   <g id="patch_69">
    <path d="M 2344.090841 2080.894375 
L 2375.293023 2080.894375 
L 2375.293023 2080.894375 
L 2344.090841 2080.894375 
z
" clip-path="url(#p0705b27d6d)" style="fill: #ffa500; fill-opacity: 0.5; stroke: #ffffff; stroke-linejoin: miter"/>
   </g>
   <g id="patch_70">
    <path d="M 2375.293023 2080.894375 
L 2406.495205 2080.894375 
L 2406.495205 2080.894375 
L 2375.293023 2080.894375 
z
" clip-path="url(#p0705b27d6d)" style="fill: #ffa500; fill-opacity: 0.5; stroke: #ffffff; stroke-linejoin: miter"/>
   </g>
   <g id="patch_71">
    <path d="M 2406.495205 2080.894375 
L 2437.697386 2080.894375 
L 2437.697386 2054.985296 
L 2406.495205 2054.985296 
z
" clip-path="url(#p0705b27d6d)" style="fill: #ffa500; fill-opacity: 0.5; stroke: #ffffff; stroke-linejoin: miter"/>
   </g>
   <g id="patch_72">
    <path d="M 2437.697386 2080.894375 
L 2468.899568 2080.894375 
L 2468.899568 2054.985296 
L 2437.697386 2054.985296 
z
" clip-path="url(#p0705b27d6d)" style="fill: #ffa500; fill-opacity: 0.5; stroke: #ffffff; stroke-linejoin: miter"/>
   </g>
   <g id="patch_73">
    <path d="M 2468.899568 2080.894375 
L 2500.10175 2080.894375 
L 2500.10175 2080.894375 
L 2468.899568 2080.894375 
z
" clip-path="url(#p0705b27d6d)" style="fill: #ffa500; fill-opacity: 0.5; stroke: #ffffff; stroke-linejoin: miter"/>
   </g>
   <g id="patch_74">
    <path d="M 2500.10175 2080.894375 
L 2531.303932 2080.894375 
L 2531.303932 2054.985296 
L 2500.10175 2054.985296 
z
" clip-path="url(#p0705b27d6d)" style="fill: #ffa500; fill-opacity: 0.5; stroke: #ffffff; stroke-linejoin: miter"/>
   </g>
   <g id="patch_75">
    <path d="M 2531.303932 2080.894375 
L 2562.506114 2080.894375 
L 2562.506114 2080.894375 
L 2531.303932 2080.894375 
z
" clip-path="url(#p0705b27d6d)" style="fill: #ffa500; fill-opacity: 0.5; stroke: #ffffff; stroke-linejoin: miter"/>
   </g>
   <g id="patch_76">
    <path d="M 2562.506114 2080.894375 
L 2593.708295 2080.894375 
L 2593.708295 2080.894375 
L 2562.506114 2080.894375 
z
" clip-path="url(#p0705b27d6d)" style="fill: #ffa500; fill-opacity: 0.5; stroke: #ffffff; stroke-linejoin: miter"/>
   </g>
   <g id="patch_77">
    <path d="M 2593.708295 2080.894375 
L 2624.910477 2080.894375 
L 2624.910477 2054.985296 
L 2593.708295 2054.985296 
z
" clip-path="url(#p0705b27d6d)" style="fill: #ffa500; fill-opacity: 0.5; stroke: #ffffff; stroke-linejoin: miter"/>
   </g>
   <g id="patch_78">
    <path d="M 2624.910477 2080.894375 
L 2656.112659 2080.894375 
L 2656.112659 2054.985296 
L 2624.910477 2054.985296 
z
" clip-path="url(#p0705b27d6d)" style="fill: #ffa500; fill-opacity: 0.5; stroke: #ffffff; stroke-linejoin: miter"/>
   </g>
   <g id="patch_79">
    <path d="M 2656.112659 2080.894375 
L 2687.314841 2080.894375 
L 2687.314841 2029.076216 
L 2656.112659 2029.076216 
z
" clip-path="url(#p0705b27d6d)" style="fill: #ffa500; fill-opacity: 0.5; stroke: #ffffff; stroke-linejoin: miter"/>
   </g>
   <g id="patch_80">
    <path d="M 2687.314841 2080.894375 
L 2718.517023 2080.894375 
L 2718.517023 2029.076216 
L 2687.314841 2029.076216 
z
" clip-path="url(#p0705b27d6d)" style="fill: #ffa500; fill-opacity: 0.5; stroke: #ffffff; stroke-linejoin: miter"/>
   </g>
   <g id="patch_81">
    <path d="M 2718.517023 2080.894375 
L 2749.719205 2080.894375 
L 2749.719205 2080.894375 
L 2718.517023 2080.894375 
z
" clip-path="url(#p0705b27d6d)" style="fill: #ffa500; fill-opacity: 0.5; stroke: #ffffff; stroke-linejoin: miter"/>
   </g>
   <g id="patch_82">
    <path d="M 2749.719205 2080.894375 
L 2780.921386 2080.894375 
L 2780.921386 2054.985296 
L 2749.719205 2054.985296 
z
" clip-path="url(#p0705b27d6d)" style="fill: #ffa500; fill-opacity: 0.5; stroke: #ffffff; stroke-linejoin: miter"/>
   </g>
   <g id="patch_83">
    <path d="M 2780.921386 2080.894375 
L 2812.123568 2080.894375 
L 2812.123568 2080.894375 
L 2780.921386 2080.894375 
z
" clip-path="url(#p0705b27d6d)" style="fill: #ffa500; fill-opacity: 0.5; stroke: #ffffff; stroke-linejoin: miter"/>
   </g>
   <g id="patch_84">
    <path d="M 2812.123568 2080.894375 
L 2843.32575 2080.894375 
L 2843.32575 2080.894375 
L 2812.123568 2080.894375 
z
" clip-path="url(#p0705b27d6d)" style="fill: #ffa500; fill-opacity: 0.5; stroke: #ffffff; stroke-linejoin: miter"/>
   </g>
   <g id="patch_85">
    <path d="M 2843.32575 2080.894375 
L 2874.527932 2080.894375 
L 2874.527932 2080.894375 
L 2843.32575 2080.894375 
z
" clip-path="url(#p0705b27d6d)" style="fill: #ffa500; fill-opacity: 0.5; stroke: #ffffff; stroke-linejoin: miter"/>
   </g>
   <g id="patch_86">
    <path d="M 2874.527932 2080.894375 
L 2905.730114 2080.894375 
L 2905.730114 2080.894375 
L 2874.527932 2080.894375 
z
" clip-path="url(#p0705b27d6d)" style="fill: #ffa500; fill-opacity: 0.5; stroke: #ffffff; stroke-linejoin: miter"/>
   </g>
   <g id="patch_87">
    <path d="M 2905.730114 2080.894375 
L 2936.932295 2080.894375 
L 2936.932295 2080.894375 
L 2905.730114 2080.894375 
z
" clip-path="url(#p0705b27d6d)" style="fill: #ffa500; fill-opacity: 0.5; stroke: #ffffff; stroke-linejoin: miter"/>
   </g>
   <g id="patch_88">
    <path d="M 2936.932295 2080.894375 
L 2968.134477 2080.894375 
L 2968.134477 2080.894375 
L 2936.932295 2080.894375 
z
" clip-path="url(#p0705b27d6d)" style="fill: #ffa500; fill-opacity: 0.5; stroke: #ffffff; stroke-linejoin: miter"/>
   </g>
   <g id="patch_89">
    <path d="M 2968.134477 2080.894375 
L 2999.336659 2080.894375 
L 2999.336659 2080.894375 
L 2968.134477 2080.894375 
z
" clip-path="url(#p0705b27d6d)" style="fill: #ffa500; fill-opacity: 0.5; stroke: #ffffff; stroke-linejoin: miter"/>
   </g>
   <g id="patch_90">
    <path d="M 2999.336659 2080.894375 
L 3030.538841 2080.894375 
L 3030.538841 2080.894375 
L 2999.336659 2080.894375 
z
" clip-path="url(#p0705b27d6d)" style="fill: #ffa500; fill-opacity: 0.5; stroke: #ffffff; stroke-linejoin: miter"/>
   </g>
   <g id="patch_91">
    <path d="M 3030.538841 2080.894375 
L 3061.741023 2080.894375 
L 3061.741023 2029.076216 
L 3030.538841 2029.076216 
z
" clip-path="url(#p0705b27d6d)" style="fill: #ffa500; fill-opacity: 0.5; stroke: #ffffff; stroke-linejoin: miter"/>
   </g>
   <g id="patch_92">
    <path d="M 3061.741023 2080.894375 
L 3092.943205 2080.894375 
L 3092.943205 2080.894375 
L 3061.741023 2080.894375 
z
" clip-path="url(#p0705b27d6d)" style="fill: #ffa500; fill-opacity: 0.5; stroke: #ffffff; stroke-linejoin: miter"/>
   </g>
   <g id="patch_93">
    <path d="M 3092.943205 2080.894375 
L 3124.145386 2080.894375 
L 3124.145386 2080.894375 
L 3092.943205 2080.894375 
z
" clip-path="url(#p0705b27d6d)" style="fill: #ffa500; fill-opacity: 0.5; stroke: #ffffff; stroke-linejoin: miter"/>
   </g>
   <g id="patch_94">
    <path d="M 3124.145386 2080.894375 
L 3155.347568 2080.894375 
L 3155.347568 2080.894375 
L 3124.145386 2080.894375 
z
" clip-path="url(#p0705b27d6d)" style="fill: #ffa500; fill-opacity: 0.5; stroke: #ffffff; stroke-linejoin: miter"/>
   </g>
   <g id="patch_95">
    <path d="M 3155.347568 2080.894375 
L 3186.54975 2080.894375 
L 3186.54975 2080.894375 
L 3155.347568 2080.894375 
z
" clip-path="url(#p0705b27d6d)" style="fill: #ffa500; fill-opacity: 0.5; stroke: #ffffff; stroke-linejoin: miter"/>
   </g>
   <g id="patch_96">
    <path d="M 3186.54975 2080.894375 
L 3217.751932 2080.894375 
L 3217.751932 2080.894375 
L 3186.54975 2080.894375 
z
" clip-path="url(#p0705b27d6d)" style="fill: #ffa500; fill-opacity: 0.5; stroke: #ffffff; stroke-linejoin: miter"/>
   </g>
   <g id="patch_97">
    <path d="M 3217.751932 2080.894375 
L 3248.954114 2080.894375 
L 3248.954114 2080.894375 
L 3217.751932 2080.894375 
z
" clip-path="url(#p0705b27d6d)" style="fill: #ffa500; fill-opacity: 0.5; stroke: #ffffff; stroke-linejoin: miter"/>
   </g>
   <g id="patch_98">
    <path d="M 3248.954114 2080.894375 
L 3280.156295 2080.894375 
L 3280.156295 2080.894375 
L 3248.954114 2080.894375 
z
" clip-path="url(#p0705b27d6d)" style="fill: #ffa500; fill-opacity: 0.5; stroke: #ffffff; stroke-linejoin: miter"/>
   </g>
   <g id="patch_99">
    <path d="M 3280.156295 2080.894375 
L 3311.358477 2080.894375 
L 3311.358477 2080.894375 
L 3280.156295 2080.894375 
z
" clip-path="url(#p0705b27d6d)" style="fill: #ffa500; fill-opacity: 0.5; stroke: #ffffff; stroke-linejoin: miter"/>
   </g>
   <g id="patch_100">
    <path d="M 3311.358477 2080.894375 
L 3342.560659 2080.894375 
L 3342.560659 2080.894375 
L 3311.358477 2080.894375 
z
" clip-path="url(#p0705b27d6d)" style="fill: #ffa500; fill-opacity: 0.5; stroke: #ffffff; stroke-linejoin: miter"/>
   </g>
   <g id="patch_101">
    <path d="M 3342.560659 2080.894375 
L 3373.762841 2080.894375 
L 3373.762841 2080.894375 
L 3342.560659 2080.894375 
z
" clip-path="url(#p0705b27d6d)" style="fill: #ffa500; fill-opacity: 0.5; stroke: #ffffff; stroke-linejoin: miter"/>
   </g>
   <g id="patch_102">
    <path d="M 284.746841 2080.894375 
L 315.949023 2080.894375 
L 315.949023 1329.531073 
L 284.746841 1329.531073 
z
" clip-path="url(#p0705b27d6d)" style="fill: #0000ff; fill-opacity: 0.5; stroke: #ffffff; stroke-linejoin: miter"/>
   </g>
   <g id="patch_103">
    <path d="M 315.949023 2080.894375 
L 347.151205 2080.894375 
L 347.151205 396.804216 
L 315.949023 396.804216 
z
" clip-path="url(#p0705b27d6d)" style="fill: #0000ff; fill-opacity: 0.5; stroke: #ffffff; stroke-linejoin: miter"/>
   </g>
   <g id="patch_104">
    <path d="M 347.151205 2080.894375 
L 378.353386 2080.894375 
L 378.353386 137.713423 
L 347.151205 137.713423 
z
" clip-path="url(#p0705b27d6d)" style="fill: #0000ff; fill-opacity: 0.5; stroke: #ffffff; stroke-linejoin: miter"/>
   </g>
   <g id="patch_105">
    <path d="M 378.353386 2080.894375 
L 409.555568 2080.894375 
L 409.555568 992.713042 
L 378.353386 992.713042 
z
" clip-path="url(#p0705b27d6d)" style="fill: #0000ff; fill-opacity: 0.5; stroke: #ffffff; stroke-linejoin: miter"/>
   </g>
   <g id="patch_106">
    <path d="M 409.555568 2080.894375 
L 440.75775 2080.894375 
L 440.75775 1640.440026 
L 409.555568 1640.440026 
z
" clip-path="url(#p0705b27d6d)" style="fill: #0000ff; fill-opacity: 0.5; stroke: #ffffff; stroke-linejoin: miter"/>
   </g>
   <g id="patch_107">
    <path d="M 440.75775 2080.894375 
L 471.959932 2080.894375 
L 471.959932 1977.258058 
L 440.75775 1977.258058 
z
" clip-path="url(#p0705b27d6d)" style="fill: #0000ff; fill-opacity: 0.5; stroke: #ffffff; stroke-linejoin: miter"/>
   </g>
   <g id="patch_108">
    <path d="M 471.959932 2080.894375 
L 503.162114 2080.894375 
L 503.162114 1951.348978 
L 471.959932 1951.348978 
z
" clip-path="url(#p0705b27d6d)" style="fill: #0000ff; fill-opacity: 0.5; stroke: #ffffff; stroke-linejoin: miter"/>
   </g>
   <g id="patch_109">
    <path d="M 503.162114 2080.894375 
L 534.364295 2080.894375 
L 534.364295 1640.440026 
L 503.162114 1640.440026 
z
" clip-path="url(#p0705b27d6d)" style="fill: #0000ff; fill-opacity: 0.5; stroke: #ffffff; stroke-linejoin: miter"/>
   </g>
   <g id="patch_110">
    <path d="M 534.364295 2080.894375 
L 565.566477 2080.894375 
L 565.566477 1536.803708 
L 534.364295 1536.803708 
z
" clip-path="url(#p0705b27d6d)" style="fill: #0000ff; fill-opacity: 0.5; stroke: #ffffff; stroke-linejoin: miter"/>
   </g>
   <g id="patch_111">
    <path d="M 565.566477 2080.894375 
L 596.768659 2080.894375 
L 596.768659 1407.258312 
L 565.566477 1407.258312 
z
" clip-path="url(#p0705b27d6d)" style="fill: #0000ff; fill-opacity: 0.5; stroke: #ffffff; stroke-linejoin: miter"/>
   </g>
   <g id="patch_112">
    <path d="M 596.768659 2080.894375 
L 627.970841 2080.894375 
L 627.970841 1744.076343 
L 596.768659 1744.076343 
z
" clip-path="url(#p0705b27d6d)" style="fill: #0000ff; fill-opacity: 0.5; stroke: #ffffff; stroke-linejoin: miter"/>
   </g>
   <g id="patch_113">
    <path d="M 627.970841 2080.894375 
L 659.173023 2080.894375 
L 659.173023 1718.167264 
L 627.970841 1718.167264 
z
" clip-path="url(#p0705b27d6d)" style="fill: #0000ff; fill-opacity: 0.5; stroke: #ffffff; stroke-linejoin: miter"/>
   </g>
   <g id="patch_114">
    <path d="M 659.173023 2080.894375 
L 690.375205 2080.894375 
L 690.375205 1899.530819 
L 659.173023 1899.530819 
z
" clip-path="url(#p0705b27d6d)" style="fill: #0000ff; fill-opacity: 0.5; stroke: #ffffff; stroke-linejoin: miter"/>
   </g>
   <g id="patch_115">
    <path d="M 690.375205 2080.894375 
L 721.577386 2080.894375 
L 721.577386 1899.530819 
L 690.375205 1899.530819 
z
" clip-path="url(#p0705b27d6d)" style="fill: #0000ff; fill-opacity: 0.5; stroke: #ffffff; stroke-linejoin: miter"/>
   </g>
   <g id="patch_116">
    <path d="M 721.577386 2080.894375 
L 752.779568 2080.894375 
L 752.779568 1562.712788 
L 721.577386 1562.712788 
z
" clip-path="url(#p0705b27d6d)" style="fill: #0000ff; fill-opacity: 0.5; stroke: #ffffff; stroke-linejoin: miter"/>
   </g>
   <g id="patch_117">
    <path d="M 752.779568 2080.894375 
L 783.98175 2080.894375 
L 783.98175 1484.98555 
L 752.779568 1484.98555 
z
" clip-path="url(#p0705b27d6d)" style="fill: #0000ff; fill-opacity: 0.5; stroke: #ffffff; stroke-linejoin: miter"/>
   </g>
   <g id="patch_118">
    <path d="M 783.98175 2080.894375 
L 815.183932 2080.894375 
L 815.183932 1510.894629 
L 783.98175 1510.894629 
z
" clip-path="url(#p0705b27d6d)" style="fill: #0000ff; fill-opacity: 0.5; stroke: #ffffff; stroke-linejoin: miter"/>
   </g>
   <g id="patch_119">
    <path d="M 815.183932 2080.894375 
L 846.386114 2080.894375 
L 846.386114 1381.349232 
L 815.183932 1381.349232 
z
" clip-path="url(#p0705b27d6d)" style="fill: #0000ff; fill-opacity: 0.5; stroke: #ffffff; stroke-linejoin: miter"/>
   </g>
   <g id="patch_120">
    <path d="M 846.386114 2080.894375 
L 877.588295 2080.894375 
L 877.588295 1847.712661 
L 846.386114 1847.712661 
z
" clip-path="url(#p0705b27d6d)" style="fill: #0000ff; fill-opacity: 0.5; stroke: #ffffff; stroke-linejoin: miter"/>
   </g>
   <g id="patch_121">
    <path d="M 877.588295 2080.894375 
L 908.790477 2080.894375 
L 908.790477 1666.349105 
L 877.588295 1666.349105 
z
" clip-path="url(#p0705b27d6d)" style="fill: #0000ff; fill-opacity: 0.5; stroke: #ffffff; stroke-linejoin: miter"/>
   </g>
   <g id="patch_122">
    <path d="M 908.790477 2080.894375 
L 939.992659 2080.894375 
L 939.992659 1588.621867 
L 908.790477 1588.621867 
z
" clip-path="url(#p0705b27d6d)" style="fill: #0000ff; fill-opacity: 0.5; stroke: #ffffff; stroke-linejoin: miter"/>
   </g>
   <g id="patch_123">
    <path d="M 939.992659 2080.894375 
L 971.194841 2080.894375 
L 971.194841 1614.530946 
L 939.992659 1614.530946 
z
" clip-path="url(#p0705b27d6d)" style="fill: #0000ff; fill-opacity: 0.5; stroke: #ffffff; stroke-linejoin: miter"/>
   </g>
   <g id="patch_124">
    <path d="M 971.194841 2080.894375 
L 1002.397023 2080.894375 
L 1002.397023 1847.712661 
L 971.194841 1847.712661 
z
" clip-path="url(#p0705b27d6d)" style="fill: #0000ff; fill-opacity: 0.5; stroke: #ffffff; stroke-linejoin: miter"/>
   </g>
   <g id="patch_125">
    <path d="M 1002.397023 2080.894375 
L 1033.599205 2080.894375 
L 1033.599205 1510.894629 
L 1002.397023 1510.894629 
z
" clip-path="url(#p0705b27d6d)" style="fill: #0000ff; fill-opacity: 0.5; stroke: #ffffff; stroke-linejoin: miter"/>
   </g>
   <g id="patch_126">
    <path d="M 1033.599205 2080.894375 
L 1064.801386 2080.894375 
L 1064.801386 1614.530946 
L 1033.599205 1614.530946 
z
" clip-path="url(#p0705b27d6d)" style="fill: #0000ff; fill-opacity: 0.5; stroke: #ffffff; stroke-linejoin: miter"/>
   </g>
   <g id="patch_127">
    <path d="M 1064.801386 2080.894375 
L 1096.003568 2080.894375 
L 1096.003568 1744.076343 
L 1064.801386 1744.076343 
z
" clip-path="url(#p0705b27d6d)" style="fill: #0000ff; fill-opacity: 0.5; stroke: #ffffff; stroke-linejoin: miter"/>
   </g>
   <g id="patch_128">
    <path d="M 1096.003568 2080.894375 
L 1127.20575 2080.894375 
L 1127.20575 1977.258058 
L 1096.003568 1977.258058 
z
" clip-path="url(#p0705b27d6d)" style="fill: #0000ff; fill-opacity: 0.5; stroke: #ffffff; stroke-linejoin: miter"/>
   </g>
   <g id="patch_129">
    <path d="M 1127.20575 2080.894375 
L 1158.407932 2080.894375 
L 1158.407932 1588.621867 
L 1127.20575 1588.621867 
z
" clip-path="url(#p0705b27d6d)" style="fill: #0000ff; fill-opacity: 0.5; stroke: #ffffff; stroke-linejoin: miter"/>
   </g>
   <g id="patch_130">
    <path d="M 1158.407932 2080.894375 
L 1189.610114 2080.894375 
L 1189.610114 1510.894629 
L 1158.407932 1510.894629 
z
" clip-path="url(#p0705b27d6d)" style="fill: #0000ff; fill-opacity: 0.5; stroke: #ffffff; stroke-linejoin: miter"/>
   </g>
   <g id="patch_131">
    <path d="M 1189.610114 2080.894375 
L 1220.812295 2080.894375 
L 1220.812295 1536.803708 
L 1189.610114 1536.803708 
z
" clip-path="url(#p0705b27d6d)" style="fill: #0000ff; fill-opacity: 0.5; stroke: #ffffff; stroke-linejoin: miter"/>
   </g>
   <g id="patch_132">
    <path d="M 1220.812295 2080.894375 
L 1252.014477 2080.894375 
L 1252.014477 1329.531073 
L 1220.812295 1329.531073 
z
" clip-path="url(#p0705b27d6d)" style="fill: #0000ff; fill-opacity: 0.5; stroke: #ffffff; stroke-linejoin: miter"/>
   </g>
   <g id="patch_133">
    <path d="M 1252.014477 2080.894375 
L 1283.216659 2080.894375 
L 1283.216659 1795.894502 
L 1252.014477 1795.894502 
z
" clip-path="url(#p0705b27d6d)" style="fill: #0000ff; fill-opacity: 0.5; stroke: #ffffff; stroke-linejoin: miter"/>
   </g>
   <g id="patch_134">
    <path d="M 1283.216659 2080.894375 
L 1314.418841 2080.894375 
L 1314.418841 2029.076216 
L 1283.216659 2029.076216 
z
" clip-path="url(#p0705b27d6d)" style="fill: #0000ff; fill-opacity: 0.5; stroke: #ffffff; stroke-linejoin: miter"/>
   </g>
   <g id="patch_135">
    <path d="M 1314.418841 2080.894375 
L 1345.621023 2080.894375 
L 1345.621023 1795.894502 
L 1314.418841 1795.894502 
z
" clip-path="url(#p0705b27d6d)" style="fill: #0000ff; fill-opacity: 0.5; stroke: #ffffff; stroke-linejoin: miter"/>
   </g>
   <g id="patch_136">
    <path d="M 1345.621023 2080.894375 
L 1376.823205 2080.894375 
L 1376.823205 1459.07647 
L 1345.621023 1459.07647 
z
" clip-path="url(#p0705b27d6d)" style="fill: #0000ff; fill-opacity: 0.5; stroke: #ffffff; stroke-linejoin: miter"/>
   </g>
   <g id="patch_137">
    <path d="M 1376.823205 2080.894375 
L 1408.025386 2080.894375 
L 1408.025386 1692.258185 
L 1376.823205 1692.258185 
z
" clip-path="url(#p0705b27d6d)" style="fill: #0000ff; fill-opacity: 0.5; stroke: #ffffff; stroke-linejoin: miter"/>
   </g>
   <g id="patch_138">
    <path d="M 1408.025386 2080.894375 
L 1439.227568 2080.894375 
L 1439.227568 1562.712788 
L 1408.025386 1562.712788 
z
" clip-path="url(#p0705b27d6d)" style="fill: #0000ff; fill-opacity: 0.5; stroke: #ffffff; stroke-linejoin: miter"/>
   </g>
   <g id="patch_139">
    <path d="M 1439.227568 2080.894375 
L 1470.42975 2080.894375 
L 1470.42975 1640.440026 
L 1439.227568 1640.440026 
z
" clip-path="url(#p0705b27d6d)" style="fill: #0000ff; fill-opacity: 0.5; stroke: #ffffff; stroke-linejoin: miter"/>
   </g>
   <g id="patch_140">
    <path d="M 1470.42975 2080.894375 
L 1501.631932 2080.894375 
L 1501.631932 1769.985423 
L 1470.42975 1769.985423 
z
" clip-path="url(#p0705b27d6d)" style="fill: #0000ff; fill-opacity: 0.5; stroke: #ffffff; stroke-linejoin: miter"/>
   </g>
   <g id="patch_141">
    <path d="M 1501.631932 2080.894375 
L 1532.834114 2080.894375 
L 1532.834114 1640.440026 
L 1501.631932 1640.440026 
z
" clip-path="url(#p0705b27d6d)" style="fill: #0000ff; fill-opacity: 0.5; stroke: #ffffff; stroke-linejoin: miter"/>
   </g>
   <g id="patch_142">
    <path d="M 1532.834114 2080.894375 
L 1564.036295 2080.894375 
L 1564.036295 1744.076343 
L 1532.834114 1744.076343 
z
" clip-path="url(#p0705b27d6d)" style="fill: #0000ff; fill-opacity: 0.5; stroke: #ffffff; stroke-linejoin: miter"/>
   </g>
   <g id="patch_143">
    <path d="M 1564.036295 2080.894375 
L 1595.238477 2080.894375 
L 1595.238477 1769.985423 
L 1564.036295 1769.985423 
z
" clip-path="url(#p0705b27d6d)" style="fill: #0000ff; fill-opacity: 0.5; stroke: #ffffff; stroke-linejoin: miter"/>
   </g>
   <g id="patch_144">
    <path d="M 1595.238477 2080.894375 
L 1626.440659 2080.894375 
L 1626.440659 1977.258058 
L 1595.238477 1977.258058 
z
" clip-path="url(#p0705b27d6d)" style="fill: #0000ff; fill-opacity: 0.5; stroke: #ffffff; stroke-linejoin: miter"/>
   </g>
   <g id="patch_145">
    <path d="M 1626.440659 2080.894375 
L 1657.642841 2080.894375 
L 1657.642841 1769.985423 
L 1626.440659 1769.985423 
z
" clip-path="url(#p0705b27d6d)" style="fill: #0000ff; fill-opacity: 0.5; stroke: #ffffff; stroke-linejoin: miter"/>
   </g>
   <g id="patch_146">
    <path d="M 1657.642841 2080.894375 
L 1688.845023 2080.894375 
L 1688.845023 1847.712661 
L 1657.642841 1847.712661 
z
" clip-path="url(#p0705b27d6d)" style="fill: #0000ff; fill-opacity: 0.5; stroke: #ffffff; stroke-linejoin: miter"/>
   </g>
   <g id="patch_147">
    <path d="M 1688.845023 2080.894375 
L 1720.047205 2080.894375 
L 1720.047205 1718.167264 
L 1688.845023 1718.167264 
z
" clip-path="url(#p0705b27d6d)" style="fill: #0000ff; fill-opacity: 0.5; stroke: #ffffff; stroke-linejoin: miter"/>
   </g>
   <g id="patch_148">
    <path d="M 1720.047205 2080.894375 
L 1751.249386 2080.894375 
L 1751.249386 2029.076216 
L 1720.047205 2029.076216 
z
" clip-path="url(#p0705b27d6d)" style="fill: #0000ff; fill-opacity: 0.5; stroke: #ffffff; stroke-linejoin: miter"/>
   </g>
   <g id="patch_149">
    <path d="M 1751.249386 2080.894375 
L 1782.451568 2080.894375 
L 1782.451568 1718.167264 
L 1751.249386 1718.167264 
z
" clip-path="url(#p0705b27d6d)" style="fill: #0000ff; fill-opacity: 0.5; stroke: #ffffff; stroke-linejoin: miter"/>
   </g>
   <g id="patch_150">
    <path d="M 1782.451568 2080.894375 
L 1813.65375 2080.894375 
L 1813.65375 1847.712661 
L 1782.451568 1847.712661 
z
" clip-path="url(#p0705b27d6d)" style="fill: #0000ff; fill-opacity: 0.5; stroke: #ffffff; stroke-linejoin: miter"/>
   </g>
   <g id="patch_151">
    <path d="M 1813.65375 2080.894375 
L 1844.855932 2080.894375 
L 1844.855932 1847.712661 
L 1813.65375 1847.712661 
z
" clip-path="url(#p0705b27d6d)" style="fill: #0000ff; fill-opacity: 0.5; stroke: #ffffff; stroke-linejoin: miter"/>
   </g>
   <g id="patch_152">
    <path d="M 1844.855932 2080.894375 
L 1876.058114 2080.894375 
L 1876.058114 1873.62174 
L 1844.855932 1873.62174 
z
" clip-path="url(#p0705b27d6d)" style="fill: #0000ff; fill-opacity: 0.5; stroke: #ffffff; stroke-linejoin: miter"/>
   </g>
   <g id="patch_153">
    <path d="M 1876.058114 2080.894375 
L 1907.260295 2080.894375 
L 1907.260295 1925.439899 
L 1876.058114 1925.439899 
z
" clip-path="url(#p0705b27d6d)" style="fill: #0000ff; fill-opacity: 0.5; stroke: #ffffff; stroke-linejoin: miter"/>
   </g>
   <g id="patch_154">
    <path d="M 1907.260295 2080.894375 
L 1938.462477 2080.894375 
L 1938.462477 1951.348978 
L 1907.260295 1951.348978 
z
" clip-path="url(#p0705b27d6d)" style="fill: #0000ff; fill-opacity: 0.5; stroke: #ffffff; stroke-linejoin: miter"/>
   </g>
   <g id="patch_155">
    <path d="M 1938.462477 2080.894375 
L 1969.664659 2080.894375 
L 1969.664659 1821.803581 
L 1938.462477 1821.803581 
z
" clip-path="url(#p0705b27d6d)" style="fill: #0000ff; fill-opacity: 0.5; stroke: #ffffff; stroke-linejoin: miter"/>
   </g>
   <g id="patch_156">
    <path d="M 1969.664659 2080.894375 
L 2000.866841 2080.894375 
L 2000.866841 1821.803581 
L 1969.664659 1821.803581 
z
" clip-path="url(#p0705b27d6d)" style="fill: #0000ff; fill-opacity: 0.5; stroke: #ffffff; stroke-linejoin: miter"/>
   </g>
   <g id="patch_157">
    <path d="M 2000.866841 2080.894375 
L 2032.069023 2080.894375 
L 2032.069023 1769.985423 
L 2000.866841 1769.985423 
z
" clip-path="url(#p0705b27d6d)" style="fill: #0000ff; fill-opacity: 0.5; stroke: #ffffff; stroke-linejoin: miter"/>
   </g>
   <g id="patch_158">
    <path d="M 2032.069023 2080.894375 
L 2063.271205 2080.894375 
L 2063.271205 2003.167137 
L 2032.069023 2003.167137 
z
" clip-path="url(#p0705b27d6d)" style="fill: #0000ff; fill-opacity: 0.5; stroke: #ffffff; stroke-linejoin: miter"/>
   </g>
   <g id="patch_159">
    <path d="M 2063.271205 2080.894375 
L 2094.473386 2080.894375 
L 2094.473386 1873.62174 
L 2063.271205 1873.62174 
z
" clip-path="url(#p0705b27d6d)" style="fill: #0000ff; fill-opacity: 0.5; stroke: #ffffff; stroke-linejoin: miter"/>
   </g>
   <g id="patch_160">
    <path d="M 2094.473386 2080.894375 
L 2125.675568 2080.894375 
L 2125.675568 1925.439899 
L 2094.473386 1925.439899 
z
" clip-path="url(#p0705b27d6d)" style="fill: #0000ff; fill-opacity: 0.5; stroke: #ffffff; stroke-linejoin: miter"/>
   </g>
   <g id="patch_161">
    <path d="M 2125.675568 2080.894375 
L 2156.87775 2080.894375 
L 2156.87775 2029.076216 
L 2125.675568 2029.076216 
z
" clip-path="url(#p0705b27d6d)" style="fill: #0000ff; fill-opacity: 0.5; stroke: #ffffff; stroke-linejoin: miter"/>
   </g>
   <g id="patch_162">
    <path d="M 2156.87775 2080.894375 
L 2188.079932 2080.894375 
L 2188.079932 2080.894375 
L 2156.87775 2080.894375 
z
" clip-path="url(#p0705b27d6d)" style="fill: #0000ff; fill-opacity: 0.5; stroke: #ffffff; stroke-linejoin: miter"/>
   </g>
   <g id="patch_163">
    <path d="M 2188.079932 2080.894375 
L 2219.282114 2080.894375 
L 2219.282114 2054.985296 
L 2188.079932 2054.985296 
z
" clip-path="url(#p0705b27d6d)" style="fill: #0000ff; fill-opacity: 0.5; stroke: #ffffff; stroke-linejoin: miter"/>
   </g>
   <g id="patch_164">
    <path d="M 2219.282114 2080.894375 
L 2250.484295 2080.894375 
L 2250.484295 2080.894375 
L 2219.282114 2080.894375 
z
" clip-path="url(#p0705b27d6d)" style="fill: #0000ff; fill-opacity: 0.5; stroke: #ffffff; stroke-linejoin: miter"/>
   </g>
   <g id="patch_165">
    <path d="M 2250.484295 2080.894375 
L 2281.686477 2080.894375 
L 2281.686477 2054.985296 
L 2250.484295 2054.985296 
z
" clip-path="url(#p0705b27d6d)" style="fill: #0000ff; fill-opacity: 0.5; stroke: #ffffff; stroke-linejoin: miter"/>
   </g>
   <g id="patch_166">
    <path d="M 2281.686477 2080.894375 
L 2312.888659 2080.894375 
L 2312.888659 2080.894375 
L 2281.686477 2080.894375 
z
" clip-path="url(#p0705b27d6d)" style="fill: #0000ff; fill-opacity: 0.5; stroke: #ffffff; stroke-linejoin: miter"/>
   </g>
   <g id="patch_167">
    <path d="M 2312.888659 2080.894375 
L 2344.090841 2080.894375 
L 2344.090841 2080.894375 
L 2312.888659 2080.894375 
z
" clip-path="url(#p0705b27d6d)" style="fill: #0000ff; fill-opacity: 0.5; stroke: #ffffff; stroke-linejoin: miter"/>
   </g>
   <g id="patch_168">
    <path d="M 2344.090841 2080.894375 
L 2375.293023 2080.894375 
L 2375.293023 2029.076216 
L 2344.090841 2029.076216 
z
" clip-path="url(#p0705b27d6d)" style="fill: #0000ff; fill-opacity: 0.5; stroke: #ffffff; stroke-linejoin: miter"/>
   </g>
   <g id="patch_169">
    <path d="M 2375.293023 2080.894375 
L 2406.495205 2080.894375 
L 2406.495205 2080.894375 
L 2375.293023 2080.894375 
z
" clip-path="url(#p0705b27d6d)" style="fill: #0000ff; fill-opacity: 0.5; stroke: #ffffff; stroke-linejoin: miter"/>
   </g>
   <g id="patch_170">
    <path d="M 2406.495205 2080.894375 
L 2437.697386 2080.894375 
L 2437.697386 2080.894375 
L 2406.495205 2080.894375 
z
" clip-path="url(#p0705b27d6d)" style="fill: #0000ff; fill-opacity: 0.5; stroke: #ffffff; stroke-linejoin: miter"/>
   </g>
   <g id="patch_171">
    <path d="M 2437.697386 2080.894375 
L 2468.899568 2080.894375 
L 2468.899568 2080.894375 
L 2437.697386 2080.894375 
z
" clip-path="url(#p0705b27d6d)" style="fill: #0000ff; fill-opacity: 0.5; stroke: #ffffff; stroke-linejoin: miter"/>
   </g>
   <g id="patch_172">
    <path d="M 2468.899568 2080.894375 
L 2500.10175 2080.894375 
L 2500.10175 2080.894375 
L 2468.899568 2080.894375 
z
" clip-path="url(#p0705b27d6d)" style="fill: #0000ff; fill-opacity: 0.5; stroke: #ffffff; stroke-linejoin: miter"/>
   </g>
   <g id="patch_173">
    <path d="M 2500.10175 2080.894375 
L 2531.303932 2080.894375 
L 2531.303932 2080.894375 
L 2500.10175 2080.894375 
z
" clip-path="url(#p0705b27d6d)" style="fill: #0000ff; fill-opacity: 0.5; stroke: #ffffff; stroke-linejoin: miter"/>
   </g>
   <g id="patch_174">
    <path d="M 2531.303932 2080.894375 
L 2562.506114 2080.894375 
L 2562.506114 2080.894375 
L 2531.303932 2080.894375 
z
" clip-path="url(#p0705b27d6d)" style="fill: #0000ff; fill-opacity: 0.5; stroke: #ffffff; stroke-linejoin: miter"/>
   </g>
   <g id="patch_175">
    <path d="M 2562.506114 2080.894375 
L 2593.708295 2080.894375 
L 2593.708295 2080.894375 
L 2562.506114 2080.894375 
z
" clip-path="url(#p0705b27d6d)" style="fill: #0000ff; fill-opacity: 0.5; stroke: #ffffff; stroke-linejoin: miter"/>
   </g>
   <g id="patch_176">
    <path d="M 2593.708295 2080.894375 
L 2624.910477 2080.894375 
L 2624.910477 2054.985296 
L 2593.708295 2054.985296 
z
" clip-path="url(#p0705b27d6d)" style="fill: #0000ff; fill-opacity: 0.5; stroke: #ffffff; stroke-linejoin: miter"/>
   </g>
   <g id="patch_177">
    <path d="M 2624.910477 2080.894375 
L 2656.112659 2080.894375 
L 2656.112659 2054.985296 
L 2624.910477 2054.985296 
z
" clip-path="url(#p0705b27d6d)" style="fill: #0000ff; fill-opacity: 0.5; stroke: #ffffff; stroke-linejoin: miter"/>
   </g>
   <g id="patch_178">
    <path d="M 2656.112659 2080.894375 
L 2687.314841 2080.894375 
L 2687.314841 2080.894375 
L 2656.112659 2080.894375 
z
" clip-path="url(#p0705b27d6d)" style="fill: #0000ff; fill-opacity: 0.5; stroke: #ffffff; stroke-linejoin: miter"/>
   </g>
   <g id="patch_179">
    <path d="M 2687.314841 2080.894375 
L 2718.517023 2080.894375 
L 2718.517023 2029.076216 
L 2687.314841 2029.076216 
z
" clip-path="url(#p0705b27d6d)" style="fill: #0000ff; fill-opacity: 0.5; stroke: #ffffff; stroke-linejoin: miter"/>
   </g>
   <g id="patch_180">
    <path d="M 2718.517023 2080.894375 
L 2749.719205 2080.894375 
L 2749.719205 2080.894375 
L 2718.517023 2080.894375 
z
" clip-path="url(#p0705b27d6d)" style="fill: #0000ff; fill-opacity: 0.5; stroke: #ffffff; stroke-linejoin: miter"/>
   </g>
   <g id="patch_181">
    <path d="M 2749.719205 2080.894375 
L 2780.921386 2080.894375 
L 2780.921386 2054.985296 
L 2749.719205 2054.985296 
z
" clip-path="url(#p0705b27d6d)" style="fill: #0000ff; fill-opacity: 0.5; stroke: #ffffff; stroke-linejoin: miter"/>
   </g>
   <g id="patch_182">
    <path d="M 2780.921386 2080.894375 
L 2812.123568 2080.894375 
L 2812.123568 2080.894375 
L 2780.921386 2080.894375 
z
" clip-path="url(#p0705b27d6d)" style="fill: #0000ff; fill-opacity: 0.5; stroke: #ffffff; stroke-linejoin: miter"/>
   </g>
   <g id="patch_183">
    <path d="M 2812.123568 2080.894375 
L 2843.32575 2080.894375 
L 2843.32575 2080.894375 
L 2812.123568 2080.894375 
z
" clip-path="url(#p0705b27d6d)" style="fill: #0000ff; fill-opacity: 0.5; stroke: #ffffff; stroke-linejoin: miter"/>
   </g>
   <g id="patch_184">
    <path d="M 2843.32575 2080.894375 
L 2874.527932 2080.894375 
L 2874.527932 2080.894375 
L 2843.32575 2080.894375 
z
" clip-path="url(#p0705b27d6d)" style="fill: #0000ff; fill-opacity: 0.5; stroke: #ffffff; stroke-linejoin: miter"/>
   </g>
   <g id="patch_185">
    <path d="M 2874.527932 2080.894375 
L 2905.730114 2080.894375 
L 2905.730114 2080.894375 
L 2874.527932 2080.894375 
z
" clip-path="url(#p0705b27d6d)" style="fill: #0000ff; fill-opacity: 0.5; stroke: #ffffff; stroke-linejoin: miter"/>
   </g>
   <g id="patch_186">
    <path d="M 2905.730114 2080.894375 
L 2936.932295 2080.894375 
L 2936.932295 2080.894375 
L 2905.730114 2080.894375 
z
" clip-path="url(#p0705b27d6d)" style="fill: #0000ff; fill-opacity: 0.5; stroke: #ffffff; stroke-linejoin: miter"/>
   </g>
   <g id="patch_187">
    <path d="M 2936.932295 2080.894375 
L 2968.134477 2080.894375 
L 2968.134477 2080.894375 
L 2936.932295 2080.894375 
z
" clip-path="url(#p0705b27d6d)" style="fill: #0000ff; fill-opacity: 0.5; stroke: #ffffff; stroke-linejoin: miter"/>
   </g>
   <g id="patch_188">
    <path d="M 2968.134477 2080.894375 
L 2999.336659 2080.894375 
L 2999.336659 2080.894375 
L 2968.134477 2080.894375 
z
" clip-path="url(#p0705b27d6d)" style="fill: #0000ff; fill-opacity: 0.5; stroke: #ffffff; stroke-linejoin: miter"/>
   </g>
   <g id="patch_189">
    <path d="M 2999.336659 2080.894375 
L 3030.538841 2080.894375 
L 3030.538841 2080.894375 
L 2999.336659 2080.894375 
z
" clip-path="url(#p0705b27d6d)" style="fill: #0000ff; fill-opacity: 0.5; stroke: #ffffff; stroke-linejoin: miter"/>
   </g>
   <g id="patch_190">
    <path d="M 3030.538841 2080.894375 
L 3061.741023 2080.894375 
L 3061.741023 2080.894375 
L 3030.538841 2080.894375 
z
" clip-path="url(#p0705b27d6d)" style="fill: #0000ff; fill-opacity: 0.5; stroke: #ffffff; stroke-linejoin: miter"/>
   </g>
   <g id="patch_191">
    <path d="M 3061.741023 2080.894375 
L 3092.943205 2080.894375 
L 3092.943205 2080.894375 
L 3061.741023 2080.894375 
z
" clip-path="url(#p0705b27d6d)" style="fill: #0000ff; fill-opacity: 0.5; stroke: #ffffff; stroke-linejoin: miter"/>
   </g>
   <g id="patch_192">
    <path d="M 3092.943205 2080.894375 
L 3124.145386 2080.894375 
L 3124.145386 2080.894375 
L 3092.943205 2080.894375 
z
" clip-path="url(#p0705b27d6d)" style="fill: #0000ff; fill-opacity: 0.5; stroke: #ffffff; stroke-linejoin: miter"/>
   </g>
   <g id="patch_193">
    <path d="M 3124.145386 2080.894375 
L 3155.347568 2080.894375 
L 3155.347568 2080.894375 
L 3124.145386 2080.894375 
z
" clip-path="url(#p0705b27d6d)" style="fill: #0000ff; fill-opacity: 0.5; stroke: #ffffff; stroke-linejoin: miter"/>
   </g>
   <g id="patch_194">
    <path d="M 3155.347568 2080.894375 
L 3186.54975 2080.894375 
L 3186.54975 2080.894375 
L 3155.347568 2080.894375 
z
" clip-path="url(#p0705b27d6d)" style="fill: #0000ff; fill-opacity: 0.5; stroke: #ffffff; stroke-linejoin: miter"/>
   </g>
   <g id="patch_195">
    <path d="M 3186.54975 2080.894375 
L 3217.751932 2080.894375 
L 3217.751932 2080.894375 
L 3186.54975 2080.894375 
z
" clip-path="url(#p0705b27d6d)" style="fill: #0000ff; fill-opacity: 0.5; stroke: #ffffff; stroke-linejoin: miter"/>
   </g>
   <g id="patch_196">
    <path d="M 3217.751932 2080.894375 
L 3248.954114 2080.894375 
L 3248.954114 2080.894375 
L 3217.751932 2080.894375 
z
" clip-path="url(#p0705b27d6d)" style="fill: #0000ff; fill-opacity: 0.5; stroke: #ffffff; stroke-linejoin: miter"/>
   </g>
   <g id="patch_197">
    <path d="M 3248.954114 2080.894375 
L 3280.156295 2080.894375 
L 3280.156295 2080.894375 
L 3248.954114 2080.894375 
z
" clip-path="url(#p0705b27d6d)" style="fill: #0000ff; fill-opacity: 0.5; stroke: #ffffff; stroke-linejoin: miter"/>
   </g>
   <g id="patch_198">
    <path d="M 3280.156295 2080.894375 
L 3311.358477 2080.894375 
L 3311.358477 2080.894375 
L 3280.156295 2080.894375 
z
" clip-path="url(#p0705b27d6d)" style="fill: #0000ff; fill-opacity: 0.5; stroke: #ffffff; stroke-linejoin: miter"/>
   </g>
   <g id="patch_199">
    <path d="M 3311.358477 2080.894375 
L 3342.560659 2080.894375 
L 3342.560659 2080.894375 
L 3311.358477 2080.894375 
z
" clip-path="url(#p0705b27d6d)" style="fill: #0000ff; fill-opacity: 0.5; stroke: #ffffff; stroke-linejoin: miter"/>
   </g>
   <g id="patch_200">
    <path d="M 3342.560659 2080.894375 
L 3373.762841 2080.894375 
L 3373.762841 2080.894375 
L 3342.560659 2080.894375 
z
" clip-path="url(#p0705b27d6d)" style="fill: #0000ff; fill-opacity: 0.5; stroke: #ffffff; stroke-linejoin: miter"/>
   </g>
   <g id="line2d_15">
    <path d="M 315.879061 2079.416105 
L 590.783391 2079.184205 
L 645.764257 2078.840283 
L 700.745122 2078.294129 
L 755.725988 2077.530493 
L 810.706854 2076.553132 
L 865.68772 2075.3792 
L 934.413803 2073.66575 
L 1003.139885 2071.693412 
L 1058.120751 2069.909375 
L 1113.101617 2067.901014 
L 1168.082483 2065.62414 
L 1223.063349 2063.054468 
L 1278.044214 2060.21464 
L 1360.515513 2055.652342 
L 1429.241596 2051.899396 
L 1484.222462 2049.153137 
L 1525.458111 2047.314542 
L 1566.69376 2045.683359 
L 1607.92941 2044.251479 
L 1649.165059 2042.998833 
L 1704.145925 2041.579777 
L 1745.381575 2040.709979 
L 1786.617224 2040.046584 
L 1827.852874 2039.655646 
L 1855.343306 2039.586939 
L 1882.833739 2039.700683 
L 1910.324172 2040.018239 
L 1937.814605 2040.55485 
L 1965.305038 2041.317314 
L 1992.795471 2042.302387 
L 2020.285904 2043.496111 
L 2047.776337 2044.874129 
L 2089.011987 2047.211457 
L 2157.738069 2051.469464 
L 2212.718935 2054.795242 
L 2253.954584 2057.037955 
L 2281.445017 2058.362685 
L 2308.93545 2059.533507 
L 2336.425883 2060.54536 
L 2363.916316 2061.401505 
L 2405.151966 2062.418602 
L 2446.387615 2063.170133 
L 2501.368481 2063.896092 
L 2638.820646 2065.518783 
L 2693.801512 2066.450567 
L 2748.782377 2067.61185 
L 2817.50846 2069.314817 
L 2996.196274 2073.919793 
L 3051.17714 2075.136928 
L 3051.17714 2075.136928 
" clip-path="url(#p0705b27d6d)" style="fill: none; stroke: #ffa500; stroke-width: 1.5; stroke-linecap: round"/>
   </g>
   <g id="line2d_16">
    <path d="M 253.544659 1622.134009 
L 266.154712 1593.453649 
L 278.764766 1566.473604 
L 291.374819 1541.59911 
L 303.984872 1519.195541 
L 316.594926 1499.575906 
L 329.204979 1482.99014 
L 341.815032 1469.616743 
L 354.425086 1459.557175 
L 367.035139 1452.833317 
L 379.645192 1449.388069 
L 392.255246 1449.089048 
L 404.865299 1451.735119 
L 417.475352 1457.065376 
L 430.085406 1464.770052 
L 442.695459 1474.502756 
L 455.305512 1485.893375 
L 467.915566 1498.561019 
L 480.525619 1512.126384 
L 493.135672 1526.223019 
L 518.355779 1554.665333 
L 530.965832 1568.421059 
L 543.575886 1581.538168 
L 556.185939 1593.823262 
L 568.795992 1605.126043 
L 581.406046 1615.33823 
L 594.016099 1624.391287 
L 606.626152 1632.253263 
L 619.236206 1638.925018 
L 631.846259 1644.436105 
L 644.456312 1648.840504 
L 657.066366 1652.212376 
L 669.676419 1654.641955 
L 682.286472 1656.23163 
L 694.896526 1657.092269 
L 707.506579 1657.339778 
L 720.116632 1657.091896 
L 732.726686 1656.465227 
L 745.336739 1655.572501 
L 795.776952 1651.32816 
L 808.387006 1650.501916 
L 820.997059 1649.885767 
L 833.607112 1649.513108 
L 846.217166 1649.4031 
L 858.827219 1649.561269 
L 871.437272 1649.980537 
L 884.047326 1650.64264 
L 896.657379 1651.519852 
L 909.267432 1652.576964 
L 934.487539 1655.065439 
L 972.317699 1659.075142 
L 997.537805 1661.470161 
L 1010.147859 1662.495588 
L 1022.757912 1663.383508 
L 1035.367965 1664.12688 
L 1047.978019 1664.726735 
L 1060.588072 1665.191794 
L 1085.808179 1665.786269 
L 1123.638339 1666.226257 
L 1148.858445 1666.575574 
L 1174.078552 1667.24433 
L 1186.688605 1667.756937 
L 1199.298659 1668.410591 
L 1211.908712 1669.215939 
L 1224.518765 1670.1791 
L 1237.128819 1671.302297 
L 1249.738872 1672.584768 
L 1262.348925 1674.023878 
L 1274.958979 1675.616336 
L 1287.569032 1677.359409 
L 1300.179085 1679.252034 
L 1312.789139 1681.295726 
L 1325.399192 1683.495197 
L 1338.009245 1685.858642 
L 1350.619299 1688.397643 
L 1363.229352 1691.126699 
L 1375.839405 1694.062426 
L 1388.449459 1697.222457 
L 1401.059512 1700.624146 
L 1413.669565 1704.283164 
L 1426.279619 1708.212094 
L 1438.889672 1712.419116 
L 1451.499725 1716.906895 
L 1464.109779 1721.67174 
L 1476.719832 1726.703094 
L 1489.329885 1731.983384 
L 1501.939939 1737.488254 
L 1514.549992 1743.187141 
L 1539.770099 1755.019332 
L 1602.820365 1785.149321 
L 1615.430419 1790.934772 
L 1628.040472 1796.557419 
L 1640.650525 1801.991457 
L 1653.260579 1807.216881 
L 1665.870632 1812.219628 
L 1678.480685 1816.991505 
L 1691.090739 1821.529922 
L 1703.700792 1825.837487 
L 1716.310845 1829.921502 
L 1728.920899 1833.793401 
L 1741.530952 1837.468182 
L 1754.141005 1840.963868 
L 1766.751059 1844.301022 
L 1791.971165 1850.592293 
L 1817.191272 1856.543657 
L 1855.021432 1865.327453 
L 1880.241539 1871.443069 
L 1892.851592 1874.673445 
L 1905.461645 1878.060697 
L 1918.071698 1881.634999 
L 1930.681752 1885.42473 
L 1943.291805 1889.45567 
L 1955.901858 1893.750151 
L 1968.511912 1898.326191 
L 1981.121965 1903.19666 
L 1993.732018 1908.368534 
L 2006.342072 1913.842273 
L 2018.952125 1919.61137 
L 2031.562178 1925.662118 
L 2044.172232 1931.973608 
L 2056.782285 1938.517976 
L 2069.392338 1945.260909 
L 2094.612445 1959.177648 
L 2145.052658 1987.381892 
L 2157.662712 1994.213829 
L 2170.272765 2000.861097 
L 2182.882818 2007.28109 
L 2195.492872 2013.436189 
L 2208.102925 2019.29448 
L 2220.712978 2024.830235 
L 2233.323032 2030.024159 
L 2245.933085 2034.863396 
L 2258.543138 2039.341321 
L 2271.153192 2043.457134 
L 2283.763245 2047.215288 
L 2296.373298 2050.624796 
L 2308.983352 2053.698454 
L 2321.593405 2056.45202 
L 2334.203458 2058.903399 
L 2346.813512 2061.071859 
L 2359.423565 2062.977323 
L 2372.033618 2064.639752 
L 2384.643672 2066.078646 
L 2397.253725 2067.312666 
L 2409.863778 2068.359381 
L 2422.473832 2069.235141 
L 2435.083885 2069.955058 
L 2447.693938 2070.533077 
L 2460.303992 2070.982122 
L 2485.524098 2071.541105 
L 2510.744205 2071.722984 
L 2535.964312 2071.615903 
L 2573.794472 2071.111307 
L 2636.844738 2070.127237 
L 2662.064845 2069.93336 
L 2687.284952 2069.949555 
L 2712.505058 2070.207758 
L 2737.725165 2070.71252 
L 2762.945272 2071.442147 
L 2762.945272 2071.442147 
" clip-path="url(#p0705b27d6d)" style="fill: none; stroke: #0000ff; stroke-width: 1.5; stroke-linecap: round"/>
   </g>
   <g id="patch_201">
    <path d="M 97.53375 2080.894375 
L 97.53375 40.554375 
" style="fill: none; stroke: #ffffff; stroke-width: 1.25; stroke-linejoin: miter; stroke-linecap: square"/>
   </g>
   <g id="patch_202">
    <path d="M 3529.77375 2080.894375 
L 3529.77375 40.554375 
" style="fill: none; stroke: #ffffff; stroke-width: 1.25; stroke-linejoin: miter; stroke-linecap: square"/>
   </g>
   <g id="patch_203">
    <path d="M 97.53375 2080.894375 
L 3529.77375 2080.894375 
" style="fill: none; stroke: #ffffff; stroke-width: 1.25; stroke-linejoin: miter; stroke-linecap: square"/>
   </g>
   <g id="patch_204">
    <path d="M 97.53375 40.554375 
L 3529.77375 40.554375 
" style="fill: none; stroke: #ffffff; stroke-width: 1.25; stroke-linejoin: miter; stroke-linecap: square"/>
   </g>
   <g id="text_17">
    <!-- active_site_166fg_bi_type_bond3_rf_PF08241_ACS_remove_redundant_15_80_MACCS_no_same_sub_prediction probability distribution -->
    <g style="fill: #262626" transform="translate(604.25625 34.554375)scale(0.36 -0.36)">
     <defs>
      <path id="DejaVuSans-63" d="M 3122 3366 
L 3122 2828 
Q 2878 2963 2633 3030 
Q 2388 3097 2138 3097 
Q 1578 3097 1268 2742 
Q 959 2388 959 1747 
Q 959 1106 1268 751 
Q 1578 397 2138 397 
Q 2388 397 2633 464 
Q 2878 531 3122 666 
L 3122 134 
Q 2881 22 2623 -34 
Q 2366 -91 2075 -91 
Q 1284 -91 818 406 
Q 353 903 353 1747 
Q 353 2603 823 3093 
Q 1294 3584 2113 3584 
Q 2378 3584 2631 3529 
Q 2884 3475 3122 3366 
z
" transform="scale(0.015625)"/>
      <path id="DejaVuSans-76" d="M 191 3500 
L 800 3500 
L 1894 563 
L 2988 3500 
L 3597 3500 
L 2284 0 
L 1503 0 
L 191 3500 
z
" transform="scale(0.015625)"/>
      <path id="DejaVuSans-65" d="M 3597 1894 
L 3597 1613 
L 953 1613 
Q 991 1019 1311 708 
Q 1631 397 2203 397 
Q 2534 397 2845 478 
Q 3156 559 3463 722 
L 3463 178 
Q 3153 47 2828 -22 
Q 2503 -91 2169 -91 
Q 1331 -91 842 396 
Q 353 884 353 1716 
Q 353 2575 817 3079 
Q 1281 3584 2069 3584 
Q 2775 3584 3186 3129 
Q 3597 2675 3597 1894 
z
M 3022 2063 
Q 3016 2534 2758 2815 
Q 2500 3097 2075 3097 
Q 1594 3097 1305 2825 
Q 1016 2553 972 2059 
L 3022 2063 
z
" transform="scale(0.015625)"/>
      <path id="DejaVuSans-5f" d="M 3263 -1063 
L 3263 -1509 
L -63 -1509 
L -63 -1063 
L 3263 -1063 
z
" transform="scale(0.015625)"/>
      <path id="DejaVuSans-73" d="M 2834 3397 
L 2834 2853 
Q 2591 2978 2328 3040 
Q 2066 3103 1784 3103 
Q 1356 3103 1142 2972 
Q 928 2841 928 2578 
Q 928 2378 1081 2264 
Q 1234 2150 1697 2047 
L 1894 2003 
Q 2506 1872 2764 1633 
Q 3022 1394 3022 966 
Q 3022 478 2636 193 
Q 2250 -91 1575 -91 
Q 1294 -91 989 -36 
Q 684 19 347 128 
L 347 722 
Q 666 556 975 473 
Q 1284 391 1588 391 
Q 1994 391 2212 530 
Q 2431 669 2431 922 
Q 2431 1156 2273 1281 
Q 2116 1406 1581 1522 
L 1381 1569 
Q 847 1681 609 1914 
Q 372 2147 372 2553 
Q 372 3047 722 3315 
Q 1072 3584 1716 3584 
Q 2034 3584 2315 3537 
Q 2597 3491 2834 3397 
z
" transform="scale(0.015625)"/>
      <path id="DejaVuSans-66" d="M 2375 4863 
L 2375 4384 
L 1825 4384 
Q 1516 4384 1395 4259 
Q 1275 4134 1275 3809 
L 1275 3500 
L 2222 3500 
L 2222 3053 
L 1275 3053 
L 1275 0 
L 697 0 
L 697 3053 
L 147 3053 
L 147 3500 
L 697 3500 
L 697 3744 
Q 697 4328 969 4595 
Q 1241 4863 1831 4863 
L 2375 4863 
z
" transform="scale(0.015625)"/>
      <path id="DejaVuSans-67" d="M 2906 1791 
Q 2906 2416 2648 2759 
Q 2391 3103 1925 3103 
Q 1463 3103 1205 2759 
Q 947 2416 947 1791 
Q 947 1169 1205 825 
Q 1463 481 1925 481 
Q 2391 481 2648 825 
Q 2906 1169 2906 1791 
z
M 3481 434 
Q 3481 -459 3084 -895 
Q 2688 -1331 1869 -1331 
Q 1566 -1331 1297 -1286 
Q 1028 -1241 775 -1147 
L 775 -588 
Q 1028 -725 1275 -790 
Q 1522 -856 1778 -856 
Q 2344 -856 2625 -561 
Q 2906 -266 2906 331 
L 2906 616 
Q 2728 306 2450 153 
Q 2172 0 1784 0 
Q 1141 0 747 490 
Q 353 981 353 1791 
Q 353 2603 747 3093 
Q 1141 3584 1784 3584 
Q 2172 3584 2450 3431 
Q 2728 3278 2906 2969 
L 2906 3500 
L 3481 3500 
L 3481 434 
z
" transform="scale(0.015625)"/>
      <path id="DejaVuSans-64" d="M 2906 2969 
L 2906 4863 
L 3481 4863 
L 3481 0 
L 2906 0 
L 2906 525 
Q 2725 213 2448 61 
Q 2172 -91 1784 -91 
Q 1150 -91 751 415 
Q 353 922 353 1747 
Q 353 2572 751 3078 
Q 1150 3584 1784 3584 
Q 2172 3584 2448 3432 
Q 2725 3281 2906 2969 
z
M 947 1747 
Q 947 1113 1208 752 
Q 1469 391 1925 391 
Q 2381 391 2643 752 
Q 2906 1113 2906 1747 
Q 2906 2381 2643 2742 
Q 2381 3103 1925 3103 
Q 1469 3103 1208 2742 
Q 947 2381 947 1747 
z
" transform="scale(0.015625)"/>
      <path id="DejaVuSans-50" d="M 1259 4147 
L 1259 2394 
L 2053 2394 
Q 2494 2394 2734 2622 
Q 2975 2850 2975 3272 
Q 2975 3691 2734 3919 
Q 2494 4147 2053 4147 
L 1259 4147 
z
M 628 4666 
L 2053 4666 
Q 2838 4666 3239 4311 
Q 3641 3956 3641 3272 
Q 3641 2581 3239 2228 
Q 2838 1875 2053 1875 
L 1259 1875 
L 1259 0 
L 628 0 
L 628 4666 
z
" transform="scale(0.015625)"/>
      <path id="DejaVuSans-46" d="M 628 4666 
L 3309 4666 
L 3309 4134 
L 1259 4134 
L 1259 2759 
L 3109 2759 
L 3109 2228 
L 1259 2228 
L 1259 0 
L 628 0 
L 628 4666 
z
" transform="scale(0.015625)"/>
      <path id="DejaVuSans-41" d="M 2188 4044 
L 1331 1722 
L 3047 1722 
L 2188 4044 
z
M 1831 4666 
L 2547 4666 
L 4325 0 
L 3669 0 
L 3244 1197 
L 1141 1197 
L 716 0 
L 50 0 
L 1831 4666 
z
" transform="scale(0.015625)"/>
      <path id="DejaVuSans-53" d="M 3425 4513 
L 3425 3897 
Q 3066 4069 2747 4153 
Q 2428 4238 2131 4238 
Q 1616 4238 1336 4038 
Q 1056 3838 1056 3469 
Q 1056 3159 1242 3001 
Q 1428 2844 1947 2747 
L 2328 2669 
Q 3034 2534 3370 2195 
Q 3706 1856 3706 1288 
Q 3706 609 3251 259 
Q 2797 -91 1919 -91 
Q 1588 -91 1214 -16 
Q 841 59 441 206 
L 441 856 
Q 825 641 1194 531 
Q 1563 422 1919 422 
Q 2459 422 2753 634 
Q 3047 847 3047 1241 
Q 3047 1584 2836 1778 
Q 2625 1972 2144 2069 
L 1759 2144 
Q 1053 2284 737 2584 
Q 422 2884 422 3419 
Q 422 4038 858 4394 
Q 1294 4750 2059 4750 
Q 2388 4750 2728 4690 
Q 3069 4631 3425 4513 
z
" transform="scale(0.015625)"/>
      <path id="DejaVuSans-6d" d="M 3328 2828 
Q 3544 3216 3844 3400 
Q 4144 3584 4550 3584 
Q 5097 3584 5394 3201 
Q 5691 2819 5691 2113 
L 5691 0 
L 5113 0 
L 5113 2094 
Q 5113 2597 4934 2840 
Q 4756 3084 4391 3084 
Q 3944 3084 3684 2787 
Q 3425 2491 3425 1978 
L 3425 0 
L 2847 0 
L 2847 2094 
Q 2847 2600 2669 2842 
Q 2491 3084 2119 3084 
Q 1678 3084 1418 2786 
Q 1159 2488 1159 1978 
L 1159 0 
L 581 0 
L 581 3500 
L 1159 3500 
L 1159 2956 
Q 1356 3278 1631 3431 
Q 1906 3584 2284 3584 
Q 2666 3584 2933 3390 
Q 3200 3197 3328 2828 
z
" transform="scale(0.015625)"/>
      <path id="DejaVuSans-4d" d="M 628 4666 
L 1569 4666 
L 2759 1491 
L 3956 4666 
L 4897 4666 
L 4897 0 
L 4281 0 
L 4281 4097 
L 3078 897 
L 2444 897 
L 1241 4097 
L 1241 0 
L 628 0 
L 628 4666 
z
" transform="scale(0.015625)"/>
      <path id="DejaVuSans-20" transform="scale(0.015625)"/>
     </defs>
     <use xlink:href="#DejaVuSans-61"/>
     <use xlink:href="#DejaVuSans-63" x="61.279297"/>
     <use xlink:href="#DejaVuSans-74" x="116.259766"/>
     <use xlink:href="#DejaVuSans-69" x="155.46875"/>
     <use xlink:href="#DejaVuSans-76" x="183.251953"/>
     <use xlink:href="#DejaVuSans-65" x="242.431641"/>
     <use xlink:href="#DejaVuSans-5f" x="303.955078"/>
     <use xlink:href="#DejaVuSans-73" x="353.955078"/>
     <use xlink:href="#DejaVuSans-69" x="406.054688"/>
     <use xlink:href="#DejaVuSans-74" x="433.837891"/>
     <use xlink:href="#DejaVuSans-65" x="473.046875"/>
     <use xlink:href="#DejaVuSans-5f" x="534.570312"/>
     <use xlink:href="#DejaVuSans-31" x="584.570312"/>
     <use xlink:href="#DejaVuSans-36" x="648.193359"/>
     <use xlink:href="#DejaVuSans-36" x="711.816406"/>
     <use xlink:href="#DejaVuSans-66" x="775.439453"/>
     <use xlink:href="#DejaVuSans-67" x="810.644531"/>
     <use xlink:href="#DejaVuSans-5f" x="874.121094"/>
     <use xlink:href="#DejaVuSans-62" x="924.121094"/>
     <use xlink:href="#DejaVuSans-69" x="987.597656"/>
     <use xlink:href="#DejaVuSans-5f" x="1015.380859"/>
     <use xlink:href="#DejaVuSans-74" x="1065.380859"/>
     <use xlink:href="#DejaVuSans-79" x="1104.589844"/>
     <use xlink:href="#DejaVuSans-70" x="1163.769531"/>
     <use xlink:href="#DejaVuSans-65" x="1227.246094"/>
     <use xlink:href="#DejaVuSans-5f" x="1288.769531"/>
     <use xlink:href="#DejaVuSans-62" x="1338.769531"/>
     <use xlink:href="#DejaVuSans-6f" x="1402.246094"/>
     <use xlink:href="#DejaVuSans-6e" x="1463.427734"/>
     <use xlink:href="#DejaVuSans-64" x="1526.806641"/>
     <use xlink:href="#DejaVuSans-33" x="1590.283203"/>
     <use xlink:href="#DejaVuSans-5f" x="1653.90625"/>
     <use xlink:href="#DejaVuSans-72" x="1703.90625"/>
     <use xlink:href="#DejaVuSans-66" x="1745.019531"/>
     <use xlink:href="#DejaVuSans-5f" x="1780.224609"/>
     <use xlink:href="#DejaVuSans-50" x="1830.224609"/>
     <use xlink:href="#DejaVuSans-46" x="1890.527344"/>
     <use xlink:href="#DejaVuSans-30" x="1948.046875"/>
     <use xlink:href="#DejaVuSans-38" x="2011.669922"/>
     <use xlink:href="#DejaVuSans-32" x="2075.292969"/>
     <use xlink:href="#DejaVuSans-34" x="2138.916016"/>
     <use xlink:href="#DejaVuSans-31" x="2202.539062"/>
     <use xlink:href="#DejaVuSans-5f" x="2266.162109"/>
     <use xlink:href="#DejaVuSans-41" x="2316.162109"/>
     <use xlink:href="#DejaVuSans-43" x="2382.820312"/>
     <use xlink:href="#DejaVuSans-53" x="2452.644531"/>
     <use xlink:href="#DejaVuSans-5f" x="2516.121094"/>
     <use xlink:href="#DejaVuSans-72" x="2566.121094"/>
     <use xlink:href="#DejaVuSans-65" x="2604.984375"/>
     <use xlink:href="#DejaVuSans-6d" x="2666.507812"/>
     <use xlink:href="#DejaVuSans-6f" x="2763.919922"/>
     <use xlink:href="#DejaVuSans-76" x="2825.101562"/>
     <use xlink:href="#DejaVuSans-65" x="2884.28125"/>
     <use xlink:href="#DejaVuSans-5f" x="2945.804688"/>
     <use xlink:href="#DejaVuSans-72" x="2995.804688"/>
     <use xlink:href="#DejaVuSans-65" x="3034.667969"/>
     <use xlink:href="#DejaVuSans-64" x="3096.191406"/>
     <use xlink:href="#DejaVuSans-75" x="3159.667969"/>
     <use xlink:href="#DejaVuSans-6e" x="3223.046875"/>
     <use xlink:href="#DejaVuSans-64" x="3286.425781"/>
     <use xlink:href="#DejaVuSans-61" x="3349.902344"/>
     <use xlink:href="#DejaVuSans-6e" x="3411.181641"/>
     <use xlink:href="#DejaVuSans-74" x="3474.560547"/>
     <use xlink:href="#DejaVuSans-5f" x="3513.769531"/>
     <use xlink:href="#DejaVuSans-31" x="3563.769531"/>
     <use xlink:href="#DejaVuSans-35" x="3627.392578"/>
     <use xlink:href="#DejaVuSans-5f" x="3691.015625"/>
     <use xlink:href="#DejaVuSans-38" x="3741.015625"/>
     <use xlink:href="#DejaVuSans-30" x="3804.638672"/>
     <use xlink:href="#DejaVuSans-5f" x="3868.261719"/>
     <use xlink:href="#DejaVuSans-4d" x="3918.261719"/>
     <use xlink:href="#DejaVuSans-41" x="4004.541016"/>
     <use xlink:href="#DejaVuSans-43" x="4071.199219"/>
     <use xlink:href="#DejaVuSans-43" x="4141.023438"/>
     <use xlink:href="#DejaVuSans-53" x="4210.847656"/>
     <use xlink:href="#DejaVuSans-5f" x="4274.324219"/>
     <use xlink:href="#DejaVuSans-6e" x="4324.324219"/>
     <use xlink:href="#DejaVuSans-6f" x="4387.703125"/>
     <use xlink:href="#DejaVuSans-5f" x="4448.884766"/>
     <use xlink:href="#DejaVuSans-73" x="4498.884766"/>
     <use xlink:href="#DejaVuSans-61" x="4550.984375"/>
     <use xlink:href="#DejaVuSans-6d" x="4612.263672"/>
     <use xlink:href="#DejaVuSans-65" x="4709.675781"/>
     <use xlink:href="#DejaVuSans-5f" x="4771.199219"/>
     <use xlink:href="#DejaVuSans-73" x="4821.199219"/>
     <use xlink:href="#DejaVuSans-75" x="4873.298828"/>
     <use xlink:href="#DejaVuSans-62" x="4936.677734"/>
     <use xlink:href="#DejaVuSans-5f" x="5000.154297"/>
     <use xlink:href="#DejaVuSans-70" x="5050.154297"/>
     <use xlink:href="#DejaVuSans-72" x="5113.630859"/>
     <use xlink:href="#DejaVuSans-65" x="5152.494141"/>
     <use xlink:href="#DejaVuSans-64" x="5214.017578"/>
     <use xlink:href="#DejaVuSans-69" x="5277.494141"/>
     <use xlink:href="#DejaVuSans-63" x="5305.277344"/>
     <use xlink:href="#DejaVuSans-74" x="5360.257812"/>
     <use xlink:href="#DejaVuSans-69" x="5399.466797"/>
     <use xlink:href="#DejaVuSans-6f" x="5427.25"/>
     <use xlink:href="#DejaVuSans-6e" x="5488.431641"/>
     <use xlink:href="#DejaVuSans-20" x="5551.810547"/>
     <use xlink:href="#DejaVuSans-70" x="5583.597656"/>
     <use xlink:href="#DejaVuSans-72" x="5647.074219"/>
     <use xlink:href="#DejaVuSans-6f" x="5685.9375"/>
     <use xlink:href="#DejaVuSans-62" x="5747.119141"/>
     <use xlink:href="#DejaVuSans-61" x="5810.595703"/>
     <use xlink:href="#DejaVuSans-62" x="5871.875"/>
     <use xlink:href="#DejaVuSans-69" x="5935.351562"/>
     <use xlink:href="#DejaVuSans-6c" x="5963.134766"/>
     <use xlink:href="#DejaVuSans-69" x="5990.917969"/>
     <use xlink:href="#DejaVuSans-74" x="6018.701172"/>
     <use xlink:href="#DejaVuSans-79" x="6057.910156"/>
     <use xlink:href="#DejaVuSans-20" x="6117.089844"/>
     <use xlink:href="#DejaVuSans-64" x="6148.876953"/>
     <use xlink:href="#DejaVuSans-69" x="6212.353516"/>
     <use xlink:href="#DejaVuSans-73" x="6240.136719"/>
     <use xlink:href="#DejaVuSans-74" x="6292.236328"/>
     <use xlink:href="#DejaVuSans-72" x="6331.445312"/>
     <use xlink:href="#DejaVuSans-69" x="6372.558594"/>
     <use xlink:href="#DejaVuSans-62" x="6400.341797"/>
     <use xlink:href="#DejaVuSans-75" x="6463.818359"/>
     <use xlink:href="#DejaVuSans-74" x="6527.197266"/>
     <use xlink:href="#DejaVuSans-69" x="6566.40625"/>
     <use xlink:href="#DejaVuSans-6f" x="6594.189453"/>
     <use xlink:href="#DejaVuSans-6e" x="6655.371094"/>
    </g>
   </g>
   <g id="legend_1">
    <g id="patch_205">
     <path d="M 3423.846875 109.280625 
L 3524.17375 109.280625 
Q 3525.77375 109.280625 3525.77375 107.680625 
L 3525.77375 46.154375 
Q 3525.77375 44.554375 3524.17375 44.554375 
L 3423.846875 44.554375 
Q 3422.246875 44.554375 3422.246875 46.154375 
L 3422.246875 107.680625 
Q 3422.246875 109.280625 3423.846875 109.280625 
z
" style="fill: #eaeaf2; opacity: 0.8; stroke: #cccccc; stroke-linejoin: miter"/>
    </g>
    <g id="text_18">
     <!-- Label -->
     <g style="fill: #262626" transform="translate(3425.446875 75.10875)scale(0.36 -0.36)">
      <defs>
       <path id="DejaVuSans-4c" d="M 628 4666 
L 1259 4666 
L 1259 531 
L 3531 531 
L 3531 0 
L 628 0 
L 628 4666 
z
" transform="scale(0.015625)"/>
      </defs>
      <use xlink:href="#DejaVuSans-4c"/>
      <use xlink:href="#DejaVuSans-61" x="55.712891"/>
      <use xlink:href="#DejaVuSans-62" x="116.992188"/>
      <use xlink:href="#DejaVuSans-65" x="180.46875"/>
      <use xlink:href="#DejaVuSans-6c" x="241.992188"/>
     </g>
    </g>
    <g id="patch_206">
     <path d="M 3450.590938 92.674375 
L 3466.590938 92.674375 
L 3466.590938 87.074375 
L 3450.590938 87.074375 
z
" style="fill: #ffa500; fill-opacity: 0.5; stroke: #ffffff; stroke-linejoin: miter"/>
    </g>
    <g id="text_19">
     <!-- label1 -->
     <g style="fill: #262626" transform="translate(3472.990938 92.674375)scale(0.08 -0.08)">
      <use xlink:href="#DejaVuSans-6c"/>
      <use xlink:href="#DejaVuSans-61" x="27.783203"/>
      <use xlink:href="#DejaVuSans-62" x="89.0625"/>
      <use xlink:href="#DejaVuSans-65" x="152.539062"/>
      <use xlink:href="#DejaVuSans-6c" x="214.0625"/>
      <use xlink:href="#DejaVuSans-31" x="241.845703"/>
     </g>
    </g>
    <g id="patch_207">
     <path d="M 3450.590938 104.416875 
L 3466.590938 104.416875 
L 3466.590938 98.816875 
L 3450.590938 98.816875 
z
" style="fill: #0000ff; fill-opacity: 0.5; stroke: #ffffff; stroke-linejoin: miter"/>
    </g>
    <g id="text_20">
     <!-- label0 -->
     <g style="fill: #262626" transform="translate(3472.990938 104.416875)scale(0.08 -0.08)">
      <use xlink:href="#DejaVuSans-6c"/>
      <use xlink:href="#DejaVuSans-61" x="27.783203"/>
      <use xlink:href="#DejaVuSans-62" x="89.0625"/>
      <use xlink:href="#DejaVuSans-65" x="152.539062"/>
      <use xlink:href="#DejaVuSans-6c" x="214.0625"/>
      <use xlink:href="#DejaVuSans-30" x="241.845703"/>
     </g>
    </g>
   </g>
  </g>
 </g>
 <defs>
  <clipPath id="p0705b27d6d">
   <rect x="97.53375" y="40.554375" width="3432.24" height="2040.34"/>
  </clipPath>
 </defs>
</svg>
