<?xml version="1.0" encoding="utf-8" standalone="no"?>
<!DOCTYPE svg PUBLIC "-//W3C//DTD SVG 1.1//EN"
  "http://www.w3.org/Graphics/SVG/1.1/DTD/svg11.dtd">
<svg xmlns:xlink="http://www.w3.org/1999/xlink" width="3537pt" height="2168.373437pt" viewBox="0 0 3537 2168.373437" xmlns="http://www.w3.org/2000/svg" version="1.1">
 <metadata>
  <rdf:RDF xmlns:dc="http://purl.org/dc/elements/1.1/" xmlns:cc="http://creativecommons.org/ns#" xmlns:rdf="http://www.w3.org/1999/02/22-rdf-syntax-ns#">
   <cc:Work>
    <dc:type rdf:resource="http://purl.org/dc/dcmitype/StillImage"/>
    <dc:date>2022-11-22T06:10:43.586367</dc:date>
    <dc:format>image/svg+xml</dc:format>
    <dc:creator>
     <cc:Agent>
      <dc:title>Matplotlib v3.5.2, https://matplotlib.org/</dc:title>
     </cc:Agent>
    </dc:creator>
   </cc:Work>
  </rdf:RDF>
 </metadata>
 <defs>
  <style type="text/css">*{stroke-linejoin: round; stroke-linecap: butt}</style>
 </defs>
 <g id="figure_1">
  <g id="patch_1">
   <path d="M 0 2168.373437 
L 3537 2168.373437 
L 3537 0 
L 0 0 
z
" style="fill: #ffffff"/>
  </g>
  <g id="axes_1">
   <g id="patch_2">
    <path d="M 118.53 2080.894375 
L 3529.8 2080.894375 
L 3529.8 40.554375 
L 118.53 40.554375 
z
" style="fill: #eaeaf2"/>
   </g>
   <g id="matplotlib.axis_1">
    <g id="xtick_1">
     <g id="line2d_1">
      <path d="M 242.262934 2080.894375 
L 242.262934 40.554375 
" clip-path="url(#p81367b2f13)" style="fill: none; stroke: #ffffff; stroke-linecap: round"/>
     </g>
     <g id="text_1">
      <!-- 0.0 -->
      <g style="fill: #262626" transform="translate(216.022778 2115.469219)scale(0.33 -0.33)">
       <defs>
        <path id="DejaVuSans-30" d="M 2034 4250 
Q 1547 4250 1301 3770 
Q 1056 3291 1056 2328 
Q 1056 1369 1301 889 
Q 1547 409 2034 409 
Q 2525 409 2770 889 
Q 3016 1369 3016 2328 
Q 3016 3291 2770 3770 
Q 2525 4250 2034 4250 
z
M 2034 4750 
Q 2819 4750 3233 4129 
Q 3647 3509 3647 2328 
Q 3647 1150 3233 529 
Q 2819 -91 2034 -91 
Q 1250 -91 836 529 
Q 422 1150 422 2328 
Q 422 3509 836 4129 
Q 1250 4750 2034 4750 
z
" transform="scale(0.015625)"/>
        <path id="DejaVuSans-2e" d="M 684 794 
L 1344 794 
L 1344 0 
L 684 0 
L 684 794 
z
" transform="scale(0.015625)"/>
       </defs>
       <use xlink:href="#DejaVuSans-30"/>
       <use xlink:href="#DejaVuSans-2e" x="63.623047"/>
       <use xlink:href="#DejaVuSans-30" x="95.410156"/>
      </g>
     </g>
    </g>
    <g id="xtick_2">
     <g id="line2d_2">
      <path d="M 868.758802 2080.894375 
L 868.758802 40.554375 
" clip-path="url(#p81367b2f13)" style="fill: none; stroke: #ffffff; stroke-linecap: round"/>
     </g>
     <g id="text_2">
      <!-- 0.2 -->
      <g style="fill: #262626" transform="translate(842.518645 2115.469219)scale(0.33 -0.33)">
       <defs>
        <path id="DejaVuSans-32" d="M 1228 531 
L 3431 531 
L 3431 0 
L 469 0 
L 469 531 
Q 828 903 1448 1529 
Q 2069 2156 2228 2338 
Q 2531 2678 2651 2914 
Q 2772 3150 2772 3378 
Q 2772 3750 2511 3984 
Q 2250 4219 1831 4219 
Q 1534 4219 1204 4116 
Q 875 4013 500 3803 
L 500 4441 
Q 881 4594 1212 4672 
Q 1544 4750 1819 4750 
Q 2544 4750 2975 4387 
Q 3406 4025 3406 3419 
Q 3406 3131 3298 2873 
Q 3191 2616 2906 2266 
Q 2828 2175 2409 1742 
Q 1991 1309 1228 531 
z
" transform="scale(0.015625)"/>
       </defs>
       <use xlink:href="#DejaVuSans-30"/>
       <use xlink:href="#DejaVuSans-2e" x="63.623047"/>
       <use xlink:href="#DejaVuSans-32" x="95.410156"/>
      </g>
     </g>
    </g>
    <g id="xtick_3">
     <g id="line2d_3">
      <path d="M 1495.254669 2080.894375 
L 1495.254669 40.554375 
" clip-path="url(#p81367b2f13)" style="fill: none; stroke: #ffffff; stroke-linecap: round"/>
     </g>
     <g id="text_3">
      <!-- 0.4 -->
      <g style="fill: #262626" transform="translate(1469.014513 2115.469219)scale(0.33 -0.33)">
       <defs>
        <path id="DejaVuSans-34" d="M 2419 4116 
L 825 1625 
L 2419 1625 
L 2419 4116 
z
M 2253 4666 
L 3047 4666 
L 3047 1625 
L 3713 1625 
L 3713 1100 
L 3047 1100 
L 3047 0 
L 2419 0 
L 2419 1100 
L 313 1100 
L 313 1709 
L 2253 4666 
z
" transform="scale(0.015625)"/>
       </defs>
       <use xlink:href="#DejaVuSans-30"/>
       <use xlink:href="#DejaVuSans-2e" x="63.623047"/>
       <use xlink:href="#DejaVuSans-34" x="95.410156"/>
      </g>
     </g>
    </g>
    <g id="xtick_4">
     <g id="line2d_4">
      <path d="M 2121.750537 2080.894375 
L 2121.750537 40.554375 
" clip-path="url(#p81367b2f13)" style="fill: none; stroke: #ffffff; stroke-linecap: round"/>
     </g>
     <g id="text_4">
      <!-- 0.6 -->
      <g style="fill: #262626" transform="translate(2095.510381 2115.469219)scale(0.33 -0.33)">
       <defs>
        <path id="DejaVuSans-36" d="M 2113 2584 
Q 1688 2584 1439 2293 
Q 1191 2003 1191 1497 
Q 1191 994 1439 701 
Q 1688 409 2113 409 
Q 2538 409 2786 701 
Q 3034 994 3034 1497 
Q 3034 2003 2786 2293 
Q 2538 2584 2113 2584 
z
M 3366 4563 
L 3366 3988 
Q 3128 4100 2886 4159 
Q 2644 4219 2406 4219 
Q 1781 4219 1451 3797 
Q 1122 3375 1075 2522 
Q 1259 2794 1537 2939 
Q 1816 3084 2150 3084 
Q 2853 3084 3261 2657 
Q 3669 2231 3669 1497 
Q 3669 778 3244 343 
Q 2819 -91 2113 -91 
Q 1303 -91 875 529 
Q 447 1150 447 2328 
Q 447 3434 972 4092 
Q 1497 4750 2381 4750 
Q 2619 4750 2861 4703 
Q 3103 4656 3366 4563 
z
" transform="scale(0.015625)"/>
       </defs>
       <use xlink:href="#DejaVuSans-30"/>
       <use xlink:href="#DejaVuSans-2e" x="63.623047"/>
       <use xlink:href="#DejaVuSans-36" x="95.410156"/>
      </g>
     </g>
    </g>
    <g id="xtick_5">
     <g id="line2d_5">
      <path d="M 2748.246405 2080.894375 
L 2748.246405 40.554375 
" clip-path="url(#p81367b2f13)" style="fill: none; stroke: #ffffff; stroke-linecap: round"/>
     </g>
     <g id="text_5">
      <!-- 0.8 -->
      <g style="fill: #262626" transform="translate(2722.006249 2115.469219)scale(0.33 -0.33)">
       <defs>
        <path id="DejaVuSans-38" d="M 2034 2216 
Q 1584 2216 1326 1975 
Q 1069 1734 1069 1313 
Q 1069 891 1326 650 
Q 1584 409 2034 409 
Q 2484 409 2743 651 
Q 3003 894 3003 1313 
Q 3003 1734 2745 1975 
Q 2488 2216 2034 2216 
z
M 1403 2484 
Q 997 2584 770 2862 
Q 544 3141 544 3541 
Q 544 4100 942 4425 
Q 1341 4750 2034 4750 
Q 2731 4750 3128 4425 
Q 3525 4100 3525 3541 
Q 3525 3141 3298 2862 
Q 3072 2584 2669 2484 
Q 3125 2378 3379 2068 
Q 3634 1759 3634 1313 
Q 3634 634 3220 271 
Q 2806 -91 2034 -91 
Q 1263 -91 848 271 
Q 434 634 434 1313 
Q 434 1759 690 2068 
Q 947 2378 1403 2484 
z
M 1172 3481 
Q 1172 3119 1398 2916 
Q 1625 2713 2034 2713 
Q 2441 2713 2670 2916 
Q 2900 3119 2900 3481 
Q 2900 3844 2670 4047 
Q 2441 4250 2034 4250 
Q 1625 4250 1398 4047 
Q 1172 3844 1172 3481 
z
" transform="scale(0.015625)"/>
       </defs>
       <use xlink:href="#DejaVuSans-30"/>
       <use xlink:href="#DejaVuSans-2e" x="63.623047"/>
       <use xlink:href="#DejaVuSans-38" x="95.410156"/>
      </g>
     </g>
    </g>
    <g id="xtick_6">
     <g id="line2d_6">
      <path d="M 3374.742273 2080.894375 
L 3374.742273 40.554375 
" clip-path="url(#p81367b2f13)" style="fill: none; stroke: #ffffff; stroke-linecap: round"/>
     </g>
     <g id="text_6">
      <!-- 1.0 -->
      <g style="fill: #262626" transform="translate(3348.502116 2115.469219)scale(0.33 -0.33)">
       <defs>
        <path id="DejaVuSans-31" d="M 794 531 
L 1825 531 
L 1825 4091 
L 703 3866 
L 703 4441 
L 1819 4666 
L 2450 4666 
L 2450 531 
L 3481 531 
L 3481 0 
L 794 0 
L 794 531 
z
" transform="scale(0.015625)"/>
       </defs>
       <use xlink:href="#DejaVuSans-31"/>
       <use xlink:href="#DejaVuSans-2e" x="63.623047"/>
       <use xlink:href="#DejaVuSans-30" x="95.410156"/>
      </g>
     </g>
    </g>
    <g id="text_7">
     <!-- probability -->
     <g style="fill: #262626" transform="translate(1728.132187 2153.686563)scale(0.36 -0.36)">
      <defs>
       <path id="DejaVuSans-70" d="M 1159 525 
L 1159 -1331 
L 581 -1331 
L 581 3500 
L 1159 3500 
L 1159 2969 
Q 1341 3281 1617 3432 
Q 1894 3584 2278 3584 
Q 2916 3584 3314 3078 
Q 3713 2572 3713 1747 
Q 3713 922 3314 415 
Q 2916 -91 2278 -91 
Q 1894 -91 1617 61 
Q 1341 213 1159 525 
z
M 3116 1747 
Q 3116 2381 2855 2742 
Q 2594 3103 2138 3103 
Q 1681 3103 1420 2742 
Q 1159 2381 1159 1747 
Q 1159 1113 1420 752 
Q 1681 391 2138 391 
Q 2594 391 2855 752 
Q 3116 1113 3116 1747 
z
" transform="scale(0.015625)"/>
       <path id="DejaVuSans-72" d="M 2631 2963 
Q 2534 3019 2420 3045 
Q 2306 3072 2169 3072 
Q 1681 3072 1420 2755 
Q 1159 2438 1159 1844 
L 1159 0 
L 581 0 
L 581 3500 
L 1159 3500 
L 1159 2956 
Q 1341 3275 1631 3429 
Q 1922 3584 2338 3584 
Q 2397 3584 2469 3576 
Q 2541 3569 2628 3553 
L 2631 2963 
z
" transform="scale(0.015625)"/>
       <path id="DejaVuSans-6f" d="M 1959 3097 
Q 1497 3097 1228 2736 
Q 959 2375 959 1747 
Q 959 1119 1226 758 
Q 1494 397 1959 397 
Q 2419 397 2687 759 
Q 2956 1122 2956 1747 
Q 2956 2369 2687 2733 
Q 2419 3097 1959 3097 
z
M 1959 3584 
Q 2709 3584 3137 3096 
Q 3566 2609 3566 1747 
Q 3566 888 3137 398 
Q 2709 -91 1959 -91 
Q 1206 -91 779 398 
Q 353 888 353 1747 
Q 353 2609 779 3096 
Q 1206 3584 1959 3584 
z
" transform="scale(0.015625)"/>
       <path id="DejaVuSans-62" d="M 3116 1747 
Q 3116 2381 2855 2742 
Q 2594 3103 2138 3103 
Q 1681 3103 1420 2742 
Q 1159 2381 1159 1747 
Q 1159 1113 1420 752 
Q 1681 391 2138 391 
Q 2594 391 2855 752 
Q 3116 1113 3116 1747 
z
M 1159 2969 
Q 1341 3281 1617 3432 
Q 1894 3584 2278 3584 
Q 2916 3584 3314 3078 
Q 3713 2572 3713 1747 
Q 3713 922 3314 415 
Q 2916 -91 2278 -91 
Q 1894 -91 1617 61 
Q 1341 213 1159 525 
L 1159 0 
L 581 0 
L 581 4863 
L 1159 4863 
L 1159 2969 
z
" transform="scale(0.015625)"/>
       <path id="DejaVuSans-61" d="M 2194 1759 
Q 1497 1759 1228 1600 
Q 959 1441 959 1056 
Q 959 750 1161 570 
Q 1363 391 1709 391 
Q 2188 391 2477 730 
Q 2766 1069 2766 1631 
L 2766 1759 
L 2194 1759 
z
M 3341 1997 
L 3341 0 
L 2766 0 
L 2766 531 
Q 2569 213 2275 61 
Q 1981 -91 1556 -91 
Q 1019 -91 701 211 
Q 384 513 384 1019 
Q 384 1609 779 1909 
Q 1175 2209 1959 2209 
L 2766 2209 
L 2766 2266 
Q 2766 2663 2505 2880 
Q 2244 3097 1772 3097 
Q 1472 3097 1187 3025 
Q 903 2953 641 2809 
L 641 3341 
Q 956 3463 1253 3523 
Q 1550 3584 1831 3584 
Q 2591 3584 2966 3190 
Q 3341 2797 3341 1997 
z
" transform="scale(0.015625)"/>
       <path id="DejaVuSans-69" d="M 603 3500 
L 1178 3500 
L 1178 0 
L 603 0 
L 603 3500 
z
M 603 4863 
L 1178 4863 
L 1178 4134 
L 603 4134 
L 603 4863 
z
" transform="scale(0.015625)"/>
       <path id="DejaVuSans-6c" d="M 603 4863 
L 1178 4863 
L 1178 0 
L 603 0 
L 603 4863 
z
" transform="scale(0.015625)"/>
       <path id="DejaVuSans-74" d="M 1172 4494 
L 1172 3500 
L 2356 3500 
L 2356 3053 
L 1172 3053 
L 1172 1153 
Q 1172 725 1289 603 
Q 1406 481 1766 481 
L 2356 481 
L 2356 0 
L 1766 0 
Q 1100 0 847 248 
Q 594 497 594 1153 
L 594 3053 
L 172 3053 
L 172 3500 
L 594 3500 
L 594 4494 
L 1172 4494 
z
" transform="scale(0.015625)"/>
       <path id="DejaVuSans-79" d="M 2059 -325 
Q 1816 -950 1584 -1140 
Q 1353 -1331 966 -1331 
L 506 -1331 
L 506 -850 
L 844 -850 
Q 1081 -850 1212 -737 
Q 1344 -625 1503 -206 
L 1606 56 
L 191 3500 
L 800 3500 
L 1894 763 
L 2988 3500 
L 3597 3500 
L 2059 -325 
z
" transform="scale(0.015625)"/>
      </defs>
      <use xlink:href="#DejaVuSans-70"/>
      <use xlink:href="#DejaVuSans-72" x="63.476562"/>
      <use xlink:href="#DejaVuSans-6f" x="102.339844"/>
      <use xlink:href="#DejaVuSans-62" x="163.521484"/>
      <use xlink:href="#DejaVuSans-61" x="226.998047"/>
      <use xlink:href="#DejaVuSans-62" x="288.277344"/>
      <use xlink:href="#DejaVuSans-69" x="351.753906"/>
      <use xlink:href="#DejaVuSans-6c" x="379.537109"/>
      <use xlink:href="#DejaVuSans-69" x="407.320312"/>
      <use xlink:href="#DejaVuSans-74" x="435.103516"/>
      <use xlink:href="#DejaVuSans-79" x="474.3125"/>
     </g>
    </g>
   </g>
   <g id="matplotlib.axis_2">
    <g id="ytick_1">
     <g id="line2d_7">
      <path d="M 118.53 2080.894375 
L 3529.8 2080.894375 
" clip-path="url(#p81367b2f13)" style="fill: none; stroke: #ffffff; stroke-linecap: round"/>
     </g>
     <g id="text_8">
      <!-- 0 -->
      <g style="fill: #262626" transform="translate(88.03375 2093.431797)scale(0.33 -0.33)">
       <use xlink:href="#DejaVuSans-30"/>
      </g>
     </g>
    </g>
    <g id="ytick_2">
     <g id="line2d_8">
      <path d="M 118.53 1802.102273 
L 3529.8 1802.102273 
" clip-path="url(#p81367b2f13)" style="fill: none; stroke: #ffffff; stroke-linecap: round"/>
     </g>
     <g id="text_9">
      <!-- 100 -->
      <g style="fill: #262626" transform="translate(46.04125 1814.639695)scale(0.33 -0.33)">
       <use xlink:href="#DejaVuSans-31"/>
       <use xlink:href="#DejaVuSans-30" x="63.623047"/>
       <use xlink:href="#DejaVuSans-30" x="127.246094"/>
      </g>
     </g>
    </g>
    <g id="ytick_3">
     <g id="line2d_9">
      <path d="M 118.53 1523.310171 
L 3529.8 1523.310171 
" clip-path="url(#p81367b2f13)" style="fill: none; stroke: #ffffff; stroke-linecap: round"/>
     </g>
     <g id="text_10">
      <!-- 200 -->
      <g style="fill: #262626" transform="translate(46.04125 1535.847592)scale(0.33 -0.33)">
       <use xlink:href="#DejaVuSans-32"/>
       <use xlink:href="#DejaVuSans-30" x="63.623047"/>
       <use xlink:href="#DejaVuSans-30" x="127.246094"/>
      </g>
     </g>
    </g>
    <g id="ytick_4">
     <g id="line2d_10">
      <path d="M 118.53 1244.518068 
L 3529.8 1244.518068 
" clip-path="url(#p81367b2f13)" style="fill: none; stroke: #ffffff; stroke-linecap: round"/>
     </g>
     <g id="text_11">
      <!-- 300 -->
      <g style="fill: #262626" transform="translate(46.04125 1257.05549)scale(0.33 -0.33)">
       <defs>
        <path id="DejaVuSans-33" d="M 2597 2516 
Q 3050 2419 3304 2112 
Q 3559 1806 3559 1356 
Q 3559 666 3084 287 
Q 2609 -91 1734 -91 
Q 1441 -91 1130 -33 
Q 819 25 488 141 
L 488 750 
Q 750 597 1062 519 
Q 1375 441 1716 441 
Q 2309 441 2620 675 
Q 2931 909 2931 1356 
Q 2931 1769 2642 2001 
Q 2353 2234 1838 2234 
L 1294 2234 
L 1294 2753 
L 1863 2753 
Q 2328 2753 2575 2939 
Q 2822 3125 2822 3475 
Q 2822 3834 2567 4026 
Q 2313 4219 1838 4219 
Q 1578 4219 1281 4162 
Q 984 4106 628 3988 
L 628 4550 
Q 988 4650 1302 4700 
Q 1616 4750 1894 4750 
Q 2613 4750 3031 4423 
Q 3450 4097 3450 3541 
Q 3450 3153 3228 2886 
Q 3006 2619 2597 2516 
z
" transform="scale(0.015625)"/>
       </defs>
       <use xlink:href="#DejaVuSans-33"/>
       <use xlink:href="#DejaVuSans-30" x="63.623047"/>
       <use xlink:href="#DejaVuSans-30" x="127.246094"/>
      </g>
     </g>
    </g>
    <g id="ytick_5">
     <g id="line2d_11">
      <path d="M 118.53 965.725966 
L 3529.8 965.725966 
" clip-path="url(#p81367b2f13)" style="fill: none; stroke: #ffffff; stroke-linecap: round"/>
     </g>
     <g id="text_12">
      <!-- 400 -->
      <g style="fill: #262626" transform="translate(46.04125 978.263388)scale(0.33 -0.33)">
       <use xlink:href="#DejaVuSans-34"/>
       <use xlink:href="#DejaVuSans-30" x="63.623047"/>
       <use xlink:href="#DejaVuSans-30" x="127.246094"/>
      </g>
     </g>
    </g>
    <g id="ytick_6">
     <g id="line2d_12">
      <path d="M 118.53 686.933864 
L 3529.8 686.933864 
" clip-path="url(#p81367b2f13)" style="fill: none; stroke: #ffffff; stroke-linecap: round"/>
     </g>
     <g id="text_13">
      <!-- 500 -->
      <g style="fill: #262626" transform="translate(46.04125 699.471286)scale(0.33 -0.33)">
       <defs>
        <path id="DejaVuSans-35" d="M 691 4666 
L 3169 4666 
L 3169 4134 
L 1269 4134 
L 1269 2991 
Q 1406 3038 1543 3061 
Q 1681 3084 1819 3084 
Q 2600 3084 3056 2656 
Q 3513 2228 3513 1497 
Q 3513 744 3044 326 
Q 2575 -91 1722 -91 
Q 1428 -91 1123 -41 
Q 819 9 494 109 
L 494 744 
Q 775 591 1075 516 
Q 1375 441 1709 441 
Q 2250 441 2565 725 
Q 2881 1009 2881 1497 
Q 2881 1984 2565 2268 
Q 2250 2553 1709 2553 
Q 1456 2553 1204 2497 
Q 953 2441 691 2322 
L 691 4666 
z
" transform="scale(0.015625)"/>
       </defs>
       <use xlink:href="#DejaVuSans-35"/>
       <use xlink:href="#DejaVuSans-30" x="63.623047"/>
       <use xlink:href="#DejaVuSans-30" x="127.246094"/>
      </g>
     </g>
    </g>
    <g id="ytick_7">
     <g id="line2d_13">
      <path d="M 118.53 408.141762 
L 3529.8 408.141762 
" clip-path="url(#p81367b2f13)" style="fill: none; stroke: #ffffff; stroke-linecap: round"/>
     </g>
     <g id="text_14">
      <!-- 600 -->
      <g style="fill: #262626" transform="translate(46.04125 420.679184)scale(0.33 -0.33)">
       <use xlink:href="#DejaVuSans-36"/>
       <use xlink:href="#DejaVuSans-30" x="63.623047"/>
       <use xlink:href="#DejaVuSans-30" x="127.246094"/>
      </g>
     </g>
    </g>
    <g id="ytick_8">
     <g id="line2d_14">
      <path d="M 118.53 129.34966 
L 3529.8 129.34966 
" clip-path="url(#p81367b2f13)" style="fill: none; stroke: #ffffff; stroke-linecap: round"/>
     </g>
     <g id="text_15">
      <!-- 700 -->
      <g style="fill: #262626" transform="translate(46.04125 141.887081)scale(0.33 -0.33)">
       <defs>
        <path id="DejaVuSans-37" d="M 525 4666 
L 3525 4666 
L 3525 4397 
L 1831 0 
L 1172 0 
L 2766 4134 
L 525 4134 
L 525 4666 
z
" transform="scale(0.015625)"/>
       </defs>
       <use xlink:href="#DejaVuSans-37"/>
       <use xlink:href="#DejaVuSans-30" x="63.623047"/>
       <use xlink:href="#DejaVuSans-30" x="127.246094"/>
      </g>
     </g>
    </g>
    <g id="text_16">
     <!-- Count -->
     <g style="fill: #262626" transform="translate(34.554375 1114.17875)rotate(-90)scale(0.36 -0.36)">
      <defs>
       <path id="DejaVuSans-43" d="M 4122 4306 
L 4122 3641 
Q 3803 3938 3442 4084 
Q 3081 4231 2675 4231 
Q 1875 4231 1450 3742 
Q 1025 3253 1025 2328 
Q 1025 1406 1450 917 
Q 1875 428 2675 428 
Q 3081 428 3442 575 
Q 3803 722 4122 1019 
L 4122 359 
Q 3791 134 3420 21 
Q 3050 -91 2638 -91 
Q 1578 -91 968 557 
Q 359 1206 359 2328 
Q 359 3453 968 4101 
Q 1578 4750 2638 4750 
Q 3056 4750 3426 4639 
Q 3797 4528 4122 4306 
z
" transform="scale(0.015625)"/>
       <path id="DejaVuSans-75" d="M 544 1381 
L 544 3500 
L 1119 3500 
L 1119 1403 
Q 1119 906 1312 657 
Q 1506 409 1894 409 
Q 2359 409 2629 706 
Q 2900 1003 2900 1516 
L 2900 3500 
L 3475 3500 
L 3475 0 
L 2900 0 
L 2900 538 
Q 2691 219 2414 64 
Q 2138 -91 1772 -91 
Q 1169 -91 856 284 
Q 544 659 544 1381 
z
M 1991 3584 
L 1991 3584 
z
" transform="scale(0.015625)"/>
       <path id="DejaVuSans-6e" d="M 3513 2113 
L 3513 0 
L 2938 0 
L 2938 2094 
Q 2938 2591 2744 2837 
Q 2550 3084 2163 3084 
Q 1697 3084 1428 2787 
Q 1159 2491 1159 1978 
L 1159 0 
L 581 0 
L 581 3500 
L 1159 3500 
L 1159 2956 
Q 1366 3272 1645 3428 
Q 1925 3584 2291 3584 
Q 2894 3584 3203 3211 
Q 3513 2838 3513 2113 
z
" transform="scale(0.015625)"/>
      </defs>
      <use xlink:href="#DejaVuSans-43"/>
      <use xlink:href="#DejaVuSans-6f" x="69.824219"/>
      <use xlink:href="#DejaVuSans-75" x="131.005859"/>
      <use xlink:href="#DejaVuSans-6e" x="194.384766"/>
      <use xlink:href="#DejaVuSans-74" x="257.763672"/>
     </g>
    </g>
   </g>
   <g id="patch_3">
    <path d="M 273.587727 2080.894375 
L 304.912521 2080.894375 
L 304.912521 2080.894375 
L 273.587727 2080.894375 
z
" clip-path="url(#p81367b2f13)" style="fill: #ffa500; fill-opacity: 0.5; stroke: #ffffff; stroke-linejoin: miter"/>
   </g>
   <g id="patch_4">
    <path d="M 304.912521 2080.894375 
L 336.237314 2080.894375 
L 336.237314 2080.894375 
L 304.912521 2080.894375 
z
" clip-path="url(#p81367b2f13)" style="fill: #ffa500; fill-opacity: 0.5; stroke: #ffffff; stroke-linejoin: miter"/>
   </g>
   <g id="patch_5">
    <path d="M 336.237314 2080.894375 
L 367.562107 2080.894375 
L 367.562107 2080.894375 
L 336.237314 2080.894375 
z
" clip-path="url(#p81367b2f13)" style="fill: #ffa500; fill-opacity: 0.5; stroke: #ffffff; stroke-linejoin: miter"/>
   </g>
   <g id="patch_6">
    <path d="M 367.562107 2080.894375 
L 398.886901 2080.894375 
L 398.886901 2078.106454 
L 367.562107 2078.106454 
z
" clip-path="url(#p81367b2f13)" style="fill: #ffa500; fill-opacity: 0.5; stroke: #ffffff; stroke-linejoin: miter"/>
   </g>
   <g id="patch_7">
    <path d="M 398.886901 2080.894375 
L 430.211694 2080.894375 
L 430.211694 2080.894375 
L 398.886901 2080.894375 
z
" clip-path="url(#p81367b2f13)" style="fill: #ffa500; fill-opacity: 0.5; stroke: #ffffff; stroke-linejoin: miter"/>
   </g>
   <g id="patch_8">
    <path d="M 430.211694 2080.894375 
L 461.536488 2080.894375 
L 461.536488 2080.894375 
L 430.211694 2080.894375 
z
" clip-path="url(#p81367b2f13)" style="fill: #ffa500; fill-opacity: 0.5; stroke: #ffffff; stroke-linejoin: miter"/>
   </g>
   <g id="patch_9">
    <path d="M 461.536488 2080.894375 
L 492.861281 2080.894375 
L 492.861281 2080.894375 
L 461.536488 2080.894375 
z
" clip-path="url(#p81367b2f13)" style="fill: #ffa500; fill-opacity: 0.5; stroke: #ffffff; stroke-linejoin: miter"/>
   </g>
   <g id="patch_10">
    <path d="M 492.861281 2080.894375 
L 524.186074 2080.894375 
L 524.186074 2080.894375 
L 492.861281 2080.894375 
z
" clip-path="url(#p81367b2f13)" style="fill: #ffa500; fill-opacity: 0.5; stroke: #ffffff; stroke-linejoin: miter"/>
   </g>
   <g id="patch_11">
    <path d="M 524.186074 2080.894375 
L 555.510868 2080.894375 
L 555.510868 2080.894375 
L 524.186074 2080.894375 
z
" clip-path="url(#p81367b2f13)" style="fill: #ffa500; fill-opacity: 0.5; stroke: #ffffff; stroke-linejoin: miter"/>
   </g>
   <g id="patch_12">
    <path d="M 555.510868 2080.894375 
L 586.835661 2080.894375 
L 586.835661 2080.894375 
L 555.510868 2080.894375 
z
" clip-path="url(#p81367b2f13)" style="fill: #ffa500; fill-opacity: 0.5; stroke: #ffffff; stroke-linejoin: miter"/>
   </g>
   <g id="patch_13">
    <path d="M 586.835661 2080.894375 
L 618.160455 2080.894375 
L 618.160455 2080.894375 
L 586.835661 2080.894375 
z
" clip-path="url(#p81367b2f13)" style="fill: #ffa500; fill-opacity: 0.5; stroke: #ffffff; stroke-linejoin: miter"/>
   </g>
   <g id="patch_14">
    <path d="M 618.160455 2080.894375 
L 649.485248 2080.894375 
L 649.485248 2080.894375 
L 618.160455 2080.894375 
z
" clip-path="url(#p81367b2f13)" style="fill: #ffa500; fill-opacity: 0.5; stroke: #ffffff; stroke-linejoin: miter"/>
   </g>
   <g id="patch_15">
    <path d="M 649.485248 2080.894375 
L 680.810041 2080.894375 
L 680.810041 2080.894375 
L 649.485248 2080.894375 
z
" clip-path="url(#p81367b2f13)" style="fill: #ffa500; fill-opacity: 0.5; stroke: #ffffff; stroke-linejoin: miter"/>
   </g>
   <g id="patch_16">
    <path d="M 680.810041 2080.894375 
L 712.134835 2080.894375 
L 712.134835 2078.106454 
L 680.810041 2078.106454 
z
" clip-path="url(#p81367b2f13)" style="fill: #ffa500; fill-opacity: 0.5; stroke: #ffffff; stroke-linejoin: miter"/>
   </g>
   <g id="patch_17">
    <path d="M 712.134835 2080.894375 
L 743.459628 2080.894375 
L 743.459628 2080.894375 
L 712.134835 2080.894375 
z
" clip-path="url(#p81367b2f13)" style="fill: #ffa500; fill-opacity: 0.5; stroke: #ffffff; stroke-linejoin: miter"/>
   </g>
   <g id="patch_18">
    <path d="M 743.459628 2080.894375 
L 774.784421 2080.894375 
L 774.784421 2078.106454 
L 743.459628 2078.106454 
z
" clip-path="url(#p81367b2f13)" style="fill: #ffa500; fill-opacity: 0.5; stroke: #ffffff; stroke-linejoin: miter"/>
   </g>
   <g id="patch_19">
    <path d="M 774.784421 2080.894375 
L 806.109215 2080.894375 
L 806.109215 2080.894375 
L 774.784421 2080.894375 
z
" clip-path="url(#p81367b2f13)" style="fill: #ffa500; fill-opacity: 0.5; stroke: #ffffff; stroke-linejoin: miter"/>
   </g>
   <g id="patch_20">
    <path d="M 806.109215 2080.894375 
L 837.434008 2080.894375 
L 837.434008 2080.894375 
L 806.109215 2080.894375 
z
" clip-path="url(#p81367b2f13)" style="fill: #ffa500; fill-opacity: 0.5; stroke: #ffffff; stroke-linejoin: miter"/>
   </g>
   <g id="patch_21">
    <path d="M 837.434008 2080.894375 
L 868.758802 2080.894375 
L 868.758802 2080.894375 
L 837.434008 2080.894375 
z
" clip-path="url(#p81367b2f13)" style="fill: #ffa500; fill-opacity: 0.5; stroke: #ffffff; stroke-linejoin: miter"/>
   </g>
   <g id="patch_22">
    <path d="M 868.758802 2080.894375 
L 900.083595 2080.894375 
L 900.083595 2080.894375 
L 868.758802 2080.894375 
z
" clip-path="url(#p81367b2f13)" style="fill: #ffa500; fill-opacity: 0.5; stroke: #ffffff; stroke-linejoin: miter"/>
   </g>
   <g id="patch_23">
    <path d="M 900.083595 2080.894375 
L 931.408388 2080.894375 
L 931.408388 2080.894375 
L 900.083595 2080.894375 
z
" clip-path="url(#p81367b2f13)" style="fill: #ffa500; fill-opacity: 0.5; stroke: #ffffff; stroke-linejoin: miter"/>
   </g>
   <g id="patch_24">
    <path d="M 931.408388 2080.894375 
L 962.733182 2080.894375 
L 962.733182 2072.530612 
L 931.408388 2072.530612 
z
" clip-path="url(#p81367b2f13)" style="fill: #ffa500; fill-opacity: 0.5; stroke: #ffffff; stroke-linejoin: miter"/>
   </g>
   <g id="patch_25">
    <path d="M 962.733182 2080.894375 
L 994.057975 2080.894375 
L 994.057975 2078.106454 
L 962.733182 2078.106454 
z
" clip-path="url(#p81367b2f13)" style="fill: #ffa500; fill-opacity: 0.5; stroke: #ffffff; stroke-linejoin: miter"/>
   </g>
   <g id="patch_26">
    <path d="M 994.057975 2080.894375 
L 1025.382769 2080.894375 
L 1025.382769 2078.106454 
L 994.057975 2078.106454 
z
" clip-path="url(#p81367b2f13)" style="fill: #ffa500; fill-opacity: 0.5; stroke: #ffffff; stroke-linejoin: miter"/>
   </g>
   <g id="patch_27">
    <path d="M 1025.382769 2080.894375 
L 1056.707562 2080.894375 
L 1056.707562 2078.106454 
L 1025.382769 2078.106454 
z
" clip-path="url(#p81367b2f13)" style="fill: #ffa500; fill-opacity: 0.5; stroke: #ffffff; stroke-linejoin: miter"/>
   </g>
   <g id="patch_28">
    <path d="M 1056.707562 2080.894375 
L 1088.032355 2080.894375 
L 1088.032355 2047.439323 
L 1056.707562 2047.439323 
z
" clip-path="url(#p81367b2f13)" style="fill: #ffa500; fill-opacity: 0.5; stroke: #ffffff; stroke-linejoin: miter"/>
   </g>
   <g id="patch_29">
    <path d="M 1088.032355 2080.894375 
L 1119.357149 2080.894375 
L 1119.357149 2053.015165 
L 1088.032355 2053.015165 
z
" clip-path="url(#p81367b2f13)" style="fill: #ffa500; fill-opacity: 0.5; stroke: #ffffff; stroke-linejoin: miter"/>
   </g>
   <g id="patch_30">
    <path d="M 1119.357149 2080.894375 
L 1150.681942 2080.894375 
L 1150.681942 2030.711797 
L 1119.357149 2030.711797 
z
" clip-path="url(#p81367b2f13)" style="fill: #ffa500; fill-opacity: 0.5; stroke: #ffffff; stroke-linejoin: miter"/>
   </g>
   <g id="patch_31">
    <path d="M 1150.681942 2080.894375 
L 1182.006736 2080.894375 
L 1182.006736 2000.044665 
L 1150.681942 2000.044665 
z
" clip-path="url(#p81367b2f13)" style="fill: #ffa500; fill-opacity: 0.5; stroke: #ffffff; stroke-linejoin: miter"/>
   </g>
   <g id="patch_32">
    <path d="M 1182.006736 2080.894375 
L 1213.331529 2080.894375 
L 1213.331529 2064.166849 
L 1182.006736 2064.166849 
z
" clip-path="url(#p81367b2f13)" style="fill: #ffa500; fill-opacity: 0.5; stroke: #ffffff; stroke-linejoin: miter"/>
   </g>
   <g id="patch_33">
    <path d="M 1213.331529 2080.894375 
L 1244.656322 2080.894375 
L 1244.656322 2058.591007 
L 1213.331529 2058.591007 
z
" clip-path="url(#p81367b2f13)" style="fill: #ffa500; fill-opacity: 0.5; stroke: #ffffff; stroke-linejoin: miter"/>
   </g>
   <g id="patch_34">
    <path d="M 1244.656322 2080.894375 
L 1275.981116 2080.894375 
L 1275.981116 2066.95477 
L 1244.656322 2066.95477 
z
" clip-path="url(#p81367b2f13)" style="fill: #ffa500; fill-opacity: 0.5; stroke: #ffffff; stroke-linejoin: miter"/>
   </g>
   <g id="patch_35">
    <path d="M 1275.981116 2080.894375 
L 1307.305909 2080.894375 
L 1307.305909 2078.106454 
L 1275.981116 2078.106454 
z
" clip-path="url(#p81367b2f13)" style="fill: #ffa500; fill-opacity: 0.5; stroke: #ffffff; stroke-linejoin: miter"/>
   </g>
   <g id="patch_36">
    <path d="M 1307.305909 2080.894375 
L 1338.630702 2080.894375 
L 1338.630702 2080.894375 
L 1307.305909 2080.894375 
z
" clip-path="url(#p81367b2f13)" style="fill: #ffa500; fill-opacity: 0.5; stroke: #ffffff; stroke-linejoin: miter"/>
   </g>
   <g id="patch_37">
    <path d="M 1338.630702 2080.894375 
L 1369.955496 2080.894375 
L 1369.955496 2080.894375 
L 1338.630702 2080.894375 
z
" clip-path="url(#p81367b2f13)" style="fill: #ffa500; fill-opacity: 0.5; stroke: #ffffff; stroke-linejoin: miter"/>
   </g>
   <g id="patch_38">
    <path d="M 1369.955496 2080.894375 
L 1401.280289 2080.894375 
L 1401.280289 2080.894375 
L 1369.955496 2080.894375 
z
" clip-path="url(#p81367b2f13)" style="fill: #ffa500; fill-opacity: 0.5; stroke: #ffffff; stroke-linejoin: miter"/>
   </g>
   <g id="patch_39">
    <path d="M 1401.280289 2080.894375 
L 1432.605083 2080.894375 
L 1432.605083 2075.318533 
L 1401.280289 2075.318533 
z
" clip-path="url(#p81367b2f13)" style="fill: #ffa500; fill-opacity: 0.5; stroke: #ffffff; stroke-linejoin: miter"/>
   </g>
   <g id="patch_40">
    <path d="M 1432.605083 2080.894375 
L 1463.929876 2080.894375 
L 1463.929876 2030.711797 
L 1432.605083 2030.711797 
z
" clip-path="url(#p81367b2f13)" style="fill: #ffa500; fill-opacity: 0.5; stroke: #ffffff; stroke-linejoin: miter"/>
   </g>
   <g id="patch_41">
    <path d="M 1463.929876 2080.894375 
L 1495.254669 2080.894375 
L 1495.254669 2072.530612 
L 1463.929876 2072.530612 
z
" clip-path="url(#p81367b2f13)" style="fill: #ffa500; fill-opacity: 0.5; stroke: #ffffff; stroke-linejoin: miter"/>
   </g>
   <g id="patch_42">
    <path d="M 1495.254669 2080.894375 
L 1526.579463 2080.894375 
L 1526.579463 2080.894375 
L 1495.254669 2080.894375 
z
" clip-path="url(#p81367b2f13)" style="fill: #ffa500; fill-opacity: 0.5; stroke: #ffffff; stroke-linejoin: miter"/>
   </g>
   <g id="patch_43">
    <path d="M 1526.579463 2080.894375 
L 1557.904256 2080.894375 
L 1557.904256 2078.106454 
L 1526.579463 2078.106454 
z
" clip-path="url(#p81367b2f13)" style="fill: #ffa500; fill-opacity: 0.5; stroke: #ffffff; stroke-linejoin: miter"/>
   </g>
   <g id="patch_44">
    <path d="M 1557.904256 2080.894375 
L 1589.22905 2080.894375 
L 1589.22905 2069.742691 
L 1557.904256 2069.742691 
z
" clip-path="url(#p81367b2f13)" style="fill: #ffa500; fill-opacity: 0.5; stroke: #ffffff; stroke-linejoin: miter"/>
   </g>
   <g id="patch_45">
    <path d="M 1589.22905 2080.894375 
L 1620.553843 2080.894375 
L 1620.553843 2078.106454 
L 1589.22905 2078.106454 
z
" clip-path="url(#p81367b2f13)" style="fill: #ffa500; fill-opacity: 0.5; stroke: #ffffff; stroke-linejoin: miter"/>
   </g>
   <g id="patch_46">
    <path d="M 1620.553843 2080.894375 
L 1651.878636 2080.894375 
L 1651.878636 2072.530612 
L 1620.553843 2072.530612 
z
" clip-path="url(#p81367b2f13)" style="fill: #ffa500; fill-opacity: 0.5; stroke: #ffffff; stroke-linejoin: miter"/>
   </g>
   <g id="patch_47">
    <path d="M 1651.878636 2080.894375 
L 1683.20343 2080.894375 
L 1683.20343 2080.894375 
L 1651.878636 2080.894375 
z
" clip-path="url(#p81367b2f13)" style="fill: #ffa500; fill-opacity: 0.5; stroke: #ffffff; stroke-linejoin: miter"/>
   </g>
   <g id="patch_48">
    <path d="M 1683.20343 2080.894375 
L 1714.528223 2080.894375 
L 1714.528223 2078.106454 
L 1683.20343 2078.106454 
z
" clip-path="url(#p81367b2f13)" style="fill: #ffa500; fill-opacity: 0.5; stroke: #ffffff; stroke-linejoin: miter"/>
   </g>
   <g id="patch_49">
    <path d="M 1714.528223 2080.894375 
L 1745.853017 2080.894375 
L 1745.853017 2080.894375 
L 1714.528223 2080.894375 
z
" clip-path="url(#p81367b2f13)" style="fill: #ffa500; fill-opacity: 0.5; stroke: #ffffff; stroke-linejoin: miter"/>
   </g>
   <g id="patch_50">
    <path d="M 1745.853017 2080.894375 
L 1777.17781 2080.894375 
L 1777.17781 2078.106454 
L 1745.853017 2078.106454 
z
" clip-path="url(#p81367b2f13)" style="fill: #ffa500; fill-opacity: 0.5; stroke: #ffffff; stroke-linejoin: miter"/>
   </g>
   <g id="patch_51">
    <path d="M 1777.17781 2080.894375 
L 1808.502603 2080.894375 
L 1808.502603 2078.106454 
L 1777.17781 2078.106454 
z
" clip-path="url(#p81367b2f13)" style="fill: #ffa500; fill-opacity: 0.5; stroke: #ffffff; stroke-linejoin: miter"/>
   </g>
   <g id="patch_52">
    <path d="M 1808.502603 2080.894375 
L 1839.827397 2080.894375 
L 1839.827397 2080.894375 
L 1808.502603 2080.894375 
z
" clip-path="url(#p81367b2f13)" style="fill: #ffa500; fill-opacity: 0.5; stroke: #ffffff; stroke-linejoin: miter"/>
   </g>
   <g id="patch_53">
    <path d="M 1839.827397 2080.894375 
L 1871.15219 2080.894375 
L 1871.15219 2072.530612 
L 1839.827397 2072.530612 
z
" clip-path="url(#p81367b2f13)" style="fill: #ffa500; fill-opacity: 0.5; stroke: #ffffff; stroke-linejoin: miter"/>
   </g>
   <g id="patch_54">
    <path d="M 1871.15219 2080.894375 
L 1902.476983 2080.894375 
L 1902.476983 2080.894375 
L 1871.15219 2080.894375 
z
" clip-path="url(#p81367b2f13)" style="fill: #ffa500; fill-opacity: 0.5; stroke: #ffffff; stroke-linejoin: miter"/>
   </g>
   <g id="patch_55">
    <path d="M 1902.476983 2080.894375 
L 1933.801777 2080.894375 
L 1933.801777 2080.894375 
L 1902.476983 2080.894375 
z
" clip-path="url(#p81367b2f13)" style="fill: #ffa500; fill-opacity: 0.5; stroke: #ffffff; stroke-linejoin: miter"/>
   </g>
   <g id="patch_56">
    <path d="M 1933.801777 2080.894375 
L 1965.12657 2080.894375 
L 1965.12657 2080.894375 
L 1933.801777 2080.894375 
z
" clip-path="url(#p81367b2f13)" style="fill: #ffa500; fill-opacity: 0.5; stroke: #ffffff; stroke-linejoin: miter"/>
   </g>
   <g id="patch_57">
    <path d="M 1965.12657 2080.894375 
L 1996.451364 2080.894375 
L 1996.451364 2080.894375 
L 1965.12657 2080.894375 
z
" clip-path="url(#p81367b2f13)" style="fill: #ffa500; fill-opacity: 0.5; stroke: #ffffff; stroke-linejoin: miter"/>
   </g>
   <g id="patch_58">
    <path d="M 1996.451364 2080.894375 
L 2027.776157 2080.894375 
L 2027.776157 2075.318533 
L 1996.451364 2075.318533 
z
" clip-path="url(#p81367b2f13)" style="fill: #ffa500; fill-opacity: 0.5; stroke: #ffffff; stroke-linejoin: miter"/>
   </g>
   <g id="patch_59">
    <path d="M 2027.776157 2080.894375 
L 2059.10095 2080.894375 
L 2059.10095 2078.106454 
L 2027.776157 2078.106454 
z
" clip-path="url(#p81367b2f13)" style="fill: #ffa500; fill-opacity: 0.5; stroke: #ffffff; stroke-linejoin: miter"/>
   </g>
   <g id="patch_60">
    <path d="M 2059.10095 2080.894375 
L 2090.425744 2080.894375 
L 2090.425744 2080.894375 
L 2059.10095 2080.894375 
z
" clip-path="url(#p81367b2f13)" style="fill: #ffa500; fill-opacity: 0.5; stroke: #ffffff; stroke-linejoin: miter"/>
   </g>
   <g id="patch_61">
    <path d="M 2090.425744 2080.894375 
L 2121.750537 2080.894375 
L 2121.750537 2080.894375 
L 2090.425744 2080.894375 
z
" clip-path="url(#p81367b2f13)" style="fill: #ffa500; fill-opacity: 0.5; stroke: #ffffff; stroke-linejoin: miter"/>
   </g>
   <g id="patch_62">
    <path d="M 2121.750537 2080.894375 
L 2153.075331 2080.894375 
L 2153.075331 2080.894375 
L 2121.750537 2080.894375 
z
" clip-path="url(#p81367b2f13)" style="fill: #ffa500; fill-opacity: 0.5; stroke: #ffffff; stroke-linejoin: miter"/>
   </g>
   <g id="patch_63">
    <path d="M 2153.075331 2080.894375 
L 2184.400124 2080.894375 
L 2184.400124 2078.106454 
L 2153.075331 2078.106454 
z
" clip-path="url(#p81367b2f13)" style="fill: #ffa500; fill-opacity: 0.5; stroke: #ffffff; stroke-linejoin: miter"/>
   </g>
   <g id="patch_64">
    <path d="M 2184.400124 2080.894375 
L 2215.724917 2080.894375 
L 2215.724917 2080.894375 
L 2184.400124 2080.894375 
z
" clip-path="url(#p81367b2f13)" style="fill: #ffa500; fill-opacity: 0.5; stroke: #ffffff; stroke-linejoin: miter"/>
   </g>
   <g id="patch_65">
    <path d="M 2215.724917 2080.894375 
L 2247.049711 2080.894375 
L 2247.049711 2066.95477 
L 2215.724917 2066.95477 
z
" clip-path="url(#p81367b2f13)" style="fill: #ffa500; fill-opacity: 0.5; stroke: #ffffff; stroke-linejoin: miter"/>
   </g>
   <g id="patch_66">
    <path d="M 2247.049711 2080.894375 
L 2278.374504 2080.894375 
L 2278.374504 2061.378928 
L 2247.049711 2061.378928 
z
" clip-path="url(#p81367b2f13)" style="fill: #ffa500; fill-opacity: 0.5; stroke: #ffffff; stroke-linejoin: miter"/>
   </g>
   <g id="patch_67">
    <path d="M 2278.374504 2080.894375 
L 2309.699298 2080.894375 
L 2309.699298 2027.923876 
L 2278.374504 2027.923876 
z
" clip-path="url(#p81367b2f13)" style="fill: #ffa500; fill-opacity: 0.5; stroke: #ffffff; stroke-linejoin: miter"/>
   </g>
   <g id="patch_68">
    <path d="M 2309.699298 2080.894375 
L 2341.024091 2080.894375 
L 2341.024091 1411.79333 
L 2309.699298 1411.79333 
z
" clip-path="url(#p81367b2f13)" style="fill: #ffa500; fill-opacity: 0.5; stroke: #ffffff; stroke-linejoin: miter"/>
   </g>
   <g id="patch_69">
    <path d="M 2341.024091 2080.894375 
L 2372.348884 2080.894375 
L 2372.348884 2036.287639 
L 2341.024091 2036.287639 
z
" clip-path="url(#p81367b2f13)" style="fill: #ffa500; fill-opacity: 0.5; stroke: #ffffff; stroke-linejoin: miter"/>
   </g>
   <g id="patch_70">
    <path d="M 2372.348884 2080.894375 
L 2403.673678 2080.894375 
L 2403.673678 2078.106454 
L 2372.348884 2078.106454 
z
" clip-path="url(#p81367b2f13)" style="fill: #ffa500; fill-opacity: 0.5; stroke: #ffffff; stroke-linejoin: miter"/>
   </g>
   <g id="patch_71">
    <path d="M 2403.673678 2080.894375 
L 2434.998471 2080.894375 
L 2434.998471 2078.106454 
L 2403.673678 2078.106454 
z
" clip-path="url(#p81367b2f13)" style="fill: #ffa500; fill-opacity: 0.5; stroke: #ffffff; stroke-linejoin: miter"/>
   </g>
   <g id="patch_72">
    <path d="M 2434.998471 2080.894375 
L 2466.323264 2080.894375 
L 2466.323264 2080.894375 
L 2434.998471 2080.894375 
z
" clip-path="url(#p81367b2f13)" style="fill: #ffa500; fill-opacity: 0.5; stroke: #ffffff; stroke-linejoin: miter"/>
   </g>
   <g id="patch_73">
    <path d="M 2466.323264 2080.894375 
L 2497.648058 2080.894375 
L 2497.648058 2080.894375 
L 2466.323264 2080.894375 
z
" clip-path="url(#p81367b2f13)" style="fill: #ffa500; fill-opacity: 0.5; stroke: #ffffff; stroke-linejoin: miter"/>
   </g>
   <g id="patch_74">
    <path d="M 2497.648058 2080.894375 
L 2528.972851 2080.894375 
L 2528.972851 2078.106454 
L 2497.648058 2078.106454 
z
" clip-path="url(#p81367b2f13)" style="fill: #ffa500; fill-opacity: 0.5; stroke: #ffffff; stroke-linejoin: miter"/>
   </g>
   <g id="patch_75">
    <path d="M 2528.972851 2080.894375 
L 2560.297645 2080.894375 
L 2560.297645 2080.894375 
L 2528.972851 2080.894375 
z
" clip-path="url(#p81367b2f13)" style="fill: #ffa500; fill-opacity: 0.5; stroke: #ffffff; stroke-linejoin: miter"/>
   </g>
   <g id="patch_76">
    <path d="M 2560.297645 2080.894375 
L 2591.622438 2080.894375 
L 2591.622438 2080.894375 
L 2560.297645 2080.894375 
z
" clip-path="url(#p81367b2f13)" style="fill: #ffa500; fill-opacity: 0.5; stroke: #ffffff; stroke-linejoin: miter"/>
   </g>
   <g id="patch_77">
    <path d="M 2591.622438 2080.894375 
L 2622.947231 2080.894375 
L 2622.947231 2080.894375 
L 2591.622438 2080.894375 
z
" clip-path="url(#p81367b2f13)" style="fill: #ffa500; fill-opacity: 0.5; stroke: #ffffff; stroke-linejoin: miter"/>
   </g>
   <g id="patch_78">
    <path d="M 2622.947231 2080.894375 
L 2654.272025 2080.894375 
L 2654.272025 2080.894375 
L 2622.947231 2080.894375 
z
" clip-path="url(#p81367b2f13)" style="fill: #ffa500; fill-opacity: 0.5; stroke: #ffffff; stroke-linejoin: miter"/>
   </g>
   <g id="patch_79">
    <path d="M 2654.272025 2080.894375 
L 2685.596818 2080.894375 
L 2685.596818 2080.894375 
L 2654.272025 2080.894375 
z
" clip-path="url(#p81367b2f13)" style="fill: #ffa500; fill-opacity: 0.5; stroke: #ffffff; stroke-linejoin: miter"/>
   </g>
   <g id="patch_80">
    <path d="M 2685.596818 2080.894375 
L 2716.921612 2080.894375 
L 2716.921612 2078.106454 
L 2685.596818 2078.106454 
z
" clip-path="url(#p81367b2f13)" style="fill: #ffa500; fill-opacity: 0.5; stroke: #ffffff; stroke-linejoin: miter"/>
   </g>
   <g id="patch_81">
    <path d="M 2716.921612 2080.894375 
L 2748.246405 2080.894375 
L 2748.246405 2080.894375 
L 2716.921612 2080.894375 
z
" clip-path="url(#p81367b2f13)" style="fill: #ffa500; fill-opacity: 0.5; stroke: #ffffff; stroke-linejoin: miter"/>
   </g>
   <g id="patch_82">
    <path d="M 2748.246405 2080.894375 
L 2779.571198 2080.894375 
L 2779.571198 2080.894375 
L 2748.246405 2080.894375 
z
" clip-path="url(#p81367b2f13)" style="fill: #ffa500; fill-opacity: 0.5; stroke: #ffffff; stroke-linejoin: miter"/>
   </g>
   <g id="patch_83">
    <path d="M 2779.571198 2080.894375 
L 2810.895992 2080.894375 
L 2810.895992 2078.106454 
L 2779.571198 2078.106454 
z
" clip-path="url(#p81367b2f13)" style="fill: #ffa500; fill-opacity: 0.5; stroke: #ffffff; stroke-linejoin: miter"/>
   </g>
   <g id="patch_84">
    <path d="M 2810.895992 2080.894375 
L 2842.220785 2080.894375 
L 2842.220785 2080.894375 
L 2810.895992 2080.894375 
z
" clip-path="url(#p81367b2f13)" style="fill: #ffa500; fill-opacity: 0.5; stroke: #ffffff; stroke-linejoin: miter"/>
   </g>
   <g id="patch_85">
    <path d="M 2842.220785 2080.894375 
L 2873.545579 2080.894375 
L 2873.545579 2080.894375 
L 2842.220785 2080.894375 
z
" clip-path="url(#p81367b2f13)" style="fill: #ffa500; fill-opacity: 0.5; stroke: #ffffff; stroke-linejoin: miter"/>
   </g>
   <g id="patch_86">
    <path d="M 2873.545579 2080.894375 
L 2904.870372 2080.894375 
L 2904.870372 2075.318533 
L 2873.545579 2075.318533 
z
" clip-path="url(#p81367b2f13)" style="fill: #ffa500; fill-opacity: 0.5; stroke: #ffffff; stroke-linejoin: miter"/>
   </g>
   <g id="patch_87">
    <path d="M 2904.870372 2080.894375 
L 2936.195165 2080.894375 
L 2936.195165 2080.894375 
L 2904.870372 2080.894375 
z
" clip-path="url(#p81367b2f13)" style="fill: #ffa500; fill-opacity: 0.5; stroke: #ffffff; stroke-linejoin: miter"/>
   </g>
   <g id="patch_88">
    <path d="M 2936.195165 2080.894375 
L 2967.519959 2080.894375 
L 2967.519959 2078.106454 
L 2936.195165 2078.106454 
z
" clip-path="url(#p81367b2f13)" style="fill: #ffa500; fill-opacity: 0.5; stroke: #ffffff; stroke-linejoin: miter"/>
   </g>
   <g id="patch_89">
    <path d="M 2967.519959 2080.894375 
L 2998.844752 2080.894375 
L 2998.844752 2080.894375 
L 2967.519959 2080.894375 
z
" clip-path="url(#p81367b2f13)" style="fill: #ffa500; fill-opacity: 0.5; stroke: #ffffff; stroke-linejoin: miter"/>
   </g>
   <g id="patch_90">
    <path d="M 2998.844752 2080.894375 
L 3030.169545 2080.894375 
L 3030.169545 2080.894375 
L 2998.844752 2080.894375 
z
" clip-path="url(#p81367b2f13)" style="fill: #ffa500; fill-opacity: 0.5; stroke: #ffffff; stroke-linejoin: miter"/>
   </g>
   <g id="patch_91">
    <path d="M 3030.169545 2080.894375 
L 3061.494339 2080.894375 
L 3061.494339 2080.894375 
L 3030.169545 2080.894375 
z
" clip-path="url(#p81367b2f13)" style="fill: #ffa500; fill-opacity: 0.5; stroke: #ffffff; stroke-linejoin: miter"/>
   </g>
   <g id="patch_92">
    <path d="M 3061.494339 2080.894375 
L 3092.819132 2080.894375 
L 3092.819132 2080.894375 
L 3061.494339 2080.894375 
z
" clip-path="url(#p81367b2f13)" style="fill: #ffa500; fill-opacity: 0.5; stroke: #ffffff; stroke-linejoin: miter"/>
   </g>
   <g id="patch_93">
    <path d="M 3092.819132 2080.894375 
L 3124.143926 2080.894375 
L 3124.143926 2080.894375 
L 3092.819132 2080.894375 
z
" clip-path="url(#p81367b2f13)" style="fill: #ffa500; fill-opacity: 0.5; stroke: #ffffff; stroke-linejoin: miter"/>
   </g>
   <g id="patch_94">
    <path d="M 3124.143926 2080.894375 
L 3155.468719 2080.894375 
L 3155.468719 2075.318533 
L 3124.143926 2075.318533 
z
" clip-path="url(#p81367b2f13)" style="fill: #ffa500; fill-opacity: 0.5; stroke: #ffffff; stroke-linejoin: miter"/>
   </g>
   <g id="patch_95">
    <path d="M 3155.468719 2080.894375 
L 3186.793512 2080.894375 
L 3186.793512 2080.894375 
L 3155.468719 2080.894375 
z
" clip-path="url(#p81367b2f13)" style="fill: #ffa500; fill-opacity: 0.5; stroke: #ffffff; stroke-linejoin: miter"/>
   </g>
   <g id="patch_96">
    <path d="M 3186.793512 2080.894375 
L 3218.118306 2080.894375 
L 3218.118306 2075.318533 
L 3186.793512 2075.318533 
z
" clip-path="url(#p81367b2f13)" style="fill: #ffa500; fill-opacity: 0.5; stroke: #ffffff; stroke-linejoin: miter"/>
   </g>
   <g id="patch_97">
    <path d="M 3218.118306 2080.894375 
L 3249.443099 2080.894375 
L 3249.443099 2080.894375 
L 3218.118306 2080.894375 
z
" clip-path="url(#p81367b2f13)" style="fill: #ffa500; fill-opacity: 0.5; stroke: #ffffff; stroke-linejoin: miter"/>
   </g>
   <g id="patch_98">
    <path d="M 3249.443099 2080.894375 
L 3280.767893 2080.894375 
L 3280.767893 2080.894375 
L 3249.443099 2080.894375 
z
" clip-path="url(#p81367b2f13)" style="fill: #ffa500; fill-opacity: 0.5; stroke: #ffffff; stroke-linejoin: miter"/>
   </g>
   <g id="patch_99">
    <path d="M 3280.767893 2080.894375 
L 3312.092686 2080.894375 
L 3312.092686 2080.894375 
L 3280.767893 2080.894375 
z
" clip-path="url(#p81367b2f13)" style="fill: #ffa500; fill-opacity: 0.5; stroke: #ffffff; stroke-linejoin: miter"/>
   </g>
   <g id="patch_100">
    <path d="M 3312.092686 2080.894375 
L 3343.417479 2080.894375 
L 3343.417479 2080.894375 
L 3312.092686 2080.894375 
z
" clip-path="url(#p81367b2f13)" style="fill: #ffa500; fill-opacity: 0.5; stroke: #ffffff; stroke-linejoin: miter"/>
   </g>
   <g id="patch_101">
    <path d="M 3343.417479 2080.894375 
L 3374.742273 2080.894375 
L 3374.742273 2080.894375 
L 3343.417479 2080.894375 
z
" clip-path="url(#p81367b2f13)" style="fill: #ffa500; fill-opacity: 0.5; stroke: #ffffff; stroke-linejoin: miter"/>
   </g>
   <g id="patch_102">
    <path d="M 273.587727 2080.894375 
L 304.912521 2080.894375 
L 304.912521 1032.636071 
L 273.587727 1032.636071 
z
" clip-path="url(#p81367b2f13)" style="fill: #0000ff; fill-opacity: 0.5; stroke: #ffffff; stroke-linejoin: miter"/>
   </g>
   <g id="patch_103">
    <path d="M 304.912521 2080.894375 
L 336.237314 2080.894375 
L 336.237314 137.713423 
L 304.912521 137.713423 
z
" clip-path="url(#p81367b2f13)" style="fill: #0000ff; fill-opacity: 0.5; stroke: #ffffff; stroke-linejoin: miter"/>
   </g>
   <g id="patch_104">
    <path d="M 336.237314 2080.894375 
L 367.562107 2080.894375 
L 367.562107 1579.068591 
L 336.237314 1579.068591 
z
" clip-path="url(#p81367b2f13)" style="fill: #0000ff; fill-opacity: 0.5; stroke: #ffffff; stroke-linejoin: miter"/>
   </g>
   <g id="patch_105">
    <path d="M 367.562107 2080.894375 
L 398.886901 2080.894375 
L 398.886901 826.329915 
L 367.562107 826.329915 
z
" clip-path="url(#p81367b2f13)" style="fill: #0000ff; fill-opacity: 0.5; stroke: #ffffff; stroke-linejoin: miter"/>
   </g>
   <g id="patch_106">
    <path d="M 398.886901 2080.894375 
L 430.211694 2080.894375 
L 430.211694 1400.641646 
L 398.886901 1400.641646 
z
" clip-path="url(#p81367b2f13)" style="fill: #0000ff; fill-opacity: 0.5; stroke: #ffffff; stroke-linejoin: miter"/>
   </g>
   <g id="patch_107">
    <path d="M 430.211694 2080.894375 
L 461.536488 2080.894375 
L 461.536488 1247.305989 
L 430.211694 1247.305989 
z
" clip-path="url(#p81367b2f13)" style="fill: #0000ff; fill-opacity: 0.5; stroke: #ffffff; stroke-linejoin: miter"/>
   </g>
   <g id="patch_108">
    <path d="M 461.536488 2080.894375 
L 492.861281 2080.894375 
L 492.861281 1718.464642 
L 461.536488 1718.464642 
z
" clip-path="url(#p81367b2f13)" style="fill: #0000ff; fill-opacity: 0.5; stroke: #ffffff; stroke-linejoin: miter"/>
   </g>
   <g id="patch_109">
    <path d="M 492.861281 2080.894375 
L 524.186074 2080.894375 
L 524.186074 1595.796117 
L 492.861281 1595.796117 
z
" clip-path="url(#p81367b2f13)" style="fill: #0000ff; fill-opacity: 0.5; stroke: #ffffff; stroke-linejoin: miter"/>
   </g>
   <g id="patch_110">
    <path d="M 524.186074 2080.894375 
L 555.510868 2080.894375 
L 555.510868 1135.789149 
L 524.186074 1135.789149 
z
" clip-path="url(#p81367b2f13)" style="fill: #0000ff; fill-opacity: 0.5; stroke: #ffffff; stroke-linejoin: miter"/>
   </g>
   <g id="patch_111">
    <path d="M 555.510868 2080.894375 
L 586.835661 2080.894375 
L 586.835661 1609.735722 
L 555.510868 1609.735722 
z
" clip-path="url(#p81367b2f13)" style="fill: #0000ff; fill-opacity: 0.5; stroke: #ffffff; stroke-linejoin: miter"/>
   </g>
   <g id="patch_112">
    <path d="M 586.835661 2080.894375 
L 618.160455 2080.894375 
L 618.160455 1888.527824 
L 586.835661 1888.527824 
z
" clip-path="url(#p81367b2f13)" style="fill: #0000ff; fill-opacity: 0.5; stroke: #ffffff; stroke-linejoin: miter"/>
   </g>
   <g id="patch_113">
    <path d="M 618.160455 2080.894375 
L 649.485248 2080.894375 
L 649.485248 1938.710403 
L 618.160455 1938.710403 
z
" clip-path="url(#p81367b2f13)" style="fill: #0000ff; fill-opacity: 0.5; stroke: #ffffff; stroke-linejoin: miter"/>
   </g>
   <g id="patch_114">
    <path d="M 649.485248 2080.894375 
L 680.810041 2080.894375 
L 680.810041 1908.043272 
L 649.485248 1908.043272 
z
" clip-path="url(#p81367b2f13)" style="fill: #0000ff; fill-opacity: 0.5; stroke: #ffffff; stroke-linejoin: miter"/>
   </g>
   <g id="patch_115">
    <path d="M 680.810041 2080.894375 
L 712.134835 2080.894375 
L 712.134835 1972.165455 
L 680.810041 1972.165455 
z
" clip-path="url(#p81367b2f13)" style="fill: #0000ff; fill-opacity: 0.5; stroke: #ffffff; stroke-linejoin: miter"/>
   </g>
   <g id="patch_116">
    <path d="M 712.134835 2080.894375 
L 743.459628 2080.894375 
L 743.459628 778.935258 
L 712.134835 778.935258 
z
" clip-path="url(#p81367b2f13)" style="fill: #0000ff; fill-opacity: 0.5; stroke: #ffffff; stroke-linejoin: miter"/>
   </g>
   <g id="patch_117">
    <path d="M 743.459628 2080.894375 
L 774.784421 2080.894375 
L 774.784421 1718.464642 
L 743.459628 1718.464642 
z
" clip-path="url(#p81367b2f13)" style="fill: #0000ff; fill-opacity: 0.5; stroke: #ffffff; stroke-linejoin: miter"/>
   </g>
   <g id="patch_118">
    <path d="M 774.784421 2080.894375 
L 806.109215 2080.894375 
L 806.109215 2061.378928 
L 774.784421 2061.378928 
z
" clip-path="url(#p81367b2f13)" style="fill: #0000ff; fill-opacity: 0.5; stroke: #ffffff; stroke-linejoin: miter"/>
   </g>
   <g id="patch_119">
    <path d="M 806.109215 2080.894375 
L 837.434008 2080.894375 
L 837.434008 2072.530612 
L 806.109215 2072.530612 
z
" clip-path="url(#p81367b2f13)" style="fill: #0000ff; fill-opacity: 0.5; stroke: #ffffff; stroke-linejoin: miter"/>
   </g>
   <g id="patch_120">
    <path d="M 837.434008 2080.894375 
L 868.758802 2080.894375 
L 868.758802 2044.651402 
L 837.434008 2044.651402 
z
" clip-path="url(#p81367b2f13)" style="fill: #0000ff; fill-opacity: 0.5; stroke: #ffffff; stroke-linejoin: miter"/>
   </g>
   <g id="patch_121">
    <path d="M 868.758802 2080.894375 
L 900.083595 2080.894375 
L 900.083595 1902.46743 
L 868.758802 1902.46743 
z
" clip-path="url(#p81367b2f13)" style="fill: #0000ff; fill-opacity: 0.5; stroke: #ffffff; stroke-linejoin: miter"/>
   </g>
   <g id="patch_122">
    <path d="M 900.083595 2080.894375 
L 931.408388 2080.894375 
L 931.408388 1799.314352 
L 900.083595 1799.314352 
z
" clip-path="url(#p81367b2f13)" style="fill: #0000ff; fill-opacity: 0.5; stroke: #ffffff; stroke-linejoin: miter"/>
   </g>
   <g id="patch_123">
    <path d="M 931.408388 2080.894375 
L 962.733182 2080.894375 
L 962.733182 1749.131773 
L 931.408388 1749.131773 
z
" clip-path="url(#p81367b2f13)" style="fill: #0000ff; fill-opacity: 0.5; stroke: #ffffff; stroke-linejoin: miter"/>
   </g>
   <g id="patch_124">
    <path d="M 962.733182 2080.894375 
L 994.057975 2080.894375 
L 994.057975 1860.648614 
L 962.733182 1860.648614 
z
" clip-path="url(#p81367b2f13)" style="fill: #0000ff; fill-opacity: 0.5; stroke: #ffffff; stroke-linejoin: miter"/>
   </g>
   <g id="patch_125">
    <path d="M 994.057975 2080.894375 
L 1025.382769 2080.894375 
L 1025.382769 1983.317139 
L 994.057975 1983.317139 
z
" clip-path="url(#p81367b2f13)" style="fill: #0000ff; fill-opacity: 0.5; stroke: #ffffff; stroke-linejoin: miter"/>
   </g>
   <g id="patch_126">
    <path d="M 1025.382769 2080.894375 
L 1056.707562 2080.894375 
L 1056.707562 2002.832586 
L 1025.382769 2002.832586 
z
" clip-path="url(#p81367b2f13)" style="fill: #0000ff; fill-opacity: 0.5; stroke: #ffffff; stroke-linejoin: miter"/>
   </g>
   <g id="patch_127">
    <path d="M 1056.707562 2080.894375 
L 1088.032355 2080.894375 
L 1088.032355 1913.619114 
L 1056.707562 1913.619114 
z
" clip-path="url(#p81367b2f13)" style="fill: #0000ff; fill-opacity: 0.5; stroke: #ffffff; stroke-linejoin: miter"/>
   </g>
   <g id="patch_128">
    <path d="M 1088.032355 2080.894375 
L 1119.357149 2080.894375 
L 1119.357149 1896.891588 
L 1088.032355 1896.891588 
z
" clip-path="url(#p81367b2f13)" style="fill: #0000ff; fill-opacity: 0.5; stroke: #ffffff; stroke-linejoin: miter"/>
   </g>
   <g id="patch_129">
    <path d="M 1119.357149 2080.894375 
L 1150.681942 2080.894375 
L 1150.681942 1952.650008 
L 1119.357149 1952.650008 
z
" clip-path="url(#p81367b2f13)" style="fill: #0000ff; fill-opacity: 0.5; stroke: #ffffff; stroke-linejoin: miter"/>
   </g>
   <g id="patch_130">
    <path d="M 1150.681942 2080.894375 
L 1182.006736 2080.894375 
L 1182.006736 1919.194956 
L 1150.681942 1919.194956 
z
" clip-path="url(#p81367b2f13)" style="fill: #0000ff; fill-opacity: 0.5; stroke: #ffffff; stroke-linejoin: miter"/>
   </g>
   <g id="patch_131">
    <path d="M 1182.006736 2080.894375 
L 1213.331529 2080.894375 
L 1213.331529 2013.98427 
L 1182.006736 2013.98427 
z
" clip-path="url(#p81367b2f13)" style="fill: #0000ff; fill-opacity: 0.5; stroke: #ffffff; stroke-linejoin: miter"/>
   </g>
   <g id="patch_132">
    <path d="M 1213.331529 2080.894375 
L 1244.656322 2080.894375 
L 1244.656322 1944.286245 
L 1213.331529 1944.286245 
z
" clip-path="url(#p81367b2f13)" style="fill: #0000ff; fill-opacity: 0.5; stroke: #ffffff; stroke-linejoin: miter"/>
   </g>
   <g id="patch_133">
    <path d="M 1244.656322 2080.894375 
L 1275.981116 2080.894375 
L 1275.981116 2013.98427 
L 1244.656322 2013.98427 
z
" clip-path="url(#p81367b2f13)" style="fill: #0000ff; fill-opacity: 0.5; stroke: #ffffff; stroke-linejoin: miter"/>
   </g>
   <g id="patch_134">
    <path d="M 1275.981116 2080.894375 
L 1307.305909 2080.894375 
L 1307.305909 2027.923876 
L 1275.981116 2027.923876 
z
" clip-path="url(#p81367b2f13)" style="fill: #0000ff; fill-opacity: 0.5; stroke: #ffffff; stroke-linejoin: miter"/>
   </g>
   <g id="patch_135">
    <path d="M 1307.305909 2080.894375 
L 1338.630702 2080.894375 
L 1338.630702 2061.378928 
L 1307.305909 2061.378928 
z
" clip-path="url(#p81367b2f13)" style="fill: #0000ff; fill-opacity: 0.5; stroke: #ffffff; stroke-linejoin: miter"/>
   </g>
   <g id="patch_136">
    <path d="M 1338.630702 2080.894375 
L 1369.955496 2080.894375 
L 1369.955496 2075.318533 
L 1338.630702 2075.318533 
z
" clip-path="url(#p81367b2f13)" style="fill: #0000ff; fill-opacity: 0.5; stroke: #ffffff; stroke-linejoin: miter"/>
   </g>
   <g id="patch_137">
    <path d="M 1369.955496 2080.894375 
L 1401.280289 2080.894375 
L 1401.280289 2030.711797 
L 1369.955496 2030.711797 
z
" clip-path="url(#p81367b2f13)" style="fill: #0000ff; fill-opacity: 0.5; stroke: #ffffff; stroke-linejoin: miter"/>
   </g>
   <g id="patch_138">
    <path d="M 1401.280289 2080.894375 
L 1432.605083 2080.894375 
L 1432.605083 2075.318533 
L 1401.280289 2075.318533 
z
" clip-path="url(#p81367b2f13)" style="fill: #0000ff; fill-opacity: 0.5; stroke: #ffffff; stroke-linejoin: miter"/>
   </g>
   <g id="patch_139">
    <path d="M 1432.605083 2080.894375 
L 1463.929876 2080.894375 
L 1463.929876 2066.95477 
L 1432.605083 2066.95477 
z
" clip-path="url(#p81367b2f13)" style="fill: #0000ff; fill-opacity: 0.5; stroke: #ffffff; stroke-linejoin: miter"/>
   </g>
   <g id="patch_140">
    <path d="M 1463.929876 2080.894375 
L 1495.254669 2080.894375 
L 1495.254669 2069.742691 
L 1463.929876 2069.742691 
z
" clip-path="url(#p81367b2f13)" style="fill: #0000ff; fill-opacity: 0.5; stroke: #ffffff; stroke-linejoin: miter"/>
   </g>
   <g id="patch_141">
    <path d="M 1495.254669 2080.894375 
L 1526.579463 2080.894375 
L 1526.579463 2078.106454 
L 1495.254669 2078.106454 
z
" clip-path="url(#p81367b2f13)" style="fill: #0000ff; fill-opacity: 0.5; stroke: #ffffff; stroke-linejoin: miter"/>
   </g>
   <g id="patch_142">
    <path d="M 1526.579463 2080.894375 
L 1557.904256 2080.894375 
L 1557.904256 2069.742691 
L 1526.579463 2069.742691 
z
" clip-path="url(#p81367b2f13)" style="fill: #0000ff; fill-opacity: 0.5; stroke: #ffffff; stroke-linejoin: miter"/>
   </g>
   <g id="patch_143">
    <path d="M 1557.904256 2080.894375 
L 1589.22905 2080.894375 
L 1589.22905 2036.287639 
L 1557.904256 2036.287639 
z
" clip-path="url(#p81367b2f13)" style="fill: #0000ff; fill-opacity: 0.5; stroke: #ffffff; stroke-linejoin: miter"/>
   </g>
   <g id="patch_144">
    <path d="M 1589.22905 2080.894375 
L 1620.553843 2080.894375 
L 1620.553843 2025.135955 
L 1589.22905 2025.135955 
z
" clip-path="url(#p81367b2f13)" style="fill: #0000ff; fill-opacity: 0.5; stroke: #ffffff; stroke-linejoin: miter"/>
   </g>
   <g id="patch_145">
    <path d="M 1620.553843 2080.894375 
L 1651.878636 2080.894375 
L 1651.878636 2053.015165 
L 1620.553843 2053.015165 
z
" clip-path="url(#p81367b2f13)" style="fill: #0000ff; fill-opacity: 0.5; stroke: #ffffff; stroke-linejoin: miter"/>
   </g>
   <g id="patch_146">
    <path d="M 1651.878636 2080.894375 
L 1683.20343 2080.894375 
L 1683.20343 2078.106454 
L 1651.878636 2078.106454 
z
" clip-path="url(#p81367b2f13)" style="fill: #0000ff; fill-opacity: 0.5; stroke: #ffffff; stroke-linejoin: miter"/>
   </g>
   <g id="patch_147">
    <path d="M 1683.20343 2080.894375 
L 1714.528223 2080.894375 
L 1714.528223 2066.95477 
L 1683.20343 2066.95477 
z
" clip-path="url(#p81367b2f13)" style="fill: #0000ff; fill-opacity: 0.5; stroke: #ffffff; stroke-linejoin: miter"/>
   </g>
   <g id="patch_148">
    <path d="M 1714.528223 2080.894375 
L 1745.853017 2080.894375 
L 1745.853017 2047.439323 
L 1714.528223 2047.439323 
z
" clip-path="url(#p81367b2f13)" style="fill: #0000ff; fill-opacity: 0.5; stroke: #ffffff; stroke-linejoin: miter"/>
   </g>
   <g id="patch_149">
    <path d="M 1745.853017 2080.894375 
L 1777.17781 2080.894375 
L 1777.17781 2064.166849 
L 1745.853017 2064.166849 
z
" clip-path="url(#p81367b2f13)" style="fill: #0000ff; fill-opacity: 0.5; stroke: #ffffff; stroke-linejoin: miter"/>
   </g>
   <g id="patch_150">
    <path d="M 1777.17781 2080.894375 
L 1808.502603 2080.894375 
L 1808.502603 2061.378928 
L 1777.17781 2061.378928 
z
" clip-path="url(#p81367b2f13)" style="fill: #0000ff; fill-opacity: 0.5; stroke: #ffffff; stroke-linejoin: miter"/>
   </g>
   <g id="patch_151">
    <path d="M 1808.502603 2080.894375 
L 1839.827397 2080.894375 
L 1839.827397 2047.439323 
L 1808.502603 2047.439323 
z
" clip-path="url(#p81367b2f13)" style="fill: #0000ff; fill-opacity: 0.5; stroke: #ffffff; stroke-linejoin: miter"/>
   </g>
   <g id="patch_152">
    <path d="M 1839.827397 2080.894375 
L 1871.15219 2080.894375 
L 1871.15219 2053.015165 
L 1839.827397 2053.015165 
z
" clip-path="url(#p81367b2f13)" style="fill: #0000ff; fill-opacity: 0.5; stroke: #ffffff; stroke-linejoin: miter"/>
   </g>
   <g id="patch_153">
    <path d="M 1871.15219 2080.894375 
L 1902.476983 2080.894375 
L 1902.476983 2072.530612 
L 1871.15219 2072.530612 
z
" clip-path="url(#p81367b2f13)" style="fill: #0000ff; fill-opacity: 0.5; stroke: #ffffff; stroke-linejoin: miter"/>
   </g>
   <g id="patch_154">
    <path d="M 1902.476983 2080.894375 
L 1933.801777 2080.894375 
L 1933.801777 2066.95477 
L 1902.476983 2066.95477 
z
" clip-path="url(#p81367b2f13)" style="fill: #0000ff; fill-opacity: 0.5; stroke: #ffffff; stroke-linejoin: miter"/>
   </g>
   <g id="patch_155">
    <path d="M 1933.801777 2080.894375 
L 1965.12657 2080.894375 
L 1965.12657 2072.530612 
L 1933.801777 2072.530612 
z
" clip-path="url(#p81367b2f13)" style="fill: #0000ff; fill-opacity: 0.5; stroke: #ffffff; stroke-linejoin: miter"/>
   </g>
   <g id="patch_156">
    <path d="M 1965.12657 2080.894375 
L 1996.451364 2080.894375 
L 1996.451364 2066.95477 
L 1965.12657 2066.95477 
z
" clip-path="url(#p81367b2f13)" style="fill: #0000ff; fill-opacity: 0.5; stroke: #ffffff; stroke-linejoin: miter"/>
   </g>
   <g id="patch_157">
    <path d="M 1996.451364 2080.894375 
L 2027.776157 2080.894375 
L 2027.776157 2050.227244 
L 1996.451364 2050.227244 
z
" clip-path="url(#p81367b2f13)" style="fill: #0000ff; fill-opacity: 0.5; stroke: #ffffff; stroke-linejoin: miter"/>
   </g>
   <g id="patch_158">
    <path d="M 2027.776157 2080.894375 
L 2059.10095 2080.894375 
L 2059.10095 2066.95477 
L 2027.776157 2066.95477 
z
" clip-path="url(#p81367b2f13)" style="fill: #0000ff; fill-opacity: 0.5; stroke: #ffffff; stroke-linejoin: miter"/>
   </g>
   <g id="patch_159">
    <path d="M 2059.10095 2080.894375 
L 2090.425744 2080.894375 
L 2090.425744 2080.894375 
L 2059.10095 2080.894375 
z
" clip-path="url(#p81367b2f13)" style="fill: #0000ff; fill-opacity: 0.5; stroke: #ffffff; stroke-linejoin: miter"/>
   </g>
   <g id="patch_160">
    <path d="M 2090.425744 2080.894375 
L 2121.750537 2080.894375 
L 2121.750537 2080.894375 
L 2090.425744 2080.894375 
z
" clip-path="url(#p81367b2f13)" style="fill: #0000ff; fill-opacity: 0.5; stroke: #ffffff; stroke-linejoin: miter"/>
   </g>
   <g id="patch_161">
    <path d="M 2121.750537 2080.894375 
L 2153.075331 2080.894375 
L 2153.075331 2080.894375 
L 2121.750537 2080.894375 
z
" clip-path="url(#p81367b2f13)" style="fill: #0000ff; fill-opacity: 0.5; stroke: #ffffff; stroke-linejoin: miter"/>
   </g>
   <g id="patch_162">
    <path d="M 2153.075331 2080.894375 
L 2184.400124 2080.894375 
L 2184.400124 2080.894375 
L 2153.075331 2080.894375 
z
" clip-path="url(#p81367b2f13)" style="fill: #0000ff; fill-opacity: 0.5; stroke: #ffffff; stroke-linejoin: miter"/>
   </g>
   <g id="patch_163">
    <path d="M 2184.400124 2080.894375 
L 2215.724917 2080.894375 
L 2215.724917 2080.894375 
L 2184.400124 2080.894375 
z
" clip-path="url(#p81367b2f13)" style="fill: #0000ff; fill-opacity: 0.5; stroke: #ffffff; stroke-linejoin: miter"/>
   </g>
   <g id="patch_164">
    <path d="M 2215.724917 2080.894375 
L 2247.049711 2080.894375 
L 2247.049711 2080.894375 
L 2215.724917 2080.894375 
z
" clip-path="url(#p81367b2f13)" style="fill: #0000ff; fill-opacity: 0.5; stroke: #ffffff; stroke-linejoin: miter"/>
   </g>
   <g id="patch_165">
    <path d="M 2247.049711 2080.894375 
L 2278.374504 2080.894375 
L 2278.374504 2080.894375 
L 2247.049711 2080.894375 
z
" clip-path="url(#p81367b2f13)" style="fill: #0000ff; fill-opacity: 0.5; stroke: #ffffff; stroke-linejoin: miter"/>
   </g>
   <g id="patch_166">
    <path d="M 2278.374504 2080.894375 
L 2309.699298 2080.894375 
L 2309.699298 2080.894375 
L 2278.374504 2080.894375 
z
" clip-path="url(#p81367b2f13)" style="fill: #0000ff; fill-opacity: 0.5; stroke: #ffffff; stroke-linejoin: miter"/>
   </g>
   <g id="patch_167">
    <path d="M 2309.699298 2080.894375 
L 2341.024091 2080.894375 
L 2341.024091 2078.106454 
L 2309.699298 2078.106454 
z
" clip-path="url(#p81367b2f13)" style="fill: #0000ff; fill-opacity: 0.5; stroke: #ffffff; stroke-linejoin: miter"/>
   </g>
   <g id="patch_168">
    <path d="M 2341.024091 2080.894375 
L 2372.348884 2080.894375 
L 2372.348884 2080.894375 
L 2341.024091 2080.894375 
z
" clip-path="url(#p81367b2f13)" style="fill: #0000ff; fill-opacity: 0.5; stroke: #ffffff; stroke-linejoin: miter"/>
   </g>
   <g id="patch_169">
    <path d="M 2372.348884 2080.894375 
L 2403.673678 2080.894375 
L 2403.673678 2078.106454 
L 2372.348884 2078.106454 
z
" clip-path="url(#p81367b2f13)" style="fill: #0000ff; fill-opacity: 0.5; stroke: #ffffff; stroke-linejoin: miter"/>
   </g>
   <g id="patch_170">
    <path d="M 2403.673678 2080.894375 
L 2434.998471 2080.894375 
L 2434.998471 2080.894375 
L 2403.673678 2080.894375 
z
" clip-path="url(#p81367b2f13)" style="fill: #0000ff; fill-opacity: 0.5; stroke: #ffffff; stroke-linejoin: miter"/>
   </g>
   <g id="patch_171">
    <path d="M 2434.998471 2080.894375 
L 2466.323264 2080.894375 
L 2466.323264 2080.894375 
L 2434.998471 2080.894375 
z
" clip-path="url(#p81367b2f13)" style="fill: #0000ff; fill-opacity: 0.5; stroke: #ffffff; stroke-linejoin: miter"/>
   </g>
   <g id="patch_172">
    <path d="M 2466.323264 2080.894375 
L 2497.648058 2080.894375 
L 2497.648058 2080.894375 
L 2466.323264 2080.894375 
z
" clip-path="url(#p81367b2f13)" style="fill: #0000ff; fill-opacity: 0.5; stroke: #ffffff; stroke-linejoin: miter"/>
   </g>
   <g id="patch_173">
    <path d="M 2497.648058 2080.894375 
L 2528.972851 2080.894375 
L 2528.972851 2075.318533 
L 2497.648058 2075.318533 
z
" clip-path="url(#p81367b2f13)" style="fill: #0000ff; fill-opacity: 0.5; stroke: #ffffff; stroke-linejoin: miter"/>
   </g>
   <g id="patch_174">
    <path d="M 2528.972851 2080.894375 
L 2560.297645 2080.894375 
L 2560.297645 2080.894375 
L 2528.972851 2080.894375 
z
" clip-path="url(#p81367b2f13)" style="fill: #0000ff; fill-opacity: 0.5; stroke: #ffffff; stroke-linejoin: miter"/>
   </g>
   <g id="patch_175">
    <path d="M 2560.297645 2080.894375 
L 2591.622438 2080.894375 
L 2591.622438 2080.894375 
L 2560.297645 2080.894375 
z
" clip-path="url(#p81367b2f13)" style="fill: #0000ff; fill-opacity: 0.5; stroke: #ffffff; stroke-linejoin: miter"/>
   </g>
   <g id="patch_176">
    <path d="M 2591.622438 2080.894375 
L 2622.947231 2080.894375 
L 2622.947231 2080.894375 
L 2591.622438 2080.894375 
z
" clip-path="url(#p81367b2f13)" style="fill: #0000ff; fill-opacity: 0.5; stroke: #ffffff; stroke-linejoin: miter"/>
   </g>
   <g id="patch_177">
    <path d="M 2622.947231 2080.894375 
L 2654.272025 2080.894375 
L 2654.272025 2080.894375 
L 2622.947231 2080.894375 
z
" clip-path="url(#p81367b2f13)" style="fill: #0000ff; fill-opacity: 0.5; stroke: #ffffff; stroke-linejoin: miter"/>
   </g>
   <g id="patch_178">
    <path d="M 2654.272025 2080.894375 
L 2685.596818 2080.894375 
L 2685.596818 2080.894375 
L 2654.272025 2080.894375 
z
" clip-path="url(#p81367b2f13)" style="fill: #0000ff; fill-opacity: 0.5; stroke: #ffffff; stroke-linejoin: miter"/>
   </g>
   <g id="patch_179">
    <path d="M 2685.596818 2080.894375 
L 2716.921612 2080.894375 
L 2716.921612 2078.106454 
L 2685.596818 2078.106454 
z
" clip-path="url(#p81367b2f13)" style="fill: #0000ff; fill-opacity: 0.5; stroke: #ffffff; stroke-linejoin: miter"/>
   </g>
   <g id="patch_180">
    <path d="M 2716.921612 2080.894375 
L 2748.246405 2080.894375 
L 2748.246405 2080.894375 
L 2716.921612 2080.894375 
z
" clip-path="url(#p81367b2f13)" style="fill: #0000ff; fill-opacity: 0.5; stroke: #ffffff; stroke-linejoin: miter"/>
   </g>
   <g id="patch_181">
    <path d="M 2748.246405 2080.894375 
L 2779.571198 2080.894375 
L 2779.571198 2080.894375 
L 2748.246405 2080.894375 
z
" clip-path="url(#p81367b2f13)" style="fill: #0000ff; fill-opacity: 0.5; stroke: #ffffff; stroke-linejoin: miter"/>
   </g>
   <g id="patch_182">
    <path d="M 2779.571198 2080.894375 
L 2810.895992 2080.894375 
L 2810.895992 2078.106454 
L 2779.571198 2078.106454 
z
" clip-path="url(#p81367b2f13)" style="fill: #0000ff; fill-opacity: 0.5; stroke: #ffffff; stroke-linejoin: miter"/>
   </g>
   <g id="patch_183">
    <path d="M 2810.895992 2080.894375 
L 2842.220785 2080.894375 
L 2842.220785 2080.894375 
L 2810.895992 2080.894375 
z
" clip-path="url(#p81367b2f13)" style="fill: #0000ff; fill-opacity: 0.5; stroke: #ffffff; stroke-linejoin: miter"/>
   </g>
   <g id="patch_184">
    <path d="M 2842.220785 2080.894375 
L 2873.545579 2080.894375 
L 2873.545579 2080.894375 
L 2842.220785 2080.894375 
z
" clip-path="url(#p81367b2f13)" style="fill: #0000ff; fill-opacity: 0.5; stroke: #ffffff; stroke-linejoin: miter"/>
   </g>
   <g id="patch_185">
    <path d="M 2873.545579 2080.894375 
L 2904.870372 2080.894375 
L 2904.870372 2075.318533 
L 2873.545579 2075.318533 
z
" clip-path="url(#p81367b2f13)" style="fill: #0000ff; fill-opacity: 0.5; stroke: #ffffff; stroke-linejoin: miter"/>
   </g>
   <g id="patch_186">
    <path d="M 2904.870372 2080.894375 
L 2936.195165 2080.894375 
L 2936.195165 2080.894375 
L 2904.870372 2080.894375 
z
" clip-path="url(#p81367b2f13)" style="fill: #0000ff; fill-opacity: 0.5; stroke: #ffffff; stroke-linejoin: miter"/>
   </g>
   <g id="patch_187">
    <path d="M 2936.195165 2080.894375 
L 2967.519959 2080.894375 
L 2967.519959 2078.106454 
L 2936.195165 2078.106454 
z
" clip-path="url(#p81367b2f13)" style="fill: #0000ff; fill-opacity: 0.5; stroke: #ffffff; stroke-linejoin: miter"/>
   </g>
   <g id="patch_188">
    <path d="M 2967.519959 2080.894375 
L 2998.844752 2080.894375 
L 2998.844752 2080.894375 
L 2967.519959 2080.894375 
z
" clip-path="url(#p81367b2f13)" style="fill: #0000ff; fill-opacity: 0.5; stroke: #ffffff; stroke-linejoin: miter"/>
   </g>
   <g id="patch_189">
    <path d="M 2998.844752 2080.894375 
L 3030.169545 2080.894375 
L 3030.169545 2080.894375 
L 2998.844752 2080.894375 
z
" clip-path="url(#p81367b2f13)" style="fill: #0000ff; fill-opacity: 0.5; stroke: #ffffff; stroke-linejoin: miter"/>
   </g>
   <g id="patch_190">
    <path d="M 3030.169545 2080.894375 
L 3061.494339 2080.894375 
L 3061.494339 2080.894375 
L 3030.169545 2080.894375 
z
" clip-path="url(#p81367b2f13)" style="fill: #0000ff; fill-opacity: 0.5; stroke: #ffffff; stroke-linejoin: miter"/>
   </g>
   <g id="patch_191">
    <path d="M 3061.494339 2080.894375 
L 3092.819132 2080.894375 
L 3092.819132 2080.894375 
L 3061.494339 2080.894375 
z
" clip-path="url(#p81367b2f13)" style="fill: #0000ff; fill-opacity: 0.5; stroke: #ffffff; stroke-linejoin: miter"/>
   </g>
   <g id="patch_192">
    <path d="M 3092.819132 2080.894375 
L 3124.143926 2080.894375 
L 3124.143926 2080.894375 
L 3092.819132 2080.894375 
z
" clip-path="url(#p81367b2f13)" style="fill: #0000ff; fill-opacity: 0.5; stroke: #ffffff; stroke-linejoin: miter"/>
   </g>
   <g id="patch_193">
    <path d="M 3124.143926 2080.894375 
L 3155.468719 2080.894375 
L 3155.468719 2080.894375 
L 3124.143926 2080.894375 
z
" clip-path="url(#p81367b2f13)" style="fill: #0000ff; fill-opacity: 0.5; stroke: #ffffff; stroke-linejoin: miter"/>
   </g>
   <g id="patch_194">
    <path d="M 3155.468719 2080.894375 
L 3186.793512 2080.894375 
L 3186.793512 2080.894375 
L 3155.468719 2080.894375 
z
" clip-path="url(#p81367b2f13)" style="fill: #0000ff; fill-opacity: 0.5; stroke: #ffffff; stroke-linejoin: miter"/>
   </g>
   <g id="patch_195">
    <path d="M 3186.793512 2080.894375 
L 3218.118306 2080.894375 
L 3218.118306 2080.894375 
L 3186.793512 2080.894375 
z
" clip-path="url(#p81367b2f13)" style="fill: #0000ff; fill-opacity: 0.5; stroke: #ffffff; stroke-linejoin: miter"/>
   </g>
   <g id="patch_196">
    <path d="M 3218.118306 2080.894375 
L 3249.443099 2080.894375 
L 3249.443099 2080.894375 
L 3218.118306 2080.894375 
z
" clip-path="url(#p81367b2f13)" style="fill: #0000ff; fill-opacity: 0.5; stroke: #ffffff; stroke-linejoin: miter"/>
   </g>
   <g id="patch_197">
    <path d="M 3249.443099 2080.894375 
L 3280.767893 2080.894375 
L 3280.767893 2080.894375 
L 3249.443099 2080.894375 
z
" clip-path="url(#p81367b2f13)" style="fill: #0000ff; fill-opacity: 0.5; stroke: #ffffff; stroke-linejoin: miter"/>
   </g>
   <g id="patch_198">
    <path d="M 3280.767893 2080.894375 
L 3312.092686 2080.894375 
L 3312.092686 2080.894375 
L 3280.767893 2080.894375 
z
" clip-path="url(#p81367b2f13)" style="fill: #0000ff; fill-opacity: 0.5; stroke: #ffffff; stroke-linejoin: miter"/>
   </g>
   <g id="patch_199">
    <path d="M 3312.092686 2080.894375 
L 3343.417479 2080.894375 
L 3343.417479 2080.894375 
L 3312.092686 2080.894375 
z
" clip-path="url(#p81367b2f13)" style="fill: #0000ff; fill-opacity: 0.5; stroke: #ffffff; stroke-linejoin: miter"/>
   </g>
   <g id="patch_200">
    <path d="M 3343.417479 2080.894375 
L 3374.742273 2080.894375 
L 3374.742273 2080.894375 
L 3343.417479 2080.894375 
z
" clip-path="url(#p81367b2f13)" style="fill: #0000ff; fill-opacity: 0.5; stroke: #ffffff; stroke-linejoin: miter"/>
   </g>
   <g id="line2d_15">
    <path d="M 392.950557 2080.622584 
L 576.970214 2080.393595 
L 647.747005 2080.10311 
L 704.368438 2079.637226 
L 746.834513 2079.04635 
L 775.145229 2078.485644 
L 803.455945 2077.755904 
L 831.766662 2076.829109 
L 860.077378 2075.684852 
L 888.388095 2074.316055 
L 916.698811 2072.734558 
L 959.164886 2070.047107 
L 1029.941677 2065.345423 
L 1058.252394 2063.679298 
L 1086.56311 2062.295271 
L 1114.873826 2061.281139 
L 1129.029185 2060.932492 
L 1143.184543 2060.695511 
L 1157.339901 2060.571649 
L 1185.650618 2060.656505 
L 1213.961334 2061.149951 
L 1242.27205 2061.982723 
L 1270.582767 2063.064565 
L 1313.048842 2064.942055 
L 1383.825633 2068.079028 
L 1426.291707 2069.713309 
L 1468.757782 2071.127244 
L 1525.379215 2072.753217 
L 1596.156006 2074.528211 
L 1666.932797 2076.055807 
L 1723.55423 2077.027771 
L 1766.020305 2077.556458 
L 1808.486379 2077.85648 
L 1836.797096 2077.885908 
L 1865.107812 2077.729223 
L 1893.418529 2077.323536 
L 1921.729245 2076.585115 
L 1935.884604 2076.059346 
L 1950.039962 2075.410081 
L 1964.19532 2074.622052 
L 1978.350678 2073.679718 
L 1992.506036 2072.567756 
L 2006.661395 2071.271676 
L 2020.816753 2069.77851 
L 2034.972111 2068.077588 
L 2049.127469 2066.161365 
L 2063.282828 2064.026263 
L 2077.438186 2061.673501 
L 2091.593544 2059.10986 
L 2105.748902 2056.348329 
L 2119.90426 2053.408599 
L 2134.059619 2050.317341 
L 2162.370335 2043.821683 
L 2190.681052 2037.207939 
L 2204.83641 2033.988602 
L 2218.991768 2030.904896 
L 2233.147126 2028.016382 
L 2247.302484 2025.381711 
L 2261.457843 2023.056691 
L 2275.613201 2021.092348 
L 2289.768559 2019.533096 
L 2303.923917 2018.415085 
L 2318.079276 2017.764827 
L 2332.234634 2017.598173 
L 2346.389992 2017.919684 
L 2360.54535 2018.722448 
L 2374.700709 2019.988336 
L 2388.856067 2021.688697 
L 2403.011425 2023.785445 
L 2417.166783 2026.23249 
L 2431.322141 2028.977426 
L 2445.4775 2031.963401 
L 2459.632858 2035.131069 
L 2487.943574 2041.773174 
L 2516.254291 2048.449856 
L 2530.409649 2051.676962 
L 2544.565007 2054.77539 
L 2558.720365 2057.712769 
L 2572.875724 2060.463864 
L 2587.031082 2063.010509 
L 2601.18644 2065.341287 
L 2615.341798 2067.451002 
L 2629.497157 2069.340003 
L 2643.652515 2071.013391 
L 2657.807873 2072.48018 
L 2671.963231 2073.75244 
L 2686.118589 2074.844462 
L 2700.273948 2075.771991 
L 2714.429306 2076.551532 
L 2728.584664 2077.199747 
L 2756.895381 2078.166786 
L 2785.206097 2078.793355 
L 2813.516814 2079.180872 
L 2855.982888 2079.482522 
L 2912.604321 2079.624891 
L 3209.866844 2079.946005 
L 3209.866844 2079.946005 
" clip-path="url(#p81367b2f13)" style="fill: none; stroke: #ffa500; stroke-width: 1.5; stroke-linecap: round"/>
   </g>
   <g id="line2d_16">
    <path d="M 295.511466 1306.574697 
L 308.828013 1229.731403 
L 322.144561 1172.800237 
L 335.461108 1138.094898 
L 348.777656 1125.531579 
L 362.094203 1132.891504 
L 375.410751 1156.401163 
L 388.727298 1191.457893 
L 402.043846 1233.332335 
L 415.360394 1277.730737 
L 428.676941 1321.1697 
L 441.993489 1361.174762 
L 455.310036 1396.344528 
L 468.626584 1426.321594 
L 481.943131 1451.691013 
L 495.259679 1473.803647 
L 508.576226 1494.511745 
L 521.892774 1515.815932 
L 535.209321 1539.453469 
L 548.525869 1566.493371 
L 561.842417 1597.026705 
L 575.158964 1630.036127 
L 588.475512 1663.495262 
L 601.792059 1694.696198 
L 615.108607 1720.749634 
L 628.425154 1739.163163 
L 641.741702 1748.386297 
L 655.058249 1748.215299 
L 668.374797 1739.971469 
L 681.691344 1726.399847 
L 695.007892 1711.280918 
L 708.32444 1698.804401 
L 721.640987 1692.813719 
L 734.957535 1696.07552 
L 748.274082 1709.740685 
L 761.59063 1733.128736 
L 774.907177 1763.89046 
L 801.540272 1832.992603 
L 814.85682 1863.64476 
L 828.173367 1887.651638 
L 841.489915 1903.471089 
L 854.806463 1910.926432 
L 868.12301 1911.052843 
L 881.439558 1905.766757 
L 894.756105 1897.447529 
L 908.072653 1888.514077 
L 921.3892 1881.060451 
L 934.705748 1876.592603 
L 948.022295 1875.888797 
L 961.338843 1878.988524 
L 974.65539 1885.298344 
L 987.971938 1893.787314 
L 1001.288486 1903.231518 
L 1014.605033 1912.460042 
L 1027.921581 1920.556637 
L 1041.238128 1926.983234 
L 1054.554676 1931.610935 
L 1067.871223 1934.666102 
L 1081.187771 1936.617349 
L 1107.820866 1939.484939 
L 1121.137413 1941.39997 
L 1134.453961 1944.075769 
L 1147.770509 1947.6518 
L 1161.087056 1952.145951 
L 1174.403604 1957.49852 
L 1187.720151 1963.613753 
L 1201.036699 1970.388146 
L 1214.353246 1977.721262 
L 1227.669794 1985.510933 
L 1240.986341 1993.63932 
L 1267.619436 2010.283396 
L 1280.935984 2018.398023 
L 1294.252532 2026.074426 
L 1307.569079 2033.101741 
L 1320.885627 2039.31723 
L 1334.202174 2044.631081 
L 1347.518722 2049.03782 
L 1360.835269 2052.610839 
L 1374.151817 2055.481055 
L 1387.468364 2057.804977 
L 1400.784912 2059.729903 
L 1414.101459 2061.3643 
L 1427.418007 2062.759487 
L 1440.734555 2063.905663 
L 1454.051102 2064.742045 
L 1467.36765 2065.178358 
L 1480.684197 2065.123366 
L 1494.000745 2064.515327 
L 1507.317292 2063.348889 
L 1520.63384 2061.692917 
L 1533.950387 2059.694439 
L 1547.266935 2057.565801 
L 1560.583482 2055.555462 
L 1573.90003 2053.907074 
L 1587.216578 2052.815362 
L 1600.533125 2052.389321 
L 1613.849673 2052.632242 
L 1627.16622 2053.444062 
L 1640.482768 2054.645478 
L 1667.115863 2057.344529 
L 1680.43241 2058.454133 
L 1693.748958 2059.23828 
L 1707.065505 2059.660107 
L 1720.382053 2059.744411 
L 1733.6986 2059.559546 
L 1760.331696 2058.759031 
L 1786.964791 2058.033472 
L 1800.281338 2057.912025 
L 1813.597886 2058.033807 
L 1826.914433 2058.429014 
L 1840.230981 2059.093924 
L 1853.547528 2059.9876 
L 1906.813719 2064.121888 
L 1920.130266 2064.852651 
L 1933.446814 2065.375194 
L 1960.079909 2065.953919 
L 1986.713004 2066.482324 
L 2000.029551 2066.969164 
L 2013.346099 2067.696041 
L 2026.662646 2068.68411 
L 2039.979194 2069.911242 
L 2066.612289 2072.817975 
L 2093.245384 2075.73115 
L 2106.561932 2076.988731 
L 2119.878479 2078.049094 
L 2133.195027 2078.897004 
L 2146.511574 2079.539664 
L 2159.828122 2079.999691 
L 2173.144669 2080.307496 
L 2199.777765 2080.590435 
L 2226.41086 2080.596014 
L 2279.67705 2080.261275 
L 2332.94324 2079.959877 
L 2372.892883 2079.947434 
L 2439.47562 2080.024107 
L 2546.008001 2079.795485 
L 2639.223834 2080.353715 
L 2692.490024 2080.207752 
L 2812.338952 2079.627352 
L 2878.921689 2079.186194 
L 2905.554784 2079.20134 
L 2932.187879 2079.390465 
L 2945.504427 2079.540076 
L 2945.504427 2079.540076 
" clip-path="url(#p81367b2f13)" style="fill: none; stroke: #0000ff; stroke-width: 1.5; stroke-linecap: round"/>
   </g>
   <g id="patch_201">
    <path d="M 118.53 2080.894375 
L 118.53 40.554375 
" style="fill: none; stroke: #ffffff; stroke-width: 1.25; stroke-linejoin: miter; stroke-linecap: square"/>
   </g>
   <g id="patch_202">
    <path d="M 3529.8 2080.894375 
L 3529.8 40.554375 
" style="fill: none; stroke: #ffffff; stroke-width: 1.25; stroke-linejoin: miter; stroke-linecap: square"/>
   </g>
   <g id="patch_203">
    <path d="M 118.53 2080.894375 
L 3529.8 2080.894375 
" style="fill: none; stroke: #ffffff; stroke-width: 1.25; stroke-linejoin: miter; stroke-linecap: square"/>
   </g>
   <g id="patch_204">
    <path d="M 118.53 40.554375 
L 3529.8 40.554375 
" style="fill: none; stroke: #ffffff; stroke-width: 1.25; stroke-linejoin: miter; stroke-linecap: square"/>
   </g>
   <g id="text_17">
    <!-- active_site_166fg_bi_type_bond3_rf_PF08241_ACS_remove_redundant_11_70_MACCS_no_same_sub_prediction probability distribution -->
    <g style="fill: #262626" transform="translate(614.7675 34.554375)scale(0.36 -0.36)">
     <defs>
      <path id="DejaVuSans-63" d="M 3122 3366 
L 3122 2828 
Q 2878 2963 2633 3030 
Q 2388 3097 2138 3097 
Q 1578 3097 1268 2742 
Q 959 2388 959 1747 
Q 959 1106 1268 751 
Q 1578 397 2138 397 
Q 2388 397 2633 464 
Q 2878 531 3122 666 
L 3122 134 
Q 2881 22 2623 -34 
Q 2366 -91 2075 -91 
Q 1284 -91 818 406 
Q 353 903 353 1747 
Q 353 2603 823 3093 
Q 1294 3584 2113 3584 
Q 2378 3584 2631 3529 
Q 2884 3475 3122 3366 
z
" transform="scale(0.015625)"/>
      <path id="DejaVuSans-76" d="M 191 3500 
L 800 3500 
L 1894 563 
L 2988 3500 
L 3597 3500 
L 2284 0 
L 1503 0 
L 191 3500 
z
" transform="scale(0.015625)"/>
      <path id="DejaVuSans-65" d="M 3597 1894 
L 3597 1613 
L 953 1613 
Q 991 1019 1311 708 
Q 1631 397 2203 397 
Q 2534 397 2845 478 
Q 3156 559 3463 722 
L 3463 178 
Q 3153 47 2828 -22 
Q 2503 -91 2169 -91 
Q 1331 -91 842 396 
Q 353 884 353 1716 
Q 353 2575 817 3079 
Q 1281 3584 2069 3584 
Q 2775 3584 3186 3129 
Q 3597 2675 3597 1894 
z
M 3022 2063 
Q 3016 2534 2758 2815 
Q 2500 3097 2075 3097 
Q 1594 3097 1305 2825 
Q 1016 2553 972 2059 
L 3022 2063 
z
" transform="scale(0.015625)"/>
      <path id="DejaVuSans-5f" d="M 3263 -1063 
L 3263 -1509 
L -63 -1509 
L -63 -1063 
L 3263 -1063 
z
" transform="scale(0.015625)"/>
      <path id="DejaVuSans-73" d="M 2834 3397 
L 2834 2853 
Q 2591 2978 2328 3040 
Q 2066 3103 1784 3103 
Q 1356 3103 1142 2972 
Q 928 2841 928 2578 
Q 928 2378 1081 2264 
Q 1234 2150 1697 2047 
L 1894 2003 
Q 2506 1872 2764 1633 
Q 3022 1394 3022 966 
Q 3022 478 2636 193 
Q 2250 -91 1575 -91 
Q 1294 -91 989 -36 
Q 684 19 347 128 
L 347 722 
Q 666 556 975 473 
Q 1284 391 1588 391 
Q 1994 391 2212 530 
Q 2431 669 2431 922 
Q 2431 1156 2273 1281 
Q 2116 1406 1581 1522 
L 1381 1569 
Q 847 1681 609 1914 
Q 372 2147 372 2553 
Q 372 3047 722 3315 
Q 1072 3584 1716 3584 
Q 2034 3584 2315 3537 
Q 2597 3491 2834 3397 
z
" transform="scale(0.015625)"/>
      <path id="DejaVuSans-66" d="M 2375 4863 
L 2375 4384 
L 1825 4384 
Q 1516 4384 1395 4259 
Q 1275 4134 1275 3809 
L 1275 3500 
L 2222 3500 
L 2222 3053 
L 1275 3053 
L 1275 0 
L 697 0 
L 697 3053 
L 147 3053 
L 147 3500 
L 697 3500 
L 697 3744 
Q 697 4328 969 4595 
Q 1241 4863 1831 4863 
L 2375 4863 
z
" transform="scale(0.015625)"/>
      <path id="DejaVuSans-67" d="M 2906 1791 
Q 2906 2416 2648 2759 
Q 2391 3103 1925 3103 
Q 1463 3103 1205 2759 
Q 947 2416 947 1791 
Q 947 1169 1205 825 
Q 1463 481 1925 481 
Q 2391 481 2648 825 
Q 2906 1169 2906 1791 
z
M 3481 434 
Q 3481 -459 3084 -895 
Q 2688 -1331 1869 -1331 
Q 1566 -1331 1297 -1286 
Q 1028 -1241 775 -1147 
L 775 -588 
Q 1028 -725 1275 -790 
Q 1522 -856 1778 -856 
Q 2344 -856 2625 -561 
Q 2906 -266 2906 331 
L 2906 616 
Q 2728 306 2450 153 
Q 2172 0 1784 0 
Q 1141 0 747 490 
Q 353 981 353 1791 
Q 353 2603 747 3093 
Q 1141 3584 1784 3584 
Q 2172 3584 2450 3431 
Q 2728 3278 2906 2969 
L 2906 3500 
L 3481 3500 
L 3481 434 
z
" transform="scale(0.015625)"/>
      <path id="DejaVuSans-64" d="M 2906 2969 
L 2906 4863 
L 3481 4863 
L 3481 0 
L 2906 0 
L 2906 525 
Q 2725 213 2448 61 
Q 2172 -91 1784 -91 
Q 1150 -91 751 415 
Q 353 922 353 1747 
Q 353 2572 751 3078 
Q 1150 3584 1784 3584 
Q 2172 3584 2448 3432 
Q 2725 3281 2906 2969 
z
M 947 1747 
Q 947 1113 1208 752 
Q 1469 391 1925 391 
Q 2381 391 2643 752 
Q 2906 1113 2906 1747 
Q 2906 2381 2643 2742 
Q 2381 3103 1925 3103 
Q 1469 3103 1208 2742 
Q 947 2381 947 1747 
z
" transform="scale(0.015625)"/>
      <path id="DejaVuSans-50" d="M 1259 4147 
L 1259 2394 
L 2053 2394 
Q 2494 2394 2734 2622 
Q 2975 2850 2975 3272 
Q 2975 3691 2734 3919 
Q 2494 4147 2053 4147 
L 1259 4147 
z
M 628 4666 
L 2053 4666 
Q 2838 4666 3239 4311 
Q 3641 3956 3641 3272 
Q 3641 2581 3239 2228 
Q 2838 1875 2053 1875 
L 1259 1875 
L 1259 0 
L 628 0 
L 628 4666 
z
" transform="scale(0.015625)"/>
      <path id="DejaVuSans-46" d="M 628 4666 
L 3309 4666 
L 3309 4134 
L 1259 4134 
L 1259 2759 
L 3109 2759 
L 3109 2228 
L 1259 2228 
L 1259 0 
L 628 0 
L 628 4666 
z
" transform="scale(0.015625)"/>
      <path id="DejaVuSans-41" d="M 2188 4044 
L 1331 1722 
L 3047 1722 
L 2188 4044 
z
M 1831 4666 
L 2547 4666 
L 4325 0 
L 3669 0 
L 3244 1197 
L 1141 1197 
L 716 0 
L 50 0 
L 1831 4666 
z
" transform="scale(0.015625)"/>
      <path id="DejaVuSans-53" d="M 3425 4513 
L 3425 3897 
Q 3066 4069 2747 4153 
Q 2428 4238 2131 4238 
Q 1616 4238 1336 4038 
Q 1056 3838 1056 3469 
Q 1056 3159 1242 3001 
Q 1428 2844 1947 2747 
L 2328 2669 
Q 3034 2534 3370 2195 
Q 3706 1856 3706 1288 
Q 3706 609 3251 259 
Q 2797 -91 1919 -91 
Q 1588 -91 1214 -16 
Q 841 59 441 206 
L 441 856 
Q 825 641 1194 531 
Q 1563 422 1919 422 
Q 2459 422 2753 634 
Q 3047 847 3047 1241 
Q 3047 1584 2836 1778 
Q 2625 1972 2144 2069 
L 1759 2144 
Q 1053 2284 737 2584 
Q 422 2884 422 3419 
Q 422 4038 858 4394 
Q 1294 4750 2059 4750 
Q 2388 4750 2728 4690 
Q 3069 4631 3425 4513 
z
" transform="scale(0.015625)"/>
      <path id="DejaVuSans-6d" d="M 3328 2828 
Q 3544 3216 3844 3400 
Q 4144 3584 4550 3584 
Q 5097 3584 5394 3201 
Q 5691 2819 5691 2113 
L 5691 0 
L 5113 0 
L 5113 2094 
Q 5113 2597 4934 2840 
Q 4756 3084 4391 3084 
Q 3944 3084 3684 2787 
Q 3425 2491 3425 1978 
L 3425 0 
L 2847 0 
L 2847 2094 
Q 2847 2600 2669 2842 
Q 2491 3084 2119 3084 
Q 1678 3084 1418 2786 
Q 1159 2488 1159 1978 
L 1159 0 
L 581 0 
L 581 3500 
L 1159 3500 
L 1159 2956 
Q 1356 3278 1631 3431 
Q 1906 3584 2284 3584 
Q 2666 3584 2933 3390 
Q 3200 3197 3328 2828 
z
" transform="scale(0.015625)"/>
      <path id="DejaVuSans-4d" d="M 628 4666 
L 1569 4666 
L 2759 1491 
L 3956 4666 
L 4897 4666 
L 4897 0 
L 4281 0 
L 4281 4097 
L 3078 897 
L 2444 897 
L 1241 4097 
L 1241 0 
L 628 0 
L 628 4666 
z
" transform="scale(0.015625)"/>
      <path id="DejaVuSans-20" transform="scale(0.015625)"/>
     </defs>
     <use xlink:href="#DejaVuSans-61"/>
     <use xlink:href="#DejaVuSans-63" x="61.279297"/>
     <use xlink:href="#DejaVuSans-74" x="116.259766"/>
     <use xlink:href="#DejaVuSans-69" x="155.46875"/>
     <use xlink:href="#DejaVuSans-76" x="183.251953"/>
     <use xlink:href="#DejaVuSans-65" x="242.431641"/>
     <use xlink:href="#DejaVuSans-5f" x="303.955078"/>
     <use xlink:href="#DejaVuSans-73" x="353.955078"/>
     <use xlink:href="#DejaVuSans-69" x="406.054688"/>
     <use xlink:href="#DejaVuSans-74" x="433.837891"/>
     <use xlink:href="#DejaVuSans-65" x="473.046875"/>
     <use xlink:href="#DejaVuSans-5f" x="534.570312"/>
     <use xlink:href="#DejaVuSans-31" x="584.570312"/>
     <use xlink:href="#DejaVuSans-36" x="648.193359"/>
     <use xlink:href="#DejaVuSans-36" x="711.816406"/>
     <use xlink:href="#DejaVuSans-66" x="775.439453"/>
     <use xlink:href="#DejaVuSans-67" x="810.644531"/>
     <use xlink:href="#DejaVuSans-5f" x="874.121094"/>
     <use xlink:href="#DejaVuSans-62" x="924.121094"/>
     <use xlink:href="#DejaVuSans-69" x="987.597656"/>
     <use xlink:href="#DejaVuSans-5f" x="1015.380859"/>
     <use xlink:href="#DejaVuSans-74" x="1065.380859"/>
     <use xlink:href="#DejaVuSans-79" x="1104.589844"/>
     <use xlink:href="#DejaVuSans-70" x="1163.769531"/>
     <use xlink:href="#DejaVuSans-65" x="1227.246094"/>
     <use xlink:href="#DejaVuSans-5f" x="1288.769531"/>
     <use xlink:href="#DejaVuSans-62" x="1338.769531"/>
     <use xlink:href="#DejaVuSans-6f" x="1402.246094"/>
     <use xlink:href="#DejaVuSans-6e" x="1463.427734"/>
     <use xlink:href="#DejaVuSans-64" x="1526.806641"/>
     <use xlink:href="#DejaVuSans-33" x="1590.283203"/>
     <use xlink:href="#DejaVuSans-5f" x="1653.90625"/>
     <use xlink:href="#DejaVuSans-72" x="1703.90625"/>
     <use xlink:href="#DejaVuSans-66" x="1745.019531"/>
     <use xlink:href="#DejaVuSans-5f" x="1780.224609"/>
     <use xlink:href="#DejaVuSans-50" x="1830.224609"/>
     <use xlink:href="#DejaVuSans-46" x="1890.527344"/>
     <use xlink:href="#DejaVuSans-30" x="1948.046875"/>
     <use xlink:href="#DejaVuSans-38" x="2011.669922"/>
     <use xlink:href="#DejaVuSans-32" x="2075.292969"/>
     <use xlink:href="#DejaVuSans-34" x="2138.916016"/>
     <use xlink:href="#DejaVuSans-31" x="2202.539062"/>
     <use xlink:href="#DejaVuSans-5f" x="2266.162109"/>
     <use xlink:href="#DejaVuSans-41" x="2316.162109"/>
     <use xlink:href="#DejaVuSans-43" x="2382.820312"/>
     <use xlink:href="#DejaVuSans-53" x="2452.644531"/>
     <use xlink:href="#DejaVuSans-5f" x="2516.121094"/>
     <use xlink:href="#DejaVuSans-72" x="2566.121094"/>
     <use xlink:href="#DejaVuSans-65" x="2604.984375"/>
     <use xlink:href="#DejaVuSans-6d" x="2666.507812"/>
     <use xlink:href="#DejaVuSans-6f" x="2763.919922"/>
     <use xlink:href="#DejaVuSans-76" x="2825.101562"/>
     <use xlink:href="#DejaVuSans-65" x="2884.28125"/>
     <use xlink:href="#DejaVuSans-5f" x="2945.804688"/>
     <use xlink:href="#DejaVuSans-72" x="2995.804688"/>
     <use xlink:href="#DejaVuSans-65" x="3034.667969"/>
     <use xlink:href="#DejaVuSans-64" x="3096.191406"/>
     <use xlink:href="#DejaVuSans-75" x="3159.667969"/>
     <use xlink:href="#DejaVuSans-6e" x="3223.046875"/>
     <use xlink:href="#DejaVuSans-64" x="3286.425781"/>
     <use xlink:href="#DejaVuSans-61" x="3349.902344"/>
     <use xlink:href="#DejaVuSans-6e" x="3411.181641"/>
     <use xlink:href="#DejaVuSans-74" x="3474.560547"/>
     <use xlink:href="#DejaVuSans-5f" x="3513.769531"/>
     <use xlink:href="#DejaVuSans-31" x="3563.769531"/>
     <use xlink:href="#DejaVuSans-31" x="3627.392578"/>
     <use xlink:href="#DejaVuSans-5f" x="3691.015625"/>
     <use xlink:href="#DejaVuSans-37" x="3741.015625"/>
     <use xlink:href="#DejaVuSans-30" x="3804.638672"/>
     <use xlink:href="#DejaVuSans-5f" x="3868.261719"/>
     <use xlink:href="#DejaVuSans-4d" x="3918.261719"/>
     <use xlink:href="#DejaVuSans-41" x="4004.541016"/>
     <use xlink:href="#DejaVuSans-43" x="4071.199219"/>
     <use xlink:href="#DejaVuSans-43" x="4141.023438"/>
     <use xlink:href="#DejaVuSans-53" x="4210.847656"/>
     <use xlink:href="#DejaVuSans-5f" x="4274.324219"/>
     <use xlink:href="#DejaVuSans-6e" x="4324.324219"/>
     <use xlink:href="#DejaVuSans-6f" x="4387.703125"/>
     <use xlink:href="#DejaVuSans-5f" x="4448.884766"/>
     <use xlink:href="#DejaVuSans-73" x="4498.884766"/>
     <use xlink:href="#DejaVuSans-61" x="4550.984375"/>
     <use xlink:href="#DejaVuSans-6d" x="4612.263672"/>
     <use xlink:href="#DejaVuSans-65" x="4709.675781"/>
     <use xlink:href="#DejaVuSans-5f" x="4771.199219"/>
     <use xlink:href="#DejaVuSans-73" x="4821.199219"/>
     <use xlink:href="#DejaVuSans-75" x="4873.298828"/>
     <use xlink:href="#DejaVuSans-62" x="4936.677734"/>
     <use xlink:href="#DejaVuSans-5f" x="5000.154297"/>
     <use xlink:href="#DejaVuSans-70" x="5050.154297"/>
     <use xlink:href="#DejaVuSans-72" x="5113.630859"/>
     <use xlink:href="#DejaVuSans-65" x="5152.494141"/>
     <use xlink:href="#DejaVuSans-64" x="5214.017578"/>
     <use xlink:href="#DejaVuSans-69" x="5277.494141"/>
     <use xlink:href="#DejaVuSans-63" x="5305.277344"/>
     <use xlink:href="#DejaVuSans-74" x="5360.257812"/>
     <use xlink:href="#DejaVuSans-69" x="5399.466797"/>
     <use xlink:href="#DejaVuSans-6f" x="5427.25"/>
     <use xlink:href="#DejaVuSans-6e" x="5488.431641"/>
     <use xlink:href="#DejaVuSans-20" x="5551.810547"/>
     <use xlink:href="#DejaVuSans-70" x="5583.597656"/>
     <use xlink:href="#DejaVuSans-72" x="5647.074219"/>
     <use xlink:href="#DejaVuSans-6f" x="5685.9375"/>
     <use xlink:href="#DejaVuSans-62" x="5747.119141"/>
     <use xlink:href="#DejaVuSans-61" x="5810.595703"/>
     <use xlink:href="#DejaVuSans-62" x="5871.875"/>
     <use xlink:href="#DejaVuSans-69" x="5935.351562"/>
     <use xlink:href="#DejaVuSans-6c" x="5963.134766"/>
     <use xlink:href="#DejaVuSans-69" x="5990.917969"/>
     <use xlink:href="#DejaVuSans-74" x="6018.701172"/>
     <use xlink:href="#DejaVuSans-79" x="6057.910156"/>
     <use xlink:href="#DejaVuSans-20" x="6117.089844"/>
     <use xlink:href="#DejaVuSans-64" x="6148.876953"/>
     <use xlink:href="#DejaVuSans-69" x="6212.353516"/>
     <use xlink:href="#DejaVuSans-73" x="6240.136719"/>
     <use xlink:href="#DejaVuSans-74" x="6292.236328"/>
     <use xlink:href="#DejaVuSans-72" x="6331.445312"/>
     <use xlink:href="#DejaVuSans-69" x="6372.558594"/>
     <use xlink:href="#DejaVuSans-62" x="6400.341797"/>
     <use xlink:href="#DejaVuSans-75" x="6463.818359"/>
     <use xlink:href="#DejaVuSans-74" x="6527.197266"/>
     <use xlink:href="#DejaVuSans-69" x="6566.40625"/>
     <use xlink:href="#DejaVuSans-6f" x="6594.189453"/>
     <use xlink:href="#DejaVuSans-6e" x="6655.371094"/>
    </g>
   </g>
   <g id="legend_1">
    <g id="patch_205">
     <path d="M 3423.873125 109.280625 
L 3524.2 109.280625 
Q 3525.8 109.280625 3525.8 107.680625 
L 3525.8 46.154375 
Q 3525.8 44.554375 3524.2 44.554375 
L 3423.873125 44.554375 
Q 3422.273125 44.554375 3422.273125 46.154375 
L 3422.273125 107.680625 
Q 3422.273125 109.280625 3423.873125 109.280625 
z
" style="fill: #eaeaf2; opacity: 0.8; stroke: #cccccc; stroke-linejoin: miter"/>
    </g>
    <g id="text_18">
     <!-- Label -->
     <g style="fill: #262626" transform="translate(3425.473125 75.10875)scale(0.36 -0.36)">
      <defs>
       <path id="DejaVuSans-4c" d="M 628 4666 
L 1259 4666 
L 1259 531 
L 3531 531 
L 3531 0 
L 628 0 
L 628 4666 
z
" transform="scale(0.015625)"/>
      </defs>
      <use xlink:href="#DejaVuSans-4c"/>
      <use xlink:href="#DejaVuSans-61" x="55.712891"/>
      <use xlink:href="#DejaVuSans-62" x="116.992188"/>
      <use xlink:href="#DejaVuSans-65" x="180.46875"/>
      <use xlink:href="#DejaVuSans-6c" x="241.992188"/>
     </g>
    </g>
    <g id="patch_206">
     <path d="M 3450.617187 92.674375 
L 3466.617187 92.674375 
L 3466.617187 87.074375 
L 3450.617187 87.074375 
z
" style="fill: #ffa500; fill-opacity: 0.5; stroke: #ffffff; stroke-linejoin: miter"/>
    </g>
    <g id="text_19">
     <!-- label1 -->
     <g style="fill: #262626" transform="translate(3473.017187 92.674375)scale(0.08 -0.08)">
      <use xlink:href="#DejaVuSans-6c"/>
      <use xlink:href="#DejaVuSans-61" x="27.783203"/>
      <use xlink:href="#DejaVuSans-62" x="89.0625"/>
      <use xlink:href="#DejaVuSans-65" x="152.539062"/>
      <use xlink:href="#DejaVuSans-6c" x="214.0625"/>
      <use xlink:href="#DejaVuSans-31" x="241.845703"/>
     </g>
    </g>
    <g id="patch_207">
     <path d="M 3450.617187 104.416875 
L 3466.617187 104.416875 
L 3466.617187 98.816875 
L 3450.617187 98.816875 
z
" style="fill: #0000ff; fill-opacity: 0.5; stroke: #ffffff; stroke-linejoin: miter"/>
    </g>
    <g id="text_20">
     <!-- label0 -->
     <g style="fill: #262626" transform="translate(3473.017187 104.416875)scale(0.08 -0.08)">
      <use xlink:href="#DejaVuSans-6c"/>
      <use xlink:href="#DejaVuSans-61" x="27.783203"/>
      <use xlink:href="#DejaVuSans-62" x="89.0625"/>
      <use xlink:href="#DejaVuSans-65" x="152.539062"/>
      <use xlink:href="#DejaVuSans-6c" x="214.0625"/>
      <use xlink:href="#DejaVuSans-30" x="241.845703"/>
     </g>
    </g>
   </g>
  </g>
 </g>
 <defs>
  <clipPath id="p81367b2f13">
   <rect x="118.53" y="40.554375" width="3411.27" height="2040.34"/>
  </clipPath>
 </defs>
</svg>
