<?xml version="1.0" encoding="utf-8" standalone="no"?>
<!DOCTYPE svg PUBLIC "-//W3C//DTD SVG 1.1//EN"
  "http://www.w3.org/Graphics/SVG/1.1/DTD/svg11.dtd">
<svg xmlns:xlink="http://www.w3.org/1999/xlink" width="3537.02625pt" height="2168.373437pt" viewBox="0 0 3537.02625 2168.373437" xmlns="http://www.w3.org/2000/svg" version="1.1">
 <metadata>
  <rdf:RDF xmlns:dc="http://purl.org/dc/elements/1.1/" xmlns:cc="http://creativecommons.org/ns#" xmlns:rdf="http://www.w3.org/1999/02/22-rdf-syntax-ns#">
   <cc:Work>
    <dc:type rdf:resource="http://purl.org/dc/dcmitype/StillImage"/>
    <dc:date>2022-11-22T00:07:17.220033</dc:date>
    <dc:format>image/svg+xml</dc:format>
    <dc:creator>
     <cc:Agent>
      <dc:title>Matplotlib v3.5.2, https://matplotlib.org/</dc:title>
     </cc:Agent>
    </dc:creator>
   </cc:Work>
  </rdf:RDF>
 </metadata>
 <defs>
  <style type="text/css">*{stroke-linejoin: round; stroke-linecap: butt}</style>
 </defs>
 <g id="figure_1">
  <g id="patch_1">
   <path d="M -0 2168.373437 
L 3537.02625 2168.373437 
L 3537.02625 0 
L -0 0 
z
" style="fill: #ffffff"/>
  </g>
  <g id="axes_1">
   <g id="patch_2">
    <path d="M 139.52625 2080.894375 
L 3529.82625 2080.894375 
L 3529.82625 40.554375 
L 139.52625 40.554375 
z
" style="fill: #eaeaf2"/>
   </g>
   <g id="matplotlib.axis_1">
    <g id="xtick_1">
     <g id="line2d_1">
      <path d="M 293.630795 2080.894375 
L 293.630795 40.554375 
" clip-path="url(#p12bb111ac0)" style="fill: none; stroke: #ffffff; stroke-linecap: round"/>
     </g>
     <g id="text_1">
      <!-- 0.0 -->
      <g style="fill: #262626" transform="translate(267.390639 2115.469219)scale(0.33 -0.33)">
       <defs>
        <path id="DejaVuSans-30" d="M 2034 4250 
Q 1547 4250 1301 3770 
Q 1056 3291 1056 2328 
Q 1056 1369 1301 889 
Q 1547 409 2034 409 
Q 2525 409 2770 889 
Q 3016 1369 3016 2328 
Q 3016 3291 2770 3770 
Q 2525 4250 2034 4250 
z
M 2034 4750 
Q 2819 4750 3233 4129 
Q 3647 3509 3647 2328 
Q 3647 1150 3233 529 
Q 2819 -91 2034 -91 
Q 1250 -91 836 529 
Q 422 1150 422 2328 
Q 422 3509 836 4129 
Q 1250 4750 2034 4750 
z
" transform="scale(0.015625)"/>
        <path id="DejaVuSans-2e" d="M 684 794 
L 1344 794 
L 1344 0 
L 684 0 
L 684 794 
z
" transform="scale(0.015625)"/>
       </defs>
       <use xlink:href="#DejaVuSans-30"/>
       <use xlink:href="#DejaVuSans-2e" x="63.623047"/>
       <use xlink:href="#DejaVuSans-30" x="95.410156"/>
      </g>
     </g>
    </g>
    <g id="xtick_2">
     <g id="line2d_2">
      <path d="M 910.048977 2080.894375 
L 910.048977 40.554375 
" clip-path="url(#p12bb111ac0)" style="fill: none; stroke: #ffffff; stroke-linecap: round"/>
     </g>
     <g id="text_2">
      <!-- 0.2 -->
      <g style="fill: #262626" transform="translate(883.808821 2115.469219)scale(0.33 -0.33)">
       <defs>
        <path id="DejaVuSans-32" d="M 1228 531 
L 3431 531 
L 3431 0 
L 469 0 
L 469 531 
Q 828 903 1448 1529 
Q 2069 2156 2228 2338 
Q 2531 2678 2651 2914 
Q 2772 3150 2772 3378 
Q 2772 3750 2511 3984 
Q 2250 4219 1831 4219 
Q 1534 4219 1204 4116 
Q 875 4013 500 3803 
L 500 4441 
Q 881 4594 1212 4672 
Q 1544 4750 1819 4750 
Q 2544 4750 2975 4387 
Q 3406 4025 3406 3419 
Q 3406 3131 3298 2873 
Q 3191 2616 2906 2266 
Q 2828 2175 2409 1742 
Q 1991 1309 1228 531 
z
" transform="scale(0.015625)"/>
       </defs>
       <use xlink:href="#DejaVuSans-30"/>
       <use xlink:href="#DejaVuSans-2e" x="63.623047"/>
       <use xlink:href="#DejaVuSans-32" x="95.410156"/>
      </g>
     </g>
    </g>
    <g id="xtick_3">
     <g id="line2d_3">
      <path d="M 1526.467159 2080.894375 
L 1526.467159 40.554375 
" clip-path="url(#p12bb111ac0)" style="fill: none; stroke: #ffffff; stroke-linecap: round"/>
     </g>
     <g id="text_3">
      <!-- 0.4 -->
      <g style="fill: #262626" transform="translate(1500.227003 2115.469219)scale(0.33 -0.33)">
       <defs>
        <path id="DejaVuSans-34" d="M 2419 4116 
L 825 1625 
L 2419 1625 
L 2419 4116 
z
M 2253 4666 
L 3047 4666 
L 3047 1625 
L 3713 1625 
L 3713 1100 
L 3047 1100 
L 3047 0 
L 2419 0 
L 2419 1100 
L 313 1100 
L 313 1709 
L 2253 4666 
z
" transform="scale(0.015625)"/>
       </defs>
       <use xlink:href="#DejaVuSans-30"/>
       <use xlink:href="#DejaVuSans-2e" x="63.623047"/>
       <use xlink:href="#DejaVuSans-34" x="95.410156"/>
      </g>
     </g>
    </g>
    <g id="xtick_4">
     <g id="line2d_4">
      <path d="M 2142.885341 2080.894375 
L 2142.885341 40.554375 
" clip-path="url(#p12bb111ac0)" style="fill: none; stroke: #ffffff; stroke-linecap: round"/>
     </g>
     <g id="text_4">
      <!-- 0.6 -->
      <g style="fill: #262626" transform="translate(2116.645185 2115.469219)scale(0.33 -0.33)">
       <defs>
        <path id="DejaVuSans-36" d="M 2113 2584 
Q 1688 2584 1439 2293 
Q 1191 2003 1191 1497 
Q 1191 994 1439 701 
Q 1688 409 2113 409 
Q 2538 409 2786 701 
Q 3034 994 3034 1497 
Q 3034 2003 2786 2293 
Q 2538 2584 2113 2584 
z
M 3366 4563 
L 3366 3988 
Q 3128 4100 2886 4159 
Q 2644 4219 2406 4219 
Q 1781 4219 1451 3797 
Q 1122 3375 1075 2522 
Q 1259 2794 1537 2939 
Q 1816 3084 2150 3084 
Q 2853 3084 3261 2657 
Q 3669 2231 3669 1497 
Q 3669 778 3244 343 
Q 2819 -91 2113 -91 
Q 1303 -91 875 529 
Q 447 1150 447 2328 
Q 447 3434 972 4092 
Q 1497 4750 2381 4750 
Q 2619 4750 2861 4703 
Q 3103 4656 3366 4563 
z
" transform="scale(0.015625)"/>
       </defs>
       <use xlink:href="#DejaVuSans-30"/>
       <use xlink:href="#DejaVuSans-2e" x="63.623047"/>
       <use xlink:href="#DejaVuSans-36" x="95.410156"/>
      </g>
     </g>
    </g>
    <g id="xtick_5">
     <g id="line2d_5">
      <path d="M 2759.303523 2080.894375 
L 2759.303523 40.554375 
" clip-path="url(#p12bb111ac0)" style="fill: none; stroke: #ffffff; stroke-linecap: round"/>
     </g>
     <g id="text_5">
      <!-- 0.8 -->
      <g style="fill: #262626" transform="translate(2733.063366 2115.469219)scale(0.33 -0.33)">
       <defs>
        <path id="DejaVuSans-38" d="M 2034 2216 
Q 1584 2216 1326 1975 
Q 1069 1734 1069 1313 
Q 1069 891 1326 650 
Q 1584 409 2034 409 
Q 2484 409 2743 651 
Q 3003 894 3003 1313 
Q 3003 1734 2745 1975 
Q 2488 2216 2034 2216 
z
M 1403 2484 
Q 997 2584 770 2862 
Q 544 3141 544 3541 
Q 544 4100 942 4425 
Q 1341 4750 2034 4750 
Q 2731 4750 3128 4425 
Q 3525 4100 3525 3541 
Q 3525 3141 3298 2862 
Q 3072 2584 2669 2484 
Q 3125 2378 3379 2068 
Q 3634 1759 3634 1313 
Q 3634 634 3220 271 
Q 2806 -91 2034 -91 
Q 1263 -91 848 271 
Q 434 634 434 1313 
Q 434 1759 690 2068 
Q 947 2378 1403 2484 
z
M 1172 3481 
Q 1172 3119 1398 2916 
Q 1625 2713 2034 2713 
Q 2441 2713 2670 2916 
Q 2900 3119 2900 3481 
Q 2900 3844 2670 4047 
Q 2441 4250 2034 4250 
Q 1625 4250 1398 4047 
Q 1172 3844 1172 3481 
z
" transform="scale(0.015625)"/>
       </defs>
       <use xlink:href="#DejaVuSans-30"/>
       <use xlink:href="#DejaVuSans-2e" x="63.623047"/>
       <use xlink:href="#DejaVuSans-38" x="95.410156"/>
      </g>
     </g>
    </g>
    <g id="xtick_6">
     <g id="line2d_6">
      <path d="M 3375.721705 2080.894375 
L 3375.721705 40.554375 
" clip-path="url(#p12bb111ac0)" style="fill: none; stroke: #ffffff; stroke-linecap: round"/>
     </g>
     <g id="text_6">
      <!-- 1.0 -->
      <g style="fill: #262626" transform="translate(3349.481548 2115.469219)scale(0.33 -0.33)">
       <defs>
        <path id="DejaVuSans-31" d="M 794 531 
L 1825 531 
L 1825 4091 
L 703 3866 
L 703 4441 
L 1819 4666 
L 2450 4666 
L 2450 531 
L 3481 531 
L 3481 0 
L 794 0 
L 794 531 
z
" transform="scale(0.015625)"/>
       </defs>
       <use xlink:href="#DejaVuSans-31"/>
       <use xlink:href="#DejaVuSans-2e" x="63.623047"/>
       <use xlink:href="#DejaVuSans-30" x="95.410156"/>
      </g>
     </g>
    </g>
    <g id="text_7">
     <!-- probability -->
     <g style="fill: #262626" transform="translate(1738.643437 2153.686563)scale(0.36 -0.36)">
      <defs>
       <path id="DejaVuSans-70" d="M 1159 525 
L 1159 -1331 
L 581 -1331 
L 581 3500 
L 1159 3500 
L 1159 2969 
Q 1341 3281 1617 3432 
Q 1894 3584 2278 3584 
Q 2916 3584 3314 3078 
Q 3713 2572 3713 1747 
Q 3713 922 3314 415 
Q 2916 -91 2278 -91 
Q 1894 -91 1617 61 
Q 1341 213 1159 525 
z
M 3116 1747 
Q 3116 2381 2855 2742 
Q 2594 3103 2138 3103 
Q 1681 3103 1420 2742 
Q 1159 2381 1159 1747 
Q 1159 1113 1420 752 
Q 1681 391 2138 391 
Q 2594 391 2855 752 
Q 3116 1113 3116 1747 
z
" transform="scale(0.015625)"/>
       <path id="DejaVuSans-72" d="M 2631 2963 
Q 2534 3019 2420 3045 
Q 2306 3072 2169 3072 
Q 1681 3072 1420 2755 
Q 1159 2438 1159 1844 
L 1159 0 
L 581 0 
L 581 3500 
L 1159 3500 
L 1159 2956 
Q 1341 3275 1631 3429 
Q 1922 3584 2338 3584 
Q 2397 3584 2469 3576 
Q 2541 3569 2628 3553 
L 2631 2963 
z
" transform="scale(0.015625)"/>
       <path id="DejaVuSans-6f" d="M 1959 3097 
Q 1497 3097 1228 2736 
Q 959 2375 959 1747 
Q 959 1119 1226 758 
Q 1494 397 1959 397 
Q 2419 397 2687 759 
Q 2956 1122 2956 1747 
Q 2956 2369 2687 2733 
Q 2419 3097 1959 3097 
z
M 1959 3584 
Q 2709 3584 3137 3096 
Q 3566 2609 3566 1747 
Q 3566 888 3137 398 
Q 2709 -91 1959 -91 
Q 1206 -91 779 398 
Q 353 888 353 1747 
Q 353 2609 779 3096 
Q 1206 3584 1959 3584 
z
" transform="scale(0.015625)"/>
       <path id="DejaVuSans-62" d="M 3116 1747 
Q 3116 2381 2855 2742 
Q 2594 3103 2138 3103 
Q 1681 3103 1420 2742 
Q 1159 2381 1159 1747 
Q 1159 1113 1420 752 
Q 1681 391 2138 391 
Q 2594 391 2855 752 
Q 3116 1113 3116 1747 
z
M 1159 2969 
Q 1341 3281 1617 3432 
Q 1894 3584 2278 3584 
Q 2916 3584 3314 3078 
Q 3713 2572 3713 1747 
Q 3713 922 3314 415 
Q 2916 -91 2278 -91 
Q 1894 -91 1617 61 
Q 1341 213 1159 525 
L 1159 0 
L 581 0 
L 581 4863 
L 1159 4863 
L 1159 2969 
z
" transform="scale(0.015625)"/>
       <path id="DejaVuSans-61" d="M 2194 1759 
Q 1497 1759 1228 1600 
Q 959 1441 959 1056 
Q 959 750 1161 570 
Q 1363 391 1709 391 
Q 2188 391 2477 730 
Q 2766 1069 2766 1631 
L 2766 1759 
L 2194 1759 
z
M 3341 1997 
L 3341 0 
L 2766 0 
L 2766 531 
Q 2569 213 2275 61 
Q 1981 -91 1556 -91 
Q 1019 -91 701 211 
Q 384 513 384 1019 
Q 384 1609 779 1909 
Q 1175 2209 1959 2209 
L 2766 2209 
L 2766 2266 
Q 2766 2663 2505 2880 
Q 2244 3097 1772 3097 
Q 1472 3097 1187 3025 
Q 903 2953 641 2809 
L 641 3341 
Q 956 3463 1253 3523 
Q 1550 3584 1831 3584 
Q 2591 3584 2966 3190 
Q 3341 2797 3341 1997 
z
" transform="scale(0.015625)"/>
       <path id="DejaVuSans-69" d="M 603 3500 
L 1178 3500 
L 1178 0 
L 603 0 
L 603 3500 
z
M 603 4863 
L 1178 4863 
L 1178 4134 
L 603 4134 
L 603 4863 
z
" transform="scale(0.015625)"/>
       <path id="DejaVuSans-6c" d="M 603 4863 
L 1178 4863 
L 1178 0 
L 603 0 
L 603 4863 
z
" transform="scale(0.015625)"/>
       <path id="DejaVuSans-74" d="M 1172 4494 
L 1172 3500 
L 2356 3500 
L 2356 3053 
L 1172 3053 
L 1172 1153 
Q 1172 725 1289 603 
Q 1406 481 1766 481 
L 2356 481 
L 2356 0 
L 1766 0 
Q 1100 0 847 248 
Q 594 497 594 1153 
L 594 3053 
L 172 3053 
L 172 3500 
L 594 3500 
L 594 4494 
L 1172 4494 
z
" transform="scale(0.015625)"/>
       <path id="DejaVuSans-79" d="M 2059 -325 
Q 1816 -950 1584 -1140 
Q 1353 -1331 966 -1331 
L 506 -1331 
L 506 -850 
L 844 -850 
Q 1081 -850 1212 -737 
Q 1344 -625 1503 -206 
L 1606 56 
L 191 3500 
L 800 3500 
L 1894 763 
L 2988 3500 
L 3597 3500 
L 2059 -325 
z
" transform="scale(0.015625)"/>
      </defs>
      <use xlink:href="#DejaVuSans-70"/>
      <use xlink:href="#DejaVuSans-72" x="63.476562"/>
      <use xlink:href="#DejaVuSans-6f" x="102.339844"/>
      <use xlink:href="#DejaVuSans-62" x="163.521484"/>
      <use xlink:href="#DejaVuSans-61" x="226.998047"/>
      <use xlink:href="#DejaVuSans-62" x="288.277344"/>
      <use xlink:href="#DejaVuSans-69" x="351.753906"/>
      <use xlink:href="#DejaVuSans-6c" x="379.537109"/>
      <use xlink:href="#DejaVuSans-69" x="407.320312"/>
      <use xlink:href="#DejaVuSans-74" x="435.103516"/>
      <use xlink:href="#DejaVuSans-79" x="474.3125"/>
     </g>
    </g>
   </g>
   <g id="matplotlib.axis_2">
    <g id="ytick_1">
     <g id="line2d_7">
      <path d="M 139.52625 2080.894375 
L 3529.82625 2080.894375 
" clip-path="url(#p12bb111ac0)" style="fill: none; stroke: #ffffff; stroke-linecap: round"/>
     </g>
     <g id="text_8">
      <!-- 0 -->
      <g style="fill: #262626" transform="translate(109.03 2093.431797)scale(0.33 -0.33)">
       <use xlink:href="#DejaVuSans-30"/>
      </g>
     </g>
    </g>
    <g id="ytick_2">
     <g id="line2d_8">
      <path d="M 139.52625 1718.698485 
L 3529.82625 1718.698485 
" clip-path="url(#p12bb111ac0)" style="fill: none; stroke: #ffffff; stroke-linecap: round"/>
     </g>
     <g id="text_9">
      <!-- 200 -->
      <g style="fill: #262626" transform="translate(67.0375 1731.235906)scale(0.33 -0.33)">
       <use xlink:href="#DejaVuSans-32"/>
       <use xlink:href="#DejaVuSans-30" x="63.623047"/>
       <use xlink:href="#DejaVuSans-30" x="127.246094"/>
      </g>
     </g>
    </g>
    <g id="ytick_3">
     <g id="line2d_9">
      <path d="M 139.52625 1356.502594 
L 3529.82625 1356.502594 
" clip-path="url(#p12bb111ac0)" style="fill: none; stroke: #ffffff; stroke-linecap: round"/>
     </g>
     <g id="text_10">
      <!-- 400 -->
      <g style="fill: #262626" transform="translate(67.0375 1369.040016)scale(0.33 -0.33)">
       <use xlink:href="#DejaVuSans-34"/>
       <use xlink:href="#DejaVuSans-30" x="63.623047"/>
       <use xlink:href="#DejaVuSans-30" x="127.246094"/>
      </g>
     </g>
    </g>
    <g id="ytick_4">
     <g id="line2d_10">
      <path d="M 139.52625 994.306704 
L 3529.82625 994.306704 
" clip-path="url(#p12bb111ac0)" style="fill: none; stroke: #ffffff; stroke-linecap: round"/>
     </g>
     <g id="text_11">
      <!-- 600 -->
      <g style="fill: #262626" transform="translate(67.0375 1006.844125)scale(0.33 -0.33)">
       <use xlink:href="#DejaVuSans-36"/>
       <use xlink:href="#DejaVuSans-30" x="63.623047"/>
       <use xlink:href="#DejaVuSans-30" x="127.246094"/>
      </g>
     </g>
    </g>
    <g id="ytick_5">
     <g id="line2d_11">
      <path d="M 139.52625 632.110813 
L 3529.82625 632.110813 
" clip-path="url(#p12bb111ac0)" style="fill: none; stroke: #ffffff; stroke-linecap: round"/>
     </g>
     <g id="text_12">
      <!-- 800 -->
      <g style="fill: #262626" transform="translate(67.0375 644.648235)scale(0.33 -0.33)">
       <use xlink:href="#DejaVuSans-38"/>
       <use xlink:href="#DejaVuSans-30" x="63.623047"/>
       <use xlink:href="#DejaVuSans-30" x="127.246094"/>
      </g>
     </g>
    </g>
    <g id="ytick_6">
     <g id="line2d_12">
      <path d="M 139.52625 269.914923 
L 3529.82625 269.914923 
" clip-path="url(#p12bb111ac0)" style="fill: none; stroke: #ffffff; stroke-linecap: round"/>
     </g>
     <g id="text_13">
      <!-- 1000 -->
      <g style="fill: #262626" transform="translate(46.04125 282.452345)scale(0.33 -0.33)">
       <use xlink:href="#DejaVuSans-31"/>
       <use xlink:href="#DejaVuSans-30" x="63.623047"/>
       <use xlink:href="#DejaVuSans-30" x="127.246094"/>
       <use xlink:href="#DejaVuSans-30" x="190.869141"/>
      </g>
     </g>
    </g>
    <g id="text_14">
     <!-- Count -->
     <g style="fill: #262626" transform="translate(34.554375 1114.17875)rotate(-90)scale(0.36 -0.36)">
      <defs>
       <path id="DejaVuSans-43" d="M 4122 4306 
L 4122 3641 
Q 3803 3938 3442 4084 
Q 3081 4231 2675 4231 
Q 1875 4231 1450 3742 
Q 1025 3253 1025 2328 
Q 1025 1406 1450 917 
Q 1875 428 2675 428 
Q 3081 428 3442 575 
Q 3803 722 4122 1019 
L 4122 359 
Q 3791 134 3420 21 
Q 3050 -91 2638 -91 
Q 1578 -91 968 557 
Q 359 1206 359 2328 
Q 359 3453 968 4101 
Q 1578 4750 2638 4750 
Q 3056 4750 3426 4639 
Q 3797 4528 4122 4306 
z
" transform="scale(0.015625)"/>
       <path id="DejaVuSans-75" d="M 544 1381 
L 544 3500 
L 1119 3500 
L 1119 1403 
Q 1119 906 1312 657 
Q 1506 409 1894 409 
Q 2359 409 2629 706 
Q 2900 1003 2900 1516 
L 2900 3500 
L 3475 3500 
L 3475 0 
L 2900 0 
L 2900 538 
Q 2691 219 2414 64 
Q 2138 -91 1772 -91 
Q 1169 -91 856 284 
Q 544 659 544 1381 
z
M 1991 3584 
L 1991 3584 
z
" transform="scale(0.015625)"/>
       <path id="DejaVuSans-6e" d="M 3513 2113 
L 3513 0 
L 2938 0 
L 2938 2094 
Q 2938 2591 2744 2837 
Q 2550 3084 2163 3084 
Q 1697 3084 1428 2787 
Q 1159 2491 1159 1978 
L 1159 0 
L 581 0 
L 581 3500 
L 1159 3500 
L 1159 2956 
Q 1366 3272 1645 3428 
Q 1925 3584 2291 3584 
Q 2894 3584 3203 3211 
Q 3513 2838 3513 2113 
z
" transform="scale(0.015625)"/>
      </defs>
      <use xlink:href="#DejaVuSans-43"/>
      <use xlink:href="#DejaVuSans-6f" x="69.824219"/>
      <use xlink:href="#DejaVuSans-75" x="131.005859"/>
      <use xlink:href="#DejaVuSans-6e" x="194.384766"/>
      <use xlink:href="#DejaVuSans-74" x="257.763672"/>
     </g>
    </g>
   </g>
   <g id="patch_3">
    <path d="M 324.451705 2080.894375 
L 355.272614 2080.894375 
L 355.272614 2080.894375 
L 324.451705 2080.894375 
z
" clip-path="url(#p12bb111ac0)" style="fill: #ffa500; fill-opacity: 0.5; stroke: #ffffff; stroke-linejoin: miter"/>
   </g>
   <g id="patch_4">
    <path d="M 355.272614 2080.894375 
L 386.093523 2080.894375 
L 386.093523 2080.894375 
L 355.272614 2080.894375 
z
" clip-path="url(#p12bb111ac0)" style="fill: #ffa500; fill-opacity: 0.5; stroke: #ffffff; stroke-linejoin: miter"/>
   </g>
   <g id="patch_5">
    <path d="M 386.093523 2080.894375 
L 416.914432 2080.894375 
L 416.914432 2060.973601 
L 386.093523 2060.973601 
z
" clip-path="url(#p12bb111ac0)" style="fill: #ffa500; fill-opacity: 0.5; stroke: #ffffff; stroke-linejoin: miter"/>
   </g>
   <g id="patch_6">
    <path d="M 416.914432 2080.894375 
L 447.735341 2080.894375 
L 447.735341 2006.644217 
L 416.914432 2006.644217 
z
" clip-path="url(#p12bb111ac0)" style="fill: #ffa500; fill-opacity: 0.5; stroke: #ffffff; stroke-linejoin: miter"/>
   </g>
   <g id="patch_7">
    <path d="M 447.735341 2080.894375 
L 478.55625 2080.894375 
L 478.55625 2015.699115 
L 447.735341 2015.699115 
z
" clip-path="url(#p12bb111ac0)" style="fill: #ffa500; fill-opacity: 0.5; stroke: #ffffff; stroke-linejoin: miter"/>
   </g>
   <g id="patch_8">
    <path d="M 478.55625 2080.894375 
L 509.377159 2080.894375 
L 509.377159 2077.272416 
L 478.55625 2077.272416 
z
" clip-path="url(#p12bb111ac0)" style="fill: #ffa500; fill-opacity: 0.5; stroke: #ffffff; stroke-linejoin: miter"/>
   </g>
   <g id="patch_9">
    <path d="M 509.377159 2080.894375 
L 540.198068 2080.894375 
L 540.198068 2080.894375 
L 509.377159 2080.894375 
z
" clip-path="url(#p12bb111ac0)" style="fill: #ffa500; fill-opacity: 0.5; stroke: #ffffff; stroke-linejoin: miter"/>
   </g>
   <g id="patch_10">
    <path d="M 540.198068 2080.894375 
L 571.018977 2080.894375 
L 571.018977 2080.894375 
L 540.198068 2080.894375 
z
" clip-path="url(#p12bb111ac0)" style="fill: #ffa500; fill-opacity: 0.5; stroke: #ffffff; stroke-linejoin: miter"/>
   </g>
   <g id="patch_11">
    <path d="M 571.018977 2080.894375 
L 601.839886 2080.894375 
L 601.839886 2080.894375 
L 571.018977 2080.894375 
z
" clip-path="url(#p12bb111ac0)" style="fill: #ffa500; fill-opacity: 0.5; stroke: #ffffff; stroke-linejoin: miter"/>
   </g>
   <g id="patch_12">
    <path d="M 601.839886 2080.894375 
L 632.660795 2080.894375 
L 632.660795 2080.894375 
L 601.839886 2080.894375 
z
" clip-path="url(#p12bb111ac0)" style="fill: #ffa500; fill-opacity: 0.5; stroke: #ffffff; stroke-linejoin: miter"/>
   </g>
   <g id="patch_13">
    <path d="M 632.660795 2080.894375 
L 663.481705 2080.894375 
L 663.481705 2080.894375 
L 632.660795 2080.894375 
z
" clip-path="url(#p12bb111ac0)" style="fill: #ffa500; fill-opacity: 0.5; stroke: #ffffff; stroke-linejoin: miter"/>
   </g>
   <g id="patch_14">
    <path d="M 663.481705 2080.894375 
L 694.302614 2080.894375 
L 694.302614 2077.272416 
L 663.481705 2077.272416 
z
" clip-path="url(#p12bb111ac0)" style="fill: #ffa500; fill-opacity: 0.5; stroke: #ffffff; stroke-linejoin: miter"/>
   </g>
   <g id="patch_15">
    <path d="M 694.302614 2080.894375 
L 725.123523 2080.894375 
L 725.123523 2075.461437 
L 694.302614 2075.461437 
z
" clip-path="url(#p12bb111ac0)" style="fill: #ffa500; fill-opacity: 0.5; stroke: #ffffff; stroke-linejoin: miter"/>
   </g>
   <g id="patch_16">
    <path d="M 725.123523 2080.894375 
L 755.944432 2080.894375 
L 755.944432 2079.083396 
L 725.123523 2079.083396 
z
" clip-path="url(#p12bb111ac0)" style="fill: #ffa500; fill-opacity: 0.5; stroke: #ffffff; stroke-linejoin: miter"/>
   </g>
   <g id="patch_17">
    <path d="M 755.944432 2080.894375 
L 786.765341 2080.894375 
L 786.765341 2077.272416 
L 755.944432 2077.272416 
z
" clip-path="url(#p12bb111ac0)" style="fill: #ffa500; fill-opacity: 0.5; stroke: #ffffff; stroke-linejoin: miter"/>
   </g>
   <g id="patch_18">
    <path d="M 786.765341 2080.894375 
L 817.58625 2080.894375 
L 817.58625 2080.894375 
L 786.765341 2080.894375 
z
" clip-path="url(#p12bb111ac0)" style="fill: #ffa500; fill-opacity: 0.5; stroke: #ffffff; stroke-linejoin: miter"/>
   </g>
   <g id="patch_19">
    <path d="M 817.58625 2080.894375 
L 848.407159 2080.894375 
L 848.407159 2079.083396 
L 817.58625 2079.083396 
z
" clip-path="url(#p12bb111ac0)" style="fill: #ffa500; fill-opacity: 0.5; stroke: #ffffff; stroke-linejoin: miter"/>
   </g>
   <g id="patch_20">
    <path d="M 848.407159 2080.894375 
L 879.228068 2080.894375 
L 879.228068 2080.894375 
L 848.407159 2080.894375 
z
" clip-path="url(#p12bb111ac0)" style="fill: #ffa500; fill-opacity: 0.5; stroke: #ffffff; stroke-linejoin: miter"/>
   </g>
   <g id="patch_21">
    <path d="M 879.228068 2080.894375 
L 910.048977 2080.894375 
L 910.048977 2080.894375 
L 879.228068 2080.894375 
z
" clip-path="url(#p12bb111ac0)" style="fill: #ffa500; fill-opacity: 0.5; stroke: #ffffff; stroke-linejoin: miter"/>
   </g>
   <g id="patch_22">
    <path d="M 910.048977 2080.894375 
L 940.869886 2080.894375 
L 940.869886 2073.650457 
L 910.048977 2073.650457 
z
" clip-path="url(#p12bb111ac0)" style="fill: #ffa500; fill-opacity: 0.5; stroke: #ffffff; stroke-linejoin: miter"/>
   </g>
   <g id="patch_23">
    <path d="M 940.869886 2080.894375 
L 971.690795 2080.894375 
L 971.690795 2080.894375 
L 940.869886 2080.894375 
z
" clip-path="url(#p12bb111ac0)" style="fill: #ffa500; fill-opacity: 0.5; stroke: #ffffff; stroke-linejoin: miter"/>
   </g>
   <g id="patch_24">
    <path d="M 971.690795 2080.894375 
L 1002.511705 2080.894375 
L 1002.511705 2079.083396 
L 971.690795 2079.083396 
z
" clip-path="url(#p12bb111ac0)" style="fill: #ffa500; fill-opacity: 0.5; stroke: #ffffff; stroke-linejoin: miter"/>
   </g>
   <g id="patch_25">
    <path d="M 1002.511705 2080.894375 
L 1033.332614 2080.894375 
L 1033.332614 2079.083396 
L 1002.511705 2079.083396 
z
" clip-path="url(#p12bb111ac0)" style="fill: #ffa500; fill-opacity: 0.5; stroke: #ffffff; stroke-linejoin: miter"/>
   </g>
   <g id="patch_26">
    <path d="M 1033.332614 2080.894375 
L 1064.153523 2080.894375 
L 1064.153523 2079.083396 
L 1033.332614 2079.083396 
z
" clip-path="url(#p12bb111ac0)" style="fill: #ffa500; fill-opacity: 0.5; stroke: #ffffff; stroke-linejoin: miter"/>
   </g>
   <g id="patch_27">
    <path d="M 1064.153523 2080.894375 
L 1094.974432 2080.894375 
L 1094.974432 2080.894375 
L 1064.153523 2080.894375 
z
" clip-path="url(#p12bb111ac0)" style="fill: #ffa500; fill-opacity: 0.5; stroke: #ffffff; stroke-linejoin: miter"/>
   </g>
   <g id="patch_28">
    <path d="M 1094.974432 2080.894375 
L 1125.795341 2080.894375 
L 1125.795341 2080.894375 
L 1094.974432 2080.894375 
z
" clip-path="url(#p12bb111ac0)" style="fill: #ffa500; fill-opacity: 0.5; stroke: #ffffff; stroke-linejoin: miter"/>
   </g>
   <g id="patch_29">
    <path d="M 1125.795341 2080.894375 
L 1156.61625 2080.894375 
L 1156.61625 2080.894375 
L 1125.795341 2080.894375 
z
" clip-path="url(#p12bb111ac0)" style="fill: #ffa500; fill-opacity: 0.5; stroke: #ffffff; stroke-linejoin: miter"/>
   </g>
   <g id="patch_30">
    <path d="M 1156.61625 2080.894375 
L 1187.437159 2080.894375 
L 1187.437159 2080.894375 
L 1156.61625 2080.894375 
z
" clip-path="url(#p12bb111ac0)" style="fill: #ffa500; fill-opacity: 0.5; stroke: #ffffff; stroke-linejoin: miter"/>
   </g>
   <g id="patch_31">
    <path d="M 1187.437159 2080.894375 
L 1218.258068 2080.894375 
L 1218.258068 2080.894375 
L 1187.437159 2080.894375 
z
" clip-path="url(#p12bb111ac0)" style="fill: #ffa500; fill-opacity: 0.5; stroke: #ffffff; stroke-linejoin: miter"/>
   </g>
   <g id="patch_32">
    <path d="M 1218.258068 2080.894375 
L 1249.078977 2080.894375 
L 1249.078977 2080.894375 
L 1218.258068 2080.894375 
z
" clip-path="url(#p12bb111ac0)" style="fill: #ffa500; fill-opacity: 0.5; stroke: #ffffff; stroke-linejoin: miter"/>
   </g>
   <g id="patch_33">
    <path d="M 1249.078977 2080.894375 
L 1279.899886 2080.894375 
L 1279.899886 2077.272416 
L 1249.078977 2077.272416 
z
" clip-path="url(#p12bb111ac0)" style="fill: #ffa500; fill-opacity: 0.5; stroke: #ffffff; stroke-linejoin: miter"/>
   </g>
   <g id="patch_34">
    <path d="M 1279.899886 2080.894375 
L 1310.720795 2080.894375 
L 1310.720795 2075.461437 
L 1279.899886 2075.461437 
z
" clip-path="url(#p12bb111ac0)" style="fill: #ffa500; fill-opacity: 0.5; stroke: #ffffff; stroke-linejoin: miter"/>
   </g>
   <g id="patch_35">
    <path d="M 1310.720795 2080.894375 
L 1341.541705 2080.894375 
L 1341.541705 2080.894375 
L 1310.720795 2080.894375 
z
" clip-path="url(#p12bb111ac0)" style="fill: #ffa500; fill-opacity: 0.5; stroke: #ffffff; stroke-linejoin: miter"/>
   </g>
   <g id="patch_36">
    <path d="M 1341.541705 2080.894375 
L 1372.362614 2080.894375 
L 1372.362614 2079.083396 
L 1341.541705 2079.083396 
z
" clip-path="url(#p12bb111ac0)" style="fill: #ffa500; fill-opacity: 0.5; stroke: #ffffff; stroke-linejoin: miter"/>
   </g>
   <g id="patch_37">
    <path d="M 1372.362614 2080.894375 
L 1403.183523 2080.894375 
L 1403.183523 2080.894375 
L 1372.362614 2080.894375 
z
" clip-path="url(#p12bb111ac0)" style="fill: #ffa500; fill-opacity: 0.5; stroke: #ffffff; stroke-linejoin: miter"/>
   </g>
   <g id="patch_38">
    <path d="M 1403.183523 2080.894375 
L 1434.004432 2080.894375 
L 1434.004432 2080.894375 
L 1403.183523 2080.894375 
z
" clip-path="url(#p12bb111ac0)" style="fill: #ffa500; fill-opacity: 0.5; stroke: #ffffff; stroke-linejoin: miter"/>
   </g>
   <g id="patch_39">
    <path d="M 1434.004432 2080.894375 
L 1464.825341 2080.894375 
L 1464.825341 2080.894375 
L 1434.004432 2080.894375 
z
" clip-path="url(#p12bb111ac0)" style="fill: #ffa500; fill-opacity: 0.5; stroke: #ffffff; stroke-linejoin: miter"/>
   </g>
   <g id="patch_40">
    <path d="M 1464.825341 2080.894375 
L 1495.64625 2080.894375 
L 1495.64625 2079.083396 
L 1464.825341 2079.083396 
z
" clip-path="url(#p12bb111ac0)" style="fill: #ffa500; fill-opacity: 0.5; stroke: #ffffff; stroke-linejoin: miter"/>
   </g>
   <g id="patch_41">
    <path d="M 1495.64625 2080.894375 
L 1526.467159 2080.894375 
L 1526.467159 2075.461437 
L 1495.64625 2075.461437 
z
" clip-path="url(#p12bb111ac0)" style="fill: #ffa500; fill-opacity: 0.5; stroke: #ffffff; stroke-linejoin: miter"/>
   </g>
   <g id="patch_42">
    <path d="M 1526.467159 2080.894375 
L 1557.288068 2080.894375 
L 1557.288068 2079.083396 
L 1526.467159 2079.083396 
z
" clip-path="url(#p12bb111ac0)" style="fill: #ffa500; fill-opacity: 0.5; stroke: #ffffff; stroke-linejoin: miter"/>
   </g>
   <g id="patch_43">
    <path d="M 1557.288068 2080.894375 
L 1588.108977 2080.894375 
L 1588.108977 2080.894375 
L 1557.288068 2080.894375 
z
" clip-path="url(#p12bb111ac0)" style="fill: #ffa500; fill-opacity: 0.5; stroke: #ffffff; stroke-linejoin: miter"/>
   </g>
   <g id="patch_44">
    <path d="M 1588.108977 2080.894375 
L 1618.929886 2080.894375 
L 1618.929886 2066.406539 
L 1588.108977 2066.406539 
z
" clip-path="url(#p12bb111ac0)" style="fill: #ffa500; fill-opacity: 0.5; stroke: #ffffff; stroke-linejoin: miter"/>
   </g>
   <g id="patch_45">
    <path d="M 1618.929886 2080.894375 
L 1649.750795 2080.894375 
L 1649.750795 2075.461437 
L 1618.929886 2075.461437 
z
" clip-path="url(#p12bb111ac0)" style="fill: #ffa500; fill-opacity: 0.5; stroke: #ffffff; stroke-linejoin: miter"/>
   </g>
   <g id="patch_46">
    <path d="M 1649.750795 2080.894375 
L 1680.571705 2080.894375 
L 1680.571705 2079.083396 
L 1649.750795 2079.083396 
z
" clip-path="url(#p12bb111ac0)" style="fill: #ffa500; fill-opacity: 0.5; stroke: #ffffff; stroke-linejoin: miter"/>
   </g>
   <g id="patch_47">
    <path d="M 1680.571705 2080.894375 
L 1711.392614 2080.894375 
L 1711.392614 2075.461437 
L 1680.571705 2075.461437 
z
" clip-path="url(#p12bb111ac0)" style="fill: #ffa500; fill-opacity: 0.5; stroke: #ffffff; stroke-linejoin: miter"/>
   </g>
   <g id="patch_48">
    <path d="M 1711.392614 2080.894375 
L 1742.213523 2080.894375 
L 1742.213523 2075.461437 
L 1711.392614 2075.461437 
z
" clip-path="url(#p12bb111ac0)" style="fill: #ffa500; fill-opacity: 0.5; stroke: #ffffff; stroke-linejoin: miter"/>
   </g>
   <g id="patch_49">
    <path d="M 1742.213523 2080.894375 
L 1773.034432 2080.894375 
L 1773.034432 2068.217519 
L 1742.213523 2068.217519 
z
" clip-path="url(#p12bb111ac0)" style="fill: #ffa500; fill-opacity: 0.5; stroke: #ffffff; stroke-linejoin: miter"/>
   </g>
   <g id="patch_50">
    <path d="M 1773.034432 2080.894375 
L 1803.855341 2080.894375 
L 1803.855341 2080.894375 
L 1773.034432 2080.894375 
z
" clip-path="url(#p12bb111ac0)" style="fill: #ffa500; fill-opacity: 0.5; stroke: #ffffff; stroke-linejoin: miter"/>
   </g>
   <g id="patch_51">
    <path d="M 1803.855341 2080.894375 
L 1834.67625 2080.894375 
L 1834.67625 2077.272416 
L 1803.855341 2077.272416 
z
" clip-path="url(#p12bb111ac0)" style="fill: #ffa500; fill-opacity: 0.5; stroke: #ffffff; stroke-linejoin: miter"/>
   </g>
   <g id="patch_52">
    <path d="M 1834.67625 2080.894375 
L 1865.497159 2080.894375 
L 1865.497159 2077.272416 
L 1834.67625 2077.272416 
z
" clip-path="url(#p12bb111ac0)" style="fill: #ffa500; fill-opacity: 0.5; stroke: #ffffff; stroke-linejoin: miter"/>
   </g>
   <g id="patch_53">
    <path d="M 1865.497159 2080.894375 
L 1896.318068 2080.894375 
L 1896.318068 2080.894375 
L 1865.497159 2080.894375 
z
" clip-path="url(#p12bb111ac0)" style="fill: #ffa500; fill-opacity: 0.5; stroke: #ffffff; stroke-linejoin: miter"/>
   </g>
   <g id="patch_54">
    <path d="M 1896.318068 2080.894375 
L 1927.138977 2080.894375 
L 1927.138977 2077.272416 
L 1896.318068 2077.272416 
z
" clip-path="url(#p12bb111ac0)" style="fill: #ffa500; fill-opacity: 0.5; stroke: #ffffff; stroke-linejoin: miter"/>
   </g>
   <g id="patch_55">
    <path d="M 1927.138977 2080.894375 
L 1957.959886 2080.894375 
L 1957.959886 2077.272416 
L 1927.138977 2077.272416 
z
" clip-path="url(#p12bb111ac0)" style="fill: #ffa500; fill-opacity: 0.5; stroke: #ffffff; stroke-linejoin: miter"/>
   </g>
   <g id="patch_56">
    <path d="M 1957.959886 2080.894375 
L 1988.780795 2080.894375 
L 1988.780795 2070.028498 
L 1957.959886 2070.028498 
z
" clip-path="url(#p12bb111ac0)" style="fill: #ffa500; fill-opacity: 0.5; stroke: #ffffff; stroke-linejoin: miter"/>
   </g>
   <g id="patch_57">
    <path d="M 1988.780795 2080.894375 
L 2019.601705 2080.894375 
L 2019.601705 2021.132053 
L 1988.780795 2021.132053 
z
" clip-path="url(#p12bb111ac0)" style="fill: #ffa500; fill-opacity: 0.5; stroke: #ffffff; stroke-linejoin: miter"/>
   </g>
   <g id="patch_58">
    <path d="M 2019.601705 2080.894375 
L 2050.422614 2080.894375 
L 2050.422614 1955.936793 
L 2019.601705 1955.936793 
z
" clip-path="url(#p12bb111ac0)" style="fill: #ffa500; fill-opacity: 0.5; stroke: #ffffff; stroke-linejoin: miter"/>
   </g>
   <g id="patch_59">
    <path d="M 2050.422614 2080.894375 
L 2081.243523 2080.894375 
L 2081.243523 1932.39406 
L 2050.422614 1932.39406 
z
" clip-path="url(#p12bb111ac0)" style="fill: #ffa500; fill-opacity: 0.5; stroke: #ffffff; stroke-linejoin: miter"/>
   </g>
   <g id="patch_60">
    <path d="M 2081.243523 2080.894375 
L 2112.064432 2080.894375 
L 2112.064432 2057.351642 
L 2081.243523 2057.351642 
z
" clip-path="url(#p12bb111ac0)" style="fill: #ffa500; fill-opacity: 0.5; stroke: #ffffff; stroke-linejoin: miter"/>
   </g>
   <g id="patch_61">
    <path d="M 2112.064432 2080.894375 
L 2142.885341 2080.894375 
L 2142.885341 2057.351642 
L 2112.064432 2057.351642 
z
" clip-path="url(#p12bb111ac0)" style="fill: #ffa500; fill-opacity: 0.5; stroke: #ffffff; stroke-linejoin: miter"/>
   </g>
   <g id="patch_62">
    <path d="M 2142.885341 2080.894375 
L 2173.70625 2080.894375 
L 2173.70625 2079.083396 
L 2142.885341 2079.083396 
z
" clip-path="url(#p12bb111ac0)" style="fill: #ffa500; fill-opacity: 0.5; stroke: #ffffff; stroke-linejoin: miter"/>
   </g>
   <g id="patch_63">
    <path d="M 2173.70625 2080.894375 
L 2204.527159 2080.894375 
L 2204.527159 2079.083396 
L 2173.70625 2079.083396 
z
" clip-path="url(#p12bb111ac0)" style="fill: #ffa500; fill-opacity: 0.5; stroke: #ffffff; stroke-linejoin: miter"/>
   </g>
   <g id="patch_64">
    <path d="M 2204.527159 2080.894375 
L 2235.348068 2080.894375 
L 2235.348068 2070.028498 
L 2204.527159 2070.028498 
z
" clip-path="url(#p12bb111ac0)" style="fill: #ffa500; fill-opacity: 0.5; stroke: #ffffff; stroke-linejoin: miter"/>
   </g>
   <g id="patch_65">
    <path d="M 2235.348068 2080.894375 
L 2266.168977 2080.894375 
L 2266.168977 2070.028498 
L 2235.348068 2070.028498 
z
" clip-path="url(#p12bb111ac0)" style="fill: #ffa500; fill-opacity: 0.5; stroke: #ffffff; stroke-linejoin: miter"/>
   </g>
   <g id="patch_66">
    <path d="M 2266.168977 2080.894375 
L 2296.989886 2080.894375 
L 2296.989886 2057.351642 
L 2266.168977 2057.351642 
z
" clip-path="url(#p12bb111ac0)" style="fill: #ffa500; fill-opacity: 0.5; stroke: #ffffff; stroke-linejoin: miter"/>
   </g>
   <g id="patch_67">
    <path d="M 2296.989886 2080.894375 
L 2327.810795 2080.894375 
L 2327.810795 2055.540663 
L 2296.989886 2055.540663 
z
" clip-path="url(#p12bb111ac0)" style="fill: #ffa500; fill-opacity: 0.5; stroke: #ffffff; stroke-linejoin: miter"/>
   </g>
   <g id="patch_68">
    <path d="M 2327.810795 2080.894375 
L 2358.631705 2080.894375 
L 2358.631705 2064.59556 
L 2327.810795 2064.59556 
z
" clip-path="url(#p12bb111ac0)" style="fill: #ffa500; fill-opacity: 0.5; stroke: #ffffff; stroke-linejoin: miter"/>
   </g>
   <g id="patch_69">
    <path d="M 2358.631705 2080.894375 
L 2389.452614 2080.894375 
L 2389.452614 2071.839478 
L 2358.631705 2071.839478 
z
" clip-path="url(#p12bb111ac0)" style="fill: #ffa500; fill-opacity: 0.5; stroke: #ffffff; stroke-linejoin: miter"/>
   </g>
   <g id="patch_70">
    <path d="M 2389.452614 2080.894375 
L 2420.273523 2080.894375 
L 2420.273523 2079.083396 
L 2389.452614 2079.083396 
z
" clip-path="url(#p12bb111ac0)" style="fill: #ffa500; fill-opacity: 0.5; stroke: #ffffff; stroke-linejoin: miter"/>
   </g>
   <g id="patch_71">
    <path d="M 2420.273523 2080.894375 
L 2451.094432 2080.894375 
L 2451.094432 2075.461437 
L 2420.273523 2075.461437 
z
" clip-path="url(#p12bb111ac0)" style="fill: #ffa500; fill-opacity: 0.5; stroke: #ffffff; stroke-linejoin: miter"/>
   </g>
   <g id="patch_72">
    <path d="M 2451.094432 2080.894375 
L 2481.915341 2080.894375 
L 2481.915341 2080.894375 
L 2451.094432 2080.894375 
z
" clip-path="url(#p12bb111ac0)" style="fill: #ffa500; fill-opacity: 0.5; stroke: #ffffff; stroke-linejoin: miter"/>
   </g>
   <g id="patch_73">
    <path d="M 2481.915341 2080.894375 
L 2512.73625 2080.894375 
L 2512.73625 2080.894375 
L 2481.915341 2080.894375 
z
" clip-path="url(#p12bb111ac0)" style="fill: #ffa500; fill-opacity: 0.5; stroke: #ffffff; stroke-linejoin: miter"/>
   </g>
   <g id="patch_74">
    <path d="M 2512.73625 2080.894375 
L 2543.557159 2080.894375 
L 2543.557159 2073.650457 
L 2512.73625 2073.650457 
z
" clip-path="url(#p12bb111ac0)" style="fill: #ffa500; fill-opacity: 0.5; stroke: #ffffff; stroke-linejoin: miter"/>
   </g>
   <g id="patch_75">
    <path d="M 2543.557159 2080.894375 
L 2574.378068 2080.894375 
L 2574.378068 2079.083396 
L 2543.557159 2079.083396 
z
" clip-path="url(#p12bb111ac0)" style="fill: #ffa500; fill-opacity: 0.5; stroke: #ffffff; stroke-linejoin: miter"/>
   </g>
   <g id="patch_76">
    <path d="M 2574.378068 2080.894375 
L 2605.198977 2080.894375 
L 2605.198977 2080.894375 
L 2574.378068 2080.894375 
z
" clip-path="url(#p12bb111ac0)" style="fill: #ffa500; fill-opacity: 0.5; stroke: #ffffff; stroke-linejoin: miter"/>
   </g>
   <g id="patch_77">
    <path d="M 2605.198977 2080.894375 
L 2636.019886 2080.894375 
L 2636.019886 2080.894375 
L 2605.198977 2080.894375 
z
" clip-path="url(#p12bb111ac0)" style="fill: #ffa500; fill-opacity: 0.5; stroke: #ffffff; stroke-linejoin: miter"/>
   </g>
   <g id="patch_78">
    <path d="M 2636.019886 2080.894375 
L 2666.840795 2080.894375 
L 2666.840795 2080.894375 
L 2636.019886 2080.894375 
z
" clip-path="url(#p12bb111ac0)" style="fill: #ffa500; fill-opacity: 0.5; stroke: #ffffff; stroke-linejoin: miter"/>
   </g>
   <g id="patch_79">
    <path d="M 2666.840795 2080.894375 
L 2697.661705 2080.894375 
L 2697.661705 2080.894375 
L 2666.840795 2080.894375 
z
" clip-path="url(#p12bb111ac0)" style="fill: #ffa500; fill-opacity: 0.5; stroke: #ffffff; stroke-linejoin: miter"/>
   </g>
   <g id="patch_80">
    <path d="M 2697.661705 2080.894375 
L 2728.482614 2080.894375 
L 2728.482614 2080.894375 
L 2697.661705 2080.894375 
z
" clip-path="url(#p12bb111ac0)" style="fill: #ffa500; fill-opacity: 0.5; stroke: #ffffff; stroke-linejoin: miter"/>
   </g>
   <g id="patch_81">
    <path d="M 2728.482614 2080.894375 
L 2759.303523 2080.894375 
L 2759.303523 2080.894375 
L 2728.482614 2080.894375 
z
" clip-path="url(#p12bb111ac0)" style="fill: #ffa500; fill-opacity: 0.5; stroke: #ffffff; stroke-linejoin: miter"/>
   </g>
   <g id="patch_82">
    <path d="M 2759.303523 2080.894375 
L 2790.124432 2080.894375 
L 2790.124432 2080.894375 
L 2759.303523 2080.894375 
z
" clip-path="url(#p12bb111ac0)" style="fill: #ffa500; fill-opacity: 0.5; stroke: #ffffff; stroke-linejoin: miter"/>
   </g>
   <g id="patch_83">
    <path d="M 2790.124432 2080.894375 
L 2820.945341 2080.894375 
L 2820.945341 2080.894375 
L 2790.124432 2080.894375 
z
" clip-path="url(#p12bb111ac0)" style="fill: #ffa500; fill-opacity: 0.5; stroke: #ffffff; stroke-linejoin: miter"/>
   </g>
   <g id="patch_84">
    <path d="M 2820.945341 2080.894375 
L 2851.76625 2080.894375 
L 2851.76625 2080.894375 
L 2820.945341 2080.894375 
z
" clip-path="url(#p12bb111ac0)" style="fill: #ffa500; fill-opacity: 0.5; stroke: #ffffff; stroke-linejoin: miter"/>
   </g>
   <g id="patch_85">
    <path d="M 2851.76625 2080.894375 
L 2882.587159 2080.894375 
L 2882.587159 2080.894375 
L 2851.76625 2080.894375 
z
" clip-path="url(#p12bb111ac0)" style="fill: #ffa500; fill-opacity: 0.5; stroke: #ffffff; stroke-linejoin: miter"/>
   </g>
   <g id="patch_86">
    <path d="M 2882.587159 2080.894375 
L 2913.408068 2080.894375 
L 2913.408068 2080.894375 
L 2882.587159 2080.894375 
z
" clip-path="url(#p12bb111ac0)" style="fill: #ffa500; fill-opacity: 0.5; stroke: #ffffff; stroke-linejoin: miter"/>
   </g>
   <g id="patch_87">
    <path d="M 2913.408068 2080.894375 
L 2944.228977 2080.894375 
L 2944.228977 2080.894375 
L 2913.408068 2080.894375 
z
" clip-path="url(#p12bb111ac0)" style="fill: #ffa500; fill-opacity: 0.5; stroke: #ffffff; stroke-linejoin: miter"/>
   </g>
   <g id="patch_88">
    <path d="M 2944.228977 2080.894375 
L 2975.049886 2080.894375 
L 2975.049886 2080.894375 
L 2944.228977 2080.894375 
z
" clip-path="url(#p12bb111ac0)" style="fill: #ffa500; fill-opacity: 0.5; stroke: #ffffff; stroke-linejoin: miter"/>
   </g>
   <g id="patch_89">
    <path d="M 2975.049886 2080.894375 
L 3005.870795 2080.894375 
L 3005.870795 2080.894375 
L 2975.049886 2080.894375 
z
" clip-path="url(#p12bb111ac0)" style="fill: #ffa500; fill-opacity: 0.5; stroke: #ffffff; stroke-linejoin: miter"/>
   </g>
   <g id="patch_90">
    <path d="M 3005.870795 2080.894375 
L 3036.691705 2080.894375 
L 3036.691705 2080.894375 
L 3005.870795 2080.894375 
z
" clip-path="url(#p12bb111ac0)" style="fill: #ffa500; fill-opacity: 0.5; stroke: #ffffff; stroke-linejoin: miter"/>
   </g>
   <g id="patch_91">
    <path d="M 3036.691705 2080.894375 
L 3067.512614 2080.894375 
L 3067.512614 2079.083396 
L 3036.691705 2079.083396 
z
" clip-path="url(#p12bb111ac0)" style="fill: #ffa500; fill-opacity: 0.5; stroke: #ffffff; stroke-linejoin: miter"/>
   </g>
   <g id="patch_92">
    <path d="M 3067.512614 2080.894375 
L 3098.333523 2080.894375 
L 3098.333523 2080.894375 
L 3067.512614 2080.894375 
z
" clip-path="url(#p12bb111ac0)" style="fill: #ffa500; fill-opacity: 0.5; stroke: #ffffff; stroke-linejoin: miter"/>
   </g>
   <g id="patch_93">
    <path d="M 3098.333523 2080.894375 
L 3129.154432 2080.894375 
L 3129.154432 2080.894375 
L 3098.333523 2080.894375 
z
" clip-path="url(#p12bb111ac0)" style="fill: #ffa500; fill-opacity: 0.5; stroke: #ffffff; stroke-linejoin: miter"/>
   </g>
   <g id="patch_94">
    <path d="M 3129.154432 2080.894375 
L 3159.975341 2080.894375 
L 3159.975341 2080.894375 
L 3129.154432 2080.894375 
z
" clip-path="url(#p12bb111ac0)" style="fill: #ffa500; fill-opacity: 0.5; stroke: #ffffff; stroke-linejoin: miter"/>
   </g>
   <g id="patch_95">
    <path d="M 3159.975341 2080.894375 
L 3190.79625 2080.894375 
L 3190.79625 2077.272416 
L 3159.975341 2077.272416 
z
" clip-path="url(#p12bb111ac0)" style="fill: #ffa500; fill-opacity: 0.5; stroke: #ffffff; stroke-linejoin: miter"/>
   </g>
   <g id="patch_96">
    <path d="M 3190.79625 2080.894375 
L 3221.617159 2080.894375 
L 3221.617159 2080.894375 
L 3190.79625 2080.894375 
z
" clip-path="url(#p12bb111ac0)" style="fill: #ffa500; fill-opacity: 0.5; stroke: #ffffff; stroke-linejoin: miter"/>
   </g>
   <g id="patch_97">
    <path d="M 3221.617159 2080.894375 
L 3252.438068 2080.894375 
L 3252.438068 2080.894375 
L 3221.617159 2080.894375 
z
" clip-path="url(#p12bb111ac0)" style="fill: #ffa500; fill-opacity: 0.5; stroke: #ffffff; stroke-linejoin: miter"/>
   </g>
   <g id="patch_98">
    <path d="M 3252.438068 2080.894375 
L 3283.258977 2080.894375 
L 3283.258977 2080.894375 
L 3252.438068 2080.894375 
z
" clip-path="url(#p12bb111ac0)" style="fill: #ffa500; fill-opacity: 0.5; stroke: #ffffff; stroke-linejoin: miter"/>
   </g>
   <g id="patch_99">
    <path d="M 3283.258977 2080.894375 
L 3314.079886 2080.894375 
L 3314.079886 2080.894375 
L 3283.258977 2080.894375 
z
" clip-path="url(#p12bb111ac0)" style="fill: #ffa500; fill-opacity: 0.5; stroke: #ffffff; stroke-linejoin: miter"/>
   </g>
   <g id="patch_100">
    <path d="M 3314.079886 2080.894375 
L 3344.900795 2080.894375 
L 3344.900795 2080.894375 
L 3314.079886 2080.894375 
z
" clip-path="url(#p12bb111ac0)" style="fill: #ffa500; fill-opacity: 0.5; stroke: #ffffff; stroke-linejoin: miter"/>
   </g>
   <g id="patch_101">
    <path d="M 3344.900795 2080.894375 
L 3375.721705 2080.894375 
L 3375.721705 2080.894375 
L 3344.900795 2080.894375 
z
" clip-path="url(#p12bb111ac0)" style="fill: #ffa500; fill-opacity: 0.5; stroke: #ffffff; stroke-linejoin: miter"/>
   </g>
   <g id="patch_102">
    <path d="M 324.451705 2080.894375 
L 355.272614 2080.894375 
L 355.272614 137.713423 
L 324.451705 137.713423 
z
" clip-path="url(#p12bb111ac0)" style="fill: #0000ff; fill-opacity: 0.5; stroke: #ffffff; stroke-linejoin: miter"/>
   </g>
   <g id="patch_103">
    <path d="M 355.272614 2080.894375 
L 386.093523 2080.894375 
L 386.093523 849.428347 
L 355.272614 849.428347 
z
" clip-path="url(#p12bb111ac0)" style="fill: #0000ff; fill-opacity: 0.5; stroke: #ffffff; stroke-linejoin: miter"/>
   </g>
   <g id="patch_104">
    <path d="M 386.093523 2080.894375 
L 416.914432 2080.894375 
L 416.914432 1610.039717 
L 386.093523 1610.039717 
z
" clip-path="url(#p12bb111ac0)" style="fill: #0000ff; fill-opacity: 0.5; stroke: #ffffff; stroke-linejoin: miter"/>
   </g>
   <g id="patch_105">
    <path d="M 416.914432 2080.894375 
L 447.735341 2080.894375 
L 447.735341 1526.734663 
L 416.914432 1526.734663 
z
" clip-path="url(#p12bb111ac0)" style="fill: #0000ff; fill-opacity: 0.5; stroke: #ffffff; stroke-linejoin: miter"/>
   </g>
   <g id="patch_106">
    <path d="M 447.735341 2080.894375 
L 478.55625 2080.894375 
L 478.55625 1600.98482 
L 447.735341 1600.98482 
z
" clip-path="url(#p12bb111ac0)" style="fill: #0000ff; fill-opacity: 0.5; stroke: #ffffff; stroke-linejoin: miter"/>
   </g>
   <g id="patch_107">
    <path d="M 478.55625 2080.894375 
L 509.377159 2080.894375 
L 509.377159 1763.972971 
L 478.55625 1763.972971 
z
" clip-path="url(#p12bb111ac0)" style="fill: #0000ff; fill-opacity: 0.5; stroke: #ffffff; stroke-linejoin: miter"/>
   </g>
   <g id="patch_108">
    <path d="M 509.377159 2080.894375 
L 540.198068 2080.894375 
L 540.198068 1928.772101 
L 509.377159 1928.772101 
z
" clip-path="url(#p12bb111ac0)" style="fill: #0000ff; fill-opacity: 0.5; stroke: #ffffff; stroke-linejoin: miter"/>
   </g>
   <g id="patch_109">
    <path d="M 540.198068 2080.894375 
L 571.018977 2080.894375 
L 571.018977 1999.4003 
L 540.198068 1999.4003 
z
" clip-path="url(#p12bb111ac0)" style="fill: #0000ff; fill-opacity: 0.5; stroke: #ffffff; stroke-linejoin: miter"/>
   </g>
   <g id="patch_110">
    <path d="M 571.018977 2080.894375 
L 601.839886 2080.894375 
L 601.839886 2035.619889 
L 571.018977 2035.619889 
z
" clip-path="url(#p12bb111ac0)" style="fill: #0000ff; fill-opacity: 0.5; stroke: #ffffff; stroke-linejoin: miter"/>
   </g>
   <g id="patch_111">
    <path d="M 601.839886 2080.894375 
L 632.660795 2080.894375 
L 632.660795 2062.78458 
L 601.839886 2062.78458 
z
" clip-path="url(#p12bb111ac0)" style="fill: #0000ff; fill-opacity: 0.5; stroke: #ffffff; stroke-linejoin: miter"/>
   </g>
   <g id="patch_112">
    <path d="M 632.660795 2080.894375 
L 663.481705 2080.894375 
L 663.481705 2059.162622 
L 632.660795 2059.162622 
z
" clip-path="url(#p12bb111ac0)" style="fill: #0000ff; fill-opacity: 0.5; stroke: #ffffff; stroke-linejoin: miter"/>
   </g>
   <g id="patch_113">
    <path d="M 663.481705 2080.894375 
L 694.302614 2080.894375 
L 694.302614 2062.78458 
L 663.481705 2062.78458 
z
" clip-path="url(#p12bb111ac0)" style="fill: #0000ff; fill-opacity: 0.5; stroke: #ffffff; stroke-linejoin: miter"/>
   </g>
   <g id="patch_114">
    <path d="M 694.302614 2080.894375 
L 725.123523 2080.894375 
L 725.123523 2060.973601 
L 694.302614 2060.973601 
z
" clip-path="url(#p12bb111ac0)" style="fill: #0000ff; fill-opacity: 0.5; stroke: #ffffff; stroke-linejoin: miter"/>
   </g>
   <g id="patch_115">
    <path d="M 725.123523 2080.894375 
L 755.944432 2080.894375 
L 755.944432 2062.78458 
L 725.123523 2062.78458 
z
" clip-path="url(#p12bb111ac0)" style="fill: #0000ff; fill-opacity: 0.5; stroke: #ffffff; stroke-linejoin: miter"/>
   </g>
   <g id="patch_116">
    <path d="M 755.944432 2080.894375 
L 786.765341 2080.894375 
L 786.765341 2062.78458 
L 755.944432 2062.78458 
z
" clip-path="url(#p12bb111ac0)" style="fill: #0000ff; fill-opacity: 0.5; stroke: #ffffff; stroke-linejoin: miter"/>
   </g>
   <g id="patch_117">
    <path d="M 786.765341 2080.894375 
L 817.58625 2080.894375 
L 817.58625 2064.59556 
L 786.765341 2064.59556 
z
" clip-path="url(#p12bb111ac0)" style="fill: #0000ff; fill-opacity: 0.5; stroke: #ffffff; stroke-linejoin: miter"/>
   </g>
   <g id="patch_118">
    <path d="M 817.58625 2080.894375 
L 848.407159 2080.894375 
L 848.407159 2051.918704 
L 817.58625 2051.918704 
z
" clip-path="url(#p12bb111ac0)" style="fill: #0000ff; fill-opacity: 0.5; stroke: #ffffff; stroke-linejoin: miter"/>
   </g>
   <g id="patch_119">
    <path d="M 848.407159 2080.894375 
L 879.228068 2080.894375 
L 879.228068 2033.808909 
L 848.407159 2033.808909 
z
" clip-path="url(#p12bb111ac0)" style="fill: #0000ff; fill-opacity: 0.5; stroke: #ffffff; stroke-linejoin: miter"/>
   </g>
   <g id="patch_120">
    <path d="M 879.228068 2080.894375 
L 910.048977 2080.894375 
L 910.048977 2003.022259 
L 879.228068 2003.022259 
z
" clip-path="url(#p12bb111ac0)" style="fill: #0000ff; fill-opacity: 0.5; stroke: #ffffff; stroke-linejoin: miter"/>
   </g>
   <g id="patch_121">
    <path d="M 910.048977 2080.894375 
L 940.869886 2080.894375 
L 940.869886 2003.022259 
L 910.048977 2003.022259 
z
" clip-path="url(#p12bb111ac0)" style="fill: #0000ff; fill-opacity: 0.5; stroke: #ffffff; stroke-linejoin: miter"/>
   </g>
   <g id="patch_122">
    <path d="M 940.869886 2080.894375 
L 971.690795 2080.894375 
L 971.690795 1948.692875 
L 940.869886 1948.692875 
z
" clip-path="url(#p12bb111ac0)" style="fill: #0000ff; fill-opacity: 0.5; stroke: #ffffff; stroke-linejoin: miter"/>
   </g>
   <g id="patch_123">
    <path d="M 971.690795 2080.894375 
L 1002.511705 2080.894375 
L 1002.511705 2013.888135 
L 971.690795 2013.888135 
z
" clip-path="url(#p12bb111ac0)" style="fill: #0000ff; fill-opacity: 0.5; stroke: #ffffff; stroke-linejoin: miter"/>
   </g>
   <g id="patch_124">
    <path d="M 1002.511705 2080.894375 
L 1033.332614 2080.894375 
L 1033.332614 2021.132053 
L 1002.511705 2021.132053 
z
" clip-path="url(#p12bb111ac0)" style="fill: #0000ff; fill-opacity: 0.5; stroke: #ffffff; stroke-linejoin: miter"/>
   </g>
   <g id="patch_125">
    <path d="M 1033.332614 2080.894375 
L 1064.153523 2080.894375 
L 1064.153523 2031.99793 
L 1033.332614 2031.99793 
z
" clip-path="url(#p12bb111ac0)" style="fill: #0000ff; fill-opacity: 0.5; stroke: #ffffff; stroke-linejoin: miter"/>
   </g>
   <g id="patch_126">
    <path d="M 1064.153523 2080.894375 
L 1094.974432 2080.894375 
L 1094.974432 2066.406539 
L 1064.153523 2066.406539 
z
" clip-path="url(#p12bb111ac0)" style="fill: #0000ff; fill-opacity: 0.5; stroke: #ffffff; stroke-linejoin: miter"/>
   </g>
   <g id="patch_127">
    <path d="M 1094.974432 2080.894375 
L 1125.795341 2080.894375 
L 1125.795341 2070.028498 
L 1094.974432 2070.028498 
z
" clip-path="url(#p12bb111ac0)" style="fill: #0000ff; fill-opacity: 0.5; stroke: #ffffff; stroke-linejoin: miter"/>
   </g>
   <g id="patch_128">
    <path d="M 1125.795341 2080.894375 
L 1156.61625 2080.894375 
L 1156.61625 2070.028498 
L 1125.795341 2070.028498 
z
" clip-path="url(#p12bb111ac0)" style="fill: #0000ff; fill-opacity: 0.5; stroke: #ffffff; stroke-linejoin: miter"/>
   </g>
   <g id="patch_129">
    <path d="M 1156.61625 2080.894375 
L 1187.437159 2080.894375 
L 1187.437159 2057.351642 
L 1156.61625 2057.351642 
z
" clip-path="url(#p12bb111ac0)" style="fill: #0000ff; fill-opacity: 0.5; stroke: #ffffff; stroke-linejoin: miter"/>
   </g>
   <g id="patch_130">
    <path d="M 1187.437159 2080.894375 
L 1218.258068 2080.894375 
L 1218.258068 2068.217519 
L 1187.437159 2068.217519 
z
" clip-path="url(#p12bb111ac0)" style="fill: #0000ff; fill-opacity: 0.5; stroke: #ffffff; stroke-linejoin: miter"/>
   </g>
   <g id="patch_131">
    <path d="M 1218.258068 2080.894375 
L 1249.078977 2080.894375 
L 1249.078977 2071.839478 
L 1218.258068 2071.839478 
z
" clip-path="url(#p12bb111ac0)" style="fill: #0000ff; fill-opacity: 0.5; stroke: #ffffff; stroke-linejoin: miter"/>
   </g>
   <g id="patch_132">
    <path d="M 1249.078977 2080.894375 
L 1279.899886 2080.894375 
L 1279.899886 2075.461437 
L 1249.078977 2075.461437 
z
" clip-path="url(#p12bb111ac0)" style="fill: #0000ff; fill-opacity: 0.5; stroke: #ffffff; stroke-linejoin: miter"/>
   </g>
   <g id="patch_133">
    <path d="M 1279.899886 2080.894375 
L 1310.720795 2080.894375 
L 1310.720795 2077.272416 
L 1279.899886 2077.272416 
z
" clip-path="url(#p12bb111ac0)" style="fill: #0000ff; fill-opacity: 0.5; stroke: #ffffff; stroke-linejoin: miter"/>
   </g>
   <g id="patch_134">
    <path d="M 1310.720795 2080.894375 
L 1341.541705 2080.894375 
L 1341.541705 2075.461437 
L 1310.720795 2075.461437 
z
" clip-path="url(#p12bb111ac0)" style="fill: #0000ff; fill-opacity: 0.5; stroke: #ffffff; stroke-linejoin: miter"/>
   </g>
   <g id="patch_135">
    <path d="M 1341.541705 2080.894375 
L 1372.362614 2080.894375 
L 1372.362614 2075.461437 
L 1341.541705 2075.461437 
z
" clip-path="url(#p12bb111ac0)" style="fill: #0000ff; fill-opacity: 0.5; stroke: #ffffff; stroke-linejoin: miter"/>
   </g>
   <g id="patch_136">
    <path d="M 1372.362614 2080.894375 
L 1403.183523 2080.894375 
L 1403.183523 2075.461437 
L 1372.362614 2075.461437 
z
" clip-path="url(#p12bb111ac0)" style="fill: #0000ff; fill-opacity: 0.5; stroke: #ffffff; stroke-linejoin: miter"/>
   </g>
   <g id="patch_137">
    <path d="M 1403.183523 2080.894375 
L 1434.004432 2080.894375 
L 1434.004432 2079.083396 
L 1403.183523 2079.083396 
z
" clip-path="url(#p12bb111ac0)" style="fill: #0000ff; fill-opacity: 0.5; stroke: #ffffff; stroke-linejoin: miter"/>
   </g>
   <g id="patch_138">
    <path d="M 1434.004432 2080.894375 
L 1464.825341 2080.894375 
L 1464.825341 2079.083396 
L 1434.004432 2079.083396 
z
" clip-path="url(#p12bb111ac0)" style="fill: #0000ff; fill-opacity: 0.5; stroke: #ffffff; stroke-linejoin: miter"/>
   </g>
   <g id="patch_139">
    <path d="M 1464.825341 2080.894375 
L 1495.64625 2080.894375 
L 1495.64625 2079.083396 
L 1464.825341 2079.083396 
z
" clip-path="url(#p12bb111ac0)" style="fill: #0000ff; fill-opacity: 0.5; stroke: #ffffff; stroke-linejoin: miter"/>
   </g>
   <g id="patch_140">
    <path d="M 1495.64625 2080.894375 
L 1526.467159 2080.894375 
L 1526.467159 2077.272416 
L 1495.64625 2077.272416 
z
" clip-path="url(#p12bb111ac0)" style="fill: #0000ff; fill-opacity: 0.5; stroke: #ffffff; stroke-linejoin: miter"/>
   </g>
   <g id="patch_141">
    <path d="M 1526.467159 2080.894375 
L 1557.288068 2080.894375 
L 1557.288068 2079.083396 
L 1526.467159 2079.083396 
z
" clip-path="url(#p12bb111ac0)" style="fill: #0000ff; fill-opacity: 0.5; stroke: #ffffff; stroke-linejoin: miter"/>
   </g>
   <g id="patch_142">
    <path d="M 1557.288068 2080.894375 
L 1588.108977 2080.894375 
L 1588.108977 2080.894375 
L 1557.288068 2080.894375 
z
" clip-path="url(#p12bb111ac0)" style="fill: #0000ff; fill-opacity: 0.5; stroke: #ffffff; stroke-linejoin: miter"/>
   </g>
   <g id="patch_143">
    <path d="M 1588.108977 2080.894375 
L 1618.929886 2080.894375 
L 1618.929886 2071.839478 
L 1588.108977 2071.839478 
z
" clip-path="url(#p12bb111ac0)" style="fill: #0000ff; fill-opacity: 0.5; stroke: #ffffff; stroke-linejoin: miter"/>
   </g>
   <g id="patch_144">
    <path d="M 1618.929886 2080.894375 
L 1649.750795 2080.894375 
L 1649.750795 2046.485765 
L 1618.929886 2046.485765 
z
" clip-path="url(#p12bb111ac0)" style="fill: #0000ff; fill-opacity: 0.5; stroke: #ffffff; stroke-linejoin: miter"/>
   </g>
   <g id="patch_145">
    <path d="M 1649.750795 2080.894375 
L 1680.571705 2080.894375 
L 1680.571705 2064.59556 
L 1649.750795 2064.59556 
z
" clip-path="url(#p12bb111ac0)" style="fill: #0000ff; fill-opacity: 0.5; stroke: #ffffff; stroke-linejoin: miter"/>
   </g>
   <g id="patch_146">
    <path d="M 1680.571705 2080.894375 
L 1711.392614 2080.894375 
L 1711.392614 2046.485765 
L 1680.571705 2046.485765 
z
" clip-path="url(#p12bb111ac0)" style="fill: #0000ff; fill-opacity: 0.5; stroke: #ffffff; stroke-linejoin: miter"/>
   </g>
   <g id="patch_147">
    <path d="M 1711.392614 2080.894375 
L 1742.213523 2080.894375 
L 1742.213523 2059.162622 
L 1711.392614 2059.162622 
z
" clip-path="url(#p12bb111ac0)" style="fill: #0000ff; fill-opacity: 0.5; stroke: #ffffff; stroke-linejoin: miter"/>
   </g>
   <g id="patch_148">
    <path d="M 1742.213523 2080.894375 
L 1773.034432 2080.894375 
L 1773.034432 2066.406539 
L 1742.213523 2066.406539 
z
" clip-path="url(#p12bb111ac0)" style="fill: #0000ff; fill-opacity: 0.5; stroke: #ffffff; stroke-linejoin: miter"/>
   </g>
   <g id="patch_149">
    <path d="M 1773.034432 2080.894375 
L 1803.855341 2080.894375 
L 1803.855341 2057.351642 
L 1773.034432 2057.351642 
z
" clip-path="url(#p12bb111ac0)" style="fill: #0000ff; fill-opacity: 0.5; stroke: #ffffff; stroke-linejoin: miter"/>
   </g>
   <g id="patch_150">
    <path d="M 1803.855341 2080.894375 
L 1834.67625 2080.894375 
L 1834.67625 2051.918704 
L 1803.855341 2051.918704 
z
" clip-path="url(#p12bb111ac0)" style="fill: #0000ff; fill-opacity: 0.5; stroke: #ffffff; stroke-linejoin: miter"/>
   </g>
   <g id="patch_151">
    <path d="M 1834.67625 2080.894375 
L 1865.497159 2080.894375 
L 1865.497159 2053.729683 
L 1834.67625 2053.729683 
z
" clip-path="url(#p12bb111ac0)" style="fill: #0000ff; fill-opacity: 0.5; stroke: #ffffff; stroke-linejoin: miter"/>
   </g>
   <g id="patch_152">
    <path d="M 1865.497159 2080.894375 
L 1896.318068 2080.894375 
L 1896.318068 1988.534423 
L 1865.497159 1988.534423 
z
" clip-path="url(#p12bb111ac0)" style="fill: #0000ff; fill-opacity: 0.5; stroke: #ffffff; stroke-linejoin: miter"/>
   </g>
   <g id="patch_153">
    <path d="M 1896.318068 2080.894375 
L 1927.138977 2080.894375 
L 1927.138977 1997.58932 
L 1896.318068 1997.58932 
z
" clip-path="url(#p12bb111ac0)" style="fill: #0000ff; fill-opacity: 0.5; stroke: #ffffff; stroke-linejoin: miter"/>
   </g>
   <g id="patch_154">
    <path d="M 1927.138977 2080.894375 
L 1957.959886 2080.894375 
L 1957.959886 2030.18695 
L 1927.138977 2030.18695 
z
" clip-path="url(#p12bb111ac0)" style="fill: #0000ff; fill-opacity: 0.5; stroke: #ffffff; stroke-linejoin: miter"/>
   </g>
   <g id="patch_155">
    <path d="M 1957.959886 2080.894375 
L 1988.780795 2080.894375 
L 1988.780795 2057.351642 
L 1957.959886 2057.351642 
z
" clip-path="url(#p12bb111ac0)" style="fill: #0000ff; fill-opacity: 0.5; stroke: #ffffff; stroke-linejoin: miter"/>
   </g>
   <g id="patch_156">
    <path d="M 1988.780795 2080.894375 
L 2019.601705 2080.894375 
L 2019.601705 2062.78458 
L 1988.780795 2062.78458 
z
" clip-path="url(#p12bb111ac0)" style="fill: #0000ff; fill-opacity: 0.5; stroke: #ffffff; stroke-linejoin: miter"/>
   </g>
   <g id="patch_157">
    <path d="M 2019.601705 2080.894375 
L 2050.422614 2080.894375 
L 2050.422614 2079.083396 
L 2019.601705 2079.083396 
z
" clip-path="url(#p12bb111ac0)" style="fill: #0000ff; fill-opacity: 0.5; stroke: #ffffff; stroke-linejoin: miter"/>
   </g>
   <g id="patch_158">
    <path d="M 2050.422614 2080.894375 
L 2081.243523 2080.894375 
L 2081.243523 2073.650457 
L 2050.422614 2073.650457 
z
" clip-path="url(#p12bb111ac0)" style="fill: #0000ff; fill-opacity: 0.5; stroke: #ffffff; stroke-linejoin: miter"/>
   </g>
   <g id="patch_159">
    <path d="M 2081.243523 2080.894375 
L 2112.064432 2080.894375 
L 2112.064432 2073.650457 
L 2081.243523 2073.650457 
z
" clip-path="url(#p12bb111ac0)" style="fill: #0000ff; fill-opacity: 0.5; stroke: #ffffff; stroke-linejoin: miter"/>
   </g>
   <g id="patch_160">
    <path d="M 2112.064432 2080.894375 
L 2142.885341 2080.894375 
L 2142.885341 2077.272416 
L 2112.064432 2077.272416 
z
" clip-path="url(#p12bb111ac0)" style="fill: #0000ff; fill-opacity: 0.5; stroke: #ffffff; stroke-linejoin: miter"/>
   </g>
   <g id="patch_161">
    <path d="M 2142.885341 2080.894375 
L 2173.70625 2080.894375 
L 2173.70625 2077.272416 
L 2142.885341 2077.272416 
z
" clip-path="url(#p12bb111ac0)" style="fill: #0000ff; fill-opacity: 0.5; stroke: #ffffff; stroke-linejoin: miter"/>
   </g>
   <g id="patch_162">
    <path d="M 2173.70625 2080.894375 
L 2204.527159 2080.894375 
L 2204.527159 2077.272416 
L 2173.70625 2077.272416 
z
" clip-path="url(#p12bb111ac0)" style="fill: #0000ff; fill-opacity: 0.5; stroke: #ffffff; stroke-linejoin: miter"/>
   </g>
   <g id="patch_163">
    <path d="M 2204.527159 2080.894375 
L 2235.348068 2080.894375 
L 2235.348068 2073.650457 
L 2204.527159 2073.650457 
z
" clip-path="url(#p12bb111ac0)" style="fill: #0000ff; fill-opacity: 0.5; stroke: #ffffff; stroke-linejoin: miter"/>
   </g>
   <g id="patch_164">
    <path d="M 2235.348068 2080.894375 
L 2266.168977 2080.894375 
L 2266.168977 2080.894375 
L 2235.348068 2080.894375 
z
" clip-path="url(#p12bb111ac0)" style="fill: #0000ff; fill-opacity: 0.5; stroke: #ffffff; stroke-linejoin: miter"/>
   </g>
   <g id="patch_165">
    <path d="M 2266.168977 2080.894375 
L 2296.989886 2080.894375 
L 2296.989886 2077.272416 
L 2266.168977 2077.272416 
z
" clip-path="url(#p12bb111ac0)" style="fill: #0000ff; fill-opacity: 0.5; stroke: #ffffff; stroke-linejoin: miter"/>
   </g>
   <g id="patch_166">
    <path d="M 2296.989886 2080.894375 
L 2327.810795 2080.894375 
L 2327.810795 2080.894375 
L 2296.989886 2080.894375 
z
" clip-path="url(#p12bb111ac0)" style="fill: #0000ff; fill-opacity: 0.5; stroke: #ffffff; stroke-linejoin: miter"/>
   </g>
   <g id="patch_167">
    <path d="M 2327.810795 2080.894375 
L 2358.631705 2080.894375 
L 2358.631705 2080.894375 
L 2327.810795 2080.894375 
z
" clip-path="url(#p12bb111ac0)" style="fill: #0000ff; fill-opacity: 0.5; stroke: #ffffff; stroke-linejoin: miter"/>
   </g>
   <g id="patch_168">
    <path d="M 2358.631705 2080.894375 
L 2389.452614 2080.894375 
L 2389.452614 2080.894375 
L 2358.631705 2080.894375 
z
" clip-path="url(#p12bb111ac0)" style="fill: #0000ff; fill-opacity: 0.5; stroke: #ffffff; stroke-linejoin: miter"/>
   </g>
   <g id="patch_169">
    <path d="M 2389.452614 2080.894375 
L 2420.273523 2080.894375 
L 2420.273523 2080.894375 
L 2389.452614 2080.894375 
z
" clip-path="url(#p12bb111ac0)" style="fill: #0000ff; fill-opacity: 0.5; stroke: #ffffff; stroke-linejoin: miter"/>
   </g>
   <g id="patch_170">
    <path d="M 2420.273523 2080.894375 
L 2451.094432 2080.894375 
L 2451.094432 2080.894375 
L 2420.273523 2080.894375 
z
" clip-path="url(#p12bb111ac0)" style="fill: #0000ff; fill-opacity: 0.5; stroke: #ffffff; stroke-linejoin: miter"/>
   </g>
   <g id="patch_171">
    <path d="M 2451.094432 2080.894375 
L 2481.915341 2080.894375 
L 2481.915341 2080.894375 
L 2451.094432 2080.894375 
z
" clip-path="url(#p12bb111ac0)" style="fill: #0000ff; fill-opacity: 0.5; stroke: #ffffff; stroke-linejoin: miter"/>
   </g>
   <g id="patch_172">
    <path d="M 2481.915341 2080.894375 
L 2512.73625 2080.894375 
L 2512.73625 2080.894375 
L 2481.915341 2080.894375 
z
" clip-path="url(#p12bb111ac0)" style="fill: #0000ff; fill-opacity: 0.5; stroke: #ffffff; stroke-linejoin: miter"/>
   </g>
   <g id="patch_173">
    <path d="M 2512.73625 2080.894375 
L 2543.557159 2080.894375 
L 2543.557159 2080.894375 
L 2512.73625 2080.894375 
z
" clip-path="url(#p12bb111ac0)" style="fill: #0000ff; fill-opacity: 0.5; stroke: #ffffff; stroke-linejoin: miter"/>
   </g>
   <g id="patch_174">
    <path d="M 2543.557159 2080.894375 
L 2574.378068 2080.894375 
L 2574.378068 2080.894375 
L 2543.557159 2080.894375 
z
" clip-path="url(#p12bb111ac0)" style="fill: #0000ff; fill-opacity: 0.5; stroke: #ffffff; stroke-linejoin: miter"/>
   </g>
   <g id="patch_175">
    <path d="M 2574.378068 2080.894375 
L 2605.198977 2080.894375 
L 2605.198977 2080.894375 
L 2574.378068 2080.894375 
z
" clip-path="url(#p12bb111ac0)" style="fill: #0000ff; fill-opacity: 0.5; stroke: #ffffff; stroke-linejoin: miter"/>
   </g>
   <g id="patch_176">
    <path d="M 2605.198977 2080.894375 
L 2636.019886 2080.894375 
L 2636.019886 2080.894375 
L 2605.198977 2080.894375 
z
" clip-path="url(#p12bb111ac0)" style="fill: #0000ff; fill-opacity: 0.5; stroke: #ffffff; stroke-linejoin: miter"/>
   </g>
   <g id="patch_177">
    <path d="M 2636.019886 2080.894375 
L 2666.840795 2080.894375 
L 2666.840795 2080.894375 
L 2636.019886 2080.894375 
z
" clip-path="url(#p12bb111ac0)" style="fill: #0000ff; fill-opacity: 0.5; stroke: #ffffff; stroke-linejoin: miter"/>
   </g>
   <g id="patch_178">
    <path d="M 2666.840795 2080.894375 
L 2697.661705 2080.894375 
L 2697.661705 2080.894375 
L 2666.840795 2080.894375 
z
" clip-path="url(#p12bb111ac0)" style="fill: #0000ff; fill-opacity: 0.5; stroke: #ffffff; stroke-linejoin: miter"/>
   </g>
   <g id="patch_179">
    <path d="M 2697.661705 2080.894375 
L 2728.482614 2080.894375 
L 2728.482614 2080.894375 
L 2697.661705 2080.894375 
z
" clip-path="url(#p12bb111ac0)" style="fill: #0000ff; fill-opacity: 0.5; stroke: #ffffff; stroke-linejoin: miter"/>
   </g>
   <g id="patch_180">
    <path d="M 2728.482614 2080.894375 
L 2759.303523 2080.894375 
L 2759.303523 2080.894375 
L 2728.482614 2080.894375 
z
" clip-path="url(#p12bb111ac0)" style="fill: #0000ff; fill-opacity: 0.5; stroke: #ffffff; stroke-linejoin: miter"/>
   </g>
   <g id="patch_181">
    <path d="M 2759.303523 2080.894375 
L 2790.124432 2080.894375 
L 2790.124432 2080.894375 
L 2759.303523 2080.894375 
z
" clip-path="url(#p12bb111ac0)" style="fill: #0000ff; fill-opacity: 0.5; stroke: #ffffff; stroke-linejoin: miter"/>
   </g>
   <g id="patch_182">
    <path d="M 2790.124432 2080.894375 
L 2820.945341 2080.894375 
L 2820.945341 2080.894375 
L 2790.124432 2080.894375 
z
" clip-path="url(#p12bb111ac0)" style="fill: #0000ff; fill-opacity: 0.5; stroke: #ffffff; stroke-linejoin: miter"/>
   </g>
   <g id="patch_183">
    <path d="M 2820.945341 2080.894375 
L 2851.76625 2080.894375 
L 2851.76625 2080.894375 
L 2820.945341 2080.894375 
z
" clip-path="url(#p12bb111ac0)" style="fill: #0000ff; fill-opacity: 0.5; stroke: #ffffff; stroke-linejoin: miter"/>
   </g>
   <g id="patch_184">
    <path d="M 2851.76625 2080.894375 
L 2882.587159 2080.894375 
L 2882.587159 2080.894375 
L 2851.76625 2080.894375 
z
" clip-path="url(#p12bb111ac0)" style="fill: #0000ff; fill-opacity: 0.5; stroke: #ffffff; stroke-linejoin: miter"/>
   </g>
   <g id="patch_185">
    <path d="M 2882.587159 2080.894375 
L 2913.408068 2080.894375 
L 2913.408068 2080.894375 
L 2882.587159 2080.894375 
z
" clip-path="url(#p12bb111ac0)" style="fill: #0000ff; fill-opacity: 0.5; stroke: #ffffff; stroke-linejoin: miter"/>
   </g>
   <g id="patch_186">
    <path d="M 2913.408068 2080.894375 
L 2944.228977 2080.894375 
L 2944.228977 2080.894375 
L 2913.408068 2080.894375 
z
" clip-path="url(#p12bb111ac0)" style="fill: #0000ff; fill-opacity: 0.5; stroke: #ffffff; stroke-linejoin: miter"/>
   </g>
   <g id="patch_187">
    <path d="M 2944.228977 2080.894375 
L 2975.049886 2080.894375 
L 2975.049886 2080.894375 
L 2944.228977 2080.894375 
z
" clip-path="url(#p12bb111ac0)" style="fill: #0000ff; fill-opacity: 0.5; stroke: #ffffff; stroke-linejoin: miter"/>
   </g>
   <g id="patch_188">
    <path d="M 2975.049886 2080.894375 
L 3005.870795 2080.894375 
L 3005.870795 2080.894375 
L 2975.049886 2080.894375 
z
" clip-path="url(#p12bb111ac0)" style="fill: #0000ff; fill-opacity: 0.5; stroke: #ffffff; stroke-linejoin: miter"/>
   </g>
   <g id="patch_189">
    <path d="M 3005.870795 2080.894375 
L 3036.691705 2080.894375 
L 3036.691705 2080.894375 
L 3005.870795 2080.894375 
z
" clip-path="url(#p12bb111ac0)" style="fill: #0000ff; fill-opacity: 0.5; stroke: #ffffff; stroke-linejoin: miter"/>
   </g>
   <g id="patch_190">
    <path d="M 3036.691705 2080.894375 
L 3067.512614 2080.894375 
L 3067.512614 2080.894375 
L 3036.691705 2080.894375 
z
" clip-path="url(#p12bb111ac0)" style="fill: #0000ff; fill-opacity: 0.5; stroke: #ffffff; stroke-linejoin: miter"/>
   </g>
   <g id="patch_191">
    <path d="M 3067.512614 2080.894375 
L 3098.333523 2080.894375 
L 3098.333523 2080.894375 
L 3067.512614 2080.894375 
z
" clip-path="url(#p12bb111ac0)" style="fill: #0000ff; fill-opacity: 0.5; stroke: #ffffff; stroke-linejoin: miter"/>
   </g>
   <g id="patch_192">
    <path d="M 3098.333523 2080.894375 
L 3129.154432 2080.894375 
L 3129.154432 2080.894375 
L 3098.333523 2080.894375 
z
" clip-path="url(#p12bb111ac0)" style="fill: #0000ff; fill-opacity: 0.5; stroke: #ffffff; stroke-linejoin: miter"/>
   </g>
   <g id="patch_193">
    <path d="M 3129.154432 2080.894375 
L 3159.975341 2080.894375 
L 3159.975341 2080.894375 
L 3129.154432 2080.894375 
z
" clip-path="url(#p12bb111ac0)" style="fill: #0000ff; fill-opacity: 0.5; stroke: #ffffff; stroke-linejoin: miter"/>
   </g>
   <g id="patch_194">
    <path d="M 3159.975341 2080.894375 
L 3190.79625 2080.894375 
L 3190.79625 2080.894375 
L 3159.975341 2080.894375 
z
" clip-path="url(#p12bb111ac0)" style="fill: #0000ff; fill-opacity: 0.5; stroke: #ffffff; stroke-linejoin: miter"/>
   </g>
   <g id="patch_195">
    <path d="M 3190.79625 2080.894375 
L 3221.617159 2080.894375 
L 3221.617159 2080.894375 
L 3190.79625 2080.894375 
z
" clip-path="url(#p12bb111ac0)" style="fill: #0000ff; fill-opacity: 0.5; stroke: #ffffff; stroke-linejoin: miter"/>
   </g>
   <g id="patch_196">
    <path d="M 3221.617159 2080.894375 
L 3252.438068 2080.894375 
L 3252.438068 2080.894375 
L 3221.617159 2080.894375 
z
" clip-path="url(#p12bb111ac0)" style="fill: #0000ff; fill-opacity: 0.5; stroke: #ffffff; stroke-linejoin: miter"/>
   </g>
   <g id="patch_197">
    <path d="M 3252.438068 2080.894375 
L 3283.258977 2080.894375 
L 3283.258977 2080.894375 
L 3252.438068 2080.894375 
z
" clip-path="url(#p12bb111ac0)" style="fill: #0000ff; fill-opacity: 0.5; stroke: #ffffff; stroke-linejoin: miter"/>
   </g>
   <g id="patch_198">
    <path d="M 3283.258977 2080.894375 
L 3314.079886 2080.894375 
L 3314.079886 2080.894375 
L 3283.258977 2080.894375 
z
" clip-path="url(#p12bb111ac0)" style="fill: #0000ff; fill-opacity: 0.5; stroke: #ffffff; stroke-linejoin: miter"/>
   </g>
   <g id="patch_199">
    <path d="M 3314.079886 2080.894375 
L 3344.900795 2080.894375 
L 3344.900795 2080.894375 
L 3314.079886 2080.894375 
z
" clip-path="url(#p12bb111ac0)" style="fill: #0000ff; fill-opacity: 0.5; stroke: #ffffff; stroke-linejoin: miter"/>
   </g>
   <g id="patch_200">
    <path d="M 3344.900795 2080.894375 
L 3375.721705 2080.894375 
L 3375.721705 2080.894375 
L 3344.900795 2080.894375 
z
" clip-path="url(#p12bb111ac0)" style="fill: #0000ff; fill-opacity: 0.5; stroke: #ffffff; stroke-linejoin: miter"/>
   </g>
   <g id="line2d_13">
    <path d="M 392.518002 2071.32689 
L 420.634361 2071.051121 
L 448.750719 2070.933891 
L 476.867078 2070.977932 
L 519.041616 2071.331463 
L 561.216154 2071.981181 
L 617.448872 2073.166596 
L 758.030666 2076.407888 
L 814.263383 2077.418612 
L 870.4961 2078.18531 
L 926.728818 2078.729934 
L 997.019715 2079.163211 
L 1081.368791 2079.418585 
L 1165.717867 2079.452327 
L 1250.066943 2079.279181 
L 1334.41602 2078.877925 
L 1404.706916 2078.330796 
L 1460.939634 2077.708729 
L 1517.172351 2076.8592 
L 1559.346889 2076.019567 
L 1601.521427 2074.95402 
L 1643.695966 2073.6126 
L 1685.870504 2071.953514 
L 1713.986862 2070.66 
L 1756.1614 2068.446551 
L 1798.335939 2065.954742 
L 1924.859553 2058.132855 
L 1952.975912 2056.687439 
L 1981.09227 2055.481445 
L 2009.208629 2054.566624 
L 2037.324988 2053.982571 
L 2065.441347 2053.753761 
L 2093.557705 2053.887867 
L 2121.674064 2054.375534 
L 2149.790423 2055.191593 
L 2177.906781 2056.297525 
L 2206.02314 2057.644836 
L 2234.139499 2059.178933 
L 2276.314037 2061.706455 
L 2374.721293 2067.771354 
L 2416.895831 2070.131479 
L 2459.070369 2072.238138 
L 2501.244907 2074.062458 
L 2543.419445 2075.601064 
L 2585.593983 2076.86767 
L 2627.768521 2077.886127 
L 2669.943059 2078.685381 
L 2712.117597 2079.296136 
L 2768.350315 2079.869537 
L 2824.583032 2080.228855 
L 2894.873929 2080.466559 
L 3007.339364 2080.573936 
L 3190.095696 2080.586477 
L 3190.095696 2080.586477 
" clip-path="url(#p12bb111ac0)" style="fill: none; stroke: #ffa500; stroke-width: 1.5; stroke-linecap: round"/>
   </g>
   <g id="line2d_14">
    <path d="M 293.630795 1243.556855 
L 303.683047 1196.978969 
L 313.735298 1168.375466 
L 323.787549 1158.854556 
L 333.8398 1168.14285 
L 343.892052 1194.669833 
L 353.944303 1235.802819 
L 363.996554 1288.189345 
L 374.048805 1348.149947 
L 404.205559 1539.378252 
L 414.25781 1598.24297 
L 424.310062 1652.110772 
L 434.362313 1700.481844 
L 444.414564 1743.38942 
L 454.466815 1781.238646 
L 464.519067 1814.645282 
L 474.571318 1844.295569 
L 484.623569 1870.840301 
L 494.67582 1894.827726 
L 504.728072 1916.673093 
L 514.780323 1936.657878 
L 524.832574 1954.949445 
L 534.884825 1971.631673 
L 544.937077 1986.738377 
L 554.989328 2000.283527 
L 565.041579 2012.28469 
L 575.09383 2022.778246 
L 585.146082 2031.82667 
L 595.198333 2039.519208 
L 605.250584 2045.967811 
L 615.302835 2051.300298 
L 625.355087 2055.652451 
L 635.407338 2059.160398 
L 645.459589 2061.954147 
L 655.51184 2064.152741 
L 665.564092 2065.861131 
L 675.616343 2067.16862 
L 685.668594 2068.148578 
L 695.720845 2068.859065 
L 705.773097 2069.344021 
L 715.825348 2069.634747 
L 725.877599 2069.751463 
L 735.92985 2069.70486 
L 745.982102 2069.497586 
L 756.034353 2069.125722 
L 766.086604 2068.580288 
L 776.138855 2067.84885 
L 786.191107 2066.917288 
L 796.243358 2065.771771 
L 806.295609 2064.400917 
L 816.34786 2062.798144 
L 826.400112 2060.964101 
L 836.452363 2058.909065 
L 846.504614 2056.65512 
L 866.609117 2051.707334 
L 886.713619 2046.577032 
L 896.76587 2044.141921 
L 906.818122 2041.915586 
L 916.870373 2039.990978 
L 926.922624 2038.454575 
L 936.974875 2037.37978 
L 947.027127 2036.820928 
L 957.079378 2036.808688 
L 967.131629 2037.347473 
L 977.18388 2038.415204 
L 987.236132 2039.965439 
L 997.288383 2041.931483 
L 1007.340634 2044.231875 
L 1017.392885 2046.776466 
L 1057.60189 2057.600919 
L 1067.654142 2060.080606 
L 1077.706393 2062.354489 
L 1087.758644 2064.389358 
L 1097.810895 2066.167028 
L 1107.863147 2067.684145 
L 1117.915398 2068.951241 
L 1127.967649 2069.990937 
L 1138.0199 2070.83526 
L 1148.072152 2071.522226 
L 1168.176654 2072.583074 
L 1238.542413 2075.613767 
L 1268.699167 2076.73985 
L 1288.803669 2077.285709 
L 1318.960423 2077.80729 
L 1439.587438 2079.2122 
L 1469.744192 2079.289107 
L 1489.848694 2079.134291 
L 1509.953197 2078.748676 
L 1530.057699 2078.069256 
L 1550.162202 2077.056032 
L 1570.266704 2075.729635 
L 1640.632463 2070.559525 
L 1660.736965 2069.584713 
L 1680.841468 2068.954676 
L 1700.94597 2068.581006 
L 1731.102724 2068.091082 
L 1751.207227 2067.449205 
L 1761.259478 2066.937735 
L 1771.311729 2066.263231 
L 1781.36398 2065.406515 
L 1791.416232 2064.357557 
L 1801.468483 2063.117997 
L 1811.520734 2061.703519 
L 1831.625237 2058.492973 
L 1851.729739 2055.174369 
L 1861.78199 2053.673851 
L 1871.834242 2052.398122 
L 1881.886493 2051.43212 
L 1891.938744 2050.847926 
L 1901.990995 2050.6976 
L 1912.043247 2051.007776 
L 1922.095498 2051.776815 
L 1932.147749 2052.974907 
L 1942.2 2054.547064 
L 1952.252252 2056.418524 
L 1962.304503 2058.501781 
L 1992.461257 2065.115283 
L 2002.513508 2067.174786 
L 2012.565759 2069.06335 
L 2022.61801 2070.747643 
L 2032.670262 2072.211444 
L 2042.722513 2073.453681 
L 2052.774764 2074.485504 
L 2062.827015 2075.326851 
L 2072.879267 2076.002922 
L 2082.931518 2076.540936 
L 2103.03602 2077.306547 
L 2123.140523 2077.800015 
L 2153.297277 2078.27491 
L 2294.028794 2079.993476 
L 2294.028794 2079.993476 
" clip-path="url(#p12bb111ac0)" style="fill: none; stroke: #0000ff; stroke-width: 1.5; stroke-linecap: round"/>
   </g>
   <g id="patch_201">
    <path d="M 139.52625 2080.894375 
L 139.52625 40.554375 
" style="fill: none; stroke: #ffffff; stroke-width: 1.25; stroke-linejoin: miter; stroke-linecap: square"/>
   </g>
   <g id="patch_202">
    <path d="M 3529.82625 2080.894375 
L 3529.82625 40.554375 
" style="fill: none; stroke: #ffffff; stroke-width: 1.25; stroke-linejoin: miter; stroke-linecap: square"/>
   </g>
   <g id="patch_203">
    <path d="M 139.52625 2080.894375 
L 3529.82625 2080.894375 
" style="fill: none; stroke: #ffffff; stroke-width: 1.25; stroke-linejoin: miter; stroke-linecap: square"/>
   </g>
   <g id="patch_204">
    <path d="M 139.52625 40.554375 
L 3529.82625 40.554375 
" style="fill: none; stroke: #ffffff; stroke-width: 1.25; stroke-linejoin: miter; stroke-linecap: square"/>
   </g>
   <g id="text_15">
    <!-- active_site_166fg_bi_type_bond3_rf_PF08241_ACS_remove_redundant_11_30_MACCS_no_same_sub_prediction probability distribution -->
    <g style="fill: #262626" transform="translate(625.27875 34.554375)scale(0.36 -0.36)">
     <defs>
      <path id="DejaVuSans-63" d="M 3122 3366 
L 3122 2828 
Q 2878 2963 2633 3030 
Q 2388 3097 2138 3097 
Q 1578 3097 1268 2742 
Q 959 2388 959 1747 
Q 959 1106 1268 751 
Q 1578 397 2138 397 
Q 2388 397 2633 464 
Q 2878 531 3122 666 
L 3122 134 
Q 2881 22 2623 -34 
Q 2366 -91 2075 -91 
Q 1284 -91 818 406 
Q 353 903 353 1747 
Q 353 2603 823 3093 
Q 1294 3584 2113 3584 
Q 2378 3584 2631 3529 
Q 2884 3475 3122 3366 
z
" transform="scale(0.015625)"/>
      <path id="DejaVuSans-76" d="M 191 3500 
L 800 3500 
L 1894 563 
L 2988 3500 
L 3597 3500 
L 2284 0 
L 1503 0 
L 191 3500 
z
" transform="scale(0.015625)"/>
      <path id="DejaVuSans-65" d="M 3597 1894 
L 3597 1613 
L 953 1613 
Q 991 1019 1311 708 
Q 1631 397 2203 397 
Q 2534 397 2845 478 
Q 3156 559 3463 722 
L 3463 178 
Q 3153 47 2828 -22 
Q 2503 -91 2169 -91 
Q 1331 -91 842 396 
Q 353 884 353 1716 
Q 353 2575 817 3079 
Q 1281 3584 2069 3584 
Q 2775 3584 3186 3129 
Q 3597 2675 3597 1894 
z
M 3022 2063 
Q 3016 2534 2758 2815 
Q 2500 3097 2075 3097 
Q 1594 3097 1305 2825 
Q 1016 2553 972 2059 
L 3022 2063 
z
" transform="scale(0.015625)"/>
      <path id="DejaVuSans-5f" d="M 3263 -1063 
L 3263 -1509 
L -63 -1509 
L -63 -1063 
L 3263 -1063 
z
" transform="scale(0.015625)"/>
      <path id="DejaVuSans-73" d="M 2834 3397 
L 2834 2853 
Q 2591 2978 2328 3040 
Q 2066 3103 1784 3103 
Q 1356 3103 1142 2972 
Q 928 2841 928 2578 
Q 928 2378 1081 2264 
Q 1234 2150 1697 2047 
L 1894 2003 
Q 2506 1872 2764 1633 
Q 3022 1394 3022 966 
Q 3022 478 2636 193 
Q 2250 -91 1575 -91 
Q 1294 -91 989 -36 
Q 684 19 347 128 
L 347 722 
Q 666 556 975 473 
Q 1284 391 1588 391 
Q 1994 391 2212 530 
Q 2431 669 2431 922 
Q 2431 1156 2273 1281 
Q 2116 1406 1581 1522 
L 1381 1569 
Q 847 1681 609 1914 
Q 372 2147 372 2553 
Q 372 3047 722 3315 
Q 1072 3584 1716 3584 
Q 2034 3584 2315 3537 
Q 2597 3491 2834 3397 
z
" transform="scale(0.015625)"/>
      <path id="DejaVuSans-66" d="M 2375 4863 
L 2375 4384 
L 1825 4384 
Q 1516 4384 1395 4259 
Q 1275 4134 1275 3809 
L 1275 3500 
L 2222 3500 
L 2222 3053 
L 1275 3053 
L 1275 0 
L 697 0 
L 697 3053 
L 147 3053 
L 147 3500 
L 697 3500 
L 697 3744 
Q 697 4328 969 4595 
Q 1241 4863 1831 4863 
L 2375 4863 
z
" transform="scale(0.015625)"/>
      <path id="DejaVuSans-67" d="M 2906 1791 
Q 2906 2416 2648 2759 
Q 2391 3103 1925 3103 
Q 1463 3103 1205 2759 
Q 947 2416 947 1791 
Q 947 1169 1205 825 
Q 1463 481 1925 481 
Q 2391 481 2648 825 
Q 2906 1169 2906 1791 
z
M 3481 434 
Q 3481 -459 3084 -895 
Q 2688 -1331 1869 -1331 
Q 1566 -1331 1297 -1286 
Q 1028 -1241 775 -1147 
L 775 -588 
Q 1028 -725 1275 -790 
Q 1522 -856 1778 -856 
Q 2344 -856 2625 -561 
Q 2906 -266 2906 331 
L 2906 616 
Q 2728 306 2450 153 
Q 2172 0 1784 0 
Q 1141 0 747 490 
Q 353 981 353 1791 
Q 353 2603 747 3093 
Q 1141 3584 1784 3584 
Q 2172 3584 2450 3431 
Q 2728 3278 2906 2969 
L 2906 3500 
L 3481 3500 
L 3481 434 
z
" transform="scale(0.015625)"/>
      <path id="DejaVuSans-64" d="M 2906 2969 
L 2906 4863 
L 3481 4863 
L 3481 0 
L 2906 0 
L 2906 525 
Q 2725 213 2448 61 
Q 2172 -91 1784 -91 
Q 1150 -91 751 415 
Q 353 922 353 1747 
Q 353 2572 751 3078 
Q 1150 3584 1784 3584 
Q 2172 3584 2448 3432 
Q 2725 3281 2906 2969 
z
M 947 1747 
Q 947 1113 1208 752 
Q 1469 391 1925 391 
Q 2381 391 2643 752 
Q 2906 1113 2906 1747 
Q 2906 2381 2643 2742 
Q 2381 3103 1925 3103 
Q 1469 3103 1208 2742 
Q 947 2381 947 1747 
z
" transform="scale(0.015625)"/>
      <path id="DejaVuSans-33" d="M 2597 2516 
Q 3050 2419 3304 2112 
Q 3559 1806 3559 1356 
Q 3559 666 3084 287 
Q 2609 -91 1734 -91 
Q 1441 -91 1130 -33 
Q 819 25 488 141 
L 488 750 
Q 750 597 1062 519 
Q 1375 441 1716 441 
Q 2309 441 2620 675 
Q 2931 909 2931 1356 
Q 2931 1769 2642 2001 
Q 2353 2234 1838 2234 
L 1294 2234 
L 1294 2753 
L 1863 2753 
Q 2328 2753 2575 2939 
Q 2822 3125 2822 3475 
Q 2822 3834 2567 4026 
Q 2313 4219 1838 4219 
Q 1578 4219 1281 4162 
Q 984 4106 628 3988 
L 628 4550 
Q 988 4650 1302 4700 
Q 1616 4750 1894 4750 
Q 2613 4750 3031 4423 
Q 3450 4097 3450 3541 
Q 3450 3153 3228 2886 
Q 3006 2619 2597 2516 
z
" transform="scale(0.015625)"/>
      <path id="DejaVuSans-50" d="M 1259 4147 
L 1259 2394 
L 2053 2394 
Q 2494 2394 2734 2622 
Q 2975 2850 2975 3272 
Q 2975 3691 2734 3919 
Q 2494 4147 2053 4147 
L 1259 4147 
z
M 628 4666 
L 2053 4666 
Q 2838 4666 3239 4311 
Q 3641 3956 3641 3272 
Q 3641 2581 3239 2228 
Q 2838 1875 2053 1875 
L 1259 1875 
L 1259 0 
L 628 0 
L 628 4666 
z
" transform="scale(0.015625)"/>
      <path id="DejaVuSans-46" d="M 628 4666 
L 3309 4666 
L 3309 4134 
L 1259 4134 
L 1259 2759 
L 3109 2759 
L 3109 2228 
L 1259 2228 
L 1259 0 
L 628 0 
L 628 4666 
z
" transform="scale(0.015625)"/>
      <path id="DejaVuSans-41" d="M 2188 4044 
L 1331 1722 
L 3047 1722 
L 2188 4044 
z
M 1831 4666 
L 2547 4666 
L 4325 0 
L 3669 0 
L 3244 1197 
L 1141 1197 
L 716 0 
L 50 0 
L 1831 4666 
z
" transform="scale(0.015625)"/>
      <path id="DejaVuSans-53" d="M 3425 4513 
L 3425 3897 
Q 3066 4069 2747 4153 
Q 2428 4238 2131 4238 
Q 1616 4238 1336 4038 
Q 1056 3838 1056 3469 
Q 1056 3159 1242 3001 
Q 1428 2844 1947 2747 
L 2328 2669 
Q 3034 2534 3370 2195 
Q 3706 1856 3706 1288 
Q 3706 609 3251 259 
Q 2797 -91 1919 -91 
Q 1588 -91 1214 -16 
Q 841 59 441 206 
L 441 856 
Q 825 641 1194 531 
Q 1563 422 1919 422 
Q 2459 422 2753 634 
Q 3047 847 3047 1241 
Q 3047 1584 2836 1778 
Q 2625 1972 2144 2069 
L 1759 2144 
Q 1053 2284 737 2584 
Q 422 2884 422 3419 
Q 422 4038 858 4394 
Q 1294 4750 2059 4750 
Q 2388 4750 2728 4690 
Q 3069 4631 3425 4513 
z
" transform="scale(0.015625)"/>
      <path id="DejaVuSans-6d" d="M 3328 2828 
Q 3544 3216 3844 3400 
Q 4144 3584 4550 3584 
Q 5097 3584 5394 3201 
Q 5691 2819 5691 2113 
L 5691 0 
L 5113 0 
L 5113 2094 
Q 5113 2597 4934 2840 
Q 4756 3084 4391 3084 
Q 3944 3084 3684 2787 
Q 3425 2491 3425 1978 
L 3425 0 
L 2847 0 
L 2847 2094 
Q 2847 2600 2669 2842 
Q 2491 3084 2119 3084 
Q 1678 3084 1418 2786 
Q 1159 2488 1159 1978 
L 1159 0 
L 581 0 
L 581 3500 
L 1159 3500 
L 1159 2956 
Q 1356 3278 1631 3431 
Q 1906 3584 2284 3584 
Q 2666 3584 2933 3390 
Q 3200 3197 3328 2828 
z
" transform="scale(0.015625)"/>
      <path id="DejaVuSans-4d" d="M 628 4666 
L 1569 4666 
L 2759 1491 
L 3956 4666 
L 4897 4666 
L 4897 0 
L 4281 0 
L 4281 4097 
L 3078 897 
L 2444 897 
L 1241 4097 
L 1241 0 
L 628 0 
L 628 4666 
z
" transform="scale(0.015625)"/>
      <path id="DejaVuSans-20" transform="scale(0.015625)"/>
     </defs>
     <use xlink:href="#DejaVuSans-61"/>
     <use xlink:href="#DejaVuSans-63" x="61.279297"/>
     <use xlink:href="#DejaVuSans-74" x="116.259766"/>
     <use xlink:href="#DejaVuSans-69" x="155.46875"/>
     <use xlink:href="#DejaVuSans-76" x="183.251953"/>
     <use xlink:href="#DejaVuSans-65" x="242.431641"/>
     <use xlink:href="#DejaVuSans-5f" x="303.955078"/>
     <use xlink:href="#DejaVuSans-73" x="353.955078"/>
     <use xlink:href="#DejaVuSans-69" x="406.054688"/>
     <use xlink:href="#DejaVuSans-74" x="433.837891"/>
     <use xlink:href="#DejaVuSans-65" x="473.046875"/>
     <use xlink:href="#DejaVuSans-5f" x="534.570312"/>
     <use xlink:href="#DejaVuSans-31" x="584.570312"/>
     <use xlink:href="#DejaVuSans-36" x="648.193359"/>
     <use xlink:href="#DejaVuSans-36" x="711.816406"/>
     <use xlink:href="#DejaVuSans-66" x="775.439453"/>
     <use xlink:href="#DejaVuSans-67" x="810.644531"/>
     <use xlink:href="#DejaVuSans-5f" x="874.121094"/>
     <use xlink:href="#DejaVuSans-62" x="924.121094"/>
     <use xlink:href="#DejaVuSans-69" x="987.597656"/>
     <use xlink:href="#DejaVuSans-5f" x="1015.380859"/>
     <use xlink:href="#DejaVuSans-74" x="1065.380859"/>
     <use xlink:href="#DejaVuSans-79" x="1104.589844"/>
     <use xlink:href="#DejaVuSans-70" x="1163.769531"/>
     <use xlink:href="#DejaVuSans-65" x="1227.246094"/>
     <use xlink:href="#DejaVuSans-5f" x="1288.769531"/>
     <use xlink:href="#DejaVuSans-62" x="1338.769531"/>
     <use xlink:href="#DejaVuSans-6f" x="1402.246094"/>
     <use xlink:href="#DejaVuSans-6e" x="1463.427734"/>
     <use xlink:href="#DejaVuSans-64" x="1526.806641"/>
     <use xlink:href="#DejaVuSans-33" x="1590.283203"/>
     <use xlink:href="#DejaVuSans-5f" x="1653.90625"/>
     <use xlink:href="#DejaVuSans-72" x="1703.90625"/>
     <use xlink:href="#DejaVuSans-66" x="1745.019531"/>
     <use xlink:href="#DejaVuSans-5f" x="1780.224609"/>
     <use xlink:href="#DejaVuSans-50" x="1830.224609"/>
     <use xlink:href="#DejaVuSans-46" x="1890.527344"/>
     <use xlink:href="#DejaVuSans-30" x="1948.046875"/>
     <use xlink:href="#DejaVuSans-38" x="2011.669922"/>
     <use xlink:href="#DejaVuSans-32" x="2075.292969"/>
     <use xlink:href="#DejaVuSans-34" x="2138.916016"/>
     <use xlink:href="#DejaVuSans-31" x="2202.539062"/>
     <use xlink:href="#DejaVuSans-5f" x="2266.162109"/>
     <use xlink:href="#DejaVuSans-41" x="2316.162109"/>
     <use xlink:href="#DejaVuSans-43" x="2382.820312"/>
     <use xlink:href="#DejaVuSans-53" x="2452.644531"/>
     <use xlink:href="#DejaVuSans-5f" x="2516.121094"/>
     <use xlink:href="#DejaVuSans-72" x="2566.121094"/>
     <use xlink:href="#DejaVuSans-65" x="2604.984375"/>
     <use xlink:href="#DejaVuSans-6d" x="2666.507812"/>
     <use xlink:href="#DejaVuSans-6f" x="2763.919922"/>
     <use xlink:href="#DejaVuSans-76" x="2825.101562"/>
     <use xlink:href="#DejaVuSans-65" x="2884.28125"/>
     <use xlink:href="#DejaVuSans-5f" x="2945.804688"/>
     <use xlink:href="#DejaVuSans-72" x="2995.804688"/>
     <use xlink:href="#DejaVuSans-65" x="3034.667969"/>
     <use xlink:href="#DejaVuSans-64" x="3096.191406"/>
     <use xlink:href="#DejaVuSans-75" x="3159.667969"/>
     <use xlink:href="#DejaVuSans-6e" x="3223.046875"/>
     <use xlink:href="#DejaVuSans-64" x="3286.425781"/>
     <use xlink:href="#DejaVuSans-61" x="3349.902344"/>
     <use xlink:href="#DejaVuSans-6e" x="3411.181641"/>
     <use xlink:href="#DejaVuSans-74" x="3474.560547"/>
     <use xlink:href="#DejaVuSans-5f" x="3513.769531"/>
     <use xlink:href="#DejaVuSans-31" x="3563.769531"/>
     <use xlink:href="#DejaVuSans-31" x="3627.392578"/>
     <use xlink:href="#DejaVuSans-5f" x="3691.015625"/>
     <use xlink:href="#DejaVuSans-33" x="3741.015625"/>
     <use xlink:href="#DejaVuSans-30" x="3804.638672"/>
     <use xlink:href="#DejaVuSans-5f" x="3868.261719"/>
     <use xlink:href="#DejaVuSans-4d" x="3918.261719"/>
     <use xlink:href="#DejaVuSans-41" x="4004.541016"/>
     <use xlink:href="#DejaVuSans-43" x="4071.199219"/>
     <use xlink:href="#DejaVuSans-43" x="4141.023438"/>
     <use xlink:href="#DejaVuSans-53" x="4210.847656"/>
     <use xlink:href="#DejaVuSans-5f" x="4274.324219"/>
     <use xlink:href="#DejaVuSans-6e" x="4324.324219"/>
     <use xlink:href="#DejaVuSans-6f" x="4387.703125"/>
     <use xlink:href="#DejaVuSans-5f" x="4448.884766"/>
     <use xlink:href="#DejaVuSans-73" x="4498.884766"/>
     <use xlink:href="#DejaVuSans-61" x="4550.984375"/>
     <use xlink:href="#DejaVuSans-6d" x="4612.263672"/>
     <use xlink:href="#DejaVuSans-65" x="4709.675781"/>
     <use xlink:href="#DejaVuSans-5f" x="4771.199219"/>
     <use xlink:href="#DejaVuSans-73" x="4821.199219"/>
     <use xlink:href="#DejaVuSans-75" x="4873.298828"/>
     <use xlink:href="#DejaVuSans-62" x="4936.677734"/>
     <use xlink:href="#DejaVuSans-5f" x="5000.154297"/>
     <use xlink:href="#DejaVuSans-70" x="5050.154297"/>
     <use xlink:href="#DejaVuSans-72" x="5113.630859"/>
     <use xlink:href="#DejaVuSans-65" x="5152.494141"/>
     <use xlink:href="#DejaVuSans-64" x="5214.017578"/>
     <use xlink:href="#DejaVuSans-69" x="5277.494141"/>
     <use xlink:href="#DejaVuSans-63" x="5305.277344"/>
     <use xlink:href="#DejaVuSans-74" x="5360.257812"/>
     <use xlink:href="#DejaVuSans-69" x="5399.466797"/>
     <use xlink:href="#DejaVuSans-6f" x="5427.25"/>
     <use xlink:href="#DejaVuSans-6e" x="5488.431641"/>
     <use xlink:href="#DejaVuSans-20" x="5551.810547"/>
     <use xlink:href="#DejaVuSans-70" x="5583.597656"/>
     <use xlink:href="#DejaVuSans-72" x="5647.074219"/>
     <use xlink:href="#DejaVuSans-6f" x="5685.9375"/>
     <use xlink:href="#DejaVuSans-62" x="5747.119141"/>
     <use xlink:href="#DejaVuSans-61" x="5810.595703"/>
     <use xlink:href="#DejaVuSans-62" x="5871.875"/>
     <use xlink:href="#DejaVuSans-69" x="5935.351562"/>
     <use xlink:href="#DejaVuSans-6c" x="5963.134766"/>
     <use xlink:href="#DejaVuSans-69" x="5990.917969"/>
     <use xlink:href="#DejaVuSans-74" x="6018.701172"/>
     <use xlink:href="#DejaVuSans-79" x="6057.910156"/>
     <use xlink:href="#DejaVuSans-20" x="6117.089844"/>
     <use xlink:href="#DejaVuSans-64" x="6148.876953"/>
     <use xlink:href="#DejaVuSans-69" x="6212.353516"/>
     <use xlink:href="#DejaVuSans-73" x="6240.136719"/>
     <use xlink:href="#DejaVuSans-74" x="6292.236328"/>
     <use xlink:href="#DejaVuSans-72" x="6331.445312"/>
     <use xlink:href="#DejaVuSans-69" x="6372.558594"/>
     <use xlink:href="#DejaVuSans-62" x="6400.341797"/>
     <use xlink:href="#DejaVuSans-75" x="6463.818359"/>
     <use xlink:href="#DejaVuSans-74" x="6527.197266"/>
     <use xlink:href="#DejaVuSans-69" x="6566.40625"/>
     <use xlink:href="#DejaVuSans-6f" x="6594.189453"/>
     <use xlink:href="#DejaVuSans-6e" x="6655.371094"/>
    </g>
   </g>
   <g id="legend_1">
    <g id="patch_205">
     <path d="M 3423.899375 109.280625 
L 3524.22625 109.280625 
Q 3525.82625 109.280625 3525.82625 107.680625 
L 3525.82625 46.154375 
Q 3525.82625 44.554375 3524.22625 44.554375 
L 3423.899375 44.554375 
Q 3422.299375 44.554375 3422.299375 46.154375 
L 3422.299375 107.680625 
Q 3422.299375 109.280625 3423.899375 109.280625 
z
" style="fill: #eaeaf2; opacity: 0.8; stroke: #cccccc; stroke-linejoin: miter"/>
    </g>
    <g id="text_16">
     <!-- Label -->
     <g style="fill: #262626" transform="translate(3425.499375 75.10875)scale(0.36 -0.36)">
      <defs>
       <path id="DejaVuSans-4c" d="M 628 4666 
L 1259 4666 
L 1259 531 
L 3531 531 
L 3531 0 
L 628 0 
L 628 4666 
z
" transform="scale(0.015625)"/>
      </defs>
      <use xlink:href="#DejaVuSans-4c"/>
      <use xlink:href="#DejaVuSans-61" x="55.712891"/>
      <use xlink:href="#DejaVuSans-62" x="116.992188"/>
      <use xlink:href="#DejaVuSans-65" x="180.46875"/>
      <use xlink:href="#DejaVuSans-6c" x="241.992188"/>
     </g>
    </g>
    <g id="patch_206">
     <path d="M 3450.643437 92.674375 
L 3466.643437 92.674375 
L 3466.643437 87.074375 
L 3450.643437 87.074375 
z
" style="fill: #ffa500; fill-opacity: 0.5; stroke: #ffffff; stroke-linejoin: miter"/>
    </g>
    <g id="text_17">
     <!-- label1 -->
     <g style="fill: #262626" transform="translate(3473.043437 92.674375)scale(0.08 -0.08)">
      <use xlink:href="#DejaVuSans-6c"/>
      <use xlink:href="#DejaVuSans-61" x="27.783203"/>
      <use xlink:href="#DejaVuSans-62" x="89.0625"/>
      <use xlink:href="#DejaVuSans-65" x="152.539062"/>
      <use xlink:href="#DejaVuSans-6c" x="214.0625"/>
      <use xlink:href="#DejaVuSans-31" x="241.845703"/>
     </g>
    </g>
    <g id="patch_207">
     <path d="M 3450.643437 104.416875 
L 3466.643437 104.416875 
L 3466.643437 98.816875 
L 3450.643437 98.816875 
z
" style="fill: #0000ff; fill-opacity: 0.5; stroke: #ffffff; stroke-linejoin: miter"/>
    </g>
    <g id="text_18">
     <!-- label0 -->
     <g style="fill: #262626" transform="translate(3473.043437 104.416875)scale(0.08 -0.08)">
      <use xlink:href="#DejaVuSans-6c"/>
      <use xlink:href="#DejaVuSans-61" x="27.783203"/>
      <use xlink:href="#DejaVuSans-62" x="89.0625"/>
      <use xlink:href="#DejaVuSans-65" x="152.539062"/>
      <use xlink:href="#DejaVuSans-6c" x="214.0625"/>
      <use xlink:href="#DejaVuSans-30" x="241.845703"/>
     </g>
    </g>
   </g>
  </g>
 </g>
 <defs>
  <clipPath id="p12bb111ac0">
   <rect x="139.52625" y="40.554375" width="3390.3" height="2040.34"/>
  </clipPath>
 </defs>
</svg>
