<?xml version="1.0" encoding="utf-8" standalone="no"?>
<!DOCTYPE svg PUBLIC "-//W3C//DTD SVG 1.1//EN"
  "http://www.w3.org/Graphics/SVG/1.1/DTD/svg11.dtd">
<svg xmlns:xlink="http://www.w3.org/1999/xlink" width="3537pt" height="2168.373437pt" viewBox="0 0 3537 2168.373437" xmlns="http://www.w3.org/2000/svg" version="1.1">
 <metadata>
  <rdf:RDF xmlns:dc="http://purl.org/dc/elements/1.1/" xmlns:cc="http://creativecommons.org/ns#" xmlns:rdf="http://www.w3.org/1999/02/22-rdf-syntax-ns#">
   <cc:Work>
    <dc:type rdf:resource="http://purl.org/dc/dcmitype/StillImage"/>
    <dc:date>2022-11-22T07:26:44.393639</dc:date>
    <dc:format>image/svg+xml</dc:format>
    <dc:creator>
     <cc:Agent>
      <dc:title>Matplotlib v3.5.2, https://matplotlib.org/</dc:title>
     </cc:Agent>
    </dc:creator>
   </cc:Work>
  </rdf:RDF>
 </metadata>
 <defs>
  <style type="text/css">*{stroke-linejoin: round; stroke-linecap: butt}</style>
 </defs>
 <g id="figure_1">
  <g id="patch_1">
   <path d="M 0 2168.373437 
L 3537 2168.373437 
L 3537 0 
L 0 0 
z
" style="fill: #ffffff"/>
  </g>
  <g id="axes_1">
   <g id="patch_2">
    <path d="M 118.53 2080.894375 
L 3529.8 2080.894375 
L 3529.8 40.554375 
L 118.53 40.554375 
z
" style="fill: #eaeaf2"/>
   </g>
   <g id="matplotlib.axis_1">
    <g id="xtick_1">
     <g id="line2d_1">
      <path d="M 242.262934 2080.894375 
L 242.262934 40.554375 
" clip-path="url(#p0b922cc5b5)" style="fill: none; stroke: #ffffff; stroke-linecap: round"/>
     </g>
     <g id="text_1">
      <!-- 0.0 -->
      <g style="fill: #262626" transform="translate(216.022778 2115.469219)scale(0.33 -0.33)">
       <defs>
        <path id="DejaVuSans-30" d="M 2034 4250 
Q 1547 4250 1301 3770 
Q 1056 3291 1056 2328 
Q 1056 1369 1301 889 
Q 1547 409 2034 409 
Q 2525 409 2770 889 
Q 3016 1369 3016 2328 
Q 3016 3291 2770 3770 
Q 2525 4250 2034 4250 
z
M 2034 4750 
Q 2819 4750 3233 4129 
Q 3647 3509 3647 2328 
Q 3647 1150 3233 529 
Q 2819 -91 2034 -91 
Q 1250 -91 836 529 
Q 422 1150 422 2328 
Q 422 3509 836 4129 
Q 1250 4750 2034 4750 
z
" transform="scale(0.015625)"/>
        <path id="DejaVuSans-2e" d="M 684 794 
L 1344 794 
L 1344 0 
L 684 0 
L 684 794 
z
" transform="scale(0.015625)"/>
       </defs>
       <use xlink:href="#DejaVuSans-30"/>
       <use xlink:href="#DejaVuSans-2e" x="63.623047"/>
       <use xlink:href="#DejaVuSans-30" x="95.410156"/>
      </g>
     </g>
    </g>
    <g id="xtick_2">
     <g id="line2d_2">
      <path d="M 868.758802 2080.894375 
L 868.758802 40.554375 
" clip-path="url(#p0b922cc5b5)" style="fill: none; stroke: #ffffff; stroke-linecap: round"/>
     </g>
     <g id="text_2">
      <!-- 0.2 -->
      <g style="fill: #262626" transform="translate(842.518645 2115.469219)scale(0.33 -0.33)">
       <defs>
        <path id="DejaVuSans-32" d="M 1228 531 
L 3431 531 
L 3431 0 
L 469 0 
L 469 531 
Q 828 903 1448 1529 
Q 2069 2156 2228 2338 
Q 2531 2678 2651 2914 
Q 2772 3150 2772 3378 
Q 2772 3750 2511 3984 
Q 2250 4219 1831 4219 
Q 1534 4219 1204 4116 
Q 875 4013 500 3803 
L 500 4441 
Q 881 4594 1212 4672 
Q 1544 4750 1819 4750 
Q 2544 4750 2975 4387 
Q 3406 4025 3406 3419 
Q 3406 3131 3298 2873 
Q 3191 2616 2906 2266 
Q 2828 2175 2409 1742 
Q 1991 1309 1228 531 
z
" transform="scale(0.015625)"/>
       </defs>
       <use xlink:href="#DejaVuSans-30"/>
       <use xlink:href="#DejaVuSans-2e" x="63.623047"/>
       <use xlink:href="#DejaVuSans-32" x="95.410156"/>
      </g>
     </g>
    </g>
    <g id="xtick_3">
     <g id="line2d_3">
      <path d="M 1495.254669 2080.894375 
L 1495.254669 40.554375 
" clip-path="url(#p0b922cc5b5)" style="fill: none; stroke: #ffffff; stroke-linecap: round"/>
     </g>
     <g id="text_3">
      <!-- 0.4 -->
      <g style="fill: #262626" transform="translate(1469.014513 2115.469219)scale(0.33 -0.33)">
       <defs>
        <path id="DejaVuSans-34" d="M 2419 4116 
L 825 1625 
L 2419 1625 
L 2419 4116 
z
M 2253 4666 
L 3047 4666 
L 3047 1625 
L 3713 1625 
L 3713 1100 
L 3047 1100 
L 3047 0 
L 2419 0 
L 2419 1100 
L 313 1100 
L 313 1709 
L 2253 4666 
z
" transform="scale(0.015625)"/>
       </defs>
       <use xlink:href="#DejaVuSans-30"/>
       <use xlink:href="#DejaVuSans-2e" x="63.623047"/>
       <use xlink:href="#DejaVuSans-34" x="95.410156"/>
      </g>
     </g>
    </g>
    <g id="xtick_4">
     <g id="line2d_4">
      <path d="M 2121.750537 2080.894375 
L 2121.750537 40.554375 
" clip-path="url(#p0b922cc5b5)" style="fill: none; stroke: #ffffff; stroke-linecap: round"/>
     </g>
     <g id="text_4">
      <!-- 0.6 -->
      <g style="fill: #262626" transform="translate(2095.510381 2115.469219)scale(0.33 -0.33)">
       <defs>
        <path id="DejaVuSans-36" d="M 2113 2584 
Q 1688 2584 1439 2293 
Q 1191 2003 1191 1497 
Q 1191 994 1439 701 
Q 1688 409 2113 409 
Q 2538 409 2786 701 
Q 3034 994 3034 1497 
Q 3034 2003 2786 2293 
Q 2538 2584 2113 2584 
z
M 3366 4563 
L 3366 3988 
Q 3128 4100 2886 4159 
Q 2644 4219 2406 4219 
Q 1781 4219 1451 3797 
Q 1122 3375 1075 2522 
Q 1259 2794 1537 2939 
Q 1816 3084 2150 3084 
Q 2853 3084 3261 2657 
Q 3669 2231 3669 1497 
Q 3669 778 3244 343 
Q 2819 -91 2113 -91 
Q 1303 -91 875 529 
Q 447 1150 447 2328 
Q 447 3434 972 4092 
Q 1497 4750 2381 4750 
Q 2619 4750 2861 4703 
Q 3103 4656 3366 4563 
z
" transform="scale(0.015625)"/>
       </defs>
       <use xlink:href="#DejaVuSans-30"/>
       <use xlink:href="#DejaVuSans-2e" x="63.623047"/>
       <use xlink:href="#DejaVuSans-36" x="95.410156"/>
      </g>
     </g>
    </g>
    <g id="xtick_5">
     <g id="line2d_5">
      <path d="M 2748.246405 2080.894375 
L 2748.246405 40.554375 
" clip-path="url(#p0b922cc5b5)" style="fill: none; stroke: #ffffff; stroke-linecap: round"/>
     </g>
     <g id="text_5">
      <!-- 0.8 -->
      <g style="fill: #262626" transform="translate(2722.006249 2115.469219)scale(0.33 -0.33)">
       <defs>
        <path id="DejaVuSans-38" d="M 2034 2216 
Q 1584 2216 1326 1975 
Q 1069 1734 1069 1313 
Q 1069 891 1326 650 
Q 1584 409 2034 409 
Q 2484 409 2743 651 
Q 3003 894 3003 1313 
Q 3003 1734 2745 1975 
Q 2488 2216 2034 2216 
z
M 1403 2484 
Q 997 2584 770 2862 
Q 544 3141 544 3541 
Q 544 4100 942 4425 
Q 1341 4750 2034 4750 
Q 2731 4750 3128 4425 
Q 3525 4100 3525 3541 
Q 3525 3141 3298 2862 
Q 3072 2584 2669 2484 
Q 3125 2378 3379 2068 
Q 3634 1759 3634 1313 
Q 3634 634 3220 271 
Q 2806 -91 2034 -91 
Q 1263 -91 848 271 
Q 434 634 434 1313 
Q 434 1759 690 2068 
Q 947 2378 1403 2484 
z
M 1172 3481 
Q 1172 3119 1398 2916 
Q 1625 2713 2034 2713 
Q 2441 2713 2670 2916 
Q 2900 3119 2900 3481 
Q 2900 3844 2670 4047 
Q 2441 4250 2034 4250 
Q 1625 4250 1398 4047 
Q 1172 3844 1172 3481 
z
" transform="scale(0.015625)"/>
       </defs>
       <use xlink:href="#DejaVuSans-30"/>
       <use xlink:href="#DejaVuSans-2e" x="63.623047"/>
       <use xlink:href="#DejaVuSans-38" x="95.410156"/>
      </g>
     </g>
    </g>
    <g id="xtick_6">
     <g id="line2d_6">
      <path d="M 3374.742273 2080.894375 
L 3374.742273 40.554375 
" clip-path="url(#p0b922cc5b5)" style="fill: none; stroke: #ffffff; stroke-linecap: round"/>
     </g>
     <g id="text_6">
      <!-- 1.0 -->
      <g style="fill: #262626" transform="translate(3348.502116 2115.469219)scale(0.33 -0.33)">
       <defs>
        <path id="DejaVuSans-31" d="M 794 531 
L 1825 531 
L 1825 4091 
L 703 3866 
L 703 4441 
L 1819 4666 
L 2450 4666 
L 2450 531 
L 3481 531 
L 3481 0 
L 794 0 
L 794 531 
z
" transform="scale(0.015625)"/>
       </defs>
       <use xlink:href="#DejaVuSans-31"/>
       <use xlink:href="#DejaVuSans-2e" x="63.623047"/>
       <use xlink:href="#DejaVuSans-30" x="95.410156"/>
      </g>
     </g>
    </g>
    <g id="text_7">
     <!-- probability -->
     <g style="fill: #262626" transform="translate(1728.132187 2153.686563)scale(0.36 -0.36)">
      <defs>
       <path id="DejaVuSans-70" d="M 1159 525 
L 1159 -1331 
L 581 -1331 
L 581 3500 
L 1159 3500 
L 1159 2969 
Q 1341 3281 1617 3432 
Q 1894 3584 2278 3584 
Q 2916 3584 3314 3078 
Q 3713 2572 3713 1747 
Q 3713 922 3314 415 
Q 2916 -91 2278 -91 
Q 1894 -91 1617 61 
Q 1341 213 1159 525 
z
M 3116 1747 
Q 3116 2381 2855 2742 
Q 2594 3103 2138 3103 
Q 1681 3103 1420 2742 
Q 1159 2381 1159 1747 
Q 1159 1113 1420 752 
Q 1681 391 2138 391 
Q 2594 391 2855 752 
Q 3116 1113 3116 1747 
z
" transform="scale(0.015625)"/>
       <path id="DejaVuSans-72" d="M 2631 2963 
Q 2534 3019 2420 3045 
Q 2306 3072 2169 3072 
Q 1681 3072 1420 2755 
Q 1159 2438 1159 1844 
L 1159 0 
L 581 0 
L 581 3500 
L 1159 3500 
L 1159 2956 
Q 1341 3275 1631 3429 
Q 1922 3584 2338 3584 
Q 2397 3584 2469 3576 
Q 2541 3569 2628 3553 
L 2631 2963 
z
" transform="scale(0.015625)"/>
       <path id="DejaVuSans-6f" d="M 1959 3097 
Q 1497 3097 1228 2736 
Q 959 2375 959 1747 
Q 959 1119 1226 758 
Q 1494 397 1959 397 
Q 2419 397 2687 759 
Q 2956 1122 2956 1747 
Q 2956 2369 2687 2733 
Q 2419 3097 1959 3097 
z
M 1959 3584 
Q 2709 3584 3137 3096 
Q 3566 2609 3566 1747 
Q 3566 888 3137 398 
Q 2709 -91 1959 -91 
Q 1206 -91 779 398 
Q 353 888 353 1747 
Q 353 2609 779 3096 
Q 1206 3584 1959 3584 
z
" transform="scale(0.015625)"/>
       <path id="DejaVuSans-62" d="M 3116 1747 
Q 3116 2381 2855 2742 
Q 2594 3103 2138 3103 
Q 1681 3103 1420 2742 
Q 1159 2381 1159 1747 
Q 1159 1113 1420 752 
Q 1681 391 2138 391 
Q 2594 391 2855 752 
Q 3116 1113 3116 1747 
z
M 1159 2969 
Q 1341 3281 1617 3432 
Q 1894 3584 2278 3584 
Q 2916 3584 3314 3078 
Q 3713 2572 3713 1747 
Q 3713 922 3314 415 
Q 2916 -91 2278 -91 
Q 1894 -91 1617 61 
Q 1341 213 1159 525 
L 1159 0 
L 581 0 
L 581 4863 
L 1159 4863 
L 1159 2969 
z
" transform="scale(0.015625)"/>
       <path id="DejaVuSans-61" d="M 2194 1759 
Q 1497 1759 1228 1600 
Q 959 1441 959 1056 
Q 959 750 1161 570 
Q 1363 391 1709 391 
Q 2188 391 2477 730 
Q 2766 1069 2766 1631 
L 2766 1759 
L 2194 1759 
z
M 3341 1997 
L 3341 0 
L 2766 0 
L 2766 531 
Q 2569 213 2275 61 
Q 1981 -91 1556 -91 
Q 1019 -91 701 211 
Q 384 513 384 1019 
Q 384 1609 779 1909 
Q 1175 2209 1959 2209 
L 2766 2209 
L 2766 2266 
Q 2766 2663 2505 2880 
Q 2244 3097 1772 3097 
Q 1472 3097 1187 3025 
Q 903 2953 641 2809 
L 641 3341 
Q 956 3463 1253 3523 
Q 1550 3584 1831 3584 
Q 2591 3584 2966 3190 
Q 3341 2797 3341 1997 
z
" transform="scale(0.015625)"/>
       <path id="DejaVuSans-69" d="M 603 3500 
L 1178 3500 
L 1178 0 
L 603 0 
L 603 3500 
z
M 603 4863 
L 1178 4863 
L 1178 4134 
L 603 4134 
L 603 4863 
z
" transform="scale(0.015625)"/>
       <path id="DejaVuSans-6c" d="M 603 4863 
L 1178 4863 
L 1178 0 
L 603 0 
L 603 4863 
z
" transform="scale(0.015625)"/>
       <path id="DejaVuSans-74" d="M 1172 4494 
L 1172 3500 
L 2356 3500 
L 2356 3053 
L 1172 3053 
L 1172 1153 
Q 1172 725 1289 603 
Q 1406 481 1766 481 
L 2356 481 
L 2356 0 
L 1766 0 
Q 1100 0 847 248 
Q 594 497 594 1153 
L 594 3053 
L 172 3053 
L 172 3500 
L 594 3500 
L 594 4494 
L 1172 4494 
z
" transform="scale(0.015625)"/>
       <path id="DejaVuSans-79" d="M 2059 -325 
Q 1816 -950 1584 -1140 
Q 1353 -1331 966 -1331 
L 506 -1331 
L 506 -850 
L 844 -850 
Q 1081 -850 1212 -737 
Q 1344 -625 1503 -206 
L 1606 56 
L 191 3500 
L 800 3500 
L 1894 763 
L 2988 3500 
L 3597 3500 
L 2059 -325 
z
" transform="scale(0.015625)"/>
      </defs>
      <use xlink:href="#DejaVuSans-70"/>
      <use xlink:href="#DejaVuSans-72" x="63.476562"/>
      <use xlink:href="#DejaVuSans-6f" x="102.339844"/>
      <use xlink:href="#DejaVuSans-62" x="163.521484"/>
      <use xlink:href="#DejaVuSans-61" x="226.998047"/>
      <use xlink:href="#DejaVuSans-62" x="288.277344"/>
      <use xlink:href="#DejaVuSans-69" x="351.753906"/>
      <use xlink:href="#DejaVuSans-6c" x="379.537109"/>
      <use xlink:href="#DejaVuSans-69" x="407.320312"/>
      <use xlink:href="#DejaVuSans-74" x="435.103516"/>
      <use xlink:href="#DejaVuSans-79" x="474.3125"/>
     </g>
    </g>
   </g>
   <g id="matplotlib.axis_2">
    <g id="ytick_1">
     <g id="line2d_7">
      <path d="M 118.53 2080.894375 
L 3529.8 2080.894375 
" clip-path="url(#p0b922cc5b5)" style="fill: none; stroke: #ffffff; stroke-linecap: round"/>
     </g>
     <g id="text_8">
      <!-- 0 -->
      <g style="fill: #262626" transform="translate(88.03375 2093.431797)scale(0.33 -0.33)">
       <use xlink:href="#DejaVuSans-30"/>
      </g>
     </g>
    </g>
    <g id="ytick_2">
     <g id="line2d_8">
      <path d="M 118.53 1645.203579 
L 3529.8 1645.203579 
" clip-path="url(#p0b922cc5b5)" style="fill: none; stroke: #ffffff; stroke-linecap: round"/>
     </g>
     <g id="text_9">
      <!-- 50 -->
      <g style="fill: #262626" transform="translate(67.0375 1657.741)scale(0.33 -0.33)">
       <defs>
        <path id="DejaVuSans-35" d="M 691 4666 
L 3169 4666 
L 3169 4134 
L 1269 4134 
L 1269 2991 
Q 1406 3038 1543 3061 
Q 1681 3084 1819 3084 
Q 2600 3084 3056 2656 
Q 3513 2228 3513 1497 
Q 3513 744 3044 326 
Q 2575 -91 1722 -91 
Q 1428 -91 1123 -41 
Q 819 9 494 109 
L 494 744 
Q 775 591 1075 516 
Q 1375 441 1709 441 
Q 2250 441 2565 725 
Q 2881 1009 2881 1497 
Q 2881 1984 2565 2268 
Q 2250 2553 1709 2553 
Q 1456 2553 1204 2497 
Q 953 2441 691 2322 
L 691 4666 
z
" transform="scale(0.015625)"/>
       </defs>
       <use xlink:href="#DejaVuSans-35"/>
       <use xlink:href="#DejaVuSans-30" x="63.623047"/>
      </g>
     </g>
    </g>
    <g id="ytick_3">
     <g id="line2d_9">
      <path d="M 118.53 1209.512782 
L 3529.8 1209.512782 
" clip-path="url(#p0b922cc5b5)" style="fill: none; stroke: #ffffff; stroke-linecap: round"/>
     </g>
     <g id="text_10">
      <!-- 100 -->
      <g style="fill: #262626" transform="translate(46.04125 1222.050204)scale(0.33 -0.33)">
       <use xlink:href="#DejaVuSans-31"/>
       <use xlink:href="#DejaVuSans-30" x="63.623047"/>
       <use xlink:href="#DejaVuSans-30" x="127.246094"/>
      </g>
     </g>
    </g>
    <g id="ytick_4">
     <g id="line2d_10">
      <path d="M 118.53 773.821986 
L 3529.8 773.821986 
" clip-path="url(#p0b922cc5b5)" style="fill: none; stroke: #ffffff; stroke-linecap: round"/>
     </g>
     <g id="text_11">
      <!-- 150 -->
      <g style="fill: #262626" transform="translate(46.04125 786.359407)scale(0.33 -0.33)">
       <use xlink:href="#DejaVuSans-31"/>
       <use xlink:href="#DejaVuSans-35" x="63.623047"/>
       <use xlink:href="#DejaVuSans-30" x="127.246094"/>
      </g>
     </g>
    </g>
    <g id="ytick_5">
     <g id="line2d_11">
      <path d="M 118.53 338.131189 
L 3529.8 338.131189 
" clip-path="url(#p0b922cc5b5)" style="fill: none; stroke: #ffffff; stroke-linecap: round"/>
     </g>
     <g id="text_12">
      <!-- 200 -->
      <g style="fill: #262626" transform="translate(46.04125 350.668611)scale(0.33 -0.33)">
       <use xlink:href="#DejaVuSans-32"/>
       <use xlink:href="#DejaVuSans-30" x="63.623047"/>
       <use xlink:href="#DejaVuSans-30" x="127.246094"/>
      </g>
     </g>
    </g>
    <g id="text_13">
     <!-- Count -->
     <g style="fill: #262626" transform="translate(34.554375 1114.17875)rotate(-90)scale(0.36 -0.36)">
      <defs>
       <path id="DejaVuSans-43" d="M 4122 4306 
L 4122 3641 
Q 3803 3938 3442 4084 
Q 3081 4231 2675 4231 
Q 1875 4231 1450 3742 
Q 1025 3253 1025 2328 
Q 1025 1406 1450 917 
Q 1875 428 2675 428 
Q 3081 428 3442 575 
Q 3803 722 4122 1019 
L 4122 359 
Q 3791 134 3420 21 
Q 3050 -91 2638 -91 
Q 1578 -91 968 557 
Q 359 1206 359 2328 
Q 359 3453 968 4101 
Q 1578 4750 2638 4750 
Q 3056 4750 3426 4639 
Q 3797 4528 4122 4306 
z
" transform="scale(0.015625)"/>
       <path id="DejaVuSans-75" d="M 544 1381 
L 544 3500 
L 1119 3500 
L 1119 1403 
Q 1119 906 1312 657 
Q 1506 409 1894 409 
Q 2359 409 2629 706 
Q 2900 1003 2900 1516 
L 2900 3500 
L 3475 3500 
L 3475 0 
L 2900 0 
L 2900 538 
Q 2691 219 2414 64 
Q 2138 -91 1772 -91 
Q 1169 -91 856 284 
Q 544 659 544 1381 
z
M 1991 3584 
L 1991 3584 
z
" transform="scale(0.015625)"/>
       <path id="DejaVuSans-6e" d="M 3513 2113 
L 3513 0 
L 2938 0 
L 2938 2094 
Q 2938 2591 2744 2837 
Q 2550 3084 2163 3084 
Q 1697 3084 1428 2787 
Q 1159 2491 1159 1978 
L 1159 0 
L 581 0 
L 581 3500 
L 1159 3500 
L 1159 2956 
Q 1366 3272 1645 3428 
Q 1925 3584 2291 3584 
Q 2894 3584 3203 3211 
Q 3513 2838 3513 2113 
z
" transform="scale(0.015625)"/>
      </defs>
      <use xlink:href="#DejaVuSans-43"/>
      <use xlink:href="#DejaVuSans-6f" x="69.824219"/>
      <use xlink:href="#DejaVuSans-75" x="131.005859"/>
      <use xlink:href="#DejaVuSans-6e" x="194.384766"/>
      <use xlink:href="#DejaVuSans-74" x="257.763672"/>
     </g>
    </g>
   </g>
   <g id="patch_3">
    <path d="M 273.587727 2080.894375 
L 304.912521 2080.894375 
L 304.912521 2080.894375 
L 273.587727 2080.894375 
z
" clip-path="url(#p0b922cc5b5)" style="fill: #ffa500; fill-opacity: 0.5; stroke: #ffffff; stroke-linejoin: miter"/>
   </g>
   <g id="patch_4">
    <path d="M 304.912521 2080.894375 
L 336.237314 2080.894375 
L 336.237314 2080.894375 
L 304.912521 2080.894375 
z
" clip-path="url(#p0b922cc5b5)" style="fill: #ffa500; fill-opacity: 0.5; stroke: #ffffff; stroke-linejoin: miter"/>
   </g>
   <g id="patch_5">
    <path d="M 336.237314 2080.894375 
L 367.562107 2080.894375 
L 367.562107 2080.894375 
L 336.237314 2080.894375 
z
" clip-path="url(#p0b922cc5b5)" style="fill: #ffa500; fill-opacity: 0.5; stroke: #ffffff; stroke-linejoin: miter"/>
   </g>
   <g id="patch_6">
    <path d="M 367.562107 2080.894375 
L 398.886901 2080.894375 
L 398.886901 2080.894375 
L 367.562107 2080.894375 
z
" clip-path="url(#p0b922cc5b5)" style="fill: #ffa500; fill-opacity: 0.5; stroke: #ffffff; stroke-linejoin: miter"/>
   </g>
   <g id="patch_7">
    <path d="M 398.886901 2080.894375 
L 430.211694 2080.894375 
L 430.211694 2080.894375 
L 398.886901 2080.894375 
z
" clip-path="url(#p0b922cc5b5)" style="fill: #ffa500; fill-opacity: 0.5; stroke: #ffffff; stroke-linejoin: miter"/>
   </g>
   <g id="patch_8">
    <path d="M 430.211694 2080.894375 
L 461.536488 2080.894375 
L 461.536488 2080.894375 
L 430.211694 2080.894375 
z
" clip-path="url(#p0b922cc5b5)" style="fill: #ffa500; fill-opacity: 0.5; stroke: #ffffff; stroke-linejoin: miter"/>
   </g>
   <g id="patch_9">
    <path d="M 461.536488 2080.894375 
L 492.861281 2080.894375 
L 492.861281 2080.894375 
L 461.536488 2080.894375 
z
" clip-path="url(#p0b922cc5b5)" style="fill: #ffa500; fill-opacity: 0.5; stroke: #ffffff; stroke-linejoin: miter"/>
   </g>
   <g id="patch_10">
    <path d="M 492.861281 2080.894375 
L 524.186074 2080.894375 
L 524.186074 2080.894375 
L 492.861281 2080.894375 
z
" clip-path="url(#p0b922cc5b5)" style="fill: #ffa500; fill-opacity: 0.5; stroke: #ffffff; stroke-linejoin: miter"/>
   </g>
   <g id="patch_11">
    <path d="M 524.186074 2080.894375 
L 555.510868 2080.894375 
L 555.510868 2080.894375 
L 524.186074 2080.894375 
z
" clip-path="url(#p0b922cc5b5)" style="fill: #ffa500; fill-opacity: 0.5; stroke: #ffffff; stroke-linejoin: miter"/>
   </g>
   <g id="patch_12">
    <path d="M 555.510868 2080.894375 
L 586.835661 2080.894375 
L 586.835661 2080.894375 
L 555.510868 2080.894375 
z
" clip-path="url(#p0b922cc5b5)" style="fill: #ffa500; fill-opacity: 0.5; stroke: #ffffff; stroke-linejoin: miter"/>
   </g>
   <g id="patch_13">
    <path d="M 586.835661 2080.894375 
L 618.160455 2080.894375 
L 618.160455 2080.894375 
L 586.835661 2080.894375 
z
" clip-path="url(#p0b922cc5b5)" style="fill: #ffa500; fill-opacity: 0.5; stroke: #ffffff; stroke-linejoin: miter"/>
   </g>
   <g id="patch_14">
    <path d="M 618.160455 2080.894375 
L 649.485248 2080.894375 
L 649.485248 2080.894375 
L 618.160455 2080.894375 
z
" clip-path="url(#p0b922cc5b5)" style="fill: #ffa500; fill-opacity: 0.5; stroke: #ffffff; stroke-linejoin: miter"/>
   </g>
   <g id="patch_15">
    <path d="M 649.485248 2080.894375 
L 680.810041 2080.894375 
L 680.810041 2080.894375 
L 649.485248 2080.894375 
z
" clip-path="url(#p0b922cc5b5)" style="fill: #ffa500; fill-opacity: 0.5; stroke: #ffffff; stroke-linejoin: miter"/>
   </g>
   <g id="patch_16">
    <path d="M 680.810041 2080.894375 
L 712.134835 2080.894375 
L 712.134835 2080.894375 
L 680.810041 2080.894375 
z
" clip-path="url(#p0b922cc5b5)" style="fill: #ffa500; fill-opacity: 0.5; stroke: #ffffff; stroke-linejoin: miter"/>
   </g>
   <g id="patch_17">
    <path d="M 712.134835 2080.894375 
L 743.459628 2080.894375 
L 743.459628 2080.894375 
L 712.134835 2080.894375 
z
" clip-path="url(#p0b922cc5b5)" style="fill: #ffa500; fill-opacity: 0.5; stroke: #ffffff; stroke-linejoin: miter"/>
   </g>
   <g id="patch_18">
    <path d="M 743.459628 2080.894375 
L 774.784421 2080.894375 
L 774.784421 2080.894375 
L 743.459628 2080.894375 
z
" clip-path="url(#p0b922cc5b5)" style="fill: #ffa500; fill-opacity: 0.5; stroke: #ffffff; stroke-linejoin: miter"/>
   </g>
   <g id="patch_19">
    <path d="M 774.784421 2080.894375 
L 806.109215 2080.894375 
L 806.109215 2080.894375 
L 774.784421 2080.894375 
z
" clip-path="url(#p0b922cc5b5)" style="fill: #ffa500; fill-opacity: 0.5; stroke: #ffffff; stroke-linejoin: miter"/>
   </g>
   <g id="patch_20">
    <path d="M 806.109215 2080.894375 
L 837.434008 2080.894375 
L 837.434008 2072.180559 
L 806.109215 2072.180559 
z
" clip-path="url(#p0b922cc5b5)" style="fill: #ffa500; fill-opacity: 0.5; stroke: #ffffff; stroke-linejoin: miter"/>
   </g>
   <g id="patch_21">
    <path d="M 837.434008 2080.894375 
L 868.758802 2080.894375 
L 868.758802 2080.894375 
L 837.434008 2080.894375 
z
" clip-path="url(#p0b922cc5b5)" style="fill: #ffa500; fill-opacity: 0.5; stroke: #ffffff; stroke-linejoin: miter"/>
   </g>
   <g id="patch_22">
    <path d="M 868.758802 2080.894375 
L 900.083595 2080.894375 
L 900.083595 2080.894375 
L 868.758802 2080.894375 
z
" clip-path="url(#p0b922cc5b5)" style="fill: #ffa500; fill-opacity: 0.5; stroke: #ffffff; stroke-linejoin: miter"/>
   </g>
   <g id="patch_23">
    <path d="M 900.083595 2080.894375 
L 931.408388 2080.894375 
L 931.408388 2072.180559 
L 900.083595 2072.180559 
z
" clip-path="url(#p0b922cc5b5)" style="fill: #ffa500; fill-opacity: 0.5; stroke: #ffffff; stroke-linejoin: miter"/>
   </g>
   <g id="patch_24">
    <path d="M 931.408388 2080.894375 
L 962.733182 2080.894375 
L 962.733182 2054.752927 
L 931.408388 2054.752927 
z
" clip-path="url(#p0b922cc5b5)" style="fill: #ffa500; fill-opacity: 0.5; stroke: #ffffff; stroke-linejoin: miter"/>
   </g>
   <g id="patch_25">
    <path d="M 962.733182 2080.894375 
L 994.057975 2080.894375 
L 994.057975 2080.894375 
L 962.733182 2080.894375 
z
" clip-path="url(#p0b922cc5b5)" style="fill: #ffa500; fill-opacity: 0.5; stroke: #ffffff; stroke-linejoin: miter"/>
   </g>
   <g id="patch_26">
    <path d="M 994.057975 2080.894375 
L 1025.382769 2080.894375 
L 1025.382769 2080.894375 
L 994.057975 2080.894375 
z
" clip-path="url(#p0b922cc5b5)" style="fill: #ffa500; fill-opacity: 0.5; stroke: #ffffff; stroke-linejoin: miter"/>
   </g>
   <g id="patch_27">
    <path d="M 1025.382769 2080.894375 
L 1056.707562 2080.894375 
L 1056.707562 2072.180559 
L 1025.382769 2072.180559 
z
" clip-path="url(#p0b922cc5b5)" style="fill: #ffa500; fill-opacity: 0.5; stroke: #ffffff; stroke-linejoin: miter"/>
   </g>
   <g id="patch_28">
    <path d="M 1056.707562 2080.894375 
L 1088.032355 2080.894375 
L 1088.032355 2080.894375 
L 1056.707562 2080.894375 
z
" clip-path="url(#p0b922cc5b5)" style="fill: #ffa500; fill-opacity: 0.5; stroke: #ffffff; stroke-linejoin: miter"/>
   </g>
   <g id="patch_29">
    <path d="M 1088.032355 2080.894375 
L 1119.357149 2080.894375 
L 1119.357149 2080.894375 
L 1088.032355 2080.894375 
z
" clip-path="url(#p0b922cc5b5)" style="fill: #ffa500; fill-opacity: 0.5; stroke: #ffffff; stroke-linejoin: miter"/>
   </g>
   <g id="patch_30">
    <path d="M 1119.357149 2080.894375 
L 1150.681942 2080.894375 
L 1150.681942 2063.466743 
L 1119.357149 2063.466743 
z
" clip-path="url(#p0b922cc5b5)" style="fill: #ffa500; fill-opacity: 0.5; stroke: #ffffff; stroke-linejoin: miter"/>
   </g>
   <g id="patch_31">
    <path d="M 1150.681942 2080.894375 
L 1182.006736 2080.894375 
L 1182.006736 1932.759504 
L 1150.681942 1932.759504 
z
" clip-path="url(#p0b922cc5b5)" style="fill: #ffa500; fill-opacity: 0.5; stroke: #ffffff; stroke-linejoin: miter"/>
   </g>
   <g id="patch_32">
    <path d="M 1182.006736 2080.894375 
L 1213.331529 2080.894375 
L 1213.331529 1941.47332 
L 1182.006736 1941.47332 
z
" clip-path="url(#p0b922cc5b5)" style="fill: #ffa500; fill-opacity: 0.5; stroke: #ffffff; stroke-linejoin: miter"/>
   </g>
   <g id="patch_33">
    <path d="M 1213.331529 2080.894375 
L 1244.656322 2080.894375 
L 1244.656322 2002.470032 
L 1213.331529 2002.470032 
z
" clip-path="url(#p0b922cc5b5)" style="fill: #ffa500; fill-opacity: 0.5; stroke: #ffffff; stroke-linejoin: miter"/>
   </g>
   <g id="patch_34">
    <path d="M 1244.656322 2080.894375 
L 1275.981116 2080.894375 
L 1275.981116 2037.325295 
L 1244.656322 2037.325295 
z
" clip-path="url(#p0b922cc5b5)" style="fill: #ffa500; fill-opacity: 0.5; stroke: #ffffff; stroke-linejoin: miter"/>
   </g>
   <g id="patch_35">
    <path d="M 1275.981116 2080.894375 
L 1307.305909 2080.894375 
L 1307.305909 2054.752927 
L 1275.981116 2054.752927 
z
" clip-path="url(#p0b922cc5b5)" style="fill: #ffa500; fill-opacity: 0.5; stroke: #ffffff; stroke-linejoin: miter"/>
   </g>
   <g id="patch_36">
    <path d="M 1307.305909 2080.894375 
L 1338.630702 2080.894375 
L 1338.630702 2072.180559 
L 1307.305909 2072.180559 
z
" clip-path="url(#p0b922cc5b5)" style="fill: #ffa500; fill-opacity: 0.5; stroke: #ffffff; stroke-linejoin: miter"/>
   </g>
   <g id="patch_37">
    <path d="M 1338.630702 2080.894375 
L 1369.955496 2080.894375 
L 1369.955496 2072.180559 
L 1338.630702 2072.180559 
z
" clip-path="url(#p0b922cc5b5)" style="fill: #ffa500; fill-opacity: 0.5; stroke: #ffffff; stroke-linejoin: miter"/>
   </g>
   <g id="patch_38">
    <path d="M 1369.955496 2080.894375 
L 1401.280289 2080.894375 
L 1401.280289 2080.894375 
L 1369.955496 2080.894375 
z
" clip-path="url(#p0b922cc5b5)" style="fill: #ffa500; fill-opacity: 0.5; stroke: #ffffff; stroke-linejoin: miter"/>
   </g>
   <g id="patch_39">
    <path d="M 1401.280289 2080.894375 
L 1432.605083 2080.894375 
L 1432.605083 2080.894375 
L 1401.280289 2080.894375 
z
" clip-path="url(#p0b922cc5b5)" style="fill: #ffa500; fill-opacity: 0.5; stroke: #ffffff; stroke-linejoin: miter"/>
   </g>
   <g id="patch_40">
    <path d="M 1432.605083 2080.894375 
L 1463.929876 2080.894375 
L 1463.929876 2063.466743 
L 1432.605083 2063.466743 
z
" clip-path="url(#p0b922cc5b5)" style="fill: #ffa500; fill-opacity: 0.5; stroke: #ffffff; stroke-linejoin: miter"/>
   </g>
   <g id="patch_41">
    <path d="M 1463.929876 2080.894375 
L 1495.254669 2080.894375 
L 1495.254669 2072.180559 
L 1463.929876 2072.180559 
z
" clip-path="url(#p0b922cc5b5)" style="fill: #ffa500; fill-opacity: 0.5; stroke: #ffffff; stroke-linejoin: miter"/>
   </g>
   <g id="patch_42">
    <path d="M 1495.254669 2080.894375 
L 1526.579463 2080.894375 
L 1526.579463 2063.466743 
L 1495.254669 2063.466743 
z
" clip-path="url(#p0b922cc5b5)" style="fill: #ffa500; fill-opacity: 0.5; stroke: #ffffff; stroke-linejoin: miter"/>
   </g>
   <g id="patch_43">
    <path d="M 1526.579463 2080.894375 
L 1557.904256 2080.894375 
L 1557.904256 2080.894375 
L 1526.579463 2080.894375 
z
" clip-path="url(#p0b922cc5b5)" style="fill: #ffa500; fill-opacity: 0.5; stroke: #ffffff; stroke-linejoin: miter"/>
   </g>
   <g id="patch_44">
    <path d="M 1557.904256 2080.894375 
L 1589.22905 2080.894375 
L 1589.22905 2080.894375 
L 1557.904256 2080.894375 
z
" clip-path="url(#p0b922cc5b5)" style="fill: #ffa500; fill-opacity: 0.5; stroke: #ffffff; stroke-linejoin: miter"/>
   </g>
   <g id="patch_45">
    <path d="M 1589.22905 2080.894375 
L 1620.553843 2080.894375 
L 1620.553843 2080.894375 
L 1589.22905 2080.894375 
z
" clip-path="url(#p0b922cc5b5)" style="fill: #ffa500; fill-opacity: 0.5; stroke: #ffffff; stroke-linejoin: miter"/>
   </g>
   <g id="patch_46">
    <path d="M 1620.553843 2080.894375 
L 1651.878636 2080.894375 
L 1651.878636 2080.894375 
L 1620.553843 2080.894375 
z
" clip-path="url(#p0b922cc5b5)" style="fill: #ffa500; fill-opacity: 0.5; stroke: #ffffff; stroke-linejoin: miter"/>
   </g>
   <g id="patch_47">
    <path d="M 1651.878636 2080.894375 
L 1683.20343 2080.894375 
L 1683.20343 2028.611479 
L 1651.878636 2028.611479 
z
" clip-path="url(#p0b922cc5b5)" style="fill: #ffa500; fill-opacity: 0.5; stroke: #ffffff; stroke-linejoin: miter"/>
   </g>
   <g id="patch_48">
    <path d="M 1683.20343 2080.894375 
L 1714.528223 2080.894375 
L 1714.528223 2037.325295 
L 1683.20343 2037.325295 
z
" clip-path="url(#p0b922cc5b5)" style="fill: #ffa500; fill-opacity: 0.5; stroke: #ffffff; stroke-linejoin: miter"/>
   </g>
   <g id="patch_49">
    <path d="M 1714.528223 2080.894375 
L 1745.853017 2080.894375 
L 1745.853017 2072.180559 
L 1714.528223 2072.180559 
z
" clip-path="url(#p0b922cc5b5)" style="fill: #ffa500; fill-opacity: 0.5; stroke: #ffffff; stroke-linejoin: miter"/>
   </g>
   <g id="patch_50">
    <path d="M 1745.853017 2080.894375 
L 1777.17781 2080.894375 
L 1777.17781 2080.894375 
L 1745.853017 2080.894375 
z
" clip-path="url(#p0b922cc5b5)" style="fill: #ffa500; fill-opacity: 0.5; stroke: #ffffff; stroke-linejoin: miter"/>
   </g>
   <g id="patch_51">
    <path d="M 1777.17781 2080.894375 
L 1808.502603 2080.894375 
L 1808.502603 2054.752927 
L 1777.17781 2054.752927 
z
" clip-path="url(#p0b922cc5b5)" style="fill: #ffa500; fill-opacity: 0.5; stroke: #ffffff; stroke-linejoin: miter"/>
   </g>
   <g id="patch_52">
    <path d="M 1808.502603 2080.894375 
L 1839.827397 2080.894375 
L 1839.827397 2072.180559 
L 1808.502603 2072.180559 
z
" clip-path="url(#p0b922cc5b5)" style="fill: #ffa500; fill-opacity: 0.5; stroke: #ffffff; stroke-linejoin: miter"/>
   </g>
   <g id="patch_53">
    <path d="M 1839.827397 2080.894375 
L 1871.15219 2080.894375 
L 1871.15219 2072.180559 
L 1839.827397 2072.180559 
z
" clip-path="url(#p0b922cc5b5)" style="fill: #ffa500; fill-opacity: 0.5; stroke: #ffffff; stroke-linejoin: miter"/>
   </g>
   <g id="patch_54">
    <path d="M 1871.15219 2080.894375 
L 1902.476983 2080.894375 
L 1902.476983 2072.180559 
L 1871.15219 2072.180559 
z
" clip-path="url(#p0b922cc5b5)" style="fill: #ffa500; fill-opacity: 0.5; stroke: #ffffff; stroke-linejoin: miter"/>
   </g>
   <g id="patch_55">
    <path d="M 1902.476983 2080.894375 
L 1933.801777 2080.894375 
L 1933.801777 2080.894375 
L 1902.476983 2080.894375 
z
" clip-path="url(#p0b922cc5b5)" style="fill: #ffa500; fill-opacity: 0.5; stroke: #ffffff; stroke-linejoin: miter"/>
   </g>
   <g id="patch_56">
    <path d="M 1933.801777 2080.894375 
L 1965.12657 2080.894375 
L 1965.12657 2072.180559 
L 1933.801777 2072.180559 
z
" clip-path="url(#p0b922cc5b5)" style="fill: #ffa500; fill-opacity: 0.5; stroke: #ffffff; stroke-linejoin: miter"/>
   </g>
   <g id="patch_57">
    <path d="M 1965.12657 2080.894375 
L 1996.451364 2080.894375 
L 1996.451364 2072.180559 
L 1965.12657 2072.180559 
z
" clip-path="url(#p0b922cc5b5)" style="fill: #ffa500; fill-opacity: 0.5; stroke: #ffffff; stroke-linejoin: miter"/>
   </g>
   <g id="patch_58">
    <path d="M 1996.451364 2080.894375 
L 2027.776157 2080.894375 
L 2027.776157 2072.180559 
L 1996.451364 2072.180559 
z
" clip-path="url(#p0b922cc5b5)" style="fill: #ffa500; fill-opacity: 0.5; stroke: #ffffff; stroke-linejoin: miter"/>
   </g>
   <g id="patch_59">
    <path d="M 2027.776157 2080.894375 
L 2059.10095 2080.894375 
L 2059.10095 2080.894375 
L 2027.776157 2080.894375 
z
" clip-path="url(#p0b922cc5b5)" style="fill: #ffa500; fill-opacity: 0.5; stroke: #ffffff; stroke-linejoin: miter"/>
   </g>
   <g id="patch_60">
    <path d="M 2059.10095 2080.894375 
L 2090.425744 2080.894375 
L 2090.425744 2080.894375 
L 2059.10095 2080.894375 
z
" clip-path="url(#p0b922cc5b5)" style="fill: #ffa500; fill-opacity: 0.5; stroke: #ffffff; stroke-linejoin: miter"/>
   </g>
   <g id="patch_61">
    <path d="M 2090.425744 2080.894375 
L 2121.750537 2080.894375 
L 2121.750537 2080.894375 
L 2090.425744 2080.894375 
z
" clip-path="url(#p0b922cc5b5)" style="fill: #ffa500; fill-opacity: 0.5; stroke: #ffffff; stroke-linejoin: miter"/>
   </g>
   <g id="patch_62">
    <path d="M 2121.750537 2080.894375 
L 2153.075331 2080.894375 
L 2153.075331 2080.894375 
L 2121.750537 2080.894375 
z
" clip-path="url(#p0b922cc5b5)" style="fill: #ffa500; fill-opacity: 0.5; stroke: #ffffff; stroke-linejoin: miter"/>
   </g>
   <g id="patch_63">
    <path d="M 2153.075331 2080.894375 
L 2184.400124 2080.894375 
L 2184.400124 2080.894375 
L 2153.075331 2080.894375 
z
" clip-path="url(#p0b922cc5b5)" style="fill: #ffa500; fill-opacity: 0.5; stroke: #ffffff; stroke-linejoin: miter"/>
   </g>
   <g id="patch_64">
    <path d="M 2184.400124 2080.894375 
L 2215.724917 2080.894375 
L 2215.724917 2080.894375 
L 2184.400124 2080.894375 
z
" clip-path="url(#p0b922cc5b5)" style="fill: #ffa500; fill-opacity: 0.5; stroke: #ffffff; stroke-linejoin: miter"/>
   </g>
   <g id="patch_65">
    <path d="M 2215.724917 2080.894375 
L 2247.049711 2080.894375 
L 2247.049711 2080.894375 
L 2215.724917 2080.894375 
z
" clip-path="url(#p0b922cc5b5)" style="fill: #ffa500; fill-opacity: 0.5; stroke: #ffffff; stroke-linejoin: miter"/>
   </g>
   <g id="patch_66">
    <path d="M 2247.049711 2080.894375 
L 2278.374504 2080.894375 
L 2278.374504 2080.894375 
L 2247.049711 2080.894375 
z
" clip-path="url(#p0b922cc5b5)" style="fill: #ffa500; fill-opacity: 0.5; stroke: #ffffff; stroke-linejoin: miter"/>
   </g>
   <g id="patch_67">
    <path d="M 2278.374504 2080.894375 
L 2309.699298 2080.894375 
L 2309.699298 2080.894375 
L 2278.374504 2080.894375 
z
" clip-path="url(#p0b922cc5b5)" style="fill: #ffa500; fill-opacity: 0.5; stroke: #ffffff; stroke-linejoin: miter"/>
   </g>
   <g id="patch_68">
    <path d="M 2309.699298 2080.894375 
L 2341.024091 2080.894375 
L 2341.024091 2080.894375 
L 2309.699298 2080.894375 
z
" clip-path="url(#p0b922cc5b5)" style="fill: #ffa500; fill-opacity: 0.5; stroke: #ffffff; stroke-linejoin: miter"/>
   </g>
   <g id="patch_69">
    <path d="M 2341.024091 2080.894375 
L 2372.348884 2080.894375 
L 2372.348884 2080.894375 
L 2341.024091 2080.894375 
z
" clip-path="url(#p0b922cc5b5)" style="fill: #ffa500; fill-opacity: 0.5; stroke: #ffffff; stroke-linejoin: miter"/>
   </g>
   <g id="patch_70">
    <path d="M 2372.348884 2080.894375 
L 2403.673678 2080.894375 
L 2403.673678 2080.894375 
L 2372.348884 2080.894375 
z
" clip-path="url(#p0b922cc5b5)" style="fill: #ffa500; fill-opacity: 0.5; stroke: #ffffff; stroke-linejoin: miter"/>
   </g>
   <g id="patch_71">
    <path d="M 2403.673678 2080.894375 
L 2434.998471 2080.894375 
L 2434.998471 2072.180559 
L 2403.673678 2072.180559 
z
" clip-path="url(#p0b922cc5b5)" style="fill: #ffa500; fill-opacity: 0.5; stroke: #ffffff; stroke-linejoin: miter"/>
   </g>
   <g id="patch_72">
    <path d="M 2434.998471 2080.894375 
L 2466.323264 2080.894375 
L 2466.323264 2054.752927 
L 2434.998471 2054.752927 
z
" clip-path="url(#p0b922cc5b5)" style="fill: #ffa500; fill-opacity: 0.5; stroke: #ffffff; stroke-linejoin: miter"/>
   </g>
   <g id="patch_73">
    <path d="M 2466.323264 2080.894375 
L 2497.648058 2080.894375 
L 2497.648058 2080.894375 
L 2466.323264 2080.894375 
z
" clip-path="url(#p0b922cc5b5)" style="fill: #ffa500; fill-opacity: 0.5; stroke: #ffffff; stroke-linejoin: miter"/>
   </g>
   <g id="patch_74">
    <path d="M 2497.648058 2080.894375 
L 2528.972851 2080.894375 
L 2528.972851 2072.180559 
L 2497.648058 2072.180559 
z
" clip-path="url(#p0b922cc5b5)" style="fill: #ffa500; fill-opacity: 0.5; stroke: #ffffff; stroke-linejoin: miter"/>
   </g>
   <g id="patch_75">
    <path d="M 2528.972851 2080.894375 
L 2560.297645 2080.894375 
L 2560.297645 2080.894375 
L 2528.972851 2080.894375 
z
" clip-path="url(#p0b922cc5b5)" style="fill: #ffa500; fill-opacity: 0.5; stroke: #ffffff; stroke-linejoin: miter"/>
   </g>
   <g id="patch_76">
    <path d="M 2560.297645 2080.894375 
L 2591.622438 2080.894375 
L 2591.622438 2080.894375 
L 2560.297645 2080.894375 
z
" clip-path="url(#p0b922cc5b5)" style="fill: #ffa500; fill-opacity: 0.5; stroke: #ffffff; stroke-linejoin: miter"/>
   </g>
   <g id="patch_77">
    <path d="M 2591.622438 2080.894375 
L 2622.947231 2080.894375 
L 2622.947231 2080.894375 
L 2591.622438 2080.894375 
z
" clip-path="url(#p0b922cc5b5)" style="fill: #ffa500; fill-opacity: 0.5; stroke: #ffffff; stroke-linejoin: miter"/>
   </g>
   <g id="patch_78">
    <path d="M 2622.947231 2080.894375 
L 2654.272025 2080.894375 
L 2654.272025 2080.894375 
L 2622.947231 2080.894375 
z
" clip-path="url(#p0b922cc5b5)" style="fill: #ffa500; fill-opacity: 0.5; stroke: #ffffff; stroke-linejoin: miter"/>
   </g>
   <g id="patch_79">
    <path d="M 2654.272025 2080.894375 
L 2685.596818 2080.894375 
L 2685.596818 2080.894375 
L 2654.272025 2080.894375 
z
" clip-path="url(#p0b922cc5b5)" style="fill: #ffa500; fill-opacity: 0.5; stroke: #ffffff; stroke-linejoin: miter"/>
   </g>
   <g id="patch_80">
    <path d="M 2685.596818 2080.894375 
L 2716.921612 2080.894375 
L 2716.921612 2080.894375 
L 2685.596818 2080.894375 
z
" clip-path="url(#p0b922cc5b5)" style="fill: #ffa500; fill-opacity: 0.5; stroke: #ffffff; stroke-linejoin: miter"/>
   </g>
   <g id="patch_81">
    <path d="M 2716.921612 2080.894375 
L 2748.246405 2080.894375 
L 2748.246405 2080.894375 
L 2716.921612 2080.894375 
z
" clip-path="url(#p0b922cc5b5)" style="fill: #ffa500; fill-opacity: 0.5; stroke: #ffffff; stroke-linejoin: miter"/>
   </g>
   <g id="patch_82">
    <path d="M 2748.246405 2080.894375 
L 2779.571198 2080.894375 
L 2779.571198 2080.894375 
L 2748.246405 2080.894375 
z
" clip-path="url(#p0b922cc5b5)" style="fill: #ffa500; fill-opacity: 0.5; stroke: #ffffff; stroke-linejoin: miter"/>
   </g>
   <g id="patch_83">
    <path d="M 2779.571198 2080.894375 
L 2810.895992 2080.894375 
L 2810.895992 2080.894375 
L 2779.571198 2080.894375 
z
" clip-path="url(#p0b922cc5b5)" style="fill: #ffa500; fill-opacity: 0.5; stroke: #ffffff; stroke-linejoin: miter"/>
   </g>
   <g id="patch_84">
    <path d="M 2810.895992 2080.894375 
L 2842.220785 2080.894375 
L 2842.220785 2080.894375 
L 2810.895992 2080.894375 
z
" clip-path="url(#p0b922cc5b5)" style="fill: #ffa500; fill-opacity: 0.5; stroke: #ffffff; stroke-linejoin: miter"/>
   </g>
   <g id="patch_85">
    <path d="M 2842.220785 2080.894375 
L 2873.545579 2080.894375 
L 2873.545579 2080.894375 
L 2842.220785 2080.894375 
z
" clip-path="url(#p0b922cc5b5)" style="fill: #ffa500; fill-opacity: 0.5; stroke: #ffffff; stroke-linejoin: miter"/>
   </g>
   <g id="patch_86">
    <path d="M 2873.545579 2080.894375 
L 2904.870372 2080.894375 
L 2904.870372 2080.894375 
L 2873.545579 2080.894375 
z
" clip-path="url(#p0b922cc5b5)" style="fill: #ffa500; fill-opacity: 0.5; stroke: #ffffff; stroke-linejoin: miter"/>
   </g>
   <g id="patch_87">
    <path d="M 2904.870372 2080.894375 
L 2936.195165 2080.894375 
L 2936.195165 2080.894375 
L 2904.870372 2080.894375 
z
" clip-path="url(#p0b922cc5b5)" style="fill: #ffa500; fill-opacity: 0.5; stroke: #ffffff; stroke-linejoin: miter"/>
   </g>
   <g id="patch_88">
    <path d="M 2936.195165 2080.894375 
L 2967.519959 2080.894375 
L 2967.519959 2080.894375 
L 2936.195165 2080.894375 
z
" clip-path="url(#p0b922cc5b5)" style="fill: #ffa500; fill-opacity: 0.5; stroke: #ffffff; stroke-linejoin: miter"/>
   </g>
   <g id="patch_89">
    <path d="M 2967.519959 2080.894375 
L 2998.844752 2080.894375 
L 2998.844752 2080.894375 
L 2967.519959 2080.894375 
z
" clip-path="url(#p0b922cc5b5)" style="fill: #ffa500; fill-opacity: 0.5; stroke: #ffffff; stroke-linejoin: miter"/>
   </g>
   <g id="patch_90">
    <path d="M 2998.844752 2080.894375 
L 3030.169545 2080.894375 
L 3030.169545 2080.894375 
L 2998.844752 2080.894375 
z
" clip-path="url(#p0b922cc5b5)" style="fill: #ffa500; fill-opacity: 0.5; stroke: #ffffff; stroke-linejoin: miter"/>
   </g>
   <g id="patch_91">
    <path d="M 3030.169545 2080.894375 
L 3061.494339 2080.894375 
L 3061.494339 2080.894375 
L 3030.169545 2080.894375 
z
" clip-path="url(#p0b922cc5b5)" style="fill: #ffa500; fill-opacity: 0.5; stroke: #ffffff; stroke-linejoin: miter"/>
   </g>
   <g id="patch_92">
    <path d="M 3061.494339 2080.894375 
L 3092.819132 2080.894375 
L 3092.819132 2080.894375 
L 3061.494339 2080.894375 
z
" clip-path="url(#p0b922cc5b5)" style="fill: #ffa500; fill-opacity: 0.5; stroke: #ffffff; stroke-linejoin: miter"/>
   </g>
   <g id="patch_93">
    <path d="M 3092.819132 2080.894375 
L 3124.143926 2080.894375 
L 3124.143926 2080.894375 
L 3092.819132 2080.894375 
z
" clip-path="url(#p0b922cc5b5)" style="fill: #ffa500; fill-opacity: 0.5; stroke: #ffffff; stroke-linejoin: miter"/>
   </g>
   <g id="patch_94">
    <path d="M 3124.143926 2080.894375 
L 3155.468719 2080.894375 
L 3155.468719 2080.894375 
L 3124.143926 2080.894375 
z
" clip-path="url(#p0b922cc5b5)" style="fill: #ffa500; fill-opacity: 0.5; stroke: #ffffff; stroke-linejoin: miter"/>
   </g>
   <g id="patch_95">
    <path d="M 3155.468719 2080.894375 
L 3186.793512 2080.894375 
L 3186.793512 2080.894375 
L 3155.468719 2080.894375 
z
" clip-path="url(#p0b922cc5b5)" style="fill: #ffa500; fill-opacity: 0.5; stroke: #ffffff; stroke-linejoin: miter"/>
   </g>
   <g id="patch_96">
    <path d="M 3186.793512 2080.894375 
L 3218.118306 2080.894375 
L 3218.118306 2080.894375 
L 3186.793512 2080.894375 
z
" clip-path="url(#p0b922cc5b5)" style="fill: #ffa500; fill-opacity: 0.5; stroke: #ffffff; stroke-linejoin: miter"/>
   </g>
   <g id="patch_97">
    <path d="M 3218.118306 2080.894375 
L 3249.443099 2080.894375 
L 3249.443099 2080.894375 
L 3218.118306 2080.894375 
z
" clip-path="url(#p0b922cc5b5)" style="fill: #ffa500; fill-opacity: 0.5; stroke: #ffffff; stroke-linejoin: miter"/>
   </g>
   <g id="patch_98">
    <path d="M 3249.443099 2080.894375 
L 3280.767893 2080.894375 
L 3280.767893 2080.894375 
L 3249.443099 2080.894375 
z
" clip-path="url(#p0b922cc5b5)" style="fill: #ffa500; fill-opacity: 0.5; stroke: #ffffff; stroke-linejoin: miter"/>
   </g>
   <g id="patch_99">
    <path d="M 3280.767893 2080.894375 
L 3312.092686 2080.894375 
L 3312.092686 2080.894375 
L 3280.767893 2080.894375 
z
" clip-path="url(#p0b922cc5b5)" style="fill: #ffa500; fill-opacity: 0.5; stroke: #ffffff; stroke-linejoin: miter"/>
   </g>
   <g id="patch_100">
    <path d="M 3312.092686 2080.894375 
L 3343.417479 2080.894375 
L 3343.417479 2080.894375 
L 3312.092686 2080.894375 
z
" clip-path="url(#p0b922cc5b5)" style="fill: #ffa500; fill-opacity: 0.5; stroke: #ffffff; stroke-linejoin: miter"/>
   </g>
   <g id="patch_101">
    <path d="M 3343.417479 2080.894375 
L 3374.742273 2080.894375 
L 3374.742273 2080.894375 
L 3343.417479 2080.894375 
z
" clip-path="url(#p0b922cc5b5)" style="fill: #ffa500; fill-opacity: 0.5; stroke: #ffffff; stroke-linejoin: miter"/>
   </g>
   <g id="patch_102">
    <path d="M 273.587727 2080.894375 
L 304.912521 2080.894375 
L 304.912521 2080.894375 
L 273.587727 2080.894375 
z
" clip-path="url(#p0b922cc5b5)" style="fill: #0000ff; fill-opacity: 0.5; stroke: #ffffff; stroke-linejoin: miter"/>
   </g>
   <g id="patch_103">
    <path d="M 304.912521 2080.894375 
L 336.237314 2080.894375 
L 336.237314 1828.193713 
L 304.912521 1828.193713 
z
" clip-path="url(#p0b922cc5b5)" style="fill: #0000ff; fill-opacity: 0.5; stroke: #ffffff; stroke-linejoin: miter"/>
   </g>
   <g id="patch_104">
    <path d="M 336.237314 2080.894375 
L 367.562107 2080.894375 
L 367.562107 1732.341738 
L 336.237314 1732.341738 
z
" clip-path="url(#p0b922cc5b5)" style="fill: #0000ff; fill-opacity: 0.5; stroke: #ffffff; stroke-linejoin: miter"/>
   </g>
   <g id="patch_105">
    <path d="M 367.562107 2080.894375 
L 398.886901 2080.894375 
L 398.886901 1732.341738 
L 367.562107 1732.341738 
z
" clip-path="url(#p0b922cc5b5)" style="fill: #0000ff; fill-opacity: 0.5; stroke: #ffffff; stroke-linejoin: miter"/>
   </g>
   <g id="patch_106">
    <path d="M 398.886901 2080.894375 
L 430.211694 2080.894375 
L 430.211694 1854.335161 
L 398.886901 1854.335161 
z
" clip-path="url(#p0b922cc5b5)" style="fill: #0000ff; fill-opacity: 0.5; stroke: #ffffff; stroke-linejoin: miter"/>
   </g>
   <g id="patch_107">
    <path d="M 430.211694 2080.894375 
L 461.536488 2080.894375 
L 461.536488 1566.779235 
L 430.211694 1566.779235 
z
" clip-path="url(#p0b922cc5b5)" style="fill: #0000ff; fill-opacity: 0.5; stroke: #ffffff; stroke-linejoin: miter"/>
   </g>
   <g id="patch_108">
    <path d="M 461.536488 2080.894375 
L 492.861281 2080.894375 
L 492.861281 137.713423 
L 461.536488 137.713423 
z
" clip-path="url(#p0b922cc5b5)" style="fill: #0000ff; fill-opacity: 0.5; stroke: #ffffff; stroke-linejoin: miter"/>
   </g>
   <g id="patch_109">
    <path d="M 492.861281 2080.894375 
L 524.186074 2080.894375 
L 524.186074 948.098304 
L 492.861281 948.098304 
z
" clip-path="url(#p0b922cc5b5)" style="fill: #0000ff; fill-opacity: 0.5; stroke: #ffffff; stroke-linejoin: miter"/>
   </g>
   <g id="patch_110">
    <path d="M 524.186074 2080.894375 
L 555.510868 2080.894375 
L 555.510868 1305.364757 
L 524.186074 1305.364757 
z
" clip-path="url(#p0b922cc5b5)" style="fill: #0000ff; fill-opacity: 0.5; stroke: #ffffff; stroke-linejoin: miter"/>
   </g>
   <g id="patch_111">
    <path d="M 555.510868 2080.894375 
L 586.835661 2080.894375 
L 586.835661 1793.338449 
L 555.510868 1793.338449 
z
" clip-path="url(#p0b922cc5b5)" style="fill: #0000ff; fill-opacity: 0.5; stroke: #ffffff; stroke-linejoin: miter"/>
   </g>
   <g id="patch_112">
    <path d="M 586.835661 2080.894375 
L 618.160455 2080.894375 
L 618.160455 1610.348315 
L 586.835661 1610.348315 
z
" clip-path="url(#p0b922cc5b5)" style="fill: #0000ff; fill-opacity: 0.5; stroke: #ffffff; stroke-linejoin: miter"/>
   </g>
   <g id="patch_113">
    <path d="M 618.160455 2080.894375 
L 649.485248 2080.894375 
L 649.485248 1697.486474 
L 618.160455 1697.486474 
z
" clip-path="url(#p0b922cc5b5)" style="fill: #0000ff; fill-opacity: 0.5; stroke: #ffffff; stroke-linejoin: miter"/>
   </g>
   <g id="patch_114">
    <path d="M 649.485248 2080.894375 
L 680.810041 2080.894375 
L 680.810041 1357.647653 
L 649.485248 1357.647653 
z
" clip-path="url(#p0b922cc5b5)" style="fill: #0000ff; fill-opacity: 0.5; stroke: #ffffff; stroke-linejoin: miter"/>
   </g>
   <g id="patch_115">
    <path d="M 680.810041 2080.894375 
L 712.134835 2080.894375 
L 712.134835 1375.075285 
L 680.810041 1375.075285 
z
" clip-path="url(#p0b922cc5b5)" style="fill: #0000ff; fill-opacity: 0.5; stroke: #ffffff; stroke-linejoin: miter"/>
   </g>
   <g id="patch_116">
    <path d="M 712.134835 2080.894375 
L 743.459628 2080.894375 
L 743.459628 1732.341738 
L 712.134835 1732.341738 
z
" clip-path="url(#p0b922cc5b5)" style="fill: #0000ff; fill-opacity: 0.5; stroke: #ffffff; stroke-linejoin: miter"/>
   </g>
   <g id="patch_117">
    <path d="M 743.459628 2080.894375 
L 774.784421 2080.894375 
L 774.784421 1741.055554 
L 743.459628 1741.055554 
z
" clip-path="url(#p0b922cc5b5)" style="fill: #0000ff; fill-opacity: 0.5; stroke: #ffffff; stroke-linejoin: miter"/>
   </g>
   <g id="patch_118">
    <path d="M 774.784421 2080.894375 
L 806.109215 2080.894375 
L 806.109215 1854.335161 
L 774.784421 1854.335161 
z
" clip-path="url(#p0b922cc5b5)" style="fill: #0000ff; fill-opacity: 0.5; stroke: #ffffff; stroke-linejoin: miter"/>
   </g>
   <g id="patch_119">
    <path d="M 806.109215 2080.894375 
L 837.434008 2080.894375 
L 837.434008 1741.055554 
L 806.109215 1741.055554 
z
" clip-path="url(#p0b922cc5b5)" style="fill: #0000ff; fill-opacity: 0.5; stroke: #ffffff; stroke-linejoin: miter"/>
   </g>
   <g id="patch_120">
    <path d="M 837.434008 2080.894375 
L 868.758802 2080.894375 
L 868.758802 1514.49634 
L 837.434008 1514.49634 
z
" clip-path="url(#p0b922cc5b5)" style="fill: #0000ff; fill-opacity: 0.5; stroke: #ffffff; stroke-linejoin: miter"/>
   </g>
   <g id="patch_121">
    <path d="M 868.758802 2080.894375 
L 900.083595 2080.894375 
L 900.083595 1671.345026 
L 868.758802 1671.345026 
z
" clip-path="url(#p0b922cc5b5)" style="fill: #0000ff; fill-opacity: 0.5; stroke: #ffffff; stroke-linejoin: miter"/>
   </g>
   <g id="patch_122">
    <path d="M 900.083595 2080.894375 
L 931.408388 2080.894375 
L 931.408388 1985.0424 
L 900.083595 1985.0424 
z
" clip-path="url(#p0b922cc5b5)" style="fill: #0000ff; fill-opacity: 0.5; stroke: #ffffff; stroke-linejoin: miter"/>
   </g>
   <g id="patch_123">
    <path d="M 931.408388 2080.894375 
L 962.733182 2080.894375 
L 962.733182 1871.762793 
L 931.408388 1871.762793 
z
" clip-path="url(#p0b922cc5b5)" style="fill: #0000ff; fill-opacity: 0.5; stroke: #ffffff; stroke-linejoin: miter"/>
   </g>
   <g id="patch_124">
    <path d="M 962.733182 2080.894375 
L 994.057975 2080.894375 
L 994.057975 1863.048977 
L 962.733182 1863.048977 
z
" clip-path="url(#p0b922cc5b5)" style="fill: #0000ff; fill-opacity: 0.5; stroke: #ffffff; stroke-linejoin: miter"/>
   </g>
   <g id="patch_125">
    <path d="M 994.057975 2080.894375 
L 1025.382769 2080.894375 
L 1025.382769 1993.756216 
L 994.057975 1993.756216 
z
" clip-path="url(#p0b922cc5b5)" style="fill: #0000ff; fill-opacity: 0.5; stroke: #ffffff; stroke-linejoin: miter"/>
   </g>
   <g id="patch_126">
    <path d="M 1025.382769 2080.894375 
L 1056.707562 2080.894375 
L 1056.707562 2028.611479 
L 1025.382769 2028.611479 
z
" clip-path="url(#p0b922cc5b5)" style="fill: #0000ff; fill-opacity: 0.5; stroke: #ffffff; stroke-linejoin: miter"/>
   </g>
   <g id="patch_127">
    <path d="M 1056.707562 2080.894375 
L 1088.032355 2080.894375 
L 1088.032355 2019.897663 
L 1056.707562 2019.897663 
z
" clip-path="url(#p0b922cc5b5)" style="fill: #0000ff; fill-opacity: 0.5; stroke: #ffffff; stroke-linejoin: miter"/>
   </g>
   <g id="patch_128">
    <path d="M 1088.032355 2080.894375 
L 1119.357149 2080.894375 
L 1119.357149 2072.180559 
L 1088.032355 2072.180559 
z
" clip-path="url(#p0b922cc5b5)" style="fill: #0000ff; fill-opacity: 0.5; stroke: #ffffff; stroke-linejoin: miter"/>
   </g>
   <g id="patch_129">
    <path d="M 1119.357149 2080.894375 
L 1150.681942 2080.894375 
L 1150.681942 2046.039111 
L 1119.357149 2046.039111 
z
" clip-path="url(#p0b922cc5b5)" style="fill: #0000ff; fill-opacity: 0.5; stroke: #ffffff; stroke-linejoin: miter"/>
   </g>
   <g id="patch_130">
    <path d="M 1150.681942 2080.894375 
L 1182.006736 2080.894375 
L 1182.006736 1932.759504 
L 1150.681942 1932.759504 
z
" clip-path="url(#p0b922cc5b5)" style="fill: #0000ff; fill-opacity: 0.5; stroke: #ffffff; stroke-linejoin: miter"/>
   </g>
   <g id="patch_131">
    <path d="M 1182.006736 2080.894375 
L 1213.331529 2080.894375 
L 1213.331529 1941.47332 
L 1182.006736 1941.47332 
z
" clip-path="url(#p0b922cc5b5)" style="fill: #0000ff; fill-opacity: 0.5; stroke: #ffffff; stroke-linejoin: miter"/>
   </g>
   <g id="patch_132">
    <path d="M 1213.331529 2080.894375 
L 1244.656322 2080.894375 
L 1244.656322 2002.470032 
L 1213.331529 2002.470032 
z
" clip-path="url(#p0b922cc5b5)" style="fill: #0000ff; fill-opacity: 0.5; stroke: #ffffff; stroke-linejoin: miter"/>
   </g>
   <g id="patch_133">
    <path d="M 1244.656322 2080.894375 
L 1275.981116 2080.894375 
L 1275.981116 2046.039111 
L 1244.656322 2046.039111 
z
" clip-path="url(#p0b922cc5b5)" style="fill: #0000ff; fill-opacity: 0.5; stroke: #ffffff; stroke-linejoin: miter"/>
   </g>
   <g id="patch_134">
    <path d="M 1275.981116 2080.894375 
L 1307.305909 2080.894375 
L 1307.305909 2028.611479 
L 1275.981116 2028.611479 
z
" clip-path="url(#p0b922cc5b5)" style="fill: #0000ff; fill-opacity: 0.5; stroke: #ffffff; stroke-linejoin: miter"/>
   </g>
   <g id="patch_135">
    <path d="M 1307.305909 2080.894375 
L 1338.630702 2080.894375 
L 1338.630702 1915.331872 
L 1307.305909 1915.331872 
z
" clip-path="url(#p0b922cc5b5)" style="fill: #0000ff; fill-opacity: 0.5; stroke: #ffffff; stroke-linejoin: miter"/>
   </g>
   <g id="patch_136">
    <path d="M 1338.630702 2080.894375 
L 1369.955496 2080.894375 
L 1369.955496 1836.907529 
L 1338.630702 1836.907529 
z
" clip-path="url(#p0b922cc5b5)" style="fill: #0000ff; fill-opacity: 0.5; stroke: #ffffff; stroke-linejoin: miter"/>
   </g>
   <g id="patch_137">
    <path d="M 1369.955496 2080.894375 
L 1401.280289 2080.894375 
L 1401.280289 2037.325295 
L 1369.955496 2037.325295 
z
" clip-path="url(#p0b922cc5b5)" style="fill: #0000ff; fill-opacity: 0.5; stroke: #ffffff; stroke-linejoin: miter"/>
   </g>
   <g id="patch_138">
    <path d="M 1401.280289 2080.894375 
L 1432.605083 2080.894375 
L 1432.605083 2063.466743 
L 1401.280289 2063.466743 
z
" clip-path="url(#p0b922cc5b5)" style="fill: #0000ff; fill-opacity: 0.5; stroke: #ffffff; stroke-linejoin: miter"/>
   </g>
   <g id="patch_139">
    <path d="M 1432.605083 2080.894375 
L 1463.929876 2080.894375 
L 1463.929876 2063.466743 
L 1432.605083 2063.466743 
z
" clip-path="url(#p0b922cc5b5)" style="fill: #0000ff; fill-opacity: 0.5; stroke: #ffffff; stroke-linejoin: miter"/>
   </g>
   <g id="patch_140">
    <path d="M 1463.929876 2080.894375 
L 1495.254669 2080.894375 
L 1495.254669 2072.180559 
L 1463.929876 2072.180559 
z
" clip-path="url(#p0b922cc5b5)" style="fill: #0000ff; fill-opacity: 0.5; stroke: #ffffff; stroke-linejoin: miter"/>
   </g>
   <g id="patch_141">
    <path d="M 1495.254669 2080.894375 
L 1526.579463 2080.894375 
L 1526.579463 2063.466743 
L 1495.254669 2063.466743 
z
" clip-path="url(#p0b922cc5b5)" style="fill: #0000ff; fill-opacity: 0.5; stroke: #ffffff; stroke-linejoin: miter"/>
   </g>
   <g id="patch_142">
    <path d="M 1526.579463 2080.894375 
L 1557.904256 2080.894375 
L 1557.904256 2072.180559 
L 1526.579463 2072.180559 
z
" clip-path="url(#p0b922cc5b5)" style="fill: #0000ff; fill-opacity: 0.5; stroke: #ffffff; stroke-linejoin: miter"/>
   </g>
   <g id="patch_143">
    <path d="M 1557.904256 2080.894375 
L 1589.22905 2080.894375 
L 1589.22905 2080.894375 
L 1557.904256 2080.894375 
z
" clip-path="url(#p0b922cc5b5)" style="fill: #0000ff; fill-opacity: 0.5; stroke: #ffffff; stroke-linejoin: miter"/>
   </g>
   <g id="patch_144">
    <path d="M 1589.22905 2080.894375 
L 1620.553843 2080.894375 
L 1620.553843 2080.894375 
L 1589.22905 2080.894375 
z
" clip-path="url(#p0b922cc5b5)" style="fill: #0000ff; fill-opacity: 0.5; stroke: #ffffff; stroke-linejoin: miter"/>
   </g>
   <g id="patch_145">
    <path d="M 1620.553843 2080.894375 
L 1651.878636 2080.894375 
L 1651.878636 2080.894375 
L 1620.553843 2080.894375 
z
" clip-path="url(#p0b922cc5b5)" style="fill: #0000ff; fill-opacity: 0.5; stroke: #ffffff; stroke-linejoin: miter"/>
   </g>
   <g id="patch_146">
    <path d="M 1651.878636 2080.894375 
L 1683.20343 2080.894375 
L 1683.20343 2080.894375 
L 1651.878636 2080.894375 
z
" clip-path="url(#p0b922cc5b5)" style="fill: #0000ff; fill-opacity: 0.5; stroke: #ffffff; stroke-linejoin: miter"/>
   </g>
   <g id="patch_147">
    <path d="M 1683.20343 2080.894375 
L 1714.528223 2080.894375 
L 1714.528223 2080.894375 
L 1683.20343 2080.894375 
z
" clip-path="url(#p0b922cc5b5)" style="fill: #0000ff; fill-opacity: 0.5; stroke: #ffffff; stroke-linejoin: miter"/>
   </g>
   <g id="patch_148">
    <path d="M 1714.528223 2080.894375 
L 1745.853017 2080.894375 
L 1745.853017 2054.752927 
L 1714.528223 2054.752927 
z
" clip-path="url(#p0b922cc5b5)" style="fill: #0000ff; fill-opacity: 0.5; stroke: #ffffff; stroke-linejoin: miter"/>
   </g>
   <g id="patch_149">
    <path d="M 1745.853017 2080.894375 
L 1777.17781 2080.894375 
L 1777.17781 1889.190425 
L 1745.853017 1889.190425 
z
" clip-path="url(#p0b922cc5b5)" style="fill: #0000ff; fill-opacity: 0.5; stroke: #ffffff; stroke-linejoin: miter"/>
   </g>
   <g id="patch_150">
    <path d="M 1777.17781 2080.894375 
L 1808.502603 2080.894375 
L 1808.502603 1854.335161 
L 1777.17781 1854.335161 
z
" clip-path="url(#p0b922cc5b5)" style="fill: #0000ff; fill-opacity: 0.5; stroke: #ffffff; stroke-linejoin: miter"/>
   </g>
   <g id="patch_151">
    <path d="M 1808.502603 2080.894375 
L 1839.827397 2080.894375 
L 1839.827397 2072.180559 
L 1808.502603 2072.180559 
z
" clip-path="url(#p0b922cc5b5)" style="fill: #0000ff; fill-opacity: 0.5; stroke: #ffffff; stroke-linejoin: miter"/>
   </g>
   <g id="patch_152">
    <path d="M 1839.827397 2080.894375 
L 1871.15219 2080.894375 
L 1871.15219 2072.180559 
L 1839.827397 2072.180559 
z
" clip-path="url(#p0b922cc5b5)" style="fill: #0000ff; fill-opacity: 0.5; stroke: #ffffff; stroke-linejoin: miter"/>
   </g>
   <g id="patch_153">
    <path d="M 1871.15219 2080.894375 
L 1902.476983 2080.894375 
L 1902.476983 2080.894375 
L 1871.15219 2080.894375 
z
" clip-path="url(#p0b922cc5b5)" style="fill: #0000ff; fill-opacity: 0.5; stroke: #ffffff; stroke-linejoin: miter"/>
   </g>
   <g id="patch_154">
    <path d="M 1902.476983 2080.894375 
L 1933.801777 2080.894375 
L 1933.801777 2080.894375 
L 1902.476983 2080.894375 
z
" clip-path="url(#p0b922cc5b5)" style="fill: #0000ff; fill-opacity: 0.5; stroke: #ffffff; stroke-linejoin: miter"/>
   </g>
   <g id="patch_155">
    <path d="M 1933.801777 2080.894375 
L 1965.12657 2080.894375 
L 1965.12657 2072.180559 
L 1933.801777 2072.180559 
z
" clip-path="url(#p0b922cc5b5)" style="fill: #0000ff; fill-opacity: 0.5; stroke: #ffffff; stroke-linejoin: miter"/>
   </g>
   <g id="patch_156">
    <path d="M 1965.12657 2080.894375 
L 1996.451364 2080.894375 
L 1996.451364 2080.894375 
L 1965.12657 2080.894375 
z
" clip-path="url(#p0b922cc5b5)" style="fill: #0000ff; fill-opacity: 0.5; stroke: #ffffff; stroke-linejoin: miter"/>
   </g>
   <g id="patch_157">
    <path d="M 1996.451364 2080.894375 
L 2027.776157 2080.894375 
L 2027.776157 2072.180559 
L 1996.451364 2072.180559 
z
" clip-path="url(#p0b922cc5b5)" style="fill: #0000ff; fill-opacity: 0.5; stroke: #ffffff; stroke-linejoin: miter"/>
   </g>
   <g id="patch_158">
    <path d="M 2027.776157 2080.894375 
L 2059.10095 2080.894375 
L 2059.10095 2063.466743 
L 2027.776157 2063.466743 
z
" clip-path="url(#p0b922cc5b5)" style="fill: #0000ff; fill-opacity: 0.5; stroke: #ffffff; stroke-linejoin: miter"/>
   </g>
   <g id="patch_159">
    <path d="M 2059.10095 2080.894375 
L 2090.425744 2080.894375 
L 2090.425744 2080.894375 
L 2059.10095 2080.894375 
z
" clip-path="url(#p0b922cc5b5)" style="fill: #0000ff; fill-opacity: 0.5; stroke: #ffffff; stroke-linejoin: miter"/>
   </g>
   <g id="patch_160">
    <path d="M 2090.425744 2080.894375 
L 2121.750537 2080.894375 
L 2121.750537 2080.894375 
L 2090.425744 2080.894375 
z
" clip-path="url(#p0b922cc5b5)" style="fill: #0000ff; fill-opacity: 0.5; stroke: #ffffff; stroke-linejoin: miter"/>
   </g>
   <g id="patch_161">
    <path d="M 2121.750537 2080.894375 
L 2153.075331 2080.894375 
L 2153.075331 2080.894375 
L 2121.750537 2080.894375 
z
" clip-path="url(#p0b922cc5b5)" style="fill: #0000ff; fill-opacity: 0.5; stroke: #ffffff; stroke-linejoin: miter"/>
   </g>
   <g id="patch_162">
    <path d="M 2153.075331 2080.894375 
L 2184.400124 2080.894375 
L 2184.400124 2080.894375 
L 2153.075331 2080.894375 
z
" clip-path="url(#p0b922cc5b5)" style="fill: #0000ff; fill-opacity: 0.5; stroke: #ffffff; stroke-linejoin: miter"/>
   </g>
   <g id="patch_163">
    <path d="M 2184.400124 2080.894375 
L 2215.724917 2080.894375 
L 2215.724917 2080.894375 
L 2184.400124 2080.894375 
z
" clip-path="url(#p0b922cc5b5)" style="fill: #0000ff; fill-opacity: 0.5; stroke: #ffffff; stroke-linejoin: miter"/>
   </g>
   <g id="patch_164">
    <path d="M 2215.724917 2080.894375 
L 2247.049711 2080.894375 
L 2247.049711 2080.894375 
L 2215.724917 2080.894375 
z
" clip-path="url(#p0b922cc5b5)" style="fill: #0000ff; fill-opacity: 0.5; stroke: #ffffff; stroke-linejoin: miter"/>
   </g>
   <g id="patch_165">
    <path d="M 2247.049711 2080.894375 
L 2278.374504 2080.894375 
L 2278.374504 2080.894375 
L 2247.049711 2080.894375 
z
" clip-path="url(#p0b922cc5b5)" style="fill: #0000ff; fill-opacity: 0.5; stroke: #ffffff; stroke-linejoin: miter"/>
   </g>
   <g id="patch_166">
    <path d="M 2278.374504 2080.894375 
L 2309.699298 2080.894375 
L 2309.699298 2054.752927 
L 2278.374504 2054.752927 
z
" clip-path="url(#p0b922cc5b5)" style="fill: #0000ff; fill-opacity: 0.5; stroke: #ffffff; stroke-linejoin: miter"/>
   </g>
   <g id="patch_167">
    <path d="M 2309.699298 2080.894375 
L 2341.024091 2080.894375 
L 2341.024091 1950.187136 
L 2309.699298 1950.187136 
z
" clip-path="url(#p0b922cc5b5)" style="fill: #0000ff; fill-opacity: 0.5; stroke: #ffffff; stroke-linejoin: miter"/>
   </g>
   <g id="patch_168">
    <path d="M 2341.024091 2080.894375 
L 2372.348884 2080.894375 
L 2372.348884 1880.476609 
L 2341.024091 1880.476609 
z
" clip-path="url(#p0b922cc5b5)" style="fill: #0000ff; fill-opacity: 0.5; stroke: #ffffff; stroke-linejoin: miter"/>
   </g>
   <g id="patch_169">
    <path d="M 2372.348884 2080.894375 
L 2403.673678 2080.894375 
L 2403.673678 2046.039111 
L 2372.348884 2046.039111 
z
" clip-path="url(#p0b922cc5b5)" style="fill: #0000ff; fill-opacity: 0.5; stroke: #ffffff; stroke-linejoin: miter"/>
   </g>
   <g id="patch_170">
    <path d="M 2403.673678 2080.894375 
L 2434.998471 2080.894375 
L 2434.998471 2011.183848 
L 2403.673678 2011.183848 
z
" clip-path="url(#p0b922cc5b5)" style="fill: #0000ff; fill-opacity: 0.5; stroke: #ffffff; stroke-linejoin: miter"/>
   </g>
   <g id="patch_171">
    <path d="M 2434.998471 2080.894375 
L 2466.323264 2080.894375 
L 2466.323264 2037.325295 
L 2434.998471 2037.325295 
z
" clip-path="url(#p0b922cc5b5)" style="fill: #0000ff; fill-opacity: 0.5; stroke: #ffffff; stroke-linejoin: miter"/>
   </g>
   <g id="patch_172">
    <path d="M 2466.323264 2080.894375 
L 2497.648058 2080.894375 
L 2497.648058 2080.894375 
L 2466.323264 2080.894375 
z
" clip-path="url(#p0b922cc5b5)" style="fill: #0000ff; fill-opacity: 0.5; stroke: #ffffff; stroke-linejoin: miter"/>
   </g>
   <g id="patch_173">
    <path d="M 2497.648058 2080.894375 
L 2528.972851 2080.894375 
L 2528.972851 2054.752927 
L 2497.648058 2054.752927 
z
" clip-path="url(#p0b922cc5b5)" style="fill: #0000ff; fill-opacity: 0.5; stroke: #ffffff; stroke-linejoin: miter"/>
   </g>
   <g id="patch_174">
    <path d="M 2528.972851 2080.894375 
L 2560.297645 2080.894375 
L 2560.297645 2080.894375 
L 2528.972851 2080.894375 
z
" clip-path="url(#p0b922cc5b5)" style="fill: #0000ff; fill-opacity: 0.5; stroke: #ffffff; stroke-linejoin: miter"/>
   </g>
   <g id="patch_175">
    <path d="M 2560.297645 2080.894375 
L 2591.622438 2080.894375 
L 2591.622438 2080.894375 
L 2560.297645 2080.894375 
z
" clip-path="url(#p0b922cc5b5)" style="fill: #0000ff; fill-opacity: 0.5; stroke: #ffffff; stroke-linejoin: miter"/>
   </g>
   <g id="patch_176">
    <path d="M 2591.622438 2080.894375 
L 2622.947231 2080.894375 
L 2622.947231 2080.894375 
L 2591.622438 2080.894375 
z
" clip-path="url(#p0b922cc5b5)" style="fill: #0000ff; fill-opacity: 0.5; stroke: #ffffff; stroke-linejoin: miter"/>
   </g>
   <g id="patch_177">
    <path d="M 2622.947231 2080.894375 
L 2654.272025 2080.894375 
L 2654.272025 2080.894375 
L 2622.947231 2080.894375 
z
" clip-path="url(#p0b922cc5b5)" style="fill: #0000ff; fill-opacity: 0.5; stroke: #ffffff; stroke-linejoin: miter"/>
   </g>
   <g id="patch_178">
    <path d="M 2654.272025 2080.894375 
L 2685.596818 2080.894375 
L 2685.596818 2080.894375 
L 2654.272025 2080.894375 
z
" clip-path="url(#p0b922cc5b5)" style="fill: #0000ff; fill-opacity: 0.5; stroke: #ffffff; stroke-linejoin: miter"/>
   </g>
   <g id="patch_179">
    <path d="M 2685.596818 2080.894375 
L 2716.921612 2080.894375 
L 2716.921612 2080.894375 
L 2685.596818 2080.894375 
z
" clip-path="url(#p0b922cc5b5)" style="fill: #0000ff; fill-opacity: 0.5; stroke: #ffffff; stroke-linejoin: miter"/>
   </g>
   <g id="patch_180">
    <path d="M 2716.921612 2080.894375 
L 2748.246405 2080.894375 
L 2748.246405 2080.894375 
L 2716.921612 2080.894375 
z
" clip-path="url(#p0b922cc5b5)" style="fill: #0000ff; fill-opacity: 0.5; stroke: #ffffff; stroke-linejoin: miter"/>
   </g>
   <g id="patch_181">
    <path d="M 2748.246405 2080.894375 
L 2779.571198 2080.894375 
L 2779.571198 2080.894375 
L 2748.246405 2080.894375 
z
" clip-path="url(#p0b922cc5b5)" style="fill: #0000ff; fill-opacity: 0.5; stroke: #ffffff; stroke-linejoin: miter"/>
   </g>
   <g id="patch_182">
    <path d="M 2779.571198 2080.894375 
L 2810.895992 2080.894375 
L 2810.895992 2080.894375 
L 2779.571198 2080.894375 
z
" clip-path="url(#p0b922cc5b5)" style="fill: #0000ff; fill-opacity: 0.5; stroke: #ffffff; stroke-linejoin: miter"/>
   </g>
   <g id="patch_183">
    <path d="M 2810.895992 2080.894375 
L 2842.220785 2080.894375 
L 2842.220785 2080.894375 
L 2810.895992 2080.894375 
z
" clip-path="url(#p0b922cc5b5)" style="fill: #0000ff; fill-opacity: 0.5; stroke: #ffffff; stroke-linejoin: miter"/>
   </g>
   <g id="patch_184">
    <path d="M 2842.220785 2080.894375 
L 2873.545579 2080.894375 
L 2873.545579 2080.894375 
L 2842.220785 2080.894375 
z
" clip-path="url(#p0b922cc5b5)" style="fill: #0000ff; fill-opacity: 0.5; stroke: #ffffff; stroke-linejoin: miter"/>
   </g>
   <g id="patch_185">
    <path d="M 2873.545579 2080.894375 
L 2904.870372 2080.894375 
L 2904.870372 2080.894375 
L 2873.545579 2080.894375 
z
" clip-path="url(#p0b922cc5b5)" style="fill: #0000ff; fill-opacity: 0.5; stroke: #ffffff; stroke-linejoin: miter"/>
   </g>
   <g id="patch_186">
    <path d="M 2904.870372 2080.894375 
L 2936.195165 2080.894375 
L 2936.195165 2080.894375 
L 2904.870372 2080.894375 
z
" clip-path="url(#p0b922cc5b5)" style="fill: #0000ff; fill-opacity: 0.5; stroke: #ffffff; stroke-linejoin: miter"/>
   </g>
   <g id="patch_187">
    <path d="M 2936.195165 2080.894375 
L 2967.519959 2080.894375 
L 2967.519959 2080.894375 
L 2936.195165 2080.894375 
z
" clip-path="url(#p0b922cc5b5)" style="fill: #0000ff; fill-opacity: 0.5; stroke: #ffffff; stroke-linejoin: miter"/>
   </g>
   <g id="patch_188">
    <path d="M 2967.519959 2080.894375 
L 2998.844752 2080.894375 
L 2998.844752 2080.894375 
L 2967.519959 2080.894375 
z
" clip-path="url(#p0b922cc5b5)" style="fill: #0000ff; fill-opacity: 0.5; stroke: #ffffff; stroke-linejoin: miter"/>
   </g>
   <g id="patch_189">
    <path d="M 2998.844752 2080.894375 
L 3030.169545 2080.894375 
L 3030.169545 2080.894375 
L 2998.844752 2080.894375 
z
" clip-path="url(#p0b922cc5b5)" style="fill: #0000ff; fill-opacity: 0.5; stroke: #ffffff; stroke-linejoin: miter"/>
   </g>
   <g id="patch_190">
    <path d="M 3030.169545 2080.894375 
L 3061.494339 2080.894375 
L 3061.494339 2080.894375 
L 3030.169545 2080.894375 
z
" clip-path="url(#p0b922cc5b5)" style="fill: #0000ff; fill-opacity: 0.5; stroke: #ffffff; stroke-linejoin: miter"/>
   </g>
   <g id="patch_191">
    <path d="M 3061.494339 2080.894375 
L 3092.819132 2080.894375 
L 3092.819132 2080.894375 
L 3061.494339 2080.894375 
z
" clip-path="url(#p0b922cc5b5)" style="fill: #0000ff; fill-opacity: 0.5; stroke: #ffffff; stroke-linejoin: miter"/>
   </g>
   <g id="patch_192">
    <path d="M 3092.819132 2080.894375 
L 3124.143926 2080.894375 
L 3124.143926 2080.894375 
L 3092.819132 2080.894375 
z
" clip-path="url(#p0b922cc5b5)" style="fill: #0000ff; fill-opacity: 0.5; stroke: #ffffff; stroke-linejoin: miter"/>
   </g>
   <g id="patch_193">
    <path d="M 3124.143926 2080.894375 
L 3155.468719 2080.894375 
L 3155.468719 2080.894375 
L 3124.143926 2080.894375 
z
" clip-path="url(#p0b922cc5b5)" style="fill: #0000ff; fill-opacity: 0.5; stroke: #ffffff; stroke-linejoin: miter"/>
   </g>
   <g id="patch_194">
    <path d="M 3155.468719 2080.894375 
L 3186.793512 2080.894375 
L 3186.793512 2080.894375 
L 3155.468719 2080.894375 
z
" clip-path="url(#p0b922cc5b5)" style="fill: #0000ff; fill-opacity: 0.5; stroke: #ffffff; stroke-linejoin: miter"/>
   </g>
   <g id="patch_195">
    <path d="M 3186.793512 2080.894375 
L 3218.118306 2080.894375 
L 3218.118306 2080.894375 
L 3186.793512 2080.894375 
z
" clip-path="url(#p0b922cc5b5)" style="fill: #0000ff; fill-opacity: 0.5; stroke: #ffffff; stroke-linejoin: miter"/>
   </g>
   <g id="patch_196">
    <path d="M 3218.118306 2080.894375 
L 3249.443099 2080.894375 
L 3249.443099 2080.894375 
L 3218.118306 2080.894375 
z
" clip-path="url(#p0b922cc5b5)" style="fill: #0000ff; fill-opacity: 0.5; stroke: #ffffff; stroke-linejoin: miter"/>
   </g>
   <g id="patch_197">
    <path d="M 3249.443099 2080.894375 
L 3280.767893 2080.894375 
L 3280.767893 2080.894375 
L 3249.443099 2080.894375 
z
" clip-path="url(#p0b922cc5b5)" style="fill: #0000ff; fill-opacity: 0.5; stroke: #ffffff; stroke-linejoin: miter"/>
   </g>
   <g id="patch_198">
    <path d="M 3280.767893 2080.894375 
L 3312.092686 2080.894375 
L 3312.092686 2080.894375 
L 3280.767893 2080.894375 
z
" clip-path="url(#p0b922cc5b5)" style="fill: #0000ff; fill-opacity: 0.5; stroke: #ffffff; stroke-linejoin: miter"/>
   </g>
   <g id="patch_199">
    <path d="M 3312.092686 2080.894375 
L 3343.417479 2080.894375 
L 3343.417479 2080.894375 
L 3312.092686 2080.894375 
z
" clip-path="url(#p0b922cc5b5)" style="fill: #0000ff; fill-opacity: 0.5; stroke: #ffffff; stroke-linejoin: miter"/>
   </g>
   <g id="patch_200">
    <path d="M 3343.417479 2080.894375 
L 3374.742273 2080.894375 
L 3374.742273 2080.894375 
L 3343.417479 2080.894375 
z
" clip-path="url(#p0b922cc5b5)" style="fill: #0000ff; fill-opacity: 0.5; stroke: #ffffff; stroke-linejoin: miter"/>
   </g>
   <g id="line2d_12">
    <path d="M 808.577931 2076.467914 
L 834.382188 2075.40698 
L 860.186446 2074.113879 
L 885.990703 2072.542309 
L 903.193541 2071.31769 
L 920.396379 2069.938467 
L 937.599217 2068.397124 
L 954.802056 2066.691065 
L 972.004894 2064.824087 
L 997.809151 2061.749484 
L 1023.613409 2058.417228 
L 1092.424761 2049.340085 
L 1109.6276 2047.327853 
L 1126.830438 2045.540437 
L 1144.033276 2044.034979 
L 1161.236114 2042.861117 
L 1178.438953 2042.057947 
L 1195.641791 2041.651552 
L 1212.844629 2041.653296 
L 1230.047467 2042.059024 
L 1247.250305 2042.849236 
L 1264.453144 2043.990219 
L 1281.655982 2045.436021 
L 1298.85882 2047.1311 
L 1324.663077 2050.004452 
L 1402.075849 2059.013037 
L 1419.278688 2060.746452 
L 1436.481526 2062.299453 
L 1453.684364 2063.651963 
L 1470.887202 2064.793582 
L 1488.09004 2065.722912 
L 1505.292879 2066.446584 
L 1522.495717 2066.9781 
L 1539.698555 2067.336572 
L 1565.502812 2067.601922 
L 1591.30707 2067.62179 
L 1634.314165 2067.370318 
L 1685.92268 2067.099032 
L 1720.328356 2067.180298 
L 1746.132614 2067.4398 
L 1771.936871 2067.878883 
L 1806.342547 2068.722505 
L 1840.748224 2069.80284 
L 1892.356739 2071.684767 
L 1978.37093 2074.866335 
L 2021.378025 2076.247145 
L 2064.385121 2077.396758 
L 2098.790797 2078.119492 
L 2133.196474 2078.648369 
L 2167.60215 2078.973199 
L 2202.007826 2079.094035 
L 2245.014922 2078.981479 
L 2288.022018 2078.639219 
L 2417.043304 2077.401106 
L 2460.0504 2077.318636 
L 2503.057495 2077.502408 
L 2520.260333 2077.644566 
L 2520.260333 2077.644566 
" clip-path="url(#p0b922cc5b5)" style="fill: none; stroke: #ffa500; stroke-width: 1.5; stroke-linecap: round"/>
   </g>
   <g id="line2d_13">
    <path d="M 315.803935 1819.231085 
L 326.881605 1789.260253 
L 337.959275 1757.955435 
L 349.036946 1725.599482 
L 371.192286 1659.12541 
L 382.269957 1625.816832 
L 393.347627 1593.059089 
L 404.425297 1561.327669 
L 415.502968 1531.102065 
L 426.580638 1502.849417 
L 437.658309 1477.007403 
L 448.735979 1453.967321 
L 459.813649 1434.058407 
L 470.89132 1417.534449 
L 481.96899 1404.563612 
L 493.04666 1395.222249 
L 504.124331 1389.493171 
L 515.202001 1387.268564 
L 526.279671 1388.357363 
L 537.357342 1392.49659 
L 548.435012 1399.36585 
L 559.512682 1408.603955 
L 570.590353 1419.826532 
L 581.668023 1432.643433 
L 592.745693 1446.674845 
L 603.823364 1461.565182 
L 614.901034 1476.994073 
L 648.134045 1523.974748 
L 659.211715 1539.258413 
L 670.289386 1554.163666 
L 681.367056 1568.635895 
L 692.444726 1582.652042 
L 703.522397 1596.21436 
L 714.600067 1609.344529 
L 725.677737 1622.078472 
L 736.755408 1634.462068 
L 747.833078 1646.547799 
L 758.910749 1658.392221 
L 781.066089 1681.592794 
L 814.2991 1716.046658 
L 836.454441 1739.393978 
L 847.532111 1751.301031 
L 858.609782 1763.394552 
L 869.687452 1775.681977 
L 891.842793 1800.796409 
L 925.075804 1839.269631 
L 947.231144 1864.7171 
L 958.308815 1877.132259 
L 969.386485 1889.219842 
L 980.464155 1900.888505 
L 991.541826 1912.050692 
L 1002.619496 1922.625524 
L 1013.697166 1932.541346 
L 1024.774837 1941.737854 
L 1035.852507 1950.167735 
L 1046.930178 1957.797779 
L 1058.007848 1964.609457 
L 1069.085518 1970.59897 
L 1080.163189 1975.776792 
L 1091.240859 1980.166769 
L 1102.318529 1983.80483 
L 1113.3962 1986.737413 
L 1124.47387 1989.019678 
L 1135.55154 1990.713635 
L 1146.629211 1991.88629 
L 1157.706881 1992.607887 
L 1168.784551 1992.950353 
L 1179.862222 1992.985985 
L 1190.939892 1992.786408 
L 1213.095233 1991.960399 
L 1235.250573 1991.007885 
L 1246.328244 1990.640239 
L 1257.405914 1990.421999 
L 1268.483584 1990.406197 
L 1279.561255 1990.641242 
L 1290.638925 1991.169995 
L 1301.716595 1992.028677 
L 1312.794266 1993.245706 
L 1323.871936 1994.840542 
L 1334.949606 1996.822667 
L 1346.027277 1999.190811 
L 1357.104947 2001.932537 
L 1368.182618 2005.024257 
L 1379.260288 2008.43171 
L 1390.337958 2012.110931 
L 1401.415629 2016.009637 
L 1423.570969 2024.225418 
L 1445.72631 2032.565164 
L 1456.80398 2036.616815 
L 1467.881651 2040.505861 
L 1478.959321 2044.174582 
L 1490.036991 2047.57059 
L 1501.114662 2050.647467 
L 1512.192332 2053.365101 
L 1523.270002 2055.689806 
L 1534.347673 2057.594299 
L 1545.425343 2059.057639 
L 1556.503013 2060.06521 
L 1567.580684 2060.608822 
L 1578.658354 2060.686962 
L 1589.736024 2060.305213 
L 1600.813695 2059.476804 
L 1611.891365 2058.223233 
L 1622.969035 2056.574871 
L 1634.046706 2054.571432 
L 1645.124376 2052.262193 
L 1656.202047 2049.705835 
L 1678.357387 2044.129291 
L 1700.512728 2038.462369 
L 1711.590398 2035.80634 
L 1722.668069 2033.380716 
L 1733.745739 2031.263748 
L 1744.823409 2029.525176 
L 1755.90108 2028.223261 
L 1766.97875 2027.402248 
L 1778.05642 2027.090454 
L 1789.134091 2027.299108 
L 1800.211761 2028.022044 
L 1811.289431 2029.236277 
L 1822.367102 2030.903419 
L 1833.444772 2032.97184 
L 1844.522442 2035.379438 
L 1855.600113 2038.056802 
L 1866.677783 2040.930587 
L 1922.066135 2055.800129 
L 1933.143805 2058.471861 
L 1944.221476 2060.950534 
L 1955.299146 2063.216153 
L 1966.376816 2065.25758 
L 1977.454487 2067.071245 
L 1988.532157 2068.659591 
L 1999.609827 2070.02936 
L 2010.687498 2071.189861 
L 2021.765168 2072.151317 
L 2032.842838 2072.923384 
L 2043.920509 2073.513916 
L 2054.998179 2073.928014 
L 2066.075849 2074.167401 
L 2077.15352 2074.230137 
L 2088.23119 2074.110654 
L 2099.30886 2073.800121 
L 2110.386531 2073.287099 
L 2121.464201 2072.558456 
L 2132.541871 2071.600512 
L 2143.619542 2070.400345 
L 2154.697212 2068.94722 
L 2165.774882 2067.234066 
L 2176.852553 2065.258927 
L 2187.930223 2063.026308 
L 2199.007893 2060.548331 
L 2210.085564 2057.845623 
L 2221.163234 2054.947843 
L 2243.318575 2048.731085 
L 2276.551586 2039.177461 
L 2287.629256 2036.191994 
L 2298.706927 2033.421655 
L 2309.784597 2030.933613 
L 2320.862267 2028.789874 
L 2331.939938 2027.044758 
L 2343.017608 2025.742654 
L 2354.095278 2024.916191 
L 2365.172949 2024.584935 
L 2376.250619 2024.754687 
L 2387.328289 2025.417418 
L 2398.40596 2026.55184 
L 2409.48363 2028.124565 
L 2420.5613 2030.091766 
L 2431.638971 2032.401229 
L 2442.716641 2034.99467 
L 2453.794311 2037.810173 
L 2475.949652 2043.855896 
L 2509.182663 2053.086122 
L 2520.260333 2056.008715 
L 2520.260333 2056.008715 
" clip-path="url(#p0b922cc5b5)" style="fill: none; stroke: #0000ff; stroke-width: 1.5; stroke-linecap: round"/>
   </g>
   <g id="patch_201">
    <path d="M 118.53 2080.894375 
L 118.53 40.554375 
" style="fill: none; stroke: #ffffff; stroke-width: 1.25; stroke-linejoin: miter; stroke-linecap: square"/>
   </g>
   <g id="patch_202">
    <path d="M 3529.8 2080.894375 
L 3529.8 40.554375 
" style="fill: none; stroke: #ffffff; stroke-width: 1.25; stroke-linejoin: miter; stroke-linecap: square"/>
   </g>
   <g id="patch_203">
    <path d="M 118.53 2080.894375 
L 3529.8 2080.894375 
" style="fill: none; stroke: #ffffff; stroke-width: 1.25; stroke-linejoin: miter; stroke-linecap: square"/>
   </g>
   <g id="patch_204">
    <path d="M 118.53 40.554375 
L 3529.8 40.554375 
" style="fill: none; stroke: #ffffff; stroke-width: 1.25; stroke-linejoin: miter; stroke-linecap: square"/>
   </g>
   <g id="text_14">
    <!-- active_site_166fg_bi_type_bond3_rf_PF08241_ACS_remove_redundant_11_80_MACCS_no_same_sub_prediction probability distribution -->
    <g style="fill: #262626" transform="translate(614.7675 34.554375)scale(0.36 -0.36)">
     <defs>
      <path id="DejaVuSans-63" d="M 3122 3366 
L 3122 2828 
Q 2878 2963 2633 3030 
Q 2388 3097 2138 3097 
Q 1578 3097 1268 2742 
Q 959 2388 959 1747 
Q 959 1106 1268 751 
Q 1578 397 2138 397 
Q 2388 397 2633 464 
Q 2878 531 3122 666 
L 3122 134 
Q 2881 22 2623 -34 
Q 2366 -91 2075 -91 
Q 1284 -91 818 406 
Q 353 903 353 1747 
Q 353 2603 823 3093 
Q 1294 3584 2113 3584 
Q 2378 3584 2631 3529 
Q 2884 3475 3122 3366 
z
" transform="scale(0.015625)"/>
      <path id="DejaVuSans-76" d="M 191 3500 
L 800 3500 
L 1894 563 
L 2988 3500 
L 3597 3500 
L 2284 0 
L 1503 0 
L 191 3500 
z
" transform="scale(0.015625)"/>
      <path id="DejaVuSans-65" d="M 3597 1894 
L 3597 1613 
L 953 1613 
Q 991 1019 1311 708 
Q 1631 397 2203 397 
Q 2534 397 2845 478 
Q 3156 559 3463 722 
L 3463 178 
Q 3153 47 2828 -22 
Q 2503 -91 2169 -91 
Q 1331 -91 842 396 
Q 353 884 353 1716 
Q 353 2575 817 3079 
Q 1281 3584 2069 3584 
Q 2775 3584 3186 3129 
Q 3597 2675 3597 1894 
z
M 3022 2063 
Q 3016 2534 2758 2815 
Q 2500 3097 2075 3097 
Q 1594 3097 1305 2825 
Q 1016 2553 972 2059 
L 3022 2063 
z
" transform="scale(0.015625)"/>
      <path id="DejaVuSans-5f" d="M 3263 -1063 
L 3263 -1509 
L -63 -1509 
L -63 -1063 
L 3263 -1063 
z
" transform="scale(0.015625)"/>
      <path id="DejaVuSans-73" d="M 2834 3397 
L 2834 2853 
Q 2591 2978 2328 3040 
Q 2066 3103 1784 3103 
Q 1356 3103 1142 2972 
Q 928 2841 928 2578 
Q 928 2378 1081 2264 
Q 1234 2150 1697 2047 
L 1894 2003 
Q 2506 1872 2764 1633 
Q 3022 1394 3022 966 
Q 3022 478 2636 193 
Q 2250 -91 1575 -91 
Q 1294 -91 989 -36 
Q 684 19 347 128 
L 347 722 
Q 666 556 975 473 
Q 1284 391 1588 391 
Q 1994 391 2212 530 
Q 2431 669 2431 922 
Q 2431 1156 2273 1281 
Q 2116 1406 1581 1522 
L 1381 1569 
Q 847 1681 609 1914 
Q 372 2147 372 2553 
Q 372 3047 722 3315 
Q 1072 3584 1716 3584 
Q 2034 3584 2315 3537 
Q 2597 3491 2834 3397 
z
" transform="scale(0.015625)"/>
      <path id="DejaVuSans-66" d="M 2375 4863 
L 2375 4384 
L 1825 4384 
Q 1516 4384 1395 4259 
Q 1275 4134 1275 3809 
L 1275 3500 
L 2222 3500 
L 2222 3053 
L 1275 3053 
L 1275 0 
L 697 0 
L 697 3053 
L 147 3053 
L 147 3500 
L 697 3500 
L 697 3744 
Q 697 4328 969 4595 
Q 1241 4863 1831 4863 
L 2375 4863 
z
" transform="scale(0.015625)"/>
      <path id="DejaVuSans-67" d="M 2906 1791 
Q 2906 2416 2648 2759 
Q 2391 3103 1925 3103 
Q 1463 3103 1205 2759 
Q 947 2416 947 1791 
Q 947 1169 1205 825 
Q 1463 481 1925 481 
Q 2391 481 2648 825 
Q 2906 1169 2906 1791 
z
M 3481 434 
Q 3481 -459 3084 -895 
Q 2688 -1331 1869 -1331 
Q 1566 -1331 1297 -1286 
Q 1028 -1241 775 -1147 
L 775 -588 
Q 1028 -725 1275 -790 
Q 1522 -856 1778 -856 
Q 2344 -856 2625 -561 
Q 2906 -266 2906 331 
L 2906 616 
Q 2728 306 2450 153 
Q 2172 0 1784 0 
Q 1141 0 747 490 
Q 353 981 353 1791 
Q 353 2603 747 3093 
Q 1141 3584 1784 3584 
Q 2172 3584 2450 3431 
Q 2728 3278 2906 2969 
L 2906 3500 
L 3481 3500 
L 3481 434 
z
" transform="scale(0.015625)"/>
      <path id="DejaVuSans-64" d="M 2906 2969 
L 2906 4863 
L 3481 4863 
L 3481 0 
L 2906 0 
L 2906 525 
Q 2725 213 2448 61 
Q 2172 -91 1784 -91 
Q 1150 -91 751 415 
Q 353 922 353 1747 
Q 353 2572 751 3078 
Q 1150 3584 1784 3584 
Q 2172 3584 2448 3432 
Q 2725 3281 2906 2969 
z
M 947 1747 
Q 947 1113 1208 752 
Q 1469 391 1925 391 
Q 2381 391 2643 752 
Q 2906 1113 2906 1747 
Q 2906 2381 2643 2742 
Q 2381 3103 1925 3103 
Q 1469 3103 1208 2742 
Q 947 2381 947 1747 
z
" transform="scale(0.015625)"/>
      <path id="DejaVuSans-33" d="M 2597 2516 
Q 3050 2419 3304 2112 
Q 3559 1806 3559 1356 
Q 3559 666 3084 287 
Q 2609 -91 1734 -91 
Q 1441 -91 1130 -33 
Q 819 25 488 141 
L 488 750 
Q 750 597 1062 519 
Q 1375 441 1716 441 
Q 2309 441 2620 675 
Q 2931 909 2931 1356 
Q 2931 1769 2642 2001 
Q 2353 2234 1838 2234 
L 1294 2234 
L 1294 2753 
L 1863 2753 
Q 2328 2753 2575 2939 
Q 2822 3125 2822 3475 
Q 2822 3834 2567 4026 
Q 2313 4219 1838 4219 
Q 1578 4219 1281 4162 
Q 984 4106 628 3988 
L 628 4550 
Q 988 4650 1302 4700 
Q 1616 4750 1894 4750 
Q 2613 4750 3031 4423 
Q 3450 4097 3450 3541 
Q 3450 3153 3228 2886 
Q 3006 2619 2597 2516 
z
" transform="scale(0.015625)"/>
      <path id="DejaVuSans-50" d="M 1259 4147 
L 1259 2394 
L 2053 2394 
Q 2494 2394 2734 2622 
Q 2975 2850 2975 3272 
Q 2975 3691 2734 3919 
Q 2494 4147 2053 4147 
L 1259 4147 
z
M 628 4666 
L 2053 4666 
Q 2838 4666 3239 4311 
Q 3641 3956 3641 3272 
Q 3641 2581 3239 2228 
Q 2838 1875 2053 1875 
L 1259 1875 
L 1259 0 
L 628 0 
L 628 4666 
z
" transform="scale(0.015625)"/>
      <path id="DejaVuSans-46" d="M 628 4666 
L 3309 4666 
L 3309 4134 
L 1259 4134 
L 1259 2759 
L 3109 2759 
L 3109 2228 
L 1259 2228 
L 1259 0 
L 628 0 
L 628 4666 
z
" transform="scale(0.015625)"/>
      <path id="DejaVuSans-41" d="M 2188 4044 
L 1331 1722 
L 3047 1722 
L 2188 4044 
z
M 1831 4666 
L 2547 4666 
L 4325 0 
L 3669 0 
L 3244 1197 
L 1141 1197 
L 716 0 
L 50 0 
L 1831 4666 
z
" transform="scale(0.015625)"/>
      <path id="DejaVuSans-53" d="M 3425 4513 
L 3425 3897 
Q 3066 4069 2747 4153 
Q 2428 4238 2131 4238 
Q 1616 4238 1336 4038 
Q 1056 3838 1056 3469 
Q 1056 3159 1242 3001 
Q 1428 2844 1947 2747 
L 2328 2669 
Q 3034 2534 3370 2195 
Q 3706 1856 3706 1288 
Q 3706 609 3251 259 
Q 2797 -91 1919 -91 
Q 1588 -91 1214 -16 
Q 841 59 441 206 
L 441 856 
Q 825 641 1194 531 
Q 1563 422 1919 422 
Q 2459 422 2753 634 
Q 3047 847 3047 1241 
Q 3047 1584 2836 1778 
Q 2625 1972 2144 2069 
L 1759 2144 
Q 1053 2284 737 2584 
Q 422 2884 422 3419 
Q 422 4038 858 4394 
Q 1294 4750 2059 4750 
Q 2388 4750 2728 4690 
Q 3069 4631 3425 4513 
z
" transform="scale(0.015625)"/>
      <path id="DejaVuSans-6d" d="M 3328 2828 
Q 3544 3216 3844 3400 
Q 4144 3584 4550 3584 
Q 5097 3584 5394 3201 
Q 5691 2819 5691 2113 
L 5691 0 
L 5113 0 
L 5113 2094 
Q 5113 2597 4934 2840 
Q 4756 3084 4391 3084 
Q 3944 3084 3684 2787 
Q 3425 2491 3425 1978 
L 3425 0 
L 2847 0 
L 2847 2094 
Q 2847 2600 2669 2842 
Q 2491 3084 2119 3084 
Q 1678 3084 1418 2786 
Q 1159 2488 1159 1978 
L 1159 0 
L 581 0 
L 581 3500 
L 1159 3500 
L 1159 2956 
Q 1356 3278 1631 3431 
Q 1906 3584 2284 3584 
Q 2666 3584 2933 3390 
Q 3200 3197 3328 2828 
z
" transform="scale(0.015625)"/>
      <path id="DejaVuSans-4d" d="M 628 4666 
L 1569 4666 
L 2759 1491 
L 3956 4666 
L 4897 4666 
L 4897 0 
L 4281 0 
L 4281 4097 
L 3078 897 
L 2444 897 
L 1241 4097 
L 1241 0 
L 628 0 
L 628 4666 
z
" transform="scale(0.015625)"/>
      <path id="DejaVuSans-20" transform="scale(0.015625)"/>
     </defs>
     <use xlink:href="#DejaVuSans-61"/>
     <use xlink:href="#DejaVuSans-63" x="61.279297"/>
     <use xlink:href="#DejaVuSans-74" x="116.259766"/>
     <use xlink:href="#DejaVuSans-69" x="155.46875"/>
     <use xlink:href="#DejaVuSans-76" x="183.251953"/>
     <use xlink:href="#DejaVuSans-65" x="242.431641"/>
     <use xlink:href="#DejaVuSans-5f" x="303.955078"/>
     <use xlink:href="#DejaVuSans-73" x="353.955078"/>
     <use xlink:href="#DejaVuSans-69" x="406.054688"/>
     <use xlink:href="#DejaVuSans-74" x="433.837891"/>
     <use xlink:href="#DejaVuSans-65" x="473.046875"/>
     <use xlink:href="#DejaVuSans-5f" x="534.570312"/>
     <use xlink:href="#DejaVuSans-31" x="584.570312"/>
     <use xlink:href="#DejaVuSans-36" x="648.193359"/>
     <use xlink:href="#DejaVuSans-36" x="711.816406"/>
     <use xlink:href="#DejaVuSans-66" x="775.439453"/>
     <use xlink:href="#DejaVuSans-67" x="810.644531"/>
     <use xlink:href="#DejaVuSans-5f" x="874.121094"/>
     <use xlink:href="#DejaVuSans-62" x="924.121094"/>
     <use xlink:href="#DejaVuSans-69" x="987.597656"/>
     <use xlink:href="#DejaVuSans-5f" x="1015.380859"/>
     <use xlink:href="#DejaVuSans-74" x="1065.380859"/>
     <use xlink:href="#DejaVuSans-79" x="1104.589844"/>
     <use xlink:href="#DejaVuSans-70" x="1163.769531"/>
     <use xlink:href="#DejaVuSans-65" x="1227.246094"/>
     <use xlink:href="#DejaVuSans-5f" x="1288.769531"/>
     <use xlink:href="#DejaVuSans-62" x="1338.769531"/>
     <use xlink:href="#DejaVuSans-6f" x="1402.246094"/>
     <use xlink:href="#DejaVuSans-6e" x="1463.427734"/>
     <use xlink:href="#DejaVuSans-64" x="1526.806641"/>
     <use xlink:href="#DejaVuSans-33" x="1590.283203"/>
     <use xlink:href="#DejaVuSans-5f" x="1653.90625"/>
     <use xlink:href="#DejaVuSans-72" x="1703.90625"/>
     <use xlink:href="#DejaVuSans-66" x="1745.019531"/>
     <use xlink:href="#DejaVuSans-5f" x="1780.224609"/>
     <use xlink:href="#DejaVuSans-50" x="1830.224609"/>
     <use xlink:href="#DejaVuSans-46" x="1890.527344"/>
     <use xlink:href="#DejaVuSans-30" x="1948.046875"/>
     <use xlink:href="#DejaVuSans-38" x="2011.669922"/>
     <use xlink:href="#DejaVuSans-32" x="2075.292969"/>
     <use xlink:href="#DejaVuSans-34" x="2138.916016"/>
     <use xlink:href="#DejaVuSans-31" x="2202.539062"/>
     <use xlink:href="#DejaVuSans-5f" x="2266.162109"/>
     <use xlink:href="#DejaVuSans-41" x="2316.162109"/>
     <use xlink:href="#DejaVuSans-43" x="2382.820312"/>
     <use xlink:href="#DejaVuSans-53" x="2452.644531"/>
     <use xlink:href="#DejaVuSans-5f" x="2516.121094"/>
     <use xlink:href="#DejaVuSans-72" x="2566.121094"/>
     <use xlink:href="#DejaVuSans-65" x="2604.984375"/>
     <use xlink:href="#DejaVuSans-6d" x="2666.507812"/>
     <use xlink:href="#DejaVuSans-6f" x="2763.919922"/>
     <use xlink:href="#DejaVuSans-76" x="2825.101562"/>
     <use xlink:href="#DejaVuSans-65" x="2884.28125"/>
     <use xlink:href="#DejaVuSans-5f" x="2945.804688"/>
     <use xlink:href="#DejaVuSans-72" x="2995.804688"/>
     <use xlink:href="#DejaVuSans-65" x="3034.667969"/>
     <use xlink:href="#DejaVuSans-64" x="3096.191406"/>
     <use xlink:href="#DejaVuSans-75" x="3159.667969"/>
     <use xlink:href="#DejaVuSans-6e" x="3223.046875"/>
     <use xlink:href="#DejaVuSans-64" x="3286.425781"/>
     <use xlink:href="#DejaVuSans-61" x="3349.902344"/>
     <use xlink:href="#DejaVuSans-6e" x="3411.181641"/>
     <use xlink:href="#DejaVuSans-74" x="3474.560547"/>
     <use xlink:href="#DejaVuSans-5f" x="3513.769531"/>
     <use xlink:href="#DejaVuSans-31" x="3563.769531"/>
     <use xlink:href="#DejaVuSans-31" x="3627.392578"/>
     <use xlink:href="#DejaVuSans-5f" x="3691.015625"/>
     <use xlink:href="#DejaVuSans-38" x="3741.015625"/>
     <use xlink:href="#DejaVuSans-30" x="3804.638672"/>
     <use xlink:href="#DejaVuSans-5f" x="3868.261719"/>
     <use xlink:href="#DejaVuSans-4d" x="3918.261719"/>
     <use xlink:href="#DejaVuSans-41" x="4004.541016"/>
     <use xlink:href="#DejaVuSans-43" x="4071.199219"/>
     <use xlink:href="#DejaVuSans-43" x="4141.023438"/>
     <use xlink:href="#DejaVuSans-53" x="4210.847656"/>
     <use xlink:href="#DejaVuSans-5f" x="4274.324219"/>
     <use xlink:href="#DejaVuSans-6e" x="4324.324219"/>
     <use xlink:href="#DejaVuSans-6f" x="4387.703125"/>
     <use xlink:href="#DejaVuSans-5f" x="4448.884766"/>
     <use xlink:href="#DejaVuSans-73" x="4498.884766"/>
     <use xlink:href="#DejaVuSans-61" x="4550.984375"/>
     <use xlink:href="#DejaVuSans-6d" x="4612.263672"/>
     <use xlink:href="#DejaVuSans-65" x="4709.675781"/>
     <use xlink:href="#DejaVuSans-5f" x="4771.199219"/>
     <use xlink:href="#DejaVuSans-73" x="4821.199219"/>
     <use xlink:href="#DejaVuSans-75" x="4873.298828"/>
     <use xlink:href="#DejaVuSans-62" x="4936.677734"/>
     <use xlink:href="#DejaVuSans-5f" x="5000.154297"/>
     <use xlink:href="#DejaVuSans-70" x="5050.154297"/>
     <use xlink:href="#DejaVuSans-72" x="5113.630859"/>
     <use xlink:href="#DejaVuSans-65" x="5152.494141"/>
     <use xlink:href="#DejaVuSans-64" x="5214.017578"/>
     <use xlink:href="#DejaVuSans-69" x="5277.494141"/>
     <use xlink:href="#DejaVuSans-63" x="5305.277344"/>
     <use xlink:href="#DejaVuSans-74" x="5360.257812"/>
     <use xlink:href="#DejaVuSans-69" x="5399.466797"/>
     <use xlink:href="#DejaVuSans-6f" x="5427.25"/>
     <use xlink:href="#DejaVuSans-6e" x="5488.431641"/>
     <use xlink:href="#DejaVuSans-20" x="5551.810547"/>
     <use xlink:href="#DejaVuSans-70" x="5583.597656"/>
     <use xlink:href="#DejaVuSans-72" x="5647.074219"/>
     <use xlink:href="#DejaVuSans-6f" x="5685.9375"/>
     <use xlink:href="#DejaVuSans-62" x="5747.119141"/>
     <use xlink:href="#DejaVuSans-61" x="5810.595703"/>
     <use xlink:href="#DejaVuSans-62" x="5871.875"/>
     <use xlink:href="#DejaVuSans-69" x="5935.351562"/>
     <use xlink:href="#DejaVuSans-6c" x="5963.134766"/>
     <use xlink:href="#DejaVuSans-69" x="5990.917969"/>
     <use xlink:href="#DejaVuSans-74" x="6018.701172"/>
     <use xlink:href="#DejaVuSans-79" x="6057.910156"/>
     <use xlink:href="#DejaVuSans-20" x="6117.089844"/>
     <use xlink:href="#DejaVuSans-64" x="6148.876953"/>
     <use xlink:href="#DejaVuSans-69" x="6212.353516"/>
     <use xlink:href="#DejaVuSans-73" x="6240.136719"/>
     <use xlink:href="#DejaVuSans-74" x="6292.236328"/>
     <use xlink:href="#DejaVuSans-72" x="6331.445312"/>
     <use xlink:href="#DejaVuSans-69" x="6372.558594"/>
     <use xlink:href="#DejaVuSans-62" x="6400.341797"/>
     <use xlink:href="#DejaVuSans-75" x="6463.818359"/>
     <use xlink:href="#DejaVuSans-74" x="6527.197266"/>
     <use xlink:href="#DejaVuSans-69" x="6566.40625"/>
     <use xlink:href="#DejaVuSans-6f" x="6594.189453"/>
     <use xlink:href="#DejaVuSans-6e" x="6655.371094"/>
    </g>
   </g>
   <g id="legend_1">
    <g id="patch_205">
     <path d="M 3423.873125 109.280625 
L 3524.2 109.280625 
Q 3525.8 109.280625 3525.8 107.680625 
L 3525.8 46.154375 
Q 3525.8 44.554375 3524.2 44.554375 
L 3423.873125 44.554375 
Q 3422.273125 44.554375 3422.273125 46.154375 
L 3422.273125 107.680625 
Q 3422.273125 109.280625 3423.873125 109.280625 
z
" style="fill: #eaeaf2; opacity: 0.8; stroke: #cccccc; stroke-linejoin: miter"/>
    </g>
    <g id="text_15">
     <!-- Label -->
     <g style="fill: #262626" transform="translate(3425.473125 75.10875)scale(0.36 -0.36)">
      <defs>
       <path id="DejaVuSans-4c" d="M 628 4666 
L 1259 4666 
L 1259 531 
L 3531 531 
L 3531 0 
L 628 0 
L 628 4666 
z
" transform="scale(0.015625)"/>
      </defs>
      <use xlink:href="#DejaVuSans-4c"/>
      <use xlink:href="#DejaVuSans-61" x="55.712891"/>
      <use xlink:href="#DejaVuSans-62" x="116.992188"/>
      <use xlink:href="#DejaVuSans-65" x="180.46875"/>
      <use xlink:href="#DejaVuSans-6c" x="241.992188"/>
     </g>
    </g>
    <g id="patch_206">
     <path d="M 3450.617187 92.674375 
L 3466.617187 92.674375 
L 3466.617187 87.074375 
L 3450.617187 87.074375 
z
" style="fill: #ffa500; fill-opacity: 0.5; stroke: #ffffff; stroke-linejoin: miter"/>
    </g>
    <g id="text_16">
     <!-- label1 -->
     <g style="fill: #262626" transform="translate(3473.017187 92.674375)scale(0.08 -0.08)">
      <use xlink:href="#DejaVuSans-6c"/>
      <use xlink:href="#DejaVuSans-61" x="27.783203"/>
      <use xlink:href="#DejaVuSans-62" x="89.0625"/>
      <use xlink:href="#DejaVuSans-65" x="152.539062"/>
      <use xlink:href="#DejaVuSans-6c" x="214.0625"/>
      <use xlink:href="#DejaVuSans-31" x="241.845703"/>
     </g>
    </g>
    <g id="patch_207">
     <path d="M 3450.617187 104.416875 
L 3466.617187 104.416875 
L 3466.617187 98.816875 
L 3450.617187 98.816875 
z
" style="fill: #0000ff; fill-opacity: 0.5; stroke: #ffffff; stroke-linejoin: miter"/>
    </g>
    <g id="text_17">
     <!-- label0 -->
     <g style="fill: #262626" transform="translate(3473.017187 104.416875)scale(0.08 -0.08)">
      <use xlink:href="#DejaVuSans-6c"/>
      <use xlink:href="#DejaVuSans-61" x="27.783203"/>
      <use xlink:href="#DejaVuSans-62" x="89.0625"/>
      <use xlink:href="#DejaVuSans-65" x="152.539062"/>
      <use xlink:href="#DejaVuSans-6c" x="214.0625"/>
      <use xlink:href="#DejaVuSans-30" x="241.845703"/>
     </g>
    </g>
   </g>
  </g>
 </g>
 <defs>
  <clipPath id="p0b922cc5b5">
   <rect x="118.53" y="40.554375" width="3411.27" height="2040.34"/>
  </clipPath>
 </defs>
</svg>
