<?xml version="1.0" encoding="utf-8" standalone="no"?>
<!DOCTYPE svg PUBLIC "-//W3C//DTD SVG 1.1//EN"
  "http://www.w3.org/Graphics/SVG/1.1/DTD/svg11.dtd">
<svg xmlns:xlink="http://www.w3.org/1999/xlink" width="460.8pt" height="345.6pt" viewBox="0 0 460.8 345.6" xmlns="http://www.w3.org/2000/svg" version="1.1">
 <metadata>
  <rdf:RDF xmlns:dc="http://purl.org/dc/elements/1.1/" xmlns:cc="http://creativecommons.org/ns#" xmlns:rdf="http://www.w3.org/1999/02/22-rdf-syntax-ns#">
   <cc:Work>
    <dc:type rdf:resource="http://purl.org/dc/dcmitype/StillImage"/>
    <dc:date>2022-11-22T14:22:35.842584</dc:date>
    <dc:format>image/svg+xml</dc:format>
    <dc:creator>
     <cc:Agent>
      <dc:title>Matplotlib v3.5.2, https://matplotlib.org/</dc:title>
     </cc:Agent>
    </dc:creator>
   </cc:Work>
  </rdf:RDF>
 </metadata>
 <defs>
  <style type="text/css">*{stroke-linejoin: round; stroke-linecap: butt}</style>
 </defs>
 <g id="figure_1">
  <g id="patch_1">
   <path d="M 0 345.6 
L 460.8 345.6 
L 460.8 0 
L 0 0 
z
" style="fill: #ffffff"/>
  </g>
  <g id="axes_1">
   <g id="patch_2">
    <path d="M 57.6 307.584 
L 414.72 307.584 
L 414.72 41.472 
L 57.6 41.472 
z
" style="fill: #eaeaf2"/>
   </g>
   <g id="matplotlib.axis_1">
    <g id="xtick_1">
     <g id="line2d_1">
      <path d="M 73.832727 307.584 
L 73.832727 41.472 
" clip-path="url(#p4daab24706)" style="fill: none; stroke: #ffffff; stroke-linecap: round"/>
     </g>
     <g id="text_1">
      <!-- 0.0 -->
      <g style="fill: #262626" transform="translate(47.592571 342.158844)scale(0.33 -0.33)">
       <defs>
        <path id="DejaVuSans-30" d="M 2034 4250 
Q 1547 4250 1301 3770 
Q 1056 3291 1056 2328 
Q 1056 1369 1301 889 
Q 1547 409 2034 409 
Q 2525 409 2770 889 
Q 3016 1369 3016 2328 
Q 3016 3291 2770 3770 
Q 2525 4250 2034 4250 
z
M 2034 4750 
Q 2819 4750 3233 4129 
Q 3647 3509 3647 2328 
Q 3647 1150 3233 529 
Q 2819 -91 2034 -91 
Q 1250 -91 836 529 
Q 422 1150 422 2328 
Q 422 3509 836 4129 
Q 1250 4750 2034 4750 
z
" transform="scale(0.015625)"/>
        <path id="DejaVuSans-2e" d="M 684 794 
L 1344 794 
L 1344 0 
L 684 0 
L 684 794 
z
" transform="scale(0.015625)"/>
       </defs>
       <use xlink:href="#DejaVuSans-30"/>
       <use xlink:href="#DejaVuSans-2e" x="63.623047"/>
       <use xlink:href="#DejaVuSans-30" x="95.410156"/>
      </g>
     </g>
    </g>
    <g id="xtick_2">
     <g id="line2d_2">
      <path d="M 236.16 307.584 
L 236.16 41.472 
" clip-path="url(#p4daab24706)" style="fill: none; stroke: #ffffff; stroke-linecap: round"/>
     </g>
     <g id="text_2">
      <!-- 0.5 -->
      <g style="fill: #262626" transform="translate(209.919844 342.158844)scale(0.33 -0.33)">
       <defs>
        <path id="DejaVuSans-35" d="M 691 4666 
L 3169 4666 
L 3169 4134 
L 1269 4134 
L 1269 2991 
Q 1406 3038 1543 3061 
Q 1681 3084 1819 3084 
Q 2600 3084 3056 2656 
Q 3513 2228 3513 1497 
Q 3513 744 3044 326 
Q 2575 -91 1722 -91 
Q 1428 -91 1123 -41 
Q 819 9 494 109 
L 494 744 
Q 775 591 1075 516 
Q 1375 441 1709 441 
Q 2250 441 2565 725 
Q 2881 1009 2881 1497 
Q 2881 1984 2565 2268 
Q 2250 2553 1709 2553 
Q 1456 2553 1204 2497 
Q 953 2441 691 2322 
L 691 4666 
z
" transform="scale(0.015625)"/>
       </defs>
       <use xlink:href="#DejaVuSans-30"/>
       <use xlink:href="#DejaVuSans-2e" x="63.623047"/>
       <use xlink:href="#DejaVuSans-35" x="95.410156"/>
      </g>
     </g>
    </g>
    <g id="xtick_3">
     <g id="line2d_3">
      <path d="M 398.487273 307.584 
L 398.487273 41.472 
" clip-path="url(#p4daab24706)" style="fill: none; stroke: #ffffff; stroke-linecap: round"/>
     </g>
     <g id="text_3">
      <!-- 1.0 -->
      <g style="fill: #262626" transform="translate(372.247116 342.158844)scale(0.33 -0.33)">
       <defs>
        <path id="DejaVuSans-31" d="M 794 531 
L 1825 531 
L 1825 4091 
L 703 3866 
L 703 4441 
L 1819 4666 
L 2450 4666 
L 2450 531 
L 3481 531 
L 3481 0 
L 794 0 
L 794 531 
z
" transform="scale(0.015625)"/>
       </defs>
       <use xlink:href="#DejaVuSans-31"/>
       <use xlink:href="#DejaVuSans-2e" x="63.623047"/>
       <use xlink:href="#DejaVuSans-30" x="95.410156"/>
      </g>
     </g>
    </g>
    <g id="text_4">
     <!-- Recall (Positive label: 1.0) -->
     <g style="fill: #262626" transform="translate(3.647813 380.376187)scale(0.36 -0.36)">
      <defs>
       <path id="DejaVuSans-52" d="M 2841 2188 
Q 3044 2119 3236 1894 
Q 3428 1669 3622 1275 
L 4263 0 
L 3584 0 
L 2988 1197 
Q 2756 1666 2539 1819 
Q 2322 1972 1947 1972 
L 1259 1972 
L 1259 0 
L 628 0 
L 628 4666 
L 2053 4666 
Q 2853 4666 3247 4331 
Q 3641 3997 3641 3322 
Q 3641 2881 3436 2590 
Q 3231 2300 2841 2188 
z
M 1259 4147 
L 1259 2491 
L 2053 2491 
Q 2509 2491 2742 2702 
Q 2975 2913 2975 3322 
Q 2975 3731 2742 3939 
Q 2509 4147 2053 4147 
L 1259 4147 
z
" transform="scale(0.015625)"/>
       <path id="DejaVuSans-65" d="M 3597 1894 
L 3597 1613 
L 953 1613 
Q 991 1019 1311 708 
Q 1631 397 2203 397 
Q 2534 397 2845 478 
Q 3156 559 3463 722 
L 3463 178 
Q 3153 47 2828 -22 
Q 2503 -91 2169 -91 
Q 1331 -91 842 396 
Q 353 884 353 1716 
Q 353 2575 817 3079 
Q 1281 3584 2069 3584 
Q 2775 3584 3186 3129 
Q 3597 2675 3597 1894 
z
M 3022 2063 
Q 3016 2534 2758 2815 
Q 2500 3097 2075 3097 
Q 1594 3097 1305 2825 
Q 1016 2553 972 2059 
L 3022 2063 
z
" transform="scale(0.015625)"/>
       <path id="DejaVuSans-63" d="M 3122 3366 
L 3122 2828 
Q 2878 2963 2633 3030 
Q 2388 3097 2138 3097 
Q 1578 3097 1268 2742 
Q 959 2388 959 1747 
Q 959 1106 1268 751 
Q 1578 397 2138 397 
Q 2388 397 2633 464 
Q 2878 531 3122 666 
L 3122 134 
Q 2881 22 2623 -34 
Q 2366 -91 2075 -91 
Q 1284 -91 818 406 
Q 353 903 353 1747 
Q 353 2603 823 3093 
Q 1294 3584 2113 3584 
Q 2378 3584 2631 3529 
Q 2884 3475 3122 3366 
z
" transform="scale(0.015625)"/>
       <path id="DejaVuSans-61" d="M 2194 1759 
Q 1497 1759 1228 1600 
Q 959 1441 959 1056 
Q 959 750 1161 570 
Q 1363 391 1709 391 
Q 2188 391 2477 730 
Q 2766 1069 2766 1631 
L 2766 1759 
L 2194 1759 
z
M 3341 1997 
L 3341 0 
L 2766 0 
L 2766 531 
Q 2569 213 2275 61 
Q 1981 -91 1556 -91 
Q 1019 -91 701 211 
Q 384 513 384 1019 
Q 384 1609 779 1909 
Q 1175 2209 1959 2209 
L 2766 2209 
L 2766 2266 
Q 2766 2663 2505 2880 
Q 2244 3097 1772 3097 
Q 1472 3097 1187 3025 
Q 903 2953 641 2809 
L 641 3341 
Q 956 3463 1253 3523 
Q 1550 3584 1831 3584 
Q 2591 3584 2966 3190 
Q 3341 2797 3341 1997 
z
" transform="scale(0.015625)"/>
       <path id="DejaVuSans-6c" d="M 603 4863 
L 1178 4863 
L 1178 0 
L 603 0 
L 603 4863 
z
" transform="scale(0.015625)"/>
       <path id="DejaVuSans-20" transform="scale(0.015625)"/>
       <path id="DejaVuSans-28" d="M 1984 4856 
Q 1566 4138 1362 3434 
Q 1159 2731 1159 2009 
Q 1159 1288 1364 580 
Q 1569 -128 1984 -844 
L 1484 -844 
Q 1016 -109 783 600 
Q 550 1309 550 2009 
Q 550 2706 781 3412 
Q 1013 4119 1484 4856 
L 1984 4856 
z
" transform="scale(0.015625)"/>
       <path id="DejaVuSans-50" d="M 1259 4147 
L 1259 2394 
L 2053 2394 
Q 2494 2394 2734 2622 
Q 2975 2850 2975 3272 
Q 2975 3691 2734 3919 
Q 2494 4147 2053 4147 
L 1259 4147 
z
M 628 4666 
L 2053 4666 
Q 2838 4666 3239 4311 
Q 3641 3956 3641 3272 
Q 3641 2581 3239 2228 
Q 2838 1875 2053 1875 
L 1259 1875 
L 1259 0 
L 628 0 
L 628 4666 
z
" transform="scale(0.015625)"/>
       <path id="DejaVuSans-6f" d="M 1959 3097 
Q 1497 3097 1228 2736 
Q 959 2375 959 1747 
Q 959 1119 1226 758 
Q 1494 397 1959 397 
Q 2419 397 2687 759 
Q 2956 1122 2956 1747 
Q 2956 2369 2687 2733 
Q 2419 3097 1959 3097 
z
M 1959 3584 
Q 2709 3584 3137 3096 
Q 3566 2609 3566 1747 
Q 3566 888 3137 398 
Q 2709 -91 1959 -91 
Q 1206 -91 779 398 
Q 353 888 353 1747 
Q 353 2609 779 3096 
Q 1206 3584 1959 3584 
z
" transform="scale(0.015625)"/>
       <path id="DejaVuSans-73" d="M 2834 3397 
L 2834 2853 
Q 2591 2978 2328 3040 
Q 2066 3103 1784 3103 
Q 1356 3103 1142 2972 
Q 928 2841 928 2578 
Q 928 2378 1081 2264 
Q 1234 2150 1697 2047 
L 1894 2003 
Q 2506 1872 2764 1633 
Q 3022 1394 3022 966 
Q 3022 478 2636 193 
Q 2250 -91 1575 -91 
Q 1294 -91 989 -36 
Q 684 19 347 128 
L 347 722 
Q 666 556 975 473 
Q 1284 391 1588 391 
Q 1994 391 2212 530 
Q 2431 669 2431 922 
Q 2431 1156 2273 1281 
Q 2116 1406 1581 1522 
L 1381 1569 
Q 847 1681 609 1914 
Q 372 2147 372 2553 
Q 372 3047 722 3315 
Q 1072 3584 1716 3584 
Q 2034 3584 2315 3537 
Q 2597 3491 2834 3397 
z
" transform="scale(0.015625)"/>
       <path id="DejaVuSans-69" d="M 603 3500 
L 1178 3500 
L 1178 0 
L 603 0 
L 603 3500 
z
M 603 4863 
L 1178 4863 
L 1178 4134 
L 603 4134 
L 603 4863 
z
" transform="scale(0.015625)"/>
       <path id="DejaVuSans-74" d="M 1172 4494 
L 1172 3500 
L 2356 3500 
L 2356 3053 
L 1172 3053 
L 1172 1153 
Q 1172 725 1289 603 
Q 1406 481 1766 481 
L 2356 481 
L 2356 0 
L 1766 0 
Q 1100 0 847 248 
Q 594 497 594 1153 
L 594 3053 
L 172 3053 
L 172 3500 
L 594 3500 
L 594 4494 
L 1172 4494 
z
" transform="scale(0.015625)"/>
       <path id="DejaVuSans-76" d="M 191 3500 
L 800 3500 
L 1894 563 
L 2988 3500 
L 3597 3500 
L 2284 0 
L 1503 0 
L 191 3500 
z
" transform="scale(0.015625)"/>
       <path id="DejaVuSans-62" d="M 3116 1747 
Q 3116 2381 2855 2742 
Q 2594 3103 2138 3103 
Q 1681 3103 1420 2742 
Q 1159 2381 1159 1747 
Q 1159 1113 1420 752 
Q 1681 391 2138 391 
Q 2594 391 2855 752 
Q 3116 1113 3116 1747 
z
M 1159 2969 
Q 1341 3281 1617 3432 
Q 1894 3584 2278 3584 
Q 2916 3584 3314 3078 
Q 3713 2572 3713 1747 
Q 3713 922 3314 415 
Q 2916 -91 2278 -91 
Q 1894 -91 1617 61 
Q 1341 213 1159 525 
L 1159 0 
L 581 0 
L 581 4863 
L 1159 4863 
L 1159 2969 
z
" transform="scale(0.015625)"/>
       <path id="DejaVuSans-3a" d="M 750 794 
L 1409 794 
L 1409 0 
L 750 0 
L 750 794 
z
M 750 3309 
L 1409 3309 
L 1409 2516 
L 750 2516 
L 750 3309 
z
" transform="scale(0.015625)"/>
       <path id="DejaVuSans-29" d="M 513 4856 
L 1013 4856 
Q 1481 4119 1714 3412 
Q 1947 2706 1947 2009 
Q 1947 1309 1714 600 
Q 1481 -109 1013 -844 
L 513 -844 
Q 928 -128 1133 580 
Q 1338 1288 1338 2009 
Q 1338 2731 1133 3434 
Q 928 4138 513 4856 
z
" transform="scale(0.015625)"/>
      </defs>
      <use xlink:href="#DejaVuSans-52"/>
      <use xlink:href="#DejaVuSans-65" x="64.982422"/>
      <use xlink:href="#DejaVuSans-63" x="126.505859"/>
      <use xlink:href="#DejaVuSans-61" x="181.486328"/>
      <use xlink:href="#DejaVuSans-6c" x="242.765625"/>
      <use xlink:href="#DejaVuSans-6c" x="270.548828"/>
      <use xlink:href="#DejaVuSans-20" x="298.332031"/>
      <use xlink:href="#DejaVuSans-28" x="330.119141"/>
      <use xlink:href="#DejaVuSans-50" x="369.132812"/>
      <use xlink:href="#DejaVuSans-6f" x="425.810547"/>
      <use xlink:href="#DejaVuSans-73" x="486.992188"/>
      <use xlink:href="#DejaVuSans-69" x="539.091797"/>
      <use xlink:href="#DejaVuSans-74" x="566.875"/>
      <use xlink:href="#DejaVuSans-69" x="606.083984"/>
      <use xlink:href="#DejaVuSans-76" x="633.867188"/>
      <use xlink:href="#DejaVuSans-65" x="693.046875"/>
      <use xlink:href="#DejaVuSans-20" x="754.570312"/>
      <use xlink:href="#DejaVuSans-6c" x="786.357422"/>
      <use xlink:href="#DejaVuSans-61" x="814.140625"/>
      <use xlink:href="#DejaVuSans-62" x="875.419922"/>
      <use xlink:href="#DejaVuSans-65" x="938.896484"/>
      <use xlink:href="#DejaVuSans-6c" x="1000.419922"/>
      <use xlink:href="#DejaVuSans-3a" x="1028.203125"/>
      <use xlink:href="#DejaVuSans-20" x="1061.894531"/>
      <use xlink:href="#DejaVuSans-31" x="1093.681641"/>
      <use xlink:href="#DejaVuSans-2e" x="1157.304688"/>
      <use xlink:href="#DejaVuSans-30" x="1189.091797"/>
      <use xlink:href="#DejaVuSans-29" x="1252.714844"/>
     </g>
    </g>
   </g>
   <g id="matplotlib.axis_2">
    <g id="ytick_1">
     <g id="line2d_4">
      <path d="M 57.6 184.316121 
L 414.72 184.316121 
" clip-path="url(#p4daab24706)" style="fill: none; stroke: #ffffff; stroke-linecap: round"/>
     </g>
     <g id="text_5">
      <!-- 0.5 -->
      <g style="fill: #262626" transform="translate(-4.380313 196.853543)scale(0.33 -0.33)">
       <use xlink:href="#DejaVuSans-30"/>
       <use xlink:href="#DejaVuSans-2e" x="63.623047"/>
       <use xlink:href="#DejaVuSans-35" x="95.410156"/>
      </g>
     </g>
    </g>
    <g id="ytick_2">
     <g id="line2d_5">
      <path d="M 57.6 53.568 
L 414.72 53.568 
" clip-path="url(#p4daab24706)" style="fill: none; stroke: #ffffff; stroke-linecap: round"/>
     </g>
     <g id="text_6">
      <!-- 1.0 -->
      <g style="fill: #262626" transform="translate(-4.380313 66.105422)scale(0.33 -0.33)">
       <use xlink:href="#DejaVuSans-31"/>
       <use xlink:href="#DejaVuSans-2e" x="63.623047"/>
       <use xlink:href="#DejaVuSans-30" x="95.410156"/>
      </g>
     </g>
    </g>
    <g id="text_7">
     <!-- Precision (Positive label: 1.0) -->
     <g style="fill: #262626" transform="translate(-15.867188 433.643625)rotate(-90)scale(0.36 -0.36)">
      <defs>
       <path id="DejaVuSans-72" d="M 2631 2963 
Q 2534 3019 2420 3045 
Q 2306 3072 2169 3072 
Q 1681 3072 1420 2755 
Q 1159 2438 1159 1844 
L 1159 0 
L 581 0 
L 581 3500 
L 1159 3500 
L 1159 2956 
Q 1341 3275 1631 3429 
Q 1922 3584 2338 3584 
Q 2397 3584 2469 3576 
Q 2541 3569 2628 3553 
L 2631 2963 
z
" transform="scale(0.015625)"/>
       <path id="DejaVuSans-6e" d="M 3513 2113 
L 3513 0 
L 2938 0 
L 2938 2094 
Q 2938 2591 2744 2837 
Q 2550 3084 2163 3084 
Q 1697 3084 1428 2787 
Q 1159 2491 1159 1978 
L 1159 0 
L 581 0 
L 581 3500 
L 1159 3500 
L 1159 2956 
Q 1366 3272 1645 3428 
Q 1925 3584 2291 3584 
Q 2894 3584 3203 3211 
Q 3513 2838 3513 2113 
z
" transform="scale(0.015625)"/>
      </defs>
      <use xlink:href="#DejaVuSans-50"/>
      <use xlink:href="#DejaVuSans-72" x="58.552734"/>
      <use xlink:href="#DejaVuSans-65" x="97.416016"/>
      <use xlink:href="#DejaVuSans-63" x="158.939453"/>
      <use xlink:href="#DejaVuSans-69" x="213.919922"/>
      <use xlink:href="#DejaVuSans-73" x="241.703125"/>
      <use xlink:href="#DejaVuSans-69" x="293.802734"/>
      <use xlink:href="#DejaVuSans-6f" x="321.585938"/>
      <use xlink:href="#DejaVuSans-6e" x="382.767578"/>
      <use xlink:href="#DejaVuSans-20" x="446.146484"/>
      <use xlink:href="#DejaVuSans-28" x="477.933594"/>
      <use xlink:href="#DejaVuSans-50" x="516.947266"/>
      <use xlink:href="#DejaVuSans-6f" x="573.625"/>
      <use xlink:href="#DejaVuSans-73" x="634.806641"/>
      <use xlink:href="#DejaVuSans-69" x="686.90625"/>
      <use xlink:href="#DejaVuSans-74" x="714.689453"/>
      <use xlink:href="#DejaVuSans-69" x="753.898438"/>
      <use xlink:href="#DejaVuSans-76" x="781.681641"/>
      <use xlink:href="#DejaVuSans-65" x="840.861328"/>
      <use xlink:href="#DejaVuSans-20" x="902.384766"/>
      <use xlink:href="#DejaVuSans-6c" x="934.171875"/>
      <use xlink:href="#DejaVuSans-61" x="961.955078"/>
      <use xlink:href="#DejaVuSans-62" x="1023.234375"/>
      <use xlink:href="#DejaVuSans-65" x="1086.710938"/>
      <use xlink:href="#DejaVuSans-6c" x="1148.234375"/>
      <use xlink:href="#DejaVuSans-3a" x="1176.017578"/>
      <use xlink:href="#DejaVuSans-20" x="1209.708984"/>
      <use xlink:href="#DejaVuSans-31" x="1241.496094"/>
      <use xlink:href="#DejaVuSans-2e" x="1305.119141"/>
      <use xlink:href="#DejaVuSans-30" x="1336.90625"/>
      <use xlink:href="#DejaVuSans-29" x="1400.529297"/>
     </g>
    </g>
   </g>
   <g id="line2d_6">
    <path d="M 398.487273 295.488 
L 398.487273 116.183661 
L 398.337178 116.183661 
L 398.337178 116.065694 
L 398.187084 116.065694 
L 398.187084 115.947477 
L 398.036989 115.947477 
L 398.036989 115.758708 
L 397.586705 115.661807 
L 397.586705 115.542702 
L 397.436611 115.542702 
L 397.436611 115.423343 
L 396.986327 115.325623 
L 396.986327 115.276659 
L 396.686138 115.298565 
L 396.686138 115.107464 
L 396.385949 115.058223 
L 396.385949 114.937667 
L 395.185192 114.876626 
L 395.185192 114.755314 
L 395.035098 114.755314 
L 395.035098 114.633741 
L 394.885003 114.633741 
L 394.885003 114.511907 
L 394.434719 114.41165 
L 394.434719 114.28927 
L 394.284625 114.28927 
L 394.284625 114.166625 
L 394.13453 114.166625 
L 394.13453 114.043716 
L 393.984436 114.043716 
L 393.984436 113.920541 
L 393.534152 113.81885 
L 393.534152 113.767894 
L 392.48349 113.679899 
L 392.48349 113.628639 
L 392.033206 113.525896 
L 392.033206 113.474412 
L 391.432828 113.393006 
L 391.432828 113.341293 
L 390.83245 113.259436 
L 390.83245 113.207494 
L 390.232072 113.125182 
L 390.232072 113.073008 
L 389.631693 112.990237 
L 389.631693 112.93783 
L 389.18141 112.832785 
L 389.18141 112.780146 
L 388.731126 112.674636 
L 388.731126 112.621764 
L 388.280842 112.515786 
L 388.280842 112.462679 
L 387.830559 112.356229 
L 387.830559 112.302886 
L 387.380275 112.195962 
L 387.380275 112.142381 
L 386.929991 112.03498 
L 386.929991 111.981159 
L 386.329613 111.873277 
L 386.329613 111.61313 
L 385.879329 111.504293 
L 385.879329 111.449753 
L 385.429046 111.340426 
L 385.429046 111.285639 
L 384.978762 111.175819 
L 384.978762 111.120785 
L 384.528478 111.010468 
L 384.528478 110.955184 
L 384.078194 110.844367 
L 384.078194 110.788833 
L 383.778005 110.733215 
L 383.778005 110.677512 
L 383.477816 110.621726 
L 383.477816 110.565854 
L 383.027532 110.509898 
L 383.027532 110.242091 
L 382.727343 110.185718 
L 382.727343 110.129259 
L 382.126965 110.03762 
L 382.126965 109.980897 
L 381.826776 109.924087 
L 381.826776 109.867191 
L 381.526587 109.810208 
L 381.526587 109.753137 
L 381.226398 109.695978 
L 381.226398 109.638732 
L 380.926209 109.581399 
L 380.926209 109.523977 
L 380.32583 109.430361 
L 380.32583 109.372668 
L 380.025641 109.314886 
L 380.025641 109.257015 
L 379.725452 109.199054 
L 379.725452 109.141004 
L 379.425263 109.082864 
L 379.425263 109.024633 
L 379.125074 108.966313 
L 379.125074 108.907902 
L 378.824885 108.849401 
L 378.824885 108.790809 
L 378.224506 108.694785 
L 378.224506 108.635912 
L 377.924317 108.576949 
L 377.924317 108.517893 
L 377.624128 108.458745 
L 377.624128 108.399504 
L 377.323939 108.340171 
L 377.323939 108.280745 
L 377.02375 108.221226 
L 377.02375 108.161614 
L 376.723561 108.101909 
L 376.723561 108.042109 
L 376.423372 107.982216 
L 376.423372 107.922229 
L 376.123182 107.862147 
L 376.123182 107.801971 
L 375.822993 107.7417 
L 375.822993 107.681334 
L 375.522804 107.620872 
L 375.522804 107.560315 
L 375.222615 107.499663 
L 375.222615 107.438914 
L 374.772331 107.37807 
L 374.772331 107.256091 
L 374.472142 107.194956 
L 374.472142 107.133725 
L 374.171953 107.072396 
L 374.171953 107.01097 
L 373.42148 106.909066 
L 373.42148 106.785511 
L 373.121291 106.723586 
L 373.121291 106.661562 
L 372.821102 106.599438 
L 372.821102 106.537215 
L 372.520913 106.474892 
L 372.520913 106.412469 
L 372.220724 106.349946 
L 372.220724 106.287323 
L 371.920535 106.224599 
L 371.920535 106.161774 
L 371.620345 106.098847 
L 371.620345 106.03582 
L 371.320156 106.03582 
L 371.320156 105.909459 
L 371.019967 105.846126 
L 371.019967 105.78269 
L 370.719778 105.719152 
L 370.719778 105.655511 
L 370.419589 105.591766 
L 370.419589 105.527918 
L 369.819211 105.420973 
L 369.819211 105.356804 
L 369.519022 105.292531 
L 369.519022 105.228154 
L 369.218832 105.163671 
L 369.218832 105.099083 
L 368.918643 105.03439 
L 368.918643 104.969591 
L 368.618454 104.904686 
L 368.618454 104.839674 
L 368.318265 104.774556 
L 368.318265 104.709332 
L 368.018076 104.644 
L 368.018076 104.578561 
L 367.717887 104.513014 
L 367.717887 104.447359 
L 367.417698 104.381597 
L 367.417698 104.315726 
L 366.967414 104.270654 
L 366.967414 104.204556 
L 366.667225 104.138348 
L 366.667225 104.07203 
L 366.216941 104.005603 
L 366.216941 103.872418 
L 365.916752 103.80566 
L 365.916752 103.738791 
L 365.616563 103.67181 
L 365.616563 103.604719 
L 365.316374 103.537515 
L 365.316374 103.4702 
L 365.016185 103.402772 
L 365.016185 103.335231 
L 364.715995 103.267578 
L 364.715995 103.199812 
L 364.415806 103.131932 
L 364.415806 103.063939 
L 363.965523 103.063939 
L 363.965523 102.859273 
L 363.665334 102.790822 
L 363.665334 102.722256 
L 363.365144 102.653574 
L 363.365144 102.584777 
L 363.064955 102.515863 
L 363.064955 102.446833 
L 362.764766 102.377687 
L 362.764766 102.308424 
L 362.314482 102.259641 
L 362.314482 102.190131 
L 362.014293 102.120503 
L 362.014293 102.050757 
L 361.714104 101.980892 
L 361.714104 101.910909 
L 361.413915 101.840807 
L 361.413915 101.770585 
L 360.963631 101.720761 
L 360.963631 101.650287 
L 360.663442 101.579693 
L 360.663442 101.508978 
L 360.363253 101.438142 
L 360.363253 101.367185 
L 359.762875 101.296106 
L 359.762875 101.082137 
L 359.462686 101.010568 
L 359.462686 100.938877 
L 359.162497 100.867062 
L 359.162497 100.795123 
L 358.862307 100.72306 
L 358.862307 100.650873 
L 358.562118 100.57856 
L 358.562118 100.506123 
L 358.261929 100.43356 
L 358.261929 100.360872 
L 357.96174 100.360872 
L 357.96174 100.215116 
L 357.661551 100.142048 
L 357.661551 100.068854 
L 357.361362 99.995531 
L 357.361362 99.922081 
L 357.061173 99.848503 
L 357.061173 99.774797 
L 356.760983 99.700962 
L 356.760983 99.626997 
L 356.460794 99.552904 
L 356.460794 99.47868 
L 356.010511 99.404326 
L 356.010511 99.255228 
L 355.710322 99.180482 
L 355.710322 99.105604 
L 355.410132 99.030595 
L 355.410132 98.955454 
L 355.109943 98.88018 
L 355.109943 98.804773 
L 354.809754 98.729233 
L 354.809754 98.653559 
L 354.35947 98.577751 
L 354.35947 98.425733 
L 354.059281 98.349522 
L 354.059281 98.273175 
L 353.759092 98.196692 
L 353.759092 98.120073 
L 353.458903 98.043318 
L 353.458903 97.966426 
L 353.158714 97.889397 
L 353.158714 97.81223 
L 352.858525 97.734926 
L 352.858525 97.657483 
L 352.558336 97.657483 
L 352.558336 97.502181 
L 352.258147 97.42432 
L 352.258147 97.346321 
L 351.957957 97.268181 
L 351.957957 97.1899 
L 351.657768 97.111479 
L 351.657768 97.032916 
L 351.357579 96.954212 
L 351.357579 96.875365 
L 351.05739 96.796376 
L 351.05739 96.717244 
L 350.757201 96.637969 
L 350.757201 96.558551 
L 350.156823 96.517927 
L 350.156823 96.438183 
L 349.856633 96.358294 
L 349.856633 96.27826 
L 349.556444 96.19808 
L 349.556444 96.117753 
L 349.256255 96.03728 
L 349.256255 95.95666 
L 348.956066 95.875893 
L 348.956066 95.794978 
L 348.355688 95.752545 
L 348.355688 95.671294 
L 347.905404 95.690616 
L 347.905404 95.527627 
L 347.605215 95.445907 
L 347.605215 95.364037 
L 347.305026 95.282016 
L 347.305026 95.199843 
L 347.004837 95.117518 
L 347.004837 95.035042 
L 346.704648 94.952412 
L 346.704648 94.86963 
L 346.404458 94.786694 
L 346.404458 94.703604 
L 346.104269 94.620359 
L 346.104269 94.53696 
L 345.80408 94.453406 
L 345.80408 94.369696 
L 345.503891 94.28583 
L 345.503891 94.201807 
L 345.203702 94.117628 
L 345.203702 94.03329 
L 344.903513 93.948796 
L 344.903513 93.864142 
L 344.603324 93.77933 
L 344.603324 93.694359 
L 344.303135 93.609228 
L 344.303135 93.523937 
L 344.002945 93.438486 
L 344.002945 93.352873 
L 343.702756 93.2671 
L 343.702756 93.181164 
L 343.252473 93.095065 
L 343.252473 92.92238 
L 342.952283 92.835792 
L 342.952283 92.74904 
L 342.652094 92.662123 
L 342.652094 92.57504 
L 342.351905 92.487793 
L 342.351905 92.400379 
L 342.051716 92.400379 
L 342.051716 92.225051 
L 341.601432 92.155554 
L 341.601432 92.067447 
L 341.301243 91.979171 
L 341.301243 91.890725 
L 340.85096 91.80211 
L 340.85096 91.62437 
L 340.55077 91.535243 
L 340.55077 91.445945 
L 340.250581 91.356474 
L 340.250581 91.266831 
L 339.950392 91.177016 
L 339.950392 91.087026 
L 339.650203 90.996863 
L 339.650203 90.906524 
L 339.350014 90.816011 
L 339.350014 90.725323 
L 339.049825 90.634458 
L 339.049825 90.543416 
L 338.749636 90.452198 
L 338.749636 90.360801 
L 338.149257 90.269227 
L 338.149257 89.99343 
L 337.548879 89.99343 
L 337.548879 89.623174 
L 337.24869 89.530155 
L 337.24869 89.436954 
L 336.498217 89.436954 
L 336.498217 88.968183 
L 335.897839 88.968183 
L 335.897839 88.589818 
L 335.59765 88.589818 
L 335.59765 88.399507 
L 335.297461 88.304068 
L 335.297461 88.208438 
L 334.997271 88.112618 
L 334.997271 88.016607 
L 334.396893 87.920403 
L 334.396893 87.630637 
L 334.096704 87.630637 
L 334.096704 87.436489 
L 333.796515 87.339123 
L 333.796515 87.24156 
L 333.496326 87.143802 
L 333.496326 87.045846 
L 333.196137 86.947692 
L 333.196137 86.84934 
L 332.595758 86.750789 
L 332.595758 86.453937 
L 332.295569 86.354585 
L 332.295569 86.25503 
L 331.545096 86.171857 
L 331.545096 85.871262 
L 331.244907 85.770654 
L 331.244907 85.669841 
L 330.944718 85.56882 
L 330.944718 85.467593 
L 330.34434 85.366158 
L 330.34434 85.060599 
L 330.044151 84.958327 
L 330.044151 84.855843 
L 329.743962 84.855843 
L 329.743962 84.650241 
L 329.443773 84.54712 
L 329.443773 84.443786 
L 329.143583 84.340238 
L 329.143583 84.236475 
L 328.843394 84.132496 
L 328.843394 84.028301 
L 328.543205 83.923889 
L 328.543205 83.819259 
L 328.243016 83.714411 
L 328.243016 83.609344 
L 327.342449 83.504057 
L 327.342449 82.974304 
L 326.74207 82.867684 
L 326.74207 82.546475 
L 326.441881 82.546475 
L 326.441881 82.331204 
L 326.141692 82.331204 
L 326.141692 82.11502 
L 325.541314 82.006583 
L 325.541314 81.67989 
L 325.241125 81.570528 
L 325.241125 81.460933 
L 324.940936 81.460933 
L 324.940936 81.241039 
L 324.640746 81.130739 
L 324.640746 81.020203 
L 324.190463 81.020203 
L 324.190463 80.68717 
L 324.040368 80.68717 
L 324.040368 80.575681 
L 323.890274 80.575681 
L 323.890274 80.463952 
L 323.740179 80.463952 
L 323.740179 80.351982 
L 323.289895 80.351982 
L 323.289895 80.014618 
L 322.839612 80.014618 
L 322.839612 79.675058 
L 322.689517 79.675058 
L 322.689517 79.56138 
L 322.389328 79.56138 
L 322.389328 79.33328 
L 322.089139 79.33328 
L 322.089139 79.104185 
L 320.738288 79.104185 
L 320.738288 78.060761 
L 320.438099 78.060761 
L 320.438099 77.826072 
L 319.987815 77.826072 
L 319.987815 77.472089 
L 319.83772 77.472089 
L 319.83772 77.353571 
L 319.387437 77.353571 
L 319.387437 76.996434 
L 318.787058 76.996434 
L 318.787058 76.516524 
L 318.636964 76.516524 
L 318.636964 76.395876 
L 318.18668 76.395876 
L 318.18668 76.032304 
L 318.036586 76.032304 
L 318.036586 75.910568 
L 317.886491 75.910568 
L 317.886491 75.788559 
L 317.436207 75.788559 
L 317.436207 75.420876 
L 317.136018 75.420876 
L 317.136018 75.174368 
L 316.985924 75.174368 
L 316.985924 75.050694 
L 316.685734 75.050694 
L 316.685734 74.802505 
L 316.53564 74.802505 
L 316.53564 74.677987 
L 316.235451 74.677987 
L 316.235451 74.428099 
L 316.085356 74.428099 
L 316.085356 74.302728 
L 315.334883 74.302728 
L 315.334883 73.671555 
L 314.8846 73.671555 
L 314.8846 73.289363 
L 314.734505 73.289363 
L 314.734505 73.161378 
L 313.833938 73.161378 
L 313.833938 72.38723 
L 313.533749 72.38723 
L 313.533749 72.126779 
L 312.93337 72.126779 
L 312.93337 71.602224 
L 312.783276 71.602224 
L 312.783276 71.470317 
L 311.882708 71.470317 
L 311.882708 70.672351 
L 311.732614 70.672351 
L 311.732614 70.538258 
L 311.582519 70.538258 
L 311.582519 70.403848 
L 311.28233 70.403848 
L 311.28233 70.134073 
L 310.531857 70.134073 
L 310.531857 69.454014 
L 310.381763 69.454014 
L 310.381763 69.317028 
L 306.329209 69.317028 
L 306.329209 65.490811 
L 306.179115 65.490811 
L 306.179115 65.344203 
L 304.227886 65.344203 
L 304.227886 63.404849 
L 302.126562 63.404849 
L 302.126562 61.244342 
L 301.826372 61.244342 
L 301.826372 60.929379 
L 301.526183 60.929379 
L 301.526183 60.612799 
L 301.0759 60.612799 
L 301.0759 60.134873 
L 300.925805 60.134873 
L 300.925805 59.974742 
L 299.574954 59.974742 
L 299.574954 58.514765 
L 299.424859 58.514765 
L 299.424859 58.350426 
L 295.522401 58.350426 
L 295.522401 53.921612 
L 295.372306 53.921612 
L 295.372306 53.745046 
L 295.222212 53.745046 
L 295.222212 53.568 
L 73.832727 53.568 
L 73.832727 53.568 
" clip-path="url(#p4daab24706)" style="fill: none; stroke: #4c72b0; stroke-width: 1.5; stroke-linecap: round"/>
   </g>
   <g id="patch_3">
    <path d="M 57.6 307.584 
L 57.6 41.472 
" style="fill: none; stroke: #ffffff; stroke-width: 1.25; stroke-linejoin: miter; stroke-linecap: square"/>
   </g>
   <g id="patch_4">
    <path d="M 414.72 307.584 
L 414.72 41.472 
" style="fill: none; stroke: #ffffff; stroke-width: 1.25; stroke-linejoin: miter; stroke-linecap: square"/>
   </g>
   <g id="patch_5">
    <path d="M 57.6 307.584 
L 414.72 307.584 
" style="fill: none; stroke: #ffffff; stroke-width: 1.25; stroke-linejoin: miter; stroke-linecap: square"/>
   </g>
   <g id="patch_6">
    <path d="M 57.6 41.472 
L 414.72 41.472 
" style="fill: none; stroke: #ffffff; stroke-width: 1.25; stroke-linejoin: miter; stroke-linecap: square"/>
   </g>
   <g id="text_8">
    <!-- Precision-recall curve -->
    <g style="fill: #262626" transform="translate(44.206875 35.472)scale(0.36 -0.36)">
     <defs>
      <path id="DejaVuSans-2d" d="M 313 2009 
L 1997 2009 
L 1997 1497 
L 313 1497 
L 313 2009 
z
" transform="scale(0.015625)"/>
      <path id="DejaVuSans-75" d="M 544 1381 
L 544 3500 
L 1119 3500 
L 1119 1403 
Q 1119 906 1312 657 
Q 1506 409 1894 409 
Q 2359 409 2629 706 
Q 2900 1003 2900 1516 
L 2900 3500 
L 3475 3500 
L 3475 0 
L 2900 0 
L 2900 538 
Q 2691 219 2414 64 
Q 2138 -91 1772 -91 
Q 1169 -91 856 284 
Q 544 659 544 1381 
z
M 1991 3584 
L 1991 3584 
z
" transform="scale(0.015625)"/>
     </defs>
     <use xlink:href="#DejaVuSans-50"/>
     <use xlink:href="#DejaVuSans-72" x="58.552734"/>
     <use xlink:href="#DejaVuSans-65" x="97.416016"/>
     <use xlink:href="#DejaVuSans-63" x="158.939453"/>
     <use xlink:href="#DejaVuSans-69" x="213.919922"/>
     <use xlink:href="#DejaVuSans-73" x="241.703125"/>
     <use xlink:href="#DejaVuSans-69" x="293.802734"/>
     <use xlink:href="#DejaVuSans-6f" x="321.585938"/>
     <use xlink:href="#DejaVuSans-6e" x="382.767578"/>
     <use xlink:href="#DejaVuSans-2d" x="446.146484"/>
     <use xlink:href="#DejaVuSans-72" x="482.230469"/>
     <use xlink:href="#DejaVuSans-65" x="521.09375"/>
     <use xlink:href="#DejaVuSans-63" x="582.617188"/>
     <use xlink:href="#DejaVuSans-61" x="637.597656"/>
     <use xlink:href="#DejaVuSans-6c" x="698.876953"/>
     <use xlink:href="#DejaVuSans-6c" x="726.660156"/>
     <use xlink:href="#DejaVuSans-20" x="754.443359"/>
     <use xlink:href="#DejaVuSans-63" x="786.230469"/>
     <use xlink:href="#DejaVuSans-75" x="841.210938"/>
     <use xlink:href="#DejaVuSans-72" x="904.589844"/>
     <use xlink:href="#DejaVuSans-76" x="945.703125"/>
     <use xlink:href="#DejaVuSans-65" x="1004.882812"/>
    </g>
   </g>
   <g id="legend_1">
    <g id="patch_7">
     <path d="M 80.7 291.084 
L 635.445469 291.084 
Q 642.045469 291.084 642.045469 284.484 
L 642.045469 239.346187 
Q 642.045469 232.746187 635.445469 232.746187 
L 80.7 232.746187 
Q 74.1 232.746187 74.1 239.346187 
L 74.1 284.484 
Q 74.1 291.084 80.7 291.084 
z
" style="fill: #eaeaf2; opacity: 0.8; stroke: #cccccc; stroke-linejoin: miter"/>
    </g>
    <g id="line2d_7">
     <path d="M 87.3 259.471031 
L 120.3 259.471031 
L 120.3 259.471031 
L 153.3 259.471031 
L 153.3 259.471031 
" style="fill: none; stroke: #4c72b0; stroke-width: 1.5; stroke-linecap: round"/>
    </g>
    <g id="text_9">
     <!-- Random Forest (AP = 0.95) -->
     <g style="fill: #262626" transform="translate(179.7 271.021031)scale(0.33 -0.33)">
      <defs>
       <path id="DejaVuSans-64" d="M 2906 2969 
L 2906 4863 
L 3481 4863 
L 3481 0 
L 2906 0 
L 2906 525 
Q 2725 213 2448 61 
Q 2172 -91 1784 -91 
Q 1150 -91 751 415 
Q 353 922 353 1747 
Q 353 2572 751 3078 
Q 1150 3584 1784 3584 
Q 2172 3584 2448 3432 
Q 2725 3281 2906 2969 
z
M 947 1747 
Q 947 1113 1208 752 
Q 1469 391 1925 391 
Q 2381 391 2643 752 
Q 2906 1113 2906 1747 
Q 2906 2381 2643 2742 
Q 2381 3103 1925 3103 
Q 1469 3103 1208 2742 
Q 947 2381 947 1747 
z
" transform="scale(0.015625)"/>
       <path id="DejaVuSans-6d" d="M 3328 2828 
Q 3544 3216 3844 3400 
Q 4144 3584 4550 3584 
Q 5097 3584 5394 3201 
Q 5691 2819 5691 2113 
L 5691 0 
L 5113 0 
L 5113 2094 
Q 5113 2597 4934 2840 
Q 4756 3084 4391 3084 
Q 3944 3084 3684 2787 
Q 3425 2491 3425 1978 
L 3425 0 
L 2847 0 
L 2847 2094 
Q 2847 2600 2669 2842 
Q 2491 3084 2119 3084 
Q 1678 3084 1418 2786 
Q 1159 2488 1159 1978 
L 1159 0 
L 581 0 
L 581 3500 
L 1159 3500 
L 1159 2956 
Q 1356 3278 1631 3431 
Q 1906 3584 2284 3584 
Q 2666 3584 2933 3390 
Q 3200 3197 3328 2828 
z
" transform="scale(0.015625)"/>
       <path id="DejaVuSans-46" d="M 628 4666 
L 3309 4666 
L 3309 4134 
L 1259 4134 
L 1259 2759 
L 3109 2759 
L 3109 2228 
L 1259 2228 
L 1259 0 
L 628 0 
L 628 4666 
z
" transform="scale(0.015625)"/>
       <path id="DejaVuSans-41" d="M 2188 4044 
L 1331 1722 
L 3047 1722 
L 2188 4044 
z
M 1831 4666 
L 2547 4666 
L 4325 0 
L 3669 0 
L 3244 1197 
L 1141 1197 
L 716 0 
L 50 0 
L 1831 4666 
z
" transform="scale(0.015625)"/>
       <path id="DejaVuSans-3d" d="M 678 2906 
L 4684 2906 
L 4684 2381 
L 678 2381 
L 678 2906 
z
M 678 1631 
L 4684 1631 
L 4684 1100 
L 678 1100 
L 678 1631 
z
" transform="scale(0.015625)"/>
       <path id="DejaVuSans-39" d="M 703 97 
L 703 672 
Q 941 559 1184 500 
Q 1428 441 1663 441 
Q 2288 441 2617 861 
Q 2947 1281 2994 2138 
Q 2813 1869 2534 1725 
Q 2256 1581 1919 1581 
Q 1219 1581 811 2004 
Q 403 2428 403 3163 
Q 403 3881 828 4315 
Q 1253 4750 1959 4750 
Q 2769 4750 3195 4129 
Q 3622 3509 3622 2328 
Q 3622 1225 3098 567 
Q 2575 -91 1691 -91 
Q 1453 -91 1209 -44 
Q 966 3 703 97 
z
M 1959 2075 
Q 2384 2075 2632 2365 
Q 2881 2656 2881 3163 
Q 2881 3666 2632 3958 
Q 2384 4250 1959 4250 
Q 1534 4250 1286 3958 
Q 1038 3666 1038 3163 
Q 1038 2656 1286 2365 
Q 1534 2075 1959 2075 
z
" transform="scale(0.015625)"/>
      </defs>
      <use xlink:href="#DejaVuSans-52"/>
      <use xlink:href="#DejaVuSans-61" x="67.232422"/>
      <use xlink:href="#DejaVuSans-6e" x="128.511719"/>
      <use xlink:href="#DejaVuSans-64" x="191.890625"/>
      <use xlink:href="#DejaVuSans-6f" x="255.367188"/>
      <use xlink:href="#DejaVuSans-6d" x="316.548828"/>
      <use xlink:href="#DejaVuSans-20" x="413.960938"/>
      <use xlink:href="#DejaVuSans-46" x="445.748047"/>
      <use xlink:href="#DejaVuSans-6f" x="499.642578"/>
      <use xlink:href="#DejaVuSans-72" x="560.824219"/>
      <use xlink:href="#DejaVuSans-65" x="599.6875"/>
      <use xlink:href="#DejaVuSans-73" x="661.210938"/>
      <use xlink:href="#DejaVuSans-74" x="713.310547"/>
      <use xlink:href="#DejaVuSans-20" x="752.519531"/>
      <use xlink:href="#DejaVuSans-28" x="784.306641"/>
      <use xlink:href="#DejaVuSans-41" x="823.320312"/>
      <use xlink:href="#DejaVuSans-50" x="891.728516"/>
      <use xlink:href="#DejaVuSans-20" x="952.03125"/>
      <use xlink:href="#DejaVuSans-3d" x="983.818359"/>
      <use xlink:href="#DejaVuSans-20" x="1067.607422"/>
      <use xlink:href="#DejaVuSans-30" x="1099.394531"/>
      <use xlink:href="#DejaVuSans-2e" x="1163.017578"/>
      <use xlink:href="#DejaVuSans-39" x="1194.804688"/>
      <use xlink:href="#DejaVuSans-35" x="1258.427734"/>
      <use xlink:href="#DejaVuSans-29" x="1322.050781"/>
     </g>
    </g>
   </g>
  </g>
 </g>
 <defs>
  <clipPath id="p4daab24706">
   <rect x="57.6" y="41.472" width="357.12" height="266.112"/>
  </clipPath>
 </defs>
</svg>
