<?xml version="1.0" encoding="utf-8" standalone="no"?>
<!DOCTYPE svg PUBLIC "-//W3C//DTD SVG 1.1//EN"
  "http://www.w3.org/Graphics/SVG/1.1/DTD/svg11.dtd">
<svg xmlns:xlink="http://www.w3.org/1999/xlink" width="460.8pt" height="345.6pt" viewBox="0 0 460.8 345.6" xmlns="http://www.w3.org/2000/svg" version="1.1">
 <metadata>
  <rdf:RDF xmlns:dc="http://purl.org/dc/elements/1.1/" xmlns:cc="http://creativecommons.org/ns#" xmlns:rdf="http://www.w3.org/1999/02/22-rdf-syntax-ns#">
   <cc:Work>
    <dc:type rdf:resource="http://purl.org/dc/dcmitype/StillImage"/>
    <dc:date>2022-11-22T02:11:18.747496</dc:date>
    <dc:format>image/svg+xml</dc:format>
    <dc:creator>
     <cc:Agent>
      <dc:title>Matplotlib v3.5.2, https://matplotlib.org/</dc:title>
     </cc:Agent>
    </dc:creator>
   </cc:Work>
  </rdf:RDF>
 </metadata>
 <defs>
  <style type="text/css">*{stroke-linejoin: round; stroke-linecap: butt}</style>
 </defs>
 <g id="figure_1">
  <g id="patch_1">
   <path d="M 0 345.6 
L 460.8 345.6 
L 460.8 0 
L 0 0 
z
" style="fill: #ffffff"/>
  </g>
  <g id="axes_1">
   <g id="patch_2">
    <path d="M 57.6 307.584 
L 414.72 307.584 
L 414.72 41.472 
L 57.6 41.472 
z
" style="fill: #eaeaf2"/>
   </g>
   <g id="matplotlib.axis_1">
    <g id="xtick_1">
     <g id="line2d_1">
      <path d="M 73.832727 307.584 
L 73.832727 41.472 
" clip-path="url(#p0643ba36ad)" style="fill: none; stroke: #ffffff; stroke-linecap: round"/>
     </g>
     <g id="text_1">
      <!-- 0.0 -->
      <g style="fill: #262626" transform="translate(47.592571 342.158844)scale(0.33 -0.33)">
       <defs>
        <path id="DejaVuSans-30" d="M 2034 4250 
Q 1547 4250 1301 3770 
Q 1056 3291 1056 2328 
Q 1056 1369 1301 889 
Q 1547 409 2034 409 
Q 2525 409 2770 889 
Q 3016 1369 3016 2328 
Q 3016 3291 2770 3770 
Q 2525 4250 2034 4250 
z
M 2034 4750 
Q 2819 4750 3233 4129 
Q 3647 3509 3647 2328 
Q 3647 1150 3233 529 
Q 2819 -91 2034 -91 
Q 1250 -91 836 529 
Q 422 1150 422 2328 
Q 422 3509 836 4129 
Q 1250 4750 2034 4750 
z
" transform="scale(0.015625)"/>
        <path id="DejaVuSans-2e" d="M 684 794 
L 1344 794 
L 1344 0 
L 684 0 
L 684 794 
z
" transform="scale(0.015625)"/>
       </defs>
       <use xlink:href="#DejaVuSans-30"/>
       <use xlink:href="#DejaVuSans-2e" x="63.623047"/>
       <use xlink:href="#DejaVuSans-30" x="95.410156"/>
      </g>
     </g>
    </g>
    <g id="xtick_2">
     <g id="line2d_2">
      <path d="M 236.16 307.584 
L 236.16 41.472 
" clip-path="url(#p0643ba36ad)" style="fill: none; stroke: #ffffff; stroke-linecap: round"/>
     </g>
     <g id="text_2">
      <!-- 0.5 -->
      <g style="fill: #262626" transform="translate(209.919844 342.158844)scale(0.33 -0.33)">
       <defs>
        <path id="DejaVuSans-35" d="M 691 4666 
L 3169 4666 
L 3169 4134 
L 1269 4134 
L 1269 2991 
Q 1406 3038 1543 3061 
Q 1681 3084 1819 3084 
Q 2600 3084 3056 2656 
Q 3513 2228 3513 1497 
Q 3513 744 3044 326 
Q 2575 -91 1722 -91 
Q 1428 -91 1123 -41 
Q 819 9 494 109 
L 494 744 
Q 775 591 1075 516 
Q 1375 441 1709 441 
Q 2250 441 2565 725 
Q 2881 1009 2881 1497 
Q 2881 1984 2565 2268 
Q 2250 2553 1709 2553 
Q 1456 2553 1204 2497 
Q 953 2441 691 2322 
L 691 4666 
z
" transform="scale(0.015625)"/>
       </defs>
       <use xlink:href="#DejaVuSans-30"/>
       <use xlink:href="#DejaVuSans-2e" x="63.623047"/>
       <use xlink:href="#DejaVuSans-35" x="95.410156"/>
      </g>
     </g>
    </g>
    <g id="xtick_3">
     <g id="line2d_3">
      <path d="M 398.487273 307.584 
L 398.487273 41.472 
" clip-path="url(#p0643ba36ad)" style="fill: none; stroke: #ffffff; stroke-linecap: round"/>
     </g>
     <g id="text_3">
      <!-- 1.0 -->
      <g style="fill: #262626" transform="translate(372.247116 342.158844)scale(0.33 -0.33)">
       <defs>
        <path id="DejaVuSans-31" d="M 794 531 
L 1825 531 
L 1825 4091 
L 703 3866 
L 703 4441 
L 1819 4666 
L 2450 4666 
L 2450 531 
L 3481 531 
L 3481 0 
L 794 0 
L 794 531 
z
" transform="scale(0.015625)"/>
       </defs>
       <use xlink:href="#DejaVuSans-31"/>
       <use xlink:href="#DejaVuSans-2e" x="63.623047"/>
       <use xlink:href="#DejaVuSans-30" x="95.410156"/>
      </g>
     </g>
    </g>
    <g id="text_4">
     <!-- Recall (Positive label: 1.0) -->
     <g style="fill: #262626" transform="translate(3.647813 380.376187)scale(0.36 -0.36)">
      <defs>
       <path id="DejaVuSans-52" d="M 2841 2188 
Q 3044 2119 3236 1894 
Q 3428 1669 3622 1275 
L 4263 0 
L 3584 0 
L 2988 1197 
Q 2756 1666 2539 1819 
Q 2322 1972 1947 1972 
L 1259 1972 
L 1259 0 
L 628 0 
L 628 4666 
L 2053 4666 
Q 2853 4666 3247 4331 
Q 3641 3997 3641 3322 
Q 3641 2881 3436 2590 
Q 3231 2300 2841 2188 
z
M 1259 4147 
L 1259 2491 
L 2053 2491 
Q 2509 2491 2742 2702 
Q 2975 2913 2975 3322 
Q 2975 3731 2742 3939 
Q 2509 4147 2053 4147 
L 1259 4147 
z
" transform="scale(0.015625)"/>
       <path id="DejaVuSans-65" d="M 3597 1894 
L 3597 1613 
L 953 1613 
Q 991 1019 1311 708 
Q 1631 397 2203 397 
Q 2534 397 2845 478 
Q 3156 559 3463 722 
L 3463 178 
Q 3153 47 2828 -22 
Q 2503 -91 2169 -91 
Q 1331 -91 842 396 
Q 353 884 353 1716 
Q 353 2575 817 3079 
Q 1281 3584 2069 3584 
Q 2775 3584 3186 3129 
Q 3597 2675 3597 1894 
z
M 3022 2063 
Q 3016 2534 2758 2815 
Q 2500 3097 2075 3097 
Q 1594 3097 1305 2825 
Q 1016 2553 972 2059 
L 3022 2063 
z
" transform="scale(0.015625)"/>
       <path id="DejaVuSans-63" d="M 3122 3366 
L 3122 2828 
Q 2878 2963 2633 3030 
Q 2388 3097 2138 3097 
Q 1578 3097 1268 2742 
Q 959 2388 959 1747 
Q 959 1106 1268 751 
Q 1578 397 2138 397 
Q 2388 397 2633 464 
Q 2878 531 3122 666 
L 3122 134 
Q 2881 22 2623 -34 
Q 2366 -91 2075 -91 
Q 1284 -91 818 406 
Q 353 903 353 1747 
Q 353 2603 823 3093 
Q 1294 3584 2113 3584 
Q 2378 3584 2631 3529 
Q 2884 3475 3122 3366 
z
" transform="scale(0.015625)"/>
       <path id="DejaVuSans-61" d="M 2194 1759 
Q 1497 1759 1228 1600 
Q 959 1441 959 1056 
Q 959 750 1161 570 
Q 1363 391 1709 391 
Q 2188 391 2477 730 
Q 2766 1069 2766 1631 
L 2766 1759 
L 2194 1759 
z
M 3341 1997 
L 3341 0 
L 2766 0 
L 2766 531 
Q 2569 213 2275 61 
Q 1981 -91 1556 -91 
Q 1019 -91 701 211 
Q 384 513 384 1019 
Q 384 1609 779 1909 
Q 1175 2209 1959 2209 
L 2766 2209 
L 2766 2266 
Q 2766 2663 2505 2880 
Q 2244 3097 1772 3097 
Q 1472 3097 1187 3025 
Q 903 2953 641 2809 
L 641 3341 
Q 956 3463 1253 3523 
Q 1550 3584 1831 3584 
Q 2591 3584 2966 3190 
Q 3341 2797 3341 1997 
z
" transform="scale(0.015625)"/>
       <path id="DejaVuSans-6c" d="M 603 4863 
L 1178 4863 
L 1178 0 
L 603 0 
L 603 4863 
z
" transform="scale(0.015625)"/>
       <path id="DejaVuSans-20" transform="scale(0.015625)"/>
       <path id="DejaVuSans-28" d="M 1984 4856 
Q 1566 4138 1362 3434 
Q 1159 2731 1159 2009 
Q 1159 1288 1364 580 
Q 1569 -128 1984 -844 
L 1484 -844 
Q 1016 -109 783 600 
Q 550 1309 550 2009 
Q 550 2706 781 3412 
Q 1013 4119 1484 4856 
L 1984 4856 
z
" transform="scale(0.015625)"/>
       <path id="DejaVuSans-50" d="M 1259 4147 
L 1259 2394 
L 2053 2394 
Q 2494 2394 2734 2622 
Q 2975 2850 2975 3272 
Q 2975 3691 2734 3919 
Q 2494 4147 2053 4147 
L 1259 4147 
z
M 628 4666 
L 2053 4666 
Q 2838 4666 3239 4311 
Q 3641 3956 3641 3272 
Q 3641 2581 3239 2228 
Q 2838 1875 2053 1875 
L 1259 1875 
L 1259 0 
L 628 0 
L 628 4666 
z
" transform="scale(0.015625)"/>
       <path id="DejaVuSans-6f" d="M 1959 3097 
Q 1497 3097 1228 2736 
Q 959 2375 959 1747 
Q 959 1119 1226 758 
Q 1494 397 1959 397 
Q 2419 397 2687 759 
Q 2956 1122 2956 1747 
Q 2956 2369 2687 2733 
Q 2419 3097 1959 3097 
z
M 1959 3584 
Q 2709 3584 3137 3096 
Q 3566 2609 3566 1747 
Q 3566 888 3137 398 
Q 2709 -91 1959 -91 
Q 1206 -91 779 398 
Q 353 888 353 1747 
Q 353 2609 779 3096 
Q 1206 3584 1959 3584 
z
" transform="scale(0.015625)"/>
       <path id="DejaVuSans-73" d="M 2834 3397 
L 2834 2853 
Q 2591 2978 2328 3040 
Q 2066 3103 1784 3103 
Q 1356 3103 1142 2972 
Q 928 2841 928 2578 
Q 928 2378 1081 2264 
Q 1234 2150 1697 2047 
L 1894 2003 
Q 2506 1872 2764 1633 
Q 3022 1394 3022 966 
Q 3022 478 2636 193 
Q 2250 -91 1575 -91 
Q 1294 -91 989 -36 
Q 684 19 347 128 
L 347 722 
Q 666 556 975 473 
Q 1284 391 1588 391 
Q 1994 391 2212 530 
Q 2431 669 2431 922 
Q 2431 1156 2273 1281 
Q 2116 1406 1581 1522 
L 1381 1569 
Q 847 1681 609 1914 
Q 372 2147 372 2553 
Q 372 3047 722 3315 
Q 1072 3584 1716 3584 
Q 2034 3584 2315 3537 
Q 2597 3491 2834 3397 
z
" transform="scale(0.015625)"/>
       <path id="DejaVuSans-69" d="M 603 3500 
L 1178 3500 
L 1178 0 
L 603 0 
L 603 3500 
z
M 603 4863 
L 1178 4863 
L 1178 4134 
L 603 4134 
L 603 4863 
z
" transform="scale(0.015625)"/>
       <path id="DejaVuSans-74" d="M 1172 4494 
L 1172 3500 
L 2356 3500 
L 2356 3053 
L 1172 3053 
L 1172 1153 
Q 1172 725 1289 603 
Q 1406 481 1766 481 
L 2356 481 
L 2356 0 
L 1766 0 
Q 1100 0 847 248 
Q 594 497 594 1153 
L 594 3053 
L 172 3053 
L 172 3500 
L 594 3500 
L 594 4494 
L 1172 4494 
z
" transform="scale(0.015625)"/>
       <path id="DejaVuSans-76" d="M 191 3500 
L 800 3500 
L 1894 563 
L 2988 3500 
L 3597 3500 
L 2284 0 
L 1503 0 
L 191 3500 
z
" transform="scale(0.015625)"/>
       <path id="DejaVuSans-62" d="M 3116 1747 
Q 3116 2381 2855 2742 
Q 2594 3103 2138 3103 
Q 1681 3103 1420 2742 
Q 1159 2381 1159 1747 
Q 1159 1113 1420 752 
Q 1681 391 2138 391 
Q 2594 391 2855 752 
Q 3116 1113 3116 1747 
z
M 1159 2969 
Q 1341 3281 1617 3432 
Q 1894 3584 2278 3584 
Q 2916 3584 3314 3078 
Q 3713 2572 3713 1747 
Q 3713 922 3314 415 
Q 2916 -91 2278 -91 
Q 1894 -91 1617 61 
Q 1341 213 1159 525 
L 1159 0 
L 581 0 
L 581 4863 
L 1159 4863 
L 1159 2969 
z
" transform="scale(0.015625)"/>
       <path id="DejaVuSans-3a" d="M 750 794 
L 1409 794 
L 1409 0 
L 750 0 
L 750 794 
z
M 750 3309 
L 1409 3309 
L 1409 2516 
L 750 2516 
L 750 3309 
z
" transform="scale(0.015625)"/>
       <path id="DejaVuSans-29" d="M 513 4856 
L 1013 4856 
Q 1481 4119 1714 3412 
Q 1947 2706 1947 2009 
Q 1947 1309 1714 600 
Q 1481 -109 1013 -844 
L 513 -844 
Q 928 -128 1133 580 
Q 1338 1288 1338 2009 
Q 1338 2731 1133 3434 
Q 928 4138 513 4856 
z
" transform="scale(0.015625)"/>
      </defs>
      <use xlink:href="#DejaVuSans-52"/>
      <use xlink:href="#DejaVuSans-65" x="64.982422"/>
      <use xlink:href="#DejaVuSans-63" x="126.505859"/>
      <use xlink:href="#DejaVuSans-61" x="181.486328"/>
      <use xlink:href="#DejaVuSans-6c" x="242.765625"/>
      <use xlink:href="#DejaVuSans-6c" x="270.548828"/>
      <use xlink:href="#DejaVuSans-20" x="298.332031"/>
      <use xlink:href="#DejaVuSans-28" x="330.119141"/>
      <use xlink:href="#DejaVuSans-50" x="369.132812"/>
      <use xlink:href="#DejaVuSans-6f" x="425.810547"/>
      <use xlink:href="#DejaVuSans-73" x="486.992188"/>
      <use xlink:href="#DejaVuSans-69" x="539.091797"/>
      <use xlink:href="#DejaVuSans-74" x="566.875"/>
      <use xlink:href="#DejaVuSans-69" x="606.083984"/>
      <use xlink:href="#DejaVuSans-76" x="633.867188"/>
      <use xlink:href="#DejaVuSans-65" x="693.046875"/>
      <use xlink:href="#DejaVuSans-20" x="754.570312"/>
      <use xlink:href="#DejaVuSans-6c" x="786.357422"/>
      <use xlink:href="#DejaVuSans-61" x="814.140625"/>
      <use xlink:href="#DejaVuSans-62" x="875.419922"/>
      <use xlink:href="#DejaVuSans-65" x="938.896484"/>
      <use xlink:href="#DejaVuSans-6c" x="1000.419922"/>
      <use xlink:href="#DejaVuSans-3a" x="1028.203125"/>
      <use xlink:href="#DejaVuSans-20" x="1061.894531"/>
      <use xlink:href="#DejaVuSans-31" x="1093.681641"/>
      <use xlink:href="#DejaVuSans-2e" x="1157.304688"/>
      <use xlink:href="#DejaVuSans-30" x="1189.091797"/>
      <use xlink:href="#DejaVuSans-29" x="1252.714844"/>
     </g>
    </g>
   </g>
   <g id="matplotlib.axis_2">
    <g id="ytick_1">
     <g id="line2d_4">
      <path d="M 57.6 182.519522 
L 414.72 182.519522 
" clip-path="url(#p0643ba36ad)" style="fill: none; stroke: #ffffff; stroke-linecap: round"/>
     </g>
     <g id="text_5">
      <!-- 0.5 -->
      <g style="fill: #262626" transform="translate(-4.380313 195.056944)scale(0.33 -0.33)">
       <use xlink:href="#DejaVuSans-30"/>
       <use xlink:href="#DejaVuSans-2e" x="63.623047"/>
       <use xlink:href="#DejaVuSans-35" x="95.410156"/>
      </g>
     </g>
    </g>
    <g id="ytick_2">
     <g id="line2d_5">
      <path d="M 57.6 53.568 
L 414.72 53.568 
" clip-path="url(#p0643ba36ad)" style="fill: none; stroke: #ffffff; stroke-linecap: round"/>
     </g>
     <g id="text_6">
      <!-- 1.0 -->
      <g style="fill: #262626" transform="translate(-4.380313 66.105422)scale(0.33 -0.33)">
       <use xlink:href="#DejaVuSans-31"/>
       <use xlink:href="#DejaVuSans-2e" x="63.623047"/>
       <use xlink:href="#DejaVuSans-30" x="95.410156"/>
      </g>
     </g>
    </g>
    <g id="text_7">
     <!-- Precision (Positive label: 1.0) -->
     <g style="fill: #262626" transform="translate(-15.867188 433.643625)rotate(-90)scale(0.36 -0.36)">
      <defs>
       <path id="DejaVuSans-72" d="M 2631 2963 
Q 2534 3019 2420 3045 
Q 2306 3072 2169 3072 
Q 1681 3072 1420 2755 
Q 1159 2438 1159 1844 
L 1159 0 
L 581 0 
L 581 3500 
L 1159 3500 
L 1159 2956 
Q 1341 3275 1631 3429 
Q 1922 3584 2338 3584 
Q 2397 3584 2469 3576 
Q 2541 3569 2628 3553 
L 2631 2963 
z
" transform="scale(0.015625)"/>
       <path id="DejaVuSans-6e" d="M 3513 2113 
L 3513 0 
L 2938 0 
L 2938 2094 
Q 2938 2591 2744 2837 
Q 2550 3084 2163 3084 
Q 1697 3084 1428 2787 
Q 1159 2491 1159 1978 
L 1159 0 
L 581 0 
L 581 3500 
L 1159 3500 
L 1159 2956 
Q 1366 3272 1645 3428 
Q 1925 3584 2291 3584 
Q 2894 3584 3203 3211 
Q 3513 2838 3513 2113 
z
" transform="scale(0.015625)"/>
      </defs>
      <use xlink:href="#DejaVuSans-50"/>
      <use xlink:href="#DejaVuSans-72" x="58.552734"/>
      <use xlink:href="#DejaVuSans-65" x="97.416016"/>
      <use xlink:href="#DejaVuSans-63" x="158.939453"/>
      <use xlink:href="#DejaVuSans-69" x="213.919922"/>
      <use xlink:href="#DejaVuSans-73" x="241.703125"/>
      <use xlink:href="#DejaVuSans-69" x="293.802734"/>
      <use xlink:href="#DejaVuSans-6f" x="321.585938"/>
      <use xlink:href="#DejaVuSans-6e" x="382.767578"/>
      <use xlink:href="#DejaVuSans-20" x="446.146484"/>
      <use xlink:href="#DejaVuSans-28" x="477.933594"/>
      <use xlink:href="#DejaVuSans-50" x="516.947266"/>
      <use xlink:href="#DejaVuSans-6f" x="573.625"/>
      <use xlink:href="#DejaVuSans-73" x="634.806641"/>
      <use xlink:href="#DejaVuSans-69" x="686.90625"/>
      <use xlink:href="#DejaVuSans-74" x="714.689453"/>
      <use xlink:href="#DejaVuSans-69" x="753.898438"/>
      <use xlink:href="#DejaVuSans-76" x="781.681641"/>
      <use xlink:href="#DejaVuSans-65" x="840.861328"/>
      <use xlink:href="#DejaVuSans-20" x="902.384766"/>
      <use xlink:href="#DejaVuSans-6c" x="934.171875"/>
      <use xlink:href="#DejaVuSans-61" x="961.955078"/>
      <use xlink:href="#DejaVuSans-62" x="1023.234375"/>
      <use xlink:href="#DejaVuSans-65" x="1086.710938"/>
      <use xlink:href="#DejaVuSans-6c" x="1148.234375"/>
      <use xlink:href="#DejaVuSans-3a" x="1176.017578"/>
      <use xlink:href="#DejaVuSans-20" x="1209.708984"/>
      <use xlink:href="#DejaVuSans-31" x="1241.496094"/>
      <use xlink:href="#DejaVuSans-2e" x="1305.119141"/>
      <use xlink:href="#DejaVuSans-30" x="1336.90625"/>
      <use xlink:href="#DejaVuSans-29" x="1400.529297"/>
     </g>
    </g>
   </g>
   <g id="line2d_6">
    <path d="M 398.487273 295.488 
L 398.487273 281.307841 
L 398.157674 281.307841 
L 398.157674 281.252349 
L 398.157674 280.713973 
L 397.828076 280.713973 
L 397.828076 280.633105 
L 397.828076 279.629962 
L 397.498477 279.629962 
L 397.498477 279.521909 
L 397.498477 277.837473 
L 397.168879 277.837473 
L 397.168879 277.732827 
L 397.168879 277.701305 
L 396.509682 277.66805 
L 396.509682 277.593802 
L 396.509682 277.438549 
L 395.191287 277.405085 
L 395.191287 277.333728 
L 395.191287 276.691588 
L 394.861689 276.691588 
L 394.861689 276.582493 
L 394.861689 274.89065 
L 393.543295 274.880767 
L 393.543295 274.78444 
L 393.543295 274.507989 
L 393.213696 274.507989 
L 393.213696 274.398199 
L 393.213696 274.121163 
L 392.884098 274.121163 
L 392.884098 274.014158 
L 392.884098 273.952236 
L 392.554499 273.952236 
L 392.554499 273.855321 
L 392.554499 271.784181 
L 392.224901 271.784181 
L 392.224901 271.673226 
L 392.224901 270.696193 
L 391.895302 270.696193 
L 391.895302 270.591209 
L 391.895302 269.776214 
L 391.236105 269.665338 
L 391.236105 269.666528 
L 391.236105 269.030745 
L 389.917711 269.076023 
L 389.917711 268.923475 
L 389.917711 268.820756 
L 389.258514 268.85053 
L 389.258514 268.718019 
L 389.258514 268.56939 
L 388.928916 268.56939 
L 388.928916 268.46471 
L 388.928916 268.42717 
L 388.599317 268.42717 
L 388.599317 268.321533 
L 388.599317 268.276129 
L 388.269719 268.276129 
L 388.269719 268.169477 
L 388.269719 268.093134 
L 385.962529 268.16779 
L 385.962529 268.228448 
L 384.644135 268.11982 
L 384.644135 268.127153 
L 384.644135 268.096232 
L 381.018551 268.052866 
L 381.018551 267.997425 
L 381.018551 267.981694 
L 379.04096 268.081548 
L 379.04096 268.112616 
L 379.04096 268.088988 
L 377.392967 268.18202 
L 377.392967 268.213221 
L 377.392967 268.158005 
L 373.437785 268.105972 
L 373.437785 268.049324 
L 373.437785 268.025183 
L 371.789792 268.120365 
L 371.789792 268.183938 
L 371.789792 268.087279 
L 370.471398 268.134877 
L 370.471398 268.198721 
L 368.493807 268.173453 
L 368.493807 268.090927 
L 368.493807 267.927074 
L 366.845814 267.899725 
L 366.845814 267.816092 
L 366.845814 267.741155 
L 364.868223 267.820596 
L 364.868223 267.853272 
L 364.868223 267.836557 
L 364.538625 267.836557 
L 364.538625 267.72672 
L 364.538625 224.484243 
L 364.209026 224.484243 
L 364.209026 224.383048 
L 364.209026 224.249323 
L 362.561034 224.277147 
L 362.561034 224.242061 
L 362.561034 223.83603 
L 361.572238 223.866201 
L 361.572238 223.761906 
L 361.572238 223.693517 
L 359.924246 223.650611 
L 359.924246 223.613963 
L 359.924246 223.475823 
L 359.265048 223.438784 
L 359.265048 223.366888 
L 359.265048 223.332119 
L 357.946654 223.254505 
L 357.946654 223.251828 
L 357.946654 223.181757 
L 356.957859 223.105857 
L 356.957859 223.102989 
L 356.957859 223.067726 
L 354.321071 222.97592 
L 354.321071 222.972862 
L 354.321071 222.794078 
L 352.343479 222.885589 
L 352.343479 222.918394 
L 352.343479 222.629596 
L 350.695487 222.579052 
L 350.695487 222.53896 
L 350.695487 222.465885 
L 348.388297 222.480089 
L 348.388297 222.365596 
L 348.388297 221.919883 
L 347.069903 221.981275 
L 347.069903 221.826757 
L 347.069903 221.068666 
L 346.410706 221.024741 
L 346.410706 220.980667 
L 346.410706 220.517604 
L 346.081108 220.517604 
L 346.081108 220.433474 
L 346.081108 219.450347 
L 345.751509 219.450347 
L 345.751509 219.362814 
L 345.751509 200.826212 
L 345.42191 200.826212 
L 345.42191 200.729977 
L 345.42191 200.149877 
L 344.762713 200.168367 
L 344.762713 200.186896 
L 344.762713 200.011369 
L 344.103516 200.029781 
L 344.103516 199.930698 
L 344.103516 199.812915 
L 343.773918 199.812915 
L 343.773918 199.713058 
L 343.773918 198.45735 
L 343.444319 198.45735 
L 343.444319 198.353248 
L 343.444319 197.927077 
L 342.125925 197.927077 
L 342.125925 198.238532 
L 342.125925 169.239961 
L 341.796327 169.239961 
L 341.796327 169.318383 
L 341.796327 169.125372 
L 341.13713 169.203876 
L 341.13713 169.282486 
L 341.13713 137.461586 
L 340.807531 137.461586 
L 340.807531 137.386489 
L 340.807531 128.545067 
L 340.148334 128.545067 
L 340.148334 128.676606 
L 340.148334 123.566933 
L 338.170743 123.650349 
L 338.170743 123.77754 
L 337.511546 123.670736 
L 337.511546 123.734524 
L 337.511546 122.010589 
L 336.852349 122.010589 
L 336.852349 122.136519 
L 336.193152 122.199657 
L 336.193152 122.262912 
L 336.193152 118.890535 
L 334.545159 118.95187 
L 334.545159 119.198369 
L 333.885962 119.260285 
L 333.885962 119.322317 
L 333.556364 119.322317 
L 333.556364 119.384467 
L 333.556364 119.202739 
L 332.897167 119.264893 
L 332.897167 119.327165 
L 332.567568 119.327165 
L 332.567568 119.389555 
L 332.567568 118.841273 
L 331.908371 118.903438 
L 331.908371 118.965721 
L 329.271583 118.965721 
L 329.271583 119.468297 
L 326.964393 119.468297 
L 326.964393 119.914431 
L 326.634795 119.914431 
L 326.634795 119.978658 
L 326.634795 119.607189 
L 325.975598 119.671304 
L 325.975598 119.735545 
L 324.327605 119.735545 
L 324.327605 120.058628 
L 324.327605 119.87152 
L 323.009211 119.87152 
L 323.009211 120.131789 
L 322.350014 120.131789 
L 322.350014 120.262691 
L 322.020415 120.262691 
L 322.020415 120.328335 
L 322.020415 119.762266 
L 321.361218 119.827675 
L 321.361218 119.893214 
L 321.361218 119.703533 
L 320.372423 119.769079 
L 320.372423 119.90056 
L 319.713226 119.966497 
L 319.713226 120.032566 
L 319.713226 119.84189 
L 319.054029 119.907965 
L 319.054029 119.974173 
L 317.735635 119.974173 
L 317.735635 120.24033 
L 317.076437 120.307203 
L 317.076437 120.37421 
L 317.076437 120.182153 
L 316.41724 120.249169 
L 316.41724 120.31632 
L 315.758043 120.383607 
L 315.758043 120.45103 
L 314.769248 120.518588 
L 314.769248 120.654116 
L 314.110051 120.722085 
L 314.110051 120.790193 
L 314.110051 120.596608 
L 313.450854 120.664727 
L 313.450854 120.732984 
L 313.450854 120.53875 
L 312.791657 120.607018 
L 312.791657 120.675425 
L 312.791657 120.480536 
L 312.462058 120.480536 
L 312.462058 120.548954 
L 312.462058 120.353537 
L 311.802861 120.421965 
L 311.802861 120.490533 
L 311.143664 120.559242 
L 311.143664 120.628093 
L 310.814066 120.628093 
L 310.814066 120.697084 
L 310.814066 120.500613 
L 310.154868 120.569616 
L 310.154868 120.638761 
L 310.154868 120.44162 
L 309.495671 120.510776 
L 309.495671 120.580075 
L 309.495671 120.38226 
L 309.166073 120.38226 
L 309.166073 120.451569 
L 309.166073 120.253211 
L 308.506876 120.32253 
L 308.506876 120.391994 
L 307.847679 120.461602 
L 307.847679 120.531355 
L 307.188482 120.601255 
L 307.188482 120.6713 
L 305.540489 120.6713 
L 305.540489 121.023733 
L 304.881292 121.023733 
L 304.881292 121.165745 
L 304.551694 121.165745 
L 304.551694 121.236976 
L 304.551694 121.036307 
L 303.892497 121.107551 
L 303.892497 121.178946 
L 303.892497 120.977579 
L 303.233299 121.048987 
L 303.233299 121.120547 
L 302.903701 121.120547 
L 302.903701 121.192259 
L 302.903701 120.99005 
L 302.574102 120.99005 
L 302.574102 121.061775 
L 302.574102 120.655785 
L 301.914905 120.727384 
L 301.914905 120.799135 
L 301.255708 120.799135 
L 301.255708 120.943099 
L 301.255708 120.738889 
L 300.596511 120.738889 
L 300.596511 120.883188 
L 299.937314 120.95557 
L 299.937314 121.028107 
L 299.937314 120.411122 
L 299.607716 120.411122 
L 299.607716 120.483384 
L 299.607716 120.276688 
L 299.278117 120.276688 
L 299.278117 120.348962 
L 299.278117 120.141671 
L 298.61892 120.141671 
L 298.61892 120.286396 
L 298.61892 120.078361 
L 298.289322 120.078361 
L 298.289322 120.150812 
L 298.289322 119.523533 
L 297.959723 119.523533 
L 297.959723 119.595694 
L 297.959723 119.174915 
L 297.300526 119.246931 
L 297.300526 119.319106 
L 296.641329 119.391439 
L 296.641329 119.463932 
L 296.641329 119.040075 
L 296.311731 119.040075 
L 296.311731 119.11242 
L 296.311731 118.899634 
L 295.652533 118.971983 
L 295.652533 119.044493 
L 295.322935 119.044493 
L 295.322935 119.117164 
L 295.322935 118.689236 
L 294.663738 118.761754 
L 294.663738 118.834434 
L 294.334139 118.834434 
L 294.334139 118.907276 
L 294.334139 118.692121 
L 293.674942 118.692121 
L 293.674942 118.837975 
L 293.674942 118.622019 
L 293.345344 118.622019 
L 293.345344 118.695031 
L 293.345344 118.043761 
L 292.686147 118.116451 
L 292.686147 118.189304 
L 292.686147 117.970907 
L 290.378957 117.970907 
L 290.378957 118.48437 
L 289.71976 118.558391 
L 289.71976 118.632581 
L 288.730964 118.70694 
L 288.730964 118.85617 
L 288.730964 118.635282 
L 288.071767 118.709986 
L 288.071767 118.784862 
L 287.082972 118.85991 
L 287.082972 119.010526 
L 287.082972 118.788285 
L 286.423775 118.863684 
L 286.423775 118.939258 
L 286.094176 118.939258 
L 286.094176 119.015006 
L 286.094176 118.79174 
L 285.434979 118.867493 
L 285.434979 118.943423 
L 284.775782 119.019529 
L 284.775782 119.095813 
L 284.775782 118.871338 
L 284.116585 118.871338 
L 284.116585 119.024094 
L 284.116585 118.798746 
L 283.457388 118.875219 
L 283.457388 118.95187 
L 283.457388 118.725643 
L 282.798191 118.802299 
L 282.798191 118.879136 
L 282.798191 118.652023 
L 282.138994 118.728863 
L 282.138994 118.805886 
L 280.161403 118.805886 
L 280.161403 119.271871 
L 275.876622 119.350183 
L 275.876622 120.304701 
L 274.887826 120.385496 
L 274.887826 120.547674 
L 274.558228 120.547674 
L 274.558228 120.629059 
L 274.558228 120.396891 
L 273.899031 120.396891 
L 273.899031 120.559888 
L 273.239834 120.641685 
L 273.239834 120.723683 
L 273.239834 120.49021 
L 271.92144 120.572222 
L 271.92144 120.81947 
L 270.932644 120.902292 
L 270.932644 121.06855 
L 269.61425 121.151987 
L 269.61425 121.40354 
L 268.955053 121.40354 
L 268.955053 121.572285 
L 268.955053 121.335799 
L 267.966257 121.420297 
L 267.966257 121.589928 
L 267.30706 121.675062 
L 267.30706 121.760409 
L 266.647863 121.760409 
L 266.647863 121.931747 
L 261.044689 121.931747 
L 261.044689 123.423638 
L 261.044689 123.181932 
L 260.385491 123.271525 
L 260.385491 123.361349 
L 259.726294 123.361349 
L 259.726294 123.541694 
L 259.067097 123.632216 
L 259.067097 123.722973 
L 258.078302 123.813965 
L 258.078302 123.99666 
L 257.089506 123.99666 
L 257.089506 124.27249 
L 256.430309 124.364914 
L 256.430309 124.45758 
L 255.441514 124.45758 
L 255.441514 124.73704 
L 251.81593 124.73704 
L 251.81593 125.780852 
L 251.156733 125.877265 
L 251.156733 125.973935 
L 246.871952 125.973935 
L 246.871952 127.254584 
L 246.212755 127.254584 
L 246.212755 127.455639 
L 245.553558 127.556578 
L 245.553558 127.657794 
L 245.223959 127.657794 
L 245.223959 127.759287 
L 245.223959 127.254584 
L 244.235164 127.355941 
L 244.235164 127.559494 
L 243.575967 127.661692 
L 243.575967 127.764173 
L 243.246368 127.764173 
L 243.246368 127.866938 
L 243.246368 127.612286 
L 242.91677 127.612286 
L 242.91677 127.715125 
L 242.91677 127.459554 
L 241.927974 127.562467 
L 241.927974 127.769155 
L 241.268777 127.872933 
L 241.268777 127.977001 
L 240.279982 128.081362 
L 240.279982 128.290963 
L 239.620784 128.396207 
L 239.620784 128.501748 
L 239.291186 128.501748 
L 239.291186 128.607586 
L 239.291186 128.348939 
L 238.631989 128.454861 
L 238.631989 128.561084 
L 238.631989 128.301268 
L 237.972792 128.407575 
L 237.972792 128.514184 
L 237.972792 127.99145 
L 235.995201 127.99145 
L 235.995201 128.63488 
L 235.336004 128.743202 
L 235.336004 128.851836 
L 235.336004 128.587554 
L 234.676807 128.696278 
L 234.676807 128.805318 
L 233.358413 128.914674 
L 233.358413 129.24466 
L 233.358413 127.90476 
L 231.051223 128.014239 
L 231.051223 128.67795 
L 230.721624 128.67795 
L 230.721624 128.789721 
L 230.392026 128.789721 
L 230.392026 128.901825 
L 230.062427 128.901825 
L 230.062427 129.014264 
L 230.062427 128.467986 
L 229.732829 128.467986 
L 229.732829 128.58028 
L 229.732829 128.305669 
L 229.40323 128.305669 
L 229.40323 128.418056 
L 229.073632 128.418056 
L 229.073632 128.530782 
L 229.073632 127.978093 
L 228.744033 127.978093 
L 228.744033 128.090665 
L 228.414435 128.090665 
L 228.414435 128.203578 
L 227.096041 128.203578 
L 227.096041 128.658673 
L 226.766442 128.658673 
L 226.766442 128.773315 
L 226.107245 128.773315 
L 226.107245 129.003653 
L 225.777647 129.003653 
L 225.777647 129.119352 
L 225.448048 129.119352 
L 225.448048 129.235406 
L 225.118449 129.235406 
L 225.118449 129.351817 
L 222.481661 129.351817 
L 222.481661 130.296164 
L 222.152063 130.296164 
L 222.152063 130.415865 
L 221.822464 130.415865 
L 221.822464 130.53594 
L 212.264107 130.53594 
L 212.264107 134.189082 
L 212.264107 133.898456 
L 211.934509 133.898456 
L 211.934509 134.030362 
L 211.60491 134.030362 
L 211.60491 134.162701 
L 210.286516 134.162701 
L 210.286516 134.696441 
L 209.956917 134.696441 
L 209.956917 134.830982 
L 209.29772 134.830982 
L 209.29772 135.101408 
L 193.476991 135.101408 
L 193.476991 142.178449 
L 193.147393 142.178449 
L 193.147393 142.338975 
L 190.840203 142.338975 
L 190.840203 143.479153 
L 189.19221 143.479153 
L 189.19221 144.311664 
L 189.19221 144.001535 
L 188.862612 144.001535 
L 188.862612 144.169627 
L 188.533013 144.169627 
L 188.533013 144.338345 
L 188.533013 140.191923 
L 188.203415 140.191923 
L 188.203415 140.357552 
L 188.203415 140.029748 
L 187.544218 140.029748 
L 187.544218 140.362294 
L 183.918634 140.362294 
L 183.918634 142.238005 
L 182.929838 142.238005 
L 182.929838 142.763717 
L 176.997065 142.763717 
L 176.997065 146.053723 
L 176.667467 146.053723 
L 176.667467 146.243632 
L 171.064292 146.243632 
L 171.064292 149.595729 
L 168.757102 149.595729 
L 168.757102 151.047552 
L 166.779511 151.047552 
L 166.779511 152.327371 
L 166.449912 152.327371 
L 166.449912 152.543949 
L 166.120314 152.543949 
L 166.120314 152.761478 
L 165.461117 152.761478 
L 165.461117 153.199419 
L 165.131518 153.199419 
L 165.131518 153.069396 
L 164.80192 153.069396 
L 164.80192 153.29051 
L 164.472321 153.29051 
L 164.472321 153.512609 
L 164.142723 153.512609 
L 164.142723 153.7357 
L 164.142723 153.028367 
L 163.153927 153.028367 
L 163.153927 153.701913 
L 162.49473 153.701913 
L 162.49473 154.156035 
L 162.165132 154.156035 
L 162.165132 154.384644 
L 161.835533 154.384644 
L 161.835533 154.614295 
L 161.176336 154.614295 
L 161.176336 155.07675 
L 160.846737 155.07675 
L 160.846737 155.309568 
L 159.528343 155.309568 
L 159.528343 156.251619 
L 158.539548 156.251619 
L 158.539548 156.969687 
L 158.539548 155.881649 
L 157.221154 155.881649 
L 157.221154 156.851446 
L 156.891555 156.851446 
L 156.891555 157.096775 
L 153.925168 157.096775 
L 153.925168 159.358326 
L 153.265971 159.358326 
L 153.265971 159.874377 
L 153.265971 159.131256 
L 151.947577 159.131256 
L 151.947577 160.176436 
L 151.947577 159.801016 
L 151.617979 159.801016 
L 151.617979 160.065277 
L 151.28838 160.065277 
L 151.28838 160.330856 
L 150.958782 160.330856 
L 150.958782 160.597763 
L 147.662796 160.597763 
L 147.662796 163.342116 
L 145.026008 163.342116 
L 145.026008 165.64105 
L 144.69641 165.64105 
L 144.69641 165.935205 
L 144.69641 164.391059 
L 144.366811 164.391059 
L 144.366811 164.685801 
L 143.707614 164.685801 
L 143.707614 165.280014 
L 143.707614 164.097876 
L 142.38922 164.097876 
L 142.38922 165.302561 
L 142.059622 165.302561 
L 142.059622 165.607847 
L 142.059622 165.208222 
L 141.730023 165.208222 
L 141.730023 165.514926 
L 141.730023 165.112843 
L 141.400425 165.112843 
L 141.400425 165.420978 
L 141.400425 165.016407 
L 141.070826 165.016407 
L 141.070826 165.325986 
L 141.070826 164.097876 
L 140.741228 164.097876 
L 140.741228 164.408353 
L 140.08203 164.408353 
L 140.08203 165.03457 
L 140.08203 161.648755 
L 139.422833 161.648755 
L 139.422833 162.277132 
L 139.422833 161.842164 
L 139.093235 161.842164 
L 139.093235 162.158755 
L 139.093235 160.837408 
L 138.763636 160.837408 
L 138.763636 161.154773 
L 138.763636 160.70873 
L 138.434038 160.70873 
L 138.434038 161.027602 
L 138.104439 161.027602 
L 138.104439 161.348377 
L 137.774841 161.348377 
L 137.774841 161.671072 
L 137.445242 161.671072 
L 137.445242 161.995706 
L 136.786045 161.995706 
L 136.786045 162.650858 
L 136.456447 162.650858 
L 136.456447 162.981413 
L 136.126848 162.981413 
L 136.126848 163.313976 
L 136.126848 157.218907 
L 135.79725 157.218907 
L 135.79725 157.547957 
L 135.79725 155.568239 
L 135.467651 155.568239 
L 135.467651 155.897272 
L 135.467651 155.393797 
L 135.138053 155.393797 
L 135.138053 155.7244 
L 135.138053 154.192466 
L 134.808454 154.192466 
L 134.808454 154.005489 
L 134.478856 154.005489 
L 134.478856 150.609484 
L 134.149257 150.609484 
L 134.149257 150.939557 
L 134.149257 148.72533 
L 133.49006 148.72533 
L 133.49006 149.386145 
L 133.49006 148.821389 
L 132.830863 148.821389 
L 132.830863 149.489834 
L 132.830863 148.919477 
L 132.501264 148.919477 
L 132.501264 149.256408 
L 132.171666 149.256408 
L 132.171666 149.595729 
L 132.171666 149.01966 
L 131.842067 149.01966 
L 131.842067 149.360559 
L 131.512469 149.360559 
L 131.512469 149.703902 
L 131.18287 149.703902 
L 131.18287 150.049714 
L 131.18287 146.48895 
L 130.853272 146.48895 
L 130.853272 146.831831 
L 130.523673 146.831831 
L 130.523673 147.177253 
L 130.194075 147.177253 
L 130.194075 147.525243 
L 130.194075 146.913505 
L 129.864476 146.913505 
L 129.864476 147.263113 
L 129.534878 147.263113 
L 129.534878 147.615351 
L 129.534878 146.997027 
L 129.205279 146.997027 
L 129.205279 147.350925 
L 128.875681 147.350925 
L 128.875681 147.707514 
L 128.546082 147.707514 
L 128.546082 148.066825 
L 128.216484 148.066825 
L 128.216484 148.42889 
L 128.216484 146.533051 
L 127.886885 146.533051 
L 127.886885 146.894782 
L 127.557287 146.894782 
L 127.557287 147.25934 
L 127.227688 147.25934 
L 127.227688 147.626757 
L 126.89809 147.626757 
L 126.89809 147.997067 
L 126.89809 144.042052 
L 126.568491 144.042052 
L 126.568491 144.408343 
L 126.238892 144.408343 
L 126.238892 144.777613 
L 125.909294 144.777613 
L 125.909294 145.149897 
L 124.920498 145.149897 
L 124.920498 146.28521 
L 124.5909 146.28521 
L 124.5909 146.669929 
L 124.261301 146.669929 
L 124.261301 147.057853 
L 123.931703 147.057853 
L 123.931703 147.449024 
L 123.931703 146.759856 
L 123.602104 146.759856 
L 123.602104 147.153071 
L 123.602104 141.412705 
L 123.272506 141.412705 
L 123.272506 141.797989 
L 123.272506 139.535681 
L 122.942907 139.535681 
L 122.942907 139.919466 
L 122.942907 131.059994 
L 122.613309 131.059994 
L 122.613309 131.425523 
L 122.613309 121.572285 
L 122.28371 121.572285 
L 122.28371 121.912307 
L 122.28371 115.037119 
L 121.624513 115.037119 
L 121.624513 115.680775 
L 121.624513 101.381486 
L 121.294915 101.381486 
L 121.294915 83.630318 
L 120.965316 83.630318 
L 120.965316 70.424408 
L 120.306119 70.535306 
L 120.306119 69.042183 
L 119.646922 69.146036 
L 119.646922 69.251293 
L 118.658126 69.357982 
L 118.658126 69.575775 
L 118.328528 69.575775 
L 118.328528 69.68694 
L 117.998929 69.68694 
L 117.998929 68.097749 
L 117.339732 68.200797 
L 117.339732 68.305317 
L 116.680535 68.305317 
L 116.680535 68.518901 
L 116.350937 68.518901 
L 116.350937 66.842421 
L 116.021338 66.842421 
L 116.021338 65.115897 
L 115.362141 65.202724 
L 115.362141 65.290866 
L 115.032543 65.290866 
L 115.032543 63.487348 
L 114.373346 63.564242 
L 114.373346 63.642338 
L 113.714149 63.721663 
L 113.714149 63.802248 
L 110.747762 63.884122 
L 110.747762 64.589498 
L 110.088565 64.684511 
L 110.088565 64.781176 
L 109.099769 64.879537 
L 109.099769 65.081529 
L 108.440572 65.185254 
L 108.440572 65.290866 
L 107.781375 65.290866 
L 107.781375 65.507956 
L 107.451777 65.507956 
L 107.451777 65.619544 
L 107.122178 65.619544 
L 107.122178 65.733238 
L 106.79258 65.733238 
L 106.79258 65.849097 
L 106.462981 65.849097 
L 106.462981 65.967185 
L 106.133383 65.967185 
L 106.133383 66.087565 
L 105.803784 66.087565 
L 105.803784 66.210306 
L 105.474186 66.210306 
L 105.474186 66.335477 
L 105.144587 66.335477 
L 105.144587 66.463152 
L 104.814988 66.463152 
L 104.814988 66.593406 
L 104.48539 66.593406 
L 104.48539 66.726319 
L 104.155791 66.726319 
L 104.155791 66.861971 
L 103.826193 66.861971 
L 103.826193 67.00045 
L 103.496594 67.00045 
L 103.496594 67.141844 
L 103.166996 67.141844 
L 103.166996 67.286247 
L 103.166996 61.977882 
L 102.507799 62.070298 
L 102.507799 62.164768 
L 101.848602 62.261361 
L 101.848602 62.360149 
L 101.848602 59.496806 
L 101.519003 59.496806 
L 101.519003 59.565745 
L 101.519003 56.602153 
L 100.200609 56.713159 
L 100.200609 56.751988 
L 97.893419 56.791788 
L 97.893419 57.053176 
L 96.904624 57.053176 
L 96.904624 57.200437 
L 95.256631 57.200437 
L 95.256631 57.475622 
L 95.256631 53.568 
L 73.832727 53.568 
L 73.832727 53.568 
" clip-path="url(#p0643ba36ad)" style="fill: none; stroke: #4c72b0; stroke-width: 1.5; stroke-linecap: round"/>
   </g>
   <g id="patch_3">
    <path d="M 57.6 307.584 
L 57.6 41.472 
" style="fill: none; stroke: #ffffff; stroke-width: 1.25; stroke-linejoin: miter; stroke-linecap: square"/>
   </g>
   <g id="patch_4">
    <path d="M 414.72 307.584 
L 414.72 41.472 
" style="fill: none; stroke: #ffffff; stroke-width: 1.25; stroke-linejoin: miter; stroke-linecap: square"/>
   </g>
   <g id="patch_5">
    <path d="M 57.6 307.584 
L 414.72 307.584 
" style="fill: none; stroke: #ffffff; stroke-width: 1.25; stroke-linejoin: miter; stroke-linecap: square"/>
   </g>
   <g id="patch_6">
    <path d="M 57.6 41.472 
L 414.72 41.472 
" style="fill: none; stroke: #ffffff; stroke-width: 1.25; stroke-linejoin: miter; stroke-linecap: square"/>
   </g>
   <g id="text_8">
    <!-- Precision-recall curve -->
    <g style="fill: #262626" transform="translate(44.206875 35.472)scale(0.36 -0.36)">
     <defs>
      <path id="DejaVuSans-2d" d="M 313 2009 
L 1997 2009 
L 1997 1497 
L 313 1497 
L 313 2009 
z
" transform="scale(0.015625)"/>
      <path id="DejaVuSans-75" d="M 544 1381 
L 544 3500 
L 1119 3500 
L 1119 1403 
Q 1119 906 1312 657 
Q 1506 409 1894 409 
Q 2359 409 2629 706 
Q 2900 1003 2900 1516 
L 2900 3500 
L 3475 3500 
L 3475 0 
L 2900 0 
L 2900 538 
Q 2691 219 2414 64 
Q 2138 -91 1772 -91 
Q 1169 -91 856 284 
Q 544 659 544 1381 
z
M 1991 3584 
L 1991 3584 
z
" transform="scale(0.015625)"/>
     </defs>
     <use xlink:href="#DejaVuSans-50"/>
     <use xlink:href="#DejaVuSans-72" x="58.552734"/>
     <use xlink:href="#DejaVuSans-65" x="97.416016"/>
     <use xlink:href="#DejaVuSans-63" x="158.939453"/>
     <use xlink:href="#DejaVuSans-69" x="213.919922"/>
     <use xlink:href="#DejaVuSans-73" x="241.703125"/>
     <use xlink:href="#DejaVuSans-69" x="293.802734"/>
     <use xlink:href="#DejaVuSans-6f" x="321.585938"/>
     <use xlink:href="#DejaVuSans-6e" x="382.767578"/>
     <use xlink:href="#DejaVuSans-2d" x="446.146484"/>
     <use xlink:href="#DejaVuSans-72" x="482.230469"/>
     <use xlink:href="#DejaVuSans-65" x="521.09375"/>
     <use xlink:href="#DejaVuSans-63" x="582.617188"/>
     <use xlink:href="#DejaVuSans-61" x="637.597656"/>
     <use xlink:href="#DejaVuSans-6c" x="698.876953"/>
     <use xlink:href="#DejaVuSans-6c" x="726.660156"/>
     <use xlink:href="#DejaVuSans-20" x="754.443359"/>
     <use xlink:href="#DejaVuSans-63" x="786.230469"/>
     <use xlink:href="#DejaVuSans-75" x="841.210938"/>
     <use xlink:href="#DejaVuSans-72" x="904.589844"/>
     <use xlink:href="#DejaVuSans-76" x="945.703125"/>
     <use xlink:href="#DejaVuSans-65" x="1004.882812"/>
    </g>
   </g>
   <g id="legend_1">
    <g id="patch_7">
     <path d="M 80.7 291.084 
L 635.445469 291.084 
Q 642.045469 291.084 642.045469 284.484 
L 642.045469 239.346187 
Q 642.045469 232.746187 635.445469 232.746187 
L 80.7 232.746187 
Q 74.1 232.746187 74.1 239.346187 
L 74.1 284.484 
Q 74.1 291.084 80.7 291.084 
z
" style="fill: #eaeaf2; opacity: 0.8; stroke: #cccccc; stroke-linejoin: miter"/>
    </g>
    <g id="line2d_7">
     <path d="M 87.3 259.471031 
L 120.3 259.471031 
L 120.3 259.471031 
L 153.3 259.471031 
L 153.3 259.471031 
" style="fill: none; stroke: #4c72b0; stroke-width: 1.5; stroke-linecap: round"/>
    </g>
    <g id="text_9">
     <!-- Random Forest (AP = 0.65) -->
     <g style="fill: #262626" transform="translate(179.7 271.021031)scale(0.33 -0.33)">
      <defs>
       <path id="DejaVuSans-64" d="M 2906 2969 
L 2906 4863 
L 3481 4863 
L 3481 0 
L 2906 0 
L 2906 525 
Q 2725 213 2448 61 
Q 2172 -91 1784 -91 
Q 1150 -91 751 415 
Q 353 922 353 1747 
Q 353 2572 751 3078 
Q 1150 3584 1784 3584 
Q 2172 3584 2448 3432 
Q 2725 3281 2906 2969 
z
M 947 1747 
Q 947 1113 1208 752 
Q 1469 391 1925 391 
Q 2381 391 2643 752 
Q 2906 1113 2906 1747 
Q 2906 2381 2643 2742 
Q 2381 3103 1925 3103 
Q 1469 3103 1208 2742 
Q 947 2381 947 1747 
z
" transform="scale(0.015625)"/>
       <path id="DejaVuSans-6d" d="M 3328 2828 
Q 3544 3216 3844 3400 
Q 4144 3584 4550 3584 
Q 5097 3584 5394 3201 
Q 5691 2819 5691 2113 
L 5691 0 
L 5113 0 
L 5113 2094 
Q 5113 2597 4934 2840 
Q 4756 3084 4391 3084 
Q 3944 3084 3684 2787 
Q 3425 2491 3425 1978 
L 3425 0 
L 2847 0 
L 2847 2094 
Q 2847 2600 2669 2842 
Q 2491 3084 2119 3084 
Q 1678 3084 1418 2786 
Q 1159 2488 1159 1978 
L 1159 0 
L 581 0 
L 581 3500 
L 1159 3500 
L 1159 2956 
Q 1356 3278 1631 3431 
Q 1906 3584 2284 3584 
Q 2666 3584 2933 3390 
Q 3200 3197 3328 2828 
z
" transform="scale(0.015625)"/>
       <path id="DejaVuSans-46" d="M 628 4666 
L 3309 4666 
L 3309 4134 
L 1259 4134 
L 1259 2759 
L 3109 2759 
L 3109 2228 
L 1259 2228 
L 1259 0 
L 628 0 
L 628 4666 
z
" transform="scale(0.015625)"/>
       <path id="DejaVuSans-41" d="M 2188 4044 
L 1331 1722 
L 3047 1722 
L 2188 4044 
z
M 1831 4666 
L 2547 4666 
L 4325 0 
L 3669 0 
L 3244 1197 
L 1141 1197 
L 716 0 
L 50 0 
L 1831 4666 
z
" transform="scale(0.015625)"/>
       <path id="DejaVuSans-3d" d="M 678 2906 
L 4684 2906 
L 4684 2381 
L 678 2381 
L 678 2906 
z
M 678 1631 
L 4684 1631 
L 4684 1100 
L 678 1100 
L 678 1631 
z
" transform="scale(0.015625)"/>
       <path id="DejaVuSans-36" d="M 2113 2584 
Q 1688 2584 1439 2293 
Q 1191 2003 1191 1497 
Q 1191 994 1439 701 
Q 1688 409 2113 409 
Q 2538 409 2786 701 
Q 3034 994 3034 1497 
Q 3034 2003 2786 2293 
Q 2538 2584 2113 2584 
z
M 3366 4563 
L 3366 3988 
Q 3128 4100 2886 4159 
Q 2644 4219 2406 4219 
Q 1781 4219 1451 3797 
Q 1122 3375 1075 2522 
Q 1259 2794 1537 2939 
Q 1816 3084 2150 3084 
Q 2853 3084 3261 2657 
Q 3669 2231 3669 1497 
Q 3669 778 3244 343 
Q 2819 -91 2113 -91 
Q 1303 -91 875 529 
Q 447 1150 447 2328 
Q 447 3434 972 4092 
Q 1497 4750 2381 4750 
Q 2619 4750 2861 4703 
Q 3103 4656 3366 4563 
z
" transform="scale(0.015625)"/>
      </defs>
      <use xlink:href="#DejaVuSans-52"/>
      <use xlink:href="#DejaVuSans-61" x="67.232422"/>
      <use xlink:href="#DejaVuSans-6e" x="128.511719"/>
      <use xlink:href="#DejaVuSans-64" x="191.890625"/>
      <use xlink:href="#DejaVuSans-6f" x="255.367188"/>
      <use xlink:href="#DejaVuSans-6d" x="316.548828"/>
      <use xlink:href="#DejaVuSans-20" x="413.960938"/>
      <use xlink:href="#DejaVuSans-46" x="445.748047"/>
      <use xlink:href="#DejaVuSans-6f" x="499.642578"/>
      <use xlink:href="#DejaVuSans-72" x="560.824219"/>
      <use xlink:href="#DejaVuSans-65" x="599.6875"/>
      <use xlink:href="#DejaVuSans-73" x="661.210938"/>
      <use xlink:href="#DejaVuSans-74" x="713.310547"/>
      <use xlink:href="#DejaVuSans-20" x="752.519531"/>
      <use xlink:href="#DejaVuSans-28" x="784.306641"/>
      <use xlink:href="#DejaVuSans-41" x="823.320312"/>
      <use xlink:href="#DejaVuSans-50" x="891.728516"/>
      <use xlink:href="#DejaVuSans-20" x="952.03125"/>
      <use xlink:href="#DejaVuSans-3d" x="983.818359"/>
      <use xlink:href="#DejaVuSans-20" x="1067.607422"/>
      <use xlink:href="#DejaVuSans-30" x="1099.394531"/>
      <use xlink:href="#DejaVuSans-2e" x="1163.017578"/>
      <use xlink:href="#DejaVuSans-36" x="1194.804688"/>
      <use xlink:href="#DejaVuSans-35" x="1258.427734"/>
      <use xlink:href="#DejaVuSans-29" x="1322.050781"/>
     </g>
    </g>
   </g>
  </g>
 </g>
 <defs>
  <clipPath id="p0643ba36ad">
   <rect x="57.6" y="41.472" width="357.12" height="266.112"/>
  </clipPath>
 </defs>
</svg>
