<?xml version="1.0" encoding="utf-8" standalone="no"?>
<!DOCTYPE svg PUBLIC "-//W3C//DTD SVG 1.1//EN"
  "http://www.w3.org/Graphics/SVG/1.1/DTD/svg11.dtd">
<svg xmlns:xlink="http://www.w3.org/1999/xlink" width="460.8pt" height="345.6pt" viewBox="0 0 460.8 345.6" xmlns="http://www.w3.org/2000/svg" version="1.1">
 <metadata>
  <rdf:RDF xmlns:dc="http://purl.org/dc/elements/1.1/" xmlns:cc="http://creativecommons.org/ns#" xmlns:rdf="http://www.w3.org/1999/02/22-rdf-syntax-ns#">
   <cc:Work>
    <dc:type rdf:resource="http://purl.org/dc/dcmitype/StillImage"/>
    <dc:date>2022-11-22T02:11:11.809575</dc:date>
    <dc:format>image/svg+xml</dc:format>
    <dc:creator>
     <cc:Agent>
      <dc:title>Matplotlib v3.5.2, https://matplotlib.org/</dc:title>
     </cc:Agent>
    </dc:creator>
   </cc:Work>
  </rdf:RDF>
 </metadata>
 <defs>
  <style type="text/css">*{stroke-linejoin: round; stroke-linecap: butt}</style>
 </defs>
 <g id="figure_1">
  <g id="patch_1">
   <path d="M 0 345.6 
L 460.8 345.6 
L 460.8 0 
L 0 0 
z
" style="fill: #ffffff"/>
  </g>
  <g id="axes_1">
   <g id="patch_2">
    <path d="M 57.6 307.584 
L 414.72 307.584 
L 414.72 41.472 
L 57.6 41.472 
z
" style="fill: #eaeaf2"/>
   </g>
   <g id="matplotlib.axis_1">
    <g id="xtick_1">
     <g id="line2d_1">
      <path d="M 73.832727 307.584 
L 73.832727 41.472 
" clip-path="url(#p510cfa6d05)" style="fill: none; stroke: #ffffff; stroke-linecap: round"/>
     </g>
     <g id="text_1">
      <!-- 0.0 -->
      <g style="fill: #262626" transform="translate(47.592571 342.158844)scale(0.33 -0.33)">
       <defs>
        <path id="DejaVuSans-30" d="M 2034 4250 
Q 1547 4250 1301 3770 
Q 1056 3291 1056 2328 
Q 1056 1369 1301 889 
Q 1547 409 2034 409 
Q 2525 409 2770 889 
Q 3016 1369 3016 2328 
Q 3016 3291 2770 3770 
Q 2525 4250 2034 4250 
z
M 2034 4750 
Q 2819 4750 3233 4129 
Q 3647 3509 3647 2328 
Q 3647 1150 3233 529 
Q 2819 -91 2034 -91 
Q 1250 -91 836 529 
Q 422 1150 422 2328 
Q 422 3509 836 4129 
Q 1250 4750 2034 4750 
z
" transform="scale(0.015625)"/>
        <path id="DejaVuSans-2e" d="M 684 794 
L 1344 794 
L 1344 0 
L 684 0 
L 684 794 
z
" transform="scale(0.015625)"/>
       </defs>
       <use xlink:href="#DejaVuSans-30"/>
       <use xlink:href="#DejaVuSans-2e" x="63.623047"/>
       <use xlink:href="#DejaVuSans-30" x="95.410156"/>
      </g>
     </g>
    </g>
    <g id="xtick_2">
     <g id="line2d_2">
      <path d="M 236.16 307.584 
L 236.16 41.472 
" clip-path="url(#p510cfa6d05)" style="fill: none; stroke: #ffffff; stroke-linecap: round"/>
     </g>
     <g id="text_2">
      <!-- 0.5 -->
      <g style="fill: #262626" transform="translate(209.919844 342.158844)scale(0.33 -0.33)">
       <defs>
        <path id="DejaVuSans-35" d="M 691 4666 
L 3169 4666 
L 3169 4134 
L 1269 4134 
L 1269 2991 
Q 1406 3038 1543 3061 
Q 1681 3084 1819 3084 
Q 2600 3084 3056 2656 
Q 3513 2228 3513 1497 
Q 3513 744 3044 326 
Q 2575 -91 1722 -91 
Q 1428 -91 1123 -41 
Q 819 9 494 109 
L 494 744 
Q 775 591 1075 516 
Q 1375 441 1709 441 
Q 2250 441 2565 725 
Q 2881 1009 2881 1497 
Q 2881 1984 2565 2268 
Q 2250 2553 1709 2553 
Q 1456 2553 1204 2497 
Q 953 2441 691 2322 
L 691 4666 
z
" transform="scale(0.015625)"/>
       </defs>
       <use xlink:href="#DejaVuSans-30"/>
       <use xlink:href="#DejaVuSans-2e" x="63.623047"/>
       <use xlink:href="#DejaVuSans-35" x="95.410156"/>
      </g>
     </g>
    </g>
    <g id="xtick_3">
     <g id="line2d_3">
      <path d="M 398.487273 307.584 
L 398.487273 41.472 
" clip-path="url(#p510cfa6d05)" style="fill: none; stroke: #ffffff; stroke-linecap: round"/>
     </g>
     <g id="text_3">
      <!-- 1.0 -->
      <g style="fill: #262626" transform="translate(372.247116 342.158844)scale(0.33 -0.33)">
       <defs>
        <path id="DejaVuSans-31" d="M 794 531 
L 1825 531 
L 1825 4091 
L 703 3866 
L 703 4441 
L 1819 4666 
L 2450 4666 
L 2450 531 
L 3481 531 
L 3481 0 
L 794 0 
L 794 531 
z
" transform="scale(0.015625)"/>
       </defs>
       <use xlink:href="#DejaVuSans-31"/>
       <use xlink:href="#DejaVuSans-2e" x="63.623047"/>
       <use xlink:href="#DejaVuSans-30" x="95.410156"/>
      </g>
     </g>
    </g>
    <g id="text_4">
     <!-- Recall (Positive label: 1.0) -->
     <g style="fill: #262626" transform="translate(3.647813 380.376187)scale(0.36 -0.36)">
      <defs>
       <path id="DejaVuSans-52" d="M 2841 2188 
Q 3044 2119 3236 1894 
Q 3428 1669 3622 1275 
L 4263 0 
L 3584 0 
L 2988 1197 
Q 2756 1666 2539 1819 
Q 2322 1972 1947 1972 
L 1259 1972 
L 1259 0 
L 628 0 
L 628 4666 
L 2053 4666 
Q 2853 4666 3247 4331 
Q 3641 3997 3641 3322 
Q 3641 2881 3436 2590 
Q 3231 2300 2841 2188 
z
M 1259 4147 
L 1259 2491 
L 2053 2491 
Q 2509 2491 2742 2702 
Q 2975 2913 2975 3322 
Q 2975 3731 2742 3939 
Q 2509 4147 2053 4147 
L 1259 4147 
z
" transform="scale(0.015625)"/>
       <path id="DejaVuSans-65" d="M 3597 1894 
L 3597 1613 
L 953 1613 
Q 991 1019 1311 708 
Q 1631 397 2203 397 
Q 2534 397 2845 478 
Q 3156 559 3463 722 
L 3463 178 
Q 3153 47 2828 -22 
Q 2503 -91 2169 -91 
Q 1331 -91 842 396 
Q 353 884 353 1716 
Q 353 2575 817 3079 
Q 1281 3584 2069 3584 
Q 2775 3584 3186 3129 
Q 3597 2675 3597 1894 
z
M 3022 2063 
Q 3016 2534 2758 2815 
Q 2500 3097 2075 3097 
Q 1594 3097 1305 2825 
Q 1016 2553 972 2059 
L 3022 2063 
z
" transform="scale(0.015625)"/>
       <path id="DejaVuSans-63" d="M 3122 3366 
L 3122 2828 
Q 2878 2963 2633 3030 
Q 2388 3097 2138 3097 
Q 1578 3097 1268 2742 
Q 959 2388 959 1747 
Q 959 1106 1268 751 
Q 1578 397 2138 397 
Q 2388 397 2633 464 
Q 2878 531 3122 666 
L 3122 134 
Q 2881 22 2623 -34 
Q 2366 -91 2075 -91 
Q 1284 -91 818 406 
Q 353 903 353 1747 
Q 353 2603 823 3093 
Q 1294 3584 2113 3584 
Q 2378 3584 2631 3529 
Q 2884 3475 3122 3366 
z
" transform="scale(0.015625)"/>
       <path id="DejaVuSans-61" d="M 2194 1759 
Q 1497 1759 1228 1600 
Q 959 1441 959 1056 
Q 959 750 1161 570 
Q 1363 391 1709 391 
Q 2188 391 2477 730 
Q 2766 1069 2766 1631 
L 2766 1759 
L 2194 1759 
z
M 3341 1997 
L 3341 0 
L 2766 0 
L 2766 531 
Q 2569 213 2275 61 
Q 1981 -91 1556 -91 
Q 1019 -91 701 211 
Q 384 513 384 1019 
Q 384 1609 779 1909 
Q 1175 2209 1959 2209 
L 2766 2209 
L 2766 2266 
Q 2766 2663 2505 2880 
Q 2244 3097 1772 3097 
Q 1472 3097 1187 3025 
Q 903 2953 641 2809 
L 641 3341 
Q 956 3463 1253 3523 
Q 1550 3584 1831 3584 
Q 2591 3584 2966 3190 
Q 3341 2797 3341 1997 
z
" transform="scale(0.015625)"/>
       <path id="DejaVuSans-6c" d="M 603 4863 
L 1178 4863 
L 1178 0 
L 603 0 
L 603 4863 
z
" transform="scale(0.015625)"/>
       <path id="DejaVuSans-20" transform="scale(0.015625)"/>
       <path id="DejaVuSans-28" d="M 1984 4856 
Q 1566 4138 1362 3434 
Q 1159 2731 1159 2009 
Q 1159 1288 1364 580 
Q 1569 -128 1984 -844 
L 1484 -844 
Q 1016 -109 783 600 
Q 550 1309 550 2009 
Q 550 2706 781 3412 
Q 1013 4119 1484 4856 
L 1984 4856 
z
" transform="scale(0.015625)"/>
       <path id="DejaVuSans-50" d="M 1259 4147 
L 1259 2394 
L 2053 2394 
Q 2494 2394 2734 2622 
Q 2975 2850 2975 3272 
Q 2975 3691 2734 3919 
Q 2494 4147 2053 4147 
L 1259 4147 
z
M 628 4666 
L 2053 4666 
Q 2838 4666 3239 4311 
Q 3641 3956 3641 3272 
Q 3641 2581 3239 2228 
Q 2838 1875 2053 1875 
L 1259 1875 
L 1259 0 
L 628 0 
L 628 4666 
z
" transform="scale(0.015625)"/>
       <path id="DejaVuSans-6f" d="M 1959 3097 
Q 1497 3097 1228 2736 
Q 959 2375 959 1747 
Q 959 1119 1226 758 
Q 1494 397 1959 397 
Q 2419 397 2687 759 
Q 2956 1122 2956 1747 
Q 2956 2369 2687 2733 
Q 2419 3097 1959 3097 
z
M 1959 3584 
Q 2709 3584 3137 3096 
Q 3566 2609 3566 1747 
Q 3566 888 3137 398 
Q 2709 -91 1959 -91 
Q 1206 -91 779 398 
Q 353 888 353 1747 
Q 353 2609 779 3096 
Q 1206 3584 1959 3584 
z
" transform="scale(0.015625)"/>
       <path id="DejaVuSans-73" d="M 2834 3397 
L 2834 2853 
Q 2591 2978 2328 3040 
Q 2066 3103 1784 3103 
Q 1356 3103 1142 2972 
Q 928 2841 928 2578 
Q 928 2378 1081 2264 
Q 1234 2150 1697 2047 
L 1894 2003 
Q 2506 1872 2764 1633 
Q 3022 1394 3022 966 
Q 3022 478 2636 193 
Q 2250 -91 1575 -91 
Q 1294 -91 989 -36 
Q 684 19 347 128 
L 347 722 
Q 666 556 975 473 
Q 1284 391 1588 391 
Q 1994 391 2212 530 
Q 2431 669 2431 922 
Q 2431 1156 2273 1281 
Q 2116 1406 1581 1522 
L 1381 1569 
Q 847 1681 609 1914 
Q 372 2147 372 2553 
Q 372 3047 722 3315 
Q 1072 3584 1716 3584 
Q 2034 3584 2315 3537 
Q 2597 3491 2834 3397 
z
" transform="scale(0.015625)"/>
       <path id="DejaVuSans-69" d="M 603 3500 
L 1178 3500 
L 1178 0 
L 603 0 
L 603 3500 
z
M 603 4863 
L 1178 4863 
L 1178 4134 
L 603 4134 
L 603 4863 
z
" transform="scale(0.015625)"/>
       <path id="DejaVuSans-74" d="M 1172 4494 
L 1172 3500 
L 2356 3500 
L 2356 3053 
L 1172 3053 
L 1172 1153 
Q 1172 725 1289 603 
Q 1406 481 1766 481 
L 2356 481 
L 2356 0 
L 1766 0 
Q 1100 0 847 248 
Q 594 497 594 1153 
L 594 3053 
L 172 3053 
L 172 3500 
L 594 3500 
L 594 4494 
L 1172 4494 
z
" transform="scale(0.015625)"/>
       <path id="DejaVuSans-76" d="M 191 3500 
L 800 3500 
L 1894 563 
L 2988 3500 
L 3597 3500 
L 2284 0 
L 1503 0 
L 191 3500 
z
" transform="scale(0.015625)"/>
       <path id="DejaVuSans-62" d="M 3116 1747 
Q 3116 2381 2855 2742 
Q 2594 3103 2138 3103 
Q 1681 3103 1420 2742 
Q 1159 2381 1159 1747 
Q 1159 1113 1420 752 
Q 1681 391 2138 391 
Q 2594 391 2855 752 
Q 3116 1113 3116 1747 
z
M 1159 2969 
Q 1341 3281 1617 3432 
Q 1894 3584 2278 3584 
Q 2916 3584 3314 3078 
Q 3713 2572 3713 1747 
Q 3713 922 3314 415 
Q 2916 -91 2278 -91 
Q 1894 -91 1617 61 
Q 1341 213 1159 525 
L 1159 0 
L 581 0 
L 581 4863 
L 1159 4863 
L 1159 2969 
z
" transform="scale(0.015625)"/>
       <path id="DejaVuSans-3a" d="M 750 794 
L 1409 794 
L 1409 0 
L 750 0 
L 750 794 
z
M 750 3309 
L 1409 3309 
L 1409 2516 
L 750 2516 
L 750 3309 
z
" transform="scale(0.015625)"/>
       <path id="DejaVuSans-29" d="M 513 4856 
L 1013 4856 
Q 1481 4119 1714 3412 
Q 1947 2706 1947 2009 
Q 1947 1309 1714 600 
Q 1481 -109 1013 -844 
L 513 -844 
Q 928 -128 1133 580 
Q 1338 1288 1338 2009 
Q 1338 2731 1133 3434 
Q 928 4138 513 4856 
z
" transform="scale(0.015625)"/>
      </defs>
      <use xlink:href="#DejaVuSans-52"/>
      <use xlink:href="#DejaVuSans-65" x="64.982422"/>
      <use xlink:href="#DejaVuSans-63" x="126.505859"/>
      <use xlink:href="#DejaVuSans-61" x="181.486328"/>
      <use xlink:href="#DejaVuSans-6c" x="242.765625"/>
      <use xlink:href="#DejaVuSans-6c" x="270.548828"/>
      <use xlink:href="#DejaVuSans-20" x="298.332031"/>
      <use xlink:href="#DejaVuSans-28" x="330.119141"/>
      <use xlink:href="#DejaVuSans-50" x="369.132812"/>
      <use xlink:href="#DejaVuSans-6f" x="425.810547"/>
      <use xlink:href="#DejaVuSans-73" x="486.992188"/>
      <use xlink:href="#DejaVuSans-69" x="539.091797"/>
      <use xlink:href="#DejaVuSans-74" x="566.875"/>
      <use xlink:href="#DejaVuSans-69" x="606.083984"/>
      <use xlink:href="#DejaVuSans-76" x="633.867188"/>
      <use xlink:href="#DejaVuSans-65" x="693.046875"/>
      <use xlink:href="#DejaVuSans-20" x="754.570312"/>
      <use xlink:href="#DejaVuSans-6c" x="786.357422"/>
      <use xlink:href="#DejaVuSans-61" x="814.140625"/>
      <use xlink:href="#DejaVuSans-62" x="875.419922"/>
      <use xlink:href="#DejaVuSans-65" x="938.896484"/>
      <use xlink:href="#DejaVuSans-6c" x="1000.419922"/>
      <use xlink:href="#DejaVuSans-3a" x="1028.203125"/>
      <use xlink:href="#DejaVuSans-20" x="1061.894531"/>
      <use xlink:href="#DejaVuSans-31" x="1093.681641"/>
      <use xlink:href="#DejaVuSans-2e" x="1157.304688"/>
      <use xlink:href="#DejaVuSans-30" x="1189.091797"/>
      <use xlink:href="#DejaVuSans-29" x="1252.714844"/>
     </g>
    </g>
   </g>
   <g id="matplotlib.axis_2">
    <g id="ytick_1">
     <g id="line2d_4">
      <path d="M 57.6 184.143366 
L 414.72 184.143366 
" clip-path="url(#p510cfa6d05)" style="fill: none; stroke: #ffffff; stroke-linecap: round"/>
     </g>
     <g id="text_5">
      <!-- 0.5 -->
      <g style="fill: #262626" transform="translate(-4.380313 196.680788)scale(0.33 -0.33)">
       <use xlink:href="#DejaVuSans-30"/>
       <use xlink:href="#DejaVuSans-2e" x="63.623047"/>
       <use xlink:href="#DejaVuSans-35" x="95.410156"/>
      </g>
     </g>
    </g>
    <g id="ytick_2">
     <g id="line2d_5">
      <path d="M 57.6 53.568 
L 414.72 53.568 
" clip-path="url(#p510cfa6d05)" style="fill: none; stroke: #ffffff; stroke-linecap: round"/>
     </g>
     <g id="text_6">
      <!-- 1.0 -->
      <g style="fill: #262626" transform="translate(-4.380313 66.105422)scale(0.33 -0.33)">
       <use xlink:href="#DejaVuSans-31"/>
       <use xlink:href="#DejaVuSans-2e" x="63.623047"/>
       <use xlink:href="#DejaVuSans-30" x="95.410156"/>
      </g>
     </g>
    </g>
    <g id="text_7">
     <!-- Precision (Positive label: 1.0) -->
     <g style="fill: #262626" transform="translate(-15.867188 433.643625)rotate(-90)scale(0.36 -0.36)">
      <defs>
       <path id="DejaVuSans-72" d="M 2631 2963 
Q 2534 3019 2420 3045 
Q 2306 3072 2169 3072 
Q 1681 3072 1420 2755 
Q 1159 2438 1159 1844 
L 1159 0 
L 581 0 
L 581 3500 
L 1159 3500 
L 1159 2956 
Q 1341 3275 1631 3429 
Q 1922 3584 2338 3584 
Q 2397 3584 2469 3576 
Q 2541 3569 2628 3553 
L 2631 2963 
z
" transform="scale(0.015625)"/>
       <path id="DejaVuSans-6e" d="M 3513 2113 
L 3513 0 
L 2938 0 
L 2938 2094 
Q 2938 2591 2744 2837 
Q 2550 3084 2163 3084 
Q 1697 3084 1428 2787 
Q 1159 2491 1159 1978 
L 1159 0 
L 581 0 
L 581 3500 
L 1159 3500 
L 1159 2956 
Q 1366 3272 1645 3428 
Q 1925 3584 2291 3584 
Q 2894 3584 3203 3211 
Q 3513 2838 3513 2113 
z
" transform="scale(0.015625)"/>
      </defs>
      <use xlink:href="#DejaVuSans-50"/>
      <use xlink:href="#DejaVuSans-72" x="58.552734"/>
      <use xlink:href="#DejaVuSans-65" x="97.416016"/>
      <use xlink:href="#DejaVuSans-63" x="158.939453"/>
      <use xlink:href="#DejaVuSans-69" x="213.919922"/>
      <use xlink:href="#DejaVuSans-73" x="241.703125"/>
      <use xlink:href="#DejaVuSans-69" x="293.802734"/>
      <use xlink:href="#DejaVuSans-6f" x="321.585938"/>
      <use xlink:href="#DejaVuSans-6e" x="382.767578"/>
      <use xlink:href="#DejaVuSans-20" x="446.146484"/>
      <use xlink:href="#DejaVuSans-28" x="477.933594"/>
      <use xlink:href="#DejaVuSans-50" x="516.947266"/>
      <use xlink:href="#DejaVuSans-6f" x="573.625"/>
      <use xlink:href="#DejaVuSans-73" x="634.806641"/>
      <use xlink:href="#DejaVuSans-69" x="686.90625"/>
      <use xlink:href="#DejaVuSans-74" x="714.689453"/>
      <use xlink:href="#DejaVuSans-69" x="753.898438"/>
      <use xlink:href="#DejaVuSans-76" x="781.681641"/>
      <use xlink:href="#DejaVuSans-65" x="840.861328"/>
      <use xlink:href="#DejaVuSans-20" x="902.384766"/>
      <use xlink:href="#DejaVuSans-6c" x="934.171875"/>
      <use xlink:href="#DejaVuSans-61" x="961.955078"/>
      <use xlink:href="#DejaVuSans-62" x="1023.234375"/>
      <use xlink:href="#DejaVuSans-65" x="1086.710938"/>
      <use xlink:href="#DejaVuSans-6c" x="1148.234375"/>
      <use xlink:href="#DejaVuSans-3a" x="1176.017578"/>
      <use xlink:href="#DejaVuSans-20" x="1209.708984"/>
      <use xlink:href="#DejaVuSans-31" x="1241.496094"/>
      <use xlink:href="#DejaVuSans-2e" x="1305.119141"/>
      <use xlink:href="#DejaVuSans-30" x="1336.90625"/>
      <use xlink:href="#DejaVuSans-29" x="1400.529297"/>
     </g>
    </g>
   </g>
   <g id="line2d_6">
    <path d="M 398.487273 295.488 
L 398.487273 117.494214 
L 398.21144 117.388073 
L 398.21144 117.281727 
L 397.935608 117.238716 
L 397.935608 117.132055 
L 397.659776 117.025187 
L 397.659776 116.981899 
L 397.383944 116.874714 
L 397.383944 116.831259 
L 396.556447 116.741445 
L 396.556447 116.697762 
L 395.866866 116.586835 
L 395.866866 116.478498 
L 395.03937 116.387179 
L 395.03937 116.34298 
L 394.073957 116.271512 
L 394.073957 116.097049 
L 393.384376 116.048763 
L 393.384376 115.938756 
L 392.970628 115.849013 
L 392.970628 115.738556 
L 391.867299 115.685122 
L 391.867299 115.574027 
L 391.453551 115.483207 
L 391.453551 115.437706 
L 391.315635 115.437706 
L 391.315635 115.326034 
L 390.901886 115.234613 
L 390.901886 115.188811 
L 389.660641 115.086991 
L 389.660641 115.040877 
L 389.246893 114.948463 
L 389.246893 114.902163 
L 388.419396 114.803948 
L 388.419396 114.757396 
L 387.867732 114.684648 
L 387.867732 114.637905 
L 387.316067 114.564784 
L 387.316067 114.517851 
L 386.902319 114.423794 
L 386.902319 114.37667 
L 386.350654 114.282231 
L 386.350654 114.051537 
L 385.79899 114.024483 
L 385.79899 113.929148 
L 385.247325 113.833554 
L 385.247325 113.600604 
L 384.833577 113.552452 
L 384.833577 113.45595 
L 384.419829 113.359184 
L 384.419829 113.310702 
L 383.454416 113.205787 
L 383.454416 113.108212 
L 382.626919 113.002305 
L 382.626919 112.953208 
L 381.799422 112.846505 
L 381.799422 112.797131 
L 381.385674 112.698176 
L 381.385674 112.648596 
L 380.971926 112.598947 
L 380.971926 112.499441 
L 380.420261 112.42015 
L 380.420261 112.370152 
L 380.006513 112.269945 
L 380.006513 112.219736 
L 378.903184 112.150709 
L 378.903184 112.100206 
L 378.489435 111.998986 
L 378.489435 111.948269 
L 377.524023 111.857285 
L 377.524023 111.806272 
L 376.420694 111.735072 
L 376.420694 111.683755 
L 376.006945 111.580902 
L 376.006945 111.529366 
L 375.593197 111.426075 
L 375.593197 111.374319 
L 375.179449 111.322489 
L 375.179449 111.218607 
L 374.489868 111.155563 
L 374.489868 111.103355 
L 373.938203 111.071652 
L 373.938203 110.966852 
L 373.524455 110.861751 
L 373.524455 110.809088 
L 373.110707 110.703533 
L 373.110707 110.650641 
L 372.696958 110.544629 
L 372.696958 110.491509 
L 371.731546 110.39334 
L 371.731546 110.339898 
L 371.317797 110.232782 
L 371.317797 110.179106 
L 370.904049 110.071522 
L 370.904049 110.017612 
L 370.4903 109.909557 
L 370.4903 109.855412 
L 369.938636 109.767409 
L 369.938636 109.71302 
L 369.386971 109.624531 
L 369.386971 109.569898 
L 368.973223 109.460392 
L 368.973223 109.405519 
L 368.559475 109.295529 
L 368.559475 109.240413 
L 368.00781 109.150432 
L 368.00781 109.095066 
L 367.31823 109.025092 
L 367.31823 108.96947 
L 366.766565 108.878485 
L 366.766565 108.822609 
L 366.490733 108.76665 
L 366.490733 108.710608 
L 366.214901 108.654483 
L 366.214901 108.598273 
L 365.939069 108.541981 
L 365.939069 108.485604 
L 364.83574 108.397925 
L 364.83574 108.341187 
L 364.559907 108.284364 
L 364.559907 108.227456 
L 364.284075 108.170462 
L 364.284075 108.113382 
L 364.008243 108.056217 
L 364.008243 107.998965 
L 363.732411 107.941628 
L 363.732411 107.884204 
L 363.456578 107.826693 
L 363.456578 107.769095 
L 363.180746 107.711411 
L 363.180746 107.653639 
L 362.629082 107.558269 
L 362.629082 107.500228 
L 362.353249 107.442099 
L 362.353249 107.383881 
L 361.939501 107.325576 
L 361.939501 107.208698 
L 361.663669 107.150126 
L 361.663669 107.091464 
L 361.387837 107.032713 
L 361.387837 106.973873 
L 361.112004 106.914942 
L 361.112004 106.855922 
L 360.284508 106.778337 
L 360.284508 106.659633 
L 360.008675 106.600145 
L 360.008675 106.540565 
L 359.457011 106.441474 
L 359.457011 106.381611 
L 359.181179 106.321656 
L 359.181179 106.261608 
L 358.905346 106.201468 
L 358.905346 106.141235 
L 358.491598 106.141235 
L 358.491598 105.959975 
L 357.802017 105.919659 
L 357.802017 105.737249 
L 357.526185 105.676256 
L 357.526185 105.615168 
L 357.250353 105.553985 
L 357.250353 105.492707 
L 356.560772 105.410349 
L 356.560772 105.348767 
L 356.28494 105.287088 
L 356.28494 105.225313 
L 356.009108 105.163441 
L 356.009108 105.101471 
L 355.733276 105.039405 
L 355.733276 104.97724 
L 355.457443 104.914978 
L 355.457443 104.852618 
L 354.629947 104.788171 
L 354.629947 104.725489 
L 354.354114 104.662709 
L 354.354114 104.599828 
L 353.664534 104.514138 
L 353.664534 104.45094 
L 353.388702 104.387642 
L 353.388702 104.324243 
L 353.112869 104.260744 
L 353.112869 104.197143 
L 352.561205 104.089781 
L 352.561205 104.025866 
L 352.00954 103.917861 
L 352.00954 103.853629 
L 351.457876 103.744976 
L 351.457876 103.680425 
L 351.182044 103.61577 
L 351.182044 103.551011 
L 350.906211 103.486148 
L 350.906211 103.42118 
L 350.630379 103.356108 
L 350.630379 103.290931 
L 350.354547 103.225648 
L 350.354547 103.16026 
L 350.078715 103.094766 
L 350.078715 103.029167 
L 349.664966 102.983475 
L 349.664966 102.917652 
L 349.389134 102.851722 
L 349.389134 102.785685 
L 348.975386 102.71954 
L 348.975386 102.586928 
L 348.699554 102.52046 
L 348.699554 102.453883 
L 348.285805 102.387198 
L 348.285805 102.2535 
L 348.009973 102.186487 
L 348.009973 102.119365 
L 347.734141 102.052132 
L 347.734141 101.984789 
L 347.458308 101.917335 
L 347.458308 101.849771 
L 347.182476 101.782095 
L 347.182476 101.714308 
L 346.906644 101.646409 
L 346.906644 101.578398 
L 346.630812 101.510276 
L 346.630812 101.44204 
L 346.217063 101.393455 
L 346.217063 101.324981 
L 345.941231 101.256395 
L 345.941231 101.187694 
L 345.527483 101.138611 
L 345.527483 101.06967 
L 345.251651 101.000614 
L 345.251651 100.931444 
L 344.975818 100.862158 
L 344.975818 100.792757 
L 344.699986 100.723241 
L 344.699986 100.653608 
L 344.424154 100.653608 
L 344.424154 100.513993 
L 344.148322 100.44401 
L 344.148322 100.37391 
L 343.872489 100.303693 
L 343.872489 100.233357 
L 343.596657 100.162904 
L 343.596657 100.092332 
L 343.320825 100.092332 
L 343.320825 99.950832 
L 343.044993 99.879903 
L 343.044993 99.808855 
L 342.76916 99.737686 
L 342.76916 99.666398 
L 342.493328 99.594989 
L 342.493328 99.523459 
L 342.217496 99.451808 
L 342.217496 99.380035 
L 341.941664 99.308141 
L 341.941664 99.236125 
L 341.665831 99.236125 
L 341.665831 99.091725 
L 341.252083 99.038689 
L 341.252083 98.966167 
L 340.976251 98.893522 
L 340.976251 98.820752 
L 340.562503 98.747858 
L 340.562503 98.601695 
L 340.28667 98.528426 
L 340.28667 98.455031 
L 339.59709 98.455031 
L 339.59709 98.086162 
L 339.321257 98.012007 
L 339.321257 97.937723 
L 338.493761 97.937723 
L 338.493761 97.48932 
L 338.217928 97.414132 
L 338.217928 97.338813 
L 337.390432 97.244778 
L 337.390432 97.169016 
L 337.1146 97.093122 
L 337.1146 97.017096 
L 336.838767 97.017096 
L 336.838767 96.864644 
L 335.873354 96.788218 
L 335.873354 96.326835 
L 335.597522 96.249463 
L 335.597522 96.171955 
L 335.183774 96.113086 
L 335.183774 96.035287 
L 334.907942 95.957349 
L 334.907942 95.879274 
L 334.632109 95.80106 
L 334.632109 95.722708 
L 334.356277 95.644217 
L 334.356277 95.565586 
L 334.080445 95.486815 
L 334.080445 95.407904 
L 333.804613 95.328852 
L 333.804613 95.249659 
L 333.52878 95.170326 
L 333.52878 95.09085 
L 333.252948 95.011232 
L 333.252948 94.931472 
L 332.8392 94.851569 
L 332.8392 94.691332 
L 332.425451 94.610998 
L 332.425451 94.449896 
L 332.011703 94.369127 
L 332.011703 94.207153 
L 331.735871 94.125947 
L 331.735871 94.044593 
L 330.35671 93.963093 
L 330.35671 93.222899 
L 330.080877 93.139905 
L 330.080877 93.056759 
L 329.805045 92.97346 
L 329.805045 92.89001 
L 328.977548 92.824389 
L 328.977548 92.488348 
L 328.701716 92.403951 
L 328.701716 92.319399 
L 328.287968 92.252534 
L 328.287968 92.167646 
L 328.012136 92.082602 
L 328.012136 91.9974 
L 327.736303 91.91204 
L 327.736303 91.826522 
L 327.322555 91.758567 
L 327.322555 91.672707 
L 326.357142 91.622087 
L 326.357142 91.276213 
L 326.08131 91.18934 
L 326.08131 91.102305 
L 325.805478 91.015106 
L 325.805478 90.927744 
L 324.012568 90.927744 
L 324.012568 89.776933 
L 323.736736 89.687232 
L 323.736736 89.597359 
L 322.771323 89.597359 
L 322.771323 88.96343 
L 322.357575 88.889106 
L 322.357575 88.797648 
L 322.081742 88.706013 
L 322.081742 88.614202 
L 321.80591 88.614202 
L 321.80591 88.43005 
L 321.254246 88.337707 
L 321.254246 88.059606 
L 320.978414 87.966547 
L 320.978414 87.873307 
L 320.702581 87.779886 
L 320.702581 87.686284 
L 320.288833 87.686284 
L 320.288833 87.404383 
L 319.875085 87.31005 
L 319.875085 87.12083 
L 319.461336 87.025942 
L 319.461336 86.835609 
L 318.633839 86.740163 
L 318.633839 86.260107 
L 318.220091 86.163528 
L 318.220091 85.969796 
L 317.806343 85.872643 
L 317.806343 85.677758 
L 317.392594 85.677758 
L 317.392594 85.383977 
L 316.978846 85.383977 
L 316.978846 85.088438 
L 316.703014 85.088438 
L 316.703014 84.890427 
L 316.289265 84.890427 
L 316.289265 84.591922 
L 316.013433 84.492021 
L 316.013433 84.391919 
L 315.599685 84.391919 
L 315.599685 84.090403 
L 315.323853 83.989492 
L 315.323853 83.888378 
L 314.910104 83.787059 
L 314.910104 83.583806 
L 314.35844 83.583806 
L 314.35844 83.174819 
L 313.944691 83.087075 
L 313.944691 82.984061 
L 313.530943 82.984061 
L 313.530943 82.673756 
L 313.117195 82.569898 
L 313.117195 82.361542 
L 312.703446 82.361542 
L 312.703446 82.047401 
L 312.013866 81.956874 
L 312.013866 81.640017 
L 311.738034 81.53396 
L 311.738034 81.427685 
L 311.462201 81.427685 
L 311.462201 81.214471 
L 311.186369 81.214471 
L 311.186369 81.00037 
L 310.910537 80.892986 
L 310.910537 80.785377 
L 310.634705 80.785377 
L 310.634705 80.569486 
L 309.393459 80.569486 
L 309.393459 79.586708 
L 308.565963 79.586708 
L 308.565963 78.921095 
L 308.152214 78.921095 
L 308.152214 78.585101 
L 308.014298 78.585101 
L 308.014298 78.472625 
L 307.876382 78.472625 
L 307.876382 78.35991 
L 307.462634 78.35991 
L 307.462634 78.020316 
L 307.048885 78.020316 
L 307.048885 77.678535 
L 306.910969 77.678535 
L 306.910969 77.564118 
L 306.773053 77.564118 
L 306.773053 77.449455 
L 306.359305 77.449455 
L 306.359305 77.103981 
L 305.80764 77.103981 
L 305.80764 76.639853 
L 305.531808 76.639853 
L 305.531808 76.406277 
L 305.393892 76.406277 
L 305.393892 76.289108 
L 305.255976 76.289108 
L 305.255976 76.171683 
L 304.842228 76.171683 
L 304.842228 75.817871 
L 304.428479 75.817871 
L 304.428479 75.461733 
L 304.290563 75.461733 
L 304.290563 75.342499 
L 303.600982 75.342499 
L 303.600982 74.742384 
L 302.911402 74.742384 
L 302.911402 74.135612 
L 302.773486 74.135612 
L 302.773486 74.013449 
L 302.63557 74.013449 
L 302.63557 73.891014 
L 302.497654 73.891014 
L 302.497654 73.768307 
L 302.083905 73.768307 
L 302.083905 73.398541 
L 301.256408 73.398541 
L 301.256408 72.651527 
L 301.118492 72.651527 
L 301.118492 72.526044 
L 299.325583 72.526044 
L 299.325583 70.868677 
L 298.773918 70.868677 
L 298.773918 70.34877 
L 295.050183 70.34877 
L 295.050183 66.710577 
L 294.360602 66.710577 
L 294.360602 66.011156 
L 294.222686 66.011156 
L 294.222686 65.870271 
L 294.08477 65.870271 
L 294.08477 65.729049 
L 293.946854 65.729049 
L 293.946854 65.58749 
L 293.671022 65.58749 
L 293.671022 65.303353 
L 293.533106 65.303353 
L 293.533106 65.160774 
L 292.843525 65.160774 
L 292.843525 64.442714 
L 292.567693 64.442714 
L 292.567693 64.153057 
L 290.636867 64.153057 
L 290.636867 62.085532 
L 290.223119 62.085532 
L 290.223119 61.633186 
L 290.085203 61.633186 
L 290.085203 61.481659 
L 289.947287 61.481659 
L 289.947287 61.329756 
L 289.533538 61.329756 
L 289.533538 60.871781 
L 289.395622 60.871781 
L 289.395622 60.718362 
L 289.257706 60.718362 
L 289.257706 60.564562 
L 288.843958 60.568924 
L 288.843958 60.259988 
L 287.602713 60.259988 
L 287.602713 58.850442 
L 287.464796 58.850442 
L 287.464796 58.691843 
L 287.188964 58.691843 
L 287.188964 58.373439 
L 287.051048 58.373439 
L 287.051048 58.213629 
L 283.327313 58.213629 
L 283.327313 53.73981 
L 283.051481 53.739923 
L 283.051481 53.568 
L 73.832727 53.568 
L 73.832727 53.568 
" clip-path="url(#p510cfa6d05)" style="fill: none; stroke: #4c72b0; stroke-width: 1.5; stroke-linecap: round"/>
   </g>
   <g id="patch_3">
    <path d="M 57.6 307.584 
L 57.6 41.472 
" style="fill: none; stroke: #ffffff; stroke-width: 1.25; stroke-linejoin: miter; stroke-linecap: square"/>
   </g>
   <g id="patch_4">
    <path d="M 414.72 307.584 
L 414.72 41.472 
" style="fill: none; stroke: #ffffff; stroke-width: 1.25; stroke-linejoin: miter; stroke-linecap: square"/>
   </g>
   <g id="patch_5">
    <path d="M 57.6 307.584 
L 414.72 307.584 
" style="fill: none; stroke: #ffffff; stroke-width: 1.25; stroke-linejoin: miter; stroke-linecap: square"/>
   </g>
   <g id="patch_6">
    <path d="M 57.6 41.472 
L 414.72 41.472 
" style="fill: none; stroke: #ffffff; stroke-width: 1.25; stroke-linejoin: miter; stroke-linecap: square"/>
   </g>
   <g id="text_8">
    <!-- Precision-recall curve -->
    <g style="fill: #262626" transform="translate(44.206875 35.472)scale(0.36 -0.36)">
     <defs>
      <path id="DejaVuSans-2d" d="M 313 2009 
L 1997 2009 
L 1997 1497 
L 313 1497 
L 313 2009 
z
" transform="scale(0.015625)"/>
      <path id="DejaVuSans-75" d="M 544 1381 
L 544 3500 
L 1119 3500 
L 1119 1403 
Q 1119 906 1312 657 
Q 1506 409 1894 409 
Q 2359 409 2629 706 
Q 2900 1003 2900 1516 
L 2900 3500 
L 3475 3500 
L 3475 0 
L 2900 0 
L 2900 538 
Q 2691 219 2414 64 
Q 2138 -91 1772 -91 
Q 1169 -91 856 284 
Q 544 659 544 1381 
z
M 1991 3584 
L 1991 3584 
z
" transform="scale(0.015625)"/>
     </defs>
     <use xlink:href="#DejaVuSans-50"/>
     <use xlink:href="#DejaVuSans-72" x="58.552734"/>
     <use xlink:href="#DejaVuSans-65" x="97.416016"/>
     <use xlink:href="#DejaVuSans-63" x="158.939453"/>
     <use xlink:href="#DejaVuSans-69" x="213.919922"/>
     <use xlink:href="#DejaVuSans-73" x="241.703125"/>
     <use xlink:href="#DejaVuSans-69" x="293.802734"/>
     <use xlink:href="#DejaVuSans-6f" x="321.585938"/>
     <use xlink:href="#DejaVuSans-6e" x="382.767578"/>
     <use xlink:href="#DejaVuSans-2d" x="446.146484"/>
     <use xlink:href="#DejaVuSans-72" x="482.230469"/>
     <use xlink:href="#DejaVuSans-65" x="521.09375"/>
     <use xlink:href="#DejaVuSans-63" x="582.617188"/>
     <use xlink:href="#DejaVuSans-61" x="637.597656"/>
     <use xlink:href="#DejaVuSans-6c" x="698.876953"/>
     <use xlink:href="#DejaVuSans-6c" x="726.660156"/>
     <use xlink:href="#DejaVuSans-20" x="754.443359"/>
     <use xlink:href="#DejaVuSans-63" x="786.230469"/>
     <use xlink:href="#DejaVuSans-75" x="841.210938"/>
     <use xlink:href="#DejaVuSans-72" x="904.589844"/>
     <use xlink:href="#DejaVuSans-76" x="945.703125"/>
     <use xlink:href="#DejaVuSans-65" x="1004.882812"/>
    </g>
   </g>
   <g id="legend_1">
    <g id="patch_7">
     <path d="M 80.7 291.084 
L 635.445469 291.084 
Q 642.045469 291.084 642.045469 284.484 
L 642.045469 239.346187 
Q 642.045469 232.746187 635.445469 232.746187 
L 80.7 232.746187 
Q 74.1 232.746187 74.1 239.346187 
L 74.1 284.484 
Q 74.1 291.084 80.7 291.084 
z
" style="fill: #eaeaf2; opacity: 0.8; stroke: #cccccc; stroke-linejoin: miter"/>
    </g>
    <g id="line2d_7">
     <path d="M 87.3 259.471031 
L 120.3 259.471031 
L 120.3 259.471031 
L 153.3 259.471031 
L 153.3 259.471031 
" style="fill: none; stroke: #4c72b0; stroke-width: 1.5; stroke-linecap: round"/>
    </g>
    <g id="text_9">
     <!-- Random Forest (AP = 0.94) -->
     <g style="fill: #262626" transform="translate(179.7 271.021031)scale(0.33 -0.33)">
      <defs>
       <path id="DejaVuSans-64" d="M 2906 2969 
L 2906 4863 
L 3481 4863 
L 3481 0 
L 2906 0 
L 2906 525 
Q 2725 213 2448 61 
Q 2172 -91 1784 -91 
Q 1150 -91 751 415 
Q 353 922 353 1747 
Q 353 2572 751 3078 
Q 1150 3584 1784 3584 
Q 2172 3584 2448 3432 
Q 2725 3281 2906 2969 
z
M 947 1747 
Q 947 1113 1208 752 
Q 1469 391 1925 391 
Q 2381 391 2643 752 
Q 2906 1113 2906 1747 
Q 2906 2381 2643 2742 
Q 2381 3103 1925 3103 
Q 1469 3103 1208 2742 
Q 947 2381 947 1747 
z
" transform="scale(0.015625)"/>
       <path id="DejaVuSans-6d" d="M 3328 2828 
Q 3544 3216 3844 3400 
Q 4144 3584 4550 3584 
Q 5097 3584 5394 3201 
Q 5691 2819 5691 2113 
L 5691 0 
L 5113 0 
L 5113 2094 
Q 5113 2597 4934 2840 
Q 4756 3084 4391 3084 
Q 3944 3084 3684 2787 
Q 3425 2491 3425 1978 
L 3425 0 
L 2847 0 
L 2847 2094 
Q 2847 2600 2669 2842 
Q 2491 3084 2119 3084 
Q 1678 3084 1418 2786 
Q 1159 2488 1159 1978 
L 1159 0 
L 581 0 
L 581 3500 
L 1159 3500 
L 1159 2956 
Q 1356 3278 1631 3431 
Q 1906 3584 2284 3584 
Q 2666 3584 2933 3390 
Q 3200 3197 3328 2828 
z
" transform="scale(0.015625)"/>
       <path id="DejaVuSans-46" d="M 628 4666 
L 3309 4666 
L 3309 4134 
L 1259 4134 
L 1259 2759 
L 3109 2759 
L 3109 2228 
L 1259 2228 
L 1259 0 
L 628 0 
L 628 4666 
z
" transform="scale(0.015625)"/>
       <path id="DejaVuSans-41" d="M 2188 4044 
L 1331 1722 
L 3047 1722 
L 2188 4044 
z
M 1831 4666 
L 2547 4666 
L 4325 0 
L 3669 0 
L 3244 1197 
L 1141 1197 
L 716 0 
L 50 0 
L 1831 4666 
z
" transform="scale(0.015625)"/>
       <path id="DejaVuSans-3d" d="M 678 2906 
L 4684 2906 
L 4684 2381 
L 678 2381 
L 678 2906 
z
M 678 1631 
L 4684 1631 
L 4684 1100 
L 678 1100 
L 678 1631 
z
" transform="scale(0.015625)"/>
       <path id="DejaVuSans-39" d="M 703 97 
L 703 672 
Q 941 559 1184 500 
Q 1428 441 1663 441 
Q 2288 441 2617 861 
Q 2947 1281 2994 2138 
Q 2813 1869 2534 1725 
Q 2256 1581 1919 1581 
Q 1219 1581 811 2004 
Q 403 2428 403 3163 
Q 403 3881 828 4315 
Q 1253 4750 1959 4750 
Q 2769 4750 3195 4129 
Q 3622 3509 3622 2328 
Q 3622 1225 3098 567 
Q 2575 -91 1691 -91 
Q 1453 -91 1209 -44 
Q 966 3 703 97 
z
M 1959 2075 
Q 2384 2075 2632 2365 
Q 2881 2656 2881 3163 
Q 2881 3666 2632 3958 
Q 2384 4250 1959 4250 
Q 1534 4250 1286 3958 
Q 1038 3666 1038 3163 
Q 1038 2656 1286 2365 
Q 1534 2075 1959 2075 
z
" transform="scale(0.015625)"/>
       <path id="DejaVuSans-34" d="M 2419 4116 
L 825 1625 
L 2419 1625 
L 2419 4116 
z
M 2253 4666 
L 3047 4666 
L 3047 1625 
L 3713 1625 
L 3713 1100 
L 3047 1100 
L 3047 0 
L 2419 0 
L 2419 1100 
L 313 1100 
L 313 1709 
L 2253 4666 
z
" transform="scale(0.015625)"/>
      </defs>
      <use xlink:href="#DejaVuSans-52"/>
      <use xlink:href="#DejaVuSans-61" x="67.232422"/>
      <use xlink:href="#DejaVuSans-6e" x="128.511719"/>
      <use xlink:href="#DejaVuSans-64" x="191.890625"/>
      <use xlink:href="#DejaVuSans-6f" x="255.367188"/>
      <use xlink:href="#DejaVuSans-6d" x="316.548828"/>
      <use xlink:href="#DejaVuSans-20" x="413.960938"/>
      <use xlink:href="#DejaVuSans-46" x="445.748047"/>
      <use xlink:href="#DejaVuSans-6f" x="499.642578"/>
      <use xlink:href="#DejaVuSans-72" x="560.824219"/>
      <use xlink:href="#DejaVuSans-65" x="599.6875"/>
      <use xlink:href="#DejaVuSans-73" x="661.210938"/>
      <use xlink:href="#DejaVuSans-74" x="713.310547"/>
      <use xlink:href="#DejaVuSans-20" x="752.519531"/>
      <use xlink:href="#DejaVuSans-28" x="784.306641"/>
      <use xlink:href="#DejaVuSans-41" x="823.320312"/>
      <use xlink:href="#DejaVuSans-50" x="891.728516"/>
      <use xlink:href="#DejaVuSans-20" x="952.03125"/>
      <use xlink:href="#DejaVuSans-3d" x="983.818359"/>
      <use xlink:href="#DejaVuSans-20" x="1067.607422"/>
      <use xlink:href="#DejaVuSans-30" x="1099.394531"/>
      <use xlink:href="#DejaVuSans-2e" x="1163.017578"/>
      <use xlink:href="#DejaVuSans-39" x="1194.804688"/>
      <use xlink:href="#DejaVuSans-34" x="1258.427734"/>
      <use xlink:href="#DejaVuSans-29" x="1322.050781"/>
     </g>
    </g>
   </g>
  </g>
 </g>
 <defs>
  <clipPath id="p510cfa6d05">
   <rect x="57.6" y="41.472" width="357.12" height="266.112"/>
  </clipPath>
 </defs>
</svg>
