<?xml version="1.0" encoding="utf-8" standalone="no"?>
<!DOCTYPE svg PUBLIC "-//W3C//DTD SVG 1.1//EN"
  "http://www.w3.org/Graphics/SVG/1.1/DTD/svg11.dtd">
<svg xmlns:xlink="http://www.w3.org/1999/xlink" width="460.8pt" height="345.6pt" viewBox="0 0 460.8 345.6" xmlns="http://www.w3.org/2000/svg" version="1.1">
 <metadata>
  <rdf:RDF xmlns:dc="http://purl.org/dc/elements/1.1/" xmlns:cc="http://creativecommons.org/ns#" xmlns:rdf="http://www.w3.org/1999/02/22-rdf-syntax-ns#">
   <cc:Work>
    <dc:type rdf:resource="http://purl.org/dc/dcmitype/StillImage"/>
    <dc:date>2022-11-22T06:10:25.465367</dc:date>
    <dc:format>image/svg+xml</dc:format>
    <dc:creator>
     <cc:Agent>
      <dc:title>Matplotlib v3.5.2, https://matplotlib.org/</dc:title>
     </cc:Agent>
    </dc:creator>
   </cc:Work>
  </rdf:RDF>
 </metadata>
 <defs>
  <style type="text/css">*{stroke-linejoin: round; stroke-linecap: butt}</style>
 </defs>
 <g id="figure_1">
  <g id="patch_1">
   <path d="M 0 345.6 
L 460.8 345.6 
L 460.8 0 
L 0 0 
z
" style="fill: #ffffff"/>
  </g>
  <g id="axes_1">
   <g id="patch_2">
    <path d="M 57.6 307.584 
L 414.72 307.584 
L 414.72 41.472 
L 57.6 41.472 
z
" style="fill: #eaeaf2"/>
   </g>
   <g id="matplotlib.axis_1">
    <g id="xtick_1">
     <g id="line2d_1">
      <path d="M 73.832727 307.584 
L 73.832727 41.472 
" clip-path="url(#pe2383b700d)" style="fill: none; stroke: #ffffff; stroke-linecap: round"/>
     </g>
     <g id="text_1">
      <!-- 0.0 -->
      <g style="fill: #262626" transform="translate(47.592571 342.158844)scale(0.33 -0.33)">
       <defs>
        <path id="DejaVuSans-30" d="M 2034 4250 
Q 1547 4250 1301 3770 
Q 1056 3291 1056 2328 
Q 1056 1369 1301 889 
Q 1547 409 2034 409 
Q 2525 409 2770 889 
Q 3016 1369 3016 2328 
Q 3016 3291 2770 3770 
Q 2525 4250 2034 4250 
z
M 2034 4750 
Q 2819 4750 3233 4129 
Q 3647 3509 3647 2328 
Q 3647 1150 3233 529 
Q 2819 -91 2034 -91 
Q 1250 -91 836 529 
Q 422 1150 422 2328 
Q 422 3509 836 4129 
Q 1250 4750 2034 4750 
z
" transform="scale(0.015625)"/>
        <path id="DejaVuSans-2e" d="M 684 794 
L 1344 794 
L 1344 0 
L 684 0 
L 684 794 
z
" transform="scale(0.015625)"/>
       </defs>
       <use xlink:href="#DejaVuSans-30"/>
       <use xlink:href="#DejaVuSans-2e" x="63.623047"/>
       <use xlink:href="#DejaVuSans-30" x="95.410156"/>
      </g>
     </g>
    </g>
    <g id="xtick_2">
     <g id="line2d_2">
      <path d="M 236.16 307.584 
L 236.16 41.472 
" clip-path="url(#pe2383b700d)" style="fill: none; stroke: #ffffff; stroke-linecap: round"/>
     </g>
     <g id="text_2">
      <!-- 0.5 -->
      <g style="fill: #262626" transform="translate(209.919844 342.158844)scale(0.33 -0.33)">
       <defs>
        <path id="DejaVuSans-35" d="M 691 4666 
L 3169 4666 
L 3169 4134 
L 1269 4134 
L 1269 2991 
Q 1406 3038 1543 3061 
Q 1681 3084 1819 3084 
Q 2600 3084 3056 2656 
Q 3513 2228 3513 1497 
Q 3513 744 3044 326 
Q 2575 -91 1722 -91 
Q 1428 -91 1123 -41 
Q 819 9 494 109 
L 494 744 
Q 775 591 1075 516 
Q 1375 441 1709 441 
Q 2250 441 2565 725 
Q 2881 1009 2881 1497 
Q 2881 1984 2565 2268 
Q 2250 2553 1709 2553 
Q 1456 2553 1204 2497 
Q 953 2441 691 2322 
L 691 4666 
z
" transform="scale(0.015625)"/>
       </defs>
       <use xlink:href="#DejaVuSans-30"/>
       <use xlink:href="#DejaVuSans-2e" x="63.623047"/>
       <use xlink:href="#DejaVuSans-35" x="95.410156"/>
      </g>
     </g>
    </g>
    <g id="xtick_3">
     <g id="line2d_3">
      <path d="M 398.487273 307.584 
L 398.487273 41.472 
" clip-path="url(#pe2383b700d)" style="fill: none; stroke: #ffffff; stroke-linecap: round"/>
     </g>
     <g id="text_3">
      <!-- 1.0 -->
      <g style="fill: #262626" transform="translate(372.247116 342.158844)scale(0.33 -0.33)">
       <defs>
        <path id="DejaVuSans-31" d="M 794 531 
L 1825 531 
L 1825 4091 
L 703 3866 
L 703 4441 
L 1819 4666 
L 2450 4666 
L 2450 531 
L 3481 531 
L 3481 0 
L 794 0 
L 794 531 
z
" transform="scale(0.015625)"/>
       </defs>
       <use xlink:href="#DejaVuSans-31"/>
       <use xlink:href="#DejaVuSans-2e" x="63.623047"/>
       <use xlink:href="#DejaVuSans-30" x="95.410156"/>
      </g>
     </g>
    </g>
    <g id="text_4">
     <!-- Recall (Positive label: 1.0) -->
     <g style="fill: #262626" transform="translate(3.647813 380.376187)scale(0.36 -0.36)">
      <defs>
       <path id="DejaVuSans-52" d="M 2841 2188 
Q 3044 2119 3236 1894 
Q 3428 1669 3622 1275 
L 4263 0 
L 3584 0 
L 2988 1197 
Q 2756 1666 2539 1819 
Q 2322 1972 1947 1972 
L 1259 1972 
L 1259 0 
L 628 0 
L 628 4666 
L 2053 4666 
Q 2853 4666 3247 4331 
Q 3641 3997 3641 3322 
Q 3641 2881 3436 2590 
Q 3231 2300 2841 2188 
z
M 1259 4147 
L 1259 2491 
L 2053 2491 
Q 2509 2491 2742 2702 
Q 2975 2913 2975 3322 
Q 2975 3731 2742 3939 
Q 2509 4147 2053 4147 
L 1259 4147 
z
" transform="scale(0.015625)"/>
       <path id="DejaVuSans-65" d="M 3597 1894 
L 3597 1613 
L 953 1613 
Q 991 1019 1311 708 
Q 1631 397 2203 397 
Q 2534 397 2845 478 
Q 3156 559 3463 722 
L 3463 178 
Q 3153 47 2828 -22 
Q 2503 -91 2169 -91 
Q 1331 -91 842 396 
Q 353 884 353 1716 
Q 353 2575 817 3079 
Q 1281 3584 2069 3584 
Q 2775 3584 3186 3129 
Q 3597 2675 3597 1894 
z
M 3022 2063 
Q 3016 2534 2758 2815 
Q 2500 3097 2075 3097 
Q 1594 3097 1305 2825 
Q 1016 2553 972 2059 
L 3022 2063 
z
" transform="scale(0.015625)"/>
       <path id="DejaVuSans-63" d="M 3122 3366 
L 3122 2828 
Q 2878 2963 2633 3030 
Q 2388 3097 2138 3097 
Q 1578 3097 1268 2742 
Q 959 2388 959 1747 
Q 959 1106 1268 751 
Q 1578 397 2138 397 
Q 2388 397 2633 464 
Q 2878 531 3122 666 
L 3122 134 
Q 2881 22 2623 -34 
Q 2366 -91 2075 -91 
Q 1284 -91 818 406 
Q 353 903 353 1747 
Q 353 2603 823 3093 
Q 1294 3584 2113 3584 
Q 2378 3584 2631 3529 
Q 2884 3475 3122 3366 
z
" transform="scale(0.015625)"/>
       <path id="DejaVuSans-61" d="M 2194 1759 
Q 1497 1759 1228 1600 
Q 959 1441 959 1056 
Q 959 750 1161 570 
Q 1363 391 1709 391 
Q 2188 391 2477 730 
Q 2766 1069 2766 1631 
L 2766 1759 
L 2194 1759 
z
M 3341 1997 
L 3341 0 
L 2766 0 
L 2766 531 
Q 2569 213 2275 61 
Q 1981 -91 1556 -91 
Q 1019 -91 701 211 
Q 384 513 384 1019 
Q 384 1609 779 1909 
Q 1175 2209 1959 2209 
L 2766 2209 
L 2766 2266 
Q 2766 2663 2505 2880 
Q 2244 3097 1772 3097 
Q 1472 3097 1187 3025 
Q 903 2953 641 2809 
L 641 3341 
Q 956 3463 1253 3523 
Q 1550 3584 1831 3584 
Q 2591 3584 2966 3190 
Q 3341 2797 3341 1997 
z
" transform="scale(0.015625)"/>
       <path id="DejaVuSans-6c" d="M 603 4863 
L 1178 4863 
L 1178 0 
L 603 0 
L 603 4863 
z
" transform="scale(0.015625)"/>
       <path id="DejaVuSans-20" transform="scale(0.015625)"/>
       <path id="DejaVuSans-28" d="M 1984 4856 
Q 1566 4138 1362 3434 
Q 1159 2731 1159 2009 
Q 1159 1288 1364 580 
Q 1569 -128 1984 -844 
L 1484 -844 
Q 1016 -109 783 600 
Q 550 1309 550 2009 
Q 550 2706 781 3412 
Q 1013 4119 1484 4856 
L 1984 4856 
z
" transform="scale(0.015625)"/>
       <path id="DejaVuSans-50" d="M 1259 4147 
L 1259 2394 
L 2053 2394 
Q 2494 2394 2734 2622 
Q 2975 2850 2975 3272 
Q 2975 3691 2734 3919 
Q 2494 4147 2053 4147 
L 1259 4147 
z
M 628 4666 
L 2053 4666 
Q 2838 4666 3239 4311 
Q 3641 3956 3641 3272 
Q 3641 2581 3239 2228 
Q 2838 1875 2053 1875 
L 1259 1875 
L 1259 0 
L 628 0 
L 628 4666 
z
" transform="scale(0.015625)"/>
       <path id="DejaVuSans-6f" d="M 1959 3097 
Q 1497 3097 1228 2736 
Q 959 2375 959 1747 
Q 959 1119 1226 758 
Q 1494 397 1959 397 
Q 2419 397 2687 759 
Q 2956 1122 2956 1747 
Q 2956 2369 2687 2733 
Q 2419 3097 1959 3097 
z
M 1959 3584 
Q 2709 3584 3137 3096 
Q 3566 2609 3566 1747 
Q 3566 888 3137 398 
Q 2709 -91 1959 -91 
Q 1206 -91 779 398 
Q 353 888 353 1747 
Q 353 2609 779 3096 
Q 1206 3584 1959 3584 
z
" transform="scale(0.015625)"/>
       <path id="DejaVuSans-73" d="M 2834 3397 
L 2834 2853 
Q 2591 2978 2328 3040 
Q 2066 3103 1784 3103 
Q 1356 3103 1142 2972 
Q 928 2841 928 2578 
Q 928 2378 1081 2264 
Q 1234 2150 1697 2047 
L 1894 2003 
Q 2506 1872 2764 1633 
Q 3022 1394 3022 966 
Q 3022 478 2636 193 
Q 2250 -91 1575 -91 
Q 1294 -91 989 -36 
Q 684 19 347 128 
L 347 722 
Q 666 556 975 473 
Q 1284 391 1588 391 
Q 1994 391 2212 530 
Q 2431 669 2431 922 
Q 2431 1156 2273 1281 
Q 2116 1406 1581 1522 
L 1381 1569 
Q 847 1681 609 1914 
Q 372 2147 372 2553 
Q 372 3047 722 3315 
Q 1072 3584 1716 3584 
Q 2034 3584 2315 3537 
Q 2597 3491 2834 3397 
z
" transform="scale(0.015625)"/>
       <path id="DejaVuSans-69" d="M 603 3500 
L 1178 3500 
L 1178 0 
L 603 0 
L 603 3500 
z
M 603 4863 
L 1178 4863 
L 1178 4134 
L 603 4134 
L 603 4863 
z
" transform="scale(0.015625)"/>
       <path id="DejaVuSans-74" d="M 1172 4494 
L 1172 3500 
L 2356 3500 
L 2356 3053 
L 1172 3053 
L 1172 1153 
Q 1172 725 1289 603 
Q 1406 481 1766 481 
L 2356 481 
L 2356 0 
L 1766 0 
Q 1100 0 847 248 
Q 594 497 594 1153 
L 594 3053 
L 172 3053 
L 172 3500 
L 594 3500 
L 594 4494 
L 1172 4494 
z
" transform="scale(0.015625)"/>
       <path id="DejaVuSans-76" d="M 191 3500 
L 800 3500 
L 1894 563 
L 2988 3500 
L 3597 3500 
L 2284 0 
L 1503 0 
L 191 3500 
z
" transform="scale(0.015625)"/>
       <path id="DejaVuSans-62" d="M 3116 1747 
Q 3116 2381 2855 2742 
Q 2594 3103 2138 3103 
Q 1681 3103 1420 2742 
Q 1159 2381 1159 1747 
Q 1159 1113 1420 752 
Q 1681 391 2138 391 
Q 2594 391 2855 752 
Q 3116 1113 3116 1747 
z
M 1159 2969 
Q 1341 3281 1617 3432 
Q 1894 3584 2278 3584 
Q 2916 3584 3314 3078 
Q 3713 2572 3713 1747 
Q 3713 922 3314 415 
Q 2916 -91 2278 -91 
Q 1894 -91 1617 61 
Q 1341 213 1159 525 
L 1159 0 
L 581 0 
L 581 4863 
L 1159 4863 
L 1159 2969 
z
" transform="scale(0.015625)"/>
       <path id="DejaVuSans-3a" d="M 750 794 
L 1409 794 
L 1409 0 
L 750 0 
L 750 794 
z
M 750 3309 
L 1409 3309 
L 1409 2516 
L 750 2516 
L 750 3309 
z
" transform="scale(0.015625)"/>
       <path id="DejaVuSans-29" d="M 513 4856 
L 1013 4856 
Q 1481 4119 1714 3412 
Q 1947 2706 1947 2009 
Q 1947 1309 1714 600 
Q 1481 -109 1013 -844 
L 513 -844 
Q 928 -128 1133 580 
Q 1338 1288 1338 2009 
Q 1338 2731 1133 3434 
Q 928 4138 513 4856 
z
" transform="scale(0.015625)"/>
      </defs>
      <use xlink:href="#DejaVuSans-52"/>
      <use xlink:href="#DejaVuSans-65" x="64.982422"/>
      <use xlink:href="#DejaVuSans-63" x="126.505859"/>
      <use xlink:href="#DejaVuSans-61" x="181.486328"/>
      <use xlink:href="#DejaVuSans-6c" x="242.765625"/>
      <use xlink:href="#DejaVuSans-6c" x="270.548828"/>
      <use xlink:href="#DejaVuSans-20" x="298.332031"/>
      <use xlink:href="#DejaVuSans-28" x="330.119141"/>
      <use xlink:href="#DejaVuSans-50" x="369.132812"/>
      <use xlink:href="#DejaVuSans-6f" x="425.810547"/>
      <use xlink:href="#DejaVuSans-73" x="486.992188"/>
      <use xlink:href="#DejaVuSans-69" x="539.091797"/>
      <use xlink:href="#DejaVuSans-74" x="566.875"/>
      <use xlink:href="#DejaVuSans-69" x="606.083984"/>
      <use xlink:href="#DejaVuSans-76" x="633.867188"/>
      <use xlink:href="#DejaVuSans-65" x="693.046875"/>
      <use xlink:href="#DejaVuSans-20" x="754.570312"/>
      <use xlink:href="#DejaVuSans-6c" x="786.357422"/>
      <use xlink:href="#DejaVuSans-61" x="814.140625"/>
      <use xlink:href="#DejaVuSans-62" x="875.419922"/>
      <use xlink:href="#DejaVuSans-65" x="938.896484"/>
      <use xlink:href="#DejaVuSans-6c" x="1000.419922"/>
      <use xlink:href="#DejaVuSans-3a" x="1028.203125"/>
      <use xlink:href="#DejaVuSans-20" x="1061.894531"/>
      <use xlink:href="#DejaVuSans-31" x="1093.681641"/>
      <use xlink:href="#DejaVuSans-2e" x="1157.304688"/>
      <use xlink:href="#DejaVuSans-30" x="1189.091797"/>
      <use xlink:href="#DejaVuSans-29" x="1252.714844"/>
     </g>
    </g>
   </g>
   <g id="matplotlib.axis_2">
    <g id="ytick_1">
     <g id="line2d_4">
      <path d="M 57.6 184.043117 
L 414.72 184.043117 
" clip-path="url(#pe2383b700d)" style="fill: none; stroke: #ffffff; stroke-linecap: round"/>
     </g>
     <g id="text_5">
      <!-- 0.5 -->
      <g style="fill: #262626" transform="translate(-4.380313 196.580539)scale(0.33 -0.33)">
       <use xlink:href="#DejaVuSans-30"/>
       <use xlink:href="#DejaVuSans-2e" x="63.623047"/>
       <use xlink:href="#DejaVuSans-35" x="95.410156"/>
      </g>
     </g>
    </g>
    <g id="ytick_2">
     <g id="line2d_5">
      <path d="M 57.6 53.568 
L 414.72 53.568 
" clip-path="url(#pe2383b700d)" style="fill: none; stroke: #ffffff; stroke-linecap: round"/>
     </g>
     <g id="text_6">
      <!-- 1.0 -->
      <g style="fill: #262626" transform="translate(-4.380313 66.105422)scale(0.33 -0.33)">
       <use xlink:href="#DejaVuSans-31"/>
       <use xlink:href="#DejaVuSans-2e" x="63.623047"/>
       <use xlink:href="#DejaVuSans-30" x="95.410156"/>
      </g>
     </g>
    </g>
    <g id="text_7">
     <!-- Precision (Positive label: 1.0) -->
     <g style="fill: #262626" transform="translate(-15.867188 433.643625)rotate(-90)scale(0.36 -0.36)">
      <defs>
       <path id="DejaVuSans-72" d="M 2631 2963 
Q 2534 3019 2420 3045 
Q 2306 3072 2169 3072 
Q 1681 3072 1420 2755 
Q 1159 2438 1159 1844 
L 1159 0 
L 581 0 
L 581 3500 
L 1159 3500 
L 1159 2956 
Q 1341 3275 1631 3429 
Q 1922 3584 2338 3584 
Q 2397 3584 2469 3576 
Q 2541 3569 2628 3553 
L 2631 2963 
z
" transform="scale(0.015625)"/>
       <path id="DejaVuSans-6e" d="M 3513 2113 
L 3513 0 
L 2938 0 
L 2938 2094 
Q 2938 2591 2744 2837 
Q 2550 3084 2163 3084 
Q 1697 3084 1428 2787 
Q 1159 2491 1159 1978 
L 1159 0 
L 581 0 
L 581 3500 
L 1159 3500 
L 1159 2956 
Q 1366 3272 1645 3428 
Q 1925 3584 2291 3584 
Q 2894 3584 3203 3211 
Q 3513 2838 3513 2113 
z
" transform="scale(0.015625)"/>
      </defs>
      <use xlink:href="#DejaVuSans-50"/>
      <use xlink:href="#DejaVuSans-72" x="58.552734"/>
      <use xlink:href="#DejaVuSans-65" x="97.416016"/>
      <use xlink:href="#DejaVuSans-63" x="158.939453"/>
      <use xlink:href="#DejaVuSans-69" x="213.919922"/>
      <use xlink:href="#DejaVuSans-73" x="241.703125"/>
      <use xlink:href="#DejaVuSans-69" x="293.802734"/>
      <use xlink:href="#DejaVuSans-6f" x="321.585938"/>
      <use xlink:href="#DejaVuSans-6e" x="382.767578"/>
      <use xlink:href="#DejaVuSans-20" x="446.146484"/>
      <use xlink:href="#DejaVuSans-28" x="477.933594"/>
      <use xlink:href="#DejaVuSans-50" x="516.947266"/>
      <use xlink:href="#DejaVuSans-6f" x="573.625"/>
      <use xlink:href="#DejaVuSans-73" x="634.806641"/>
      <use xlink:href="#DejaVuSans-69" x="686.90625"/>
      <use xlink:href="#DejaVuSans-74" x="714.689453"/>
      <use xlink:href="#DejaVuSans-69" x="753.898438"/>
      <use xlink:href="#DejaVuSans-76" x="781.681641"/>
      <use xlink:href="#DejaVuSans-65" x="840.861328"/>
      <use xlink:href="#DejaVuSans-20" x="902.384766"/>
      <use xlink:href="#DejaVuSans-6c" x="934.171875"/>
      <use xlink:href="#DejaVuSans-61" x="961.955078"/>
      <use xlink:href="#DejaVuSans-62" x="1023.234375"/>
      <use xlink:href="#DejaVuSans-65" x="1086.710938"/>
      <use xlink:href="#DejaVuSans-6c" x="1148.234375"/>
      <use xlink:href="#DejaVuSans-3a" x="1176.017578"/>
      <use xlink:href="#DejaVuSans-20" x="1209.708984"/>
      <use xlink:href="#DejaVuSans-31" x="1241.496094"/>
      <use xlink:href="#DejaVuSans-2e" x="1305.119141"/>
      <use xlink:href="#DejaVuSans-30" x="1336.90625"/>
      <use xlink:href="#DejaVuSans-29" x="1400.529297"/>
     </g>
    </g>
   </g>
   <g id="line2d_6">
    <path d="M 398.487273 295.488 
L 398.487273 125.80846 
L 398.32875 125.80846 
L 398.32875 125.700585 
L 398.32875 122.786314 
L 398.170227 122.786314 
L 398.170227 122.742308 
L 398.170227 122.258897 
L 398.011705 122.258897 
L 398.011705 121.099159 
L 397.853182 121.099159 
L 397.853182 120.842752 
L 397.377614 120.750824 
L 397.377614 120.563599 
L 396.743523 120.495404 
L 396.743523 120.378122 
L 396.267955 120.355994 
L 396.267955 120.167163 
L 396.109432 120.167163 
L 396.109432 120.04909 
L 395.950909 120.04909 
L 395.950909 120.002139 
L 395.950909 119.930757 
L 395.792386 119.930757 
L 395.792386 119.812163 
L 394.682727 119.81513 
L 394.682727 119.695927 
L 394.365682 119.720329 
L 394.365682 119.600845 
L 394.365682 119.528813 
L 393.414545 119.506518 
L 393.414545 119.386308 
L 393.0975 119.410731 
L 393.0975 119.290236 
L 393.0975 119.217687 
L 392.621932 119.193877 
L 392.621932 119.145591 
L 392.621932 118.927134 
L 392.304886 118.878559 
L 392.304886 118.82991 
L 392.304886 118.756838 
L 391.036705 118.707751 
L 391.036705 118.585244 
L 390.402614 118.511254 
L 390.402614 118.388156 
L 390.244091 118.388156 
L 390.244091 118.190806 
L 389.451477 118.140121 
L 389.451477 118.015997 
L 387.707727 117.962183 
L 387.707727 117.837053 
L 387.549205 117.837053 
L 387.549205 117.711636 
L 387.073636 117.610367 
L 387.073636 117.559616 
L 386.598068 117.457881 
L 386.598068 117.406897 
L 385.488409 117.326874 
L 385.488409 117.275574 
L 385.012841 117.172736 
L 385.012841 117.121198 
L 384.37875 117.042381 
L 384.37875 116.990603 
L 383.903182 116.886807 
L 383.903182 116.834788 
L 383.427614 116.859301 
L 383.427614 116.601416 
L 382.159432 116.594547 
L 382.159432 116.334632 
L 381.525341 116.306231 
L 381.525341 116.200143 
L 378.196364 116.27857 
L 378.196364 116.328183 
L 377.40375 116.270554 
L 377.40375 116.216767 
L 376.294091 116.129546 
L 376.294091 116.07541 
L 375.501477 116.016738 
L 375.501477 115.962338 
L 373.757727 116.053472 
L 373.757727 116.078587 
L 372.965114 116.154052 
L 372.965114 116.204464 
L 371.696932 116.301491 
L 371.696932 116.326848 
L 370.904318 116.428482 
L 370.904318 116.453942 
L 370.270227 116.369741 
L 370.270227 116.314766 
L 369.794659 116.259703 
L 369.794659 116.149306 
L 369.002045 116.089546 
L 369.002045 116.034028 
L 368.209432 115.973789 
L 368.209432 115.917995 
L 367.892386 115.862109 
L 367.892386 115.806131 
L 366.782727 115.714368 
L 366.782727 115.658015 
L 364.880455 115.585621 
L 364.880455 115.471857 
L 364.563409 115.414833 
L 364.563409 115.357714 
L 363.929318 115.3005 
L 363.929318 115.128285 
L 363.136705 115.064435 
L 363.136705 115.006639 
L 362.185568 114.948747 
L 362.185568 114.657823 
L 361.868523 114.599344 
L 361.868523 114.540767 
L 361.551477 114.48209 
L 361.551477 114.423315 
L 360.124773 114.423315 
L 360.124773 113.889829 
L 356.003182 113.873031 
L 356.003182 112.653212 
L 355.686136 112.591107 
L 355.686136 112.528893 
L 354.576477 112.466571 
L 354.576477 112.090348 
L 354.259432 112.090348 
L 354.259432 111.96406 
L 353.625341 111.862951 
L 353.625341 111.799412 
L 351.881591 111.838441 
L 351.881591 111.454033 
L 351.2475 111.350666 
L 351.2475 111.285965 
L 350.930455 111.221148 
L 350.930455 111.156215 
L 350.296364 111.051675 
L 350.296364 110.986388 
L 349.979318 110.920984 
L 349.979318 110.855462 
L 349.345227 110.749731 
L 349.345227 110.683849 
L 349.028182 110.617849 
L 349.028182 110.55173 
L 348.711136 110.485491 
L 348.711136 110.419134 
L 348.394091 110.352656 
L 348.394091 110.286058 
L 348.077045 110.21934 
L 348.077045 110.152501 
L 347.76 110.085541 
L 347.76 110.018459 
L 347.442955 109.951255 
L 347.442955 109.88393 
L 347.125909 109.816482 
L 347.125909 109.748911 
L 346.808864 109.681217 
L 346.808864 109.613399 
L 346.491818 109.545458 
L 346.491818 109.477392 
L 346.174773 109.409202 
L 346.174773 109.340888 
L 345.857727 109.272448 
L 345.857727 109.203882 
L 345.382159 109.160704 
L 345.382159 109.091878 
L 345.065114 109.022926 
L 345.065114 108.953846 
L 344.748068 108.88464 
L 344.748068 108.815305 
L 344.2725 108.815305 
L 344.2725 108.606532 
L 343.796932 108.562144 
L 343.796932 108.492157 
L 343.479886 108.42204 
L 343.479886 108.351793 
L 343.162841 108.351793 
L 343.162841 108.210906 
L 342.845795 108.140266 
L 342.845795 108.069494 
L 342.52875 107.99859 
L 342.52875 107.927554 
L 342.211705 107.856384 
L 342.211705 107.785082 
L 341.894659 107.713646 
L 341.894659 107.642076 
L 341.577614 107.570371 
L 341.577614 107.498532 
L 341.260568 107.426558 
L 341.260568 107.354448 
L 340.943523 107.282203 
L 340.943523 107.209821 
L 340.626477 107.137303 
L 340.626477 107.064647 
L 340.150909 107.017126 
L 340.150909 106.944184 
L 339.833864 106.871105 
L 339.833864 106.797887 
L 339.516818 106.724529 
L 339.516818 106.651033 
L 339.199773 106.577396 
L 339.199773 106.503619 
L 338.882727 106.429701 
L 338.882727 106.355643 
L 338.565682 106.281443 
L 338.565682 106.207101 
L 338.248636 106.132617 
L 338.248636 106.05799 
L 337.931591 105.98322 
L 337.931591 105.908306 
L 337.614545 105.833249 
L 337.614545 105.758047 
L 337.2975 105.6827 
L 337.2975 105.607209 
L 336.980455 105.531571 
L 336.980455 105.455788 
L 336.663409 105.379858 
L 336.663409 105.303782 
L 336.187841 105.227558 
L 336.187841 105.074666 
L 335.870795 104.997998 
L 335.870795 104.92118 
L 335.55375 104.844213 
L 335.55375 104.767097 
L 335.236705 104.767097 
L 335.236705 104.612412 
L 334.919659 104.534843 
L 334.919659 104.457122 
L 334.602614 104.379249 
L 334.602614 104.301224 
L 334.285568 104.223046 
L 334.285568 104.144714 
L 333.968523 104.066228 
L 333.968523 103.987588 
L 333.492955 103.93358 
L 333.492955 103.854615 
L 332.700341 103.745776 
L 332.700341 103.666313 
L 332.224773 103.611479 
L 332.224773 103.531686 
L 331.907727 103.451734 
L 331.907727 103.371623 
L 331.590682 103.291353 
L 331.590682 103.210923 
L 331.115114 103.130333 
L 331.115114 102.968669 
L 330.798068 102.887594 
L 330.798068 102.806358 
L 330.481023 102.724958 
L 330.481023 102.643395 
L 330.163977 102.643395 
L 330.163977 102.479778 
L 329.846932 102.397722 
L 329.846932 102.315501 
L 328.737273 102.248807 
L 328.737273 102.166019 
L 328.420227 102.083064 
L 328.420227 101.99994 
L 328.103182 101.916648 
L 328.103182 101.833186 
L 327.786136 101.749554 
L 327.786136 101.665752 
L 327.469091 101.581779 
L 327.469091 101.497635 
L 326.835 101.413319 
L 326.835 101.159334 
L 326.517955 101.074325 
L 326.517955 100.989141 
L 326.200909 100.903783 
L 326.200909 100.818248 
L 325.883864 100.732538 
L 325.883864 100.646651 
L 325.408295 100.646651 
L 325.408295 100.387923 
L 325.09125 100.301324 
L 325.09125 100.214545 
L 324.774205 100.214545 
L 324.774205 100.040446 
L 324.298636 100.040446 
L 324.298636 99.777937 
L 323.981591 99.69007 
L 323.981591 99.602018 
L 323.506023 99.602018 
L 323.506023 99.336758 
L 323.188977 99.247968 
L 323.188977 99.158991 
L 322.871932 99.069827 
L 322.871932 98.980475 
L 322.554886 98.890935 
L 322.554886 98.801207 
L 322.237841 98.71129 
L 322.237841 98.621182 
L 321.128182 98.621182 
L 321.128182 97.985061 
L 320.652614 97.893413 
L 320.652614 97.709528 
L 320.335568 97.617292 
L 320.335568 97.524858 
L 319.542955 97.432226 
L 319.542955 97.059706 
L 319.225909 96.966075 
L 319.225909 96.872242 
L 318.908864 96.872242 
L 318.908864 96.683968 
L 318.591818 96.589525 
L 318.591818 96.494878 
L 318.274773 96.400027 
L 318.274773 96.304969 
L 317.957727 96.209705 
L 317.957727 96.114234 
L 317.640682 96.018555 
L 317.640682 95.922668 
L 317.323636 95.826571 
L 317.323636 95.730265 
L 317.006591 95.633748 
L 317.006591 95.53702 
L 316.689545 95.44008 
L 316.689545 95.342928 
L 316.3725 95.245562 
L 316.3725 95.147982 
L 316.055455 95.050188 
L 316.055455 94.952178 
L 315.738409 94.853952 
L 315.738409 94.755509 
L 315.421364 94.656849 
L 315.421364 94.55797 
L 314.62875 94.458873 
L 314.62875 94.060278 
L 314.153182 93.960074 
L 314.153182 93.758996 
L 313.202045 93.65812 
L 313.202045 93.150339 
L 312.567955 93.048097 
L 312.567955 92.739988 
L 311.775341 92.63682 
L 311.775341 92.221809 
L 311.14125 92.117466 
L 311.14125 91.803012 
L 310.824205 91.697715 
L 310.824205 91.592177 
L 310.507159 91.592177 
L 310.507159 91.380377 
L 310.190114 91.274112 
L 310.190114 91.167603 
L 309.873068 91.06085 
L 309.873068 90.953851 
L 309.080455 90.953851 
L 309.080455 90.41514 
L 308.287841 90.41514 
L 308.287841 89.870157 
L 307.970795 89.760399 
L 307.970795 89.650384 
L 307.495227 89.650384 
L 307.495227 89.318793 
L 307.178182 89.207745 
L 307.178182 89.096436 
L 305.751477 89.096436 
L 305.751477 88.08277 
L 305.592955 88.08277 
L 305.592955 87.968803 
L 305.275909 87.968803 
L 305.275909 87.740055 
L 305.117386 87.740055 
L 305.117386 87.625271 
L 304.958864 87.625271 
L 304.958864 87.510214 
L 304.641818 87.510214 
L 304.641818 87.279274 
L 304.483295 87.279274 
L 304.483295 87.163389 
L 304.324773 87.163389 
L 304.324773 87.047227 
L 304.16625 87.047227 
L 304.16625 86.930785 
L 304.007727 86.930785 
L 304.007727 86.814064 
L 303.532159 86.814064 
L 303.532159 86.462209 
L 303.373636 86.462209 
L 303.373636 86.344358 
L 303.215114 86.344358 
L 303.215114 86.226222 
L 303.056591 86.226222 
L 303.056591 86.107799 
L 302.898068 86.107799 
L 302.898068 85.98909 
L 301.788409 85.98909 
L 301.788409 85.149997 
L 301.154318 85.149997 
L 301.154318 84.664035 
L 300.837273 84.664035 
L 300.837273 84.419259 
L 299.569091 84.419259 
L 299.569091 83.427977 
L 298.776477 83.427977 
L 298.776477 82.798345 
L 298.617955 82.798345 
L 298.617955 82.671472 
L 297.983864 82.671472 
L 297.983864 82.160784 
L 297.666818 82.160784 
L 297.666818 81.903505 
L 297.19125 81.903505 
L 297.19125 81.515142 
L 296.874205 81.515142 
L 296.874205 81.254588 
L 296.557159 81.254588 
L 296.557159 80.992706 
L 296.398636 80.992706 
L 296.398636 80.861264 
L 296.240114 80.861264 
L 296.240114 80.729487 
L 291.96 80.729487 
L 291.96 77.039714 
L 290.533295 77.039714 
L 290.533295 75.750517 
L 290.374773 75.750517 
L 290.374773 75.605352 
L 290.21625 75.605352 
L 290.21625 75.459798 
L 290.057727 75.459798 
L 290.057727 75.313853 
L 289.899205 75.313853 
L 289.899205 75.167515 
L 289.740682 75.167515 
L 289.740682 75.020782 
L 289.582159 75.020782 
L 289.582159 74.873653 
L 289.423636 74.873653 
L 289.423636 74.726127 
L 289.265114 74.726127 
L 289.265114 74.578202 
L 288.948068 74.578202 
L 288.948068 74.281146 
L 288.631023 74.281146 
L 288.631023 73.982474 
L 288.4725 73.982474 
L 288.4725 73.832528 
L 288.313977 73.832528 
L 288.313977 73.682172 
L 287.996932 73.682172 
L 287.996932 73.380227 
L 281.338977 73.380227 
L 281.338977 66.634449 
L 281.180455 66.634449 
L 281.180455 66.463796 
L 281.021932 66.463796 
L 281.021932 66.292648 
L 280.863409 66.292648 
L 280.863409 66.121 
L 280.704886 66.121 
L 280.704886 65.948851 
L 280.387841 65.948851 
L 280.387841 65.60304 
L 280.070795 65.60304 
L 280.070795 65.255198 
L 279.75375 65.255198 
L 279.75375 64.905308 
L 278.644091 64.905308 
L 278.644091 63.664289 
L 278.485568 63.664289 
L 278.485568 63.484887 
L 278.327045 63.484887 
L 278.327045 63.304949 
L 277.058864 63.304949 
L 277.058864 61.845878 
L 276.741818 61.845878 
L 276.741818 61.475583 
L 274.363977 61.475583 
L 274.363977 58.625175 
L 274.205455 58.625175 
L 274.205455 58.430427 
L 273.571364 58.430427 
L 273.571364 57.645347 
L 273.412841 57.645347 
L 273.412841 57.447542 
L 273.254318 57.447542 
L 273.254318 57.249116 
L 273.095795 57.249116 
L 273.095795 57.050067 
L 272.937273 57.050067 
L 272.937273 56.850393 
L 271.827614 56.850393 
L 271.827614 55.434894 
L 271.193523 55.434894 
L 271.193523 54.611801 
L 270.400909 54.611801 
L 270.400909 53.568 
L 73.832727 53.568 
L 73.832727 53.568 
" clip-path="url(#pe2383b700d)" style="fill: none; stroke: #4c72b0; stroke-width: 1.5; stroke-linecap: round"/>
   </g>
   <g id="patch_3">
    <path d="M 57.6 307.584 
L 57.6 41.472 
" style="fill: none; stroke: #ffffff; stroke-width: 1.25; stroke-linejoin: miter; stroke-linecap: square"/>
   </g>
   <g id="patch_4">
    <path d="M 414.72 307.584 
L 414.72 41.472 
" style="fill: none; stroke: #ffffff; stroke-width: 1.25; stroke-linejoin: miter; stroke-linecap: square"/>
   </g>
   <g id="patch_5">
    <path d="M 57.6 307.584 
L 414.72 307.584 
" style="fill: none; stroke: #ffffff; stroke-width: 1.25; stroke-linejoin: miter; stroke-linecap: square"/>
   </g>
   <g id="patch_6">
    <path d="M 57.6 41.472 
L 414.72 41.472 
" style="fill: none; stroke: #ffffff; stroke-width: 1.25; stroke-linejoin: miter; stroke-linecap: square"/>
   </g>
   <g id="text_8">
    <!-- Precision-recall curve -->
    <g style="fill: #262626" transform="translate(44.206875 35.472)scale(0.36 -0.36)">
     <defs>
      <path id="DejaVuSans-2d" d="M 313 2009 
L 1997 2009 
L 1997 1497 
L 313 1497 
L 313 2009 
z
" transform="scale(0.015625)"/>
      <path id="DejaVuSans-75" d="M 544 1381 
L 544 3500 
L 1119 3500 
L 1119 1403 
Q 1119 906 1312 657 
Q 1506 409 1894 409 
Q 2359 409 2629 706 
Q 2900 1003 2900 1516 
L 2900 3500 
L 3475 3500 
L 3475 0 
L 2900 0 
L 2900 538 
Q 2691 219 2414 64 
Q 2138 -91 1772 -91 
Q 1169 -91 856 284 
Q 544 659 544 1381 
z
M 1991 3584 
L 1991 3584 
z
" transform="scale(0.015625)"/>
     </defs>
     <use xlink:href="#DejaVuSans-50"/>
     <use xlink:href="#DejaVuSans-72" x="58.552734"/>
     <use xlink:href="#DejaVuSans-65" x="97.416016"/>
     <use xlink:href="#DejaVuSans-63" x="158.939453"/>
     <use xlink:href="#DejaVuSans-69" x="213.919922"/>
     <use xlink:href="#DejaVuSans-73" x="241.703125"/>
     <use xlink:href="#DejaVuSans-69" x="293.802734"/>
     <use xlink:href="#DejaVuSans-6f" x="321.585938"/>
     <use xlink:href="#DejaVuSans-6e" x="382.767578"/>
     <use xlink:href="#DejaVuSans-2d" x="446.146484"/>
     <use xlink:href="#DejaVuSans-72" x="482.230469"/>
     <use xlink:href="#DejaVuSans-65" x="521.09375"/>
     <use xlink:href="#DejaVuSans-63" x="582.617188"/>
     <use xlink:href="#DejaVuSans-61" x="637.597656"/>
     <use xlink:href="#DejaVuSans-6c" x="698.876953"/>
     <use xlink:href="#DejaVuSans-6c" x="726.660156"/>
     <use xlink:href="#DejaVuSans-20" x="754.443359"/>
     <use xlink:href="#DejaVuSans-63" x="786.230469"/>
     <use xlink:href="#DejaVuSans-75" x="841.210938"/>
     <use xlink:href="#DejaVuSans-72" x="904.589844"/>
     <use xlink:href="#DejaVuSans-76" x="945.703125"/>
     <use xlink:href="#DejaVuSans-65" x="1004.882812"/>
    </g>
   </g>
   <g id="legend_1">
    <g id="patch_7">
     <path d="M 80.7 291.084 
L 635.445469 291.084 
Q 642.045469 291.084 642.045469 284.484 
L 642.045469 239.346187 
Q 642.045469 232.746187 635.445469 232.746187 
L 80.7 232.746187 
Q 74.1 232.746187 74.1 239.346187 
L 74.1 284.484 
Q 74.1 291.084 80.7 291.084 
z
" style="fill: #eaeaf2; opacity: 0.8; stroke: #cccccc; stroke-linejoin: miter"/>
    </g>
    <g id="line2d_7">
     <path d="M 87.3 259.471031 
L 120.3 259.471031 
L 120.3 259.471031 
L 153.3 259.471031 
L 153.3 259.471031 
" style="fill: none; stroke: #4c72b0; stroke-width: 1.5; stroke-linecap: round"/>
    </g>
    <g id="text_9">
     <!-- Random Forest (AP = 0.93) -->
     <g style="fill: #262626" transform="translate(179.7 271.021031)scale(0.33 -0.33)">
      <defs>
       <path id="DejaVuSans-64" d="M 2906 2969 
L 2906 4863 
L 3481 4863 
L 3481 0 
L 2906 0 
L 2906 525 
Q 2725 213 2448 61 
Q 2172 -91 1784 -91 
Q 1150 -91 751 415 
Q 353 922 353 1747 
Q 353 2572 751 3078 
Q 1150 3584 1784 3584 
Q 2172 3584 2448 3432 
Q 2725 3281 2906 2969 
z
M 947 1747 
Q 947 1113 1208 752 
Q 1469 391 1925 391 
Q 2381 391 2643 752 
Q 2906 1113 2906 1747 
Q 2906 2381 2643 2742 
Q 2381 3103 1925 3103 
Q 1469 3103 1208 2742 
Q 947 2381 947 1747 
z
" transform="scale(0.015625)"/>
       <path id="DejaVuSans-6d" d="M 3328 2828 
Q 3544 3216 3844 3400 
Q 4144 3584 4550 3584 
Q 5097 3584 5394 3201 
Q 5691 2819 5691 2113 
L 5691 0 
L 5113 0 
L 5113 2094 
Q 5113 2597 4934 2840 
Q 4756 3084 4391 3084 
Q 3944 3084 3684 2787 
Q 3425 2491 3425 1978 
L 3425 0 
L 2847 0 
L 2847 2094 
Q 2847 2600 2669 2842 
Q 2491 3084 2119 3084 
Q 1678 3084 1418 2786 
Q 1159 2488 1159 1978 
L 1159 0 
L 581 0 
L 581 3500 
L 1159 3500 
L 1159 2956 
Q 1356 3278 1631 3431 
Q 1906 3584 2284 3584 
Q 2666 3584 2933 3390 
Q 3200 3197 3328 2828 
z
" transform="scale(0.015625)"/>
       <path id="DejaVuSans-46" d="M 628 4666 
L 3309 4666 
L 3309 4134 
L 1259 4134 
L 1259 2759 
L 3109 2759 
L 3109 2228 
L 1259 2228 
L 1259 0 
L 628 0 
L 628 4666 
z
" transform="scale(0.015625)"/>
       <path id="DejaVuSans-41" d="M 2188 4044 
L 1331 1722 
L 3047 1722 
L 2188 4044 
z
M 1831 4666 
L 2547 4666 
L 4325 0 
L 3669 0 
L 3244 1197 
L 1141 1197 
L 716 0 
L 50 0 
L 1831 4666 
z
" transform="scale(0.015625)"/>
       <path id="DejaVuSans-3d" d="M 678 2906 
L 4684 2906 
L 4684 2381 
L 678 2381 
L 678 2906 
z
M 678 1631 
L 4684 1631 
L 4684 1100 
L 678 1100 
L 678 1631 
z
" transform="scale(0.015625)"/>
       <path id="DejaVuSans-39" d="M 703 97 
L 703 672 
Q 941 559 1184 500 
Q 1428 441 1663 441 
Q 2288 441 2617 861 
Q 2947 1281 2994 2138 
Q 2813 1869 2534 1725 
Q 2256 1581 1919 1581 
Q 1219 1581 811 2004 
Q 403 2428 403 3163 
Q 403 3881 828 4315 
Q 1253 4750 1959 4750 
Q 2769 4750 3195 4129 
Q 3622 3509 3622 2328 
Q 3622 1225 3098 567 
Q 2575 -91 1691 -91 
Q 1453 -91 1209 -44 
Q 966 3 703 97 
z
M 1959 2075 
Q 2384 2075 2632 2365 
Q 2881 2656 2881 3163 
Q 2881 3666 2632 3958 
Q 2384 4250 1959 4250 
Q 1534 4250 1286 3958 
Q 1038 3666 1038 3163 
Q 1038 2656 1286 2365 
Q 1534 2075 1959 2075 
z
" transform="scale(0.015625)"/>
       <path id="DejaVuSans-33" d="M 2597 2516 
Q 3050 2419 3304 2112 
Q 3559 1806 3559 1356 
Q 3559 666 3084 287 
Q 2609 -91 1734 -91 
Q 1441 -91 1130 -33 
Q 819 25 488 141 
L 488 750 
Q 750 597 1062 519 
Q 1375 441 1716 441 
Q 2309 441 2620 675 
Q 2931 909 2931 1356 
Q 2931 1769 2642 2001 
Q 2353 2234 1838 2234 
L 1294 2234 
L 1294 2753 
L 1863 2753 
Q 2328 2753 2575 2939 
Q 2822 3125 2822 3475 
Q 2822 3834 2567 4026 
Q 2313 4219 1838 4219 
Q 1578 4219 1281 4162 
Q 984 4106 628 3988 
L 628 4550 
Q 988 4650 1302 4700 
Q 1616 4750 1894 4750 
Q 2613 4750 3031 4423 
Q 3450 4097 3450 3541 
Q 3450 3153 3228 2886 
Q 3006 2619 2597 2516 
z
" transform="scale(0.015625)"/>
      </defs>
      <use xlink:href="#DejaVuSans-52"/>
      <use xlink:href="#DejaVuSans-61" x="67.232422"/>
      <use xlink:href="#DejaVuSans-6e" x="128.511719"/>
      <use xlink:href="#DejaVuSans-64" x="191.890625"/>
      <use xlink:href="#DejaVuSans-6f" x="255.367188"/>
      <use xlink:href="#DejaVuSans-6d" x="316.548828"/>
      <use xlink:href="#DejaVuSans-20" x="413.960938"/>
      <use xlink:href="#DejaVuSans-46" x="445.748047"/>
      <use xlink:href="#DejaVuSans-6f" x="499.642578"/>
      <use xlink:href="#DejaVuSans-72" x="560.824219"/>
      <use xlink:href="#DejaVuSans-65" x="599.6875"/>
      <use xlink:href="#DejaVuSans-73" x="661.210938"/>
      <use xlink:href="#DejaVuSans-74" x="713.310547"/>
      <use xlink:href="#DejaVuSans-20" x="752.519531"/>
      <use xlink:href="#DejaVuSans-28" x="784.306641"/>
      <use xlink:href="#DejaVuSans-41" x="823.320312"/>
      <use xlink:href="#DejaVuSans-50" x="891.728516"/>
      <use xlink:href="#DejaVuSans-20" x="952.03125"/>
      <use xlink:href="#DejaVuSans-3d" x="983.818359"/>
      <use xlink:href="#DejaVuSans-20" x="1067.607422"/>
      <use xlink:href="#DejaVuSans-30" x="1099.394531"/>
      <use xlink:href="#DejaVuSans-2e" x="1163.017578"/>
      <use xlink:href="#DejaVuSans-39" x="1194.804688"/>
      <use xlink:href="#DejaVuSans-33" x="1258.427734"/>
      <use xlink:href="#DejaVuSans-29" x="1322.050781"/>
     </g>
    </g>
   </g>
  </g>
 </g>
 <defs>
  <clipPath id="pe2383b700d">
   <rect x="57.6" y="41.472" width="357.12" height="266.112"/>
  </clipPath>
 </defs>
</svg>
