<?xml version="1.0" encoding="utf-8" standalone="no"?>
<!DOCTYPE svg PUBLIC "-//W3C//DTD SVG 1.1//EN"
  "http://www.w3.org/Graphics/SVG/1.1/DTD/svg11.dtd">
<svg xmlns:xlink="http://www.w3.org/1999/xlink" width="460.8pt" height="345.6pt" viewBox="0 0 460.8 345.6" xmlns="http://www.w3.org/2000/svg" version="1.1">
 <metadata>
  <rdf:RDF xmlns:dc="http://purl.org/dc/elements/1.1/" xmlns:cc="http://creativecommons.org/ns#" xmlns:rdf="http://www.w3.org/1999/02/22-rdf-syntax-ns#">
   <cc:Work>
    <dc:type rdf:resource="http://purl.org/dc/dcmitype/StillImage"/>
    <dc:date>2022-11-22T00:07:03.586719</dc:date>
    <dc:format>image/svg+xml</dc:format>
    <dc:creator>
     <cc:Agent>
      <dc:title>Matplotlib v3.5.2, https://matplotlib.org/</dc:title>
     </cc:Agent>
    </dc:creator>
   </cc:Work>
  </rdf:RDF>
 </metadata>
 <defs>
  <style type="text/css">*{stroke-linejoin: round; stroke-linecap: butt}</style>
 </defs>
 <g id="figure_1">
  <g id="patch_1">
   <path d="M 0 345.6 
L 460.8 345.6 
L 460.8 0 
L 0 0 
z
" style="fill: #ffffff"/>
  </g>
  <g id="axes_1">
   <g id="patch_2">
    <path d="M 57.6 307.584 
L 414.72 307.584 
L 414.72 41.472 
L 57.6 41.472 
z
" style="fill: #eaeaf2"/>
   </g>
   <g id="matplotlib.axis_1">
    <g id="xtick_1">
     <g id="line2d_1">
      <path d="M 73.832727 307.584 
L 73.832727 41.472 
" clip-path="url(#p8a673fdfcd)" style="fill: none; stroke: #ffffff; stroke-linecap: round"/>
     </g>
     <g id="text_1">
      <!-- 0.0 -->
      <g style="fill: #262626" transform="translate(47.592571 342.158844)scale(0.33 -0.33)">
       <defs>
        <path id="DejaVuSans-30" d="M 2034 4250 
Q 1547 4250 1301 3770 
Q 1056 3291 1056 2328 
Q 1056 1369 1301 889 
Q 1547 409 2034 409 
Q 2525 409 2770 889 
Q 3016 1369 3016 2328 
Q 3016 3291 2770 3770 
Q 2525 4250 2034 4250 
z
M 2034 4750 
Q 2819 4750 3233 4129 
Q 3647 3509 3647 2328 
Q 3647 1150 3233 529 
Q 2819 -91 2034 -91 
Q 1250 -91 836 529 
Q 422 1150 422 2328 
Q 422 3509 836 4129 
Q 1250 4750 2034 4750 
z
" transform="scale(0.015625)"/>
        <path id="DejaVuSans-2e" d="M 684 794 
L 1344 794 
L 1344 0 
L 684 0 
L 684 794 
z
" transform="scale(0.015625)"/>
       </defs>
       <use xlink:href="#DejaVuSans-30"/>
       <use xlink:href="#DejaVuSans-2e" x="63.623047"/>
       <use xlink:href="#DejaVuSans-30" x="95.410156"/>
      </g>
     </g>
    </g>
    <g id="xtick_2">
     <g id="line2d_2">
      <path d="M 236.16 307.584 
L 236.16 41.472 
" clip-path="url(#p8a673fdfcd)" style="fill: none; stroke: #ffffff; stroke-linecap: round"/>
     </g>
     <g id="text_2">
      <!-- 0.5 -->
      <g style="fill: #262626" transform="translate(209.919844 342.158844)scale(0.33 -0.33)">
       <defs>
        <path id="DejaVuSans-35" d="M 691 4666 
L 3169 4666 
L 3169 4134 
L 1269 4134 
L 1269 2991 
Q 1406 3038 1543 3061 
Q 1681 3084 1819 3084 
Q 2600 3084 3056 2656 
Q 3513 2228 3513 1497 
Q 3513 744 3044 326 
Q 2575 -91 1722 -91 
Q 1428 -91 1123 -41 
Q 819 9 494 109 
L 494 744 
Q 775 591 1075 516 
Q 1375 441 1709 441 
Q 2250 441 2565 725 
Q 2881 1009 2881 1497 
Q 2881 1984 2565 2268 
Q 2250 2553 1709 2553 
Q 1456 2553 1204 2497 
Q 953 2441 691 2322 
L 691 4666 
z
" transform="scale(0.015625)"/>
       </defs>
       <use xlink:href="#DejaVuSans-30"/>
       <use xlink:href="#DejaVuSans-2e" x="63.623047"/>
       <use xlink:href="#DejaVuSans-35" x="95.410156"/>
      </g>
     </g>
    </g>
    <g id="xtick_3">
     <g id="line2d_3">
      <path d="M 398.487273 307.584 
L 398.487273 41.472 
" clip-path="url(#p8a673fdfcd)" style="fill: none; stroke: #ffffff; stroke-linecap: round"/>
     </g>
     <g id="text_3">
      <!-- 1.0 -->
      <g style="fill: #262626" transform="translate(372.247116 342.158844)scale(0.33 -0.33)">
       <defs>
        <path id="DejaVuSans-31" d="M 794 531 
L 1825 531 
L 1825 4091 
L 703 3866 
L 703 4441 
L 1819 4666 
L 2450 4666 
L 2450 531 
L 3481 531 
L 3481 0 
L 794 0 
L 794 531 
z
" transform="scale(0.015625)"/>
       </defs>
       <use xlink:href="#DejaVuSans-31"/>
       <use xlink:href="#DejaVuSans-2e" x="63.623047"/>
       <use xlink:href="#DejaVuSans-30" x="95.410156"/>
      </g>
     </g>
    </g>
    <g id="text_4">
     <!-- Recall (Positive label: 1.0) -->
     <g style="fill: #262626" transform="translate(3.647813 380.376187)scale(0.36 -0.36)">
      <defs>
       <path id="DejaVuSans-52" d="M 2841 2188 
Q 3044 2119 3236 1894 
Q 3428 1669 3622 1275 
L 4263 0 
L 3584 0 
L 2988 1197 
Q 2756 1666 2539 1819 
Q 2322 1972 1947 1972 
L 1259 1972 
L 1259 0 
L 628 0 
L 628 4666 
L 2053 4666 
Q 2853 4666 3247 4331 
Q 3641 3997 3641 3322 
Q 3641 2881 3436 2590 
Q 3231 2300 2841 2188 
z
M 1259 4147 
L 1259 2491 
L 2053 2491 
Q 2509 2491 2742 2702 
Q 2975 2913 2975 3322 
Q 2975 3731 2742 3939 
Q 2509 4147 2053 4147 
L 1259 4147 
z
" transform="scale(0.015625)"/>
       <path id="DejaVuSans-65" d="M 3597 1894 
L 3597 1613 
L 953 1613 
Q 991 1019 1311 708 
Q 1631 397 2203 397 
Q 2534 397 2845 478 
Q 3156 559 3463 722 
L 3463 178 
Q 3153 47 2828 -22 
Q 2503 -91 2169 -91 
Q 1331 -91 842 396 
Q 353 884 353 1716 
Q 353 2575 817 3079 
Q 1281 3584 2069 3584 
Q 2775 3584 3186 3129 
Q 3597 2675 3597 1894 
z
M 3022 2063 
Q 3016 2534 2758 2815 
Q 2500 3097 2075 3097 
Q 1594 3097 1305 2825 
Q 1016 2553 972 2059 
L 3022 2063 
z
" transform="scale(0.015625)"/>
       <path id="DejaVuSans-63" d="M 3122 3366 
L 3122 2828 
Q 2878 2963 2633 3030 
Q 2388 3097 2138 3097 
Q 1578 3097 1268 2742 
Q 959 2388 959 1747 
Q 959 1106 1268 751 
Q 1578 397 2138 397 
Q 2388 397 2633 464 
Q 2878 531 3122 666 
L 3122 134 
Q 2881 22 2623 -34 
Q 2366 -91 2075 -91 
Q 1284 -91 818 406 
Q 353 903 353 1747 
Q 353 2603 823 3093 
Q 1294 3584 2113 3584 
Q 2378 3584 2631 3529 
Q 2884 3475 3122 3366 
z
" transform="scale(0.015625)"/>
       <path id="DejaVuSans-61" d="M 2194 1759 
Q 1497 1759 1228 1600 
Q 959 1441 959 1056 
Q 959 750 1161 570 
Q 1363 391 1709 391 
Q 2188 391 2477 730 
Q 2766 1069 2766 1631 
L 2766 1759 
L 2194 1759 
z
M 3341 1997 
L 3341 0 
L 2766 0 
L 2766 531 
Q 2569 213 2275 61 
Q 1981 -91 1556 -91 
Q 1019 -91 701 211 
Q 384 513 384 1019 
Q 384 1609 779 1909 
Q 1175 2209 1959 2209 
L 2766 2209 
L 2766 2266 
Q 2766 2663 2505 2880 
Q 2244 3097 1772 3097 
Q 1472 3097 1187 3025 
Q 903 2953 641 2809 
L 641 3341 
Q 956 3463 1253 3523 
Q 1550 3584 1831 3584 
Q 2591 3584 2966 3190 
Q 3341 2797 3341 1997 
z
" transform="scale(0.015625)"/>
       <path id="DejaVuSans-6c" d="M 603 4863 
L 1178 4863 
L 1178 0 
L 603 0 
L 603 4863 
z
" transform="scale(0.015625)"/>
       <path id="DejaVuSans-20" transform="scale(0.015625)"/>
       <path id="DejaVuSans-28" d="M 1984 4856 
Q 1566 4138 1362 3434 
Q 1159 2731 1159 2009 
Q 1159 1288 1364 580 
Q 1569 -128 1984 -844 
L 1484 -844 
Q 1016 -109 783 600 
Q 550 1309 550 2009 
Q 550 2706 781 3412 
Q 1013 4119 1484 4856 
L 1984 4856 
z
" transform="scale(0.015625)"/>
       <path id="DejaVuSans-50" d="M 1259 4147 
L 1259 2394 
L 2053 2394 
Q 2494 2394 2734 2622 
Q 2975 2850 2975 3272 
Q 2975 3691 2734 3919 
Q 2494 4147 2053 4147 
L 1259 4147 
z
M 628 4666 
L 2053 4666 
Q 2838 4666 3239 4311 
Q 3641 3956 3641 3272 
Q 3641 2581 3239 2228 
Q 2838 1875 2053 1875 
L 1259 1875 
L 1259 0 
L 628 0 
L 628 4666 
z
" transform="scale(0.015625)"/>
       <path id="DejaVuSans-6f" d="M 1959 3097 
Q 1497 3097 1228 2736 
Q 959 2375 959 1747 
Q 959 1119 1226 758 
Q 1494 397 1959 397 
Q 2419 397 2687 759 
Q 2956 1122 2956 1747 
Q 2956 2369 2687 2733 
Q 2419 3097 1959 3097 
z
M 1959 3584 
Q 2709 3584 3137 3096 
Q 3566 2609 3566 1747 
Q 3566 888 3137 398 
Q 2709 -91 1959 -91 
Q 1206 -91 779 398 
Q 353 888 353 1747 
Q 353 2609 779 3096 
Q 1206 3584 1959 3584 
z
" transform="scale(0.015625)"/>
       <path id="DejaVuSans-73" d="M 2834 3397 
L 2834 2853 
Q 2591 2978 2328 3040 
Q 2066 3103 1784 3103 
Q 1356 3103 1142 2972 
Q 928 2841 928 2578 
Q 928 2378 1081 2264 
Q 1234 2150 1697 2047 
L 1894 2003 
Q 2506 1872 2764 1633 
Q 3022 1394 3022 966 
Q 3022 478 2636 193 
Q 2250 -91 1575 -91 
Q 1294 -91 989 -36 
Q 684 19 347 128 
L 347 722 
Q 666 556 975 473 
Q 1284 391 1588 391 
Q 1994 391 2212 530 
Q 2431 669 2431 922 
Q 2431 1156 2273 1281 
Q 2116 1406 1581 1522 
L 1381 1569 
Q 847 1681 609 1914 
Q 372 2147 372 2553 
Q 372 3047 722 3315 
Q 1072 3584 1716 3584 
Q 2034 3584 2315 3537 
Q 2597 3491 2834 3397 
z
" transform="scale(0.015625)"/>
       <path id="DejaVuSans-69" d="M 603 3500 
L 1178 3500 
L 1178 0 
L 603 0 
L 603 3500 
z
M 603 4863 
L 1178 4863 
L 1178 4134 
L 603 4134 
L 603 4863 
z
" transform="scale(0.015625)"/>
       <path id="DejaVuSans-74" d="M 1172 4494 
L 1172 3500 
L 2356 3500 
L 2356 3053 
L 1172 3053 
L 1172 1153 
Q 1172 725 1289 603 
Q 1406 481 1766 481 
L 2356 481 
L 2356 0 
L 1766 0 
Q 1100 0 847 248 
Q 594 497 594 1153 
L 594 3053 
L 172 3053 
L 172 3500 
L 594 3500 
L 594 4494 
L 1172 4494 
z
" transform="scale(0.015625)"/>
       <path id="DejaVuSans-76" d="M 191 3500 
L 800 3500 
L 1894 563 
L 2988 3500 
L 3597 3500 
L 2284 0 
L 1503 0 
L 191 3500 
z
" transform="scale(0.015625)"/>
       <path id="DejaVuSans-62" d="M 3116 1747 
Q 3116 2381 2855 2742 
Q 2594 3103 2138 3103 
Q 1681 3103 1420 2742 
Q 1159 2381 1159 1747 
Q 1159 1113 1420 752 
Q 1681 391 2138 391 
Q 2594 391 2855 752 
Q 3116 1113 3116 1747 
z
M 1159 2969 
Q 1341 3281 1617 3432 
Q 1894 3584 2278 3584 
Q 2916 3584 3314 3078 
Q 3713 2572 3713 1747 
Q 3713 922 3314 415 
Q 2916 -91 2278 -91 
Q 1894 -91 1617 61 
Q 1341 213 1159 525 
L 1159 0 
L 581 0 
L 581 4863 
L 1159 4863 
L 1159 2969 
z
" transform="scale(0.015625)"/>
       <path id="DejaVuSans-3a" d="M 750 794 
L 1409 794 
L 1409 0 
L 750 0 
L 750 794 
z
M 750 3309 
L 1409 3309 
L 1409 2516 
L 750 2516 
L 750 3309 
z
" transform="scale(0.015625)"/>
       <path id="DejaVuSans-29" d="M 513 4856 
L 1013 4856 
Q 1481 4119 1714 3412 
Q 1947 2706 1947 2009 
Q 1947 1309 1714 600 
Q 1481 -109 1013 -844 
L 513 -844 
Q 928 -128 1133 580 
Q 1338 1288 1338 2009 
Q 1338 2731 1133 3434 
Q 928 4138 513 4856 
z
" transform="scale(0.015625)"/>
      </defs>
      <use xlink:href="#DejaVuSans-52"/>
      <use xlink:href="#DejaVuSans-65" x="64.982422"/>
      <use xlink:href="#DejaVuSans-63" x="126.505859"/>
      <use xlink:href="#DejaVuSans-61" x="181.486328"/>
      <use xlink:href="#DejaVuSans-6c" x="242.765625"/>
      <use xlink:href="#DejaVuSans-6c" x="270.548828"/>
      <use xlink:href="#DejaVuSans-20" x="298.332031"/>
      <use xlink:href="#DejaVuSans-28" x="330.119141"/>
      <use xlink:href="#DejaVuSans-50" x="369.132812"/>
      <use xlink:href="#DejaVuSans-6f" x="425.810547"/>
      <use xlink:href="#DejaVuSans-73" x="486.992188"/>
      <use xlink:href="#DejaVuSans-69" x="539.091797"/>
      <use xlink:href="#DejaVuSans-74" x="566.875"/>
      <use xlink:href="#DejaVuSans-69" x="606.083984"/>
      <use xlink:href="#DejaVuSans-76" x="633.867188"/>
      <use xlink:href="#DejaVuSans-65" x="693.046875"/>
      <use xlink:href="#DejaVuSans-20" x="754.570312"/>
      <use xlink:href="#DejaVuSans-6c" x="786.357422"/>
      <use xlink:href="#DejaVuSans-61" x="814.140625"/>
      <use xlink:href="#DejaVuSans-62" x="875.419922"/>
      <use xlink:href="#DejaVuSans-65" x="938.896484"/>
      <use xlink:href="#DejaVuSans-6c" x="1000.419922"/>
      <use xlink:href="#DejaVuSans-3a" x="1028.203125"/>
      <use xlink:href="#DejaVuSans-20" x="1061.894531"/>
      <use xlink:href="#DejaVuSans-31" x="1093.681641"/>
      <use xlink:href="#DejaVuSans-2e" x="1157.304688"/>
      <use xlink:href="#DejaVuSans-30" x="1189.091797"/>
      <use xlink:href="#DejaVuSans-29" x="1252.714844"/>
     </g>
    </g>
   </g>
   <g id="matplotlib.axis_2">
    <g id="ytick_1">
     <g id="line2d_4">
      <path d="M 57.6 182.587037 
L 414.72 182.587037 
" clip-path="url(#p8a673fdfcd)" style="fill: none; stroke: #ffffff; stroke-linecap: round"/>
     </g>
     <g id="text_5">
      <!-- 0.5 -->
      <g style="fill: #262626" transform="translate(-4.380313 195.124459)scale(0.33 -0.33)">
       <use xlink:href="#DejaVuSans-30"/>
       <use xlink:href="#DejaVuSans-2e" x="63.623047"/>
       <use xlink:href="#DejaVuSans-35" x="95.410156"/>
      </g>
     </g>
    </g>
    <g id="ytick_2">
     <g id="line2d_5">
      <path d="M 57.6 53.568 
L 414.72 53.568 
" clip-path="url(#p8a673fdfcd)" style="fill: none; stroke: #ffffff; stroke-linecap: round"/>
     </g>
     <g id="text_6">
      <!-- 1.0 -->
      <g style="fill: #262626" transform="translate(-4.380313 66.105422)scale(0.33 -0.33)">
       <use xlink:href="#DejaVuSans-31"/>
       <use xlink:href="#DejaVuSans-2e" x="63.623047"/>
       <use xlink:href="#DejaVuSans-30" x="95.410156"/>
      </g>
     </g>
    </g>
    <g id="text_7">
     <!-- Precision (Positive label: 1.0) -->
     <g style="fill: #262626" transform="translate(-15.867188 433.643625)rotate(-90)scale(0.36 -0.36)">
      <defs>
       <path id="DejaVuSans-72" d="M 2631 2963 
Q 2534 3019 2420 3045 
Q 2306 3072 2169 3072 
Q 1681 3072 1420 2755 
Q 1159 2438 1159 1844 
L 1159 0 
L 581 0 
L 581 3500 
L 1159 3500 
L 1159 2956 
Q 1341 3275 1631 3429 
Q 1922 3584 2338 3584 
Q 2397 3584 2469 3576 
Q 2541 3569 2628 3553 
L 2631 2963 
z
" transform="scale(0.015625)"/>
       <path id="DejaVuSans-6e" d="M 3513 2113 
L 3513 0 
L 2938 0 
L 2938 2094 
Q 2938 2591 2744 2837 
Q 2550 3084 2163 3084 
Q 1697 3084 1428 2787 
Q 1159 2491 1159 1978 
L 1159 0 
L 581 0 
L 581 3500 
L 1159 3500 
L 1159 2956 
Q 1366 3272 1645 3428 
Q 1925 3584 2291 3584 
Q 2894 3584 3203 3211 
Q 3513 2838 3513 2113 
z
" transform="scale(0.015625)"/>
      </defs>
      <use xlink:href="#DejaVuSans-50"/>
      <use xlink:href="#DejaVuSans-72" x="58.552734"/>
      <use xlink:href="#DejaVuSans-65" x="97.416016"/>
      <use xlink:href="#DejaVuSans-63" x="158.939453"/>
      <use xlink:href="#DejaVuSans-69" x="213.919922"/>
      <use xlink:href="#DejaVuSans-73" x="241.703125"/>
      <use xlink:href="#DejaVuSans-69" x="293.802734"/>
      <use xlink:href="#DejaVuSans-6f" x="321.585938"/>
      <use xlink:href="#DejaVuSans-6e" x="382.767578"/>
      <use xlink:href="#DejaVuSans-20" x="446.146484"/>
      <use xlink:href="#DejaVuSans-28" x="477.933594"/>
      <use xlink:href="#DejaVuSans-50" x="516.947266"/>
      <use xlink:href="#DejaVuSans-6f" x="573.625"/>
      <use xlink:href="#DejaVuSans-73" x="634.806641"/>
      <use xlink:href="#DejaVuSans-69" x="686.90625"/>
      <use xlink:href="#DejaVuSans-74" x="714.689453"/>
      <use xlink:href="#DejaVuSans-69" x="753.898438"/>
      <use xlink:href="#DejaVuSans-76" x="781.681641"/>
      <use xlink:href="#DejaVuSans-65" x="840.861328"/>
      <use xlink:href="#DejaVuSans-20" x="902.384766"/>
      <use xlink:href="#DejaVuSans-6c" x="934.171875"/>
      <use xlink:href="#DejaVuSans-61" x="961.955078"/>
      <use xlink:href="#DejaVuSans-62" x="1023.234375"/>
      <use xlink:href="#DejaVuSans-65" x="1086.710938"/>
      <use xlink:href="#DejaVuSans-6c" x="1148.234375"/>
      <use xlink:href="#DejaVuSans-3a" x="1176.017578"/>
      <use xlink:href="#DejaVuSans-20" x="1209.708984"/>
      <use xlink:href="#DejaVuSans-31" x="1241.496094"/>
      <use xlink:href="#DejaVuSans-2e" x="1305.119141"/>
      <use xlink:href="#DejaVuSans-30" x="1336.90625"/>
      <use xlink:href="#DejaVuSans-29" x="1400.529297"/>
     </g>
    </g>
   </g>
   <g id="line2d_6">
    <path d="M 398.487273 295.488 
L 398.487273 262.53691 
L 396.987714 262.53691 
L 396.987714 262.677605 
L 396.987714 262.023189 
L 396.237934 262.023189 
L 396.237934 261.9167 
L 396.237934 261.805189 
L 395.488155 261.805189 
L 395.488155 261.719488 
L 395.488155 260.686877 
L 393.988595 260.758792 
L 393.988595 260.83084 
L 393.988595 260.334665 
L 392.489036 260.287577 
L 392.489036 260.336237 
L 392.489036 259.754451 
L 391.739257 259.754451 
L 391.739257 259.729287 
L 391.739257 259.382616 
L 390.989477 259.382616 
L 390.989477 259.356143 
L 390.989477 258.414015 
L 390.239698 258.414015 
L 390.239698 258.305992 
L 390.239698 257.75243 
L 389.489918 257.75243 
L 389.489918 257.826851 
L 389.489918 257.207461 
L 388.740139 257.207461 
L 388.740139 257.17313 
L 388.740139 257.090988 
L 387.990359 257.090988 
L 387.990359 257.111138 
L 387.990359 256.89051 
L 386.4908 256.89051 
L 386.4908 257.041227 
L 386.4908 256.985832 
L 384.991241 256.985832 
L 384.991241 257.137202 
L 384.991241 257.109483 
L 383.491682 257.18541 
L 383.491682 257.261492 
L 383.491682 256.588147 
L 381.242343 256.684454 
L 381.242343 256.761278 
L 381.242343 256.590156 
L 380.492564 256.590156 
L 380.492564 256.49507 
L 380.492564 256.147549 
L 375.993886 256.125828 
L 375.993886 256.204186 
L 375.993886 255.059394 
L 374.494327 255.107541 
L 374.494327 255.186626 
L 374.494327 255.155846 
L 372.244988 255.098285 
L 372.244988 255.0848 
L 372.244988 254.86621 
L 369.99565 254.96357 
L 369.99565 255.043899 
L 369.99565 254.854938 
L 368.496091 254.935504 
L 368.496091 255.016251 
L 367.746311 255.016251 
L 367.746311 254.938889 
L 367.746311 254.555355 
L 366.996532 254.555355 
L 366.996532 254.507666 
L 366.996532 254.084473 
L 366.246752 254.084473 
L 366.246752 254.133287 
L 366.246752 253.836356 
L 361.748075 253.834133 
L 361.748075 254.164555 
L 361.748075 254.064482 
L 360.248516 254.064482 
L 360.248516 254.230902 
L 360.248516 254.130538 
L 359.498736 254.130538 
L 359.498736 254.046058 
L 359.498736 253.536076 
L 358.748957 253.536076 
L 358.748957 253.448026 
L 358.748957 252.961057 
L 357.249397 253.045337 
L 357.249397 253.129819 
L 357.249397 253.094741 
L 355.749838 253.179435 
L 355.749838 253.264332 
L 355.749838 253.088392 
L 354.250279 253.138232 
L 354.250279 253.223594 
L 354.250279 253.15287 
L 352.75072 253.238456 
L 352.75072 253.32425 
L 352.75072 253.217896 
L 351.251161 253.268398 
L 351.251161 253.354648 
L 351.251161 252.888923 
L 349.751602 252.794431 
L 349.751602 252.844928 
L 349.751602 252.405319 
L 347.502263 252.394829 
L 347.502263 252.296315 
L 347.502263 251.996012 
L 346.002704 252.046239 
L 346.002704 252.134441 
L 346.002704 251.79265 
L 343.753366 251.79265 
L 343.753366 252.058826 
L 343.753366 251.363722 
L 341.504027 251.267974 
L 341.504027 251.278901 
L 341.504027 251.239368 
L 338.504909 251.210574 
L 338.504909 251.482351 
L 338.504909 251.283266 
L 337.755129 251.283266 
L 337.755129 251.174003 
L 337.755129 250.972294 
L 336.25557 251.063718 
L 336.25557 251.155387 
L 336.25557 249.492369 
L 335.50579 249.492369 
L 335.50579 249.456117 
L 335.50579 249.197697 
L 334.756011 249.197697 
L 334.756011 249.116686 
L 334.756011 248.546207 
L 334.006231 248.546207 
L 334.006231 248.461355 
L 334.006231 248.193034 
L 332.506672 248.286092 
L 332.506672 248.379415 
L 332.506672 247.236489 
L 331.756893 247.236489 
L 331.756893 247.236895 
L 331.756893 245.999941 
L 331.007113 245.999941 
L 331.007113 245.899274 
L 331.007113 225.760235 
L 330.257334 225.760235 
L 330.257334 225.927412 
L 329.507554 225.927412 
L 329.507554 226.094914 
L 329.507554 225.677379 
L 328.757775 225.677379 
L 328.757775 225.845619 
L 328.757775 225.424399 
L 328.007995 225.424399 
L 328.007995 225.593382 
L 326.508436 225.678124 
L 326.508436 225.847858 
L 326.508436 224.907339 
L 325.758656 224.907339 
L 325.758656 225.078336 
L 325.758656 224.557085 
L 325.008877 224.557085 
L 325.008877 224.728933 
L 325.008877 223.037677 
L 324.259097 223.037677 
L 324.259097 223.211492 
L 324.259097 214.001638 
L 322.759538 214.001638 
L 322.759538 214.365846 
L 322.759538 213.587034 
L 322.009759 213.587034 
L 322.009759 213.770332 
L 321.259979 213.770332 
L 321.259979 213.95405 
L 321.259979 201.018328 
L 320.510199 201.018328 
L 320.510199 200.922206 
L 320.510199 195.152677 
L 319.76042 195.152677 
L 319.76042 191.383789 
L 319.01064 191.383789 
L 319.01064 178.095868 
L 317.511081 178.08161 
L 317.511081 178.067262 
L 317.511081 177.854281 
L 316.761302 177.854281 
L 316.761302 178.052821 
L 315.261743 178.038289 
L 315.261743 178.023662 
L 315.261743 177.376252 
L 314.511963 177.376252 
L 314.511963 177.359361 
L 314.511963 175.595857 
L 313.762183 175.595857 
L 313.762183 175.796561 
L 313.012404 175.796561 
L 313.012404 175.997926 
L 313.012404 175.549635 
L 311.512845 175.549635 
L 311.512845 175.954217 
L 311.512845 175.728882 
L 310.763065 175.728882 
L 310.763065 175.932145 
L 310.013286 175.932145 
L 310.013286 176.136085 
L 310.013286 175.455331 
L 309.263506 175.455331 
L 309.263506 175.65984 
L 308.513727 175.65984 
L 308.513727 175.865037 
L 307.763947 175.865037 
L 307.763947 176.070924 
L 307.014168 176.070924 
L 307.014168 176.277505 
L 306.264388 176.277505 
L 306.264388 176.484785 
L 305.514608 176.484785 
L 305.514608 176.692766 
L 305.514608 176.464099 
L 304.764829 176.464099 
L 304.764829 176.443273 
L 304.764829 172.174974 
L 303.26527 172.174974 
L 303.26527 172.592604 
L 302.51549 172.592604 
L 302.51549 172.802524 
L 302.51549 172.064208 
L 301.765711 172.064208 
L 301.765711 172.02676 
L 301.765711 170.011174 
L 301.015931 170.011174 
L 301.015931 168.670907 
L 300.266152 168.670907 
L 300.266152 167.828402 
L 299.516372 167.828402 
L 299.516372 166.157646 
L 298.766592 166.157646 
L 298.766592 166.368884 
L 298.766592 165.270682 
L 298.016813 165.270682 
L 298.016813 165.48224 
L 298.016813 163.234181 
L 297.267033 163.234181 
L 297.267033 163.445484 
L 297.267033 162.872329 
L 295.767474 162.872329 
L 295.767474 163.296812 
L 295.017695 163.296812 
L 295.017695 163.510292 
L 295.017695 162.931793 
L 294.267915 162.931793 
L 294.267915 163.145812 
L 293.518136 163.145812 
L 293.518136 163.360671 
L 293.518136 162.18877 
L 292.018577 162.18877 
L 292.018577 162.619805 
L 292.018577 158.675158 
L 291.268797 158.675158 
L 291.268797 158.889663 
L 291.268797 156.996484 
L 290.519017 156.996484 
L 290.519017 157.210622 
L 290.519017 153.946447 
L 289.019458 153.946447 
L 289.019458 154.038144 
L 289.019458 110.364424 
L 288.269679 110.364424 
L 288.269679 110.519182 
L 288.269679 106.038138 
L 287.519899 106.038138 
L 287.519899 100.281789 
L 286.77012 100.281789 
L 286.77012 100.416411 
L 286.02034 100.416411 
L 286.02034 100.551811 
L 286.02034 81.968417 
L 284.520781 82.058008 
L 284.520781 82.148166 
L 283.771001 82.148166 
L 283.771001 82.238897 
L 283.771001 80.033443 
L 283.021222 80.033443 
L 283.021222 80.118541 
L 283.021222 79.371807 
L 281.521663 79.455315 
L 281.521663 79.539365 
L 280.022104 79.623962 
L 280.022104 79.709112 
L 280.022104 78.948794 
L 274.773647 79.032284 
L 274.773647 79.544987 
L 274.773647 77.977007 
L 269.52519 77.977007 
L 269.52519 78.568229 
L 269.52519 77.759069 
L 268.77541 77.759069 
L 268.77541 77.843359 
L 268.77541 77.026007 
L 267.275851 77.026007 
L 267.275851 77.191204 
L 265.776292 77.274678 
L 265.776292 77.358744 
L 265.776292 76.525124 
L 263.526954 76.607114 
L 263.526954 76.772863 
L 262.027394 76.856635 
L 262.027394 76.941014 
L 261.277615 76.941014 
L 261.277615 77.026007 
L 261.277615 75.307471 
L 259.778056 75.387396 
L 259.778056 75.46791 
L 258.278497 75.549021 
L 258.278497 75.630735 
L 258.278497 74.75023 
L 257.528717 74.75023 
L 257.528717 74.829564 
L 257.528717 73.939427 
L 255.279379 74.0163 
L 255.279379 74.171801 
L 253.779819 74.250441 
L 253.779819 74.329684 
L 251.530481 74.409537 
L 251.530481 74.571099 
L 250.030922 74.652823 
L 250.030922 74.735186 
L 250.030922 73.80628 
L 248.531363 73.885959 
L 248.531363 73.966267 
L 247.031803 74.047212 
L 247.031803 74.128803 
L 245.532244 74.128803 
L 245.532244 74.29395 
L 244.032685 74.377522 
L 244.032685 74.461771 
L 241.783347 74.546705 
L 241.783347 74.718662 
L 240.283788 74.805702 
L 240.283788 74.893461 
L 238.784228 74.981948 
L 238.784228 75.071173 
L 237.284669 75.161144 
L 237.284669 75.251872 
L 232.785992 75.343365 
L 232.785992 75.812662 
L 231.286433 75.908959 
L 231.286433 76.006093 
L 229.037094 76.006093 
L 229.037094 76.302632 
L 227.537535 76.403228 
L 227.537535 76.504718 
L 225.288197 76.607114 
L 225.288197 76.814673 
L 223.788637 76.919862 
L 223.788637 77.026007 
L 218.540181 77.026007 
L 218.540181 77.796927 
L 216.290842 77.796927 
L 216.290842 78.143055 
L 214.791283 78.143055 
L 214.791283 78.379353 
L 214.041503 78.379353 
L 214.041503 78.499215 
L 213.291724 78.499215 
L 213.291724 78.62024 
L 212.541944 78.62024 
L 212.541944 78.742446 
L 211.792165 78.742446 
L 211.792165 78.86585 
L 211.042385 78.86585 
L 211.042385 78.99047 
L 209.542826 78.99047 
L 209.542826 79.24343 
L 208.793046 79.24343 
L 208.793046 79.371807 
L 206.543708 79.371807 
L 206.543708 79.764759 
L 205.793928 79.764759 
L 205.793928 79.898416 
L 205.044149 79.898416 
L 205.044149 80.033443 
L 204.294369 80.033443 
L 204.294369 80.169863 
L 202.79481 80.169863 
L 202.79481 80.446966 
L 202.04503 80.446966 
L 202.04503 80.587694 
L 192.297896 80.587694 
L 192.297896 82.561042 
L 191.548117 82.561042 
L 191.548117 82.724844 
L 190.798337 82.724844 
L 190.798337 82.890508 
L 190.048558 82.890508 
L 190.048558 83.058066 
L 189.298778 83.058066 
L 189.298778 83.227549 
L 188.548999 83.227549 
L 188.548999 83.398991 
L 187.799219 83.398991 
L 187.799219 83.572427 
L 187.049439 83.572427 
L 187.049439 83.747892 
L 186.29966 83.747892 
L 186.29966 83.92542 
L 185.54988 83.92542 
L 185.54988 84.10505 
L 184.050321 84.10505 
L 184.050321 84.470763 
L 183.300542 84.470763 
L 183.300542 84.656925 
L 182.550762 84.656925 
L 182.550762 84.845342 
L 181.800983 84.845342 
L 181.800983 85.036058 
L 180.301423 85.036058 
L 180.301423 85.424552 
L 179.551644 85.424552 
L 179.551644 85.622419 
L 178.052085 85.622419 
L 178.052085 86.025619 
L 176.552526 86.025619 
L 176.552526 86.439092 
L 175.802746 86.439092 
L 175.802746 86.649804 
L 175.052967 86.649804 
L 175.052967 86.863235 
L 174.303187 86.863235 
L 174.303187 87.079438 
L 173.553408 87.079438 
L 173.553408 87.298467 
L 172.803628 87.298467 
L 172.803628 87.520378 
L 172.053848 87.520378 
L 172.053848 87.745228 
L 163.806273 87.745228 
L 163.806273 90.430582 
L 163.056494 90.430582 
L 163.056494 90.69578 
L 161.556935 90.69578 
L 161.556935 91.237792 
L 160.807155 91.237792 
L 160.807155 91.514776 
L 160.057376 91.514776 
L 160.057376 91.795863 
L 159.307596 91.795863 
L 159.307596 92.081145 
L 158.557817 92.081145 
L 158.557817 92.370718 
L 157.808037 92.370718 
L 157.808037 92.664678 
L 157.058257 92.664678 
L 157.058257 92.963126 
L 156.308478 92.963126 
L 156.308478 93.266165 
L 155.558698 93.266165 
L 155.558698 93.573903 
L 154.808919 93.573903 
L 154.808919 93.886449 
L 154.059139 93.886449 
L 154.059139 94.203917 
L 154.059139 90.725483 
L 153.30936 90.725483 
L 153.30936 91.02514 
L 151.809801 91.02514 
L 151.809801 91.639191 
L 151.060021 91.639191 
L 151.060021 91.953829 
L 151.060021 90.123394 
L 150.310241 90.123394 
L 150.310241 90.430582 
L 147.311123 90.430582 
L 147.311123 91.712759 
L 146.561344 91.712759 
L 146.561344 92.047362 
L 145.811564 92.047362 
L 145.811564 92.387887 
L 145.061785 92.387887 
L 145.061785 92.734493 
L 144.312005 92.734493 
L 144.312005 93.087345 
L 143.562225 93.087345 
L 143.562225 93.446611 
L 143.562225 91.445148 
L 140.563107 91.445148 
L 140.563107 92.888087 
L 140.563107 88.641136 
L 139.813328 88.641136 
L 139.813328 88.98499 
L 139.063548 88.98499 
L 139.063548 89.335654 
L 138.313769 89.335654 
L 138.313769 89.69333 
L 138.313769 87.451787 
L 137.563989 87.451787 
L 137.563989 87.79754 
L 136.81421 87.79754 
L 136.81421 88.150422 
L 136.06443 88.150422 
L 136.06443 88.510656 
L 136.06443 86.162283 
L 135.31465 86.162283 
L 135.31465 86.509031 
L 134.564871 86.509031 
L 134.564871 86.863235 
L 133.815091 86.863235 
L 133.815091 87.22514 
L 133.065312 87.22514 
L 133.065312 87.594999 
L 132.315532 87.594999 
L 132.315532 87.973076 
L 132.315532 85.460346 
L 131.565753 85.460346 
L 131.565753 85.822759 
L 127.816855 85.822759 
L 127.816855 87.765817 
L 127.816855 85.036058 
L 127.067075 85.036058 
L 127.067075 85.424552 
L 126.317296 85.424552 
L 126.317296 85.822759 
L 125.567516 85.822759 
L 125.567516 86.231047 
L 124.817737 86.231047 
L 124.817737 86.649804 
L 124.067957 86.649804 
L 124.067957 87.079438 
L 123.318178 87.079438 
L 123.318178 87.520378 
L 123.318178 81.464008 
L 122.568398 81.464008 
L 122.568398 75.374034 
L 121.818619 75.374034 
L 121.818619 68.74671 
L 121.068839 68.74671 
L 121.068839 68.973258 
L 120.319059 68.973258 
L 120.319059 61.63169 
L 119.56928 61.63169 
L 119.56928 61.759685 
L 118.8195 61.759685 
L 118.8195 61.891809 
L 118.069721 61.891809 
L 118.069721 62.028265 
L 117.319941 62.028265 
L 117.319941 62.169269 
L 115.820382 62.169269 
L 115.820382 62.465865 
L 115.070603 62.465865 
L 115.070603 62.621967 
L 114.320823 62.621967 
L 114.320823 62.783645 
L 113.571043 62.783645 
L 113.571043 62.951203 
L 112.821264 62.951203 
L 112.821264 63.124966 
L 111.321705 63.124966 
L 111.321705 63.492541 
L 110.571925 63.492541 
L 110.571925 63.68714 
L 109.822146 63.68714 
L 109.822146 63.889523 
L 109.072366 63.889523 
L 109.072366 64.100166 
L 108.322587 64.100166 
L 108.322587 64.319586 
L 107.572807 64.319586 
L 107.572807 64.548344 
L 106.823028 64.548344 
L 106.823028 64.787047 
L 106.073248 64.787047 
L 106.073248 65.036359 
L 105.323468 65.036359 
L 105.323468 53.568 
L 73.832727 53.568 
L 73.832727 53.568 
" clip-path="url(#p8a673fdfcd)" style="fill: none; stroke: #4c72b0; stroke-width: 1.5; stroke-linecap: round"/>
   </g>
   <g id="patch_3">
    <path d="M 57.6 307.584 
L 57.6 41.472 
" style="fill: none; stroke: #ffffff; stroke-width: 1.25; stroke-linejoin: miter; stroke-linecap: square"/>
   </g>
   <g id="patch_4">
    <path d="M 414.72 307.584 
L 414.72 41.472 
" style="fill: none; stroke: #ffffff; stroke-width: 1.25; stroke-linejoin: miter; stroke-linecap: square"/>
   </g>
   <g id="patch_5">
    <path d="M 57.6 307.584 
L 414.72 307.584 
" style="fill: none; stroke: #ffffff; stroke-width: 1.25; stroke-linejoin: miter; stroke-linecap: square"/>
   </g>
   <g id="patch_6">
    <path d="M 57.6 41.472 
L 414.72 41.472 
" style="fill: none; stroke: #ffffff; stroke-width: 1.25; stroke-linejoin: miter; stroke-linecap: square"/>
   </g>
   <g id="text_8">
    <!-- Precision-recall curve -->
    <g style="fill: #262626" transform="translate(44.206875 35.472)scale(0.36 -0.36)">
     <defs>
      <path id="DejaVuSans-2d" d="M 313 2009 
L 1997 2009 
L 1997 1497 
L 313 1497 
L 313 2009 
z
" transform="scale(0.015625)"/>
      <path id="DejaVuSans-75" d="M 544 1381 
L 544 3500 
L 1119 3500 
L 1119 1403 
Q 1119 906 1312 657 
Q 1506 409 1894 409 
Q 2359 409 2629 706 
Q 2900 1003 2900 1516 
L 2900 3500 
L 3475 3500 
L 3475 0 
L 2900 0 
L 2900 538 
Q 2691 219 2414 64 
Q 2138 -91 1772 -91 
Q 1169 -91 856 284 
Q 544 659 544 1381 
z
M 1991 3584 
L 1991 3584 
z
" transform="scale(0.015625)"/>
     </defs>
     <use xlink:href="#DejaVuSans-50"/>
     <use xlink:href="#DejaVuSans-72" x="58.552734"/>
     <use xlink:href="#DejaVuSans-65" x="97.416016"/>
     <use xlink:href="#DejaVuSans-63" x="158.939453"/>
     <use xlink:href="#DejaVuSans-69" x="213.919922"/>
     <use xlink:href="#DejaVuSans-73" x="241.703125"/>
     <use xlink:href="#DejaVuSans-69" x="293.802734"/>
     <use xlink:href="#DejaVuSans-6f" x="321.585938"/>
     <use xlink:href="#DejaVuSans-6e" x="382.767578"/>
     <use xlink:href="#DejaVuSans-2d" x="446.146484"/>
     <use xlink:href="#DejaVuSans-72" x="482.230469"/>
     <use xlink:href="#DejaVuSans-65" x="521.09375"/>
     <use xlink:href="#DejaVuSans-63" x="582.617188"/>
     <use xlink:href="#DejaVuSans-61" x="637.597656"/>
     <use xlink:href="#DejaVuSans-6c" x="698.876953"/>
     <use xlink:href="#DejaVuSans-6c" x="726.660156"/>
     <use xlink:href="#DejaVuSans-20" x="754.443359"/>
     <use xlink:href="#DejaVuSans-63" x="786.230469"/>
     <use xlink:href="#DejaVuSans-75" x="841.210938"/>
     <use xlink:href="#DejaVuSans-72" x="904.589844"/>
     <use xlink:href="#DejaVuSans-76" x="945.703125"/>
     <use xlink:href="#DejaVuSans-65" x="1004.882812"/>
    </g>
   </g>
   <g id="legend_1">
    <g id="patch_7">
     <path d="M 80.7 291.084 
L 635.445469 291.084 
Q 642.045469 291.084 642.045469 284.484 
L 642.045469 239.346187 
Q 642.045469 232.746187 635.445469 232.746187 
L 80.7 232.746187 
Q 74.1 232.746187 74.1 239.346187 
L 74.1 284.484 
Q 74.1 291.084 80.7 291.084 
z
" style="fill: #eaeaf2; opacity: 0.8; stroke: #cccccc; stroke-linejoin: miter"/>
    </g>
    <g id="line2d_7">
     <path d="M 87.3 259.471031 
L 120.3 259.471031 
L 120.3 259.471031 
L 153.3 259.471031 
L 153.3 259.471031 
" style="fill: none; stroke: #4c72b0; stroke-width: 1.5; stroke-linecap: round"/>
    </g>
    <g id="text_9">
     <!-- Random Forest (AP = 0.71) -->
     <g style="fill: #262626" transform="translate(179.7 271.021031)scale(0.33 -0.33)">
      <defs>
       <path id="DejaVuSans-64" d="M 2906 2969 
L 2906 4863 
L 3481 4863 
L 3481 0 
L 2906 0 
L 2906 525 
Q 2725 213 2448 61 
Q 2172 -91 1784 -91 
Q 1150 -91 751 415 
Q 353 922 353 1747 
Q 353 2572 751 3078 
Q 1150 3584 1784 3584 
Q 2172 3584 2448 3432 
Q 2725 3281 2906 2969 
z
M 947 1747 
Q 947 1113 1208 752 
Q 1469 391 1925 391 
Q 2381 391 2643 752 
Q 2906 1113 2906 1747 
Q 2906 2381 2643 2742 
Q 2381 3103 1925 3103 
Q 1469 3103 1208 2742 
Q 947 2381 947 1747 
z
" transform="scale(0.015625)"/>
       <path id="DejaVuSans-6d" d="M 3328 2828 
Q 3544 3216 3844 3400 
Q 4144 3584 4550 3584 
Q 5097 3584 5394 3201 
Q 5691 2819 5691 2113 
L 5691 0 
L 5113 0 
L 5113 2094 
Q 5113 2597 4934 2840 
Q 4756 3084 4391 3084 
Q 3944 3084 3684 2787 
Q 3425 2491 3425 1978 
L 3425 0 
L 2847 0 
L 2847 2094 
Q 2847 2600 2669 2842 
Q 2491 3084 2119 3084 
Q 1678 3084 1418 2786 
Q 1159 2488 1159 1978 
L 1159 0 
L 581 0 
L 581 3500 
L 1159 3500 
L 1159 2956 
Q 1356 3278 1631 3431 
Q 1906 3584 2284 3584 
Q 2666 3584 2933 3390 
Q 3200 3197 3328 2828 
z
" transform="scale(0.015625)"/>
       <path id="DejaVuSans-46" d="M 628 4666 
L 3309 4666 
L 3309 4134 
L 1259 4134 
L 1259 2759 
L 3109 2759 
L 3109 2228 
L 1259 2228 
L 1259 0 
L 628 0 
L 628 4666 
z
" transform="scale(0.015625)"/>
       <path id="DejaVuSans-41" d="M 2188 4044 
L 1331 1722 
L 3047 1722 
L 2188 4044 
z
M 1831 4666 
L 2547 4666 
L 4325 0 
L 3669 0 
L 3244 1197 
L 1141 1197 
L 716 0 
L 50 0 
L 1831 4666 
z
" transform="scale(0.015625)"/>
       <path id="DejaVuSans-3d" d="M 678 2906 
L 4684 2906 
L 4684 2381 
L 678 2381 
L 678 2906 
z
M 678 1631 
L 4684 1631 
L 4684 1100 
L 678 1100 
L 678 1631 
z
" transform="scale(0.015625)"/>
       <path id="DejaVuSans-37" d="M 525 4666 
L 3525 4666 
L 3525 4397 
L 1831 0 
L 1172 0 
L 2766 4134 
L 525 4134 
L 525 4666 
z
" transform="scale(0.015625)"/>
      </defs>
      <use xlink:href="#DejaVuSans-52"/>
      <use xlink:href="#DejaVuSans-61" x="67.232422"/>
      <use xlink:href="#DejaVuSans-6e" x="128.511719"/>
      <use xlink:href="#DejaVuSans-64" x="191.890625"/>
      <use xlink:href="#DejaVuSans-6f" x="255.367188"/>
      <use xlink:href="#DejaVuSans-6d" x="316.548828"/>
      <use xlink:href="#DejaVuSans-20" x="413.960938"/>
      <use xlink:href="#DejaVuSans-46" x="445.748047"/>
      <use xlink:href="#DejaVuSans-6f" x="499.642578"/>
      <use xlink:href="#DejaVuSans-72" x="560.824219"/>
      <use xlink:href="#DejaVuSans-65" x="599.6875"/>
      <use xlink:href="#DejaVuSans-73" x="661.210938"/>
      <use xlink:href="#DejaVuSans-74" x="713.310547"/>
      <use xlink:href="#DejaVuSans-20" x="752.519531"/>
      <use xlink:href="#DejaVuSans-28" x="784.306641"/>
      <use xlink:href="#DejaVuSans-41" x="823.320312"/>
      <use xlink:href="#DejaVuSans-50" x="891.728516"/>
      <use xlink:href="#DejaVuSans-20" x="952.03125"/>
      <use xlink:href="#DejaVuSans-3d" x="983.818359"/>
      <use xlink:href="#DejaVuSans-20" x="1067.607422"/>
      <use xlink:href="#DejaVuSans-30" x="1099.394531"/>
      <use xlink:href="#DejaVuSans-2e" x="1163.017578"/>
      <use xlink:href="#DejaVuSans-37" x="1194.804688"/>
      <use xlink:href="#DejaVuSans-31" x="1258.427734"/>
      <use xlink:href="#DejaVuSans-29" x="1322.050781"/>
     </g>
    </g>
   </g>
  </g>
 </g>
 <defs>
  <clipPath id="p8a673fdfcd">
   <rect x="57.6" y="41.472" width="357.12" height="266.112"/>
  </clipPath>
 </defs>
</svg>
