<?xml version="1.0" encoding="utf-8" standalone="no"?>
<!DOCTYPE svg PUBLIC "-//W3C//DTD SVG 1.1//EN"
  "http://www.w3.org/Graphics/SVG/1.1/DTD/svg11.dtd">
<svg xmlns:xlink="http://www.w3.org/1999/xlink" width="460.8pt" height="345.6pt" viewBox="0 0 460.8 345.6" xmlns="http://www.w3.org/2000/svg" version="1.1">
 <metadata>
  <rdf:RDF xmlns:dc="http://purl.org/dc/elements/1.1/" xmlns:cc="http://creativecommons.org/ns#" xmlns:rdf="http://www.w3.org/1999/02/22-rdf-syntax-ns#">
   <cc:Work>
    <dc:type rdf:resource="http://purl.org/dc/dcmitype/StillImage"/>
    <dc:date>2022-11-22T10:25:39.290482</dc:date>
    <dc:format>image/svg+xml</dc:format>
    <dc:creator>
     <cc:Agent>
      <dc:title>Matplotlib v3.5.2, https://matplotlib.org/</dc:title>
     </cc:Agent>
    </dc:creator>
   </cc:Work>
  </rdf:RDF>
 </metadata>
 <defs>
  <style type="text/css">*{stroke-linejoin: round; stroke-linecap: butt}</style>
 </defs>
 <g id="figure_1">
  <g id="patch_1">
   <path d="M 0 345.6 
L 460.8 345.6 
L 460.8 0 
L 0 0 
z
" style="fill: #ffffff"/>
  </g>
  <g id="axes_1">
   <g id="patch_2">
    <path d="M 57.6 307.584 
L 414.72 307.584 
L 414.72 41.472 
L 57.6 41.472 
z
" style="fill: #eaeaf2"/>
   </g>
   <g id="matplotlib.axis_1">
    <g id="xtick_1">
     <g id="line2d_1">
      <path d="M 73.832727 307.584 
L 73.832727 41.472 
" clip-path="url(#p290000af2a)" style="fill: none; stroke: #ffffff; stroke-linecap: round"/>
     </g>
     <g id="text_1">
      <!-- 0.0 -->
      <g style="fill: #262626" transform="translate(47.592571 342.158844)scale(0.33 -0.33)">
       <defs>
        <path id="DejaVuSans-30" d="M 2034 4250 
Q 1547 4250 1301 3770 
Q 1056 3291 1056 2328 
Q 1056 1369 1301 889 
Q 1547 409 2034 409 
Q 2525 409 2770 889 
Q 3016 1369 3016 2328 
Q 3016 3291 2770 3770 
Q 2525 4250 2034 4250 
z
M 2034 4750 
Q 2819 4750 3233 4129 
Q 3647 3509 3647 2328 
Q 3647 1150 3233 529 
Q 2819 -91 2034 -91 
Q 1250 -91 836 529 
Q 422 1150 422 2328 
Q 422 3509 836 4129 
Q 1250 4750 2034 4750 
z
" transform="scale(0.015625)"/>
        <path id="DejaVuSans-2e" d="M 684 794 
L 1344 794 
L 1344 0 
L 684 0 
L 684 794 
z
" transform="scale(0.015625)"/>
       </defs>
       <use xlink:href="#DejaVuSans-30"/>
       <use xlink:href="#DejaVuSans-2e" x="63.623047"/>
       <use xlink:href="#DejaVuSans-30" x="95.410156"/>
      </g>
     </g>
    </g>
    <g id="xtick_2">
     <g id="line2d_2">
      <path d="M 236.16 307.584 
L 236.16 41.472 
" clip-path="url(#p290000af2a)" style="fill: none; stroke: #ffffff; stroke-linecap: round"/>
     </g>
     <g id="text_2">
      <!-- 0.5 -->
      <g style="fill: #262626" transform="translate(209.919844 342.158844)scale(0.33 -0.33)">
       <defs>
        <path id="DejaVuSans-35" d="M 691 4666 
L 3169 4666 
L 3169 4134 
L 1269 4134 
L 1269 2991 
Q 1406 3038 1543 3061 
Q 1681 3084 1819 3084 
Q 2600 3084 3056 2656 
Q 3513 2228 3513 1497 
Q 3513 744 3044 326 
Q 2575 -91 1722 -91 
Q 1428 -91 1123 -41 
Q 819 9 494 109 
L 494 744 
Q 775 591 1075 516 
Q 1375 441 1709 441 
Q 2250 441 2565 725 
Q 2881 1009 2881 1497 
Q 2881 1984 2565 2268 
Q 2250 2553 1709 2553 
Q 1456 2553 1204 2497 
Q 953 2441 691 2322 
L 691 4666 
z
" transform="scale(0.015625)"/>
       </defs>
       <use xlink:href="#DejaVuSans-30"/>
       <use xlink:href="#DejaVuSans-2e" x="63.623047"/>
       <use xlink:href="#DejaVuSans-35" x="95.410156"/>
      </g>
     </g>
    </g>
    <g id="xtick_3">
     <g id="line2d_3">
      <path d="M 398.487273 307.584 
L 398.487273 41.472 
" clip-path="url(#p290000af2a)" style="fill: none; stroke: #ffffff; stroke-linecap: round"/>
     </g>
     <g id="text_3">
      <!-- 1.0 -->
      <g style="fill: #262626" transform="translate(372.247116 342.158844)scale(0.33 -0.33)">
       <defs>
        <path id="DejaVuSans-31" d="M 794 531 
L 1825 531 
L 1825 4091 
L 703 3866 
L 703 4441 
L 1819 4666 
L 2450 4666 
L 2450 531 
L 3481 531 
L 3481 0 
L 794 0 
L 794 531 
z
" transform="scale(0.015625)"/>
       </defs>
       <use xlink:href="#DejaVuSans-31"/>
       <use xlink:href="#DejaVuSans-2e" x="63.623047"/>
       <use xlink:href="#DejaVuSans-30" x="95.410156"/>
      </g>
     </g>
    </g>
    <g id="text_4">
     <!-- Recall (Positive label: 1.0) -->
     <g style="fill: #262626" transform="translate(3.647813 380.376187)scale(0.36 -0.36)">
      <defs>
       <path id="DejaVuSans-52" d="M 2841 2188 
Q 3044 2119 3236 1894 
Q 3428 1669 3622 1275 
L 4263 0 
L 3584 0 
L 2988 1197 
Q 2756 1666 2539 1819 
Q 2322 1972 1947 1972 
L 1259 1972 
L 1259 0 
L 628 0 
L 628 4666 
L 2053 4666 
Q 2853 4666 3247 4331 
Q 3641 3997 3641 3322 
Q 3641 2881 3436 2590 
Q 3231 2300 2841 2188 
z
M 1259 4147 
L 1259 2491 
L 2053 2491 
Q 2509 2491 2742 2702 
Q 2975 2913 2975 3322 
Q 2975 3731 2742 3939 
Q 2509 4147 2053 4147 
L 1259 4147 
z
" transform="scale(0.015625)"/>
       <path id="DejaVuSans-65" d="M 3597 1894 
L 3597 1613 
L 953 1613 
Q 991 1019 1311 708 
Q 1631 397 2203 397 
Q 2534 397 2845 478 
Q 3156 559 3463 722 
L 3463 178 
Q 3153 47 2828 -22 
Q 2503 -91 2169 -91 
Q 1331 -91 842 396 
Q 353 884 353 1716 
Q 353 2575 817 3079 
Q 1281 3584 2069 3584 
Q 2775 3584 3186 3129 
Q 3597 2675 3597 1894 
z
M 3022 2063 
Q 3016 2534 2758 2815 
Q 2500 3097 2075 3097 
Q 1594 3097 1305 2825 
Q 1016 2553 972 2059 
L 3022 2063 
z
" transform="scale(0.015625)"/>
       <path id="DejaVuSans-63" d="M 3122 3366 
L 3122 2828 
Q 2878 2963 2633 3030 
Q 2388 3097 2138 3097 
Q 1578 3097 1268 2742 
Q 959 2388 959 1747 
Q 959 1106 1268 751 
Q 1578 397 2138 397 
Q 2388 397 2633 464 
Q 2878 531 3122 666 
L 3122 134 
Q 2881 22 2623 -34 
Q 2366 -91 2075 -91 
Q 1284 -91 818 406 
Q 353 903 353 1747 
Q 353 2603 823 3093 
Q 1294 3584 2113 3584 
Q 2378 3584 2631 3529 
Q 2884 3475 3122 3366 
z
" transform="scale(0.015625)"/>
       <path id="DejaVuSans-61" d="M 2194 1759 
Q 1497 1759 1228 1600 
Q 959 1441 959 1056 
Q 959 750 1161 570 
Q 1363 391 1709 391 
Q 2188 391 2477 730 
Q 2766 1069 2766 1631 
L 2766 1759 
L 2194 1759 
z
M 3341 1997 
L 3341 0 
L 2766 0 
L 2766 531 
Q 2569 213 2275 61 
Q 1981 -91 1556 -91 
Q 1019 -91 701 211 
Q 384 513 384 1019 
Q 384 1609 779 1909 
Q 1175 2209 1959 2209 
L 2766 2209 
L 2766 2266 
Q 2766 2663 2505 2880 
Q 2244 3097 1772 3097 
Q 1472 3097 1187 3025 
Q 903 2953 641 2809 
L 641 3341 
Q 956 3463 1253 3523 
Q 1550 3584 1831 3584 
Q 2591 3584 2966 3190 
Q 3341 2797 3341 1997 
z
" transform="scale(0.015625)"/>
       <path id="DejaVuSans-6c" d="M 603 4863 
L 1178 4863 
L 1178 0 
L 603 0 
L 603 4863 
z
" transform="scale(0.015625)"/>
       <path id="DejaVuSans-20" transform="scale(0.015625)"/>
       <path id="DejaVuSans-28" d="M 1984 4856 
Q 1566 4138 1362 3434 
Q 1159 2731 1159 2009 
Q 1159 1288 1364 580 
Q 1569 -128 1984 -844 
L 1484 -844 
Q 1016 -109 783 600 
Q 550 1309 550 2009 
Q 550 2706 781 3412 
Q 1013 4119 1484 4856 
L 1984 4856 
z
" transform="scale(0.015625)"/>
       <path id="DejaVuSans-50" d="M 1259 4147 
L 1259 2394 
L 2053 2394 
Q 2494 2394 2734 2622 
Q 2975 2850 2975 3272 
Q 2975 3691 2734 3919 
Q 2494 4147 2053 4147 
L 1259 4147 
z
M 628 4666 
L 2053 4666 
Q 2838 4666 3239 4311 
Q 3641 3956 3641 3272 
Q 3641 2581 3239 2228 
Q 2838 1875 2053 1875 
L 1259 1875 
L 1259 0 
L 628 0 
L 628 4666 
z
" transform="scale(0.015625)"/>
       <path id="DejaVuSans-6f" d="M 1959 3097 
Q 1497 3097 1228 2736 
Q 959 2375 959 1747 
Q 959 1119 1226 758 
Q 1494 397 1959 397 
Q 2419 397 2687 759 
Q 2956 1122 2956 1747 
Q 2956 2369 2687 2733 
Q 2419 3097 1959 3097 
z
M 1959 3584 
Q 2709 3584 3137 3096 
Q 3566 2609 3566 1747 
Q 3566 888 3137 398 
Q 2709 -91 1959 -91 
Q 1206 -91 779 398 
Q 353 888 353 1747 
Q 353 2609 779 3096 
Q 1206 3584 1959 3584 
z
" transform="scale(0.015625)"/>
       <path id="DejaVuSans-73" d="M 2834 3397 
L 2834 2853 
Q 2591 2978 2328 3040 
Q 2066 3103 1784 3103 
Q 1356 3103 1142 2972 
Q 928 2841 928 2578 
Q 928 2378 1081 2264 
Q 1234 2150 1697 2047 
L 1894 2003 
Q 2506 1872 2764 1633 
Q 3022 1394 3022 966 
Q 3022 478 2636 193 
Q 2250 -91 1575 -91 
Q 1294 -91 989 -36 
Q 684 19 347 128 
L 347 722 
Q 666 556 975 473 
Q 1284 391 1588 391 
Q 1994 391 2212 530 
Q 2431 669 2431 922 
Q 2431 1156 2273 1281 
Q 2116 1406 1581 1522 
L 1381 1569 
Q 847 1681 609 1914 
Q 372 2147 372 2553 
Q 372 3047 722 3315 
Q 1072 3584 1716 3584 
Q 2034 3584 2315 3537 
Q 2597 3491 2834 3397 
z
" transform="scale(0.015625)"/>
       <path id="DejaVuSans-69" d="M 603 3500 
L 1178 3500 
L 1178 0 
L 603 0 
L 603 3500 
z
M 603 4863 
L 1178 4863 
L 1178 4134 
L 603 4134 
L 603 4863 
z
" transform="scale(0.015625)"/>
       <path id="DejaVuSans-74" d="M 1172 4494 
L 1172 3500 
L 2356 3500 
L 2356 3053 
L 1172 3053 
L 1172 1153 
Q 1172 725 1289 603 
Q 1406 481 1766 481 
L 2356 481 
L 2356 0 
L 1766 0 
Q 1100 0 847 248 
Q 594 497 594 1153 
L 594 3053 
L 172 3053 
L 172 3500 
L 594 3500 
L 594 4494 
L 1172 4494 
z
" transform="scale(0.015625)"/>
       <path id="DejaVuSans-76" d="M 191 3500 
L 800 3500 
L 1894 563 
L 2988 3500 
L 3597 3500 
L 2284 0 
L 1503 0 
L 191 3500 
z
" transform="scale(0.015625)"/>
       <path id="DejaVuSans-62" d="M 3116 1747 
Q 3116 2381 2855 2742 
Q 2594 3103 2138 3103 
Q 1681 3103 1420 2742 
Q 1159 2381 1159 1747 
Q 1159 1113 1420 752 
Q 1681 391 2138 391 
Q 2594 391 2855 752 
Q 3116 1113 3116 1747 
z
M 1159 2969 
Q 1341 3281 1617 3432 
Q 1894 3584 2278 3584 
Q 2916 3584 3314 3078 
Q 3713 2572 3713 1747 
Q 3713 922 3314 415 
Q 2916 -91 2278 -91 
Q 1894 -91 1617 61 
Q 1341 213 1159 525 
L 1159 0 
L 581 0 
L 581 4863 
L 1159 4863 
L 1159 2969 
z
" transform="scale(0.015625)"/>
       <path id="DejaVuSans-3a" d="M 750 794 
L 1409 794 
L 1409 0 
L 750 0 
L 750 794 
z
M 750 3309 
L 1409 3309 
L 1409 2516 
L 750 2516 
L 750 3309 
z
" transform="scale(0.015625)"/>
       <path id="DejaVuSans-29" d="M 513 4856 
L 1013 4856 
Q 1481 4119 1714 3412 
Q 1947 2706 1947 2009 
Q 1947 1309 1714 600 
Q 1481 -109 1013 -844 
L 513 -844 
Q 928 -128 1133 580 
Q 1338 1288 1338 2009 
Q 1338 2731 1133 3434 
Q 928 4138 513 4856 
z
" transform="scale(0.015625)"/>
      </defs>
      <use xlink:href="#DejaVuSans-52"/>
      <use xlink:href="#DejaVuSans-65" x="64.982422"/>
      <use xlink:href="#DejaVuSans-63" x="126.505859"/>
      <use xlink:href="#DejaVuSans-61" x="181.486328"/>
      <use xlink:href="#DejaVuSans-6c" x="242.765625"/>
      <use xlink:href="#DejaVuSans-6c" x="270.548828"/>
      <use xlink:href="#DejaVuSans-20" x="298.332031"/>
      <use xlink:href="#DejaVuSans-28" x="330.119141"/>
      <use xlink:href="#DejaVuSans-50" x="369.132812"/>
      <use xlink:href="#DejaVuSans-6f" x="425.810547"/>
      <use xlink:href="#DejaVuSans-73" x="486.992188"/>
      <use xlink:href="#DejaVuSans-69" x="539.091797"/>
      <use xlink:href="#DejaVuSans-74" x="566.875"/>
      <use xlink:href="#DejaVuSans-69" x="606.083984"/>
      <use xlink:href="#DejaVuSans-76" x="633.867188"/>
      <use xlink:href="#DejaVuSans-65" x="693.046875"/>
      <use xlink:href="#DejaVuSans-20" x="754.570312"/>
      <use xlink:href="#DejaVuSans-6c" x="786.357422"/>
      <use xlink:href="#DejaVuSans-61" x="814.140625"/>
      <use xlink:href="#DejaVuSans-62" x="875.419922"/>
      <use xlink:href="#DejaVuSans-65" x="938.896484"/>
      <use xlink:href="#DejaVuSans-6c" x="1000.419922"/>
      <use xlink:href="#DejaVuSans-3a" x="1028.203125"/>
      <use xlink:href="#DejaVuSans-20" x="1061.894531"/>
      <use xlink:href="#DejaVuSans-31" x="1093.681641"/>
      <use xlink:href="#DejaVuSans-2e" x="1157.304688"/>
      <use xlink:href="#DejaVuSans-30" x="1189.091797"/>
      <use xlink:href="#DejaVuSans-29" x="1252.714844"/>
     </g>
    </g>
   </g>
   <g id="matplotlib.axis_2">
    <g id="ytick_1">
     <g id="line2d_4">
      <path d="M 57.6 184.319059 
L 414.72 184.319059 
" clip-path="url(#p290000af2a)" style="fill: none; stroke: #ffffff; stroke-linecap: round"/>
     </g>
     <g id="text_5">
      <!-- 0.5 -->
      <g style="fill: #262626" transform="translate(-4.380313 196.856481)scale(0.33 -0.33)">
       <use xlink:href="#DejaVuSans-30"/>
       <use xlink:href="#DejaVuSans-2e" x="63.623047"/>
       <use xlink:href="#DejaVuSans-35" x="95.410156"/>
      </g>
     </g>
    </g>
    <g id="ytick_2">
     <g id="line2d_5">
      <path d="M 57.6 53.568 
L 414.72 53.568 
" clip-path="url(#p290000af2a)" style="fill: none; stroke: #ffffff; stroke-linecap: round"/>
     </g>
     <g id="text_6">
      <!-- 1.0 -->
      <g style="fill: #262626" transform="translate(-4.380313 66.105422)scale(0.33 -0.33)">
       <use xlink:href="#DejaVuSans-31"/>
       <use xlink:href="#DejaVuSans-2e" x="63.623047"/>
       <use xlink:href="#DejaVuSans-30" x="95.410156"/>
      </g>
     </g>
    </g>
    <g id="text_7">
     <!-- Precision (Positive label: 1.0) -->
     <g style="fill: #262626" transform="translate(-15.867188 433.643625)rotate(-90)scale(0.36 -0.36)">
      <defs>
       <path id="DejaVuSans-72" d="M 2631 2963 
Q 2534 3019 2420 3045 
Q 2306 3072 2169 3072 
Q 1681 3072 1420 2755 
Q 1159 2438 1159 1844 
L 1159 0 
L 581 0 
L 581 3500 
L 1159 3500 
L 1159 2956 
Q 1341 3275 1631 3429 
Q 1922 3584 2338 3584 
Q 2397 3584 2469 3576 
Q 2541 3569 2628 3553 
L 2631 2963 
z
" transform="scale(0.015625)"/>
       <path id="DejaVuSans-6e" d="M 3513 2113 
L 3513 0 
L 2938 0 
L 2938 2094 
Q 2938 2591 2744 2837 
Q 2550 3084 2163 3084 
Q 1697 3084 1428 2787 
Q 1159 2491 1159 1978 
L 1159 0 
L 581 0 
L 581 3500 
L 1159 3500 
L 1159 2956 
Q 1366 3272 1645 3428 
Q 1925 3584 2291 3584 
Q 2894 3584 3203 3211 
Q 3513 2838 3513 2113 
z
" transform="scale(0.015625)"/>
      </defs>
      <use xlink:href="#DejaVuSans-50"/>
      <use xlink:href="#DejaVuSans-72" x="58.552734"/>
      <use xlink:href="#DejaVuSans-65" x="97.416016"/>
      <use xlink:href="#DejaVuSans-63" x="158.939453"/>
      <use xlink:href="#DejaVuSans-69" x="213.919922"/>
      <use xlink:href="#DejaVuSans-73" x="241.703125"/>
      <use xlink:href="#DejaVuSans-69" x="293.802734"/>
      <use xlink:href="#DejaVuSans-6f" x="321.585938"/>
      <use xlink:href="#DejaVuSans-6e" x="382.767578"/>
      <use xlink:href="#DejaVuSans-20" x="446.146484"/>
      <use xlink:href="#DejaVuSans-28" x="477.933594"/>
      <use xlink:href="#DejaVuSans-50" x="516.947266"/>
      <use xlink:href="#DejaVuSans-6f" x="573.625"/>
      <use xlink:href="#DejaVuSans-73" x="634.806641"/>
      <use xlink:href="#DejaVuSans-69" x="686.90625"/>
      <use xlink:href="#DejaVuSans-74" x="714.689453"/>
      <use xlink:href="#DejaVuSans-69" x="753.898438"/>
      <use xlink:href="#DejaVuSans-76" x="781.681641"/>
      <use xlink:href="#DejaVuSans-65" x="840.861328"/>
      <use xlink:href="#DejaVuSans-20" x="902.384766"/>
      <use xlink:href="#DejaVuSans-6c" x="934.171875"/>
      <use xlink:href="#DejaVuSans-61" x="961.955078"/>
      <use xlink:href="#DejaVuSans-62" x="1023.234375"/>
      <use xlink:href="#DejaVuSans-65" x="1086.710938"/>
      <use xlink:href="#DejaVuSans-6c" x="1148.234375"/>
      <use xlink:href="#DejaVuSans-3a" x="1176.017578"/>
      <use xlink:href="#DejaVuSans-20" x="1209.708984"/>
      <use xlink:href="#DejaVuSans-31" x="1241.496094"/>
      <use xlink:href="#DejaVuSans-2e" x="1305.119141"/>
      <use xlink:href="#DejaVuSans-30" x="1336.90625"/>
      <use xlink:href="#DejaVuSans-29" x="1400.529297"/>
     </g>
    </g>
   </g>
   <g id="line2d_6">
    <path d="M 398.487273 295.488 
L 398.487273 116.507033 
L 398.338349 116.507033 
L 398.338349 116.321211 
L 398.189425 116.321211 
L 398.189425 116.204331 
L 397.742652 116.109066 
L 397.742652 115.991677 
L 397.593728 115.991677 
L 397.593728 115.874041 
L 397.444804 115.874041 
L 397.444804 115.686222 
L 397.146956 115.638025 
L 397.146956 115.519644 
L 396.551259 115.444557 
L 396.551259 115.325638 
L 395.210942 115.288422 
L 395.210942 115.168747 
L 394.76417 115.070627 
L 394.76417 114.950422 
L 394.615246 114.950422 
L 394.615246 114.829961 
L 394.317398 114.78052 
L 394.317398 114.659663 
L 394.168474 114.659663 
L 394.168474 114.538547 
L 394.01955 114.538547 
L 394.01955 114.417172 
L 393.721701 114.367242 
L 393.721701 114.245467 
L 393.126005 114.166807 
L 393.126005 114.116519 
L 392.679233 114.015726 
L 392.679233 113.96522 
L 392.23246 113.863992 
L 392.23246 113.813268 
L 391.189992 113.725764 
L 391.189992 113.674739 
L 390.594295 113.594192 
L 390.594295 113.542942 
L 389.998599 113.461952 
L 389.998599 113.410475 
L 389.551827 113.307298 
L 389.551827 113.255597 
L 389.105054 113.151968 
L 389.105054 113.10004 
L 388.658282 112.995957 
L 388.658282 112.943801 
L 388.21151 112.83926 
L 388.21151 112.786875 
L 387.764737 112.681873 
L 387.764737 112.629257 
L 387.317965 112.523792 
L 387.317965 112.470943 
L 386.871193 112.365011 
L 386.871193 112.311928 
L 386.42442 112.205527 
L 386.42442 112.152208 
L 385.977648 112.045334 
L 385.977648 111.991778 
L 385.530876 111.884428 
L 385.530876 111.830633 
L 385.084103 111.722803 
L 385.084103 111.668768 
L 384.637331 111.560456 
L 384.637331 111.506179 
L 384.190559 111.397381 
L 384.190559 111.34286 
L 383.743786 111.233574 
L 383.743786 111.178808 
L 383.14809 111.090613 
L 383.14809 111.035595 
L 382.552394 110.925312 
L 382.552394 110.660657 
L 381.956697 110.570917 
L 381.956697 110.515153 
L 381.658849 110.459305 
L 381.658849 110.403371 
L 381.361001 110.347353 
L 381.361001 110.29125 
L 381.063153 110.235062 
L 381.063153 110.178789 
L 380.61638 110.12243 
L 380.61638 109.853218 
L 380.318532 109.796439 
L 380.318532 109.739573 
L 380.020684 109.68262 
L 380.020684 109.62558 
L 379.722836 109.568454 
L 379.722836 109.511239 
L 379.127139 109.417954 
L 379.127139 109.36047 
L 378.829291 109.302898 
L 378.829291 109.245238 
L 378.531443 109.187489 
L 378.531443 109.129651 
L 378.233595 109.071724 
L 378.233595 109.013707 
L 377.935746 108.955601 
L 377.935746 108.897406 
L 377.637898 108.83912 
L 377.637898 108.780744 
L 377.34005 108.722278 
L 377.34005 108.663721 
L 376.744354 108.567669 
L 376.744354 108.508833 
L 376.446505 108.449906 
L 376.446505 108.390887 
L 376.148657 108.331776 
L 376.148657 108.272572 
L 375.850809 108.213277 
L 375.850809 108.153889 
L 375.255113 108.115707 
L 375.255113 107.996453 
L 374.957264 107.936686 
L 374.957264 107.876825 
L 374.659416 107.816871 
L 374.659416 107.756822 
L 374.361568 107.696679 
L 374.361568 107.636441 
L 374.06372 107.576109 
L 374.06372 107.515681 
L 373.765872 107.455158 
L 373.765872 107.39454 
L 373.468023 107.333826 
L 373.468023 107.273016 
L 373.021251 107.21211 
L 373.021251 107.090009 
L 372.723403 107.090009 
L 372.723403 106.967521 
L 372.425555 106.90613 
L 372.425555 106.844643 
L 372.127706 106.783057 
L 372.127706 106.721374 
L 371.829858 106.659592 
L 371.829858 106.597712 
L 371.53201 106.535734 
L 371.53201 106.473656 
L 371.234162 106.411479 
L 371.234162 106.349203 
L 370.936314 106.286827 
L 370.936314 106.224351 
L 370.638465 106.161775 
L 370.638465 106.099099 
L 370.340617 106.036322 
L 370.340617 105.973445 
L 369.744921 105.868424 
L 369.744921 105.805233 
L 369.447073 105.741941 
L 369.447073 105.678547 
L 369.149224 105.615051 
L 369.149224 105.551451 
L 368.702452 105.487749 
L 368.702452 105.360036 
L 368.404604 105.296023 
L 368.404604 105.231907 
L 368.106756 105.167687 
L 368.106756 105.103363 
L 367.808907 105.038933 
L 367.808907 104.974399 
L 367.511059 104.90976 
L 367.511059 104.845015 
L 367.213211 104.780165 
L 367.213211 104.715209 
L 366.915363 104.650146 
L 366.915363 104.584978 
L 366.617515 104.519702 
L 366.617515 104.45432 
L 366.319666 104.38883 
L 366.319666 104.323233 
L 366.021818 104.257528 
L 366.021818 104.191715 
L 365.72397 104.125793 
L 365.72397 104.059763 
L 365.426122 103.993625 
L 365.426122 103.927377 
L 365.128274 103.86102 
L 365.128274 103.794553 
L 364.830425 103.727976 
L 364.830425 103.661289 
L 364.532577 103.594492 
L 364.532577 103.527584 
L 364.234729 103.460565 
L 364.234729 103.393435 
L 363.787957 103.346874 
L 363.787957 103.279509 
L 363.490108 103.212032 
L 363.490108 103.144443 
L 363.19226 103.076741 
L 363.19226 103.008926 
L 362.894412 102.940998 
L 362.894412 102.872956 
L 362.596564 102.8048 
L 362.596564 102.736531 
L 362.298716 102.668146 
L 362.298716 102.599647 
L 361.851943 102.599647 
L 361.851943 102.393459 
L 361.554095 102.324498 
L 361.554095 102.25542 
L 361.256247 102.186227 
L 361.256247 102.116916 
L 360.809475 102.06797 
L 360.809475 101.998413 
L 360.511626 101.928739 
L 360.511626 101.858946 
L 360.213778 101.789035 
L 360.213778 101.719005 
L 359.91593 101.719005 
L 359.91593 101.578589 
L 359.618082 101.508201 
L 359.618082 101.437694 
L 359.320234 101.437694 
L 359.320234 101.296318 
L 359.022385 101.22545 
L 359.022385 101.15446 
L 358.575613 101.083348 
L 358.575613 100.940761 
L 358.277765 100.869283 
L 358.277765 100.797683 
L 357.979917 100.72596 
L 357.979917 100.654114 
L 357.682068 100.654114 
L 357.682068 100.51005 
L 357.38422 100.437832 
L 357.38422 100.36549 
L 357.086372 100.293022 
L 357.086372 100.22043 
L 356.788524 100.147711 
L 356.788524 100.074867 
L 356.490676 100.001897 
L 356.490676 99.9288 
L 356.043903 99.9288 
L 356.043903 99.708747 
L 355.746055 99.635141 
L 355.746055 99.561407 
L 355.299283 99.487544 
L 355.299283 99.339431 
L 355.001435 99.265181 
L 355.001435 99.190801 
L 354.703586 99.11629 
L 354.703586 99.041649 
L 354.405738 98.966877 
L 354.405738 98.891974 
L 354.10789 98.816939 
L 354.10789 98.741772 
L 353.810042 98.666473 
L 353.810042 98.591042 
L 353.512193 98.515477 
L 353.512193 98.439779 
L 353.214345 98.363948 
L 353.214345 98.287982 
L 352.916497 98.211882 
L 352.916497 98.135647 
L 352.618649 98.059277 
L 352.618649 97.982772 
L 352.320801 97.906131 
L 352.320801 97.829354 
L 352.022952 97.829354 
L 352.022952 97.675389 
L 351.725104 97.598201 
L 351.725104 97.520875 
L 351.129408 97.482603 
L 351.129408 97.404967 
L 350.83156 97.327191 
L 350.83156 97.249276 
L 350.533711 97.171222 
L 350.533711 97.093027 
L 350.235863 97.014692 
L 350.235863 96.936216 
L 349.938015 96.857599 
L 349.938015 96.778841 
L 349.342319 96.73885 
L 349.342319 96.659771 
L 349.04447 96.580549 
L 349.04447 96.501184 
L 348.746622 96.501184 
L 348.746622 96.342021 
L 348.448774 96.262223 
L 348.448774 96.182281 
L 348.002002 96.102193 
L 348.002002 95.941579 
L 347.704153 95.861053 
L 347.704153 95.78038 
L 347.406305 95.69956 
L 347.406305 95.618592 
L 346.959533 95.537476 
L 346.959533 95.374798 
L 346.661685 95.293235 
L 346.661685 95.211522 
L 346.363837 95.12966 
L 346.363837 95.047646 
L 346.065988 94.965482 
L 346.065988 94.883166 
L 345.76814 94.800699 
L 345.76814 94.718079 
L 345.470292 94.635307 
L 345.470292 94.552382 
L 345.172444 94.469303 
L 345.172444 94.38607 
L 344.874595 94.302683 
L 344.874595 94.219141 
L 344.576747 94.135444 
L 344.576747 94.051591 
L 344.278899 93.967583 
L 344.278899 93.883417 
L 343.981051 93.799095 
L 343.981051 93.714615 
L 343.683203 93.629978 
L 343.683203 93.545182 
L 343.385354 93.460228 
L 343.385354 93.375114 
L 342.938582 93.375114 
L 342.938582 93.118814 
L 342.640734 93.033059 
L 342.640734 92.947142 
L 342.342886 92.861064 
L 342.342886 92.774824 
L 342.045038 92.688421 
L 342.045038 92.601854 
L 341.747189 92.515124 
L 341.747189 92.42823 
L 341.449341 92.34117 
L 341.449341 92.253946 
L 341.151493 92.166557 
L 341.151493 92.079001 
L 340.853645 92.079001 
L 340.853645 91.903389 
L 340.555796 91.815332 
L 340.555796 91.727107 
L 340.257948 91.727107 
L 340.257948 91.550152 
L 339.9601 91.550152 
L 339.9601 91.372519 
L 339.662252 91.283447 
L 339.662252 91.194204 
L 339.364404 91.10479 
L 339.364404 91.015204 
L 338.619783 90.925445 
L 338.619783 90.564678 
L 338.321935 90.47405 
L 338.321935 90.383247 
L 338.024087 90.292268 
L 338.024087 90.201113 
L 337.726239 90.109781 
L 337.726239 90.018271 
L 337.42839 89.926583 
L 337.42839 89.834717 
L 336.832694 89.742672 
L 336.832694 89.465457 
L 336.534846 89.372691 
L 336.534846 89.279743 
L 335.641301 89.186613 
L 335.641301 88.718211 
L 335.343453 88.623976 
L 335.343453 88.529556 
L 334.896681 88.434949 
L 334.896681 88.245173 
L 334.449908 88.150004 
L 334.449908 87.959097 
L 334.15206 87.86336 
L 334.15206 87.767432 
L 333.854212 87.671313 
L 333.854212 87.575002 
L 333.556364 87.478499 
L 333.556364 87.381804 
L 333.258515 87.284915 
L 333.258515 87.187832 
L 332.960667 87.090555 
L 332.960667 86.993083 
L 332.513895 86.993083 
L 332.513895 86.69949 
L 332.067123 86.69949 
L 332.067123 86.404121 
L 331.471426 86.305267 
L 331.471426 86.007503 
L 331.173578 86.007503 
L 331.173578 85.807987 
L 330.280033 85.707925 
L 330.280033 85.20455 
L 329.386489 85.103258 
L 329.386489 84.593675 
L 329.088641 84.49113 
L 329.088641 84.388373 
L 328.790792 84.388373 
L 328.790792 84.182224 
L 328.046172 84.07883 
L 328.046172 83.663112 
L 327.599399 83.663112 
L 327.599399 83.349052 
L 327.301551 83.24393 
L 327.301551 83.138589 
L 326.556931 83.033027 
L 326.556931 82.60857 
L 326.259083 82.60857 
L 326.259083 82.395005 
L 325.81231 82.395005 
L 325.81231 82.07297 
L 325.216614 81.965173 
L 325.216614 81.640411 
L 324.918766 81.531699 
L 324.918766 81.422757 
L 324.620917 81.422757 
L 324.620917 81.204177 
L 324.323069 81.094539 
L 324.323069 80.984667 
L 324.025221 80.874561 
L 324.025221 80.76422 
L 323.727373 80.653644 
L 323.727373 80.542831 
L 323.429525 80.431781 
L 323.429525 80.320493 
L 323.280601 80.320493 
L 323.280601 80.208966 
L 322.833828 80.208966 
L 322.833828 79.872947 
L 322.684904 79.872947 
L 322.684904 79.760458 
L 322.53598 79.760458 
L 322.53598 79.647726 
L 322.387056 79.647726 
L 322.387056 79.534751 
L 322.238132 79.534751 
L 322.238132 79.421532 
L 321.940284 79.421532 
L 321.940284 79.194358 
L 321.791359 79.194358 
L 321.791359 79.080402 
L 321.642435 79.080402 
L 321.642435 78.966198 
L 321.493511 78.966198 
L 321.493511 78.851746 
L 321.046739 78.851746 
L 321.046739 78.506894 
L 319.706422 78.506894 
L 319.706422 77.458672 
L 318.961802 77.458672 
L 318.961802 76.867303 
L 318.515029 76.867303 
L 318.515029 76.50933 
L 318.217181 76.50933 
L 318.217181 76.269352 
L 317.323636 76.269352 
L 317.323636 75.542968 
L 317.174712 75.542968 
L 317.174712 75.420953 
L 317.025788 75.420953 
L 317.025788 75.298664 
L 316.876864 75.298664 
L 316.876864 75.176101 
L 315.983319 75.176101 
L 315.983319 74.434892 
L 315.834395 74.434892 
L 315.834395 74.310378 
L 315.685471 74.310378 
L 315.685471 74.18558 
L 315.387623 74.18558 
L 315.387623 73.935135 
L 315.238699 73.935135 
L 315.238699 73.809484 
L 315.089775 73.809484 
L 315.089775 73.683548 
L 314.940851 73.683548 
L 314.940851 73.557323 
L 313.004837 73.557323 
L 313.004837 71.889804 
L 312.409141 71.889804 
L 312.409141 71.366573 
L 312.111293 71.366573 
L 312.111293 71.103127 
L 310.026355 71.103127 
L 310.026355 69.224025 
L 309.877431 69.224025 
L 309.877431 69.087414 
L 309.728507 69.087414 
L 309.728507 68.950478 
L 309.579583 68.950478 
L 309.579583 68.813216 
L 308.239266 68.813216 
L 308.239266 67.563002 
L 304.218315 67.563002 
L 304.218315 63.644527 
L 304.069391 63.644527 
L 304.069391 63.494341 
L 303.920467 63.494341 
L 303.920467 63.34378 
L 303.473695 63.34378 
L 303.473695 62.889839 
L 303.324771 62.889839 
L 303.324771 62.737767 
L 303.175847 62.737767 
L 303.175847 62.585314 
L 303.026922 62.585314 
L 303.026922 62.432479 
L 302.877998 62.432479 
L 302.877998 62.279258 
L 302.431226 62.279258 
L 302.431226 61.817278 
L 302.133378 61.817278 
L 302.133378 61.507343 
L 301.984454 61.507343 
L 301.984454 61.351787 
L 301.83553 61.351787 
L 301.83553 61.195836 
L 301.388757 61.195836 
L 301.388757 60.725601 
L 301.090909 60.725601 
L 301.090909 60.41011 
L 300.644137 60.41011 
L 300.644137 59.933843 
L 300.04844 59.933843 
L 300.04844 59.293095 
L 299.750592 59.293095 
L 299.750592 58.970239 
L 295.878565 58.970239 
L 295.878565 54.616105 
L 295.729641 54.616105 
L 295.729641 54.442589 
L 295.580717 54.442589 
L 295.580717 54.268608 
L 295.282869 54.268608 
L 295.282869 53.919245 
L 295.133945 53.919245 
L 295.133945 53.743859 
L 294.985021 53.743859 
L 294.985021 53.568 
L 73.832727 53.568 
L 73.832727 53.568 
" clip-path="url(#p290000af2a)" style="fill: none; stroke: #4c72b0; stroke-width: 1.5; stroke-linecap: round"/>
   </g>
   <g id="patch_3">
    <path d="M 57.6 307.584 
L 57.6 41.472 
" style="fill: none; stroke: #ffffff; stroke-width: 1.25; stroke-linejoin: miter; stroke-linecap: square"/>
   </g>
   <g id="patch_4">
    <path d="M 414.72 307.584 
L 414.72 41.472 
" style="fill: none; stroke: #ffffff; stroke-width: 1.25; stroke-linejoin: miter; stroke-linecap: square"/>
   </g>
   <g id="patch_5">
    <path d="M 57.6 307.584 
L 414.72 307.584 
" style="fill: none; stroke: #ffffff; stroke-width: 1.25; stroke-linejoin: miter; stroke-linecap: square"/>
   </g>
   <g id="patch_6">
    <path d="M 57.6 41.472 
L 414.72 41.472 
" style="fill: none; stroke: #ffffff; stroke-width: 1.25; stroke-linejoin: miter; stroke-linecap: square"/>
   </g>
   <g id="text_8">
    <!-- Precision-recall curve -->
    <g style="fill: #262626" transform="translate(44.206875 35.472)scale(0.36 -0.36)">
     <defs>
      <path id="DejaVuSans-2d" d="M 313 2009 
L 1997 2009 
L 1997 1497 
L 313 1497 
L 313 2009 
z
" transform="scale(0.015625)"/>
      <path id="DejaVuSans-75" d="M 544 1381 
L 544 3500 
L 1119 3500 
L 1119 1403 
Q 1119 906 1312 657 
Q 1506 409 1894 409 
Q 2359 409 2629 706 
Q 2900 1003 2900 1516 
L 2900 3500 
L 3475 3500 
L 3475 0 
L 2900 0 
L 2900 538 
Q 2691 219 2414 64 
Q 2138 -91 1772 -91 
Q 1169 -91 856 284 
Q 544 659 544 1381 
z
M 1991 3584 
L 1991 3584 
z
" transform="scale(0.015625)"/>
     </defs>
     <use xlink:href="#DejaVuSans-50"/>
     <use xlink:href="#DejaVuSans-72" x="58.552734"/>
     <use xlink:href="#DejaVuSans-65" x="97.416016"/>
     <use xlink:href="#DejaVuSans-63" x="158.939453"/>
     <use xlink:href="#DejaVuSans-69" x="213.919922"/>
     <use xlink:href="#DejaVuSans-73" x="241.703125"/>
     <use xlink:href="#DejaVuSans-69" x="293.802734"/>
     <use xlink:href="#DejaVuSans-6f" x="321.585938"/>
     <use xlink:href="#DejaVuSans-6e" x="382.767578"/>
     <use xlink:href="#DejaVuSans-2d" x="446.146484"/>
     <use xlink:href="#DejaVuSans-72" x="482.230469"/>
     <use xlink:href="#DejaVuSans-65" x="521.09375"/>
     <use xlink:href="#DejaVuSans-63" x="582.617188"/>
     <use xlink:href="#DejaVuSans-61" x="637.597656"/>
     <use xlink:href="#DejaVuSans-6c" x="698.876953"/>
     <use xlink:href="#DejaVuSans-6c" x="726.660156"/>
     <use xlink:href="#DejaVuSans-20" x="754.443359"/>
     <use xlink:href="#DejaVuSans-63" x="786.230469"/>
     <use xlink:href="#DejaVuSans-75" x="841.210938"/>
     <use xlink:href="#DejaVuSans-72" x="904.589844"/>
     <use xlink:href="#DejaVuSans-76" x="945.703125"/>
     <use xlink:href="#DejaVuSans-65" x="1004.882812"/>
    </g>
   </g>
   <g id="legend_1">
    <g id="patch_7">
     <path d="M 80.7 291.084 
L 635.445469 291.084 
Q 642.045469 291.084 642.045469 284.484 
L 642.045469 239.346187 
Q 642.045469 232.746187 635.445469 232.746187 
L 80.7 232.746187 
Q 74.1 232.746187 74.1 239.346187 
L 74.1 284.484 
Q 74.1 291.084 80.7 291.084 
z
" style="fill: #eaeaf2; opacity: 0.8; stroke: #cccccc; stroke-linejoin: miter"/>
    </g>
    <g id="line2d_7">
     <path d="M 87.3 259.471031 
L 120.3 259.471031 
L 120.3 259.471031 
L 153.3 259.471031 
L 153.3 259.471031 
" style="fill: none; stroke: #4c72b0; stroke-width: 1.5; stroke-linecap: round"/>
    </g>
    <g id="text_9">
     <!-- Random Forest (AP = 0.95) -->
     <g style="fill: #262626" transform="translate(179.7 271.021031)scale(0.33 -0.33)">
      <defs>
       <path id="DejaVuSans-64" d="M 2906 2969 
L 2906 4863 
L 3481 4863 
L 3481 0 
L 2906 0 
L 2906 525 
Q 2725 213 2448 61 
Q 2172 -91 1784 -91 
Q 1150 -91 751 415 
Q 353 922 353 1747 
Q 353 2572 751 3078 
Q 1150 3584 1784 3584 
Q 2172 3584 2448 3432 
Q 2725 3281 2906 2969 
z
M 947 1747 
Q 947 1113 1208 752 
Q 1469 391 1925 391 
Q 2381 391 2643 752 
Q 2906 1113 2906 1747 
Q 2906 2381 2643 2742 
Q 2381 3103 1925 3103 
Q 1469 3103 1208 2742 
Q 947 2381 947 1747 
z
" transform="scale(0.015625)"/>
       <path id="DejaVuSans-6d" d="M 3328 2828 
Q 3544 3216 3844 3400 
Q 4144 3584 4550 3584 
Q 5097 3584 5394 3201 
Q 5691 2819 5691 2113 
L 5691 0 
L 5113 0 
L 5113 2094 
Q 5113 2597 4934 2840 
Q 4756 3084 4391 3084 
Q 3944 3084 3684 2787 
Q 3425 2491 3425 1978 
L 3425 0 
L 2847 0 
L 2847 2094 
Q 2847 2600 2669 2842 
Q 2491 3084 2119 3084 
Q 1678 3084 1418 2786 
Q 1159 2488 1159 1978 
L 1159 0 
L 581 0 
L 581 3500 
L 1159 3500 
L 1159 2956 
Q 1356 3278 1631 3431 
Q 1906 3584 2284 3584 
Q 2666 3584 2933 3390 
Q 3200 3197 3328 2828 
z
" transform="scale(0.015625)"/>
       <path id="DejaVuSans-46" d="M 628 4666 
L 3309 4666 
L 3309 4134 
L 1259 4134 
L 1259 2759 
L 3109 2759 
L 3109 2228 
L 1259 2228 
L 1259 0 
L 628 0 
L 628 4666 
z
" transform="scale(0.015625)"/>
       <path id="DejaVuSans-41" d="M 2188 4044 
L 1331 1722 
L 3047 1722 
L 2188 4044 
z
M 1831 4666 
L 2547 4666 
L 4325 0 
L 3669 0 
L 3244 1197 
L 1141 1197 
L 716 0 
L 50 0 
L 1831 4666 
z
" transform="scale(0.015625)"/>
       <path id="DejaVuSans-3d" d="M 678 2906 
L 4684 2906 
L 4684 2381 
L 678 2381 
L 678 2906 
z
M 678 1631 
L 4684 1631 
L 4684 1100 
L 678 1100 
L 678 1631 
z
" transform="scale(0.015625)"/>
       <path id="DejaVuSans-39" d="M 703 97 
L 703 672 
Q 941 559 1184 500 
Q 1428 441 1663 441 
Q 2288 441 2617 861 
Q 2947 1281 2994 2138 
Q 2813 1869 2534 1725 
Q 2256 1581 1919 1581 
Q 1219 1581 811 2004 
Q 403 2428 403 3163 
Q 403 3881 828 4315 
Q 1253 4750 1959 4750 
Q 2769 4750 3195 4129 
Q 3622 3509 3622 2328 
Q 3622 1225 3098 567 
Q 2575 -91 1691 -91 
Q 1453 -91 1209 -44 
Q 966 3 703 97 
z
M 1959 2075 
Q 2384 2075 2632 2365 
Q 2881 2656 2881 3163 
Q 2881 3666 2632 3958 
Q 2384 4250 1959 4250 
Q 1534 4250 1286 3958 
Q 1038 3666 1038 3163 
Q 1038 2656 1286 2365 
Q 1534 2075 1959 2075 
z
" transform="scale(0.015625)"/>
      </defs>
      <use xlink:href="#DejaVuSans-52"/>
      <use xlink:href="#DejaVuSans-61" x="67.232422"/>
      <use xlink:href="#DejaVuSans-6e" x="128.511719"/>
      <use xlink:href="#DejaVuSans-64" x="191.890625"/>
      <use xlink:href="#DejaVuSans-6f" x="255.367188"/>
      <use xlink:href="#DejaVuSans-6d" x="316.548828"/>
      <use xlink:href="#DejaVuSans-20" x="413.960938"/>
      <use xlink:href="#DejaVuSans-46" x="445.748047"/>
      <use xlink:href="#DejaVuSans-6f" x="499.642578"/>
      <use xlink:href="#DejaVuSans-72" x="560.824219"/>
      <use xlink:href="#DejaVuSans-65" x="599.6875"/>
      <use xlink:href="#DejaVuSans-73" x="661.210938"/>
      <use xlink:href="#DejaVuSans-74" x="713.310547"/>
      <use xlink:href="#DejaVuSans-20" x="752.519531"/>
      <use xlink:href="#DejaVuSans-28" x="784.306641"/>
      <use xlink:href="#DejaVuSans-41" x="823.320312"/>
      <use xlink:href="#DejaVuSans-50" x="891.728516"/>
      <use xlink:href="#DejaVuSans-20" x="952.03125"/>
      <use xlink:href="#DejaVuSans-3d" x="983.818359"/>
      <use xlink:href="#DejaVuSans-20" x="1067.607422"/>
      <use xlink:href="#DejaVuSans-30" x="1099.394531"/>
      <use xlink:href="#DejaVuSans-2e" x="1163.017578"/>
      <use xlink:href="#DejaVuSans-39" x="1194.804688"/>
      <use xlink:href="#DejaVuSans-35" x="1258.427734"/>
      <use xlink:href="#DejaVuSans-29" x="1322.050781"/>
     </g>
    </g>
   </g>
  </g>
 </g>
 <defs>
  <clipPath id="p290000af2a">
   <rect x="57.6" y="41.472" width="357.12" height="266.112"/>
  </clipPath>
 </defs>
</svg>
