<?xml version="1.0" encoding="utf-8" standalone="no"?>
<!DOCTYPE svg PUBLIC "-//W3C//DTD SVG 1.1//EN"
  "http://www.w3.org/Graphics/SVG/1.1/DTD/svg11.dtd">
<svg xmlns:xlink="http://www.w3.org/1999/xlink" width="460.8pt" height="345.6pt" viewBox="0 0 460.8 345.6" xmlns="http://www.w3.org/2000/svg" version="1.1">
 <metadata>
  <rdf:RDF xmlns:dc="http://purl.org/dc/elements/1.1/" xmlns:cc="http://creativecommons.org/ns#" xmlns:rdf="http://www.w3.org/1999/02/22-rdf-syntax-ns#">
   <cc:Work>
    <dc:type rdf:resource="http://purl.org/dc/dcmitype/StillImage"/>
    <dc:date>2022-11-22T04:11:53.310288</dc:date>
    <dc:format>image/svg+xml</dc:format>
    <dc:creator>
     <cc:Agent>
      <dc:title>Matplotlib v3.5.2, https://matplotlib.org/</dc:title>
     </cc:Agent>
    </dc:creator>
   </cc:Work>
  </rdf:RDF>
 </metadata>
 <defs>
  <style type="text/css">*{stroke-linejoin: round; stroke-linecap: butt}</style>
 </defs>
 <g id="figure_1">
  <g id="patch_1">
   <path d="M 0 345.6 
L 460.8 345.6 
L 460.8 0 
L 0 0 
z
" style="fill: #ffffff"/>
  </g>
  <g id="axes_1">
   <g id="patch_2">
    <path d="M 57.6 307.584 
L 414.72 307.584 
L 414.72 41.472 
L 57.6 41.472 
z
" style="fill: #eaeaf2"/>
   </g>
   <g id="matplotlib.axis_1">
    <g id="xtick_1">
     <g id="line2d_1">
      <path d="M 73.832727 307.584 
L 73.832727 41.472 
" clip-path="url(#p7f8c2b298c)" style="fill: none; stroke: #ffffff; stroke-linecap: round"/>
     </g>
     <g id="text_1">
      <!-- 0.0 -->
      <g style="fill: #262626" transform="translate(47.592571 342.158844)scale(0.33 -0.33)">
       <defs>
        <path id="DejaVuSans-30" d="M 2034 4250 
Q 1547 4250 1301 3770 
Q 1056 3291 1056 2328 
Q 1056 1369 1301 889 
Q 1547 409 2034 409 
Q 2525 409 2770 889 
Q 3016 1369 3016 2328 
Q 3016 3291 2770 3770 
Q 2525 4250 2034 4250 
z
M 2034 4750 
Q 2819 4750 3233 4129 
Q 3647 3509 3647 2328 
Q 3647 1150 3233 529 
Q 2819 -91 2034 -91 
Q 1250 -91 836 529 
Q 422 1150 422 2328 
Q 422 3509 836 4129 
Q 1250 4750 2034 4750 
z
" transform="scale(0.015625)"/>
        <path id="DejaVuSans-2e" d="M 684 794 
L 1344 794 
L 1344 0 
L 684 0 
L 684 794 
z
" transform="scale(0.015625)"/>
       </defs>
       <use xlink:href="#DejaVuSans-30"/>
       <use xlink:href="#DejaVuSans-2e" x="63.623047"/>
       <use xlink:href="#DejaVuSans-30" x="95.410156"/>
      </g>
     </g>
    </g>
    <g id="xtick_2">
     <g id="line2d_2">
      <path d="M 236.16 307.584 
L 236.16 41.472 
" clip-path="url(#p7f8c2b298c)" style="fill: none; stroke: #ffffff; stroke-linecap: round"/>
     </g>
     <g id="text_2">
      <!-- 0.5 -->
      <g style="fill: #262626" transform="translate(209.919844 342.158844)scale(0.33 -0.33)">
       <defs>
        <path id="DejaVuSans-35" d="M 691 4666 
L 3169 4666 
L 3169 4134 
L 1269 4134 
L 1269 2991 
Q 1406 3038 1543 3061 
Q 1681 3084 1819 3084 
Q 2600 3084 3056 2656 
Q 3513 2228 3513 1497 
Q 3513 744 3044 326 
Q 2575 -91 1722 -91 
Q 1428 -91 1123 -41 
Q 819 9 494 109 
L 494 744 
Q 775 591 1075 516 
Q 1375 441 1709 441 
Q 2250 441 2565 725 
Q 2881 1009 2881 1497 
Q 2881 1984 2565 2268 
Q 2250 2553 1709 2553 
Q 1456 2553 1204 2497 
Q 953 2441 691 2322 
L 691 4666 
z
" transform="scale(0.015625)"/>
       </defs>
       <use xlink:href="#DejaVuSans-30"/>
       <use xlink:href="#DejaVuSans-2e" x="63.623047"/>
       <use xlink:href="#DejaVuSans-35" x="95.410156"/>
      </g>
     </g>
    </g>
    <g id="xtick_3">
     <g id="line2d_3">
      <path d="M 398.487273 307.584 
L 398.487273 41.472 
" clip-path="url(#p7f8c2b298c)" style="fill: none; stroke: #ffffff; stroke-linecap: round"/>
     </g>
     <g id="text_3">
      <!-- 1.0 -->
      <g style="fill: #262626" transform="translate(372.247116 342.158844)scale(0.33 -0.33)">
       <defs>
        <path id="DejaVuSans-31" d="M 794 531 
L 1825 531 
L 1825 4091 
L 703 3866 
L 703 4441 
L 1819 4666 
L 2450 4666 
L 2450 531 
L 3481 531 
L 3481 0 
L 794 0 
L 794 531 
z
" transform="scale(0.015625)"/>
       </defs>
       <use xlink:href="#DejaVuSans-31"/>
       <use xlink:href="#DejaVuSans-2e" x="63.623047"/>
       <use xlink:href="#DejaVuSans-30" x="95.410156"/>
      </g>
     </g>
    </g>
    <g id="text_4">
     <!-- Recall (Positive label: 1.0) -->
     <g style="fill: #262626" transform="translate(3.647813 380.376187)scale(0.36 -0.36)">
      <defs>
       <path id="DejaVuSans-52" d="M 2841 2188 
Q 3044 2119 3236 1894 
Q 3428 1669 3622 1275 
L 4263 0 
L 3584 0 
L 2988 1197 
Q 2756 1666 2539 1819 
Q 2322 1972 1947 1972 
L 1259 1972 
L 1259 0 
L 628 0 
L 628 4666 
L 2053 4666 
Q 2853 4666 3247 4331 
Q 3641 3997 3641 3322 
Q 3641 2881 3436 2590 
Q 3231 2300 2841 2188 
z
M 1259 4147 
L 1259 2491 
L 2053 2491 
Q 2509 2491 2742 2702 
Q 2975 2913 2975 3322 
Q 2975 3731 2742 3939 
Q 2509 4147 2053 4147 
L 1259 4147 
z
" transform="scale(0.015625)"/>
       <path id="DejaVuSans-65" d="M 3597 1894 
L 3597 1613 
L 953 1613 
Q 991 1019 1311 708 
Q 1631 397 2203 397 
Q 2534 397 2845 478 
Q 3156 559 3463 722 
L 3463 178 
Q 3153 47 2828 -22 
Q 2503 -91 2169 -91 
Q 1331 -91 842 396 
Q 353 884 353 1716 
Q 353 2575 817 3079 
Q 1281 3584 2069 3584 
Q 2775 3584 3186 3129 
Q 3597 2675 3597 1894 
z
M 3022 2063 
Q 3016 2534 2758 2815 
Q 2500 3097 2075 3097 
Q 1594 3097 1305 2825 
Q 1016 2553 972 2059 
L 3022 2063 
z
" transform="scale(0.015625)"/>
       <path id="DejaVuSans-63" d="M 3122 3366 
L 3122 2828 
Q 2878 2963 2633 3030 
Q 2388 3097 2138 3097 
Q 1578 3097 1268 2742 
Q 959 2388 959 1747 
Q 959 1106 1268 751 
Q 1578 397 2138 397 
Q 2388 397 2633 464 
Q 2878 531 3122 666 
L 3122 134 
Q 2881 22 2623 -34 
Q 2366 -91 2075 -91 
Q 1284 -91 818 406 
Q 353 903 353 1747 
Q 353 2603 823 3093 
Q 1294 3584 2113 3584 
Q 2378 3584 2631 3529 
Q 2884 3475 3122 3366 
z
" transform="scale(0.015625)"/>
       <path id="DejaVuSans-61" d="M 2194 1759 
Q 1497 1759 1228 1600 
Q 959 1441 959 1056 
Q 959 750 1161 570 
Q 1363 391 1709 391 
Q 2188 391 2477 730 
Q 2766 1069 2766 1631 
L 2766 1759 
L 2194 1759 
z
M 3341 1997 
L 3341 0 
L 2766 0 
L 2766 531 
Q 2569 213 2275 61 
Q 1981 -91 1556 -91 
Q 1019 -91 701 211 
Q 384 513 384 1019 
Q 384 1609 779 1909 
Q 1175 2209 1959 2209 
L 2766 2209 
L 2766 2266 
Q 2766 2663 2505 2880 
Q 2244 3097 1772 3097 
Q 1472 3097 1187 3025 
Q 903 2953 641 2809 
L 641 3341 
Q 956 3463 1253 3523 
Q 1550 3584 1831 3584 
Q 2591 3584 2966 3190 
Q 3341 2797 3341 1997 
z
" transform="scale(0.015625)"/>
       <path id="DejaVuSans-6c" d="M 603 4863 
L 1178 4863 
L 1178 0 
L 603 0 
L 603 4863 
z
" transform="scale(0.015625)"/>
       <path id="DejaVuSans-20" transform="scale(0.015625)"/>
       <path id="DejaVuSans-28" d="M 1984 4856 
Q 1566 4138 1362 3434 
Q 1159 2731 1159 2009 
Q 1159 1288 1364 580 
Q 1569 -128 1984 -844 
L 1484 -844 
Q 1016 -109 783 600 
Q 550 1309 550 2009 
Q 550 2706 781 3412 
Q 1013 4119 1484 4856 
L 1984 4856 
z
" transform="scale(0.015625)"/>
       <path id="DejaVuSans-50" d="M 1259 4147 
L 1259 2394 
L 2053 2394 
Q 2494 2394 2734 2622 
Q 2975 2850 2975 3272 
Q 2975 3691 2734 3919 
Q 2494 4147 2053 4147 
L 1259 4147 
z
M 628 4666 
L 2053 4666 
Q 2838 4666 3239 4311 
Q 3641 3956 3641 3272 
Q 3641 2581 3239 2228 
Q 2838 1875 2053 1875 
L 1259 1875 
L 1259 0 
L 628 0 
L 628 4666 
z
" transform="scale(0.015625)"/>
       <path id="DejaVuSans-6f" d="M 1959 3097 
Q 1497 3097 1228 2736 
Q 959 2375 959 1747 
Q 959 1119 1226 758 
Q 1494 397 1959 397 
Q 2419 397 2687 759 
Q 2956 1122 2956 1747 
Q 2956 2369 2687 2733 
Q 2419 3097 1959 3097 
z
M 1959 3584 
Q 2709 3584 3137 3096 
Q 3566 2609 3566 1747 
Q 3566 888 3137 398 
Q 2709 -91 1959 -91 
Q 1206 -91 779 398 
Q 353 888 353 1747 
Q 353 2609 779 3096 
Q 1206 3584 1959 3584 
z
" transform="scale(0.015625)"/>
       <path id="DejaVuSans-73" d="M 2834 3397 
L 2834 2853 
Q 2591 2978 2328 3040 
Q 2066 3103 1784 3103 
Q 1356 3103 1142 2972 
Q 928 2841 928 2578 
Q 928 2378 1081 2264 
Q 1234 2150 1697 2047 
L 1894 2003 
Q 2506 1872 2764 1633 
Q 3022 1394 3022 966 
Q 3022 478 2636 193 
Q 2250 -91 1575 -91 
Q 1294 -91 989 -36 
Q 684 19 347 128 
L 347 722 
Q 666 556 975 473 
Q 1284 391 1588 391 
Q 1994 391 2212 530 
Q 2431 669 2431 922 
Q 2431 1156 2273 1281 
Q 2116 1406 1581 1522 
L 1381 1569 
Q 847 1681 609 1914 
Q 372 2147 372 2553 
Q 372 3047 722 3315 
Q 1072 3584 1716 3584 
Q 2034 3584 2315 3537 
Q 2597 3491 2834 3397 
z
" transform="scale(0.015625)"/>
       <path id="DejaVuSans-69" d="M 603 3500 
L 1178 3500 
L 1178 0 
L 603 0 
L 603 3500 
z
M 603 4863 
L 1178 4863 
L 1178 4134 
L 603 4134 
L 603 4863 
z
" transform="scale(0.015625)"/>
       <path id="DejaVuSans-74" d="M 1172 4494 
L 1172 3500 
L 2356 3500 
L 2356 3053 
L 1172 3053 
L 1172 1153 
Q 1172 725 1289 603 
Q 1406 481 1766 481 
L 2356 481 
L 2356 0 
L 1766 0 
Q 1100 0 847 248 
Q 594 497 594 1153 
L 594 3053 
L 172 3053 
L 172 3500 
L 594 3500 
L 594 4494 
L 1172 4494 
z
" transform="scale(0.015625)"/>
       <path id="DejaVuSans-76" d="M 191 3500 
L 800 3500 
L 1894 563 
L 2988 3500 
L 3597 3500 
L 2284 0 
L 1503 0 
L 191 3500 
z
" transform="scale(0.015625)"/>
       <path id="DejaVuSans-62" d="M 3116 1747 
Q 3116 2381 2855 2742 
Q 2594 3103 2138 3103 
Q 1681 3103 1420 2742 
Q 1159 2381 1159 1747 
Q 1159 1113 1420 752 
Q 1681 391 2138 391 
Q 2594 391 2855 752 
Q 3116 1113 3116 1747 
z
M 1159 2969 
Q 1341 3281 1617 3432 
Q 1894 3584 2278 3584 
Q 2916 3584 3314 3078 
Q 3713 2572 3713 1747 
Q 3713 922 3314 415 
Q 2916 -91 2278 -91 
Q 1894 -91 1617 61 
Q 1341 213 1159 525 
L 1159 0 
L 581 0 
L 581 4863 
L 1159 4863 
L 1159 2969 
z
" transform="scale(0.015625)"/>
       <path id="DejaVuSans-3a" d="M 750 794 
L 1409 794 
L 1409 0 
L 750 0 
L 750 794 
z
M 750 3309 
L 1409 3309 
L 1409 2516 
L 750 2516 
L 750 3309 
z
" transform="scale(0.015625)"/>
       <path id="DejaVuSans-29" d="M 513 4856 
L 1013 4856 
Q 1481 4119 1714 3412 
Q 1947 2706 1947 2009 
Q 1947 1309 1714 600 
Q 1481 -109 1013 -844 
L 513 -844 
Q 928 -128 1133 580 
Q 1338 1288 1338 2009 
Q 1338 2731 1133 3434 
Q 928 4138 513 4856 
z
" transform="scale(0.015625)"/>
      </defs>
      <use xlink:href="#DejaVuSans-52"/>
      <use xlink:href="#DejaVuSans-65" x="64.982422"/>
      <use xlink:href="#DejaVuSans-63" x="126.505859"/>
      <use xlink:href="#DejaVuSans-61" x="181.486328"/>
      <use xlink:href="#DejaVuSans-6c" x="242.765625"/>
      <use xlink:href="#DejaVuSans-6c" x="270.548828"/>
      <use xlink:href="#DejaVuSans-20" x="298.332031"/>
      <use xlink:href="#DejaVuSans-28" x="330.119141"/>
      <use xlink:href="#DejaVuSans-50" x="369.132812"/>
      <use xlink:href="#DejaVuSans-6f" x="425.810547"/>
      <use xlink:href="#DejaVuSans-73" x="486.992188"/>
      <use xlink:href="#DejaVuSans-69" x="539.091797"/>
      <use xlink:href="#DejaVuSans-74" x="566.875"/>
      <use xlink:href="#DejaVuSans-69" x="606.083984"/>
      <use xlink:href="#DejaVuSans-76" x="633.867188"/>
      <use xlink:href="#DejaVuSans-65" x="693.046875"/>
      <use xlink:href="#DejaVuSans-20" x="754.570312"/>
      <use xlink:href="#DejaVuSans-6c" x="786.357422"/>
      <use xlink:href="#DejaVuSans-61" x="814.140625"/>
      <use xlink:href="#DejaVuSans-62" x="875.419922"/>
      <use xlink:href="#DejaVuSans-65" x="938.896484"/>
      <use xlink:href="#DejaVuSans-6c" x="1000.419922"/>
      <use xlink:href="#DejaVuSans-3a" x="1028.203125"/>
      <use xlink:href="#DejaVuSans-20" x="1061.894531"/>
      <use xlink:href="#DejaVuSans-31" x="1093.681641"/>
      <use xlink:href="#DejaVuSans-2e" x="1157.304688"/>
      <use xlink:href="#DejaVuSans-30" x="1189.091797"/>
      <use xlink:href="#DejaVuSans-29" x="1252.714844"/>
     </g>
    </g>
   </g>
   <g id="matplotlib.axis_2">
    <g id="ytick_1">
     <g id="line2d_4">
      <path d="M 57.6 184.109804 
L 414.72 184.109804 
" clip-path="url(#p7f8c2b298c)" style="fill: none; stroke: #ffffff; stroke-linecap: round"/>
     </g>
     <g id="text_5">
      <!-- 0.5 -->
      <g style="fill: #262626" transform="translate(-4.380313 196.647226)scale(0.33 -0.33)">
       <use xlink:href="#DejaVuSans-30"/>
       <use xlink:href="#DejaVuSans-2e" x="63.623047"/>
       <use xlink:href="#DejaVuSans-35" x="95.410156"/>
      </g>
     </g>
    </g>
    <g id="ytick_2">
     <g id="line2d_5">
      <path d="M 57.6 53.568 
L 414.72 53.568 
" clip-path="url(#p7f8c2b298c)" style="fill: none; stroke: #ffffff; stroke-linecap: round"/>
     </g>
     <g id="text_6">
      <!-- 1.0 -->
      <g style="fill: #262626" transform="translate(-4.380313 66.105422)scale(0.33 -0.33)">
       <use xlink:href="#DejaVuSans-31"/>
       <use xlink:href="#DejaVuSans-2e" x="63.623047"/>
       <use xlink:href="#DejaVuSans-30" x="95.410156"/>
      </g>
     </g>
    </g>
    <g id="text_7">
     <!-- Precision (Positive label: 1.0) -->
     <g style="fill: #262626" transform="translate(-15.867188 433.643625)rotate(-90)scale(0.36 -0.36)">
      <defs>
       <path id="DejaVuSans-72" d="M 2631 2963 
Q 2534 3019 2420 3045 
Q 2306 3072 2169 3072 
Q 1681 3072 1420 2755 
Q 1159 2438 1159 1844 
L 1159 0 
L 581 0 
L 581 3500 
L 1159 3500 
L 1159 2956 
Q 1341 3275 1631 3429 
Q 1922 3584 2338 3584 
Q 2397 3584 2469 3576 
Q 2541 3569 2628 3553 
L 2631 2963 
z
" transform="scale(0.015625)"/>
       <path id="DejaVuSans-6e" d="M 3513 2113 
L 3513 0 
L 2938 0 
L 2938 2094 
Q 2938 2591 2744 2837 
Q 2550 3084 2163 3084 
Q 1697 3084 1428 2787 
Q 1159 2491 1159 1978 
L 1159 0 
L 581 0 
L 581 3500 
L 1159 3500 
L 1159 2956 
Q 1366 3272 1645 3428 
Q 1925 3584 2291 3584 
Q 2894 3584 3203 3211 
Q 3513 2838 3513 2113 
z
" transform="scale(0.015625)"/>
      </defs>
      <use xlink:href="#DejaVuSans-50"/>
      <use xlink:href="#DejaVuSans-72" x="58.552734"/>
      <use xlink:href="#DejaVuSans-65" x="97.416016"/>
      <use xlink:href="#DejaVuSans-63" x="158.939453"/>
      <use xlink:href="#DejaVuSans-69" x="213.919922"/>
      <use xlink:href="#DejaVuSans-73" x="241.703125"/>
      <use xlink:href="#DejaVuSans-69" x="293.802734"/>
      <use xlink:href="#DejaVuSans-6f" x="321.585938"/>
      <use xlink:href="#DejaVuSans-6e" x="382.767578"/>
      <use xlink:href="#DejaVuSans-20" x="446.146484"/>
      <use xlink:href="#DejaVuSans-28" x="477.933594"/>
      <use xlink:href="#DejaVuSans-50" x="516.947266"/>
      <use xlink:href="#DejaVuSans-6f" x="573.625"/>
      <use xlink:href="#DejaVuSans-73" x="634.806641"/>
      <use xlink:href="#DejaVuSans-69" x="686.90625"/>
      <use xlink:href="#DejaVuSans-74" x="714.689453"/>
      <use xlink:href="#DejaVuSans-69" x="753.898438"/>
      <use xlink:href="#DejaVuSans-76" x="781.681641"/>
      <use xlink:href="#DejaVuSans-65" x="840.861328"/>
      <use xlink:href="#DejaVuSans-20" x="902.384766"/>
      <use xlink:href="#DejaVuSans-6c" x="934.171875"/>
      <use xlink:href="#DejaVuSans-61" x="961.955078"/>
      <use xlink:href="#DejaVuSans-62" x="1023.234375"/>
      <use xlink:href="#DejaVuSans-65" x="1086.710938"/>
      <use xlink:href="#DejaVuSans-6c" x="1148.234375"/>
      <use xlink:href="#DejaVuSans-3a" x="1176.017578"/>
      <use xlink:href="#DejaVuSans-20" x="1209.708984"/>
      <use xlink:href="#DejaVuSans-31" x="1241.496094"/>
      <use xlink:href="#DejaVuSans-2e" x="1305.119141"/>
      <use xlink:href="#DejaVuSans-30" x="1336.90625"/>
      <use xlink:href="#DejaVuSans-29" x="1400.529297"/>
     </g>
    </g>
   </g>
   <g id="line2d_6">
    <path d="M 398.487273 295.488 
L 398.487273 148.966971 
L 398.332528 148.966971 
L 398.332528 148.89553 
L 398.332528 148.593881 
L 398.177783 148.593881 
L 398.177783 148.521905 
L 398.177783 138.125401 
L 398.023038 138.125401 
L 398.023038 138.038706 
L 398.023038 136.948503 
L 397.868294 136.948503 
L 397.868294 136.860039 
L 397.868294 134.813096 
L 397.558804 134.721417 
L 397.558804 134.748147 
L 397.558804 130.874048 
L 397.249314 130.776288 
L 397.249314 130.802302 
L 397.249314 130.554192 
L 397.09457 130.554192 
L 397.09457 130.51803 
L 397.09457 128.443463 
L 396.78508 128.341774 
L 396.78508 128.367338 
L 396.78508 128.239877 
L 396.630335 128.239877 
L 396.630335 128.13777 
L 396.630335 127.817849 
L 396.166101 127.804685 
L 396.166101 127.765988 
L 396.166101 127.701744 
L 395.237632 127.636187 
L 395.237632 127.661727 
L 395.237632 127.20928 
L 394.928143 127.105044 
L 394.928143 127.130498 
L 394.928143 126.740236 
L 394.309164 126.685925 
L 394.309164 126.580599 
L 394.154419 126.580599 
L 394.154419 126.475052 
L 394.154419 126.409508 
L 393.844929 126.303636 
L 393.844929 126.197541 
L 393.380695 126.116573 
L 393.380695 126.076004 
L 393.22595 126.076004 
L 393.22595 125.969337 
L 393.22595 125.837114 
L 392.606971 125.780665 
L 392.606971 125.606887 
L 391.987992 125.549854 
L 391.987992 125.508585 
L 391.987992 125.174764 
L 391.678502 125.200049 
L 391.678502 125.091435 
L 391.678502 125.024405 
L 391.369013 124.91545 
L 391.369013 123.995536 
L 390.440544 123.960014 
L 390.440544 123.874086 
L 389.821565 123.881289 
L 389.821565 123.769858 
L 389.821565 123.496094 
L 389.512076 123.521176 
L 389.512076 123.477681 
L 389.512076 123.340344 
L 388.119373 123.265644 
L 388.119373 123.290797 
L 388.119373 123.15258 
L 387.964628 123.15258 
L 387.964628 123.039271 
L 387.036159 122.931641 
L 387.036159 122.912413 
L 386.262435 122.804068 
L 386.262435 122.759433 
L 385.952946 122.714733 
L 385.952946 122.599953 
L 385.798201 122.599953 
L 385.798201 122.555056 
L 385.798201 122.414737 
L 385.333967 122.324473 
L 385.333967 122.208802 
L 384.869732 122.118005 
L 384.869732 122.072506 
L 384.405498 122.052091 
L 384.405498 121.935609 
L 382.393816 122.025203 
L 382.393816 122.05053 
L 381.620092 122.126622 
L 381.620092 122.177443 
L 380.846368 122.279313 
L 380.846368 122.304828 
L 380.382134 122.258894 
L 380.382134 122.166819 
L 379.917899 122.07447 
L 379.917899 122.028193 
L 379.144175 121.960978 
L 379.144175 121.867941 
L 377.906217 121.975041 
L 377.906217 122.000729 
L 377.132493 122.103674 
L 377.132493 122.129459 
L 376.204025 122.08768 
L 376.204025 121.993991 
L 375.275556 122.09751 
L 375.275556 122.149387 
L 373.728108 122.237653 
L 373.728108 122.263763 
L 371.871171 122.184847 
L 371.871171 122.137432 
L 371.561681 122.089943 
L 371.561681 122.042382 
L 371.561681 121.894562 
L 371.252192 121.846778 
L 371.252192 121.79892 
L 371.252192 120.680717 
L 371.097447 120.680717 
L 371.097447 120.70667 
L 371.097447 120.556557 
L 370.168978 120.509918 
L 370.168978 120.411084 
L 369.704744 120.311942 
L 369.704744 120.262255 
L 368.93102 120.188632 
L 368.93102 120.088716 
L 367.693062 120.016338 
L 367.693062 119.915641 
L 366.609848 119.842278 
L 366.609848 119.791574 
L 365.990869 119.71606 
L 365.990869 119.665116 
L 364.443421 119.591529 
L 364.443421 119.540181 
L 362.895974 119.465503 
L 362.895974 119.413746 
L 362.276995 119.336354 
L 362.276995 119.284348 
L 361.81276 119.180085 
L 361.81276 119.127828 
L 360.884292 119.023358 
L 360.884292 118.970762 
L 359.491589 118.865403 
L 359.491589 118.81238 
L 359.027354 118.706076 
L 359.027354 118.652794 
L 358.408375 118.57249 
L 358.408375 118.518947 
L 357.944141 118.465315 
L 357.944141 118.35779 
L 357.479906 118.249911 
L 357.479906 118.195839 
L 356.860927 118.113968 
L 356.860927 118.059628 
L 356.241948 117.97724 
L 356.241948 117.92263 
L 355.468224 117.866322 
L 355.468224 117.81144 
L 354.6945 117.754668 
L 354.6945 117.69951 
L 354.075521 117.615582 
L 354.075521 117.560147 
L 353.456542 117.475684 
L 353.456542 117.419969 
L 353.147053 117.364162 
L 353.147053 117.308261 
L 352.528073 117.222879 
L 352.528073 117.166695 
L 352.218584 117.110417 
L 352.218584 117.054044 
L 351.44486 117.024294 
L 351.44486 116.854314 
L 350.361647 116.797462 
L 350.361647 116.454324 
L 349.587923 116.392633 
L 349.587923 116.334903 
L 348.659454 116.277075 
L 348.659454 115.986446 
L 348.349964 115.928021 
L 348.349964 115.869496 
L 348.040475 115.81087 
L 348.040475 115.752144 
L 346.647772 115.752144 
L 346.647772 115.219025 
L 343.243387 115.219025 
L 343.243387 113.880159 
L 342.933897 113.818063 
L 342.933897 113.755858 
L 342.624408 113.755858 
L 342.624408 113.631117 
L 342.160173 113.568581 
L 342.160173 113.443174 
L 341.541194 113.343935 
L 341.541194 113.280836 
L 341.231705 113.217624 
L 341.231705 113.154299 
L 340.612726 113.053925 
L 340.612726 112.990255 
L 340.303236 112.926471 
L 340.303236 112.862572 
L 339.065278 112.878491 
L 339.065278 112.985405 
L 338.755788 112.921242 
L 338.755788 112.856964 
L 337.82732 112.856964 
L 337.82732 112.468841 
L 337.51783 112.403743 
L 337.51783 112.338526 
L 337.20834 112.27319 
L 337.20834 112.207735 
L 336.898851 112.142161 
L 336.898851 112.076467 
L 336.589361 112.010653 
L 336.589361 111.944719 
L 336.279872 111.944719 
L 336.279872 111.812488 
L 335.970382 111.746191 
L 335.970382 111.679771 
L 335.660893 111.61323 
L 335.660893 111.546567 
L 334.422934 111.452587 
L 334.422934 111.385406 
L 334.113445 111.385406 
L 334.113445 111.250668 
L 333.803955 111.250668 
L 333.803955 111.115431 
L 333.494466 111.047624 
L 333.494466 110.979691 
L 331.947018 110.9356 
L 331.947018 110.867117 
L 331.637528 110.867117 
L 331.637528 110.729765 
L 331.328039 110.660896 
L 331.328039 110.591897 
L 331.018549 110.522769 
L 331.018549 110.453511 
L 330.090081 110.39498 
L 330.090081 110.325306 
L 329.471101 110.255501 
L 329.471101 110.045289 
L 329.161612 109.974952 
L 329.161612 109.904482 
L 328.852122 109.833877 
L 328.852122 109.763139 
L 328.542633 109.692265 
L 328.542633 109.621256 
L 326.066716 109.559123 
L 326.066716 108.765647 
L 325.757227 108.765647 
L 325.757227 108.619561 
L 325.138248 108.619561 
L 325.138248 108.325681 
L 324.674013 108.325681 
L 324.674013 108.103766 
L 323.28131 108.103766 
L 323.28131 107.430153 
L 322.352842 107.430153 
L 322.352842 106.974404 
L 322.043352 106.974404 
L 322.043352 106.821282 
L 321.579118 106.821282 
L 321.579118 106.590455 
L 318.174733 106.590455 
L 318.174733 104.854653 
L 317.555754 104.854653 
L 317.555754 104.530666 
L 317.091519 104.449256 
L 317.091519 104.285933 
L 316.627285 104.285933 
L 316.627285 104.03969 
L 316.317795 104.03969 
L 316.317795 103.874682 
L 313.068155 103.874682 
L 313.068155 102.100129 
L 302.23602 102.100129 
L 302.23602 95.572924 
L 301.926531 95.472142 
L 301.926531 95.37113 
L 301.462297 95.269888 
L 301.462297 95.06671 
L 301.152807 94.964771 
L 301.152807 94.862599 
L 298.522146 94.854942 
L 298.522146 95.141823 
L 297.438932 95.03154 
L 297.438932 94.927779 
L 296.510464 94.823777 
L 296.510464 94.300105 
L 296.200974 94.194633 
L 296.200974 94.088913 
L 295.891485 93.982943 
L 295.891485 93.876724 
L 295.581995 93.770255 
L 295.581995 93.663533 
L 295.117761 93.580222 
L 295.117761 93.472959 
L 294.808271 93.365442 
L 294.808271 93.25767 
L 294.189292 93.304863 
L 294.189292 93.088403 
L 293.570313 93.111969 
L 293.570313 92.785227 
L 293.260823 92.67579 
L 293.260823 92.566091 
L 291.249141 92.566091 
L 291.249141 92.872606 
L 290.630162 92.872606 
L 290.630162 92.429169 
L 290.475417 92.429169 
L 290.475417 92.317635 
L 290.165928 92.317635 
L 290.165928 92.093752 
L 289.237459 92.093752 
L 289.237459 91.415501 
L 288.463735 91.415501 
L 288.463735 90.842607 
L 288.30899 90.842607 
L 288.30899 90.727177 
L 288.154246 90.727177 
L 288.154246 90.611461 
L 287.380522 90.634427 
L 287.380522 90.726574 
L 286.916287 90.726574 
L 286.916287 90.377043 
L 286.761543 90.377043 
L 286.761543 90.25995 
L 286.606798 90.25995 
L 286.606798 90.142564 
L 286.452053 90.142564 
L 286.452053 90.024885 
L 285.678329 90.024885 
L 285.678329 89.432037 
L 285.36884 89.432037 
L 285.36884 89.192801 
L 284.74986 89.192801 
L 284.74986 88.710682 
L 284.595116 88.710682 
L 284.595116 88.589387 
L 284.440371 88.589387 
L 284.440371 88.467782 
L 283.976137 88.467782 
L 283.976137 88.101103 
L 282.583434 88.101103 
L 282.583434 86.984002 
L 282.428689 86.984002 
L 282.428689 86.858272 
L 281.80971 86.858272 
L 281.80971 86.352084 
L 281.50022 86.352084 
L 281.50022 86.097008 
L 281.345475 86.097008 
L 281.345475 85.96897 
L 275.155684 85.96897 
L 275.155684 80.558035 
L 275.000939 80.558035 
L 275.000939 80.415107 
L 274.69145 80.415107 
L 274.69145 80.128063 
L 273.453492 80.128063 
L 273.453492 78.963816 
L 273.298747 78.963816 
L 273.298747 78.81645 
L 272.834513 78.81645 
L 272.834513 78.371861 
L 272.525023 78.371861 
L 272.525023 78.073377 
L 271.44181 78.073377 
L 271.44181 77.015281 
L 271.287065 77.015281 
L 271.287065 76.862398 
L 269.430127 76.862398 
L 269.430127 74.993162 
L 266.954211 74.993162 
L 266.954211 72.397078 
L 265.097274 72.397078 
L 265.097274 70.367475 
L 264.942529 70.367475 
L 264.942529 70.195008 
L 264.787784 70.195008 
L 264.787784 70.022016 
L 263.240336 70.022016 
L 263.240336 68.26276 
L 263.085591 68.26276 
L 263.085591 68.083845 
L 262.930847 68.083845 
L 262.930847 67.904378 
L 262.776102 67.904378 
L 262.776102 67.724354 
L 262.621357 67.724354 
L 262.621357 67.543771 
L 262.466612 67.543771 
L 262.466612 67.362627 
L 262.311868 67.362627 
L 262.311868 67.18092 
L 261.692888 67.212775 
L 261.692888 67.030124 
L 261.383399 67.030124 
L 261.383399 66.663103 
L 261.228654 66.663103 
L 261.228654 66.478728 
L 261.073909 66.478728 
L 261.073909 66.293773 
L 260.919165 66.293773 
L 260.919165 66.108236 
L 260.76442 66.108236 
L 260.76442 65.922114 
L 260.609675 65.922114 
L 260.609675 65.735404 
L 260.45493 65.735404 
L 260.45493 65.548102 
L 260.300185 65.548102 
L 260.300185 65.360207 
L 260.145441 65.360207 
L 260.145441 65.171716 
L 259.990696 65.171716 
L 259.990696 64.982625 
L 259.681206 64.982625 
L 259.681206 64.602634 
L 257.824269 64.602634 
L 257.824269 62.270787 
L 257.360035 62.270787 
L 257.360035 61.673537 
L 255.657842 61.673537 
L 255.657842 59.432607 
L 255.503097 59.432607 
L 255.503097 59.224812 
L 254.110394 59.224812 
L 254.110394 57.32301 
L 253.800905 57.32301 
L 253.800905 56.892494 
L 252.098712 56.892494 
L 252.098712 54.471403 
L 251.943967 54.471403 
L 251.943967 54.246727 
L 251.789223 54.246727 
L 251.789223 54.02127 
L 251.634478 54.02127 
L 251.634478 53.795029 
L 251.479733 53.795029 
L 251.479733 53.568 
L 73.832727 53.568 
L 73.832727 53.568 
" clip-path="url(#p7f8c2b298c)" style="fill: none; stroke: #4c72b0; stroke-width: 1.5; stroke-linecap: round"/>
   </g>
   <g id="patch_3">
    <path d="M 57.6 307.584 
L 57.6 41.472 
" style="fill: none; stroke: #ffffff; stroke-width: 1.25; stroke-linejoin: miter; stroke-linecap: square"/>
   </g>
   <g id="patch_4">
    <path d="M 414.72 307.584 
L 414.72 41.472 
" style="fill: none; stroke: #ffffff; stroke-width: 1.25; stroke-linejoin: miter; stroke-linecap: square"/>
   </g>
   <g id="patch_5">
    <path d="M 57.6 307.584 
L 414.72 307.584 
" style="fill: none; stroke: #ffffff; stroke-width: 1.25; stroke-linejoin: miter; stroke-linecap: square"/>
   </g>
   <g id="patch_6">
    <path d="M 57.6 41.472 
L 414.72 41.472 
" style="fill: none; stroke: #ffffff; stroke-width: 1.25; stroke-linejoin: miter; stroke-linecap: square"/>
   </g>
   <g id="text_8">
    <!-- Precision-recall curve -->
    <g style="fill: #262626" transform="translate(44.206875 35.472)scale(0.36 -0.36)">
     <defs>
      <path id="DejaVuSans-2d" d="M 313 2009 
L 1997 2009 
L 1997 1497 
L 313 1497 
L 313 2009 
z
" transform="scale(0.015625)"/>
      <path id="DejaVuSans-75" d="M 544 1381 
L 544 3500 
L 1119 3500 
L 1119 1403 
Q 1119 906 1312 657 
Q 1506 409 1894 409 
Q 2359 409 2629 706 
Q 2900 1003 2900 1516 
L 2900 3500 
L 3475 3500 
L 3475 0 
L 2900 0 
L 2900 538 
Q 2691 219 2414 64 
Q 2138 -91 1772 -91 
Q 1169 -91 856 284 
Q 544 659 544 1381 
z
M 1991 3584 
L 1991 3584 
z
" transform="scale(0.015625)"/>
     </defs>
     <use xlink:href="#DejaVuSans-50"/>
     <use xlink:href="#DejaVuSans-72" x="58.552734"/>
     <use xlink:href="#DejaVuSans-65" x="97.416016"/>
     <use xlink:href="#DejaVuSans-63" x="158.939453"/>
     <use xlink:href="#DejaVuSans-69" x="213.919922"/>
     <use xlink:href="#DejaVuSans-73" x="241.703125"/>
     <use xlink:href="#DejaVuSans-69" x="293.802734"/>
     <use xlink:href="#DejaVuSans-6f" x="321.585938"/>
     <use xlink:href="#DejaVuSans-6e" x="382.767578"/>
     <use xlink:href="#DejaVuSans-2d" x="446.146484"/>
     <use xlink:href="#DejaVuSans-72" x="482.230469"/>
     <use xlink:href="#DejaVuSans-65" x="521.09375"/>
     <use xlink:href="#DejaVuSans-63" x="582.617188"/>
     <use xlink:href="#DejaVuSans-61" x="637.597656"/>
     <use xlink:href="#DejaVuSans-6c" x="698.876953"/>
     <use xlink:href="#DejaVuSans-6c" x="726.660156"/>
     <use xlink:href="#DejaVuSans-20" x="754.443359"/>
     <use xlink:href="#DejaVuSans-63" x="786.230469"/>
     <use xlink:href="#DejaVuSans-75" x="841.210938"/>
     <use xlink:href="#DejaVuSans-72" x="904.589844"/>
     <use xlink:href="#DejaVuSans-76" x="945.703125"/>
     <use xlink:href="#DejaVuSans-65" x="1004.882812"/>
    </g>
   </g>
   <g id="legend_1">
    <g id="patch_7">
     <path d="M 80.7 291.084 
L 635.445469 291.084 
Q 642.045469 291.084 642.045469 284.484 
L 642.045469 239.346187 
Q 642.045469 232.746187 635.445469 232.746187 
L 80.7 232.746187 
Q 74.1 232.746187 74.1 239.346187 
L 74.1 284.484 
Q 74.1 291.084 80.7 291.084 
z
" style="fill: #eaeaf2; opacity: 0.8; stroke: #cccccc; stroke-linejoin: miter"/>
    </g>
    <g id="line2d_7">
     <path d="M 87.3 259.471031 
L 120.3 259.471031 
L 120.3 259.471031 
L 153.3 259.471031 
L 153.3 259.471031 
" style="fill: none; stroke: #4c72b0; stroke-width: 1.5; stroke-linecap: round"/>
    </g>
    <g id="text_9">
     <!-- Random Forest (AP = 0.91) -->
     <g style="fill: #262626" transform="translate(179.7 271.021031)scale(0.33 -0.33)">
      <defs>
       <path id="DejaVuSans-64" d="M 2906 2969 
L 2906 4863 
L 3481 4863 
L 3481 0 
L 2906 0 
L 2906 525 
Q 2725 213 2448 61 
Q 2172 -91 1784 -91 
Q 1150 -91 751 415 
Q 353 922 353 1747 
Q 353 2572 751 3078 
Q 1150 3584 1784 3584 
Q 2172 3584 2448 3432 
Q 2725 3281 2906 2969 
z
M 947 1747 
Q 947 1113 1208 752 
Q 1469 391 1925 391 
Q 2381 391 2643 752 
Q 2906 1113 2906 1747 
Q 2906 2381 2643 2742 
Q 2381 3103 1925 3103 
Q 1469 3103 1208 2742 
Q 947 2381 947 1747 
z
" transform="scale(0.015625)"/>
       <path id="DejaVuSans-6d" d="M 3328 2828 
Q 3544 3216 3844 3400 
Q 4144 3584 4550 3584 
Q 5097 3584 5394 3201 
Q 5691 2819 5691 2113 
L 5691 0 
L 5113 0 
L 5113 2094 
Q 5113 2597 4934 2840 
Q 4756 3084 4391 3084 
Q 3944 3084 3684 2787 
Q 3425 2491 3425 1978 
L 3425 0 
L 2847 0 
L 2847 2094 
Q 2847 2600 2669 2842 
Q 2491 3084 2119 3084 
Q 1678 3084 1418 2786 
Q 1159 2488 1159 1978 
L 1159 0 
L 581 0 
L 581 3500 
L 1159 3500 
L 1159 2956 
Q 1356 3278 1631 3431 
Q 1906 3584 2284 3584 
Q 2666 3584 2933 3390 
Q 3200 3197 3328 2828 
z
" transform="scale(0.015625)"/>
       <path id="DejaVuSans-46" d="M 628 4666 
L 3309 4666 
L 3309 4134 
L 1259 4134 
L 1259 2759 
L 3109 2759 
L 3109 2228 
L 1259 2228 
L 1259 0 
L 628 0 
L 628 4666 
z
" transform="scale(0.015625)"/>
       <path id="DejaVuSans-41" d="M 2188 4044 
L 1331 1722 
L 3047 1722 
L 2188 4044 
z
M 1831 4666 
L 2547 4666 
L 4325 0 
L 3669 0 
L 3244 1197 
L 1141 1197 
L 716 0 
L 50 0 
L 1831 4666 
z
" transform="scale(0.015625)"/>
       <path id="DejaVuSans-3d" d="M 678 2906 
L 4684 2906 
L 4684 2381 
L 678 2381 
L 678 2906 
z
M 678 1631 
L 4684 1631 
L 4684 1100 
L 678 1100 
L 678 1631 
z
" transform="scale(0.015625)"/>
       <path id="DejaVuSans-39" d="M 703 97 
L 703 672 
Q 941 559 1184 500 
Q 1428 441 1663 441 
Q 2288 441 2617 861 
Q 2947 1281 2994 2138 
Q 2813 1869 2534 1725 
Q 2256 1581 1919 1581 
Q 1219 1581 811 2004 
Q 403 2428 403 3163 
Q 403 3881 828 4315 
Q 1253 4750 1959 4750 
Q 2769 4750 3195 4129 
Q 3622 3509 3622 2328 
Q 3622 1225 3098 567 
Q 2575 -91 1691 -91 
Q 1453 -91 1209 -44 
Q 966 3 703 97 
z
M 1959 2075 
Q 2384 2075 2632 2365 
Q 2881 2656 2881 3163 
Q 2881 3666 2632 3958 
Q 2384 4250 1959 4250 
Q 1534 4250 1286 3958 
Q 1038 3666 1038 3163 
Q 1038 2656 1286 2365 
Q 1534 2075 1959 2075 
z
" transform="scale(0.015625)"/>
      </defs>
      <use xlink:href="#DejaVuSans-52"/>
      <use xlink:href="#DejaVuSans-61" x="67.232422"/>
      <use xlink:href="#DejaVuSans-6e" x="128.511719"/>
      <use xlink:href="#DejaVuSans-64" x="191.890625"/>
      <use xlink:href="#DejaVuSans-6f" x="255.367188"/>
      <use xlink:href="#DejaVuSans-6d" x="316.548828"/>
      <use xlink:href="#DejaVuSans-20" x="413.960938"/>
      <use xlink:href="#DejaVuSans-46" x="445.748047"/>
      <use xlink:href="#DejaVuSans-6f" x="499.642578"/>
      <use xlink:href="#DejaVuSans-72" x="560.824219"/>
      <use xlink:href="#DejaVuSans-65" x="599.6875"/>
      <use xlink:href="#DejaVuSans-73" x="661.210938"/>
      <use xlink:href="#DejaVuSans-74" x="713.310547"/>
      <use xlink:href="#DejaVuSans-20" x="752.519531"/>
      <use xlink:href="#DejaVuSans-28" x="784.306641"/>
      <use xlink:href="#DejaVuSans-41" x="823.320312"/>
      <use xlink:href="#DejaVuSans-50" x="891.728516"/>
      <use xlink:href="#DejaVuSans-20" x="952.03125"/>
      <use xlink:href="#DejaVuSans-3d" x="983.818359"/>
      <use xlink:href="#DejaVuSans-20" x="1067.607422"/>
      <use xlink:href="#DejaVuSans-30" x="1099.394531"/>
      <use xlink:href="#DejaVuSans-2e" x="1163.017578"/>
      <use xlink:href="#DejaVuSans-39" x="1194.804688"/>
      <use xlink:href="#DejaVuSans-31" x="1258.427734"/>
      <use xlink:href="#DejaVuSans-29" x="1322.050781"/>
     </g>
    </g>
   </g>
  </g>
 </g>
 <defs>
  <clipPath id="p7f8c2b298c">
   <rect x="57.6" y="41.472" width="357.12" height="266.112"/>
  </clipPath>
 </defs>
</svg>
