<?xml version="1.0" encoding="utf-8" standalone="no"?>
<!DOCTYPE svg PUBLIC "-//W3C//DTD SVG 1.1//EN"
  "http://www.w3.org/Graphics/SVG/1.1/DTD/svg11.dtd">
<svg xmlns:xlink="http://www.w3.org/1999/xlink" width="460.8pt" height="345.6pt" viewBox="0 0 460.8 345.6" xmlns="http://www.w3.org/2000/svg" version="1.1">
 <metadata>
  <rdf:RDF xmlns:dc="http://purl.org/dc/elements/1.1/" xmlns:cc="http://creativecommons.org/ns#" xmlns:rdf="http://www.w3.org/1999/02/22-rdf-syntax-ns#">
   <cc:Work>
    <dc:type rdf:resource="http://purl.org/dc/dcmitype/StillImage"/>
    <dc:date>2022-11-22T06:10:28.545773</dc:date>
    <dc:format>image/svg+xml</dc:format>
    <dc:creator>
     <cc:Agent>
      <dc:title>Matplotlib v3.5.2, https://matplotlib.org/</dc:title>
     </cc:Agent>
    </dc:creator>
   </cc:Work>
  </rdf:RDF>
 </metadata>
 <defs>
  <style type="text/css">*{stroke-linejoin: round; stroke-linecap: butt}</style>
 </defs>
 <g id="figure_1">
  <g id="patch_1">
   <path d="M 0 345.6 
L 460.8 345.6 
L 460.8 0 
L 0 0 
z
" style="fill: #ffffff"/>
  </g>
  <g id="axes_1">
   <g id="patch_2">
    <path d="M 57.6 307.584 
L 414.72 307.584 
L 414.72 41.472 
L 57.6 41.472 
z
" style="fill: #eaeaf2"/>
   </g>
   <g id="matplotlib.axis_1">
    <g id="xtick_1">
     <g id="line2d_1">
      <path d="M 73.832727 307.584 
L 73.832727 41.472 
" clip-path="url(#pb11a927720)" style="fill: none; stroke: #ffffff; stroke-linecap: round"/>
     </g>
     <g id="text_1">
      <!-- 0.0 -->
      <g style="fill: #262626" transform="translate(47.592571 342.158844)scale(0.33 -0.33)">
       <defs>
        <path id="DejaVuSans-30" d="M 2034 4250 
Q 1547 4250 1301 3770 
Q 1056 3291 1056 2328 
Q 1056 1369 1301 889 
Q 1547 409 2034 409 
Q 2525 409 2770 889 
Q 3016 1369 3016 2328 
Q 3016 3291 2770 3770 
Q 2525 4250 2034 4250 
z
M 2034 4750 
Q 2819 4750 3233 4129 
Q 3647 3509 3647 2328 
Q 3647 1150 3233 529 
Q 2819 -91 2034 -91 
Q 1250 -91 836 529 
Q 422 1150 422 2328 
Q 422 3509 836 4129 
Q 1250 4750 2034 4750 
z
" transform="scale(0.015625)"/>
        <path id="DejaVuSans-2e" d="M 684 794 
L 1344 794 
L 1344 0 
L 684 0 
L 684 794 
z
" transform="scale(0.015625)"/>
       </defs>
       <use xlink:href="#DejaVuSans-30"/>
       <use xlink:href="#DejaVuSans-2e" x="63.623047"/>
       <use xlink:href="#DejaVuSans-30" x="95.410156"/>
      </g>
     </g>
    </g>
    <g id="xtick_2">
     <g id="line2d_2">
      <path d="M 236.16 307.584 
L 236.16 41.472 
" clip-path="url(#pb11a927720)" style="fill: none; stroke: #ffffff; stroke-linecap: round"/>
     </g>
     <g id="text_2">
      <!-- 0.5 -->
      <g style="fill: #262626" transform="translate(209.919844 342.158844)scale(0.33 -0.33)">
       <defs>
        <path id="DejaVuSans-35" d="M 691 4666 
L 3169 4666 
L 3169 4134 
L 1269 4134 
L 1269 2991 
Q 1406 3038 1543 3061 
Q 1681 3084 1819 3084 
Q 2600 3084 3056 2656 
Q 3513 2228 3513 1497 
Q 3513 744 3044 326 
Q 2575 -91 1722 -91 
Q 1428 -91 1123 -41 
Q 819 9 494 109 
L 494 744 
Q 775 591 1075 516 
Q 1375 441 1709 441 
Q 2250 441 2565 725 
Q 2881 1009 2881 1497 
Q 2881 1984 2565 2268 
Q 2250 2553 1709 2553 
Q 1456 2553 1204 2497 
Q 953 2441 691 2322 
L 691 4666 
z
" transform="scale(0.015625)"/>
       </defs>
       <use xlink:href="#DejaVuSans-30"/>
       <use xlink:href="#DejaVuSans-2e" x="63.623047"/>
       <use xlink:href="#DejaVuSans-35" x="95.410156"/>
      </g>
     </g>
    </g>
    <g id="xtick_3">
     <g id="line2d_3">
      <path d="M 398.487273 307.584 
L 398.487273 41.472 
" clip-path="url(#pb11a927720)" style="fill: none; stroke: #ffffff; stroke-linecap: round"/>
     </g>
     <g id="text_3">
      <!-- 1.0 -->
      <g style="fill: #262626" transform="translate(372.247116 342.158844)scale(0.33 -0.33)">
       <defs>
        <path id="DejaVuSans-31" d="M 794 531 
L 1825 531 
L 1825 4091 
L 703 3866 
L 703 4441 
L 1819 4666 
L 2450 4666 
L 2450 531 
L 3481 531 
L 3481 0 
L 794 0 
L 794 531 
z
" transform="scale(0.015625)"/>
       </defs>
       <use xlink:href="#DejaVuSans-31"/>
       <use xlink:href="#DejaVuSans-2e" x="63.623047"/>
       <use xlink:href="#DejaVuSans-30" x="95.410156"/>
      </g>
     </g>
    </g>
    <g id="text_4">
     <!-- Recall (Positive label: 1.0) -->
     <g style="fill: #262626" transform="translate(3.647813 380.376187)scale(0.36 -0.36)">
      <defs>
       <path id="DejaVuSans-52" d="M 2841 2188 
Q 3044 2119 3236 1894 
Q 3428 1669 3622 1275 
L 4263 0 
L 3584 0 
L 2988 1197 
Q 2756 1666 2539 1819 
Q 2322 1972 1947 1972 
L 1259 1972 
L 1259 0 
L 628 0 
L 628 4666 
L 2053 4666 
Q 2853 4666 3247 4331 
Q 3641 3997 3641 3322 
Q 3641 2881 3436 2590 
Q 3231 2300 2841 2188 
z
M 1259 4147 
L 1259 2491 
L 2053 2491 
Q 2509 2491 2742 2702 
Q 2975 2913 2975 3322 
Q 2975 3731 2742 3939 
Q 2509 4147 2053 4147 
L 1259 4147 
z
" transform="scale(0.015625)"/>
       <path id="DejaVuSans-65" d="M 3597 1894 
L 3597 1613 
L 953 1613 
Q 991 1019 1311 708 
Q 1631 397 2203 397 
Q 2534 397 2845 478 
Q 3156 559 3463 722 
L 3463 178 
Q 3153 47 2828 -22 
Q 2503 -91 2169 -91 
Q 1331 -91 842 396 
Q 353 884 353 1716 
Q 353 2575 817 3079 
Q 1281 3584 2069 3584 
Q 2775 3584 3186 3129 
Q 3597 2675 3597 1894 
z
M 3022 2063 
Q 3016 2534 2758 2815 
Q 2500 3097 2075 3097 
Q 1594 3097 1305 2825 
Q 1016 2553 972 2059 
L 3022 2063 
z
" transform="scale(0.015625)"/>
       <path id="DejaVuSans-63" d="M 3122 3366 
L 3122 2828 
Q 2878 2963 2633 3030 
Q 2388 3097 2138 3097 
Q 1578 3097 1268 2742 
Q 959 2388 959 1747 
Q 959 1106 1268 751 
Q 1578 397 2138 397 
Q 2388 397 2633 464 
Q 2878 531 3122 666 
L 3122 134 
Q 2881 22 2623 -34 
Q 2366 -91 2075 -91 
Q 1284 -91 818 406 
Q 353 903 353 1747 
Q 353 2603 823 3093 
Q 1294 3584 2113 3584 
Q 2378 3584 2631 3529 
Q 2884 3475 3122 3366 
z
" transform="scale(0.015625)"/>
       <path id="DejaVuSans-61" d="M 2194 1759 
Q 1497 1759 1228 1600 
Q 959 1441 959 1056 
Q 959 750 1161 570 
Q 1363 391 1709 391 
Q 2188 391 2477 730 
Q 2766 1069 2766 1631 
L 2766 1759 
L 2194 1759 
z
M 3341 1997 
L 3341 0 
L 2766 0 
L 2766 531 
Q 2569 213 2275 61 
Q 1981 -91 1556 -91 
Q 1019 -91 701 211 
Q 384 513 384 1019 
Q 384 1609 779 1909 
Q 1175 2209 1959 2209 
L 2766 2209 
L 2766 2266 
Q 2766 2663 2505 2880 
Q 2244 3097 1772 3097 
Q 1472 3097 1187 3025 
Q 903 2953 641 2809 
L 641 3341 
Q 956 3463 1253 3523 
Q 1550 3584 1831 3584 
Q 2591 3584 2966 3190 
Q 3341 2797 3341 1997 
z
" transform="scale(0.015625)"/>
       <path id="DejaVuSans-6c" d="M 603 4863 
L 1178 4863 
L 1178 0 
L 603 0 
L 603 4863 
z
" transform="scale(0.015625)"/>
       <path id="DejaVuSans-20" transform="scale(0.015625)"/>
       <path id="DejaVuSans-28" d="M 1984 4856 
Q 1566 4138 1362 3434 
Q 1159 2731 1159 2009 
Q 1159 1288 1364 580 
Q 1569 -128 1984 -844 
L 1484 -844 
Q 1016 -109 783 600 
Q 550 1309 550 2009 
Q 550 2706 781 3412 
Q 1013 4119 1484 4856 
L 1984 4856 
z
" transform="scale(0.015625)"/>
       <path id="DejaVuSans-50" d="M 1259 4147 
L 1259 2394 
L 2053 2394 
Q 2494 2394 2734 2622 
Q 2975 2850 2975 3272 
Q 2975 3691 2734 3919 
Q 2494 4147 2053 4147 
L 1259 4147 
z
M 628 4666 
L 2053 4666 
Q 2838 4666 3239 4311 
Q 3641 3956 3641 3272 
Q 3641 2581 3239 2228 
Q 2838 1875 2053 1875 
L 1259 1875 
L 1259 0 
L 628 0 
L 628 4666 
z
" transform="scale(0.015625)"/>
       <path id="DejaVuSans-6f" d="M 1959 3097 
Q 1497 3097 1228 2736 
Q 959 2375 959 1747 
Q 959 1119 1226 758 
Q 1494 397 1959 397 
Q 2419 397 2687 759 
Q 2956 1122 2956 1747 
Q 2956 2369 2687 2733 
Q 2419 3097 1959 3097 
z
M 1959 3584 
Q 2709 3584 3137 3096 
Q 3566 2609 3566 1747 
Q 3566 888 3137 398 
Q 2709 -91 1959 -91 
Q 1206 -91 779 398 
Q 353 888 353 1747 
Q 353 2609 779 3096 
Q 1206 3584 1959 3584 
z
" transform="scale(0.015625)"/>
       <path id="DejaVuSans-73" d="M 2834 3397 
L 2834 2853 
Q 2591 2978 2328 3040 
Q 2066 3103 1784 3103 
Q 1356 3103 1142 2972 
Q 928 2841 928 2578 
Q 928 2378 1081 2264 
Q 1234 2150 1697 2047 
L 1894 2003 
Q 2506 1872 2764 1633 
Q 3022 1394 3022 966 
Q 3022 478 2636 193 
Q 2250 -91 1575 -91 
Q 1294 -91 989 -36 
Q 684 19 347 128 
L 347 722 
Q 666 556 975 473 
Q 1284 391 1588 391 
Q 1994 391 2212 530 
Q 2431 669 2431 922 
Q 2431 1156 2273 1281 
Q 2116 1406 1581 1522 
L 1381 1569 
Q 847 1681 609 1914 
Q 372 2147 372 2553 
Q 372 3047 722 3315 
Q 1072 3584 1716 3584 
Q 2034 3584 2315 3537 
Q 2597 3491 2834 3397 
z
" transform="scale(0.015625)"/>
       <path id="DejaVuSans-69" d="M 603 3500 
L 1178 3500 
L 1178 0 
L 603 0 
L 603 3500 
z
M 603 4863 
L 1178 4863 
L 1178 4134 
L 603 4134 
L 603 4863 
z
" transform="scale(0.015625)"/>
       <path id="DejaVuSans-74" d="M 1172 4494 
L 1172 3500 
L 2356 3500 
L 2356 3053 
L 1172 3053 
L 1172 1153 
Q 1172 725 1289 603 
Q 1406 481 1766 481 
L 2356 481 
L 2356 0 
L 1766 0 
Q 1100 0 847 248 
Q 594 497 594 1153 
L 594 3053 
L 172 3053 
L 172 3500 
L 594 3500 
L 594 4494 
L 1172 4494 
z
" transform="scale(0.015625)"/>
       <path id="DejaVuSans-76" d="M 191 3500 
L 800 3500 
L 1894 563 
L 2988 3500 
L 3597 3500 
L 2284 0 
L 1503 0 
L 191 3500 
z
" transform="scale(0.015625)"/>
       <path id="DejaVuSans-62" d="M 3116 1747 
Q 3116 2381 2855 2742 
Q 2594 3103 2138 3103 
Q 1681 3103 1420 2742 
Q 1159 2381 1159 1747 
Q 1159 1113 1420 752 
Q 1681 391 2138 391 
Q 2594 391 2855 752 
Q 3116 1113 3116 1747 
z
M 1159 2969 
Q 1341 3281 1617 3432 
Q 1894 3584 2278 3584 
Q 2916 3584 3314 3078 
Q 3713 2572 3713 1747 
Q 3713 922 3314 415 
Q 2916 -91 2278 -91 
Q 1894 -91 1617 61 
Q 1341 213 1159 525 
L 1159 0 
L 581 0 
L 581 4863 
L 1159 4863 
L 1159 2969 
z
" transform="scale(0.015625)"/>
       <path id="DejaVuSans-3a" d="M 750 794 
L 1409 794 
L 1409 0 
L 750 0 
L 750 794 
z
M 750 3309 
L 1409 3309 
L 1409 2516 
L 750 2516 
L 750 3309 
z
" transform="scale(0.015625)"/>
       <path id="DejaVuSans-29" d="M 513 4856 
L 1013 4856 
Q 1481 4119 1714 3412 
Q 1947 2706 1947 2009 
Q 1947 1309 1714 600 
Q 1481 -109 1013 -844 
L 513 -844 
Q 928 -128 1133 580 
Q 1338 1288 1338 2009 
Q 1338 2731 1133 3434 
Q 928 4138 513 4856 
z
" transform="scale(0.015625)"/>
      </defs>
      <use xlink:href="#DejaVuSans-52"/>
      <use xlink:href="#DejaVuSans-65" x="64.982422"/>
      <use xlink:href="#DejaVuSans-63" x="126.505859"/>
      <use xlink:href="#DejaVuSans-61" x="181.486328"/>
      <use xlink:href="#DejaVuSans-6c" x="242.765625"/>
      <use xlink:href="#DejaVuSans-6c" x="270.548828"/>
      <use xlink:href="#DejaVuSans-20" x="298.332031"/>
      <use xlink:href="#DejaVuSans-28" x="330.119141"/>
      <use xlink:href="#DejaVuSans-50" x="369.132812"/>
      <use xlink:href="#DejaVuSans-6f" x="425.810547"/>
      <use xlink:href="#DejaVuSans-73" x="486.992188"/>
      <use xlink:href="#DejaVuSans-69" x="539.091797"/>
      <use xlink:href="#DejaVuSans-74" x="566.875"/>
      <use xlink:href="#DejaVuSans-69" x="606.083984"/>
      <use xlink:href="#DejaVuSans-76" x="633.867188"/>
      <use xlink:href="#DejaVuSans-65" x="693.046875"/>
      <use xlink:href="#DejaVuSans-20" x="754.570312"/>
      <use xlink:href="#DejaVuSans-6c" x="786.357422"/>
      <use xlink:href="#DejaVuSans-61" x="814.140625"/>
      <use xlink:href="#DejaVuSans-62" x="875.419922"/>
      <use xlink:href="#DejaVuSans-65" x="938.896484"/>
      <use xlink:href="#DejaVuSans-6c" x="1000.419922"/>
      <use xlink:href="#DejaVuSans-3a" x="1028.203125"/>
      <use xlink:href="#DejaVuSans-20" x="1061.894531"/>
      <use xlink:href="#DejaVuSans-31" x="1093.681641"/>
      <use xlink:href="#DejaVuSans-2e" x="1157.304688"/>
      <use xlink:href="#DejaVuSans-30" x="1189.091797"/>
      <use xlink:href="#DejaVuSans-29" x="1252.714844"/>
     </g>
    </g>
   </g>
   <g id="matplotlib.axis_2">
    <g id="ytick_1">
     <g id="line2d_4">
      <path d="M 57.6 185.467728 
L 414.72 185.467728 
" clip-path="url(#pb11a927720)" style="fill: none; stroke: #ffffff; stroke-linecap: round"/>
     </g>
     <g id="text_5">
      <!-- 0.5 -->
      <g style="fill: #262626" transform="translate(-4.380313 198.00515)scale(0.33 -0.33)">
       <use xlink:href="#DejaVuSans-30"/>
       <use xlink:href="#DejaVuSans-2e" x="63.623047"/>
       <use xlink:href="#DejaVuSans-35" x="95.410156"/>
      </g>
     </g>
    </g>
    <g id="ytick_2">
     <g id="line2d_5">
      <path d="M 57.6 53.568 
L 414.72 53.568 
" clip-path="url(#pb11a927720)" style="fill: none; stroke: #ffffff; stroke-linecap: round"/>
     </g>
     <g id="text_6">
      <!-- 1.0 -->
      <g style="fill: #262626" transform="translate(-4.380313 66.105422)scale(0.33 -0.33)">
       <use xlink:href="#DejaVuSans-31"/>
       <use xlink:href="#DejaVuSans-2e" x="63.623047"/>
       <use xlink:href="#DejaVuSans-30" x="95.410156"/>
      </g>
     </g>
    </g>
    <g id="text_7">
     <!-- Precision (Positive label: 1.0) -->
     <g style="fill: #262626" transform="translate(-15.867188 433.643625)rotate(-90)scale(0.36 -0.36)">
      <defs>
       <path id="DejaVuSans-72" d="M 2631 2963 
Q 2534 3019 2420 3045 
Q 2306 3072 2169 3072 
Q 1681 3072 1420 2755 
Q 1159 2438 1159 1844 
L 1159 0 
L 581 0 
L 581 3500 
L 1159 3500 
L 1159 2956 
Q 1341 3275 1631 3429 
Q 1922 3584 2338 3584 
Q 2397 3584 2469 3576 
Q 2541 3569 2628 3553 
L 2631 2963 
z
" transform="scale(0.015625)"/>
       <path id="DejaVuSans-6e" d="M 3513 2113 
L 3513 0 
L 2938 0 
L 2938 2094 
Q 2938 2591 2744 2837 
Q 2550 3084 2163 3084 
Q 1697 3084 1428 2787 
Q 1159 2491 1159 1978 
L 1159 0 
L 581 0 
L 581 3500 
L 1159 3500 
L 1159 2956 
Q 1366 3272 1645 3428 
Q 1925 3584 2291 3584 
Q 2894 3584 3203 3211 
Q 3513 2838 3513 2113 
z
" transform="scale(0.015625)"/>
      </defs>
      <use xlink:href="#DejaVuSans-50"/>
      <use xlink:href="#DejaVuSans-72" x="58.552734"/>
      <use xlink:href="#DejaVuSans-65" x="97.416016"/>
      <use xlink:href="#DejaVuSans-63" x="158.939453"/>
      <use xlink:href="#DejaVuSans-69" x="213.919922"/>
      <use xlink:href="#DejaVuSans-73" x="241.703125"/>
      <use xlink:href="#DejaVuSans-69" x="293.802734"/>
      <use xlink:href="#DejaVuSans-6f" x="321.585938"/>
      <use xlink:href="#DejaVuSans-6e" x="382.767578"/>
      <use xlink:href="#DejaVuSans-20" x="446.146484"/>
      <use xlink:href="#DejaVuSans-28" x="477.933594"/>
      <use xlink:href="#DejaVuSans-50" x="516.947266"/>
      <use xlink:href="#DejaVuSans-6f" x="573.625"/>
      <use xlink:href="#DejaVuSans-73" x="634.806641"/>
      <use xlink:href="#DejaVuSans-69" x="686.90625"/>
      <use xlink:href="#DejaVuSans-74" x="714.689453"/>
      <use xlink:href="#DejaVuSans-69" x="753.898438"/>
      <use xlink:href="#DejaVuSans-76" x="781.681641"/>
      <use xlink:href="#DejaVuSans-65" x="840.861328"/>
      <use xlink:href="#DejaVuSans-20" x="902.384766"/>
      <use xlink:href="#DejaVuSans-6c" x="934.171875"/>
      <use xlink:href="#DejaVuSans-61" x="961.955078"/>
      <use xlink:href="#DejaVuSans-62" x="1023.234375"/>
      <use xlink:href="#DejaVuSans-65" x="1086.710938"/>
      <use xlink:href="#DejaVuSans-6c" x="1148.234375"/>
      <use xlink:href="#DejaVuSans-3a" x="1176.017578"/>
      <use xlink:href="#DejaVuSans-20" x="1209.708984"/>
      <use xlink:href="#DejaVuSans-31" x="1241.496094"/>
      <use xlink:href="#DejaVuSans-2e" x="1305.119141"/>
      <use xlink:href="#DejaVuSans-30" x="1336.90625"/>
      <use xlink:href="#DejaVuSans-29" x="1400.529297"/>
     </g>
    </g>
   </g>
   <g id="line2d_6">
    <path d="M 398.487273 295.488 
L 398.487273 285.358622 
L 397.747741 285.358622 
L 397.747741 285.254015 
L 397.747741 260.053884 
L 397.008209 260.053884 
L 397.008209 259.956917 
L 397.008209 242.461438 
L 396.268677 242.461438 
L 396.268677 242.486881 
L 396.268677 220.633593 
L 394.789613 220.633593 
L 394.789613 220.752297 
L 394.789613 215.236355 
L 394.050081 215.236355 
L 394.050081 215.198257 
L 394.050081 210.515104 
L 393.310549 210.515104 
L 393.310549 210.46186 
L 393.310549 203.86012 
L 392.571017 203.86012 
L 392.571017 203.783475 
L 392.571017 202.055523 
L 391.831485 202.055523 
L 391.831485 201.971967 
L 391.831485 198.464137 
L 391.091953 198.464137 
L 391.091953 198.36644 
L 391.091953 197.229487 
L 389.612889 197.126596 
L 389.612889 197.151482 
L 389.612889 196.894336 
L 388.873357 196.894336 
L 388.873357 196.91883 
L 388.873357 194.817218 
L 385.175697 194.764625 
L 385.175697 194.785148 
L 385.175697 194.649698 
L 384.436165 194.649698 
L 384.436165 194.670035 
L 384.436165 194.397676 
L 383.696633 194.397676 
L 383.696633 194.417543 
L 383.696633 194.280627 
L 382.957101 194.280627 
L 382.957101 194.300299 
L 382.957101 189.594371 
L 382.217569 189.594371 
L 382.217569 189.603956 
L 382.217569 189.455394 
L 381.478037 189.455394 
L 381.478037 189.46469 
L 381.478037 189.315445 
L 380.738505 189.315445 
L 380.738505 189.324445 
L 380.738505 187.809143 
L 379.998973 187.809143 
L 379.998973 187.814698 
L 379.998973 187.04171 
L 379.259441 187.04171 
L 379.259441 187.045476 
L 379.259441 185.786326 
L 377.040845 185.787873 
L 377.040845 185.788652 
L 377.040845 185.628385 
L 376.301313 185.628385 
L 376.301313 185.628778 
L 376.301313 185.467728 
L 375.561781 185.467728 
L 375.561781 185.467728 
L 375.561781 184.490693 
L 374.822249 184.490693 
L 374.822249 184.488275 
L 374.822249 184.15855 
L 372.603653 184.15202 
L 372.603653 184.148731 
L 372.603653 183.814849 
L 371.864121 183.814849 
L 371.864121 183.810696 
L 371.864121 183.474281 
L 371.124589 183.474281 
L 371.124589 183.469247 
L 371.124589 183.130265 
L 368.905993 183.118369 
L 368.905993 183.112376 
L 368.905993 182.596671 
L 368.166461 182.596671 
L 368.166461 182.5893 
L 368.166461 182.242381 
L 366.687397 182.234057 
L 366.687397 182.225691 
L 366.687397 181.875128 
L 364.468801 181.856393 
L 364.468801 181.846951 
L 364.468801 180.955369 
L 363.729269 180.955369 
L 363.729269 180.943463 
L 363.729269 180.037593 
L 362.989737 180.037593 
L 362.989737 180.023132 
L 362.989737 179.656392 
L 360.771141 179.62519 
L 360.771141 179.609463 
L 360.771141 179.050985 
L 360.031609 179.050985 
L 360.031609 179.033595 
L 360.031609 178.468967 
L 358.552545 178.449871 
L 358.552545 178.43067 
L 358.552545 177.858128 
L 354.854885 177.773577 
L 354.854885 177.752145 
L 354.854885 177.557424 
L 351.157225 177.468168 
L 351.157225 177.247348 
L 349.678161 177.223995 
L 349.678161 177.200509 
L 349.678161 176.598934 
L 347.459565 176.54789 
L 347.459565 176.522148 
L 347.459565 176.114491 
L 346.720033 176.114491 
L 346.720033 176.087341 
L 346.720033 175.881992 
L 345.240969 175.854045 
L 345.240969 175.825935 
L 345.240969 175.410857 
L 344.501437 175.410857 
L 344.501437 175.381278 
L 344.501437 174.541123 
L 343.761905 174.541123 
L 343.761905 174.5087 
L 343.761905 174.296429 
L 343.022373 174.296429 
L 343.022373 174.263131 
L 343.022373 173.835316 
L 342.282841 173.835316 
L 342.282841 173.800436 
L 342.282841 173.58487 
L 341.543309 173.58487 
L 341.543309 173.549078 
L 341.543309 173.332157 
L 340.803777 173.332157 
L 340.803777 173.295438 
L 340.803777 172.418288 
L 339.324713 172.378442 
L 339.324713 172.338352 
L 339.324713 171.668987 
L 338.585181 171.668987 
L 338.585181 171.626399 
L 338.585181 171.401142 
L 337.845649 171.401142 
L 337.845649 171.357525 
L 337.845649 171.130801 
L 337.106117 171.130801 
L 337.106117 171.086138 
L 337.106117 169.006309 
L 336.366585 169.006309 
L 336.366585 168.954133 
L 336.366585 168.007317 
L 335.627053 168.007317 
L 335.627053 167.951444 
L 335.627053 167.711995 
L 334.887521 167.711995 
L 334.887521 167.654903 
L 334.887521 166.929317 
L 334.147989 166.929317 
L 334.147989 166.869225 
L 334.147989 163.119269 
L 333.408457 163.119269 
L 333.408457 163.044774 
L 333.408457 161.747945 
L 331.929393 161.667946 
L 331.929393 160.792609 
L 331.189861 160.792609 
L 331.189861 160.708393 
L 331.189861 159.631699 
L 330.450329 159.631699 
L 330.450329 159.542609 
L 330.450329 157.614557 
L 329.710797 157.614557 
L 329.710797 157.516998 
L 329.710797 155.819471 
L 328.971265 155.819471 
L 328.971265 155.714148 
L 328.971265 154.848148 
L 328.231733 154.848148 
L 328.231733 154.738401 
L 328.231733 154.446428 
L 327.492201 154.446428 
L 327.492201 153.448591 
L 326.752669 153.448591 
L 326.752669 151.522945 
L 326.013137 151.522945 
L 326.013137 136.00533 
L 324.534073 136.00533 
L 324.534073 136.339084 
L 324.534073 135.603197 
L 323.055009 135.603197 
L 323.055009 135.938034 
L 322.315477 135.938034 
L 322.315477 136.10648 
L 321.575945 136.10648 
L 321.575945 136.275616 
L 320.836413 136.275616 
L 320.836413 136.445447 
L 317.878285 136.445447 
L 317.878285 137.131803 
L 317.138753 137.131803 
L 317.138753 137.305172 
L 316.399221 137.305172 
L 316.399221 137.479262 
L 315.659689 137.479262 
L 315.659689 137.654077 
L 314.180625 137.654077 
L 314.180625 138.005901 
L 314.180625 137.629881 
L 313.441093 137.629881 
L 313.441093 137.806482 
L 313.441093 137.428459 
L 312.701561 137.428459 
L 312.701561 137.605379 
L 311.962029 137.605379 
L 311.962029 137.783048 
L 311.962029 137.402573 
L 311.222497 137.402573 
L 311.222497 137.580566 
L 311.222497 137.19804 
L 309.743433 137.19804 
L 309.743433 136.00533 
L 309.003901 136.00533 
L 309.003901 136.18338 
L 309.003901 134.604434 
L 308.264369 134.604434 
L 308.264369 134.381838 
L 307.524837 134.381838 
L 307.524837 133.348409 
L 306.785305 133.348409 
L 306.785305 133.524915 
L 306.785305 131.883464 
L 306.045773 131.883464 
L 306.045773 129.110572 
L 305.306241 129.110572 
L 305.306241 127.553135 
L 304.566709 127.553135 
L 304.566709 116.622504 
L 303.827177 116.622504 
L 303.827177 116.776672 
L 303.087645 116.776672 
L 303.087645 116.931595 
L 303.087645 116.439123 
L 302.348113 116.439123 
L 302.348113 116.593978 
L 302.348113 113.582376 
L 301.608581 113.582376 
L 301.608581 105.225857 
L 300.869049 105.225857 
L 300.869049 105.361087 
L 300.869049 101.978007 
L 300.129517 101.978007 
L 300.129517 89.979756 
L 299.389986 89.979756 
L 299.389986 88.791223 
L 298.650454 88.791223 
L 298.650454 87.582257 
L 297.910922 87.582257 
L 297.910922 69.902332 
L 297.17139 69.902332 
L 297.17139 65.255318 
L 296.431858 65.255318 
L 296.431858 65.29242 
L 296.431858 63.681717 
L 295.692326 63.681717 
L 295.692326 63.714133 
L 295.692326 61.251479 
L 291.994666 61.352246 
L 291.994666 61.377852 
L 288.297006 61.481984 
L 288.297006 61.508452 
L 283.859814 61.588929 
L 283.859814 61.671055 
L 280.901686 61.75488 
L 280.901686 61.783208 
L 276.464494 61.869381 
L 276.464494 61.957382 
L 273.506366 62.047268 
L 273.506366 62.07766 
L 271.28777 62.139101 
L 271.28777 61.242166 
L 268.329642 61.326808 
L 268.329642 61.355438 
L 265.371514 61.442611 
L 265.371514 61.472104 
L 262.413386 61.561923 
L 262.413386 61.592318 
L 257.976194 61.684906 
L 257.976194 61.779656 
L 255.018066 61.876644 
L 255.018066 61.909485 
L 252.059938 62.009583 
L 252.059938 62.043485 
L 248.362278 62.146844 
L 248.362278 62.217162 
L 243.185554 62.324828 
L 243.185554 62.472623 
L 237.269298 62.548407 
L 237.269298 62.783702 
L 230.61351 62.824121 
L 230.61351 63.160707 
L 228.394914 63.20451 
L 228.394914 63.293326 
L 225.436786 63.383794 
L 225.436786 63.475961 
L 218.780998 63.475961 
L 218.780998 63.913077 
L 216.562402 63.964038 
L 216.562402 64.067481 
L 213.604274 64.067481 
L 213.604274 64.280668 
L 210.646146 64.280668 
L 210.646146 64.502692 
L 208.42755 64.559644 
L 208.42755 64.675346 
L 206.948486 64.734115 
L 206.948486 64.793509 
L 205.469422 64.853538 
L 205.469422 64.914213 
L 203.990358 64.975544 
L 203.990358 65.037542 
L 202.511294 65.100217 
L 202.511294 65.16358 
L 201.03223 65.227644 
L 201.03223 65.29242 
L 197.33457 65.35792 
L 197.33457 65.627404 
L 195.855506 65.696711 
L 195.855506 65.766819 
L 194.376442 65.837742 
L 194.376442 65.909495 
L 174.409078 65.909495 
L 174.409078 68.223525 
L 167.013759 68.223525 
L 167.013759 69.317221 
L 166.274227 69.317221 
L 166.274227 69.435636 
L 165.534695 69.435636 
L 165.534695 69.555846 
L 164.795163 69.555846 
L 164.795163 69.67789 
L 163.316099 69.67789 
L 163.316099 69.927656 
L 160.357971 69.927656 
L 160.357971 70.451165 
L 159.618439 70.451165 
L 159.618439 70.58732 
L 157.399843 70.58732 
L 157.399843 71.009286 
L 156.660311 71.009286 
L 156.660311 71.15463 
L 155.920779 71.15463 
L 155.920779 71.302417 
L 155.181247 71.302417 
L 155.181247 71.452709 
L 153.702183 71.452709 
L 153.702183 71.761066 
L 150.004523 71.761066 
L 150.004523 72.580573 
L 136.692947 72.580573 
L 136.692947 76.260426 
L 133.734819 76.260426 
L 133.734819 77.280311 
L 132.995287 77.280311 
L 132.995287 77.549769 
L 132.255755 77.549769 
L 132.255755 77.825421 
L 131.516223 77.825421 
L 131.516223 78.107484 
L 130.776691 78.107484 
L 130.776691 78.396184 
L 121.902307 78.396184 
L 121.902307 82.477529 
L 121.162775 82.477529 
L 121.162775 82.879051 
L 119.683711 82.879051 
L 119.683711 83.716509 
L 118.944179 83.716509 
L 118.944179 84.153444 
L 118.204647 84.153444 
L 118.204647 84.60323 
L 116.725583 84.60323 
L 116.725583 85.543692 
L 115.986051 85.543692 
L 115.986051 86.035625 
L 115.246519 86.035625 
L 115.246519 86.542932 
L 114.506987 86.542932 
L 114.506987 87.066344 
L 111.548859 87.066344 
L 111.548859 89.337418 
L 110.809327 89.337418 
L 110.809327 89.954132 
L 107.851199 89.954132 
L 107.851199 92.649401 
L 107.111667 92.649401 
L 107.111667 93.386786 
L 105.632603 93.386786 
L 105.632603 94.948307 
L 104.893071 94.948307 
L 104.893071 95.775913 
L 104.153539 95.775913 
L 104.153539 96.637299 
L 103.414007 96.637299 
L 103.414007 97.534576 
L 101.934943 97.534576 
L 101.934943 99.446166 
L 96.758219 99.446166 
L 96.758219 107.680709 
L 94.539623 107.680709 
L 94.539623 112.190101 
L 88.623367 112.190101 
L 88.623367 128.939273 
L 87.883835 128.939273 
L 87.883835 131.730802 
L 86.404771 131.730802 
L 86.404771 137.983826 
L 84.186175 137.983826 
L 84.186175 149.495075 
L 83.446643 149.495075 
L 83.446643 154.063031 
L 82.707111 154.063031 
L 82.707111 159.087782 
L 81.967579 159.087782 
L 81.967579 156.156677 
L 81.228047 156.156677 
L 81.228047 162.191305 
L 80.488515 162.191305 
L 80.488515 147.782091 
L 79.748983 147.782091 
L 79.748983 141.501152 
L 79.009451 141.501152 
L 79.009451 132.707837 
L 78.269919 132.707837 
L 78.269919 119.517864 
L 77.530387 119.517864 
L 77.530387 97.534576 
L 76.790855 97.534576 
L 76.790855 53.568 
L 73.832727 53.568 
L 73.832727 53.568 
" clip-path="url(#pb11a927720)" style="fill: none; stroke: #4c72b0; stroke-width: 1.5; stroke-linecap: round"/>
   </g>
   <g id="patch_3">
    <path d="M 57.6 307.584 
L 57.6 41.472 
" style="fill: none; stroke: #ffffff; stroke-width: 1.25; stroke-linejoin: miter; stroke-linecap: square"/>
   </g>
   <g id="patch_4">
    <path d="M 414.72 307.584 
L 414.72 41.472 
" style="fill: none; stroke: #ffffff; stroke-width: 1.25; stroke-linejoin: miter; stroke-linecap: square"/>
   </g>
   <g id="patch_5">
    <path d="M 57.6 307.584 
L 414.72 307.584 
" style="fill: none; stroke: #ffffff; stroke-width: 1.25; stroke-linejoin: miter; stroke-linecap: square"/>
   </g>
   <g id="patch_6">
    <path d="M 57.6 41.472 
L 414.72 41.472 
" style="fill: none; stroke: #ffffff; stroke-width: 1.25; stroke-linejoin: miter; stroke-linecap: square"/>
   </g>
   <g id="text_8">
    <!-- Precision-recall curve -->
    <g style="fill: #262626" transform="translate(44.206875 35.472)scale(0.36 -0.36)">
     <defs>
      <path id="DejaVuSans-2d" d="M 313 2009 
L 1997 2009 
L 1997 1497 
L 313 1497 
L 313 2009 
z
" transform="scale(0.015625)"/>
      <path id="DejaVuSans-75" d="M 544 1381 
L 544 3500 
L 1119 3500 
L 1119 1403 
Q 1119 906 1312 657 
Q 1506 409 1894 409 
Q 2359 409 2629 706 
Q 2900 1003 2900 1516 
L 2900 3500 
L 3475 3500 
L 3475 0 
L 2900 0 
L 2900 538 
Q 2691 219 2414 64 
Q 2138 -91 1772 -91 
Q 1169 -91 856 284 
Q 544 659 544 1381 
z
M 1991 3584 
L 1991 3584 
z
" transform="scale(0.015625)"/>
     </defs>
     <use xlink:href="#DejaVuSans-50"/>
     <use xlink:href="#DejaVuSans-72" x="58.552734"/>
     <use xlink:href="#DejaVuSans-65" x="97.416016"/>
     <use xlink:href="#DejaVuSans-63" x="158.939453"/>
     <use xlink:href="#DejaVuSans-69" x="213.919922"/>
     <use xlink:href="#DejaVuSans-73" x="241.703125"/>
     <use xlink:href="#DejaVuSans-69" x="293.802734"/>
     <use xlink:href="#DejaVuSans-6f" x="321.585938"/>
     <use xlink:href="#DejaVuSans-6e" x="382.767578"/>
     <use xlink:href="#DejaVuSans-2d" x="446.146484"/>
     <use xlink:href="#DejaVuSans-72" x="482.230469"/>
     <use xlink:href="#DejaVuSans-65" x="521.09375"/>
     <use xlink:href="#DejaVuSans-63" x="582.617188"/>
     <use xlink:href="#DejaVuSans-61" x="637.597656"/>
     <use xlink:href="#DejaVuSans-6c" x="698.876953"/>
     <use xlink:href="#DejaVuSans-6c" x="726.660156"/>
     <use xlink:href="#DejaVuSans-20" x="754.443359"/>
     <use xlink:href="#DejaVuSans-63" x="786.230469"/>
     <use xlink:href="#DejaVuSans-75" x="841.210938"/>
     <use xlink:href="#DejaVuSans-72" x="904.589844"/>
     <use xlink:href="#DejaVuSans-76" x="945.703125"/>
     <use xlink:href="#DejaVuSans-65" x="1004.882812"/>
    </g>
   </g>
   <g id="legend_1">
    <g id="patch_7">
     <path d="M 80.7 291.084 
L 635.445469 291.084 
Q 642.045469 291.084 642.045469 284.484 
L 642.045469 239.346187 
Q 642.045469 232.746187 635.445469 232.746187 
L 80.7 232.746187 
Q 74.1 232.746187 74.1 239.346187 
L 74.1 284.484 
Q 74.1 291.084 80.7 291.084 
z
" style="fill: #eaeaf2; opacity: 0.8; stroke: #cccccc; stroke-linejoin: miter"/>
    </g>
    <g id="line2d_7">
     <path d="M 87.3 259.471031 
L 120.3 259.471031 
L 120.3 259.471031 
L 153.3 259.471031 
L 153.3 259.471031 
" style="fill: none; stroke: #4c72b0; stroke-width: 1.5; stroke-linecap: round"/>
    </g>
    <g id="text_9">
     <!-- Random Forest (AP = 0.81) -->
     <g style="fill: #262626" transform="translate(179.7 271.021031)scale(0.33 -0.33)">
      <defs>
       <path id="DejaVuSans-64" d="M 2906 2969 
L 2906 4863 
L 3481 4863 
L 3481 0 
L 2906 0 
L 2906 525 
Q 2725 213 2448 61 
Q 2172 -91 1784 -91 
Q 1150 -91 751 415 
Q 353 922 353 1747 
Q 353 2572 751 3078 
Q 1150 3584 1784 3584 
Q 2172 3584 2448 3432 
Q 2725 3281 2906 2969 
z
M 947 1747 
Q 947 1113 1208 752 
Q 1469 391 1925 391 
Q 2381 391 2643 752 
Q 2906 1113 2906 1747 
Q 2906 2381 2643 2742 
Q 2381 3103 1925 3103 
Q 1469 3103 1208 2742 
Q 947 2381 947 1747 
z
" transform="scale(0.015625)"/>
       <path id="DejaVuSans-6d" d="M 3328 2828 
Q 3544 3216 3844 3400 
Q 4144 3584 4550 3584 
Q 5097 3584 5394 3201 
Q 5691 2819 5691 2113 
L 5691 0 
L 5113 0 
L 5113 2094 
Q 5113 2597 4934 2840 
Q 4756 3084 4391 3084 
Q 3944 3084 3684 2787 
Q 3425 2491 3425 1978 
L 3425 0 
L 2847 0 
L 2847 2094 
Q 2847 2600 2669 2842 
Q 2491 3084 2119 3084 
Q 1678 3084 1418 2786 
Q 1159 2488 1159 1978 
L 1159 0 
L 581 0 
L 581 3500 
L 1159 3500 
L 1159 2956 
Q 1356 3278 1631 3431 
Q 1906 3584 2284 3584 
Q 2666 3584 2933 3390 
Q 3200 3197 3328 2828 
z
" transform="scale(0.015625)"/>
       <path id="DejaVuSans-46" d="M 628 4666 
L 3309 4666 
L 3309 4134 
L 1259 4134 
L 1259 2759 
L 3109 2759 
L 3109 2228 
L 1259 2228 
L 1259 0 
L 628 0 
L 628 4666 
z
" transform="scale(0.015625)"/>
       <path id="DejaVuSans-41" d="M 2188 4044 
L 1331 1722 
L 3047 1722 
L 2188 4044 
z
M 1831 4666 
L 2547 4666 
L 4325 0 
L 3669 0 
L 3244 1197 
L 1141 1197 
L 716 0 
L 50 0 
L 1831 4666 
z
" transform="scale(0.015625)"/>
       <path id="DejaVuSans-3d" d="M 678 2906 
L 4684 2906 
L 4684 2381 
L 678 2381 
L 678 2906 
z
M 678 1631 
L 4684 1631 
L 4684 1100 
L 678 1100 
L 678 1631 
z
" transform="scale(0.015625)"/>
       <path id="DejaVuSans-38" d="M 2034 2216 
Q 1584 2216 1326 1975 
Q 1069 1734 1069 1313 
Q 1069 891 1326 650 
Q 1584 409 2034 409 
Q 2484 409 2743 651 
Q 3003 894 3003 1313 
Q 3003 1734 2745 1975 
Q 2488 2216 2034 2216 
z
M 1403 2484 
Q 997 2584 770 2862 
Q 544 3141 544 3541 
Q 544 4100 942 4425 
Q 1341 4750 2034 4750 
Q 2731 4750 3128 4425 
Q 3525 4100 3525 3541 
Q 3525 3141 3298 2862 
Q 3072 2584 2669 2484 
Q 3125 2378 3379 2068 
Q 3634 1759 3634 1313 
Q 3634 634 3220 271 
Q 2806 -91 2034 -91 
Q 1263 -91 848 271 
Q 434 634 434 1313 
Q 434 1759 690 2068 
Q 947 2378 1403 2484 
z
M 1172 3481 
Q 1172 3119 1398 2916 
Q 1625 2713 2034 2713 
Q 2441 2713 2670 2916 
Q 2900 3119 2900 3481 
Q 2900 3844 2670 4047 
Q 2441 4250 2034 4250 
Q 1625 4250 1398 4047 
Q 1172 3844 1172 3481 
z
" transform="scale(0.015625)"/>
      </defs>
      <use xlink:href="#DejaVuSans-52"/>
      <use xlink:href="#DejaVuSans-61" x="67.232422"/>
      <use xlink:href="#DejaVuSans-6e" x="128.511719"/>
      <use xlink:href="#DejaVuSans-64" x="191.890625"/>
      <use xlink:href="#DejaVuSans-6f" x="255.367188"/>
      <use xlink:href="#DejaVuSans-6d" x="316.548828"/>
      <use xlink:href="#DejaVuSans-20" x="413.960938"/>
      <use xlink:href="#DejaVuSans-46" x="445.748047"/>
      <use xlink:href="#DejaVuSans-6f" x="499.642578"/>
      <use xlink:href="#DejaVuSans-72" x="560.824219"/>
      <use xlink:href="#DejaVuSans-65" x="599.6875"/>
      <use xlink:href="#DejaVuSans-73" x="661.210938"/>
      <use xlink:href="#DejaVuSans-74" x="713.310547"/>
      <use xlink:href="#DejaVuSans-20" x="752.519531"/>
      <use xlink:href="#DejaVuSans-28" x="784.306641"/>
      <use xlink:href="#DejaVuSans-41" x="823.320312"/>
      <use xlink:href="#DejaVuSans-50" x="891.728516"/>
      <use xlink:href="#DejaVuSans-20" x="952.03125"/>
      <use xlink:href="#DejaVuSans-3d" x="983.818359"/>
      <use xlink:href="#DejaVuSans-20" x="1067.607422"/>
      <use xlink:href="#DejaVuSans-30" x="1099.394531"/>
      <use xlink:href="#DejaVuSans-2e" x="1163.017578"/>
      <use xlink:href="#DejaVuSans-38" x="1194.804688"/>
      <use xlink:href="#DejaVuSans-31" x="1258.427734"/>
      <use xlink:href="#DejaVuSans-29" x="1322.050781"/>
     </g>
    </g>
   </g>
  </g>
 </g>
 <defs>
  <clipPath id="pb11a927720">
   <rect x="57.6" y="41.472" width="357.12" height="266.112"/>
  </clipPath>
 </defs>
</svg>
