<?xml version="1.0" encoding="utf-8" standalone="no"?>
<!DOCTYPE svg PUBLIC "-//W3C//DTD SVG 1.1//EN"
  "http://www.w3.org/Graphics/SVG/1.1/DTD/svg11.dtd">
<svg xmlns:xlink="http://www.w3.org/1999/xlink" width="460.8pt" height="345.6pt" viewBox="0 0 460.8 345.6" xmlns="http://www.w3.org/2000/svg" version="1.1">
 <metadata>
  <rdf:RDF xmlns:dc="http://purl.org/dc/elements/1.1/" xmlns:cc="http://creativecommons.org/ns#" xmlns:rdf="http://www.w3.org/1999/02/22-rdf-syntax-ns#">
   <cc:Work>
    <dc:type rdf:resource="http://purl.org/dc/dcmitype/StillImage"/>
    <dc:date>2022-11-22T04:11:55.870773</dc:date>
    <dc:format>image/svg+xml</dc:format>
    <dc:creator>
     <cc:Agent>
      <dc:title>Matplotlib v3.5.2, https://matplotlib.org/</dc:title>
     </cc:Agent>
    </dc:creator>
   </cc:Work>
  </rdf:RDF>
 </metadata>
 <defs>
  <style type="text/css">*{stroke-linejoin: round; stroke-linecap: butt}</style>
 </defs>
 <g id="figure_1">
  <g id="patch_1">
   <path d="M 0 345.6 
L 460.8 345.6 
L 460.8 0 
L 0 0 
z
" style="fill: #ffffff"/>
  </g>
  <g id="axes_1">
   <g id="patch_2">
    <path d="M 57.6 307.584 
L 414.72 307.584 
L 414.72 41.472 
L 57.6 41.472 
z
" style="fill: #eaeaf2"/>
   </g>
   <g id="matplotlib.axis_1">
    <g id="xtick_1">
     <g id="line2d_1">
      <path d="M 73.832727 307.584 
L 73.832727 41.472 
" clip-path="url(#pe11da6ac4a)" style="fill: none; stroke: #ffffff; stroke-linecap: round"/>
     </g>
     <g id="text_1">
      <!-- 0.0 -->
      <g style="fill: #262626" transform="translate(47.592571 342.158844)scale(0.33 -0.33)">
       <defs>
        <path id="DejaVuSans-30" d="M 2034 4250 
Q 1547 4250 1301 3770 
Q 1056 3291 1056 2328 
Q 1056 1369 1301 889 
Q 1547 409 2034 409 
Q 2525 409 2770 889 
Q 3016 1369 3016 2328 
Q 3016 3291 2770 3770 
Q 2525 4250 2034 4250 
z
M 2034 4750 
Q 2819 4750 3233 4129 
Q 3647 3509 3647 2328 
Q 3647 1150 3233 529 
Q 2819 -91 2034 -91 
Q 1250 -91 836 529 
Q 422 1150 422 2328 
Q 422 3509 836 4129 
Q 1250 4750 2034 4750 
z
" transform="scale(0.015625)"/>
        <path id="DejaVuSans-2e" d="M 684 794 
L 1344 794 
L 1344 0 
L 684 0 
L 684 794 
z
" transform="scale(0.015625)"/>
       </defs>
       <use xlink:href="#DejaVuSans-30"/>
       <use xlink:href="#DejaVuSans-2e" x="63.623047"/>
       <use xlink:href="#DejaVuSans-30" x="95.410156"/>
      </g>
     </g>
    </g>
    <g id="xtick_2">
     <g id="line2d_2">
      <path d="M 236.16 307.584 
L 236.16 41.472 
" clip-path="url(#pe11da6ac4a)" style="fill: none; stroke: #ffffff; stroke-linecap: round"/>
     </g>
     <g id="text_2">
      <!-- 0.5 -->
      <g style="fill: #262626" transform="translate(209.919844 342.158844)scale(0.33 -0.33)">
       <defs>
        <path id="DejaVuSans-35" d="M 691 4666 
L 3169 4666 
L 3169 4134 
L 1269 4134 
L 1269 2991 
Q 1406 3038 1543 3061 
Q 1681 3084 1819 3084 
Q 2600 3084 3056 2656 
Q 3513 2228 3513 1497 
Q 3513 744 3044 326 
Q 2575 -91 1722 -91 
Q 1428 -91 1123 -41 
Q 819 9 494 109 
L 494 744 
Q 775 591 1075 516 
Q 1375 441 1709 441 
Q 2250 441 2565 725 
Q 2881 1009 2881 1497 
Q 2881 1984 2565 2268 
Q 2250 2553 1709 2553 
Q 1456 2553 1204 2497 
Q 953 2441 691 2322 
L 691 4666 
z
" transform="scale(0.015625)"/>
       </defs>
       <use xlink:href="#DejaVuSans-30"/>
       <use xlink:href="#DejaVuSans-2e" x="63.623047"/>
       <use xlink:href="#DejaVuSans-35" x="95.410156"/>
      </g>
     </g>
    </g>
    <g id="xtick_3">
     <g id="line2d_3">
      <path d="M 398.487273 307.584 
L 398.487273 41.472 
" clip-path="url(#pe11da6ac4a)" style="fill: none; stroke: #ffffff; stroke-linecap: round"/>
     </g>
     <g id="text_3">
      <!-- 1.0 -->
      <g style="fill: #262626" transform="translate(372.247116 342.158844)scale(0.33 -0.33)">
       <defs>
        <path id="DejaVuSans-31" d="M 794 531 
L 1825 531 
L 1825 4091 
L 703 3866 
L 703 4441 
L 1819 4666 
L 2450 4666 
L 2450 531 
L 3481 531 
L 3481 0 
L 794 0 
L 794 531 
z
" transform="scale(0.015625)"/>
       </defs>
       <use xlink:href="#DejaVuSans-31"/>
       <use xlink:href="#DejaVuSans-2e" x="63.623047"/>
       <use xlink:href="#DejaVuSans-30" x="95.410156"/>
      </g>
     </g>
    </g>
    <g id="text_4">
     <!-- Recall (Positive label: 1.0) -->
     <g style="fill: #262626" transform="translate(3.647813 380.376187)scale(0.36 -0.36)">
      <defs>
       <path id="DejaVuSans-52" d="M 2841 2188 
Q 3044 2119 3236 1894 
Q 3428 1669 3622 1275 
L 4263 0 
L 3584 0 
L 2988 1197 
Q 2756 1666 2539 1819 
Q 2322 1972 1947 1972 
L 1259 1972 
L 1259 0 
L 628 0 
L 628 4666 
L 2053 4666 
Q 2853 4666 3247 4331 
Q 3641 3997 3641 3322 
Q 3641 2881 3436 2590 
Q 3231 2300 2841 2188 
z
M 1259 4147 
L 1259 2491 
L 2053 2491 
Q 2509 2491 2742 2702 
Q 2975 2913 2975 3322 
Q 2975 3731 2742 3939 
Q 2509 4147 2053 4147 
L 1259 4147 
z
" transform="scale(0.015625)"/>
       <path id="DejaVuSans-65" d="M 3597 1894 
L 3597 1613 
L 953 1613 
Q 991 1019 1311 708 
Q 1631 397 2203 397 
Q 2534 397 2845 478 
Q 3156 559 3463 722 
L 3463 178 
Q 3153 47 2828 -22 
Q 2503 -91 2169 -91 
Q 1331 -91 842 396 
Q 353 884 353 1716 
Q 353 2575 817 3079 
Q 1281 3584 2069 3584 
Q 2775 3584 3186 3129 
Q 3597 2675 3597 1894 
z
M 3022 2063 
Q 3016 2534 2758 2815 
Q 2500 3097 2075 3097 
Q 1594 3097 1305 2825 
Q 1016 2553 972 2059 
L 3022 2063 
z
" transform="scale(0.015625)"/>
       <path id="DejaVuSans-63" d="M 3122 3366 
L 3122 2828 
Q 2878 2963 2633 3030 
Q 2388 3097 2138 3097 
Q 1578 3097 1268 2742 
Q 959 2388 959 1747 
Q 959 1106 1268 751 
Q 1578 397 2138 397 
Q 2388 397 2633 464 
Q 2878 531 3122 666 
L 3122 134 
Q 2881 22 2623 -34 
Q 2366 -91 2075 -91 
Q 1284 -91 818 406 
Q 353 903 353 1747 
Q 353 2603 823 3093 
Q 1294 3584 2113 3584 
Q 2378 3584 2631 3529 
Q 2884 3475 3122 3366 
z
" transform="scale(0.015625)"/>
       <path id="DejaVuSans-61" d="M 2194 1759 
Q 1497 1759 1228 1600 
Q 959 1441 959 1056 
Q 959 750 1161 570 
Q 1363 391 1709 391 
Q 2188 391 2477 730 
Q 2766 1069 2766 1631 
L 2766 1759 
L 2194 1759 
z
M 3341 1997 
L 3341 0 
L 2766 0 
L 2766 531 
Q 2569 213 2275 61 
Q 1981 -91 1556 -91 
Q 1019 -91 701 211 
Q 384 513 384 1019 
Q 384 1609 779 1909 
Q 1175 2209 1959 2209 
L 2766 2209 
L 2766 2266 
Q 2766 2663 2505 2880 
Q 2244 3097 1772 3097 
Q 1472 3097 1187 3025 
Q 903 2953 641 2809 
L 641 3341 
Q 956 3463 1253 3523 
Q 1550 3584 1831 3584 
Q 2591 3584 2966 3190 
Q 3341 2797 3341 1997 
z
" transform="scale(0.015625)"/>
       <path id="DejaVuSans-6c" d="M 603 4863 
L 1178 4863 
L 1178 0 
L 603 0 
L 603 4863 
z
" transform="scale(0.015625)"/>
       <path id="DejaVuSans-20" transform="scale(0.015625)"/>
       <path id="DejaVuSans-28" d="M 1984 4856 
Q 1566 4138 1362 3434 
Q 1159 2731 1159 2009 
Q 1159 1288 1364 580 
Q 1569 -128 1984 -844 
L 1484 -844 
Q 1016 -109 783 600 
Q 550 1309 550 2009 
Q 550 2706 781 3412 
Q 1013 4119 1484 4856 
L 1984 4856 
z
" transform="scale(0.015625)"/>
       <path id="DejaVuSans-50" d="M 1259 4147 
L 1259 2394 
L 2053 2394 
Q 2494 2394 2734 2622 
Q 2975 2850 2975 3272 
Q 2975 3691 2734 3919 
Q 2494 4147 2053 4147 
L 1259 4147 
z
M 628 4666 
L 2053 4666 
Q 2838 4666 3239 4311 
Q 3641 3956 3641 3272 
Q 3641 2581 3239 2228 
Q 2838 1875 2053 1875 
L 1259 1875 
L 1259 0 
L 628 0 
L 628 4666 
z
" transform="scale(0.015625)"/>
       <path id="DejaVuSans-6f" d="M 1959 3097 
Q 1497 3097 1228 2736 
Q 959 2375 959 1747 
Q 959 1119 1226 758 
Q 1494 397 1959 397 
Q 2419 397 2687 759 
Q 2956 1122 2956 1747 
Q 2956 2369 2687 2733 
Q 2419 3097 1959 3097 
z
M 1959 3584 
Q 2709 3584 3137 3096 
Q 3566 2609 3566 1747 
Q 3566 888 3137 398 
Q 2709 -91 1959 -91 
Q 1206 -91 779 398 
Q 353 888 353 1747 
Q 353 2609 779 3096 
Q 1206 3584 1959 3584 
z
" transform="scale(0.015625)"/>
       <path id="DejaVuSans-73" d="M 2834 3397 
L 2834 2853 
Q 2591 2978 2328 3040 
Q 2066 3103 1784 3103 
Q 1356 3103 1142 2972 
Q 928 2841 928 2578 
Q 928 2378 1081 2264 
Q 1234 2150 1697 2047 
L 1894 2003 
Q 2506 1872 2764 1633 
Q 3022 1394 3022 966 
Q 3022 478 2636 193 
Q 2250 -91 1575 -91 
Q 1294 -91 989 -36 
Q 684 19 347 128 
L 347 722 
Q 666 556 975 473 
Q 1284 391 1588 391 
Q 1994 391 2212 530 
Q 2431 669 2431 922 
Q 2431 1156 2273 1281 
Q 2116 1406 1581 1522 
L 1381 1569 
Q 847 1681 609 1914 
Q 372 2147 372 2553 
Q 372 3047 722 3315 
Q 1072 3584 1716 3584 
Q 2034 3584 2315 3537 
Q 2597 3491 2834 3397 
z
" transform="scale(0.015625)"/>
       <path id="DejaVuSans-69" d="M 603 3500 
L 1178 3500 
L 1178 0 
L 603 0 
L 603 3500 
z
M 603 4863 
L 1178 4863 
L 1178 4134 
L 603 4134 
L 603 4863 
z
" transform="scale(0.015625)"/>
       <path id="DejaVuSans-74" d="M 1172 4494 
L 1172 3500 
L 2356 3500 
L 2356 3053 
L 1172 3053 
L 1172 1153 
Q 1172 725 1289 603 
Q 1406 481 1766 481 
L 2356 481 
L 2356 0 
L 1766 0 
Q 1100 0 847 248 
Q 594 497 594 1153 
L 594 3053 
L 172 3053 
L 172 3500 
L 594 3500 
L 594 4494 
L 1172 4494 
z
" transform="scale(0.015625)"/>
       <path id="DejaVuSans-76" d="M 191 3500 
L 800 3500 
L 1894 563 
L 2988 3500 
L 3597 3500 
L 2284 0 
L 1503 0 
L 191 3500 
z
" transform="scale(0.015625)"/>
       <path id="DejaVuSans-62" d="M 3116 1747 
Q 3116 2381 2855 2742 
Q 2594 3103 2138 3103 
Q 1681 3103 1420 2742 
Q 1159 2381 1159 1747 
Q 1159 1113 1420 752 
Q 1681 391 2138 391 
Q 2594 391 2855 752 
Q 3116 1113 3116 1747 
z
M 1159 2969 
Q 1341 3281 1617 3432 
Q 1894 3584 2278 3584 
Q 2916 3584 3314 3078 
Q 3713 2572 3713 1747 
Q 3713 922 3314 415 
Q 2916 -91 2278 -91 
Q 1894 -91 1617 61 
Q 1341 213 1159 525 
L 1159 0 
L 581 0 
L 581 4863 
L 1159 4863 
L 1159 2969 
z
" transform="scale(0.015625)"/>
       <path id="DejaVuSans-3a" d="M 750 794 
L 1409 794 
L 1409 0 
L 750 0 
L 750 794 
z
M 750 3309 
L 1409 3309 
L 1409 2516 
L 750 2516 
L 750 3309 
z
" transform="scale(0.015625)"/>
       <path id="DejaVuSans-29" d="M 513 4856 
L 1013 4856 
Q 1481 4119 1714 3412 
Q 1947 2706 1947 2009 
Q 1947 1309 1714 600 
Q 1481 -109 1013 -844 
L 513 -844 
Q 928 -128 1133 580 
Q 1338 1288 1338 2009 
Q 1338 2731 1133 3434 
Q 928 4138 513 4856 
z
" transform="scale(0.015625)"/>
      </defs>
      <use xlink:href="#DejaVuSans-52"/>
      <use xlink:href="#DejaVuSans-65" x="64.982422"/>
      <use xlink:href="#DejaVuSans-63" x="126.505859"/>
      <use xlink:href="#DejaVuSans-61" x="181.486328"/>
      <use xlink:href="#DejaVuSans-6c" x="242.765625"/>
      <use xlink:href="#DejaVuSans-6c" x="270.548828"/>
      <use xlink:href="#DejaVuSans-20" x="298.332031"/>
      <use xlink:href="#DejaVuSans-28" x="330.119141"/>
      <use xlink:href="#DejaVuSans-50" x="369.132812"/>
      <use xlink:href="#DejaVuSans-6f" x="425.810547"/>
      <use xlink:href="#DejaVuSans-73" x="486.992188"/>
      <use xlink:href="#DejaVuSans-69" x="539.091797"/>
      <use xlink:href="#DejaVuSans-74" x="566.875"/>
      <use xlink:href="#DejaVuSans-69" x="606.083984"/>
      <use xlink:href="#DejaVuSans-76" x="633.867188"/>
      <use xlink:href="#DejaVuSans-65" x="693.046875"/>
      <use xlink:href="#DejaVuSans-20" x="754.570312"/>
      <use xlink:href="#DejaVuSans-6c" x="786.357422"/>
      <use xlink:href="#DejaVuSans-61" x="814.140625"/>
      <use xlink:href="#DejaVuSans-62" x="875.419922"/>
      <use xlink:href="#DejaVuSans-65" x="938.896484"/>
      <use xlink:href="#DejaVuSans-6c" x="1000.419922"/>
      <use xlink:href="#DejaVuSans-3a" x="1028.203125"/>
      <use xlink:href="#DejaVuSans-20" x="1061.894531"/>
      <use xlink:href="#DejaVuSans-31" x="1093.681641"/>
      <use xlink:href="#DejaVuSans-2e" x="1157.304688"/>
      <use xlink:href="#DejaVuSans-30" x="1189.091797"/>
      <use xlink:href="#DejaVuSans-29" x="1252.714844"/>
     </g>
    </g>
   </g>
   <g id="matplotlib.axis_2">
    <g id="ytick_1">
     <g id="line2d_4">
      <path d="M 57.6 183.776685 
L 414.72 183.776685 
" clip-path="url(#pe11da6ac4a)" style="fill: none; stroke: #ffffff; stroke-linecap: round"/>
     </g>
     <g id="text_5">
      <!-- 0.5 -->
      <g style="fill: #262626" transform="translate(-4.380313 196.314107)scale(0.33 -0.33)">
       <use xlink:href="#DejaVuSans-30"/>
       <use xlink:href="#DejaVuSans-2e" x="63.623047"/>
       <use xlink:href="#DejaVuSans-35" x="95.410156"/>
      </g>
     </g>
    </g>
    <g id="ytick_2">
     <g id="line2d_5">
      <path d="M 57.6 53.568 
L 414.72 53.568 
" clip-path="url(#pe11da6ac4a)" style="fill: none; stroke: #ffffff; stroke-linecap: round"/>
     </g>
     <g id="text_6">
      <!-- 1.0 -->
      <g style="fill: #262626" transform="translate(-4.380313 66.105422)scale(0.33 -0.33)">
       <use xlink:href="#DejaVuSans-31"/>
       <use xlink:href="#DejaVuSans-2e" x="63.623047"/>
       <use xlink:href="#DejaVuSans-30" x="95.410156"/>
      </g>
     </g>
    </g>
    <g id="text_7">
     <!-- Precision (Positive label: 1.0) -->
     <g style="fill: #262626" transform="translate(-15.867188 433.643625)rotate(-90)scale(0.36 -0.36)">
      <defs>
       <path id="DejaVuSans-72" d="M 2631 2963 
Q 2534 3019 2420 3045 
Q 2306 3072 2169 3072 
Q 1681 3072 1420 2755 
Q 1159 2438 1159 1844 
L 1159 0 
L 581 0 
L 581 3500 
L 1159 3500 
L 1159 2956 
Q 1341 3275 1631 3429 
Q 1922 3584 2338 3584 
Q 2397 3584 2469 3576 
Q 2541 3569 2628 3553 
L 2631 2963 
z
" transform="scale(0.015625)"/>
       <path id="DejaVuSans-6e" d="M 3513 2113 
L 3513 0 
L 2938 0 
L 2938 2094 
Q 2938 2591 2744 2837 
Q 2550 3084 2163 3084 
Q 1697 3084 1428 2787 
Q 1159 2491 1159 1978 
L 1159 0 
L 581 0 
L 581 3500 
L 1159 3500 
L 1159 2956 
Q 1366 3272 1645 3428 
Q 1925 3584 2291 3584 
Q 2894 3584 3203 3211 
Q 3513 2838 3513 2113 
z
" transform="scale(0.015625)"/>
      </defs>
      <use xlink:href="#DejaVuSans-50"/>
      <use xlink:href="#DejaVuSans-72" x="58.552734"/>
      <use xlink:href="#DejaVuSans-65" x="97.416016"/>
      <use xlink:href="#DejaVuSans-63" x="158.939453"/>
      <use xlink:href="#DejaVuSans-69" x="213.919922"/>
      <use xlink:href="#DejaVuSans-73" x="241.703125"/>
      <use xlink:href="#DejaVuSans-69" x="293.802734"/>
      <use xlink:href="#DejaVuSans-6f" x="321.585938"/>
      <use xlink:href="#DejaVuSans-6e" x="382.767578"/>
      <use xlink:href="#DejaVuSans-20" x="446.146484"/>
      <use xlink:href="#DejaVuSans-28" x="477.933594"/>
      <use xlink:href="#DejaVuSans-50" x="516.947266"/>
      <use xlink:href="#DejaVuSans-6f" x="573.625"/>
      <use xlink:href="#DejaVuSans-73" x="634.806641"/>
      <use xlink:href="#DejaVuSans-69" x="686.90625"/>
      <use xlink:href="#DejaVuSans-74" x="714.689453"/>
      <use xlink:href="#DejaVuSans-69" x="753.898438"/>
      <use xlink:href="#DejaVuSans-76" x="781.681641"/>
      <use xlink:href="#DejaVuSans-65" x="840.861328"/>
      <use xlink:href="#DejaVuSans-20" x="902.384766"/>
      <use xlink:href="#DejaVuSans-6c" x="934.171875"/>
      <use xlink:href="#DejaVuSans-61" x="961.955078"/>
      <use xlink:href="#DejaVuSans-62" x="1023.234375"/>
      <use xlink:href="#DejaVuSans-65" x="1086.710938"/>
      <use xlink:href="#DejaVuSans-6c" x="1148.234375"/>
      <use xlink:href="#DejaVuSans-3a" x="1176.017578"/>
      <use xlink:href="#DejaVuSans-20" x="1209.708984"/>
      <use xlink:href="#DejaVuSans-31" x="1241.496094"/>
      <use xlink:href="#DejaVuSans-2e" x="1305.119141"/>
      <use xlink:href="#DejaVuSans-30" x="1336.90625"/>
      <use xlink:href="#DejaVuSans-29" x="1400.529297"/>
     </g>
    </g>
   </g>
   <g id="line2d_6">
    <path d="M 398.487273 295.488 
L 398.487273 242.005601 
L 397.97681 242.005601 
L 397.97681 241.89948 
L 397.97681 241.552155 
L 396.955883 241.4438 
L 396.955883 241.462627 
L 396.955883 240.558111 
L 396.44542 240.558111 
L 396.44542 240.576013 
L 396.44542 224.78007 
L 395.424494 224.872918 
L 395.424494 224.965867 
L 395.424494 224.626468 
L 394.914031 224.626468 
L 394.914031 224.524678 
L 394.914031 224.132092 
L 394.403568 224.132092 
L 394.403568 224.028214 
L 394.403568 223.978706 
L 393.382642 223.978706 
L 393.382642 224.166486 
L 393.382642 224.116972 
L 392.872178 224.116972 
L 392.872178 224.012536 
L 392.872178 176.052441 
L 392.361715 176.052441 
L 392.361715 176.039327 
L 392.361715 173.535552 
L 391.340789 173.517819 
L 391.340789 173.621761 
L 391.340789 173.378075 
L 390.319863 173.482167 
L 390.319863 173.58644 
L 388.788473 173.673308 
L 388.788473 173.532995 
L 388.788473 172.294437 
L 388.27801 172.294437 
L 388.27801 172.274151 
L 388.27801 171.897593 
L 387.767547 171.897593 
L 387.767547 171.876512 
L 387.767547 171.370336 
L 387.257084 171.370336 
L 387.257084 171.348202 
L 387.257084 171.093265 
L 386.746621 171.093265 
L 386.746621 171.070555 
L 386.746621 168.729821 
L 384.704768 168.647222 
L 384.704768 168.619487 
L 384.704768 161.197144 
L 383.683842 161.153554 
L 383.683842 161.109796 
L 383.683842 159.917783 
L 383.173379 159.917783 
L 383.173379 159.871184 
L 383.173379 159.720535 
L 382.662916 159.720535 
L 382.662916 159.673412 
L 382.662916 159.370543 
L 382.152453 159.370543 
L 382.152453 159.322546 
L 382.152453 157.786669 
L 381.64199 157.786669 
L 381.64199 157.734948 
L 381.64199 147.285079 
L 380.621063 147.207437 
L 380.621063 147.129464 
L 380.1106 147.129464 
L 380.1106 147.051158 
L 380.1106 146.334702 
L 379.089674 146.254182 
L 379.089674 145.446855 
L 378.579211 145.446855 
L 378.579211 145.363711 
L 378.579211 145.180625 
L 378.068748 145.180625 
L 378.068748 145.096629 
L 378.068748 144.912655 
L 377.558285 144.912655 
L 377.558285 144.827799 
L 377.558285 144.642927 
L 377.047822 144.642927 
L 377.047822 144.557201 
L 377.047822 144.371425 
L 376.537358 144.371425 
L 376.537358 144.28482 
L 376.537358 143.91103 
L 376.026895 143.91103 
L 376.026895 143.823027 
L 376.026895 143.257703 
L 375.005969 143.167761 
L 375.005969 143.077418 
L 373.985043 142.986673 
L 373.985043 142.512342 
L 372.453654 142.419718 
L 372.453654 141.845074 
L 371.94319 141.845074 
L 371.94319 141.750099 
L 371.94319 141.162933 
L 370.922264 141.162933 
L 370.922264 140.96835 
L 370.411801 140.96835 
L 370.411801 140.87039 
L 370.411801 140.473338 
L 368.880412 140.473338 
L 368.880412 140.173315 
L 367.859485 140.173315 
L 367.859485 139.970979 
L 367.349022 139.970979 
L 367.349022 139.869105 
L 367.349022 138.850881 
L 366.328096 138.745545 
L 366.328096 137.603392 
L 365.30717 137.493977 
L 365.30717 136.752571 
L 364.796707 136.752571 
L 364.796707 136.640207 
L 364.286244 136.640207 
L 364.286244 136.101236 
L 363.77578 136.101236 
L 363.77578 135.557063 
L 363.265317 135.557063 
L 363.265317 135.44045 
L 362.754854 135.44045 
L 362.754854 135.106448 
L 362.244391 135.106448 
L 362.244391 134.988029 
L 360.713002 134.988029 
L 360.713002 134.40922 
L 360.202539 134.40922 
L 360.202539 132.951733 
L 359.692075 132.951733 
L 359.692075 132.82546 
L 359.181612 132.82546 
L 359.181612 132.698558 
L 358.671149 132.698558 
L 358.671149 131.889013 
L 358.160686 131.889013 
L 358.160686 131.758642 
L 357.650223 131.758642 
L 357.650223 131.627615 
L 357.13976 131.627615 
L 357.13976 130.569583 
L 356.629297 130.569583 
L 356.629297 130.434196 
L 356.118834 130.434196 
L 356.118834 130.298118 
L 355.60837 130.298118 
L 355.60837 130.161344 
L 355.097907 130.161344 
L 355.097907 130.023869 
L 354.587444 130.023869 
L 354.587444 129.411203 
L 354.076981 129.411203 
L 354.076981 128.792188 
L 353.566518 128.792188 
L 353.566518 128.649371 
L 353.056055 128.649371 
L 353.056055 124.054301 
L 352.545592 124.054301 
L 352.545592 122.872623 
L 352.035129 122.872623 
L 352.035129 122.965899 
L 352.035129 122.708461 
L 351.524666 122.708461 
L 351.524666 122.801768 
L 351.524666 122.543411 
L 351.014202 122.543411 
L 351.014202 121.070456 
L 350.503739 121.070456 
L 350.503739 114.907493 
L 349.993276 114.907493 
L 349.993276 111.271993 
L 349.482813 111.271993 
L 349.482813 111.35514 
L 349.482813 91.828372 
L 348.97235 91.828372 
L 348.97235 91.88891 
L 348.97235 82.360019 
L 348.461887 82.360019 
L 348.461887 80.477795 
L 347.440961 80.477795 
L 347.440961 80.567794 
L 347.440961 75.380737 
L 346.930497 75.380737 
L 346.930497 74.598269 
L 346.420034 74.598269 
L 346.420034 71.715552 
L 345.909571 71.715552 
L 345.909571 71.747223 
L 345.909571 70.898753 
L 345.399108 70.898753 
L 345.399108 70.073326 
L 344.888645 70.073326 
L 344.888645 70.102436 
L 344.888645 69.671548 
L 343.867719 69.671548 
L 343.867719 67.983962 
L 342.846792 67.983962 
L 342.846792 65.362265 
L 342.336329 65.362265 
L 342.336329 64.022712 
L 338.763087 64.022712 
L 338.763087 64.157985 
L 338.763087 63.230982 
L 334.679383 63.339759 
L 334.679383 63.376564 
L 327.022436 63.413647 
L 327.022436 63.661696 
L 323.959657 63.681296 
L 323.959657 63.780446 
L 320.386415 63.881559 
L 320.386415 63.922567 
L 317.323636 64.026529 
L 317.323636 64.047572 
L 314.260858 64.154072 
L 314.260858 64.175632 
L 310.687616 64.262759 
L 310.687616 64.329048 
L 308.1353 64.329048 
L 308.1353 64.441377 
L 283.63307 64.441377 
L 283.63307 65.652333 
L 281.591218 65.737036 
L 281.591218 65.765535 
L 272.402882 65.765535 
L 272.402882 66.302346 
L 253.515746 66.396442 
L 253.515746 67.568934 
L 245.348336 67.644615 
L 245.348336 68.198189 
L 240.754168 68.198189 
L 240.754168 68.577647 
L 238.712316 68.664659 
L 238.712316 68.752686 
L 233.607684 68.752686 
L 233.607684 69.208683 
L 228.503053 69.303188 
L 228.503053 69.692915 
L 226.971664 69.742992 
L 226.971664 69.844086 
L 216.251938 69.844086 
L 216.251938 70.987222 
L 215.231012 70.987222 
L 215.231012 71.104523 
L 211.147307 71.104523 
L 211.147307 71.589963 
L 208.084528 71.589963 
L 208.084528 71.972054 
L 207.063602 71.972054 
L 207.063602 72.103044 
L 206.042676 72.169241 
L 206.042676 72.235912 
L 204.511286 72.303063 
L 204.511286 72.438824 
L 198.385729 72.438824 
L 198.385729 73.296589 
L 196.343877 73.371602 
L 196.343877 73.600105 
L 195.32295 73.600105 
L 195.32295 73.755393 
L 193.281098 73.755393 
L 193.281098 74.073305 
L 192.260172 74.154353 
L 192.260172 74.236045 
L 191.239245 74.318388 
L 191.239245 74.40139 
L 188.68693 74.40139 
L 188.68693 74.826561 
L 186.134614 74.913686 
L 186.134614 75.269447 
L 184.603225 75.360248 
L 184.603225 75.544149 
L 184.603225 74.533805 
L 184.092762 74.533805 
L 184.092762 74.623021 
L 184.092762 71.527819 
L 183.071835 71.605567 
L 183.071835 71.683991 
L 183.071835 69.55854 
L 180.51952 69.55854 
L 180.51952 69.917073 
L 179.498593 69.990717 
L 179.498593 67.837445 
L 178.477667 67.902901 
L 178.477667 67.968961 
L 177.456741 68.035632 
L 177.456741 68.102923 
L 176.435815 68.102923 
L 176.435815 68.239401 
L 175.414889 68.239401 
L 175.414889 68.378467 
L 174.393962 68.448993 
L 174.393962 68.520193 
L 173.373036 68.592079 
L 173.373036 68.664659 
L 169.799794 68.737944 
L 169.799794 69.193042 
L 168.778868 69.27156 
L 168.778868 69.350871 
L 160.100995 69.430987 
L 160.100995 70.83324 
L 147.84988 70.929158 
L 147.84988 73.472512 
L 147.339417 73.472512 
L 147.339417 73.600105 
L 145.297564 73.600105 
L 145.297564 74.127266 
L 144.787101 74.127266 
L 144.787101 74.26342 
L 143.766175 74.26342 
L 143.766175 74.541211 
L 143.766175 72.923345 
L 143.255712 72.923345 
L 143.255712 73.055014 
L 142.745249 73.055014 
L 142.745249 73.188487 
L 142.234786 73.188487 
L 142.234786 73.3238 
L 141.724322 73.3238 
L 141.724322 73.460994 
L 141.213859 73.460994 
L 141.213859 73.600105 
L 140.703396 73.600105 
L 140.703396 73.741177 
L 140.192933 73.741177 
L 140.192933 73.884249 
L 138.661544 73.884249 
L 138.661544 74.325906 
L 138.661544 69.00014 
L 138.151081 69.00014 
L 138.151081 67.274177 
L 136.619691 67.378012 
L 136.619691 67.590474 
L 135.598765 67.699175 
L 135.598765 67.809575 
L 135.088302 67.809575 
L 135.088302 67.921713 
L 130.494134 67.921713 
L 130.494134 69.016488 
L 129.983671 69.016488 
L 129.983671 69.148526 
L 129.473208 69.148526 
L 129.473208 69.282841 
L 128.962744 69.282841 
L 128.962744 67.274177 
L 128.452281 67.274177 
L 128.452281 67.395471 
L 127.941818 67.395471 
L 127.941818 67.518931 
L 127.431355 67.518931 
L 127.431355 67.644615 
L 126.920892 67.644615 
L 126.920892 67.772584 
L 126.410429 67.772584 
L 126.410429 67.902901 
L 125.899966 67.902901 
L 125.899966 68.035632 
L 125.899966 65.737036 
L 125.389503 65.737036 
L 125.389503 65.851838 
L 125.389503 63.488662 
L 124.368576 63.488662 
L 124.368576 63.681296 
L 123.34765 63.780446 
L 123.34765 63.881559 
L 122.326724 63.984695 
L 122.326724 61.53996 
L 121.816261 61.53996 
L 121.816261 58.993362 
L 121.305798 58.993362 
L 121.305798 56.338398 
L 119.263945 56.429729 
L 119.263945 56.461526 
L 117.222093 56.527288 
L 117.222093 56.596109 
L 117.222093 53.568 
L 73.832727 53.568 
L 73.832727 53.568 
" clip-path="url(#pe11da6ac4a)" style="fill: none; stroke: #4c72b0; stroke-width: 1.5; stroke-linecap: round"/>
   </g>
   <g id="patch_3">
    <path d="M 57.6 307.584 
L 57.6 41.472 
" style="fill: none; stroke: #ffffff; stroke-width: 1.25; stroke-linejoin: miter; stroke-linecap: square"/>
   </g>
   <g id="patch_4">
    <path d="M 414.72 307.584 
L 414.72 41.472 
" style="fill: none; stroke: #ffffff; stroke-width: 1.25; stroke-linejoin: miter; stroke-linecap: square"/>
   </g>
   <g id="patch_5">
    <path d="M 57.6 307.584 
L 414.72 307.584 
" style="fill: none; stroke: #ffffff; stroke-width: 1.25; stroke-linejoin: miter; stroke-linecap: square"/>
   </g>
   <g id="patch_6">
    <path d="M 57.6 41.472 
L 414.72 41.472 
" style="fill: none; stroke: #ffffff; stroke-width: 1.25; stroke-linejoin: miter; stroke-linecap: square"/>
   </g>
   <g id="text_8">
    <!-- Precision-recall curve -->
    <g style="fill: #262626" transform="translate(44.206875 35.472)scale(0.36 -0.36)">
     <defs>
      <path id="DejaVuSans-2d" d="M 313 2009 
L 1997 2009 
L 1997 1497 
L 313 1497 
L 313 2009 
z
" transform="scale(0.015625)"/>
      <path id="DejaVuSans-75" d="M 544 1381 
L 544 3500 
L 1119 3500 
L 1119 1403 
Q 1119 906 1312 657 
Q 1506 409 1894 409 
Q 2359 409 2629 706 
Q 2900 1003 2900 1516 
L 2900 3500 
L 3475 3500 
L 3475 0 
L 2900 0 
L 2900 538 
Q 2691 219 2414 64 
Q 2138 -91 1772 -91 
Q 1169 -91 856 284 
Q 544 659 544 1381 
z
M 1991 3584 
L 1991 3584 
z
" transform="scale(0.015625)"/>
     </defs>
     <use xlink:href="#DejaVuSans-50"/>
     <use xlink:href="#DejaVuSans-72" x="58.552734"/>
     <use xlink:href="#DejaVuSans-65" x="97.416016"/>
     <use xlink:href="#DejaVuSans-63" x="158.939453"/>
     <use xlink:href="#DejaVuSans-69" x="213.919922"/>
     <use xlink:href="#DejaVuSans-73" x="241.703125"/>
     <use xlink:href="#DejaVuSans-69" x="293.802734"/>
     <use xlink:href="#DejaVuSans-6f" x="321.585938"/>
     <use xlink:href="#DejaVuSans-6e" x="382.767578"/>
     <use xlink:href="#DejaVuSans-2d" x="446.146484"/>
     <use xlink:href="#DejaVuSans-72" x="482.230469"/>
     <use xlink:href="#DejaVuSans-65" x="521.09375"/>
     <use xlink:href="#DejaVuSans-63" x="582.617188"/>
     <use xlink:href="#DejaVuSans-61" x="637.597656"/>
     <use xlink:href="#DejaVuSans-6c" x="698.876953"/>
     <use xlink:href="#DejaVuSans-6c" x="726.660156"/>
     <use xlink:href="#DejaVuSans-20" x="754.443359"/>
     <use xlink:href="#DejaVuSans-63" x="786.230469"/>
     <use xlink:href="#DejaVuSans-75" x="841.210938"/>
     <use xlink:href="#DejaVuSans-72" x="904.589844"/>
     <use xlink:href="#DejaVuSans-76" x="945.703125"/>
     <use xlink:href="#DejaVuSans-65" x="1004.882812"/>
    </g>
   </g>
   <g id="legend_1">
    <g id="patch_7">
     <path d="M 80.7 291.084 
L 635.445469 291.084 
Q 642.045469 291.084 642.045469 284.484 
L 642.045469 239.346187 
Q 642.045469 232.746187 635.445469 232.746187 
L 80.7 232.746187 
Q 74.1 232.746187 74.1 239.346187 
L 74.1 284.484 
Q 74.1 291.084 80.7 291.084 
z
" style="fill: #eaeaf2; opacity: 0.8; stroke: #cccccc; stroke-linejoin: miter"/>
    </g>
    <g id="line2d_7">
     <path d="M 87.3 259.471031 
L 120.3 259.471031 
L 120.3 259.471031 
L 153.3 259.471031 
L 153.3 259.471031 
" style="fill: none; stroke: #4c72b0; stroke-width: 1.5; stroke-linecap: round"/>
    </g>
    <g id="text_9">
     <!-- Random Forest (AP = 0.90) -->
     <g style="fill: #262626" transform="translate(179.7 271.021031)scale(0.33 -0.33)">
      <defs>
       <path id="DejaVuSans-64" d="M 2906 2969 
L 2906 4863 
L 3481 4863 
L 3481 0 
L 2906 0 
L 2906 525 
Q 2725 213 2448 61 
Q 2172 -91 1784 -91 
Q 1150 -91 751 415 
Q 353 922 353 1747 
Q 353 2572 751 3078 
Q 1150 3584 1784 3584 
Q 2172 3584 2448 3432 
Q 2725 3281 2906 2969 
z
M 947 1747 
Q 947 1113 1208 752 
Q 1469 391 1925 391 
Q 2381 391 2643 752 
Q 2906 1113 2906 1747 
Q 2906 2381 2643 2742 
Q 2381 3103 1925 3103 
Q 1469 3103 1208 2742 
Q 947 2381 947 1747 
z
" transform="scale(0.015625)"/>
       <path id="DejaVuSans-6d" d="M 3328 2828 
Q 3544 3216 3844 3400 
Q 4144 3584 4550 3584 
Q 5097 3584 5394 3201 
Q 5691 2819 5691 2113 
L 5691 0 
L 5113 0 
L 5113 2094 
Q 5113 2597 4934 2840 
Q 4756 3084 4391 3084 
Q 3944 3084 3684 2787 
Q 3425 2491 3425 1978 
L 3425 0 
L 2847 0 
L 2847 2094 
Q 2847 2600 2669 2842 
Q 2491 3084 2119 3084 
Q 1678 3084 1418 2786 
Q 1159 2488 1159 1978 
L 1159 0 
L 581 0 
L 581 3500 
L 1159 3500 
L 1159 2956 
Q 1356 3278 1631 3431 
Q 1906 3584 2284 3584 
Q 2666 3584 2933 3390 
Q 3200 3197 3328 2828 
z
" transform="scale(0.015625)"/>
       <path id="DejaVuSans-46" d="M 628 4666 
L 3309 4666 
L 3309 4134 
L 1259 4134 
L 1259 2759 
L 3109 2759 
L 3109 2228 
L 1259 2228 
L 1259 0 
L 628 0 
L 628 4666 
z
" transform="scale(0.015625)"/>
       <path id="DejaVuSans-41" d="M 2188 4044 
L 1331 1722 
L 3047 1722 
L 2188 4044 
z
M 1831 4666 
L 2547 4666 
L 4325 0 
L 3669 0 
L 3244 1197 
L 1141 1197 
L 716 0 
L 50 0 
L 1831 4666 
z
" transform="scale(0.015625)"/>
       <path id="DejaVuSans-3d" d="M 678 2906 
L 4684 2906 
L 4684 2381 
L 678 2381 
L 678 2906 
z
M 678 1631 
L 4684 1631 
L 4684 1100 
L 678 1100 
L 678 1631 
z
" transform="scale(0.015625)"/>
       <path id="DejaVuSans-39" d="M 703 97 
L 703 672 
Q 941 559 1184 500 
Q 1428 441 1663 441 
Q 2288 441 2617 861 
Q 2947 1281 2994 2138 
Q 2813 1869 2534 1725 
Q 2256 1581 1919 1581 
Q 1219 1581 811 2004 
Q 403 2428 403 3163 
Q 403 3881 828 4315 
Q 1253 4750 1959 4750 
Q 2769 4750 3195 4129 
Q 3622 3509 3622 2328 
Q 3622 1225 3098 567 
Q 2575 -91 1691 -91 
Q 1453 -91 1209 -44 
Q 966 3 703 97 
z
M 1959 2075 
Q 2384 2075 2632 2365 
Q 2881 2656 2881 3163 
Q 2881 3666 2632 3958 
Q 2384 4250 1959 4250 
Q 1534 4250 1286 3958 
Q 1038 3666 1038 3163 
Q 1038 2656 1286 2365 
Q 1534 2075 1959 2075 
z
" transform="scale(0.015625)"/>
      </defs>
      <use xlink:href="#DejaVuSans-52"/>
      <use xlink:href="#DejaVuSans-61" x="67.232422"/>
      <use xlink:href="#DejaVuSans-6e" x="128.511719"/>
      <use xlink:href="#DejaVuSans-64" x="191.890625"/>
      <use xlink:href="#DejaVuSans-6f" x="255.367188"/>
      <use xlink:href="#DejaVuSans-6d" x="316.548828"/>
      <use xlink:href="#DejaVuSans-20" x="413.960938"/>
      <use xlink:href="#DejaVuSans-46" x="445.748047"/>
      <use xlink:href="#DejaVuSans-6f" x="499.642578"/>
      <use xlink:href="#DejaVuSans-72" x="560.824219"/>
      <use xlink:href="#DejaVuSans-65" x="599.6875"/>
      <use xlink:href="#DejaVuSans-73" x="661.210938"/>
      <use xlink:href="#DejaVuSans-74" x="713.310547"/>
      <use xlink:href="#DejaVuSans-20" x="752.519531"/>
      <use xlink:href="#DejaVuSans-28" x="784.306641"/>
      <use xlink:href="#DejaVuSans-41" x="823.320312"/>
      <use xlink:href="#DejaVuSans-50" x="891.728516"/>
      <use xlink:href="#DejaVuSans-20" x="952.03125"/>
      <use xlink:href="#DejaVuSans-3d" x="983.818359"/>
      <use xlink:href="#DejaVuSans-20" x="1067.607422"/>
      <use xlink:href="#DejaVuSans-30" x="1099.394531"/>
      <use xlink:href="#DejaVuSans-2e" x="1163.017578"/>
      <use xlink:href="#DejaVuSans-39" x="1194.804688"/>
      <use xlink:href="#DejaVuSans-30" x="1258.427734"/>
      <use xlink:href="#DejaVuSans-29" x="1322.050781"/>
     </g>
    </g>
   </g>
  </g>
 </g>
 <defs>
  <clipPath id="pe11da6ac4a">
   <rect x="57.6" y="41.472" width="357.12" height="266.112"/>
  </clipPath>
 </defs>
</svg>
