<?xml version="1.0" encoding="utf-8" standalone="no"?>
<!DOCTYPE svg PUBLIC "-//W3C//DTD SVG 1.1//EN"
  "http://www.w3.org/Graphics/SVG/1.1/DTD/svg11.dtd">
<svg xmlns:xlink="http://www.w3.org/1999/xlink" width="460.8pt" height="345.6pt" viewBox="0 0 460.8 345.6" xmlns="http://www.w3.org/2000/svg" version="1.1">
 <metadata>
  <rdf:RDF xmlns:dc="http://purl.org/dc/elements/1.1/" xmlns:cc="http://creativecommons.org/ns#" xmlns:rdf="http://www.w3.org/1999/02/22-rdf-syntax-ns#">
   <cc:Work>
    <dc:type rdf:resource="http://purl.org/dc/dcmitype/StillImage"/>
    <dc:date>2022-11-22T17:12:38.249480</dc:date>
    <dc:format>image/svg+xml</dc:format>
    <dc:creator>
     <cc:Agent>
      <dc:title>Matplotlib v3.5.2, https://matplotlib.org/</dc:title>
     </cc:Agent>
    </dc:creator>
   </cc:Work>
  </rdf:RDF>
 </metadata>
 <defs>
  <style type="text/css">*{stroke-linejoin: round; stroke-linecap: butt}</style>
 </defs>
 <g id="figure_1">
  <g id="patch_1">
   <path d="M 0 345.6 
L 460.8 345.6 
L 460.8 0 
L 0 0 
z
" style="fill: #ffffff"/>
  </g>
  <g id="axes_1">
   <g id="patch_2">
    <path d="M 57.6 307.584 
L 414.72 307.584 
L 414.72 41.472 
L 57.6 41.472 
z
" style="fill: #eaeaf2"/>
   </g>
   <g id="matplotlib.axis_1">
    <g id="xtick_1">
     <g id="line2d_1">
      <path d="M 73.832727 307.584 
L 73.832727 41.472 
" clip-path="url(#p826838a85f)" style="fill: none; stroke: #ffffff; stroke-linecap: round"/>
     </g>
     <g id="text_1">
      <!-- 0.0 -->
      <g style="fill: #262626" transform="translate(47.592571 342.158844)scale(0.33 -0.33)">
       <defs>
        <path id="DejaVuSans-30" d="M 2034 4250 
Q 1547 4250 1301 3770 
Q 1056 3291 1056 2328 
Q 1056 1369 1301 889 
Q 1547 409 2034 409 
Q 2525 409 2770 889 
Q 3016 1369 3016 2328 
Q 3016 3291 2770 3770 
Q 2525 4250 2034 4250 
z
M 2034 4750 
Q 2819 4750 3233 4129 
Q 3647 3509 3647 2328 
Q 3647 1150 3233 529 
Q 2819 -91 2034 -91 
Q 1250 -91 836 529 
Q 422 1150 422 2328 
Q 422 3509 836 4129 
Q 1250 4750 2034 4750 
z
" transform="scale(0.015625)"/>
        <path id="DejaVuSans-2e" d="M 684 794 
L 1344 794 
L 1344 0 
L 684 0 
L 684 794 
z
" transform="scale(0.015625)"/>
       </defs>
       <use xlink:href="#DejaVuSans-30"/>
       <use xlink:href="#DejaVuSans-2e" x="63.623047"/>
       <use xlink:href="#DejaVuSans-30" x="95.410156"/>
      </g>
     </g>
    </g>
    <g id="xtick_2">
     <g id="line2d_2">
      <path d="M 236.16 307.584 
L 236.16 41.472 
" clip-path="url(#p826838a85f)" style="fill: none; stroke: #ffffff; stroke-linecap: round"/>
     </g>
     <g id="text_2">
      <!-- 0.5 -->
      <g style="fill: #262626" transform="translate(209.919844 342.158844)scale(0.33 -0.33)">
       <defs>
        <path id="DejaVuSans-35" d="M 691 4666 
L 3169 4666 
L 3169 4134 
L 1269 4134 
L 1269 2991 
Q 1406 3038 1543 3061 
Q 1681 3084 1819 3084 
Q 2600 3084 3056 2656 
Q 3513 2228 3513 1497 
Q 3513 744 3044 326 
Q 2575 -91 1722 -91 
Q 1428 -91 1123 -41 
Q 819 9 494 109 
L 494 744 
Q 775 591 1075 516 
Q 1375 441 1709 441 
Q 2250 441 2565 725 
Q 2881 1009 2881 1497 
Q 2881 1984 2565 2268 
Q 2250 2553 1709 2553 
Q 1456 2553 1204 2497 
Q 953 2441 691 2322 
L 691 4666 
z
" transform="scale(0.015625)"/>
       </defs>
       <use xlink:href="#DejaVuSans-30"/>
       <use xlink:href="#DejaVuSans-2e" x="63.623047"/>
       <use xlink:href="#DejaVuSans-35" x="95.410156"/>
      </g>
     </g>
    </g>
    <g id="xtick_3">
     <g id="line2d_3">
      <path d="M 398.487273 307.584 
L 398.487273 41.472 
" clip-path="url(#p826838a85f)" style="fill: none; stroke: #ffffff; stroke-linecap: round"/>
     </g>
     <g id="text_3">
      <!-- 1.0 -->
      <g style="fill: #262626" transform="translate(372.247116 342.158844)scale(0.33 -0.33)">
       <defs>
        <path id="DejaVuSans-31" d="M 794 531 
L 1825 531 
L 1825 4091 
L 703 3866 
L 703 4441 
L 1819 4666 
L 2450 4666 
L 2450 531 
L 3481 531 
L 3481 0 
L 794 0 
L 794 531 
z
" transform="scale(0.015625)"/>
       </defs>
       <use xlink:href="#DejaVuSans-31"/>
       <use xlink:href="#DejaVuSans-2e" x="63.623047"/>
       <use xlink:href="#DejaVuSans-30" x="95.410156"/>
      </g>
     </g>
    </g>
    <g id="text_4">
     <!-- Recall (Positive label: 1.0) -->
     <g style="fill: #262626" transform="translate(3.647813 380.376187)scale(0.36 -0.36)">
      <defs>
       <path id="DejaVuSans-52" d="M 2841 2188 
Q 3044 2119 3236 1894 
Q 3428 1669 3622 1275 
L 4263 0 
L 3584 0 
L 2988 1197 
Q 2756 1666 2539 1819 
Q 2322 1972 1947 1972 
L 1259 1972 
L 1259 0 
L 628 0 
L 628 4666 
L 2053 4666 
Q 2853 4666 3247 4331 
Q 3641 3997 3641 3322 
Q 3641 2881 3436 2590 
Q 3231 2300 2841 2188 
z
M 1259 4147 
L 1259 2491 
L 2053 2491 
Q 2509 2491 2742 2702 
Q 2975 2913 2975 3322 
Q 2975 3731 2742 3939 
Q 2509 4147 2053 4147 
L 1259 4147 
z
" transform="scale(0.015625)"/>
       <path id="DejaVuSans-65" d="M 3597 1894 
L 3597 1613 
L 953 1613 
Q 991 1019 1311 708 
Q 1631 397 2203 397 
Q 2534 397 2845 478 
Q 3156 559 3463 722 
L 3463 178 
Q 3153 47 2828 -22 
Q 2503 -91 2169 -91 
Q 1331 -91 842 396 
Q 353 884 353 1716 
Q 353 2575 817 3079 
Q 1281 3584 2069 3584 
Q 2775 3584 3186 3129 
Q 3597 2675 3597 1894 
z
M 3022 2063 
Q 3016 2534 2758 2815 
Q 2500 3097 2075 3097 
Q 1594 3097 1305 2825 
Q 1016 2553 972 2059 
L 3022 2063 
z
" transform="scale(0.015625)"/>
       <path id="DejaVuSans-63" d="M 3122 3366 
L 3122 2828 
Q 2878 2963 2633 3030 
Q 2388 3097 2138 3097 
Q 1578 3097 1268 2742 
Q 959 2388 959 1747 
Q 959 1106 1268 751 
Q 1578 397 2138 397 
Q 2388 397 2633 464 
Q 2878 531 3122 666 
L 3122 134 
Q 2881 22 2623 -34 
Q 2366 -91 2075 -91 
Q 1284 -91 818 406 
Q 353 903 353 1747 
Q 353 2603 823 3093 
Q 1294 3584 2113 3584 
Q 2378 3584 2631 3529 
Q 2884 3475 3122 3366 
z
" transform="scale(0.015625)"/>
       <path id="DejaVuSans-61" d="M 2194 1759 
Q 1497 1759 1228 1600 
Q 959 1441 959 1056 
Q 959 750 1161 570 
Q 1363 391 1709 391 
Q 2188 391 2477 730 
Q 2766 1069 2766 1631 
L 2766 1759 
L 2194 1759 
z
M 3341 1997 
L 3341 0 
L 2766 0 
L 2766 531 
Q 2569 213 2275 61 
Q 1981 -91 1556 -91 
Q 1019 -91 701 211 
Q 384 513 384 1019 
Q 384 1609 779 1909 
Q 1175 2209 1959 2209 
L 2766 2209 
L 2766 2266 
Q 2766 2663 2505 2880 
Q 2244 3097 1772 3097 
Q 1472 3097 1187 3025 
Q 903 2953 641 2809 
L 641 3341 
Q 956 3463 1253 3523 
Q 1550 3584 1831 3584 
Q 2591 3584 2966 3190 
Q 3341 2797 3341 1997 
z
" transform="scale(0.015625)"/>
       <path id="DejaVuSans-6c" d="M 603 4863 
L 1178 4863 
L 1178 0 
L 603 0 
L 603 4863 
z
" transform="scale(0.015625)"/>
       <path id="DejaVuSans-20" transform="scale(0.015625)"/>
       <path id="DejaVuSans-28" d="M 1984 4856 
Q 1566 4138 1362 3434 
Q 1159 2731 1159 2009 
Q 1159 1288 1364 580 
Q 1569 -128 1984 -844 
L 1484 -844 
Q 1016 -109 783 600 
Q 550 1309 550 2009 
Q 550 2706 781 3412 
Q 1013 4119 1484 4856 
L 1984 4856 
z
" transform="scale(0.015625)"/>
       <path id="DejaVuSans-50" d="M 1259 4147 
L 1259 2394 
L 2053 2394 
Q 2494 2394 2734 2622 
Q 2975 2850 2975 3272 
Q 2975 3691 2734 3919 
Q 2494 4147 2053 4147 
L 1259 4147 
z
M 628 4666 
L 2053 4666 
Q 2838 4666 3239 4311 
Q 3641 3956 3641 3272 
Q 3641 2581 3239 2228 
Q 2838 1875 2053 1875 
L 1259 1875 
L 1259 0 
L 628 0 
L 628 4666 
z
" transform="scale(0.015625)"/>
       <path id="DejaVuSans-6f" d="M 1959 3097 
Q 1497 3097 1228 2736 
Q 959 2375 959 1747 
Q 959 1119 1226 758 
Q 1494 397 1959 397 
Q 2419 397 2687 759 
Q 2956 1122 2956 1747 
Q 2956 2369 2687 2733 
Q 2419 3097 1959 3097 
z
M 1959 3584 
Q 2709 3584 3137 3096 
Q 3566 2609 3566 1747 
Q 3566 888 3137 398 
Q 2709 -91 1959 -91 
Q 1206 -91 779 398 
Q 353 888 353 1747 
Q 353 2609 779 3096 
Q 1206 3584 1959 3584 
z
" transform="scale(0.015625)"/>
       <path id="DejaVuSans-73" d="M 2834 3397 
L 2834 2853 
Q 2591 2978 2328 3040 
Q 2066 3103 1784 3103 
Q 1356 3103 1142 2972 
Q 928 2841 928 2578 
Q 928 2378 1081 2264 
Q 1234 2150 1697 2047 
L 1894 2003 
Q 2506 1872 2764 1633 
Q 3022 1394 3022 966 
Q 3022 478 2636 193 
Q 2250 -91 1575 -91 
Q 1294 -91 989 -36 
Q 684 19 347 128 
L 347 722 
Q 666 556 975 473 
Q 1284 391 1588 391 
Q 1994 391 2212 530 
Q 2431 669 2431 922 
Q 2431 1156 2273 1281 
Q 2116 1406 1581 1522 
L 1381 1569 
Q 847 1681 609 1914 
Q 372 2147 372 2553 
Q 372 3047 722 3315 
Q 1072 3584 1716 3584 
Q 2034 3584 2315 3537 
Q 2597 3491 2834 3397 
z
" transform="scale(0.015625)"/>
       <path id="DejaVuSans-69" d="M 603 3500 
L 1178 3500 
L 1178 0 
L 603 0 
L 603 3500 
z
M 603 4863 
L 1178 4863 
L 1178 4134 
L 603 4134 
L 603 4863 
z
" transform="scale(0.015625)"/>
       <path id="DejaVuSans-74" d="M 1172 4494 
L 1172 3500 
L 2356 3500 
L 2356 3053 
L 1172 3053 
L 1172 1153 
Q 1172 725 1289 603 
Q 1406 481 1766 481 
L 2356 481 
L 2356 0 
L 1766 0 
Q 1100 0 847 248 
Q 594 497 594 1153 
L 594 3053 
L 172 3053 
L 172 3500 
L 594 3500 
L 594 4494 
L 1172 4494 
z
" transform="scale(0.015625)"/>
       <path id="DejaVuSans-76" d="M 191 3500 
L 800 3500 
L 1894 563 
L 2988 3500 
L 3597 3500 
L 2284 0 
L 1503 0 
L 191 3500 
z
" transform="scale(0.015625)"/>
       <path id="DejaVuSans-62" d="M 3116 1747 
Q 3116 2381 2855 2742 
Q 2594 3103 2138 3103 
Q 1681 3103 1420 2742 
Q 1159 2381 1159 1747 
Q 1159 1113 1420 752 
Q 1681 391 2138 391 
Q 2594 391 2855 752 
Q 3116 1113 3116 1747 
z
M 1159 2969 
Q 1341 3281 1617 3432 
Q 1894 3584 2278 3584 
Q 2916 3584 3314 3078 
Q 3713 2572 3713 1747 
Q 3713 922 3314 415 
Q 2916 -91 2278 -91 
Q 1894 -91 1617 61 
Q 1341 213 1159 525 
L 1159 0 
L 581 0 
L 581 4863 
L 1159 4863 
L 1159 2969 
z
" transform="scale(0.015625)"/>
       <path id="DejaVuSans-3a" d="M 750 794 
L 1409 794 
L 1409 0 
L 750 0 
L 750 794 
z
M 750 3309 
L 1409 3309 
L 1409 2516 
L 750 2516 
L 750 3309 
z
" transform="scale(0.015625)"/>
       <path id="DejaVuSans-29" d="M 513 4856 
L 1013 4856 
Q 1481 4119 1714 3412 
Q 1947 2706 1947 2009 
Q 1947 1309 1714 600 
Q 1481 -109 1013 -844 
L 513 -844 
Q 928 -128 1133 580 
Q 1338 1288 1338 2009 
Q 1338 2731 1133 3434 
Q 928 4138 513 4856 
z
" transform="scale(0.015625)"/>
      </defs>
      <use xlink:href="#DejaVuSans-52"/>
      <use xlink:href="#DejaVuSans-65" x="64.982422"/>
      <use xlink:href="#DejaVuSans-63" x="126.505859"/>
      <use xlink:href="#DejaVuSans-61" x="181.486328"/>
      <use xlink:href="#DejaVuSans-6c" x="242.765625"/>
      <use xlink:href="#DejaVuSans-6c" x="270.548828"/>
      <use xlink:href="#DejaVuSans-20" x="298.332031"/>
      <use xlink:href="#DejaVuSans-28" x="330.119141"/>
      <use xlink:href="#DejaVuSans-50" x="369.132812"/>
      <use xlink:href="#DejaVuSans-6f" x="425.810547"/>
      <use xlink:href="#DejaVuSans-73" x="486.992188"/>
      <use xlink:href="#DejaVuSans-69" x="539.091797"/>
      <use xlink:href="#DejaVuSans-74" x="566.875"/>
      <use xlink:href="#DejaVuSans-69" x="606.083984"/>
      <use xlink:href="#DejaVuSans-76" x="633.867188"/>
      <use xlink:href="#DejaVuSans-65" x="693.046875"/>
      <use xlink:href="#DejaVuSans-20" x="754.570312"/>
      <use xlink:href="#DejaVuSans-6c" x="786.357422"/>
      <use xlink:href="#DejaVuSans-61" x="814.140625"/>
      <use xlink:href="#DejaVuSans-62" x="875.419922"/>
      <use xlink:href="#DejaVuSans-65" x="938.896484"/>
      <use xlink:href="#DejaVuSans-6c" x="1000.419922"/>
      <use xlink:href="#DejaVuSans-3a" x="1028.203125"/>
      <use xlink:href="#DejaVuSans-20" x="1061.894531"/>
      <use xlink:href="#DejaVuSans-31" x="1093.681641"/>
      <use xlink:href="#DejaVuSans-2e" x="1157.304688"/>
      <use xlink:href="#DejaVuSans-30" x="1189.091797"/>
      <use xlink:href="#DejaVuSans-29" x="1252.714844"/>
     </g>
    </g>
   </g>
   <g id="matplotlib.axis_2">
    <g id="ytick_1">
     <g id="line2d_4">
      <path d="M 57.6 184.936106 
L 414.72 184.936106 
" clip-path="url(#p826838a85f)" style="fill: none; stroke: #ffffff; stroke-linecap: round"/>
     </g>
     <g id="text_5">
      <!-- 0.5 -->
      <g style="fill: #262626" transform="translate(-4.380313 197.473528)scale(0.33 -0.33)">
       <use xlink:href="#DejaVuSans-30"/>
       <use xlink:href="#DejaVuSans-2e" x="63.623047"/>
       <use xlink:href="#DejaVuSans-35" x="95.410156"/>
      </g>
     </g>
    </g>
    <g id="ytick_2">
     <g id="line2d_5">
      <path d="M 57.6 53.568 
L 414.72 53.568 
" clip-path="url(#p826838a85f)" style="fill: none; stroke: #ffffff; stroke-linecap: round"/>
     </g>
     <g id="text_6">
      <!-- 1.0 -->
      <g style="fill: #262626" transform="translate(-4.380313 66.105422)scale(0.33 -0.33)">
       <use xlink:href="#DejaVuSans-31"/>
       <use xlink:href="#DejaVuSans-2e" x="63.623047"/>
       <use xlink:href="#DejaVuSans-30" x="95.410156"/>
      </g>
     </g>
    </g>
    <g id="text_7">
     <!-- Precision (Positive label: 1.0) -->
     <g style="fill: #262626" transform="translate(-15.867188 433.643625)rotate(-90)scale(0.36 -0.36)">
      <defs>
       <path id="DejaVuSans-72" d="M 2631 2963 
Q 2534 3019 2420 3045 
Q 2306 3072 2169 3072 
Q 1681 3072 1420 2755 
Q 1159 2438 1159 1844 
L 1159 0 
L 581 0 
L 581 3500 
L 1159 3500 
L 1159 2956 
Q 1341 3275 1631 3429 
Q 1922 3584 2338 3584 
Q 2397 3584 2469 3576 
Q 2541 3569 2628 3553 
L 2631 2963 
z
" transform="scale(0.015625)"/>
       <path id="DejaVuSans-6e" d="M 3513 2113 
L 3513 0 
L 2938 0 
L 2938 2094 
Q 2938 2591 2744 2837 
Q 2550 3084 2163 3084 
Q 1697 3084 1428 2787 
Q 1159 2491 1159 1978 
L 1159 0 
L 581 0 
L 581 3500 
L 1159 3500 
L 1159 2956 
Q 1366 3272 1645 3428 
Q 1925 3584 2291 3584 
Q 2894 3584 3203 3211 
Q 3513 2838 3513 2113 
z
" transform="scale(0.015625)"/>
      </defs>
      <use xlink:href="#DejaVuSans-50"/>
      <use xlink:href="#DejaVuSans-72" x="58.552734"/>
      <use xlink:href="#DejaVuSans-65" x="97.416016"/>
      <use xlink:href="#DejaVuSans-63" x="158.939453"/>
      <use xlink:href="#DejaVuSans-69" x="213.919922"/>
      <use xlink:href="#DejaVuSans-73" x="241.703125"/>
      <use xlink:href="#DejaVuSans-69" x="293.802734"/>
      <use xlink:href="#DejaVuSans-6f" x="321.585938"/>
      <use xlink:href="#DejaVuSans-6e" x="382.767578"/>
      <use xlink:href="#DejaVuSans-20" x="446.146484"/>
      <use xlink:href="#DejaVuSans-28" x="477.933594"/>
      <use xlink:href="#DejaVuSans-50" x="516.947266"/>
      <use xlink:href="#DejaVuSans-6f" x="573.625"/>
      <use xlink:href="#DejaVuSans-73" x="634.806641"/>
      <use xlink:href="#DejaVuSans-69" x="686.90625"/>
      <use xlink:href="#DejaVuSans-74" x="714.689453"/>
      <use xlink:href="#DejaVuSans-69" x="753.898438"/>
      <use xlink:href="#DejaVuSans-76" x="781.681641"/>
      <use xlink:href="#DejaVuSans-65" x="840.861328"/>
      <use xlink:href="#DejaVuSans-20" x="902.384766"/>
      <use xlink:href="#DejaVuSans-6c" x="934.171875"/>
      <use xlink:href="#DejaVuSans-61" x="961.955078"/>
      <use xlink:href="#DejaVuSans-62" x="1023.234375"/>
      <use xlink:href="#DejaVuSans-65" x="1086.710938"/>
      <use xlink:href="#DejaVuSans-6c" x="1148.234375"/>
      <use xlink:href="#DejaVuSans-3a" x="1176.017578"/>
      <use xlink:href="#DejaVuSans-20" x="1209.708984"/>
      <use xlink:href="#DejaVuSans-31" x="1241.496094"/>
      <use xlink:href="#DejaVuSans-2e" x="1305.119141"/>
      <use xlink:href="#DejaVuSans-30" x="1336.90625"/>
      <use xlink:href="#DejaVuSans-29" x="1400.529297"/>
     </g>
    </g>
   </g>
   <g id="line2d_6">
    <path d="M 398.487273 295.488 
L 398.487273 142.006758 
L 398.220287 142.006758 
L 398.220287 141.959866 
L 398.220287 141.864596 
L 397.41933 141.770245 
L 397.41933 141.627148 
L 395.550431 141.629531 
L 395.550431 141.678103 
L 395.550431 141.388668 
L 395.016459 141.437214 
L 395.016459 141.292217 
L 395.016459 140.21972 
L 393.948517 140.168204 
L 393.948517 140.216611 
L 393.948517 140.019535 
L 393.681531 140.019535 
L 393.681531 139.771413 
L 393.414545 139.771413 
L 393.414545 139.62149 
L 391.812632 139.56518 
L 391.812632 139.413976 
L 391.011675 139.310809 
L 391.011675 139.259051 
L 390.477703 139.207174 
L 390.477703 139.054413 
L 389.943732 139.002156 
L 389.943732 138.848608 
L 389.409761 138.795966 
L 389.409761 138.641625 
L 388.608804 138.535445 
L 388.608804 138.277779 
L 388.341818 138.277779 
L 388.341818 138.121565 
L 388.074833 138.121565 
L 388.074833 137.964811 
L 387.273876 137.856207 
L 387.273876 137.801716 
L 387.00689 137.801716 
L 387.00689 137.643588 
L 386.205933 137.533669 
L 386.205933 137.478518 
L 385.13799 137.416721 
L 385.13799 137.361208 
L 384.604019 137.305565 
L 384.604019 137.249791 
L 384.070048 137.193887 
L 384.070048 137.137852 
L 383.002105 137.074507 
L 383.002105 137.018099 
L 382.468134 136.961559 
L 382.468134 136.904885 
L 381.934163 136.848077 
L 381.934163 136.791134 
L 381.400191 136.734057 
L 381.400191 136.676844 
L 380.86622 136.619494 
L 380.86622 136.562009 
L 380.332249 136.504386 
L 380.332249 136.446626 
L 379.798278 136.388729 
L 379.798278 136.330692 
L 379.264306 136.272517 
L 379.264306 136.214202 
L 378.730335 136.155748 
L 378.730335 136.097153 
L 378.196364 136.038417 
L 378.196364 135.979539 
L 377.395407 135.92052 
L 377.395407 135.58366 
L 376.861435 135.523875 
L 376.861435 135.463945 
L 376.327464 135.40387 
L 376.327464 135.343648 
L 375.793493 135.28328 
L 375.793493 135.222765 
L 374.72555 135.211915 
L 374.72555 134.868115 
L 374.191579 134.806682 
L 374.191579 134.745098 
L 373.657608 134.683362 
L 373.657608 134.621475 
L 373.123636 134.559434 
L 373.123636 134.497241 
L 372.055694 134.422426 
L 372.055694 134.359793 
L 371.521722 134.297004 
L 371.521722 134.234059 
L 370.987751 134.170958 
L 370.987751 134.107699 
L 370.45378 134.044282 
L 370.45378 133.980707 
L 369.919809 133.916973 
L 369.919809 133.853079 
L 369.385837 133.789025 
L 369.385837 133.724811 
L 368.851866 133.660434 
L 368.851866 133.595896 
L 368.317895 133.531195 
L 368.317895 133.466331 
L 367.783923 133.401303 
L 367.783923 133.33611 
L 367.249952 133.270752 
L 367.249952 133.205229 
L 366.18201 133.124258 
L 366.18201 133.058255 
L 365.648038 133.058255 
L 365.648038 132.925745 
L 365.114067 132.859236 
L 365.114067 132.792556 
L 364.580096 132.725705 
L 364.580096 132.658683 
L 364.046124 132.591488 
L 364.046124 132.524121 
L 363.512153 132.456579 
L 363.512153 132.388864 
L 362.978182 132.320973 
L 362.978182 132.252907 
L 362.444211 132.184665 
L 362.444211 132.116245 
L 361.910239 132.047648 
L 361.910239 131.978872 
L 361.376268 131.909918 
L 361.376268 131.840783 
L 360.842297 131.771468 
L 360.842297 131.701972 
L 359.774354 131.683416 
L 359.774354 131.543554 
L 358.706411 131.454229 
L 358.706411 131.383673 
L 358.17244 131.31293 
L 358.17244 131.241999 
L 357.371483 131.170881 
L 357.371483 131.028079 
L 356.837512 130.956392 
L 356.837512 130.884515 
L 356.303541 130.812447 
L 356.303541 130.740185 
L 355.769569 130.667731 
L 355.769569 130.595082 
L 355.235598 130.522239 
L 355.235598 130.449201 
L 354.701627 130.375965 
L 354.701627 130.302533 
L 353.633684 130.228903 
L 353.633684 130.006817 
L 352.565742 129.909547 
L 352.565742 129.834732 
L 352.03177 129.759713 
L 352.03177 129.68449 
L 350.696842 129.637417 
L 350.696842 129.561613 
L 350.162871 129.485602 
L 350.162871 129.409381 
L 349.094928 129.308508 
L 349.094928 129.231675 
L 347.76 129.182097 
L 347.76 129.104661 
L 347.226029 129.02701 
L 347.226029 128.949142 
L 346.692057 128.949142 
L 346.692057 128.792754 
L 346.158086 128.714232 
L 346.158086 128.635489 
L 345.624115 128.556526 
L 345.624115 128.477342 
L 344.289187 128.423733 
L 344.289187 128.343914 
L 343.755215 128.343914 
L 343.755215 128.183596 
L 343.221244 128.103096 
L 343.221244 128.022367 
L 342.153301 127.913172 
L 342.153301 127.831769 
L 341.61933 127.750133 
L 341.61933 127.668263 
L 340.818373 127.639257 
L 340.818373 127.556934 
L 340.284402 127.474374 
L 340.284402 127.391576 
L 339.483445 127.361781 
L 339.483445 127.278521 
L 338.949474 127.278521 
L 338.949474 127.111276 
L 338.415502 127.02729 
L 338.415502 126.943059 
L 337.881531 126.858582 
L 337.881531 126.773859 
L 337.080574 126.688889 
L 337.080574 126.518201 
L 335.47866 126.432482 
L 335.47866 126.000082 
L 334.944689 125.912834 
L 334.944689 125.825328 
L 334.410718 125.737561 
L 334.410718 125.649533 
L 333.342775 125.561244 
L 333.342775 125.29479 
L 332.274833 125.205439 
L 332.274833 124.935775 
L 331.20689 124.845345 
L 331.20689 124.572412 
L 330.672919 124.480882 
L 330.672919 124.389075 
L 329.871962 124.296988 
L 329.871962 124.111972 
L 329.071005 124.111972 
L 329.071005 123.832321 
L 328.537033 123.738531 
L 328.537033 123.644453 
L 328.003062 123.550086 
L 328.003062 123.455427 
L 327.469091 123.360477 
L 327.469091 123.265232 
L 326.93512 123.169692 
L 326.93512 123.073856 
L 326.401148 122.977722 
L 326.401148 122.881289 
L 325.867177 122.784555 
L 325.867177 122.687519 
L 325.333206 122.590179 
L 325.333206 122.492535 
L 324.532249 122.492535 
L 324.532249 122.197758 
L 323.998278 122.09888 
L 323.998278 121.999689 
L 323.464306 121.900185 
L 323.464306 121.800366 
L 322.930335 121.70023 
L 322.930335 121.599776 
L 322.396364 121.499002 
L 322.396364 121.397907 
L 321.595407 121.296489 
L 321.595407 121.092679 
L 321.061435 121.092679 
L 321.061435 120.88756 
L 320.527464 120.784505 
L 320.527464 120.681118 
L 319.993493 120.577397 
L 319.993493 120.473341 
L 319.459522 120.368948 
L 319.459522 120.264216 
L 318.92555 120.159144 
L 318.92555 120.05373 
L 318.124593 120.05373 
L 318.124593 119.735419 
L 317.590622 119.735419 
L 317.590622 119.521471 
L 317.056651 119.521471 
L 317.056651 119.306114 
L 316.255694 119.197903 
L 316.255694 118.980407 
L 315.721722 118.871118 
L 315.721722 118.761467 
L 315.187751 118.651451 
L 315.187751 118.541068 
L 314.386794 118.541068 
L 314.386794 118.207704 
L 314.119809 118.207704 
L 314.119809 118.095838 
L 313.852823 118.095838 
L 313.852823 117.983595 
L 313.318852 117.983595 
L 313.318852 117.757976 
L 312.78488 117.757976 
L 312.78488 117.530831 
L 312.517895 117.530831 
L 312.517895 117.416682 
L 312.250909 117.416682 
L 312.250909 117.302145 
L 311.983923 117.302145 
L 311.983923 117.187219 
L 311.716938 117.187219 
L 311.716938 117.071902 
L 311.449952 117.071902 
L 311.449952 116.956191 
L 310.648995 116.956191 
L 310.648995 116.60668 
L 310.115024 116.60668 
L 310.115024 116.371669 
L 309.047081 116.371669 
L 309.047081 115.896764 
L 308.780096 115.896764 
L 308.780096 115.777008 
L 307.178182 115.777008 
L 307.178182 115.049655 
L 306.911196 115.049655 
L 306.911196 114.92694 
L 306.644211 114.92694 
L 306.644211 114.803793 
L 306.377225 114.803793 
L 306.377225 114.680212 
L 306.110239 114.680212 
L 306.110239 114.556194 
L 305.843254 114.556194 
L 305.843254 114.431738 
L 305.576268 114.431738 
L 305.576268 114.306841 
L 305.309282 114.306841 
L 305.309282 114.181501 
L 305.042297 114.181501 
L 305.042297 114.055715 
L 304.775311 114.055715 
L 304.775311 113.929481 
L 304.508325 113.929481 
L 304.508325 113.802796 
L 304.24134 113.802796 
L 304.24134 113.675659 
L 303.974354 113.675659 
L 303.974354 113.548066 
L 303.707368 113.548066 
L 303.707368 113.420016 
L 303.440383 113.420016 
L 303.440383 113.291506 
L 303.173397 113.291506 
L 303.173397 113.162533 
L 302.906411 113.162533 
L 302.906411 113.033094 
L 302.639426 113.033094 
L 302.639426 112.903188 
L 302.37244 112.903188 
L 302.37244 112.772812 
L 302.105455 112.772812 
L 302.105455 112.641963 
L 301.838469 112.641963 
L 301.838469 112.510638 
L 301.304498 112.510638 
L 301.304498 112.246553 
L 301.037512 112.246553 
L 301.037512 112.113786 
L 300.770526 112.113786 
L 300.770526 111.980534 
L 300.503541 111.980534 
L 300.503541 111.846793 
L 300.236555 111.846793 
L 300.236555 111.712561 
L 299.435598 111.712561 
L 299.435598 111.306891 
L 299.168612 111.306891 
L 299.168612 111.170666 
L 298.901627 111.170666 
L 298.901627 111.033937 
L 297.299713 111.033937 
L 297.299713 110.202798 
L 297.032727 110.202798 
L 297.032727 110.062453 
L 296.765742 110.062453 
L 296.765742 109.921581 
L 296.498756 109.921581 
L 296.498756 109.780177 
L 295.964785 109.780177 
L 295.964785 109.495765 
L 295.697799 109.495765 
L 295.697799 109.35275 
L 294.896842 109.35275 
L 294.896842 108.920434 
L 293.561914 108.920434 
L 293.561914 108.18881 
L 293.294928 108.18881 
L 293.294928 108.040792 
L 292.226986 108.040792 
L 292.226986 107.442967 
L 285.018373 107.442967 
L 285.018373 103.151039 
L 284.751388 103.151039 
L 284.751388 102.98293 
L 284.484402 102.98293 
L 284.484402 102.814128 
L 283.683445 102.814128 
L 283.683445 102.303525 
L 282.882488 102.303525 
L 282.882488 101.786533 
L 282.348517 101.786533 
L 282.348517 101.438263 
L 282.081531 101.438263 
L 282.081531 101.263031 
L 281.814545 101.263031 
L 281.814545 101.087063 
L 278.343732 101.087063 
L 278.343732 98.730225 
L 278.076746 98.730225 
L 278.076746 98.54343 
L 277.809761 98.54343 
L 277.809761 98.355823 
L 275.139904 98.355823 
L 275.139904 96.433953 
L 274.872919 96.433953 
L 274.872919 96.237062 
L 274.605933 96.237062 
L 274.605933 96.039294 
L 274.338947 96.039294 
L 274.338947 95.840642 
L 274.071962 95.840642 
L 274.071962 95.6411 
L 273.804976 95.6411 
L 273.804976 95.440662 
L 273.53799 95.440662 
L 273.53799 95.239323 
L 273.271005 95.239323 
L 273.271005 95.037075 
L 273.004019 95.037075 
L 273.004019 94.833914 
L 272.737033 94.833914 
L 272.737033 94.629832 
L 272.470048 94.629832 
L 272.470048 94.424823 
L 271.402105 94.424823 
L 271.402105 93.595396 
L 270.868134 93.595396 
L 270.868134 93.174955 
L 270.601148 93.174955 
L 270.601148 92.96328 
L 270.334163 92.96328 
L 270.334163 92.750626 
L 270.067177 92.750626 
L 270.067177 92.536986 
L 269.800191 92.536986 
L 269.800191 92.322354 
L 269.26622 92.322354 
L 269.26622 91.890085 
L 268.999234 91.890085 
L 268.999234 91.672433 
L 268.732249 91.672433 
L 268.732249 91.453761 
L 268.465263 91.453761 
L 268.465263 91.234061 
L 268.198278 91.234061 
L 268.198278 91.013326 
L 267.931292 91.013326 
L 267.931292 90.791548 
L 267.664306 90.791548 
L 267.664306 90.568721 
L 266.329378 90.568721 
L 266.329378 89.438573 
L 266.062392 89.438573 
L 266.062392 89.209287 
L 265.795407 89.209287 
L 265.795407 88.978898 
L 264.99445 88.978898 
L 264.99445 88.281027 
L 264.727464 88.281027 
L 264.727464 88.046142 
L 264.460478 88.046142 
L 264.460478 87.810113 
L 264.193493 87.810113 
L 264.193493 87.572931 
L 262.057608 87.572931 
L 262.057608 85.632943 
L 261.790622 85.632943 
L 261.790622 85.384995 
L 260.722679 85.384995 
L 260.722679 84.380696 
L 260.455694 84.380696 
L 260.455694 84.126447 
L 260.188708 84.126447 
L 260.188708 83.870909 
L 259.921722 83.870909 
L 259.921722 83.614073 
L 259.654737 83.614073 
L 259.654737 83.355927 
L 259.387751 83.355927 
L 259.387751 83.096463 
L 259.120766 83.096463 
L 259.120766 82.83567 
L 258.85378 82.83567 
L 258.85378 82.573538 
L 258.319809 82.573538 
L 258.319809 82.045215 
L 254.315024 82.045215 
L 254.315024 77.901958 
L 254.048038 77.901958 
L 254.048038 77.613845 
L 253.781053 77.613845 
L 253.781053 77.324176 
L 253.514067 77.324176 
L 253.514067 77.032939 
L 245.504498 77.032939 
L 245.504498 67.49805 
L 245.237512 67.49805 
L 245.237512 67.151113 
L 244.970526 67.151113 
L 244.970526 66.80212 
L 244.436555 66.80212 
L 244.436555 66.097894 
L 243.902584 66.097894 
L 243.902584 65.385221 
L 243.635598 65.385221 
L 243.635598 65.025669 
L 243.101627 65.042925 
L 243.101627 64.68071 
L 242.033684 64.68071 
L 242.033684 63.209696 
L 240.43177 63.209696 
L 240.43177 60.934436 
L 238.295885 60.934436 
L 238.295885 57.765064 
L 238.0289 57.765064 
L 238.0289 57.357465 
L 235.626029 57.357465 
L 235.626029 53.568 
L 73.832727 53.568 
L 73.832727 53.568 
" clip-path="url(#p826838a85f)" style="fill: none; stroke: #4c72b0; stroke-width: 1.5; stroke-linecap: round"/>
   </g>
   <g id="patch_3">
    <path d="M 57.6 307.584 
L 57.6 41.472 
" style="fill: none; stroke: #ffffff; stroke-width: 1.25; stroke-linejoin: miter; stroke-linecap: square"/>
   </g>
   <g id="patch_4">
    <path d="M 414.72 307.584 
L 414.72 41.472 
" style="fill: none; stroke: #ffffff; stroke-width: 1.25; stroke-linejoin: miter; stroke-linecap: square"/>
   </g>
   <g id="patch_5">
    <path d="M 57.6 307.584 
L 414.72 307.584 
" style="fill: none; stroke: #ffffff; stroke-width: 1.25; stroke-linejoin: miter; stroke-linecap: square"/>
   </g>
   <g id="patch_6">
    <path d="M 57.6 41.472 
L 414.72 41.472 
" style="fill: none; stroke: #ffffff; stroke-width: 1.25; stroke-linejoin: miter; stroke-linecap: square"/>
   </g>
   <g id="text_8">
    <!-- Precision-recall curve -->
    <g style="fill: #262626" transform="translate(44.206875 35.472)scale(0.36 -0.36)">
     <defs>
      <path id="DejaVuSans-2d" d="M 313 2009 
L 1997 2009 
L 1997 1497 
L 313 1497 
L 313 2009 
z
" transform="scale(0.015625)"/>
      <path id="DejaVuSans-75" d="M 544 1381 
L 544 3500 
L 1119 3500 
L 1119 1403 
Q 1119 906 1312 657 
Q 1506 409 1894 409 
Q 2359 409 2629 706 
Q 2900 1003 2900 1516 
L 2900 3500 
L 3475 3500 
L 3475 0 
L 2900 0 
L 2900 538 
Q 2691 219 2414 64 
Q 2138 -91 1772 -91 
Q 1169 -91 856 284 
Q 544 659 544 1381 
z
M 1991 3584 
L 1991 3584 
z
" transform="scale(0.015625)"/>
     </defs>
     <use xlink:href="#DejaVuSans-50"/>
     <use xlink:href="#DejaVuSans-72" x="58.552734"/>
     <use xlink:href="#DejaVuSans-65" x="97.416016"/>
     <use xlink:href="#DejaVuSans-63" x="158.939453"/>
     <use xlink:href="#DejaVuSans-69" x="213.919922"/>
     <use xlink:href="#DejaVuSans-73" x="241.703125"/>
     <use xlink:href="#DejaVuSans-69" x="293.802734"/>
     <use xlink:href="#DejaVuSans-6f" x="321.585938"/>
     <use xlink:href="#DejaVuSans-6e" x="382.767578"/>
     <use xlink:href="#DejaVuSans-2d" x="446.146484"/>
     <use xlink:href="#DejaVuSans-72" x="482.230469"/>
     <use xlink:href="#DejaVuSans-65" x="521.09375"/>
     <use xlink:href="#DejaVuSans-63" x="582.617188"/>
     <use xlink:href="#DejaVuSans-61" x="637.597656"/>
     <use xlink:href="#DejaVuSans-6c" x="698.876953"/>
     <use xlink:href="#DejaVuSans-6c" x="726.660156"/>
     <use xlink:href="#DejaVuSans-20" x="754.443359"/>
     <use xlink:href="#DejaVuSans-63" x="786.230469"/>
     <use xlink:href="#DejaVuSans-75" x="841.210938"/>
     <use xlink:href="#DejaVuSans-72" x="904.589844"/>
     <use xlink:href="#DejaVuSans-76" x="945.703125"/>
     <use xlink:href="#DejaVuSans-65" x="1004.882812"/>
    </g>
   </g>
   <g id="legend_1">
    <g id="patch_7">
     <path d="M 80.7 291.084 
L 635.445469 291.084 
Q 642.045469 291.084 642.045469 284.484 
L 642.045469 239.346187 
Q 642.045469 232.746187 635.445469 232.746187 
L 80.7 232.746187 
Q 74.1 232.746187 74.1 239.346187 
L 74.1 284.484 
Q 74.1 291.084 80.7 291.084 
z
" style="fill: #eaeaf2; opacity: 0.8; stroke: #cccccc; stroke-linejoin: miter"/>
    </g>
    <g id="line2d_7">
     <path d="M 87.3 259.471031 
L 120.3 259.471031 
L 120.3 259.471031 
L 153.3 259.471031 
L 153.3 259.471031 
" style="fill: none; stroke: #4c72b0; stroke-width: 1.5; stroke-linecap: round"/>
    </g>
    <g id="text_9">
     <!-- Random Forest (AP = 0.89) -->
     <g style="fill: #262626" transform="translate(179.7 271.021031)scale(0.33 -0.33)">
      <defs>
       <path id="DejaVuSans-64" d="M 2906 2969 
L 2906 4863 
L 3481 4863 
L 3481 0 
L 2906 0 
L 2906 525 
Q 2725 213 2448 61 
Q 2172 -91 1784 -91 
Q 1150 -91 751 415 
Q 353 922 353 1747 
Q 353 2572 751 3078 
Q 1150 3584 1784 3584 
Q 2172 3584 2448 3432 
Q 2725 3281 2906 2969 
z
M 947 1747 
Q 947 1113 1208 752 
Q 1469 391 1925 391 
Q 2381 391 2643 752 
Q 2906 1113 2906 1747 
Q 2906 2381 2643 2742 
Q 2381 3103 1925 3103 
Q 1469 3103 1208 2742 
Q 947 2381 947 1747 
z
" transform="scale(0.015625)"/>
       <path id="DejaVuSans-6d" d="M 3328 2828 
Q 3544 3216 3844 3400 
Q 4144 3584 4550 3584 
Q 5097 3584 5394 3201 
Q 5691 2819 5691 2113 
L 5691 0 
L 5113 0 
L 5113 2094 
Q 5113 2597 4934 2840 
Q 4756 3084 4391 3084 
Q 3944 3084 3684 2787 
Q 3425 2491 3425 1978 
L 3425 0 
L 2847 0 
L 2847 2094 
Q 2847 2600 2669 2842 
Q 2491 3084 2119 3084 
Q 1678 3084 1418 2786 
Q 1159 2488 1159 1978 
L 1159 0 
L 581 0 
L 581 3500 
L 1159 3500 
L 1159 2956 
Q 1356 3278 1631 3431 
Q 1906 3584 2284 3584 
Q 2666 3584 2933 3390 
Q 3200 3197 3328 2828 
z
" transform="scale(0.015625)"/>
       <path id="DejaVuSans-46" d="M 628 4666 
L 3309 4666 
L 3309 4134 
L 1259 4134 
L 1259 2759 
L 3109 2759 
L 3109 2228 
L 1259 2228 
L 1259 0 
L 628 0 
L 628 4666 
z
" transform="scale(0.015625)"/>
       <path id="DejaVuSans-41" d="M 2188 4044 
L 1331 1722 
L 3047 1722 
L 2188 4044 
z
M 1831 4666 
L 2547 4666 
L 4325 0 
L 3669 0 
L 3244 1197 
L 1141 1197 
L 716 0 
L 50 0 
L 1831 4666 
z
" transform="scale(0.015625)"/>
       <path id="DejaVuSans-3d" d="M 678 2906 
L 4684 2906 
L 4684 2381 
L 678 2381 
L 678 2906 
z
M 678 1631 
L 4684 1631 
L 4684 1100 
L 678 1100 
L 678 1631 
z
" transform="scale(0.015625)"/>
       <path id="DejaVuSans-38" d="M 2034 2216 
Q 1584 2216 1326 1975 
Q 1069 1734 1069 1313 
Q 1069 891 1326 650 
Q 1584 409 2034 409 
Q 2484 409 2743 651 
Q 3003 894 3003 1313 
Q 3003 1734 2745 1975 
Q 2488 2216 2034 2216 
z
M 1403 2484 
Q 997 2584 770 2862 
Q 544 3141 544 3541 
Q 544 4100 942 4425 
Q 1341 4750 2034 4750 
Q 2731 4750 3128 4425 
Q 3525 4100 3525 3541 
Q 3525 3141 3298 2862 
Q 3072 2584 2669 2484 
Q 3125 2378 3379 2068 
Q 3634 1759 3634 1313 
Q 3634 634 3220 271 
Q 2806 -91 2034 -91 
Q 1263 -91 848 271 
Q 434 634 434 1313 
Q 434 1759 690 2068 
Q 947 2378 1403 2484 
z
M 1172 3481 
Q 1172 3119 1398 2916 
Q 1625 2713 2034 2713 
Q 2441 2713 2670 2916 
Q 2900 3119 2900 3481 
Q 2900 3844 2670 4047 
Q 2441 4250 2034 4250 
Q 1625 4250 1398 4047 
Q 1172 3844 1172 3481 
z
" transform="scale(0.015625)"/>
       <path id="DejaVuSans-39" d="M 703 97 
L 703 672 
Q 941 559 1184 500 
Q 1428 441 1663 441 
Q 2288 441 2617 861 
Q 2947 1281 2994 2138 
Q 2813 1869 2534 1725 
Q 2256 1581 1919 1581 
Q 1219 1581 811 2004 
Q 403 2428 403 3163 
Q 403 3881 828 4315 
Q 1253 4750 1959 4750 
Q 2769 4750 3195 4129 
Q 3622 3509 3622 2328 
Q 3622 1225 3098 567 
Q 2575 -91 1691 -91 
Q 1453 -91 1209 -44 
Q 966 3 703 97 
z
M 1959 2075 
Q 2384 2075 2632 2365 
Q 2881 2656 2881 3163 
Q 2881 3666 2632 3958 
Q 2384 4250 1959 4250 
Q 1534 4250 1286 3958 
Q 1038 3666 1038 3163 
Q 1038 2656 1286 2365 
Q 1534 2075 1959 2075 
z
" transform="scale(0.015625)"/>
      </defs>
      <use xlink:href="#DejaVuSans-52"/>
      <use xlink:href="#DejaVuSans-61" x="67.232422"/>
      <use xlink:href="#DejaVuSans-6e" x="128.511719"/>
      <use xlink:href="#DejaVuSans-64" x="191.890625"/>
      <use xlink:href="#DejaVuSans-6f" x="255.367188"/>
      <use xlink:href="#DejaVuSans-6d" x="316.548828"/>
      <use xlink:href="#DejaVuSans-20" x="413.960938"/>
      <use xlink:href="#DejaVuSans-46" x="445.748047"/>
      <use xlink:href="#DejaVuSans-6f" x="499.642578"/>
      <use xlink:href="#DejaVuSans-72" x="560.824219"/>
      <use xlink:href="#DejaVuSans-65" x="599.6875"/>
      <use xlink:href="#DejaVuSans-73" x="661.210938"/>
      <use xlink:href="#DejaVuSans-74" x="713.310547"/>
      <use xlink:href="#DejaVuSans-20" x="752.519531"/>
      <use xlink:href="#DejaVuSans-28" x="784.306641"/>
      <use xlink:href="#DejaVuSans-41" x="823.320312"/>
      <use xlink:href="#DejaVuSans-50" x="891.728516"/>
      <use xlink:href="#DejaVuSans-20" x="952.03125"/>
      <use xlink:href="#DejaVuSans-3d" x="983.818359"/>
      <use xlink:href="#DejaVuSans-20" x="1067.607422"/>
      <use xlink:href="#DejaVuSans-30" x="1099.394531"/>
      <use xlink:href="#DejaVuSans-2e" x="1163.017578"/>
      <use xlink:href="#DejaVuSans-38" x="1194.804688"/>
      <use xlink:href="#DejaVuSans-39" x="1258.427734"/>
      <use xlink:href="#DejaVuSans-29" x="1322.050781"/>
     </g>
    </g>
   </g>
  </g>
 </g>
 <defs>
  <clipPath id="p826838a85f">
   <rect x="57.6" y="41.472" width="357.12" height="266.112"/>
  </clipPath>
 </defs>
</svg>
