<?xml version="1.0" encoding="utf-8" standalone="no"?>
<!DOCTYPE svg PUBLIC "-//W3C//DTD SVG 1.1//EN"
  "http://www.w3.org/Graphics/SVG/1.1/DTD/svg11.dtd">
<svg xmlns:xlink="http://www.w3.org/1999/xlink" width="460.8pt" height="345.6pt" viewBox="0 0 460.8 345.6" xmlns="http://www.w3.org/2000/svg" version="1.1">
 <metadata>
  <rdf:RDF xmlns:dc="http://purl.org/dc/elements/1.1/" xmlns:cc="http://creativecommons.org/ns#" xmlns:rdf="http://www.w3.org/1999/02/22-rdf-syntax-ns#">
   <cc:Work>
    <dc:type rdf:resource="http://purl.org/dc/dcmitype/StillImage"/>
    <dc:date>2022-11-22T16:02:15.092597</dc:date>
    <dc:format>image/svg+xml</dc:format>
    <dc:creator>
     <cc:Agent>
      <dc:title>Matplotlib v3.5.2, https://matplotlib.org/</dc:title>
     </cc:Agent>
    </dc:creator>
   </cc:Work>
  </rdf:RDF>
 </metadata>
 <defs>
  <style type="text/css">*{stroke-linejoin: round; stroke-linecap: butt}</style>
 </defs>
 <g id="figure_1">
  <g id="patch_1">
   <path d="M 0 345.6 
L 460.8 345.6 
L 460.8 0 
L 0 0 
z
" style="fill: #ffffff"/>
  </g>
  <g id="axes_1">
   <g id="patch_2">
    <path d="M 57.6 307.584 
L 414.72 307.584 
L 414.72 41.472 
L 57.6 41.472 
z
" style="fill: #eaeaf2"/>
   </g>
   <g id="matplotlib.axis_1">
    <g id="xtick_1">
     <g id="line2d_1">
      <path d="M 73.832727 307.584 
L 73.832727 41.472 
" clip-path="url(#p3f56161b5c)" style="fill: none; stroke: #ffffff; stroke-linecap: round"/>
     </g>
     <g id="text_1">
      <!-- 0.0 -->
      <g style="fill: #262626" transform="translate(47.592571 342.158844)scale(0.33 -0.33)">
       <defs>
        <path id="DejaVuSans-30" d="M 2034 4250 
Q 1547 4250 1301 3770 
Q 1056 3291 1056 2328 
Q 1056 1369 1301 889 
Q 1547 409 2034 409 
Q 2525 409 2770 889 
Q 3016 1369 3016 2328 
Q 3016 3291 2770 3770 
Q 2525 4250 2034 4250 
z
M 2034 4750 
Q 2819 4750 3233 4129 
Q 3647 3509 3647 2328 
Q 3647 1150 3233 529 
Q 2819 -91 2034 -91 
Q 1250 -91 836 529 
Q 422 1150 422 2328 
Q 422 3509 836 4129 
Q 1250 4750 2034 4750 
z
" transform="scale(0.015625)"/>
        <path id="DejaVuSans-2e" d="M 684 794 
L 1344 794 
L 1344 0 
L 684 0 
L 684 794 
z
" transform="scale(0.015625)"/>
       </defs>
       <use xlink:href="#DejaVuSans-30"/>
       <use xlink:href="#DejaVuSans-2e" x="63.623047"/>
       <use xlink:href="#DejaVuSans-30" x="95.410156"/>
      </g>
     </g>
    </g>
    <g id="xtick_2">
     <g id="line2d_2">
      <path d="M 236.16 307.584 
L 236.16 41.472 
" clip-path="url(#p3f56161b5c)" style="fill: none; stroke: #ffffff; stroke-linecap: round"/>
     </g>
     <g id="text_2">
      <!-- 0.5 -->
      <g style="fill: #262626" transform="translate(209.919844 342.158844)scale(0.33 -0.33)">
       <defs>
        <path id="DejaVuSans-35" d="M 691 4666 
L 3169 4666 
L 3169 4134 
L 1269 4134 
L 1269 2991 
Q 1406 3038 1543 3061 
Q 1681 3084 1819 3084 
Q 2600 3084 3056 2656 
Q 3513 2228 3513 1497 
Q 3513 744 3044 326 
Q 2575 -91 1722 -91 
Q 1428 -91 1123 -41 
Q 819 9 494 109 
L 494 744 
Q 775 591 1075 516 
Q 1375 441 1709 441 
Q 2250 441 2565 725 
Q 2881 1009 2881 1497 
Q 2881 1984 2565 2268 
Q 2250 2553 1709 2553 
Q 1456 2553 1204 2497 
Q 953 2441 691 2322 
L 691 4666 
z
" transform="scale(0.015625)"/>
       </defs>
       <use xlink:href="#DejaVuSans-30"/>
       <use xlink:href="#DejaVuSans-2e" x="63.623047"/>
       <use xlink:href="#DejaVuSans-35" x="95.410156"/>
      </g>
     </g>
    </g>
    <g id="xtick_3">
     <g id="line2d_3">
      <path d="M 398.487273 307.584 
L 398.487273 41.472 
" clip-path="url(#p3f56161b5c)" style="fill: none; stroke: #ffffff; stroke-linecap: round"/>
     </g>
     <g id="text_3">
      <!-- 1.0 -->
      <g style="fill: #262626" transform="translate(372.247116 342.158844)scale(0.33 -0.33)">
       <defs>
        <path id="DejaVuSans-31" d="M 794 531 
L 1825 531 
L 1825 4091 
L 703 3866 
L 703 4441 
L 1819 4666 
L 2450 4666 
L 2450 531 
L 3481 531 
L 3481 0 
L 794 0 
L 794 531 
z
" transform="scale(0.015625)"/>
       </defs>
       <use xlink:href="#DejaVuSans-31"/>
       <use xlink:href="#DejaVuSans-2e" x="63.623047"/>
       <use xlink:href="#DejaVuSans-30" x="95.410156"/>
      </g>
     </g>
    </g>
    <g id="text_4">
     <!-- Recall (Positive label: 1.0) -->
     <g style="fill: #262626" transform="translate(3.647813 380.376187)scale(0.36 -0.36)">
      <defs>
       <path id="DejaVuSans-52" d="M 2841 2188 
Q 3044 2119 3236 1894 
Q 3428 1669 3622 1275 
L 4263 0 
L 3584 0 
L 2988 1197 
Q 2756 1666 2539 1819 
Q 2322 1972 1947 1972 
L 1259 1972 
L 1259 0 
L 628 0 
L 628 4666 
L 2053 4666 
Q 2853 4666 3247 4331 
Q 3641 3997 3641 3322 
Q 3641 2881 3436 2590 
Q 3231 2300 2841 2188 
z
M 1259 4147 
L 1259 2491 
L 2053 2491 
Q 2509 2491 2742 2702 
Q 2975 2913 2975 3322 
Q 2975 3731 2742 3939 
Q 2509 4147 2053 4147 
L 1259 4147 
z
" transform="scale(0.015625)"/>
       <path id="DejaVuSans-65" d="M 3597 1894 
L 3597 1613 
L 953 1613 
Q 991 1019 1311 708 
Q 1631 397 2203 397 
Q 2534 397 2845 478 
Q 3156 559 3463 722 
L 3463 178 
Q 3153 47 2828 -22 
Q 2503 -91 2169 -91 
Q 1331 -91 842 396 
Q 353 884 353 1716 
Q 353 2575 817 3079 
Q 1281 3584 2069 3584 
Q 2775 3584 3186 3129 
Q 3597 2675 3597 1894 
z
M 3022 2063 
Q 3016 2534 2758 2815 
Q 2500 3097 2075 3097 
Q 1594 3097 1305 2825 
Q 1016 2553 972 2059 
L 3022 2063 
z
" transform="scale(0.015625)"/>
       <path id="DejaVuSans-63" d="M 3122 3366 
L 3122 2828 
Q 2878 2963 2633 3030 
Q 2388 3097 2138 3097 
Q 1578 3097 1268 2742 
Q 959 2388 959 1747 
Q 959 1106 1268 751 
Q 1578 397 2138 397 
Q 2388 397 2633 464 
Q 2878 531 3122 666 
L 3122 134 
Q 2881 22 2623 -34 
Q 2366 -91 2075 -91 
Q 1284 -91 818 406 
Q 353 903 353 1747 
Q 353 2603 823 3093 
Q 1294 3584 2113 3584 
Q 2378 3584 2631 3529 
Q 2884 3475 3122 3366 
z
" transform="scale(0.015625)"/>
       <path id="DejaVuSans-61" d="M 2194 1759 
Q 1497 1759 1228 1600 
Q 959 1441 959 1056 
Q 959 750 1161 570 
Q 1363 391 1709 391 
Q 2188 391 2477 730 
Q 2766 1069 2766 1631 
L 2766 1759 
L 2194 1759 
z
M 3341 1997 
L 3341 0 
L 2766 0 
L 2766 531 
Q 2569 213 2275 61 
Q 1981 -91 1556 -91 
Q 1019 -91 701 211 
Q 384 513 384 1019 
Q 384 1609 779 1909 
Q 1175 2209 1959 2209 
L 2766 2209 
L 2766 2266 
Q 2766 2663 2505 2880 
Q 2244 3097 1772 3097 
Q 1472 3097 1187 3025 
Q 903 2953 641 2809 
L 641 3341 
Q 956 3463 1253 3523 
Q 1550 3584 1831 3584 
Q 2591 3584 2966 3190 
Q 3341 2797 3341 1997 
z
" transform="scale(0.015625)"/>
       <path id="DejaVuSans-6c" d="M 603 4863 
L 1178 4863 
L 1178 0 
L 603 0 
L 603 4863 
z
" transform="scale(0.015625)"/>
       <path id="DejaVuSans-20" transform="scale(0.015625)"/>
       <path id="DejaVuSans-28" d="M 1984 4856 
Q 1566 4138 1362 3434 
Q 1159 2731 1159 2009 
Q 1159 1288 1364 580 
Q 1569 -128 1984 -844 
L 1484 -844 
Q 1016 -109 783 600 
Q 550 1309 550 2009 
Q 550 2706 781 3412 
Q 1013 4119 1484 4856 
L 1984 4856 
z
" transform="scale(0.015625)"/>
       <path id="DejaVuSans-50" d="M 1259 4147 
L 1259 2394 
L 2053 2394 
Q 2494 2394 2734 2622 
Q 2975 2850 2975 3272 
Q 2975 3691 2734 3919 
Q 2494 4147 2053 4147 
L 1259 4147 
z
M 628 4666 
L 2053 4666 
Q 2838 4666 3239 4311 
Q 3641 3956 3641 3272 
Q 3641 2581 3239 2228 
Q 2838 1875 2053 1875 
L 1259 1875 
L 1259 0 
L 628 0 
L 628 4666 
z
" transform="scale(0.015625)"/>
       <path id="DejaVuSans-6f" d="M 1959 3097 
Q 1497 3097 1228 2736 
Q 959 2375 959 1747 
Q 959 1119 1226 758 
Q 1494 397 1959 397 
Q 2419 397 2687 759 
Q 2956 1122 2956 1747 
Q 2956 2369 2687 2733 
Q 2419 3097 1959 3097 
z
M 1959 3584 
Q 2709 3584 3137 3096 
Q 3566 2609 3566 1747 
Q 3566 888 3137 398 
Q 2709 -91 1959 -91 
Q 1206 -91 779 398 
Q 353 888 353 1747 
Q 353 2609 779 3096 
Q 1206 3584 1959 3584 
z
" transform="scale(0.015625)"/>
       <path id="DejaVuSans-73" d="M 2834 3397 
L 2834 2853 
Q 2591 2978 2328 3040 
Q 2066 3103 1784 3103 
Q 1356 3103 1142 2972 
Q 928 2841 928 2578 
Q 928 2378 1081 2264 
Q 1234 2150 1697 2047 
L 1894 2003 
Q 2506 1872 2764 1633 
Q 3022 1394 3022 966 
Q 3022 478 2636 193 
Q 2250 -91 1575 -91 
Q 1294 -91 989 -36 
Q 684 19 347 128 
L 347 722 
Q 666 556 975 473 
Q 1284 391 1588 391 
Q 1994 391 2212 530 
Q 2431 669 2431 922 
Q 2431 1156 2273 1281 
Q 2116 1406 1581 1522 
L 1381 1569 
Q 847 1681 609 1914 
Q 372 2147 372 2553 
Q 372 3047 722 3315 
Q 1072 3584 1716 3584 
Q 2034 3584 2315 3537 
Q 2597 3491 2834 3397 
z
" transform="scale(0.015625)"/>
       <path id="DejaVuSans-69" d="M 603 3500 
L 1178 3500 
L 1178 0 
L 603 0 
L 603 3500 
z
M 603 4863 
L 1178 4863 
L 1178 4134 
L 603 4134 
L 603 4863 
z
" transform="scale(0.015625)"/>
       <path id="DejaVuSans-74" d="M 1172 4494 
L 1172 3500 
L 2356 3500 
L 2356 3053 
L 1172 3053 
L 1172 1153 
Q 1172 725 1289 603 
Q 1406 481 1766 481 
L 2356 481 
L 2356 0 
L 1766 0 
Q 1100 0 847 248 
Q 594 497 594 1153 
L 594 3053 
L 172 3053 
L 172 3500 
L 594 3500 
L 594 4494 
L 1172 4494 
z
" transform="scale(0.015625)"/>
       <path id="DejaVuSans-76" d="M 191 3500 
L 800 3500 
L 1894 563 
L 2988 3500 
L 3597 3500 
L 2284 0 
L 1503 0 
L 191 3500 
z
" transform="scale(0.015625)"/>
       <path id="DejaVuSans-62" d="M 3116 1747 
Q 3116 2381 2855 2742 
Q 2594 3103 2138 3103 
Q 1681 3103 1420 2742 
Q 1159 2381 1159 1747 
Q 1159 1113 1420 752 
Q 1681 391 2138 391 
Q 2594 391 2855 752 
Q 3116 1113 3116 1747 
z
M 1159 2969 
Q 1341 3281 1617 3432 
Q 1894 3584 2278 3584 
Q 2916 3584 3314 3078 
Q 3713 2572 3713 1747 
Q 3713 922 3314 415 
Q 2916 -91 2278 -91 
Q 1894 -91 1617 61 
Q 1341 213 1159 525 
L 1159 0 
L 581 0 
L 581 4863 
L 1159 4863 
L 1159 2969 
z
" transform="scale(0.015625)"/>
       <path id="DejaVuSans-3a" d="M 750 794 
L 1409 794 
L 1409 0 
L 750 0 
L 750 794 
z
M 750 3309 
L 1409 3309 
L 1409 2516 
L 750 2516 
L 750 3309 
z
" transform="scale(0.015625)"/>
       <path id="DejaVuSans-29" d="M 513 4856 
L 1013 4856 
Q 1481 4119 1714 3412 
Q 1947 2706 1947 2009 
Q 1947 1309 1714 600 
Q 1481 -109 1013 -844 
L 513 -844 
Q 928 -128 1133 580 
Q 1338 1288 1338 2009 
Q 1338 2731 1133 3434 
Q 928 4138 513 4856 
z
" transform="scale(0.015625)"/>
      </defs>
      <use xlink:href="#DejaVuSans-52"/>
      <use xlink:href="#DejaVuSans-65" x="64.982422"/>
      <use xlink:href="#DejaVuSans-63" x="126.505859"/>
      <use xlink:href="#DejaVuSans-61" x="181.486328"/>
      <use xlink:href="#DejaVuSans-6c" x="242.765625"/>
      <use xlink:href="#DejaVuSans-6c" x="270.548828"/>
      <use xlink:href="#DejaVuSans-20" x="298.332031"/>
      <use xlink:href="#DejaVuSans-28" x="330.119141"/>
      <use xlink:href="#DejaVuSans-50" x="369.132812"/>
      <use xlink:href="#DejaVuSans-6f" x="425.810547"/>
      <use xlink:href="#DejaVuSans-73" x="486.992188"/>
      <use xlink:href="#DejaVuSans-69" x="539.091797"/>
      <use xlink:href="#DejaVuSans-74" x="566.875"/>
      <use xlink:href="#DejaVuSans-69" x="606.083984"/>
      <use xlink:href="#DejaVuSans-76" x="633.867188"/>
      <use xlink:href="#DejaVuSans-65" x="693.046875"/>
      <use xlink:href="#DejaVuSans-20" x="754.570312"/>
      <use xlink:href="#DejaVuSans-6c" x="786.357422"/>
      <use xlink:href="#DejaVuSans-61" x="814.140625"/>
      <use xlink:href="#DejaVuSans-62" x="875.419922"/>
      <use xlink:href="#DejaVuSans-65" x="938.896484"/>
      <use xlink:href="#DejaVuSans-6c" x="1000.419922"/>
      <use xlink:href="#DejaVuSans-3a" x="1028.203125"/>
      <use xlink:href="#DejaVuSans-20" x="1061.894531"/>
      <use xlink:href="#DejaVuSans-31" x="1093.681641"/>
      <use xlink:href="#DejaVuSans-2e" x="1157.304688"/>
      <use xlink:href="#DejaVuSans-30" x="1189.091797"/>
      <use xlink:href="#DejaVuSans-29" x="1252.714844"/>
     </g>
    </g>
   </g>
   <g id="matplotlib.axis_2">
    <g id="ytick_1">
     <g id="line2d_4">
      <path d="M 57.6 184.565583 
L 414.72 184.565583 
" clip-path="url(#p3f56161b5c)" style="fill: none; stroke: #ffffff; stroke-linecap: round"/>
     </g>
     <g id="text_5">
      <!-- 0.5 -->
      <g style="fill: #262626" transform="translate(-4.380313 197.103005)scale(0.33 -0.33)">
       <use xlink:href="#DejaVuSans-30"/>
       <use xlink:href="#DejaVuSans-2e" x="63.623047"/>
       <use xlink:href="#DejaVuSans-35" x="95.410156"/>
      </g>
     </g>
    </g>
    <g id="ytick_2">
     <g id="line2d_5">
      <path d="M 57.6 53.568 
L 414.72 53.568 
" clip-path="url(#p3f56161b5c)" style="fill: none; stroke: #ffffff; stroke-linecap: round"/>
     </g>
     <g id="text_6">
      <!-- 1.0 -->
      <g style="fill: #262626" transform="translate(-4.380313 66.105422)scale(0.33 -0.33)">
       <use xlink:href="#DejaVuSans-31"/>
       <use xlink:href="#DejaVuSans-2e" x="63.623047"/>
       <use xlink:href="#DejaVuSans-30" x="95.410156"/>
      </g>
     </g>
    </g>
    <g id="text_7">
     <!-- Precision (Positive label: 1.0) -->
     <g style="fill: #262626" transform="translate(-15.867188 433.643625)rotate(-90)scale(0.36 -0.36)">
      <defs>
       <path id="DejaVuSans-72" d="M 2631 2963 
Q 2534 3019 2420 3045 
Q 2306 3072 2169 3072 
Q 1681 3072 1420 2755 
Q 1159 2438 1159 1844 
L 1159 0 
L 581 0 
L 581 3500 
L 1159 3500 
L 1159 2956 
Q 1341 3275 1631 3429 
Q 1922 3584 2338 3584 
Q 2397 3584 2469 3576 
Q 2541 3569 2628 3553 
L 2631 2963 
z
" transform="scale(0.015625)"/>
       <path id="DejaVuSans-6e" d="M 3513 2113 
L 3513 0 
L 2938 0 
L 2938 2094 
Q 2938 2591 2744 2837 
Q 2550 3084 2163 3084 
Q 1697 3084 1428 2787 
Q 1159 2491 1159 1978 
L 1159 0 
L 581 0 
L 581 3500 
L 1159 3500 
L 1159 2956 
Q 1366 3272 1645 3428 
Q 1925 3584 2291 3584 
Q 2894 3584 3203 3211 
Q 3513 2838 3513 2113 
z
" transform="scale(0.015625)"/>
      </defs>
      <use xlink:href="#DejaVuSans-50"/>
      <use xlink:href="#DejaVuSans-72" x="58.552734"/>
      <use xlink:href="#DejaVuSans-65" x="97.416016"/>
      <use xlink:href="#DejaVuSans-63" x="158.939453"/>
      <use xlink:href="#DejaVuSans-69" x="213.919922"/>
      <use xlink:href="#DejaVuSans-73" x="241.703125"/>
      <use xlink:href="#DejaVuSans-69" x="293.802734"/>
      <use xlink:href="#DejaVuSans-6f" x="321.585938"/>
      <use xlink:href="#DejaVuSans-6e" x="382.767578"/>
      <use xlink:href="#DejaVuSans-20" x="446.146484"/>
      <use xlink:href="#DejaVuSans-28" x="477.933594"/>
      <use xlink:href="#DejaVuSans-50" x="516.947266"/>
      <use xlink:href="#DejaVuSans-6f" x="573.625"/>
      <use xlink:href="#DejaVuSans-73" x="634.806641"/>
      <use xlink:href="#DejaVuSans-69" x="686.90625"/>
      <use xlink:href="#DejaVuSans-74" x="714.689453"/>
      <use xlink:href="#DejaVuSans-69" x="753.898438"/>
      <use xlink:href="#DejaVuSans-76" x="781.681641"/>
      <use xlink:href="#DejaVuSans-65" x="840.861328"/>
      <use xlink:href="#DejaVuSans-20" x="902.384766"/>
      <use xlink:href="#DejaVuSans-6c" x="934.171875"/>
      <use xlink:href="#DejaVuSans-61" x="961.955078"/>
      <use xlink:href="#DejaVuSans-62" x="1023.234375"/>
      <use xlink:href="#DejaVuSans-65" x="1086.710938"/>
      <use xlink:href="#DejaVuSans-6c" x="1148.234375"/>
      <use xlink:href="#DejaVuSans-3a" x="1176.017578"/>
      <use xlink:href="#DejaVuSans-20" x="1209.708984"/>
      <use xlink:href="#DejaVuSans-31" x="1241.496094"/>
      <use xlink:href="#DejaVuSans-2e" x="1305.119141"/>
      <use xlink:href="#DejaVuSans-30" x="1336.90625"/>
      <use xlink:href="#DejaVuSans-29" x="1400.529297"/>
     </g>
    </g>
   </g>
   <g id="line2d_6">
    <path d="M 398.487273 295.488 
L 398.487273 117.611263 
L 398.322641 117.611263 
L 398.322641 117.483967 
L 398.158008 117.483967 
L 398.158008 117.356378 
L 397.993376 117.356378 
L 397.993376 117.152211 
L 397.49948 117.048339 
L 397.49948 116.919704 
L 397.334848 116.919704 
L 397.334848 116.790772 
L 396.676319 116.710355 
L 396.676319 116.657815 
L 396.347055 116.68225 
L 396.347055 116.475295 
L 395.029998 116.414192 
L 395.029998 116.283412 
L 394.865366 116.283412 
L 394.865366 116.152325 
L 394.37147 116.123313 
L 394.37147 115.991731 
L 394.206838 115.991731 
L 394.206838 115.859839 
L 394.042205 115.859839 
L 394.042205 115.727637 
L 393.877573 115.727637 
L 393.877573 115.595124 
L 393.712941 115.595124 
L 393.712941 115.462298 
L 393.548309 115.462298 
L 393.548309 115.329159 
L 393.383677 115.329159 
L 393.383677 115.195704 
L 392.889781 115.086202 
L 392.889781 115.031321 
L 392.395884 114.921298 
L 392.395884 114.866156 
L 391.737356 114.779881 
L 391.737356 114.724474 
L 391.078827 114.637677 
L 391.078827 114.582002 
L 390.749563 114.526238 
L 390.749563 114.470385 
L 390.420299 114.414443 
L 390.420299 114.358412 
L 390.091034 114.302291 
L 390.091034 114.24608 
L 389.432506 114.157664 
L 389.432506 114.101179 
L 389.103242 114.044604 
L 389.103242 113.987938 
L 388.773978 113.931181 
L 388.773978 113.874332 
L 388.115449 113.784631 
L 388.115449 113.727503 
L 387.786185 113.670284 
L 387.786185 113.612971 
L 387.456921 113.555566 
L 387.456921 113.498068 
L 387.127656 113.440477 
L 387.127656 113.382793 
L 386.798392 113.325014 
L 386.798392 113.267142 
L 386.469128 113.209176 
L 386.469128 113.151115 
L 386.139864 113.09296 
L 386.139864 113.03471 
L 385.810599 112.976365 
L 385.810599 112.917925 
L 385.316703 112.85939 
L 385.316703 112.742031 
L 384.987439 112.683207 
L 384.987439 112.624287 
L 384.658174 112.565271 
L 384.658174 112.506157 
L 384.32891 112.506157 
L 384.32891 112.220416 
L 383.999646 112.160823 
L 383.999646 112.101133 
L 383.670382 112.041344 
L 383.670382 111.981456 
L 383.341117 111.921469 
L 383.341117 111.861383 
L 383.011853 111.801197 
L 383.011853 111.740912 
L 382.682589 111.680526 
L 382.682589 111.620041 
L 382.188693 111.559455 
L 382.188693 111.268018 
L 381.859428 111.206936 
L 381.859428 111.145753 
L 381.530164 111.084468 
L 381.530164 111.02308 
L 381.2009 110.96159 
L 381.2009 110.899997 
L 380.871636 110.8383 
L 380.871636 110.7765 
L 380.542371 110.714597 
L 380.542371 110.652589 
L 380.213107 110.590477 
L 380.213107 110.528261 
L 379.883843 110.46594 
L 379.883843 110.403514 
L 379.554579 110.340983 
L 379.554579 110.278346 
L 379.225314 110.215603 
L 379.225314 110.152755 
L 378.566786 110.050651 
L 378.566786 109.987476 
L 378.237522 109.924194 
L 378.237522 109.860804 
L 377.908257 109.797307 
L 377.908257 109.733701 
L 377.578993 109.669987 
L 377.578993 109.606165 
L 377.249729 109.542234 
L 377.249729 109.478193 
L 376.920465 109.414043 
L 376.920465 109.349784 
L 376.5912 109.285414 
L 376.5912 109.220935 
L 376.261936 109.156344 
L 376.261936 109.091643 
L 375.932672 109.026831 
L 375.932672 108.961907 
L 375.603408 108.896872 
L 375.603408 108.831724 
L 375.274143 108.766464 
L 375.274143 108.701092 
L 374.944879 108.635607 
L 374.944879 108.570009 
L 374.286351 108.462225 
L 374.286351 108.396278 
L 373.957086 108.330216 
L 373.957086 108.264039 
L 373.627822 108.197748 
L 373.627822 108.131341 
L 373.298558 108.064819 
L 373.298558 107.99818 
L 372.475397 107.911975 
L 372.475397 107.844971 
L 372.146133 107.777848 
L 372.146133 107.710609 
L 371.816869 107.643251 
L 371.816869 107.575775 
L 371.487605 107.508181 
L 371.487605 107.440468 
L 371.15834 107.372636 
L 371.15834 107.304685 
L 370.829076 107.236613 
L 370.829076 107.168422 
L 370.499812 107.168422 
L 370.499812 107.031678 
L 370.170548 106.963124 
L 370.170548 106.89445 
L 369.841283 106.825653 
L 369.841283 106.756735 
L 369.182755 106.711272 
L 369.182755 106.572802 
L 368.853491 106.503383 
L 368.853491 106.43384 
L 368.524226 106.364173 
L 368.524226 106.294381 
L 368.194962 106.224465 
L 368.194962 106.154424 
L 367.865698 106.084257 
L 367.865698 106.013965 
L 367.536434 105.943546 
L 367.536434 105.873002 
L 367.207169 105.80233 
L 367.207169 105.731532 
L 366.877905 105.660606 
L 366.877905 105.589553 
L 366.548641 105.518371 
L 366.548641 105.447061 
L 366.219377 105.375622 
L 366.219377 105.304054 
L 365.890112 105.232357 
L 365.890112 105.160529 
L 365.560848 105.088572 
L 365.560848 105.016484 
L 365.231584 104.944265 
L 365.231584 104.871915 
L 364.90232 104.871915 
L 364.90232 104.726819 
L 364.573056 104.654073 
L 364.573056 104.581195 
L 364.243791 104.508183 
L 364.243791 104.435038 
L 363.749895 104.384995 
L 363.749895 104.311569 
L 363.420631 104.238009 
L 363.420631 104.164314 
L 363.091366 104.090484 
L 363.091366 104.016518 
L 362.762102 103.942416 
L 362.762102 103.868177 
L 362.432838 103.793801 
L 362.432838 103.719289 
L 362.103574 103.644638 
L 362.103574 103.56985 
L 361.774309 103.494923 
L 361.774309 103.419858 
L 361.445045 103.344653 
L 361.445045 103.269309 
L 361.115781 103.193825 
L 361.115781 103.118201 
L 360.786517 103.042436 
L 360.786517 102.96653 
L 360.457252 102.890482 
L 360.457252 102.814293 
L 360.127988 102.737961 
L 360.127988 102.661487 
L 359.798724 102.584869 
L 359.798724 102.508108 
L 359.46946 102.431203 
L 359.46946 102.354154 
L 359.140195 102.27696 
L 359.140195 102.199621 
L 358.810931 102.122137 
L 358.810931 102.044507 
L 358.481667 101.96673 
L 358.481667 101.888807 
L 358.152403 101.810736 
L 358.152403 101.732518 
L 357.823138 101.654152 
L 357.823138 101.575637 
L 357.493874 101.496973 
L 357.493874 101.418161 
L 356.835346 101.339198 
L 356.835346 101.101409 
L 356.506082 101.021843 
L 356.506082 100.942126 
L 356.176817 100.862256 
L 356.176817 100.782234 
L 355.847553 100.702059 
L 355.847553 100.621729 
L 355.353657 100.621729 
L 355.353657 100.379816 
L 354.85976 100.321346 
L 354.85976 100.240225 
L 354.365864 100.181412 
L 354.365864 100.09996 
L 354.0366 100.018351 
L 354.0366 99.936584 
L 353.707335 99.854658 
L 353.707335 99.772574 
L 353.378071 99.69033 
L 353.378071 99.607927 
L 353.048807 99.607927 
L 353.048807 99.44264 
L 352.719543 99.359755 
L 352.719543 99.276708 
L 352.225646 99.1935 
L 352.225646 99.026594 
L 351.896382 98.942897 
L 351.896382 98.859035 
L 351.237854 98.819373 
L 351.237854 98.735143 
L 350.908589 98.650747 
L 350.908589 98.566185 
L 350.414693 98.481457 
L 350.414693 98.311498 
L 350.085429 98.226267 
L 350.085429 98.140867 
L 349.756164 98.140867 
L 349.756164 97.969559 
L 349.4269 97.883651 
L 349.4269 97.797571 
L 349.097636 97.711321 
L 349.097636 97.624899 
L 348.768372 97.538304 
L 348.768372 97.451537 
L 348.439108 97.364597 
L 348.439108 97.277483 
L 348.109843 97.190195 
L 348.109843 97.102732 
L 347.780579 97.015094 
L 347.780579 96.92728 
L 347.451315 96.83929 
L 347.451315 96.751123 
L 347.122051 96.662778 
L 347.122051 96.574256 
L 346.628154 96.485555 
L 346.628154 96.307615 
L 346.29889 96.218376 
L 346.29889 96.128956 
L 345.969626 96.039354 
L 345.969626 95.949571 
L 345.640361 95.859605 
L 345.640361 95.769457 
L 345.311097 95.679125 
L 345.311097 95.58861 
L 344.981833 95.497909 
L 344.981833 95.407024 
L 344.652569 95.315953 
L 344.652569 95.224696 
L 344.323304 95.133251 
L 344.323304 95.04162 
L 343.829408 94.949801 
L 343.829408 94.765595 
L 343.500144 94.673209 
L 343.500144 94.580632 
L 343.17088 94.487864 
L 343.17088 94.394904 
L 342.841615 94.301753 
L 342.841615 94.208408 
L 342.512351 94.114871 
L 342.512351 94.02114 
L 341.853823 93.948158 
L 341.853823 93.759666 
L 341.524558 93.665126 
L 341.524558 93.570389 
L 341.195294 93.475454 
L 341.195294 93.38032 
L 340.86603 93.284988 
L 340.86603 93.189456 
L 340.536766 93.189456 
L 340.536766 92.997792 
L 340.207501 92.901657 
L 340.207501 92.805321 
L 339.878237 92.708782 
L 339.878237 92.61204 
L 339.384341 92.515094 
L 339.384341 92.320587 
L 339.055077 92.223024 
L 339.055077 92.125256 
L 338.56118 92.02728 
L 338.56118 91.830703 
L 337.902652 91.772723 
L 337.902652 91.67385 
L 337.573387 91.574765 
L 337.573387 91.475469 
L 337.244123 91.375961 
L 337.244123 91.276239 
L 336.914859 91.176304 
L 336.914859 91.076155 
L 336.585595 90.975791 
L 336.585595 90.875211 
L 336.25633 90.774414 
L 336.25633 90.6734 
L 335.927066 90.572169 
L 335.927066 90.470719 
L 335.597802 90.36905 
L 335.597802 90.267161 
L 335.268538 90.165051 
L 335.268538 90.06272 
L 334.939273 89.960166 
L 334.939273 89.85739 
L 334.610009 89.75439 
L 334.610009 89.651167 
L 334.116113 89.651167 
L 334.116113 89.340142 
L 333.786849 89.236013 
L 333.786849 89.131657 
L 333.292952 89.131657 
L 333.292952 88.817212 
L 332.30516 88.711936 
L 332.30516 88.182066 
L 331.975895 88.075388 
L 331.975895 87.968473 
L 331.317367 87.968473 
L 331.317367 87.538436 
L 330.82347 87.430328 
L 330.82347 87.213387 
L 330.494206 87.104553 
L 330.494206 86.995475 
L 330.164942 86.886153 
L 330.164942 86.776585 
L 329.671046 86.776585 
L 329.671046 86.446403 
L 329.341781 86.335846 
L 329.341781 86.22504 
L 329.012517 86.113983 
L 329.012517 86.002676 
L 328.683253 86.002676 
L 328.683253 85.779304 
L 328.518621 85.779304 
L 328.518621 85.667238 
L 328.353989 85.667238 
L 328.353989 85.554917 
L 328.189356 85.554917 
L 328.189356 85.442341 
L 327.860092 85.442341 
L 327.860092 85.216419 
L 327.69546 85.216419 
L 327.69546 85.103071 
L 327.366196 85.103071 
L 327.366196 84.875598 
L 327.036932 84.875598 
L 327.036932 84.647083 
L 326.707667 84.647083 
L 326.707667 84.417517 
L 326.378403 84.417517 
L 326.378403 84.186894 
L 326.213771 84.186894 
L 326.213771 84.071184 
L 326.049139 84.071184 
L 326.049139 83.955206 
L 325.884507 83.955206 
L 325.884507 83.838961 
L 325.225978 83.838961 
L 325.225978 83.371281 
L 324.732082 83.371281 
L 324.732082 83.01766 
L 324.238186 83.01766 
L 324.238186 82.66156 
L 324.073553 82.66156 
L 324.073553 82.542304 
L 323.744289 82.542304 
L 323.744289 82.302954 
L 323.415025 82.302954 
L 323.415025 82.062477 
L 323.250393 82.062477 
L 323.250393 81.941814 
L 323.085761 81.941814 
L 323.085761 81.820867 
L 322.921129 81.820867 
L 322.921129 81.699634 
L 322.756496 81.699634 
L 322.756496 81.578115 
L 322.591864 81.578115 
L 322.591864 81.456309 
L 322.427232 81.456309 
L 322.427232 81.334214 
L 321.933336 81.334214 
L 321.933336 80.966187 
L 321.768704 80.966187 
L 321.768704 80.842928 
L 321.274807 80.842928 
L 321.274807 80.471384 
L 320.945543 80.471384 
L 320.945543 80.222206 
L 320.287015 80.222206 
L 320.287015 79.720253 
L 319.793118 79.720253 
L 319.793118 79.340608 
L 319.628486 79.340608 
L 319.628486 79.213448 
L 319.13459 79.213448 
L 319.13459 78.830117 
L 318.640693 78.830117 
L 318.640693 78.443987 
L 318.146797 78.443987 
L 318.146797 78.055025 
L 317.652901 78.055025 
L 317.652901 77.663202 
L 317.159004 77.663202 
L 317.159004 77.268486 
L 315.677315 77.268486 
L 315.677315 76.066651 
L 315.348051 76.066651 
L 315.348051 75.795912 
L 314.854155 75.809787 
L 314.854155 75.537557 
L 314.689522 75.537557 
L 314.689522 75.40093 
L 314.195626 75.40093 
L 314.195626 74.988988 
L 313.207833 74.988988 
L 313.207833 74.155706 
L 312.549305 74.155706 
L 312.549305 73.593108 
L 312.384673 73.593108 
L 312.384673 73.451562 
L 311.39688 73.451562 
L 311.39688 72.594641 
L 311.232248 72.594641 
L 311.232248 72.450534 
L 311.067616 72.450534 
L 311.067616 72.306056 
L 310.902984 72.306056 
L 310.902984 72.161205 
L 310.079823 72.161205 
L 310.079823 71.431307 
L 309.585927 71.431307 
L 309.585927 70.9888 
L 309.256662 70.9888 
L 309.256662 70.691867 
L 308.927398 70.691867 
L 308.927398 70.393378 
L 308.104238 70.393378 
L 308.104238 69.640263 
L 307.939605 69.640263 
L 307.939605 69.488446 
L 305.799388 69.488446 
L 305.799388 67.47769 
L 301.35432 67.47769 
L 301.35432 63.068522 
L 301.189688 63.068522 
L 301.189688 62.898833 
L 298.884839 62.898833 
L 298.884839 60.472431 
L 297.40315 60.472431 
L 297.40315 58.860832 
L 297.238517 58.860832 
L 297.238517 58.679177 
L 297.073885 58.679177 
L 297.073885 58.496997 
L 292.79345 58.496997 
L 292.79345 53.568 
L 73.832727 53.568 
L 73.832727 53.568 
" clip-path="url(#p3f56161b5c)" style="fill: none; stroke: #4c72b0; stroke-width: 1.5; stroke-linecap: round"/>
   </g>
   <g id="patch_3">
    <path d="M 57.6 307.584 
L 57.6 41.472 
" style="fill: none; stroke: #ffffff; stroke-width: 1.25; stroke-linejoin: miter; stroke-linecap: square"/>
   </g>
   <g id="patch_4">
    <path d="M 414.72 307.584 
L 414.72 41.472 
" style="fill: none; stroke: #ffffff; stroke-width: 1.25; stroke-linejoin: miter; stroke-linecap: square"/>
   </g>
   <g id="patch_5">
    <path d="M 57.6 307.584 
L 414.72 307.584 
" style="fill: none; stroke: #ffffff; stroke-width: 1.25; stroke-linejoin: miter; stroke-linecap: square"/>
   </g>
   <g id="patch_6">
    <path d="M 57.6 41.472 
L 414.72 41.472 
" style="fill: none; stroke: #ffffff; stroke-width: 1.25; stroke-linejoin: miter; stroke-linecap: square"/>
   </g>
   <g id="text_8">
    <!-- Precision-recall curve -->
    <g style="fill: #262626" transform="translate(44.206875 35.472)scale(0.36 -0.36)">
     <defs>
      <path id="DejaVuSans-2d" d="M 313 2009 
L 1997 2009 
L 1997 1497 
L 313 1497 
L 313 2009 
z
" transform="scale(0.015625)"/>
      <path id="DejaVuSans-75" d="M 544 1381 
L 544 3500 
L 1119 3500 
L 1119 1403 
Q 1119 906 1312 657 
Q 1506 409 1894 409 
Q 2359 409 2629 706 
Q 2900 1003 2900 1516 
L 2900 3500 
L 3475 3500 
L 3475 0 
L 2900 0 
L 2900 538 
Q 2691 219 2414 64 
Q 2138 -91 1772 -91 
Q 1169 -91 856 284 
Q 544 659 544 1381 
z
M 1991 3584 
L 1991 3584 
z
" transform="scale(0.015625)"/>
     </defs>
     <use xlink:href="#DejaVuSans-50"/>
     <use xlink:href="#DejaVuSans-72" x="58.552734"/>
     <use xlink:href="#DejaVuSans-65" x="97.416016"/>
     <use xlink:href="#DejaVuSans-63" x="158.939453"/>
     <use xlink:href="#DejaVuSans-69" x="213.919922"/>
     <use xlink:href="#DejaVuSans-73" x="241.703125"/>
     <use xlink:href="#DejaVuSans-69" x="293.802734"/>
     <use xlink:href="#DejaVuSans-6f" x="321.585938"/>
     <use xlink:href="#DejaVuSans-6e" x="382.767578"/>
     <use xlink:href="#DejaVuSans-2d" x="446.146484"/>
     <use xlink:href="#DejaVuSans-72" x="482.230469"/>
     <use xlink:href="#DejaVuSans-65" x="521.09375"/>
     <use xlink:href="#DejaVuSans-63" x="582.617188"/>
     <use xlink:href="#DejaVuSans-61" x="637.597656"/>
     <use xlink:href="#DejaVuSans-6c" x="698.876953"/>
     <use xlink:href="#DejaVuSans-6c" x="726.660156"/>
     <use xlink:href="#DejaVuSans-20" x="754.443359"/>
     <use xlink:href="#DejaVuSans-63" x="786.230469"/>
     <use xlink:href="#DejaVuSans-75" x="841.210938"/>
     <use xlink:href="#DejaVuSans-72" x="904.589844"/>
     <use xlink:href="#DejaVuSans-76" x="945.703125"/>
     <use xlink:href="#DejaVuSans-65" x="1004.882812"/>
    </g>
   </g>
   <g id="legend_1">
    <g id="patch_7">
     <path d="M 80.7 291.084 
L 635.445469 291.084 
Q 642.045469 291.084 642.045469 284.484 
L 642.045469 239.346187 
Q 642.045469 232.746187 635.445469 232.746187 
L 80.7 232.746187 
Q 74.1 232.746187 74.1 239.346187 
L 74.1 284.484 
Q 74.1 291.084 80.7 291.084 
z
" style="fill: #eaeaf2; opacity: 0.8; stroke: #cccccc; stroke-linejoin: miter"/>
    </g>
    <g id="line2d_7">
     <path d="M 87.3 259.471031 
L 120.3 259.471031 
L 120.3 259.471031 
L 153.3 259.471031 
L 153.3 259.471031 
" style="fill: none; stroke: #4c72b0; stroke-width: 1.5; stroke-linecap: round"/>
    </g>
    <g id="text_9">
     <!-- Random Forest (AP = 0.95) -->
     <g style="fill: #262626" transform="translate(179.7 271.021031)scale(0.33 -0.33)">
      <defs>
       <path id="DejaVuSans-64" d="M 2906 2969 
L 2906 4863 
L 3481 4863 
L 3481 0 
L 2906 0 
L 2906 525 
Q 2725 213 2448 61 
Q 2172 -91 1784 -91 
Q 1150 -91 751 415 
Q 353 922 353 1747 
Q 353 2572 751 3078 
Q 1150 3584 1784 3584 
Q 2172 3584 2448 3432 
Q 2725 3281 2906 2969 
z
M 947 1747 
Q 947 1113 1208 752 
Q 1469 391 1925 391 
Q 2381 391 2643 752 
Q 2906 1113 2906 1747 
Q 2906 2381 2643 2742 
Q 2381 3103 1925 3103 
Q 1469 3103 1208 2742 
Q 947 2381 947 1747 
z
" transform="scale(0.015625)"/>
       <path id="DejaVuSans-6d" d="M 3328 2828 
Q 3544 3216 3844 3400 
Q 4144 3584 4550 3584 
Q 5097 3584 5394 3201 
Q 5691 2819 5691 2113 
L 5691 0 
L 5113 0 
L 5113 2094 
Q 5113 2597 4934 2840 
Q 4756 3084 4391 3084 
Q 3944 3084 3684 2787 
Q 3425 2491 3425 1978 
L 3425 0 
L 2847 0 
L 2847 2094 
Q 2847 2600 2669 2842 
Q 2491 3084 2119 3084 
Q 1678 3084 1418 2786 
Q 1159 2488 1159 1978 
L 1159 0 
L 581 0 
L 581 3500 
L 1159 3500 
L 1159 2956 
Q 1356 3278 1631 3431 
Q 1906 3584 2284 3584 
Q 2666 3584 2933 3390 
Q 3200 3197 3328 2828 
z
" transform="scale(0.015625)"/>
       <path id="DejaVuSans-46" d="M 628 4666 
L 3309 4666 
L 3309 4134 
L 1259 4134 
L 1259 2759 
L 3109 2759 
L 3109 2228 
L 1259 2228 
L 1259 0 
L 628 0 
L 628 4666 
z
" transform="scale(0.015625)"/>
       <path id="DejaVuSans-41" d="M 2188 4044 
L 1331 1722 
L 3047 1722 
L 2188 4044 
z
M 1831 4666 
L 2547 4666 
L 4325 0 
L 3669 0 
L 3244 1197 
L 1141 1197 
L 716 0 
L 50 0 
L 1831 4666 
z
" transform="scale(0.015625)"/>
       <path id="DejaVuSans-3d" d="M 678 2906 
L 4684 2906 
L 4684 2381 
L 678 2381 
L 678 2906 
z
M 678 1631 
L 4684 1631 
L 4684 1100 
L 678 1100 
L 678 1631 
z
" transform="scale(0.015625)"/>
       <path id="DejaVuSans-39" d="M 703 97 
L 703 672 
Q 941 559 1184 500 
Q 1428 441 1663 441 
Q 2288 441 2617 861 
Q 2947 1281 2994 2138 
Q 2813 1869 2534 1725 
Q 2256 1581 1919 1581 
Q 1219 1581 811 2004 
Q 403 2428 403 3163 
Q 403 3881 828 4315 
Q 1253 4750 1959 4750 
Q 2769 4750 3195 4129 
Q 3622 3509 3622 2328 
Q 3622 1225 3098 567 
Q 2575 -91 1691 -91 
Q 1453 -91 1209 -44 
Q 966 3 703 97 
z
M 1959 2075 
Q 2384 2075 2632 2365 
Q 2881 2656 2881 3163 
Q 2881 3666 2632 3958 
Q 2384 4250 1959 4250 
Q 1534 4250 1286 3958 
Q 1038 3666 1038 3163 
Q 1038 2656 1286 2365 
Q 1534 2075 1959 2075 
z
" transform="scale(0.015625)"/>
      </defs>
      <use xlink:href="#DejaVuSans-52"/>
      <use xlink:href="#DejaVuSans-61" x="67.232422"/>
      <use xlink:href="#DejaVuSans-6e" x="128.511719"/>
      <use xlink:href="#DejaVuSans-64" x="191.890625"/>
      <use xlink:href="#DejaVuSans-6f" x="255.367188"/>
      <use xlink:href="#DejaVuSans-6d" x="316.548828"/>
      <use xlink:href="#DejaVuSans-20" x="413.960938"/>
      <use xlink:href="#DejaVuSans-46" x="445.748047"/>
      <use xlink:href="#DejaVuSans-6f" x="499.642578"/>
      <use xlink:href="#DejaVuSans-72" x="560.824219"/>
      <use xlink:href="#DejaVuSans-65" x="599.6875"/>
      <use xlink:href="#DejaVuSans-73" x="661.210938"/>
      <use xlink:href="#DejaVuSans-74" x="713.310547"/>
      <use xlink:href="#DejaVuSans-20" x="752.519531"/>
      <use xlink:href="#DejaVuSans-28" x="784.306641"/>
      <use xlink:href="#DejaVuSans-41" x="823.320312"/>
      <use xlink:href="#DejaVuSans-50" x="891.728516"/>
      <use xlink:href="#DejaVuSans-20" x="952.03125"/>
      <use xlink:href="#DejaVuSans-3d" x="983.818359"/>
      <use xlink:href="#DejaVuSans-20" x="1067.607422"/>
      <use xlink:href="#DejaVuSans-30" x="1099.394531"/>
      <use xlink:href="#DejaVuSans-2e" x="1163.017578"/>
      <use xlink:href="#DejaVuSans-39" x="1194.804688"/>
      <use xlink:href="#DejaVuSans-35" x="1258.427734"/>
      <use xlink:href="#DejaVuSans-29" x="1322.050781"/>
     </g>
    </g>
   </g>
  </g>
 </g>
 <defs>
  <clipPath id="p3f56161b5c">
   <rect x="57.6" y="41.472" width="357.12" height="266.112"/>
  </clipPath>
 </defs>
</svg>
