<?xml version="1.0" encoding="utf-8" standalone="no"?>
<!DOCTYPE svg PUBLIC "-//W3C//DTD SVG 1.1//EN"
  "http://www.w3.org/Graphics/SVG/1.1/DTD/svg11.dtd">
<svg xmlns:xlink="http://www.w3.org/1999/xlink" width="460.8pt" height="345.6pt" viewBox="0 0 460.8 345.6" xmlns="http://www.w3.org/2000/svg" version="1.1">
 <metadata>
  <rdf:RDF xmlns:dc="http://purl.org/dc/elements/1.1/" xmlns:cc="http://creativecommons.org/ns#" xmlns:rdf="http://www.w3.org/1999/02/22-rdf-syntax-ns#">
   <cc:Work>
    <dc:type rdf:resource="http://purl.org/dc/dcmitype/StillImage"/>
    <dc:date>2022-11-30T13:10:25.848950</dc:date>
    <dc:format>image/svg+xml</dc:format>
    <dc:creator>
     <cc:Agent>
      <dc:title>Matplotlib v3.5.2, https://matplotlib.org/</dc:title>
     </cc:Agent>
    </dc:creator>
   </cc:Work>
  </rdf:RDF>
 </metadata>
 <defs>
  <style type="text/css">*{stroke-linejoin: round; stroke-linecap: butt}</style>
 </defs>
 <g id="figure_1">
  <g id="patch_1">
   <path d="M 0 345.6 
L 460.8 345.6 
L 460.8 0 
L 0 0 
z
" style="fill: #ffffff"/>
  </g>
  <g id="axes_1">
   <g id="patch_2">
    <path d="M 57.6 307.584 
L 414.72 307.584 
L 414.72 41.472 
L 57.6 41.472 
z
" style="fill: #eaeaf2"/>
   </g>
   <g id="matplotlib.axis_1">
    <g id="xtick_1">
     <g id="line2d_1">
      <path d="M 71.276392 307.584 
L 71.276392 41.472 
" clip-path="url(#p8feb903c02)" style="fill: none; stroke: #ffffff; stroke-linecap: round"/>
     </g>
     <g id="text_1">
      <!-- 0 -->
      <g style="fill: #262626" transform="translate(68.217877 324.957594)scale(0.11 -0.11)">
       <defs>
        <path id="ArialMT-30" d="M 266 2259 
Q 266 3072 433 3567 
Q 600 4063 929 4331 
Q 1259 4600 1759 4600 
Q 2128 4600 2406 4451 
Q 2684 4303 2865 4023 
Q 3047 3744 3150 3342 
Q 3253 2941 3253 2259 
Q 3253 1453 3087 958 
Q 2922 463 2592 192 
Q 2263 -78 1759 -78 
Q 1097 -78 719 397 
Q 266 969 266 2259 
z
M 844 2259 
Q 844 1131 1108 757 
Q 1372 384 1759 384 
Q 2147 384 2411 759 
Q 2675 1134 2675 2259 
Q 2675 3391 2411 3762 
Q 2147 4134 1753 4134 
Q 1366 4134 1134 3806 
Q 844 3388 844 2259 
z
" transform="scale(0.015625)"/>
       </defs>
       <use xlink:href="#ArialMT-30"/>
      </g>
     </g>
    </g>
    <g id="xtick_2">
     <g id="line2d_2">
      <path d="M 122.403092 307.584 
L 122.403092 41.472 
" clip-path="url(#p8feb903c02)" style="fill: none; stroke: #ffffff; stroke-linecap: round"/>
     </g>
     <g id="text_2">
      <!-- 20 -->
      <g style="fill: #262626" transform="translate(116.286061 324.957594)scale(0.11 -0.11)">
       <defs>
        <path id="ArialMT-32" d="M 3222 541 
L 3222 0 
L 194 0 
Q 188 203 259 391 
Q 375 700 629 1000 
Q 884 1300 1366 1694 
Q 2113 2306 2375 2664 
Q 2638 3022 2638 3341 
Q 2638 3675 2398 3904 
Q 2159 4134 1775 4134 
Q 1369 4134 1125 3890 
Q 881 3647 878 3216 
L 300 3275 
Q 359 3922 746 4261 
Q 1134 4600 1788 4600 
Q 2447 4600 2831 4234 
Q 3216 3869 3216 3328 
Q 3216 3053 3103 2787 
Q 2991 2522 2730 2228 
Q 2469 1934 1863 1422 
Q 1356 997 1212 845 
Q 1069 694 975 541 
L 3222 541 
z
" transform="scale(0.015625)"/>
       </defs>
       <use xlink:href="#ArialMT-32"/>
       <use xlink:href="#ArialMT-30" x="55.615234"/>
      </g>
     </g>
    </g>
    <g id="xtick_3">
     <g id="line2d_3">
      <path d="M 173.529792 307.584 
L 173.529792 41.472 
" clip-path="url(#p8feb903c02)" style="fill: none; stroke: #ffffff; stroke-linecap: round"/>
     </g>
     <g id="text_3">
      <!-- 40 -->
      <g style="fill: #262626" transform="translate(167.412761 324.957594)scale(0.11 -0.11)">
       <defs>
        <path id="ArialMT-34" d="M 2069 0 
L 2069 1097 
L 81 1097 
L 81 1613 
L 2172 4581 
L 2631 4581 
L 2631 1613 
L 3250 1613 
L 3250 1097 
L 2631 1097 
L 2631 0 
L 2069 0 
z
M 2069 1613 
L 2069 3678 
L 634 1613 
L 2069 1613 
z
" transform="scale(0.015625)"/>
       </defs>
       <use xlink:href="#ArialMT-34"/>
       <use xlink:href="#ArialMT-30" x="55.615234"/>
      </g>
     </g>
    </g>
    <g id="xtick_4">
     <g id="line2d_4">
      <path d="M 224.656492 307.584 
L 224.656492 41.472 
" clip-path="url(#p8feb903c02)" style="fill: none; stroke: #ffffff; stroke-linecap: round"/>
     </g>
     <g id="text_4">
      <!-- 60 -->
      <g style="fill: #262626" transform="translate(218.539461 324.957594)scale(0.11 -0.11)">
       <defs>
        <path id="ArialMT-36" d="M 3184 3459 
L 2625 3416 
Q 2550 3747 2413 3897 
Q 2184 4138 1850 4138 
Q 1581 4138 1378 3988 
Q 1113 3794 959 3422 
Q 806 3050 800 2363 
Q 1003 2672 1297 2822 
Q 1591 2972 1913 2972 
Q 2475 2972 2870 2558 
Q 3266 2144 3266 1488 
Q 3266 1056 3080 686 
Q 2894 316 2569 119 
Q 2244 -78 1831 -78 
Q 1128 -78 684 439 
Q 241 956 241 2144 
Q 241 3472 731 4075 
Q 1159 4600 1884 4600 
Q 2425 4600 2770 4297 
Q 3116 3994 3184 3459 
z
M 888 1484 
Q 888 1194 1011 928 
Q 1134 663 1356 523 
Q 1578 384 1822 384 
Q 2178 384 2434 671 
Q 2691 959 2691 1453 
Q 2691 1928 2437 2201 
Q 2184 2475 1800 2475 
Q 1419 2475 1153 2201 
Q 888 1928 888 1484 
z
" transform="scale(0.015625)"/>
       </defs>
       <use xlink:href="#ArialMT-36"/>
       <use xlink:href="#ArialMT-30" x="55.615234"/>
      </g>
     </g>
    </g>
    <g id="xtick_5">
     <g id="line2d_5">
      <path d="M 275.783193 307.584 
L 275.783193 41.472 
" clip-path="url(#p8feb903c02)" style="fill: none; stroke: #ffffff; stroke-linecap: round"/>
     </g>
     <g id="text_5">
      <!-- 80 -->
      <g style="fill: #262626" transform="translate(269.666161 324.957594)scale(0.11 -0.11)">
       <defs>
        <path id="ArialMT-38" d="M 1131 2484 
Q 781 2613 612 2850 
Q 444 3088 444 3419 
Q 444 3919 803 4259 
Q 1163 4600 1759 4600 
Q 2359 4600 2725 4251 
Q 3091 3903 3091 3403 
Q 3091 3084 2923 2848 
Q 2756 2613 2416 2484 
Q 2838 2347 3058 2040 
Q 3278 1734 3278 1309 
Q 3278 722 2862 322 
Q 2447 -78 1769 -78 
Q 1091 -78 675 323 
Q 259 725 259 1325 
Q 259 1772 486 2073 
Q 713 2375 1131 2484 
z
M 1019 3438 
Q 1019 3113 1228 2906 
Q 1438 2700 1772 2700 
Q 2097 2700 2305 2904 
Q 2513 3109 2513 3406 
Q 2513 3716 2298 3927 
Q 2084 4138 1766 4138 
Q 1444 4138 1231 3931 
Q 1019 3725 1019 3438 
z
M 838 1322 
Q 838 1081 952 856 
Q 1066 631 1291 507 
Q 1516 384 1775 384 
Q 2178 384 2440 643 
Q 2703 903 2703 1303 
Q 2703 1709 2433 1975 
Q 2163 2241 1756 2241 
Q 1359 2241 1098 1978 
Q 838 1716 838 1322 
z
" transform="scale(0.015625)"/>
       </defs>
       <use xlink:href="#ArialMT-38"/>
       <use xlink:href="#ArialMT-30" x="55.615234"/>
      </g>
     </g>
    </g>
    <g id="xtick_6">
     <g id="line2d_6">
      <path d="M 326.909893 307.584 
L 326.909893 41.472 
" clip-path="url(#p8feb903c02)" style="fill: none; stroke: #ffffff; stroke-linecap: round"/>
     </g>
     <g id="text_6">
      <!-- 100 -->
      <g style="fill: #262626" transform="translate(317.734346 324.957594)scale(0.11 -0.11)">
       <defs>
        <path id="ArialMT-31" d="M 2384 0 
L 1822 0 
L 1822 3584 
Q 1619 3391 1289 3197 
Q 959 3003 697 2906 
L 697 3450 
Q 1169 3672 1522 3987 
Q 1875 4303 2022 4600 
L 2384 4600 
L 2384 0 
z
" transform="scale(0.015625)"/>
       </defs>
       <use xlink:href="#ArialMT-31"/>
       <use xlink:href="#ArialMT-30" x="55.615234"/>
       <use xlink:href="#ArialMT-30" x="111.230469"/>
      </g>
     </g>
    </g>
    <g id="xtick_7">
     <g id="line2d_7">
      <path d="M 378.036593 307.584 
L 378.036593 41.472 
" clip-path="url(#p8feb903c02)" style="fill: none; stroke: #ffffff; stroke-linecap: round"/>
     </g>
     <g id="text_7">
      <!-- 120 -->
      <g style="fill: #262626" transform="translate(368.861046 324.957594)scale(0.11 -0.11)">
       <use xlink:href="#ArialMT-31"/>
       <use xlink:href="#ArialMT-32" x="55.615234"/>
       <use xlink:href="#ArialMT-30" x="111.230469"/>
      </g>
     </g>
    </g>
    <g id="text_8">
     <!-- components -->
     <g style="fill: #262626" transform="translate(203.475937 339.733219)scale(0.12 -0.12)">
      <defs>
       <path id="ArialMT-63" d="M 2588 1216 
L 3141 1144 
Q 3050 572 2676 248 
Q 2303 -75 1759 -75 
Q 1078 -75 664 370 
Q 250 816 250 1647 
Q 250 2184 428 2587 
Q 606 2991 970 3192 
Q 1334 3394 1763 3394 
Q 2303 3394 2647 3120 
Q 2991 2847 3088 2344 
L 2541 2259 
Q 2463 2594 2264 2762 
Q 2066 2931 1784 2931 
Q 1359 2931 1093 2626 
Q 828 2322 828 1663 
Q 828 994 1084 691 
Q 1341 388 1753 388 
Q 2084 388 2306 591 
Q 2528 794 2588 1216 
z
" transform="scale(0.015625)"/>
       <path id="ArialMT-6f" d="M 213 1659 
Q 213 2581 725 3025 
Q 1153 3394 1769 3394 
Q 2453 3394 2887 2945 
Q 3322 2497 3322 1706 
Q 3322 1066 3130 698 
Q 2938 331 2570 128 
Q 2203 -75 1769 -75 
Q 1072 -75 642 372 
Q 213 819 213 1659 
z
M 791 1659 
Q 791 1022 1069 705 
Q 1347 388 1769 388 
Q 2188 388 2466 706 
Q 2744 1025 2744 1678 
Q 2744 2294 2464 2611 
Q 2184 2928 1769 2928 
Q 1347 2928 1069 2612 
Q 791 2297 791 1659 
z
" transform="scale(0.015625)"/>
       <path id="ArialMT-6d" d="M 422 0 
L 422 3319 
L 925 3319 
L 925 2853 
Q 1081 3097 1340 3245 
Q 1600 3394 1931 3394 
Q 2300 3394 2536 3241 
Q 2772 3088 2869 2813 
Q 3263 3394 3894 3394 
Q 4388 3394 4653 3120 
Q 4919 2847 4919 2278 
L 4919 0 
L 4359 0 
L 4359 2091 
Q 4359 2428 4304 2576 
Q 4250 2725 4106 2815 
Q 3963 2906 3769 2906 
Q 3419 2906 3187 2673 
Q 2956 2441 2956 1928 
L 2956 0 
L 2394 0 
L 2394 2156 
Q 2394 2531 2256 2718 
Q 2119 2906 1806 2906 
Q 1569 2906 1367 2781 
Q 1166 2656 1075 2415 
Q 984 2175 984 1722 
L 984 0 
L 422 0 
z
" transform="scale(0.015625)"/>
       <path id="ArialMT-70" d="M 422 -1272 
L 422 3319 
L 934 3319 
L 934 2888 
Q 1116 3141 1344 3267 
Q 1572 3394 1897 3394 
Q 2322 3394 2647 3175 
Q 2972 2956 3137 2557 
Q 3303 2159 3303 1684 
Q 3303 1175 3120 767 
Q 2938 359 2589 142 
Q 2241 -75 1856 -75 
Q 1575 -75 1351 44 
Q 1128 163 984 344 
L 984 -1272 
L 422 -1272 
z
M 931 1641 
Q 931 1000 1190 694 
Q 1450 388 1819 388 
Q 2194 388 2461 705 
Q 2728 1022 2728 1688 
Q 2728 2322 2467 2637 
Q 2206 2953 1844 2953 
Q 1484 2953 1207 2617 
Q 931 2281 931 1641 
z
" transform="scale(0.015625)"/>
       <path id="ArialMT-6e" d="M 422 0 
L 422 3319 
L 928 3319 
L 928 2847 
Q 1294 3394 1984 3394 
Q 2284 3394 2536 3286 
Q 2788 3178 2913 3003 
Q 3038 2828 3088 2588 
Q 3119 2431 3119 2041 
L 3119 0 
L 2556 0 
L 2556 2019 
Q 2556 2363 2490 2533 
Q 2425 2703 2258 2804 
Q 2091 2906 1866 2906 
Q 1506 2906 1245 2678 
Q 984 2450 984 1813 
L 984 0 
L 422 0 
z
" transform="scale(0.015625)"/>
       <path id="ArialMT-65" d="M 2694 1069 
L 3275 997 
Q 3138 488 2766 206 
Q 2394 -75 1816 -75 
Q 1088 -75 661 373 
Q 234 822 234 1631 
Q 234 2469 665 2931 
Q 1097 3394 1784 3394 
Q 2450 3394 2872 2941 
Q 3294 2488 3294 1666 
Q 3294 1616 3291 1516 
L 816 1516 
Q 847 969 1125 678 
Q 1403 388 1819 388 
Q 2128 388 2347 550 
Q 2566 713 2694 1069 
z
M 847 1978 
L 2700 1978 
Q 2663 2397 2488 2606 
Q 2219 2931 1791 2931 
Q 1403 2931 1139 2672 
Q 875 2413 847 1978 
z
" transform="scale(0.015625)"/>
       <path id="ArialMT-74" d="M 1650 503 
L 1731 6 
Q 1494 -44 1306 -44 
Q 1000 -44 831 53 
Q 663 150 594 308 
Q 525 466 525 972 
L 525 2881 
L 113 2881 
L 113 3319 
L 525 3319 
L 525 4141 
L 1084 4478 
L 1084 3319 
L 1650 3319 
L 1650 2881 
L 1084 2881 
L 1084 941 
Q 1084 700 1114 631 
Q 1144 563 1211 522 
Q 1278 481 1403 481 
Q 1497 481 1650 503 
z
" transform="scale(0.015625)"/>
       <path id="ArialMT-73" d="M 197 991 
L 753 1078 
Q 800 744 1014 566 
Q 1228 388 1613 388 
Q 2000 388 2187 545 
Q 2375 703 2375 916 
Q 2375 1106 2209 1216 
Q 2094 1291 1634 1406 
Q 1016 1563 777 1677 
Q 538 1791 414 1992 
Q 291 2194 291 2438 
Q 291 2659 392 2848 
Q 494 3038 669 3163 
Q 800 3259 1026 3326 
Q 1253 3394 1513 3394 
Q 1903 3394 2198 3281 
Q 2494 3169 2634 2976 
Q 2775 2784 2828 2463 
L 2278 2388 
Q 2241 2644 2061 2787 
Q 1881 2931 1553 2931 
Q 1166 2931 1000 2803 
Q 834 2675 834 2503 
Q 834 2394 903 2306 
Q 972 2216 1119 2156 
Q 1203 2125 1616 2013 
Q 2213 1853 2448 1751 
Q 2684 1650 2818 1456 
Q 2953 1263 2953 975 
Q 2953 694 2789 445 
Q 2625 197 2315 61 
Q 2006 -75 1616 -75 
Q 969 -75 630 194 
Q 291 463 197 991 
z
" transform="scale(0.015625)"/>
      </defs>
      <use xlink:href="#ArialMT-63"/>
      <use xlink:href="#ArialMT-6f" x="50"/>
      <use xlink:href="#ArialMT-6d" x="105.615234"/>
      <use xlink:href="#ArialMT-70" x="188.916016"/>
      <use xlink:href="#ArialMT-6f" x="244.53125"/>
      <use xlink:href="#ArialMT-6e" x="300.146484"/>
      <use xlink:href="#ArialMT-65" x="355.761719"/>
      <use xlink:href="#ArialMT-6e" x="411.376953"/>
      <use xlink:href="#ArialMT-74" x="466.992188"/>
      <use xlink:href="#ArialMT-73" x="494.775391"/>
     </g>
    </g>
   </g>
   <g id="matplotlib.axis_2">
    <g id="ytick_1">
     <g id="line2d_8">
      <path d="M 57.6 261.7926 
L 414.72 261.7926 
" clip-path="url(#p8feb903c02)" style="fill: none; stroke: #ffffff; stroke-linecap: round"/>
     </g>
     <g id="text_9">
      <!-- 0.2 -->
      <g style="fill: #262626" transform="translate(32.81 265.729397)scale(0.11 -0.11)">
       <defs>
        <path id="ArialMT-2e" d="M 581 0 
L 581 641 
L 1222 641 
L 1222 0 
L 581 0 
z
" transform="scale(0.015625)"/>
       </defs>
       <use xlink:href="#ArialMT-30"/>
       <use xlink:href="#ArialMT-2e" x="55.615234"/>
       <use xlink:href="#ArialMT-32" x="83.398438"/>
      </g>
     </g>
    </g>
    <g id="ytick_2">
     <g id="line2d_9">
      <path d="M 57.6 209.73645 
L 414.72 209.73645 
" clip-path="url(#p8feb903c02)" style="fill: none; stroke: #ffffff; stroke-linecap: round"/>
     </g>
     <g id="text_10">
      <!-- 0.4 -->
      <g style="fill: #262626" transform="translate(32.81 213.673247)scale(0.11 -0.11)">
       <use xlink:href="#ArialMT-30"/>
       <use xlink:href="#ArialMT-2e" x="55.615234"/>
       <use xlink:href="#ArialMT-34" x="83.398438"/>
      </g>
     </g>
    </g>
    <g id="ytick_3">
     <g id="line2d_10">
      <path d="M 57.6 157.6803 
L 414.72 157.6803 
" clip-path="url(#p8feb903c02)" style="fill: none; stroke: #ffffff; stroke-linecap: round"/>
     </g>
     <g id="text_11">
      <!-- 0.6 -->
      <g style="fill: #262626" transform="translate(32.81 161.617097)scale(0.11 -0.11)">
       <use xlink:href="#ArialMT-30"/>
       <use xlink:href="#ArialMT-2e" x="55.615234"/>
       <use xlink:href="#ArialMT-36" x="83.398438"/>
      </g>
     </g>
    </g>
    <g id="ytick_4">
     <g id="line2d_11">
      <path d="M 57.6 105.62415 
L 414.72 105.62415 
" clip-path="url(#p8feb903c02)" style="fill: none; stroke: #ffffff; stroke-linecap: round"/>
     </g>
     <g id="text_12">
      <!-- 0.8 -->
      <g style="fill: #262626" transform="translate(32.81 109.560947)scale(0.11 -0.11)">
       <use xlink:href="#ArialMT-30"/>
       <use xlink:href="#ArialMT-2e" x="55.615234"/>
       <use xlink:href="#ArialMT-38" x="83.398438"/>
      </g>
     </g>
    </g>
    <g id="ytick_5">
     <g id="line2d_12">
      <path d="M 57.6 53.568 
L 414.72 53.568 
" clip-path="url(#p8feb903c02)" style="fill: none; stroke: #ffffff; stroke-linecap: round"/>
     </g>
     <g id="text_13">
      <!-- 1.0 -->
      <g style="fill: #262626" transform="translate(32.81 57.504797)scale(0.11 -0.11)">
       <use xlink:href="#ArialMT-31"/>
       <use xlink:href="#ArialMT-2e" x="55.615234"/>
       <use xlink:href="#ArialMT-30" x="83.398438"/>
      </g>
     </g>
    </g>
    <g id="text_14">
     <!-- ../Cumulative Proportion of Variance Explained foe label_128morgan——30——11_onlymol -->
     <g style="fill: #262626" transform="translate(26.284375 417.4305)rotate(-90)scale(0.12 -0.12)">
      <defs>
       <path id="ArialMT-2f" d="M 0 -78 
L 1328 4659 
L 1778 4659 
L 453 -78 
L 0 -78 
z
" transform="scale(0.015625)"/>
       <path id="ArialMT-43" d="M 3763 1606 
L 4369 1453 
Q 4178 706 3683 314 
Q 3188 -78 2472 -78 
Q 1731 -78 1267 223 
Q 803 525 561 1097 
Q 319 1669 319 2325 
Q 319 3041 592 3573 
Q 866 4106 1370 4382 
Q 1875 4659 2481 4659 
Q 3169 4659 3637 4309 
Q 4106 3959 4291 3325 
L 3694 3184 
Q 3534 3684 3231 3912 
Q 2928 4141 2469 4141 
Q 1941 4141 1586 3887 
Q 1231 3634 1087 3207 
Q 944 2781 944 2328 
Q 944 1744 1114 1308 
Q 1284 872 1643 656 
Q 2003 441 2422 441 
Q 2931 441 3284 734 
Q 3638 1028 3763 1606 
z
" transform="scale(0.015625)"/>
       <path id="ArialMT-75" d="M 2597 0 
L 2597 488 
Q 2209 -75 1544 -75 
Q 1250 -75 995 37 
Q 741 150 617 320 
Q 494 491 444 738 
Q 409 903 409 1263 
L 409 3319 
L 972 3319 
L 972 1478 
Q 972 1038 1006 884 
Q 1059 663 1231 536 
Q 1403 409 1656 409 
Q 1909 409 2131 539 
Q 2353 669 2445 892 
Q 2538 1116 2538 1541 
L 2538 3319 
L 3100 3319 
L 3100 0 
L 2597 0 
z
" transform="scale(0.015625)"/>
       <path id="ArialMT-6c" d="M 409 0 
L 409 4581 
L 972 4581 
L 972 0 
L 409 0 
z
" transform="scale(0.015625)"/>
       <path id="ArialMT-61" d="M 2588 409 
Q 2275 144 1986 34 
Q 1697 -75 1366 -75 
Q 819 -75 525 192 
Q 231 459 231 875 
Q 231 1119 342 1320 
Q 453 1522 633 1644 
Q 813 1766 1038 1828 
Q 1203 1872 1538 1913 
Q 2219 1994 2541 2106 
Q 2544 2222 2544 2253 
Q 2544 2597 2384 2738 
Q 2169 2928 1744 2928 
Q 1347 2928 1158 2789 
Q 969 2650 878 2297 
L 328 2372 
Q 403 2725 575 2942 
Q 747 3159 1072 3276 
Q 1397 3394 1825 3394 
Q 2250 3394 2515 3294 
Q 2781 3194 2906 3042 
Q 3031 2891 3081 2659 
Q 3109 2516 3109 2141 
L 3109 1391 
Q 3109 606 3145 398 
Q 3181 191 3288 0 
L 2700 0 
Q 2613 175 2588 409 
z
M 2541 1666 
Q 2234 1541 1622 1453 
Q 1275 1403 1131 1340 
Q 988 1278 909 1158 
Q 831 1038 831 891 
Q 831 666 1001 516 
Q 1172 366 1500 366 
Q 1825 366 2078 508 
Q 2331 650 2450 897 
Q 2541 1088 2541 1459 
L 2541 1666 
z
" transform="scale(0.015625)"/>
       <path id="ArialMT-69" d="M 425 3934 
L 425 4581 
L 988 4581 
L 988 3934 
L 425 3934 
z
M 425 0 
L 425 3319 
L 988 3319 
L 988 0 
L 425 0 
z
" transform="scale(0.015625)"/>
       <path id="ArialMT-76" d="M 1344 0 
L 81 3319 
L 675 3319 
L 1388 1331 
Q 1503 1009 1600 663 
Q 1675 925 1809 1294 
L 2547 3319 
L 3125 3319 
L 1869 0 
L 1344 0 
z
" transform="scale(0.015625)"/>
       <path id="ArialMT-20" transform="scale(0.015625)"/>
       <path id="ArialMT-50" d="M 494 0 
L 494 4581 
L 2222 4581 
Q 2678 4581 2919 4538 
Q 3256 4481 3484 4323 
Q 3713 4166 3852 3881 
Q 3991 3597 3991 3256 
Q 3991 2672 3619 2267 
Q 3247 1863 2275 1863 
L 1100 1863 
L 1100 0 
L 494 0 
z
M 1100 2403 
L 2284 2403 
Q 2872 2403 3119 2622 
Q 3366 2841 3366 3238 
Q 3366 3525 3220 3729 
Q 3075 3934 2838 4000 
Q 2684 4041 2272 4041 
L 1100 4041 
L 1100 2403 
z
" transform="scale(0.015625)"/>
       <path id="ArialMT-72" d="M 416 0 
L 416 3319 
L 922 3319 
L 922 2816 
Q 1116 3169 1280 3281 
Q 1444 3394 1641 3394 
Q 1925 3394 2219 3213 
L 2025 2691 
Q 1819 2813 1613 2813 
Q 1428 2813 1281 2702 
Q 1134 2591 1072 2394 
Q 978 2094 978 1738 
L 978 0 
L 416 0 
z
" transform="scale(0.015625)"/>
       <path id="ArialMT-66" d="M 556 0 
L 556 2881 
L 59 2881 
L 59 3319 
L 556 3319 
L 556 3672 
Q 556 4006 616 4169 
Q 697 4388 901 4523 
Q 1106 4659 1475 4659 
Q 1713 4659 2000 4603 
L 1916 4113 
Q 1741 4144 1584 4144 
Q 1328 4144 1222 4034 
Q 1116 3925 1116 3625 
L 1116 3319 
L 1763 3319 
L 1763 2881 
L 1116 2881 
L 1116 0 
L 556 0 
z
" transform="scale(0.015625)"/>
       <path id="ArialMT-56" d="M 1803 0 
L 28 4581 
L 684 4581 
L 1875 1253 
Q 2019 853 2116 503 
Q 2222 878 2363 1253 
L 3600 4581 
L 4219 4581 
L 2425 0 
L 1803 0 
z
" transform="scale(0.015625)"/>
       <path id="ArialMT-45" d="M 506 0 
L 506 4581 
L 3819 4581 
L 3819 4041 
L 1113 4041 
L 1113 2638 
L 3647 2638 
L 3647 2100 
L 1113 2100 
L 1113 541 
L 3925 541 
L 3925 0 
L 506 0 
z
" transform="scale(0.015625)"/>
       <path id="ArialMT-78" d="M 47 0 
L 1259 1725 
L 138 3319 
L 841 3319 
L 1350 2541 
Q 1494 2319 1581 2169 
Q 1719 2375 1834 2534 
L 2394 3319 
L 3066 3319 
L 1919 1756 
L 3153 0 
L 2463 0 
L 1781 1031 
L 1600 1309 
L 728 0 
L 47 0 
z
" transform="scale(0.015625)"/>
       <path id="ArialMT-64" d="M 2575 0 
L 2575 419 
Q 2259 -75 1647 -75 
Q 1250 -75 917 144 
Q 584 363 401 755 
Q 219 1147 219 1656 
Q 219 2153 384 2558 
Q 550 2963 881 3178 
Q 1213 3394 1622 3394 
Q 1922 3394 2156 3267 
Q 2391 3141 2538 2938 
L 2538 4581 
L 3097 4581 
L 3097 0 
L 2575 0 
z
M 797 1656 
Q 797 1019 1065 703 
Q 1334 388 1700 388 
Q 2069 388 2326 689 
Q 2584 991 2584 1609 
Q 2584 2291 2321 2609 
Q 2059 2928 1675 2928 
Q 1300 2928 1048 2622 
Q 797 2316 797 1656 
z
" transform="scale(0.015625)"/>
       <path id="ArialMT-62" d="M 941 0 
L 419 0 
L 419 4581 
L 981 4581 
L 981 2947 
Q 1338 3394 1891 3394 
Q 2197 3394 2470 3270 
Q 2744 3147 2920 2923 
Q 3097 2700 3197 2384 
Q 3297 2069 3297 1709 
Q 3297 856 2875 390 
Q 2453 -75 1863 -75 
Q 1275 -75 941 416 
L 941 0 
z
M 934 1684 
Q 934 1088 1097 822 
Q 1363 388 1816 388 
Q 2184 388 2453 708 
Q 2722 1028 2722 1663 
Q 2722 2313 2464 2622 
Q 2206 2931 1841 2931 
Q 1472 2931 1203 2611 
Q 934 2291 934 1684 
z
" transform="scale(0.015625)"/>
       <path id="ArialMT-5f" d="M -97 -1272 
L -97 -866 
L 3631 -866 
L 3631 -1272 
L -97 -1272 
z
" transform="scale(0.015625)"/>
       <path id="ArialMT-67" d="M 319 -275 
L 866 -356 
Q 900 -609 1056 -725 
Q 1266 -881 1628 -881 
Q 2019 -881 2231 -725 
Q 2444 -569 2519 -288 
Q 2563 -116 2559 434 
Q 2191 0 1641 0 
Q 956 0 581 494 
Q 206 988 206 1678 
Q 206 2153 378 2554 
Q 550 2956 876 3175 
Q 1203 3394 1644 3394 
Q 2231 3394 2613 2919 
L 2613 3319 
L 3131 3319 
L 3131 450 
Q 3131 -325 2973 -648 
Q 2816 -972 2473 -1159 
Q 2131 -1347 1631 -1347 
Q 1038 -1347 672 -1080 
Q 306 -813 319 -275 
z
M 784 1719 
Q 784 1066 1043 766 
Q 1303 466 1694 466 
Q 2081 466 2343 764 
Q 2606 1063 2606 1700 
Q 2606 2309 2336 2618 
Q 2066 2928 1684 2928 
Q 1309 2928 1046 2623 
Q 784 2319 784 1719 
z
" transform="scale(0.015625)"/>
       <path id="ArialMT-2014" d="M 0 1431 
L 0 1884 
L 6400 1884 
L 6400 1431 
L 0 1431 
z
" transform="scale(0.015625)"/>
       <path id="ArialMT-33" d="M 269 1209 
L 831 1284 
Q 928 806 1161 595 
Q 1394 384 1728 384 
Q 2125 384 2398 659 
Q 2672 934 2672 1341 
Q 2672 1728 2419 1979 
Q 2166 2231 1775 2231 
Q 1616 2231 1378 2169 
L 1441 2663 
Q 1497 2656 1531 2656 
Q 1891 2656 2178 2843 
Q 2466 3031 2466 3422 
Q 2466 3731 2256 3934 
Q 2047 4138 1716 4138 
Q 1388 4138 1169 3931 
Q 950 3725 888 3313 
L 325 3413 
Q 428 3978 793 4289 
Q 1159 4600 1703 4600 
Q 2078 4600 2393 4439 
Q 2709 4278 2876 4000 
Q 3044 3722 3044 3409 
Q 3044 3113 2884 2869 
Q 2725 2625 2413 2481 
Q 2819 2388 3044 2092 
Q 3269 1797 3269 1353 
Q 3269 753 2831 336 
Q 2394 -81 1725 -81 
Q 1122 -81 723 278 
Q 325 638 269 1209 
z
" transform="scale(0.015625)"/>
       <path id="ArialMT-79" d="M 397 -1278 
L 334 -750 
Q 519 -800 656 -800 
Q 844 -800 956 -737 
Q 1069 -675 1141 -563 
Q 1194 -478 1313 -144 
Q 1328 -97 1363 -6 
L 103 3319 
L 709 3319 
L 1400 1397 
Q 1534 1031 1641 628 
Q 1738 1016 1872 1384 
L 2581 3319 
L 3144 3319 
L 1881 -56 
Q 1678 -603 1566 -809 
Q 1416 -1088 1222 -1217 
Q 1028 -1347 759 -1347 
Q 597 -1347 397 -1278 
z
" transform="scale(0.015625)"/>
      </defs>
      <use xlink:href="#ArialMT-2e"/>
      <use xlink:href="#ArialMT-2e" x="27.783203"/>
      <use xlink:href="#ArialMT-2f" x="55.566406"/>
      <use xlink:href="#ArialMT-43" x="83.349609"/>
      <use xlink:href="#ArialMT-75" x="155.566406"/>
      <use xlink:href="#ArialMT-6d" x="211.181641"/>
      <use xlink:href="#ArialMT-75" x="294.482422"/>
      <use xlink:href="#ArialMT-6c" x="350.097656"/>
      <use xlink:href="#ArialMT-61" x="372.314453"/>
      <use xlink:href="#ArialMT-74" x="427.929688"/>
      <use xlink:href="#ArialMT-69" x="455.712891"/>
      <use xlink:href="#ArialMT-76" x="477.929688"/>
      <use xlink:href="#ArialMT-65" x="527.929688"/>
      <use xlink:href="#ArialMT-20" x="583.544922"/>
      <use xlink:href="#ArialMT-50" x="611.328125"/>
      <use xlink:href="#ArialMT-72" x="678.027344"/>
      <use xlink:href="#ArialMT-6f" x="711.328125"/>
      <use xlink:href="#ArialMT-70" x="766.943359"/>
      <use xlink:href="#ArialMT-6f" x="822.558594"/>
      <use xlink:href="#ArialMT-72" x="878.173828"/>
      <use xlink:href="#ArialMT-74" x="911.474609"/>
      <use xlink:href="#ArialMT-69" x="939.257812"/>
      <use xlink:href="#ArialMT-6f" x="961.474609"/>
      <use xlink:href="#ArialMT-6e" x="1017.089844"/>
      <use xlink:href="#ArialMT-20" x="1072.705078"/>
      <use xlink:href="#ArialMT-6f" x="1100.488281"/>
      <use xlink:href="#ArialMT-66" x="1156.103516"/>
      <use xlink:href="#ArialMT-20" x="1183.886719"/>
      <use xlink:href="#ArialMT-56" x="1211.669922"/>
      <use xlink:href="#ArialMT-61" x="1270.994141"/>
      <use xlink:href="#ArialMT-72" x="1326.609375"/>
      <use xlink:href="#ArialMT-69" x="1359.910156"/>
      <use xlink:href="#ArialMT-61" x="1382.126953"/>
      <use xlink:href="#ArialMT-6e" x="1437.742188"/>
      <use xlink:href="#ArialMT-63" x="1493.357422"/>
      <use xlink:href="#ArialMT-65" x="1543.357422"/>
      <use xlink:href="#ArialMT-20" x="1598.972656"/>
      <use xlink:href="#ArialMT-45" x="1626.755859"/>
      <use xlink:href="#ArialMT-78" x="1693.455078"/>
      <use xlink:href="#ArialMT-70" x="1743.455078"/>
      <use xlink:href="#ArialMT-6c" x="1799.070312"/>
      <use xlink:href="#ArialMT-61" x="1821.287109"/>
      <use xlink:href="#ArialMT-69" x="1876.902344"/>
      <use xlink:href="#ArialMT-6e" x="1899.119141"/>
      <use xlink:href="#ArialMT-65" x="1954.734375"/>
      <use xlink:href="#ArialMT-64" x="2010.349609"/>
      <use xlink:href="#ArialMT-20" x="2065.964844"/>
      <use xlink:href="#ArialMT-66" x="2093.748047"/>
      <use xlink:href="#ArialMT-6f" x="2121.53125"/>
      <use xlink:href="#ArialMT-65" x="2177.146484"/>
      <use xlink:href="#ArialMT-20" x="2232.761719"/>
      <use xlink:href="#ArialMT-6c" x="2260.544922"/>
      <use xlink:href="#ArialMT-61" x="2282.761719"/>
      <use xlink:href="#ArialMT-62" x="2338.376953"/>
      <use xlink:href="#ArialMT-65" x="2393.992188"/>
      <use xlink:href="#ArialMT-6c" x="2449.607422"/>
      <use xlink:href="#ArialMT-5f" x="2471.824219"/>
      <use xlink:href="#ArialMT-31" x="2527.439453"/>
      <use xlink:href="#ArialMT-32" x="2583.054688"/>
      <use xlink:href="#ArialMT-38" x="2638.669922"/>
      <use xlink:href="#ArialMT-6d" x="2694.285156"/>
      <use xlink:href="#ArialMT-6f" x="2777.585938"/>
      <use xlink:href="#ArialMT-72" x="2833.201172"/>
      <use xlink:href="#ArialMT-67" x="2866.501953"/>
      <use xlink:href="#ArialMT-61" x="2922.117188"/>
      <use xlink:href="#ArialMT-6e" x="2977.732422"/>
      <use xlink:href="#ArialMT-2014" x="3033.347656"/>
      <use xlink:href="#ArialMT-2014" x="3133.347656"/>
      <use xlink:href="#ArialMT-33" x="3233.347656"/>
      <use xlink:href="#ArialMT-30" x="3288.962891"/>
      <use xlink:href="#ArialMT-2014" x="3344.578125"/>
      <use xlink:href="#ArialMT-2014" x="3444.578125"/>
      <use xlink:href="#ArialMT-31" x="3544.578125"/>
      <use xlink:href="#ArialMT-31" x="3592.818359"/>
      <use xlink:href="#ArialMT-5f" x="3648.433594"/>
      <use xlink:href="#ArialMT-6f" x="3704.048828"/>
      <use xlink:href="#ArialMT-6e" x="3759.664062"/>
      <use xlink:href="#ArialMT-6c" x="3815.279297"/>
      <use xlink:href="#ArialMT-79" x="3837.496094"/>
      <use xlink:href="#ArialMT-6d" x="3887.496094"/>
      <use xlink:href="#ArialMT-6f" x="3970.796875"/>
      <use xlink:href="#ArialMT-6c" x="4026.412109"/>
     </g>
    </g>
   </g>
   <g id="line2d_13">
    <path d="M 73.832727 295.488 
L 76.389062 292.71363 
L 81.501732 287.602296 
L 89.170737 280.297462 
L 99.396077 270.837748 
L 112.177752 259.384671 
L 124.959427 248.320549 
L 140.297437 235.291827 
L 155.635447 222.592775 
L 170.973457 210.162162 
L 186.311467 197.988558 
L 204.205812 184.104355 
L 222.100157 170.478278 
L 239.994503 157.135845 
L 257.888848 144.149927 
L 273.226858 133.259614 
L 291.121203 120.86469 
L 306.459213 110.473588 
L 326.909893 96.907572 
L 342.247903 86.97447 
L 360.142248 75.701688 
L 375.480258 66.287714 
L 390.818268 57.146992 
L 395.930938 54.182601 
L 398.487273 53.568 
L 398.487273 53.568 
" clip-path="url(#p8feb903c02)" style="fill: none; stroke: #4c72b0; stroke-width: 1.5; stroke-linecap: round"/>
    <defs>
     <path id="m795d3f6db6" d="M 0 3 
C 0.795609 3 1.55874 2.683901 2.12132 2.12132 
C 2.683901 1.55874 3 0.795609 3 0 
C 3 -0.795609 2.683901 -1.55874 2.12132 -2.12132 
C 1.55874 -2.683901 0.795609 -3 0 -3 
C -0.795609 -3 -1.55874 -2.683901 -2.12132 -2.12132 
C -2.683901 -1.55874 -3 -0.795609 -3 0 
C -3 0.795609 -2.683901 1.55874 -2.12132 2.12132 
C -1.55874 2.683901 -0.795609 3 0 3 
z
" style="stroke: #4c72b0"/>
    </defs>
    <g clip-path="url(#p8feb903c02)">
     <use xlink:href="#m795d3f6db6" x="73.832727" y="295.488" style="fill: #4c72b0; stroke: #4c72b0"/>
     <use xlink:href="#m795d3f6db6" x="76.389062" y="292.71363" style="fill: #4c72b0; stroke: #4c72b0"/>
     <use xlink:href="#m795d3f6db6" x="78.945397" y="290.112275" style="fill: #4c72b0; stroke: #4c72b0"/>
     <use xlink:href="#m795d3f6db6" x="81.501732" y="287.602296" style="fill: #4c72b0; stroke: #4c72b0"/>
     <use xlink:href="#m795d3f6db6" x="84.058067" y="285.137746" style="fill: #4c72b0; stroke: #4c72b0"/>
     <use xlink:href="#m795d3f6db6" x="86.614402" y="282.697592" style="fill: #4c72b0; stroke: #4c72b0"/>
     <use xlink:href="#m795d3f6db6" x="89.170737" y="280.297462" style="fill: #4c72b0; stroke: #4c72b0"/>
     <use xlink:href="#m795d3f6db6" x="91.727072" y="277.904469" style="fill: #4c72b0; stroke: #4c72b0"/>
     <use xlink:href="#m795d3f6db6" x="94.283407" y="275.530321" style="fill: #4c72b0; stroke: #4c72b0"/>
     <use xlink:href="#m795d3f6db6" x="96.839742" y="273.161209" style="fill: #4c72b0; stroke: #4c72b0"/>
     <use xlink:href="#m795d3f6db6" x="99.396077" y="270.837748" style="fill: #4c72b0; stroke: #4c72b0"/>
     <use xlink:href="#m795d3f6db6" x="101.952412" y="268.519311" style="fill: #4c72b0; stroke: #4c72b0"/>
     <use xlink:href="#m795d3f6db6" x="104.508747" y="266.210344" style="fill: #4c72b0; stroke: #4c72b0"/>
     <use xlink:href="#m795d3f6db6" x="107.065082" y="263.927445" style="fill: #4c72b0; stroke: #4c72b0"/>
     <use xlink:href="#m795d3f6db6" x="109.621417" y="261.652391" style="fill: #4c72b0; stroke: #4c72b0"/>
     <use xlink:href="#m795d3f6db6" x="112.177752" y="259.384671" style="fill: #4c72b0; stroke: #4c72b0"/>
     <use xlink:href="#m795d3f6db6" x="114.734087" y="257.145215" style="fill: #4c72b0; stroke: #4c72b0"/>
     <use xlink:href="#m795d3f6db6" x="117.290422" y="254.923993" style="fill: #4c72b0; stroke: #4c72b0"/>
     <use xlink:href="#m795d3f6db6" x="119.846757" y="252.713535" style="fill: #4c72b0; stroke: #4c72b0"/>
     <use xlink:href="#m795d3f6db6" x="122.403092" y="250.512945" style="fill: #4c72b0; stroke: #4c72b0"/>
     <use xlink:href="#m795d3f6db6" x="124.959427" y="248.320549" style="fill: #4c72b0; stroke: #4c72b0"/>
     <use xlink:href="#m795d3f6db6" x="127.515762" y="246.132626" style="fill: #4c72b0; stroke: #4c72b0"/>
     <use xlink:href="#m795d3f6db6" x="130.072097" y="243.95099" style="fill: #4c72b0; stroke: #4c72b0"/>
     <use xlink:href="#m795d3f6db6" x="132.628432" y="241.772173" style="fill: #4c72b0; stroke: #4c72b0"/>
     <use xlink:href="#m795d3f6db6" x="135.184767" y="239.603666" style="fill: #4c72b0; stroke: #4c72b0"/>
     <use xlink:href="#m795d3f6db6" x="137.741102" y="237.44217" style="fill: #4c72b0; stroke: #4c72b0"/>
     <use xlink:href="#m795d3f6db6" x="140.297437" y="235.291827" style="fill: #4c72b0; stroke: #4c72b0"/>
     <use xlink:href="#m795d3f6db6" x="142.853772" y="233.152129" style="fill: #4c72b0; stroke: #4c72b0"/>
     <use xlink:href="#m795d3f6db6" x="145.410107" y="231.024563" style="fill: #4c72b0; stroke: #4c72b0"/>
     <use xlink:href="#m795d3f6db6" x="147.966442" y="228.908551" style="fill: #4c72b0; stroke: #4c72b0"/>
     <use xlink:href="#m795d3f6db6" x="150.522777" y="226.793515" style="fill: #4c72b0; stroke: #4c72b0"/>
     <use xlink:href="#m795d3f6db6" x="153.079112" y="224.691644" style="fill: #4c72b0; stroke: #4c72b0"/>
     <use xlink:href="#m795d3f6db6" x="155.635447" y="222.592775" style="fill: #4c72b0; stroke: #4c72b0"/>
     <use xlink:href="#m795d3f6db6" x="158.191782" y="220.502978" style="fill: #4c72b0; stroke: #4c72b0"/>
     <use xlink:href="#m795d3f6db6" x="160.748117" y="218.416695" style="fill: #4c72b0; stroke: #4c72b0"/>
     <use xlink:href="#m795d3f6db6" x="163.304452" y="216.338601" style="fill: #4c72b0; stroke: #4c72b0"/>
     <use xlink:href="#m795d3f6db6" x="165.860787" y="214.274615" style="fill: #4c72b0; stroke: #4c72b0"/>
     <use xlink:href="#m795d3f6db6" x="168.417122" y="212.217156" style="fill: #4c72b0; stroke: #4c72b0"/>
     <use xlink:href="#m795d3f6db6" x="170.973457" y="210.162162" style="fill: #4c72b0; stroke: #4c72b0"/>
     <use xlink:href="#m795d3f6db6" x="173.529792" y="208.114509" style="fill: #4c72b0; stroke: #4c72b0"/>
     <use xlink:href="#m795d3f6db6" x="176.086127" y="206.073429" style="fill: #4c72b0; stroke: #4c72b0"/>
     <use xlink:href="#m795d3f6db6" x="178.642462" y="204.03858" style="fill: #4c72b0; stroke: #4c72b0"/>
     <use xlink:href="#m795d3f6db6" x="181.198797" y="202.011275" style="fill: #4c72b0; stroke: #4c72b0"/>
     <use xlink:href="#m795d3f6db6" x="183.755132" y="199.995109" style="fill: #4c72b0; stroke: #4c72b0"/>
     <use xlink:href="#m795d3f6db6" x="186.311467" y="197.988558" style="fill: #4c72b0; stroke: #4c72b0"/>
     <use xlink:href="#m795d3f6db6" x="188.867802" y="195.988975" style="fill: #4c72b0; stroke: #4c72b0"/>
     <use xlink:href="#m795d3f6db6" x="191.424137" y="193.992249" style="fill: #4c72b0; stroke: #4c72b0"/>
     <use xlink:href="#m795d3f6db6" x="193.980472" y="192.004966" style="fill: #4c72b0; stroke: #4c72b0"/>
     <use xlink:href="#m795d3f6db6" x="196.536807" y="190.020926" style="fill: #4c72b0; stroke: #4c72b0"/>
     <use xlink:href="#m795d3f6db6" x="199.093142" y="188.047167" style="fill: #4c72b0; stroke: #4c72b0"/>
     <use xlink:href="#m795d3f6db6" x="201.649477" y="186.074979" style="fill: #4c72b0; stroke: #4c72b0"/>
     <use xlink:href="#m795d3f6db6" x="204.205812" y="184.104355" style="fill: #4c72b0; stroke: #4c72b0"/>
     <use xlink:href="#m795d3f6db6" x="206.762147" y="182.138786" style="fill: #4c72b0; stroke: #4c72b0"/>
     <use xlink:href="#m795d3f6db6" x="209.318482" y="180.175934" style="fill: #4c72b0; stroke: #4c72b0"/>
     <use xlink:href="#m795d3f6db6" x="211.874817" y="178.217081" style="fill: #4c72b0; stroke: #4c72b0"/>
     <use xlink:href="#m795d3f6db6" x="214.431152" y="176.276576" style="fill: #4c72b0; stroke: #4c72b0"/>
     <use xlink:href="#m795d3f6db6" x="216.987487" y="174.338618" style="fill: #4c72b0; stroke: #4c72b0"/>
     <use xlink:href="#m795d3f6db6" x="219.543822" y="172.40687" style="fill: #4c72b0; stroke: #4c72b0"/>
     <use xlink:href="#m795d3f6db6" x="222.100157" y="170.478278" style="fill: #4c72b0; stroke: #4c72b0"/>
     <use xlink:href="#m795d3f6db6" x="224.656492" y="168.552424" style="fill: #4c72b0; stroke: #4c72b0"/>
     <use xlink:href="#m795d3f6db6" x="227.212827" y="166.632402" style="fill: #4c72b0; stroke: #4c72b0"/>
     <use xlink:href="#m795d3f6db6" x="229.769162" y="164.72177" style="fill: #4c72b0; stroke: #4c72b0"/>
     <use xlink:href="#m795d3f6db6" x="232.325497" y="162.813673" style="fill: #4c72b0; stroke: #4c72b0"/>
     <use xlink:href="#m795d3f6db6" x="234.881832" y="160.908733" style="fill: #4c72b0; stroke: #4c72b0"/>
     <use xlink:href="#m795d3f6db6" x="237.438168" y="159.01661" style="fill: #4c72b0; stroke: #4c72b0"/>
     <use xlink:href="#m795d3f6db6" x="239.994503" y="157.135845" style="fill: #4c72b0; stroke: #4c72b0"/>
     <use xlink:href="#m795d3f6db6" x="242.550838" y="155.263669" style="fill: #4c72b0; stroke: #4c72b0"/>
     <use xlink:href="#m795d3f6db6" x="245.107173" y="153.400585" style="fill: #4c72b0; stroke: #4c72b0"/>
     <use xlink:href="#m795d3f6db6" x="247.663508" y="151.538455" style="fill: #4c72b0; stroke: #4c72b0"/>
     <use xlink:href="#m795d3f6db6" x="250.219843" y="149.680465" style="fill: #4c72b0; stroke: #4c72b0"/>
     <use xlink:href="#m795d3f6db6" x="252.776178" y="147.830723" style="fill: #4c72b0; stroke: #4c72b0"/>
     <use xlink:href="#m795d3f6db6" x="255.332513" y="145.985986" style="fill: #4c72b0; stroke: #4c72b0"/>
     <use xlink:href="#m795d3f6db6" x="257.888848" y="144.149927" style="fill: #4c72b0; stroke: #4c72b0"/>
     <use xlink:href="#m795d3f6db6" x="260.445183" y="142.316257" style="fill: #4c72b0; stroke: #4c72b0"/>
     <use xlink:href="#m795d3f6db6" x="263.001518" y="140.494882" style="fill: #4c72b0; stroke: #4c72b0"/>
     <use xlink:href="#m795d3f6db6" x="265.557853" y="138.678206" style="fill: #4c72b0; stroke: #4c72b0"/>
     <use xlink:href="#m795d3f6db6" x="268.114188" y="136.863076" style="fill: #4c72b0; stroke: #4c72b0"/>
     <use xlink:href="#m795d3f6db6" x="270.670523" y="135.054189" style="fill: #4c72b0; stroke: #4c72b0"/>
     <use xlink:href="#m795d3f6db6" x="273.226858" y="133.259614" style="fill: #4c72b0; stroke: #4c72b0"/>
     <use xlink:href="#m795d3f6db6" x="275.783193" y="131.473057" style="fill: #4c72b0; stroke: #4c72b0"/>
     <use xlink:href="#m795d3f6db6" x="278.339528" y="129.691935" style="fill: #4c72b0; stroke: #4c72b0"/>
     <use xlink:href="#m795d3f6db6" x="280.895863" y="127.915967" style="fill: #4c72b0; stroke: #4c72b0"/>
     <use xlink:href="#m795d3f6db6" x="283.452198" y="126.142543" style="fill: #4c72b0; stroke: #4c72b0"/>
     <use xlink:href="#m795d3f6db6" x="286.008533" y="124.37926" style="fill: #4c72b0; stroke: #4c72b0"/>
     <use xlink:href="#m795d3f6db6" x="288.564868" y="122.621343" style="fill: #4c72b0; stroke: #4c72b0"/>
     <use xlink:href="#m795d3f6db6" x="291.121203" y="120.86469" style="fill: #4c72b0; stroke: #4c72b0"/>
     <use xlink:href="#m795d3f6db6" x="293.677538" y="119.116403" style="fill: #4c72b0; stroke: #4c72b0"/>
     <use xlink:href="#m795d3f6db6" x="296.233873" y="117.375604" style="fill: #4c72b0; stroke: #4c72b0"/>
     <use xlink:href="#m795d3f6db6" x="298.790208" y="115.637497" style="fill: #4c72b0; stroke: #4c72b0"/>
     <use xlink:href="#m795d3f6db6" x="301.346543" y="113.910417" style="fill: #4c72b0; stroke: #4c72b0"/>
     <use xlink:href="#m795d3f6db6" x="303.902878" y="112.188134" style="fill: #4c72b0; stroke: #4c72b0"/>
     <use xlink:href="#m795d3f6db6" x="306.459213" y="110.473588" style="fill: #4c72b0; stroke: #4c72b0"/>
     <use xlink:href="#m795d3f6db6" x="309.015548" y="108.762494" style="fill: #4c72b0; stroke: #4c72b0"/>
     <use xlink:href="#m795d3f6db6" x="311.571883" y="107.055789" style="fill: #4c72b0; stroke: #4c72b0"/>
     <use xlink:href="#m795d3f6db6" x="314.128218" y="105.352829" style="fill: #4c72b0; stroke: #4c72b0"/>
     <use xlink:href="#m795d3f6db6" x="316.684553" y="103.653872" style="fill: #4c72b0; stroke: #4c72b0"/>
     <use xlink:href="#m795d3f6db6" x="319.240888" y="101.958672" style="fill: #4c72b0; stroke: #4c72b0"/>
     <use xlink:href="#m795d3f6db6" x="321.797223" y="100.26769" style="fill: #4c72b0; stroke: #4c72b0"/>
     <use xlink:href="#m795d3f6db6" x="324.353558" y="98.585139" style="fill: #4c72b0; stroke: #4c72b0"/>
     <use xlink:href="#m795d3f6db6" x="326.909893" y="96.907572" style="fill: #4c72b0; stroke: #4c72b0"/>
     <use xlink:href="#m795d3f6db6" x="329.466228" y="95.232669" style="fill: #4c72b0; stroke: #4c72b0"/>
     <use xlink:href="#m795d3f6db6" x="332.022563" y="93.563794" style="fill: #4c72b0; stroke: #4c72b0"/>
     <use xlink:href="#m795d3f6db6" x="334.578898" y="91.904218" style="fill: #4c72b0; stroke: #4c72b0"/>
     <use xlink:href="#m795d3f6db6" x="337.135233" y="90.249328" style="fill: #4c72b0; stroke: #4c72b0"/>
     <use xlink:href="#m795d3f6db6" x="339.691568" y="88.60462" style="fill: #4c72b0; stroke: #4c72b0"/>
     <use xlink:href="#m795d3f6db6" x="342.247903" y="86.97447" style="fill: #4c72b0; stroke: #4c72b0"/>
     <use xlink:href="#m795d3f6db6" x="344.804238" y="85.347281" style="fill: #4c72b0; stroke: #4c72b0"/>
     <use xlink:href="#m795d3f6db6" x="347.360573" y="83.728478" style="fill: #4c72b0; stroke: #4c72b0"/>
     <use xlink:href="#m795d3f6db6" x="349.916908" y="82.113604" style="fill: #4c72b0; stroke: #4c72b0"/>
     <use xlink:href="#m795d3f6db6" x="352.473243" y="80.503923" style="fill: #4c72b0; stroke: #4c72b0"/>
     <use xlink:href="#m795d3f6db6" x="355.029578" y="78.897523" style="fill: #4c72b0; stroke: #4c72b0"/>
     <use xlink:href="#m795d3f6db6" x="357.585913" y="77.297264" style="fill: #4c72b0; stroke: #4c72b0"/>
     <use xlink:href="#m795d3f6db6" x="360.142248" y="75.701688" style="fill: #4c72b0; stroke: #4c72b0"/>
     <use xlink:href="#m795d3f6db6" x="362.698583" y="74.1124" style="fill: #4c72b0; stroke: #4c72b0"/>
     <use xlink:href="#m795d3f6db6" x="365.254918" y="72.532787" style="fill: #4c72b0; stroke: #4c72b0"/>
     <use xlink:href="#m795d3f6db6" x="367.811253" y="70.95978" style="fill: #4c72b0; stroke: #4c72b0"/>
     <use xlink:href="#m795d3f6db6" x="370.367588" y="69.39083" style="fill: #4c72b0; stroke: #4c72b0"/>
     <use xlink:href="#m795d3f6db6" x="372.923923" y="67.836384" style="fill: #4c72b0; stroke: #4c72b0"/>
     <use xlink:href="#m795d3f6db6" x="375.480258" y="66.287714" style="fill: #4c72b0; stroke: #4c72b0"/>
     <use xlink:href="#m795d3f6db6" x="378.036593" y="64.744973" style="fill: #4c72b0; stroke: #4c72b0"/>
     <use xlink:href="#m795d3f6db6" x="380.592928" y="63.206309" style="fill: #4c72b0; stroke: #4c72b0"/>
     <use xlink:href="#m795d3f6db6" x="383.149263" y="61.67625" style="fill: #4c72b0; stroke: #4c72b0"/>
     <use xlink:href="#m795d3f6db6" x="385.705598" y="60.15454" style="fill: #4c72b0; stroke: #4c72b0"/>
     <use xlink:href="#m795d3f6db6" x="388.261933" y="58.641998" style="fill: #4c72b0; stroke: #4c72b0"/>
     <use xlink:href="#m795d3f6db6" x="390.818268" y="57.146992" style="fill: #4c72b0; stroke: #4c72b0"/>
     <use xlink:href="#m795d3f6db6" x="393.374603" y="55.661864" style="fill: #4c72b0; stroke: #4c72b0"/>
     <use xlink:href="#m795d3f6db6" x="395.930938" y="54.182601" style="fill: #4c72b0; stroke: #4c72b0"/>
     <use xlink:href="#m795d3f6db6" x="398.487273" y="53.568" style="fill: #4c72b0; stroke: #4c72b0"/>
    </g>
   </g>
   <g id="patch_3">
    <path d="M 57.6 307.584 
L 57.6 41.472 
" style="fill: none; stroke: #ffffff; stroke-width: 1.25; stroke-linejoin: miter; stroke-linecap: square"/>
   </g>
   <g id="patch_4">
    <path d="M 414.72 307.584 
L 414.72 41.472 
" style="fill: none; stroke: #ffffff; stroke-width: 1.25; stroke-linejoin: miter; stroke-linecap: square"/>
   </g>
   <g id="patch_5">
    <path d="M 57.6 307.584 
L 414.72 307.584 
" style="fill: none; stroke: #ffffff; stroke-width: 1.25; stroke-linejoin: miter; stroke-linecap: square"/>
   </g>
   <g id="patch_6">
    <path d="M 57.6 41.472 
L 414.72 41.472 
" style="fill: none; stroke: #ffffff; stroke-width: 1.25; stroke-linejoin: miter; stroke-linecap: square"/>
   </g>
  </g>
 </g>
 <defs>
  <clipPath id="p8feb903c02">
   <rect x="57.6" y="41.472" width="357.12" height="266.112"/>
  </clipPath>
 </defs>
</svg>
