<?xml version="1.0" encoding="utf-8" standalone="no"?>
<!DOCTYPE svg PUBLIC "-//W3C//DTD SVG 1.1//EN"
  "http://www.w3.org/Graphics/SVG/1.1/DTD/svg11.dtd">
<svg xmlns:xlink="http://www.w3.org/1999/xlink" width="460.8pt" height="345.6pt" viewBox="0 0 460.8 345.6" xmlns="http://www.w3.org/2000/svg" version="1.1">
 <metadata>
  <rdf:RDF xmlns:dc="http://purl.org/dc/elements/1.1/" xmlns:cc="http://creativecommons.org/ns#" xmlns:rdf="http://www.w3.org/1999/02/22-rdf-syntax-ns#">
   <cc:Work>
    <dc:type rdf:resource="http://purl.org/dc/dcmitype/StillImage"/>
    <dc:date>2022-11-30T12:59:03.916858</dc:date>
    <dc:format>image/svg+xml</dc:format>
    <dc:creator>
     <cc:Agent>
      <dc:title>Matplotlib v3.5.2, https://matplotlib.org/</dc:title>
     </cc:Agent>
    </dc:creator>
   </cc:Work>
  </rdf:RDF>
 </metadata>
 <defs>
  <style type="text/css">*{stroke-linejoin: round; stroke-linecap: butt}</style>
 </defs>
 <g id="figure_1">
  <g id="patch_1">
   <path d="M 0 345.6 
L 460.8 345.6 
L 460.8 0 
L 0 0 
z
" style="fill: #ffffff"/>
  </g>
  <g id="axes_1">
   <g id="patch_2">
    <path d="M 57.6 307.584 
L 414.72 307.584 
L 414.72 41.472 
L 57.6 41.472 
z
" style="fill: #eaeaf2"/>
   </g>
   <g id="matplotlib.axis_1">
    <g id="xtick_1">
     <g id="line2d_1">
      <path d="M 71.865124 307.584 
L 71.865124 41.472 
" clip-path="url(#peb6a73fa26)" style="fill: none; stroke: #ffffff; stroke-linecap: round"/>
     </g>
     <g id="text_1">
      <!-- 0 -->
      <g style="fill: #262626" transform="translate(68.806608 324.957594)scale(0.11 -0.11)">
       <defs>
        <path id="ArialMT-30" d="M 266 2259 
Q 266 3072 433 3567 
Q 600 4063 929 4331 
Q 1259 4600 1759 4600 
Q 2128 4600 2406 4451 
Q 2684 4303 2865 4023 
Q 3047 3744 3150 3342 
Q 3253 2941 3253 2259 
Q 3253 1453 3087 958 
Q 2922 463 2592 192 
Q 2263 -78 1759 -78 
Q 1097 -78 719 397 
Q 266 969 266 2259 
z
M 844 2259 
Q 844 1131 1108 757 
Q 1372 384 1759 384 
Q 2147 384 2411 759 
Q 2675 1134 2675 2259 
Q 2675 3391 2411 3762 
Q 2147 4134 1753 4134 
Q 1366 4134 1134 3806 
Q 844 3388 844 2259 
z
" transform="scale(0.015625)"/>
       </defs>
       <use xlink:href="#ArialMT-30"/>
      </g>
     </g>
    </g>
    <g id="xtick_2">
     <g id="line2d_2">
      <path d="M 121.055207 307.584 
L 121.055207 41.472 
" clip-path="url(#peb6a73fa26)" style="fill: none; stroke: #ffffff; stroke-linecap: round"/>
     </g>
     <g id="text_2">
      <!-- 25 -->
      <g style="fill: #262626" transform="translate(114.938175 324.957594)scale(0.11 -0.11)">
       <defs>
        <path id="ArialMT-32" d="M 3222 541 
L 3222 0 
L 194 0 
Q 188 203 259 391 
Q 375 700 629 1000 
Q 884 1300 1366 1694 
Q 2113 2306 2375 2664 
Q 2638 3022 2638 3341 
Q 2638 3675 2398 3904 
Q 2159 4134 1775 4134 
Q 1369 4134 1125 3890 
Q 881 3647 878 3216 
L 300 3275 
Q 359 3922 746 4261 
Q 1134 4600 1788 4600 
Q 2447 4600 2831 4234 
Q 3216 3869 3216 3328 
Q 3216 3053 3103 2787 
Q 2991 2522 2730 2228 
Q 2469 1934 1863 1422 
Q 1356 997 1212 845 
Q 1069 694 975 541 
L 3222 541 
z
" transform="scale(0.015625)"/>
        <path id="ArialMT-35" d="M 266 1200 
L 856 1250 
Q 922 819 1161 601 
Q 1400 384 1738 384 
Q 2144 384 2425 690 
Q 2706 997 2706 1503 
Q 2706 1984 2436 2262 
Q 2166 2541 1728 2541 
Q 1456 2541 1237 2417 
Q 1019 2294 894 2097 
L 366 2166 
L 809 4519 
L 3088 4519 
L 3088 3981 
L 1259 3981 
L 1013 2750 
Q 1425 3038 1878 3038 
Q 2478 3038 2890 2622 
Q 3303 2206 3303 1553 
Q 3303 931 2941 478 
Q 2500 -78 1738 -78 
Q 1113 -78 717 272 
Q 322 622 266 1200 
z
" transform="scale(0.015625)"/>
       </defs>
       <use xlink:href="#ArialMT-32"/>
       <use xlink:href="#ArialMT-35" x="55.615234"/>
      </g>
     </g>
    </g>
    <g id="xtick_3">
     <g id="line2d_3">
      <path d="M 170.245289 307.584 
L 170.245289 41.472 
" clip-path="url(#peb6a73fa26)" style="fill: none; stroke: #ffffff; stroke-linecap: round"/>
     </g>
     <g id="text_3">
      <!-- 50 -->
      <g style="fill: #262626" transform="translate(164.128258 324.957594)scale(0.11 -0.11)">
       <use xlink:href="#ArialMT-35"/>
       <use xlink:href="#ArialMT-30" x="55.615234"/>
      </g>
     </g>
    </g>
    <g id="xtick_4">
     <g id="line2d_4">
      <path d="M 219.435372 307.584 
L 219.435372 41.472 
" clip-path="url(#peb6a73fa26)" style="fill: none; stroke: #ffffff; stroke-linecap: round"/>
     </g>
     <g id="text_4">
      <!-- 75 -->
      <g style="fill: #262626" transform="translate(213.318341 324.957594)scale(0.11 -0.11)">
       <defs>
        <path id="ArialMT-37" d="M 303 3981 
L 303 4522 
L 3269 4522 
L 3269 4084 
Q 2831 3619 2401 2847 
Q 1972 2075 1738 1259 
Q 1569 684 1522 0 
L 944 0 
Q 953 541 1156 1306 
Q 1359 2072 1739 2783 
Q 2119 3494 2547 3981 
L 303 3981 
z
" transform="scale(0.015625)"/>
       </defs>
       <use xlink:href="#ArialMT-37"/>
       <use xlink:href="#ArialMT-35" x="55.615234"/>
      </g>
     </g>
    </g>
    <g id="xtick_5">
     <g id="line2d_5">
      <path d="M 268.625455 307.584 
L 268.625455 41.472 
" clip-path="url(#peb6a73fa26)" style="fill: none; stroke: #ffffff; stroke-linecap: round"/>
     </g>
     <g id="text_5">
      <!-- 100 -->
      <g style="fill: #262626" transform="translate(259.449908 324.957594)scale(0.11 -0.11)">
       <defs>
        <path id="ArialMT-31" d="M 2384 0 
L 1822 0 
L 1822 3584 
Q 1619 3391 1289 3197 
Q 959 3003 697 2906 
L 697 3450 
Q 1169 3672 1522 3987 
Q 1875 4303 2022 4600 
L 2384 4600 
L 2384 0 
z
" transform="scale(0.015625)"/>
       </defs>
       <use xlink:href="#ArialMT-31"/>
       <use xlink:href="#ArialMT-30" x="55.615234"/>
       <use xlink:href="#ArialMT-30" x="111.230469"/>
      </g>
     </g>
    </g>
    <g id="xtick_6">
     <g id="line2d_6">
      <path d="M 317.815537 307.584 
L 317.815537 41.472 
" clip-path="url(#peb6a73fa26)" style="fill: none; stroke: #ffffff; stroke-linecap: round"/>
     </g>
     <g id="text_6">
      <!-- 125 -->
      <g style="fill: #262626" transform="translate(308.63999 324.957594)scale(0.11 -0.11)">
       <use xlink:href="#ArialMT-31"/>
       <use xlink:href="#ArialMT-32" x="55.615234"/>
       <use xlink:href="#ArialMT-35" x="111.230469"/>
      </g>
     </g>
    </g>
    <g id="xtick_7">
     <g id="line2d_7">
      <path d="M 367.00562 307.584 
L 367.00562 41.472 
" clip-path="url(#peb6a73fa26)" style="fill: none; stroke: #ffffff; stroke-linecap: round"/>
     </g>
     <g id="text_7">
      <!-- 150 -->
      <g style="fill: #262626" transform="translate(357.830073 324.957594)scale(0.11 -0.11)">
       <use xlink:href="#ArialMT-31"/>
       <use xlink:href="#ArialMT-35" x="55.615234"/>
       <use xlink:href="#ArialMT-30" x="111.230469"/>
      </g>
     </g>
    </g>
    <g id="text_8">
     <!-- components -->
     <g style="fill: #262626" transform="translate(203.475937 339.733219)scale(0.12 -0.12)">
      <defs>
       <path id="ArialMT-63" d="M 2588 1216 
L 3141 1144 
Q 3050 572 2676 248 
Q 2303 -75 1759 -75 
Q 1078 -75 664 370 
Q 250 816 250 1647 
Q 250 2184 428 2587 
Q 606 2991 970 3192 
Q 1334 3394 1763 3394 
Q 2303 3394 2647 3120 
Q 2991 2847 3088 2344 
L 2541 2259 
Q 2463 2594 2264 2762 
Q 2066 2931 1784 2931 
Q 1359 2931 1093 2626 
Q 828 2322 828 1663 
Q 828 994 1084 691 
Q 1341 388 1753 388 
Q 2084 388 2306 591 
Q 2528 794 2588 1216 
z
" transform="scale(0.015625)"/>
       <path id="ArialMT-6f" d="M 213 1659 
Q 213 2581 725 3025 
Q 1153 3394 1769 3394 
Q 2453 3394 2887 2945 
Q 3322 2497 3322 1706 
Q 3322 1066 3130 698 
Q 2938 331 2570 128 
Q 2203 -75 1769 -75 
Q 1072 -75 642 372 
Q 213 819 213 1659 
z
M 791 1659 
Q 791 1022 1069 705 
Q 1347 388 1769 388 
Q 2188 388 2466 706 
Q 2744 1025 2744 1678 
Q 2744 2294 2464 2611 
Q 2184 2928 1769 2928 
Q 1347 2928 1069 2612 
Q 791 2297 791 1659 
z
" transform="scale(0.015625)"/>
       <path id="ArialMT-6d" d="M 422 0 
L 422 3319 
L 925 3319 
L 925 2853 
Q 1081 3097 1340 3245 
Q 1600 3394 1931 3394 
Q 2300 3394 2536 3241 
Q 2772 3088 2869 2813 
Q 3263 3394 3894 3394 
Q 4388 3394 4653 3120 
Q 4919 2847 4919 2278 
L 4919 0 
L 4359 0 
L 4359 2091 
Q 4359 2428 4304 2576 
Q 4250 2725 4106 2815 
Q 3963 2906 3769 2906 
Q 3419 2906 3187 2673 
Q 2956 2441 2956 1928 
L 2956 0 
L 2394 0 
L 2394 2156 
Q 2394 2531 2256 2718 
Q 2119 2906 1806 2906 
Q 1569 2906 1367 2781 
Q 1166 2656 1075 2415 
Q 984 2175 984 1722 
L 984 0 
L 422 0 
z
" transform="scale(0.015625)"/>
       <path id="ArialMT-70" d="M 422 -1272 
L 422 3319 
L 934 3319 
L 934 2888 
Q 1116 3141 1344 3267 
Q 1572 3394 1897 3394 
Q 2322 3394 2647 3175 
Q 2972 2956 3137 2557 
Q 3303 2159 3303 1684 
Q 3303 1175 3120 767 
Q 2938 359 2589 142 
Q 2241 -75 1856 -75 
Q 1575 -75 1351 44 
Q 1128 163 984 344 
L 984 -1272 
L 422 -1272 
z
M 931 1641 
Q 931 1000 1190 694 
Q 1450 388 1819 388 
Q 2194 388 2461 705 
Q 2728 1022 2728 1688 
Q 2728 2322 2467 2637 
Q 2206 2953 1844 2953 
Q 1484 2953 1207 2617 
Q 931 2281 931 1641 
z
" transform="scale(0.015625)"/>
       <path id="ArialMT-6e" d="M 422 0 
L 422 3319 
L 928 3319 
L 928 2847 
Q 1294 3394 1984 3394 
Q 2284 3394 2536 3286 
Q 2788 3178 2913 3003 
Q 3038 2828 3088 2588 
Q 3119 2431 3119 2041 
L 3119 0 
L 2556 0 
L 2556 2019 
Q 2556 2363 2490 2533 
Q 2425 2703 2258 2804 
Q 2091 2906 1866 2906 
Q 1506 2906 1245 2678 
Q 984 2450 984 1813 
L 984 0 
L 422 0 
z
" transform="scale(0.015625)"/>
       <path id="ArialMT-65" d="M 2694 1069 
L 3275 997 
Q 3138 488 2766 206 
Q 2394 -75 1816 -75 
Q 1088 -75 661 373 
Q 234 822 234 1631 
Q 234 2469 665 2931 
Q 1097 3394 1784 3394 
Q 2450 3394 2872 2941 
Q 3294 2488 3294 1666 
Q 3294 1616 3291 1516 
L 816 1516 
Q 847 969 1125 678 
Q 1403 388 1819 388 
Q 2128 388 2347 550 
Q 2566 713 2694 1069 
z
M 847 1978 
L 2700 1978 
Q 2663 2397 2488 2606 
Q 2219 2931 1791 2931 
Q 1403 2931 1139 2672 
Q 875 2413 847 1978 
z
" transform="scale(0.015625)"/>
       <path id="ArialMT-74" d="M 1650 503 
L 1731 6 
Q 1494 -44 1306 -44 
Q 1000 -44 831 53 
Q 663 150 594 308 
Q 525 466 525 972 
L 525 2881 
L 113 2881 
L 113 3319 
L 525 3319 
L 525 4141 
L 1084 4478 
L 1084 3319 
L 1650 3319 
L 1650 2881 
L 1084 2881 
L 1084 941 
Q 1084 700 1114 631 
Q 1144 563 1211 522 
Q 1278 481 1403 481 
Q 1497 481 1650 503 
z
" transform="scale(0.015625)"/>
       <path id="ArialMT-73" d="M 197 991 
L 753 1078 
Q 800 744 1014 566 
Q 1228 388 1613 388 
Q 2000 388 2187 545 
Q 2375 703 2375 916 
Q 2375 1106 2209 1216 
Q 2094 1291 1634 1406 
Q 1016 1563 777 1677 
Q 538 1791 414 1992 
Q 291 2194 291 2438 
Q 291 2659 392 2848 
Q 494 3038 669 3163 
Q 800 3259 1026 3326 
Q 1253 3394 1513 3394 
Q 1903 3394 2198 3281 
Q 2494 3169 2634 2976 
Q 2775 2784 2828 2463 
L 2278 2388 
Q 2241 2644 2061 2787 
Q 1881 2931 1553 2931 
Q 1166 2931 1000 2803 
Q 834 2675 834 2503 
Q 834 2394 903 2306 
Q 972 2216 1119 2156 
Q 1203 2125 1616 2013 
Q 2213 1853 2448 1751 
Q 2684 1650 2818 1456 
Q 2953 1263 2953 975 
Q 2953 694 2789 445 
Q 2625 197 2315 61 
Q 2006 -75 1616 -75 
Q 969 -75 630 194 
Q 291 463 197 991 
z
" transform="scale(0.015625)"/>
      </defs>
      <use xlink:href="#ArialMT-63"/>
      <use xlink:href="#ArialMT-6f" x="50"/>
      <use xlink:href="#ArialMT-6d" x="105.615234"/>
      <use xlink:href="#ArialMT-70" x="188.916016"/>
      <use xlink:href="#ArialMT-6f" x="244.53125"/>
      <use xlink:href="#ArialMT-6e" x="300.146484"/>
      <use xlink:href="#ArialMT-65" x="355.761719"/>
      <use xlink:href="#ArialMT-6e" x="411.376953"/>
      <use xlink:href="#ArialMT-74" x="466.992188"/>
      <use xlink:href="#ArialMT-73" x="494.775391"/>
     </g>
    </g>
   </g>
   <g id="matplotlib.axis_2">
    <g id="ytick_1">
     <g id="line2d_8">
      <path d="M 57.6 295.488 
L 414.72 295.488 
" clip-path="url(#peb6a73fa26)" style="fill: none; stroke: #ffffff; stroke-linecap: round"/>
     </g>
     <g id="text_9">
      <!-- 0.00 -->
      <g style="fill: #262626" transform="translate(26.692969 299.424797)scale(0.11 -0.11)">
       <defs>
        <path id="ArialMT-2e" d="M 581 0 
L 581 641 
L 1222 641 
L 1222 0 
L 581 0 
z
" transform="scale(0.015625)"/>
       </defs>
       <use xlink:href="#ArialMT-30"/>
       <use xlink:href="#ArialMT-2e" x="55.615234"/>
       <use xlink:href="#ArialMT-30" x="83.398438"/>
       <use xlink:href="#ArialMT-30" x="139.013672"/>
      </g>
     </g>
    </g>
    <g id="ytick_2">
     <g id="line2d_9">
      <path d="M 57.6 247.265077 
L 414.72 247.265077 
" clip-path="url(#peb6a73fa26)" style="fill: none; stroke: #ffffff; stroke-linecap: round"/>
     </g>
     <g id="text_10">
      <!-- 0.05 -->
      <g style="fill: #262626" transform="translate(26.692969 251.201874)scale(0.11 -0.11)">
       <use xlink:href="#ArialMT-30"/>
       <use xlink:href="#ArialMT-2e" x="55.615234"/>
       <use xlink:href="#ArialMT-30" x="83.398438"/>
       <use xlink:href="#ArialMT-35" x="139.013672"/>
      </g>
     </g>
    </g>
    <g id="ytick_3">
     <g id="line2d_10">
      <path d="M 57.6 199.042155 
L 414.72 199.042155 
" clip-path="url(#peb6a73fa26)" style="fill: none; stroke: #ffffff; stroke-linecap: round"/>
     </g>
     <g id="text_11">
      <!-- 0.10 -->
      <g style="fill: #262626" transform="translate(26.692969 202.978952)scale(0.11 -0.11)">
       <use xlink:href="#ArialMT-30"/>
       <use xlink:href="#ArialMT-2e" x="55.615234"/>
       <use xlink:href="#ArialMT-31" x="83.398438"/>
       <use xlink:href="#ArialMT-30" x="139.013672"/>
      </g>
     </g>
    </g>
    <g id="ytick_4">
     <g id="line2d_11">
      <path d="M 57.6 150.819232 
L 414.72 150.819232 
" clip-path="url(#peb6a73fa26)" style="fill: none; stroke: #ffffff; stroke-linecap: round"/>
     </g>
     <g id="text_12">
      <!-- 0.15 -->
      <g style="fill: #262626" transform="translate(26.692969 154.756029)scale(0.11 -0.11)">
       <use xlink:href="#ArialMT-30"/>
       <use xlink:href="#ArialMT-2e" x="55.615234"/>
       <use xlink:href="#ArialMT-31" x="83.398438"/>
       <use xlink:href="#ArialMT-35" x="139.013672"/>
      </g>
     </g>
    </g>
    <g id="ytick_5">
     <g id="line2d_12">
      <path d="M 57.6 102.596309 
L 414.72 102.596309 
" clip-path="url(#peb6a73fa26)" style="fill: none; stroke: #ffffff; stroke-linecap: round"/>
     </g>
     <g id="text_13">
      <!-- 0.20 -->
      <g style="fill: #262626" transform="translate(26.692969 106.533106)scale(0.11 -0.11)">
       <use xlink:href="#ArialMT-30"/>
       <use xlink:href="#ArialMT-2e" x="55.615234"/>
       <use xlink:href="#ArialMT-32" x="83.398438"/>
       <use xlink:href="#ArialMT-30" x="139.013672"/>
      </g>
     </g>
    </g>
    <g id="ytick_6">
     <g id="line2d_13">
      <path d="M 57.6 54.373387 
L 414.72 54.373387 
" clip-path="url(#peb6a73fa26)" style="fill: none; stroke: #ffffff; stroke-linecap: round"/>
     </g>
     <g id="text_14">
      <!-- 0.25 -->
      <g style="fill: #262626" transform="translate(26.692969 58.310184)scale(0.11 -0.11)">
       <use xlink:href="#ArialMT-30"/>
       <use xlink:href="#ArialMT-2e" x="55.615234"/>
       <use xlink:href="#ArialMT-32" x="83.398438"/>
       <use xlink:href="#ArialMT-35" x="139.013672"/>
      </g>
     </g>
    </g>
    <g id="text_15">
     <!-- Proportion of Variance Explained for label_166_MACCS——30——11 -->
     <g style="fill: #262626" transform="translate(20.307969 360.06675)rotate(-90)scale(0.12 -0.12)">
      <defs>
       <path id="ArialMT-50" d="M 494 0 
L 494 4581 
L 2222 4581 
Q 2678 4581 2919 4538 
Q 3256 4481 3484 4323 
Q 3713 4166 3852 3881 
Q 3991 3597 3991 3256 
Q 3991 2672 3619 2267 
Q 3247 1863 2275 1863 
L 1100 1863 
L 1100 0 
L 494 0 
z
M 1100 2403 
L 2284 2403 
Q 2872 2403 3119 2622 
Q 3366 2841 3366 3238 
Q 3366 3525 3220 3729 
Q 3075 3934 2838 4000 
Q 2684 4041 2272 4041 
L 1100 4041 
L 1100 2403 
z
" transform="scale(0.015625)"/>
       <path id="ArialMT-72" d="M 416 0 
L 416 3319 
L 922 3319 
L 922 2816 
Q 1116 3169 1280 3281 
Q 1444 3394 1641 3394 
Q 1925 3394 2219 3213 
L 2025 2691 
Q 1819 2813 1613 2813 
Q 1428 2813 1281 2702 
Q 1134 2591 1072 2394 
Q 978 2094 978 1738 
L 978 0 
L 416 0 
z
" transform="scale(0.015625)"/>
       <path id="ArialMT-69" d="M 425 3934 
L 425 4581 
L 988 4581 
L 988 3934 
L 425 3934 
z
M 425 0 
L 425 3319 
L 988 3319 
L 988 0 
L 425 0 
z
" transform="scale(0.015625)"/>
       <path id="ArialMT-20" transform="scale(0.015625)"/>
       <path id="ArialMT-66" d="M 556 0 
L 556 2881 
L 59 2881 
L 59 3319 
L 556 3319 
L 556 3672 
Q 556 4006 616 4169 
Q 697 4388 901 4523 
Q 1106 4659 1475 4659 
Q 1713 4659 2000 4603 
L 1916 4113 
Q 1741 4144 1584 4144 
Q 1328 4144 1222 4034 
Q 1116 3925 1116 3625 
L 1116 3319 
L 1763 3319 
L 1763 2881 
L 1116 2881 
L 1116 0 
L 556 0 
z
" transform="scale(0.015625)"/>
       <path id="ArialMT-56" d="M 1803 0 
L 28 4581 
L 684 4581 
L 1875 1253 
Q 2019 853 2116 503 
Q 2222 878 2363 1253 
L 3600 4581 
L 4219 4581 
L 2425 0 
L 1803 0 
z
" transform="scale(0.015625)"/>
       <path id="ArialMT-61" d="M 2588 409 
Q 2275 144 1986 34 
Q 1697 -75 1366 -75 
Q 819 -75 525 192 
Q 231 459 231 875 
Q 231 1119 342 1320 
Q 453 1522 633 1644 
Q 813 1766 1038 1828 
Q 1203 1872 1538 1913 
Q 2219 1994 2541 2106 
Q 2544 2222 2544 2253 
Q 2544 2597 2384 2738 
Q 2169 2928 1744 2928 
Q 1347 2928 1158 2789 
Q 969 2650 878 2297 
L 328 2372 
Q 403 2725 575 2942 
Q 747 3159 1072 3276 
Q 1397 3394 1825 3394 
Q 2250 3394 2515 3294 
Q 2781 3194 2906 3042 
Q 3031 2891 3081 2659 
Q 3109 2516 3109 2141 
L 3109 1391 
Q 3109 606 3145 398 
Q 3181 191 3288 0 
L 2700 0 
Q 2613 175 2588 409 
z
M 2541 1666 
Q 2234 1541 1622 1453 
Q 1275 1403 1131 1340 
Q 988 1278 909 1158 
Q 831 1038 831 891 
Q 831 666 1001 516 
Q 1172 366 1500 366 
Q 1825 366 2078 508 
Q 2331 650 2450 897 
Q 2541 1088 2541 1459 
L 2541 1666 
z
" transform="scale(0.015625)"/>
       <path id="ArialMT-45" d="M 506 0 
L 506 4581 
L 3819 4581 
L 3819 4041 
L 1113 4041 
L 1113 2638 
L 3647 2638 
L 3647 2100 
L 1113 2100 
L 1113 541 
L 3925 541 
L 3925 0 
L 506 0 
z
" transform="scale(0.015625)"/>
       <path id="ArialMT-78" d="M 47 0 
L 1259 1725 
L 138 3319 
L 841 3319 
L 1350 2541 
Q 1494 2319 1581 2169 
Q 1719 2375 1834 2534 
L 2394 3319 
L 3066 3319 
L 1919 1756 
L 3153 0 
L 2463 0 
L 1781 1031 
L 1600 1309 
L 728 0 
L 47 0 
z
" transform="scale(0.015625)"/>
       <path id="ArialMT-6c" d="M 409 0 
L 409 4581 
L 972 4581 
L 972 0 
L 409 0 
z
" transform="scale(0.015625)"/>
       <path id="ArialMT-64" d="M 2575 0 
L 2575 419 
Q 2259 -75 1647 -75 
Q 1250 -75 917 144 
Q 584 363 401 755 
Q 219 1147 219 1656 
Q 219 2153 384 2558 
Q 550 2963 881 3178 
Q 1213 3394 1622 3394 
Q 1922 3394 2156 3267 
Q 2391 3141 2538 2938 
L 2538 4581 
L 3097 4581 
L 3097 0 
L 2575 0 
z
M 797 1656 
Q 797 1019 1065 703 
Q 1334 388 1700 388 
Q 2069 388 2326 689 
Q 2584 991 2584 1609 
Q 2584 2291 2321 2609 
Q 2059 2928 1675 2928 
Q 1300 2928 1048 2622 
Q 797 2316 797 1656 
z
" transform="scale(0.015625)"/>
       <path id="ArialMT-62" d="M 941 0 
L 419 0 
L 419 4581 
L 981 4581 
L 981 2947 
Q 1338 3394 1891 3394 
Q 2197 3394 2470 3270 
Q 2744 3147 2920 2923 
Q 3097 2700 3197 2384 
Q 3297 2069 3297 1709 
Q 3297 856 2875 390 
Q 2453 -75 1863 -75 
Q 1275 -75 941 416 
L 941 0 
z
M 934 1684 
Q 934 1088 1097 822 
Q 1363 388 1816 388 
Q 2184 388 2453 708 
Q 2722 1028 2722 1663 
Q 2722 2313 2464 2622 
Q 2206 2931 1841 2931 
Q 1472 2931 1203 2611 
Q 934 2291 934 1684 
z
" transform="scale(0.015625)"/>
       <path id="ArialMT-5f" d="M -97 -1272 
L -97 -866 
L 3631 -866 
L 3631 -1272 
L -97 -1272 
z
" transform="scale(0.015625)"/>
       <path id="ArialMT-36" d="M 3184 3459 
L 2625 3416 
Q 2550 3747 2413 3897 
Q 2184 4138 1850 4138 
Q 1581 4138 1378 3988 
Q 1113 3794 959 3422 
Q 806 3050 800 2363 
Q 1003 2672 1297 2822 
Q 1591 2972 1913 2972 
Q 2475 2972 2870 2558 
Q 3266 2144 3266 1488 
Q 3266 1056 3080 686 
Q 2894 316 2569 119 
Q 2244 -78 1831 -78 
Q 1128 -78 684 439 
Q 241 956 241 2144 
Q 241 3472 731 4075 
Q 1159 4600 1884 4600 
Q 2425 4600 2770 4297 
Q 3116 3994 3184 3459 
z
M 888 1484 
Q 888 1194 1011 928 
Q 1134 663 1356 523 
Q 1578 384 1822 384 
Q 2178 384 2434 671 
Q 2691 959 2691 1453 
Q 2691 1928 2437 2201 
Q 2184 2475 1800 2475 
Q 1419 2475 1153 2201 
Q 888 1928 888 1484 
z
" transform="scale(0.015625)"/>
       <path id="ArialMT-4d" d="M 475 0 
L 475 4581 
L 1388 4581 
L 2472 1338 
Q 2622 884 2691 659 
Q 2769 909 2934 1394 
L 4031 4581 
L 4847 4581 
L 4847 0 
L 4263 0 
L 4263 3834 
L 2931 0 
L 2384 0 
L 1059 3900 
L 1059 0 
L 475 0 
z
" transform="scale(0.015625)"/>
       <path id="ArialMT-41" d="M -9 0 
L 1750 4581 
L 2403 4581 
L 4278 0 
L 3588 0 
L 3053 1388 
L 1138 1388 
L 634 0 
L -9 0 
z
M 1313 1881 
L 2866 1881 
L 2388 3150 
Q 2169 3728 2063 4100 
Q 1975 3659 1816 3225 
L 1313 1881 
z
" transform="scale(0.015625)"/>
       <path id="ArialMT-43" d="M 3763 1606 
L 4369 1453 
Q 4178 706 3683 314 
Q 3188 -78 2472 -78 
Q 1731 -78 1267 223 
Q 803 525 561 1097 
Q 319 1669 319 2325 
Q 319 3041 592 3573 
Q 866 4106 1370 4382 
Q 1875 4659 2481 4659 
Q 3169 4659 3637 4309 
Q 4106 3959 4291 3325 
L 3694 3184 
Q 3534 3684 3231 3912 
Q 2928 4141 2469 4141 
Q 1941 4141 1586 3887 
Q 1231 3634 1087 3207 
Q 944 2781 944 2328 
Q 944 1744 1114 1308 
Q 1284 872 1643 656 
Q 2003 441 2422 441 
Q 2931 441 3284 734 
Q 3638 1028 3763 1606 
z
" transform="scale(0.015625)"/>
       <path id="ArialMT-53" d="M 288 1472 
L 859 1522 
Q 900 1178 1048 958 
Q 1197 738 1509 602 
Q 1822 466 2213 466 
Q 2559 466 2825 569 
Q 3091 672 3220 851 
Q 3350 1031 3350 1244 
Q 3350 1459 3225 1620 
Q 3100 1781 2813 1891 
Q 2628 1963 1997 2114 
Q 1366 2266 1113 2400 
Q 784 2572 623 2826 
Q 463 3081 463 3397 
Q 463 3744 659 4045 
Q 856 4347 1234 4503 
Q 1613 4659 2075 4659 
Q 2584 4659 2973 4495 
Q 3363 4331 3572 4012 
Q 3781 3694 3797 3291 
L 3216 3247 
Q 3169 3681 2898 3903 
Q 2628 4125 2100 4125 
Q 1550 4125 1298 3923 
Q 1047 3722 1047 3438 
Q 1047 3191 1225 3031 
Q 1400 2872 2139 2705 
Q 2878 2538 3153 2413 
Q 3553 2228 3743 1945 
Q 3934 1663 3934 1294 
Q 3934 928 3725 604 
Q 3516 281 3123 101 
Q 2731 -78 2241 -78 
Q 1619 -78 1198 103 
Q 778 284 539 648 
Q 300 1013 288 1472 
z
" transform="scale(0.015625)"/>
       <path id="ArialMT-2014" d="M 0 1431 
L 0 1884 
L 6400 1884 
L 6400 1431 
L 0 1431 
z
" transform="scale(0.015625)"/>
       <path id="ArialMT-33" d="M 269 1209 
L 831 1284 
Q 928 806 1161 595 
Q 1394 384 1728 384 
Q 2125 384 2398 659 
Q 2672 934 2672 1341 
Q 2672 1728 2419 1979 
Q 2166 2231 1775 2231 
Q 1616 2231 1378 2169 
L 1441 2663 
Q 1497 2656 1531 2656 
Q 1891 2656 2178 2843 
Q 2466 3031 2466 3422 
Q 2466 3731 2256 3934 
Q 2047 4138 1716 4138 
Q 1388 4138 1169 3931 
Q 950 3725 888 3313 
L 325 3413 
Q 428 3978 793 4289 
Q 1159 4600 1703 4600 
Q 2078 4600 2393 4439 
Q 2709 4278 2876 4000 
Q 3044 3722 3044 3409 
Q 3044 3113 2884 2869 
Q 2725 2625 2413 2481 
Q 2819 2388 3044 2092 
Q 3269 1797 3269 1353 
Q 3269 753 2831 336 
Q 2394 -81 1725 -81 
Q 1122 -81 723 278 
Q 325 638 269 1209 
z
" transform="scale(0.015625)"/>
      </defs>
      <use xlink:href="#ArialMT-50"/>
      <use xlink:href="#ArialMT-72" x="66.699219"/>
      <use xlink:href="#ArialMT-6f" x="100"/>
      <use xlink:href="#ArialMT-70" x="155.615234"/>
      <use xlink:href="#ArialMT-6f" x="211.230469"/>
      <use xlink:href="#ArialMT-72" x="266.845703"/>
      <use xlink:href="#ArialMT-74" x="300.146484"/>
      <use xlink:href="#ArialMT-69" x="327.929688"/>
      <use xlink:href="#ArialMT-6f" x="350.146484"/>
      <use xlink:href="#ArialMT-6e" x="405.761719"/>
      <use xlink:href="#ArialMT-20" x="461.376953"/>
      <use xlink:href="#ArialMT-6f" x="489.160156"/>
      <use xlink:href="#ArialMT-66" x="544.775391"/>
      <use xlink:href="#ArialMT-20" x="572.558594"/>
      <use xlink:href="#ArialMT-56" x="600.341797"/>
      <use xlink:href="#ArialMT-61" x="659.666016"/>
      <use xlink:href="#ArialMT-72" x="715.28125"/>
      <use xlink:href="#ArialMT-69" x="748.582031"/>
      <use xlink:href="#ArialMT-61" x="770.798828"/>
      <use xlink:href="#ArialMT-6e" x="826.414062"/>
      <use xlink:href="#ArialMT-63" x="882.029297"/>
      <use xlink:href="#ArialMT-65" x="932.029297"/>
      <use xlink:href="#ArialMT-20" x="987.644531"/>
      <use xlink:href="#ArialMT-45" x="1015.427734"/>
      <use xlink:href="#ArialMT-78" x="1082.126953"/>
      <use xlink:href="#ArialMT-70" x="1132.126953"/>
      <use xlink:href="#ArialMT-6c" x="1187.742188"/>
      <use xlink:href="#ArialMT-61" x="1209.958984"/>
      <use xlink:href="#ArialMT-69" x="1265.574219"/>
      <use xlink:href="#ArialMT-6e" x="1287.791016"/>
      <use xlink:href="#ArialMT-65" x="1343.40625"/>
      <use xlink:href="#ArialMT-64" x="1399.021484"/>
      <use xlink:href="#ArialMT-20" x="1454.636719"/>
      <use xlink:href="#ArialMT-66" x="1482.419922"/>
      <use xlink:href="#ArialMT-6f" x="1510.203125"/>
      <use xlink:href="#ArialMT-72" x="1565.818359"/>
      <use xlink:href="#ArialMT-20" x="1599.119141"/>
      <use xlink:href="#ArialMT-6c" x="1626.902344"/>
      <use xlink:href="#ArialMT-61" x="1649.119141"/>
      <use xlink:href="#ArialMT-62" x="1704.734375"/>
      <use xlink:href="#ArialMT-65" x="1760.349609"/>
      <use xlink:href="#ArialMT-6c" x="1815.964844"/>
      <use xlink:href="#ArialMT-5f" x="1838.181641"/>
      <use xlink:href="#ArialMT-31" x="1893.796875"/>
      <use xlink:href="#ArialMT-36" x="1949.412109"/>
      <use xlink:href="#ArialMT-36" x="2005.027344"/>
      <use xlink:href="#ArialMT-5f" x="2060.642578"/>
      <use xlink:href="#ArialMT-4d" x="2116.257812"/>
      <use xlink:href="#ArialMT-41" x="2199.558594"/>
      <use xlink:href="#ArialMT-43" x="2266.257812"/>
      <use xlink:href="#ArialMT-43" x="2338.474609"/>
      <use xlink:href="#ArialMT-53" x="2410.691406"/>
      <use xlink:href="#ArialMT-2014" x="2477.390625"/>
      <use xlink:href="#ArialMT-2014" x="2577.390625"/>
      <use xlink:href="#ArialMT-33" x="2677.390625"/>
      <use xlink:href="#ArialMT-30" x="2733.005859"/>
      <use xlink:href="#ArialMT-2014" x="2788.621094"/>
      <use xlink:href="#ArialMT-2014" x="2888.621094"/>
      <use xlink:href="#ArialMT-31" x="2988.621094"/>
      <use xlink:href="#ArialMT-31" x="3036.861328"/>
     </g>
    </g>
   </g>
   <g id="line2d_14">
    <path d="M 73.832727 53.568 
L 75.800331 199.851681 
L 77.767934 216.891572 
L 83.670744 253.728173 
L 85.638347 262.985463 
L 87.60595 270.486169 
L 91.541157 274.050907 
L 93.50876 276.731561 
L 95.476364 279.675043 
L 97.443967 279.824634 
L 99.41157 281.516522 
L 101.379174 282.18289 
L 103.346777 283.155795 
L 105.31438 284.62457 
L 107.281983 285.509521 
L 109.249587 286.053727 
L 111.21719 286.893103 
L 113.184793 287.004294 
L 115.152397 287.404113 
L 117.12 288.091525 
L 119.087603 288.258363 
L 121.055207 289.237529 
L 123.02281 289.661626 
L 124.990413 289.800048 
L 126.958017 290.272391 
L 128.92562 290.353293 
L 132.860826 290.885459 
L 136.796033 291.176195 
L 138.763636 291.409895 
L 140.73124 291.824556 
L 144.666446 292.043918 
L 146.63405 292.342047 
L 164.342479 293.371417 
L 166.310083 293.386463 
L 168.277686 293.560596 
L 176.148099 293.801132 
L 199.759339 294.656063 
L 219.435372 295.03244 
L 237.143802 295.198176 
L 246.981818 295.302907 
L 260.755041 295.389729 
L 321.750744 295.488 
L 398.487273 295.488 
L 398.487273 295.488 
" clip-path="url(#peb6a73fa26)" style="fill: none; stroke: #c44e52; stroke-width: 1.5; stroke-linecap: round"/>
    <defs>
     <path id="m528c4ceba5" d="M 0 3 
C 0.795609 3 1.55874 2.683901 2.12132 2.12132 
C 2.683901 1.55874 3 0.795609 3 0 
C 3 -0.795609 2.683901 -1.55874 2.12132 -2.12132 
C 1.55874 -2.683901 0.795609 -3 0 -3 
C -0.795609 -3 -1.55874 -2.683901 -2.12132 -2.12132 
C -2.683901 -1.55874 -3 -0.795609 -3 0 
C -3 0.795609 -2.683901 1.55874 -2.12132 2.12132 
C -1.55874 2.683901 -0.795609 3 0 3 
z
" style="stroke: #c44e52"/>
    </defs>
    <g clip-path="url(#peb6a73fa26)">
     <use xlink:href="#m528c4ceba5" x="73.832727" y="53.568" style="fill: #c44e52; stroke: #c44e52"/>
     <use xlink:href="#m528c4ceba5" x="75.800331" y="199.851681" style="fill: #c44e52; stroke: #c44e52"/>
     <use xlink:href="#m528c4ceba5" x="77.767934" y="216.891572" style="fill: #c44e52; stroke: #c44e52"/>
     <use xlink:href="#m528c4ceba5" x="79.735537" y="229.279148" style="fill: #c44e52; stroke: #c44e52"/>
     <use xlink:href="#m528c4ceba5" x="81.70314" y="241.612516" style="fill: #c44e52; stroke: #c44e52"/>
     <use xlink:href="#m528c4ceba5" x="83.670744" y="253.728173" style="fill: #c44e52; stroke: #c44e52"/>
     <use xlink:href="#m528c4ceba5" x="85.638347" y="262.985463" style="fill: #c44e52; stroke: #c44e52"/>
     <use xlink:href="#m528c4ceba5" x="87.60595" y="270.486169" style="fill: #c44e52; stroke: #c44e52"/>
     <use xlink:href="#m528c4ceba5" x="89.573554" y="272.3205" style="fill: #c44e52; stroke: #c44e52"/>
     <use xlink:href="#m528c4ceba5" x="91.541157" y="274.050907" style="fill: #c44e52; stroke: #c44e52"/>
     <use xlink:href="#m528c4ceba5" x="93.50876" y="276.731561" style="fill: #c44e52; stroke: #c44e52"/>
     <use xlink:href="#m528c4ceba5" x="95.476364" y="279.675043" style="fill: #c44e52; stroke: #c44e52"/>
     <use xlink:href="#m528c4ceba5" x="97.443967" y="279.824634" style="fill: #c44e52; stroke: #c44e52"/>
     <use xlink:href="#m528c4ceba5" x="99.41157" y="281.516522" style="fill: #c44e52; stroke: #c44e52"/>
     <use xlink:href="#m528c4ceba5" x="101.379174" y="282.18289" style="fill: #c44e52; stroke: #c44e52"/>
     <use xlink:href="#m528c4ceba5" x="103.346777" y="283.155795" style="fill: #c44e52; stroke: #c44e52"/>
     <use xlink:href="#m528c4ceba5" x="105.31438" y="284.62457" style="fill: #c44e52; stroke: #c44e52"/>
     <use xlink:href="#m528c4ceba5" x="107.281983" y="285.509521" style="fill: #c44e52; stroke: #c44e52"/>
     <use xlink:href="#m528c4ceba5" x="109.249587" y="286.053727" style="fill: #c44e52; stroke: #c44e52"/>
     <use xlink:href="#m528c4ceba5" x="111.21719" y="286.893103" style="fill: #c44e52; stroke: #c44e52"/>
     <use xlink:href="#m528c4ceba5" x="113.184793" y="287.004294" style="fill: #c44e52; stroke: #c44e52"/>
     <use xlink:href="#m528c4ceba5" x="115.152397" y="287.404113" style="fill: #c44e52; stroke: #c44e52"/>
     <use xlink:href="#m528c4ceba5" x="117.12" y="288.091525" style="fill: #c44e52; stroke: #c44e52"/>
     <use xlink:href="#m528c4ceba5" x="119.087603" y="288.258363" style="fill: #c44e52; stroke: #c44e52"/>
     <use xlink:href="#m528c4ceba5" x="121.055207" y="289.237529" style="fill: #c44e52; stroke: #c44e52"/>
     <use xlink:href="#m528c4ceba5" x="123.02281" y="289.661626" style="fill: #c44e52; stroke: #c44e52"/>
     <use xlink:href="#m528c4ceba5" x="124.990413" y="289.800048" style="fill: #c44e52; stroke: #c44e52"/>
     <use xlink:href="#m528c4ceba5" x="126.958017" y="290.272391" style="fill: #c44e52; stroke: #c44e52"/>
     <use xlink:href="#m528c4ceba5" x="128.92562" y="290.353293" style="fill: #c44e52; stroke: #c44e52"/>
     <use xlink:href="#m528c4ceba5" x="130.893223" y="290.623266" style="fill: #c44e52; stroke: #c44e52"/>
     <use xlink:href="#m528c4ceba5" x="132.860826" y="290.885459" style="fill: #c44e52; stroke: #c44e52"/>
     <use xlink:href="#m528c4ceba5" x="134.82843" y="291.004464" style="fill: #c44e52; stroke: #c44e52"/>
     <use xlink:href="#m528c4ceba5" x="136.796033" y="291.176195" style="fill: #c44e52; stroke: #c44e52"/>
     <use xlink:href="#m528c4ceba5" x="138.763636" y="291.409895" style="fill: #c44e52; stroke: #c44e52"/>
     <use xlink:href="#m528c4ceba5" x="140.73124" y="291.824556" style="fill: #c44e52; stroke: #c44e52"/>
     <use xlink:href="#m528c4ceba5" x="142.698843" y="291.952099" style="fill: #c44e52; stroke: #c44e52"/>
     <use xlink:href="#m528c4ceba5" x="144.666446" y="292.043918" style="fill: #c44e52; stroke: #c44e52"/>
     <use xlink:href="#m528c4ceba5" x="146.63405" y="292.342047" style="fill: #c44e52; stroke: #c44e52"/>
     <use xlink:href="#m528c4ceba5" x="148.601653" y="292.465893" style="fill: #c44e52; stroke: #c44e52"/>
     <use xlink:href="#m528c4ceba5" x="150.569256" y="292.581124" style="fill: #c44e52; stroke: #c44e52"/>
     <use xlink:href="#m528c4ceba5" x="152.53686" y="292.647994" style="fill: #c44e52; stroke: #c44e52"/>
     <use xlink:href="#m528c4ceba5" x="154.504463" y="292.859489" style="fill: #c44e52; stroke: #c44e52"/>
     <use xlink:href="#m528c4ceba5" x="156.472066" y="292.92601" style="fill: #c44e52; stroke: #c44e52"/>
     <use xlink:href="#m528c4ceba5" x="158.439669" y="293.016742" style="fill: #c44e52; stroke: #c44e52"/>
     <use xlink:href="#m528c4ceba5" x="160.407273" y="293.187437" style="fill: #c44e52; stroke: #c44e52"/>
     <use xlink:href="#m528c4ceba5" x="162.374876" y="293.285842" style="fill: #c44e52; stroke: #c44e52"/>
     <use xlink:href="#m528c4ceba5" x="164.342479" y="293.371417" style="fill: #c44e52; stroke: #c44e52"/>
     <use xlink:href="#m528c4ceba5" x="166.310083" y="293.386463" style="fill: #c44e52; stroke: #c44e52"/>
     <use xlink:href="#m528c4ceba5" x="168.277686" y="293.560596" style="fill: #c44e52; stroke: #c44e52"/>
     <use xlink:href="#m528c4ceba5" x="170.245289" y="293.601519" style="fill: #c44e52; stroke: #c44e52"/>
     <use xlink:href="#m528c4ceba5" x="172.212893" y="293.655004" style="fill: #c44e52; stroke: #c44e52"/>
     <use xlink:href="#m528c4ceba5" x="174.180496" y="293.783878" style="fill: #c44e52; stroke: #c44e52"/>
     <use xlink:href="#m528c4ceba5" x="176.148099" y="293.801132" style="fill: #c44e52; stroke: #c44e52"/>
     <use xlink:href="#m528c4ceba5" x="178.115702" y="293.881164" style="fill: #c44e52; stroke: #c44e52"/>
     <use xlink:href="#m528c4ceba5" x="180.083306" y="294.005405" style="fill: #c44e52; stroke: #c44e52"/>
     <use xlink:href="#m528c4ceba5" x="182.050909" y="294.134233" style="fill: #c44e52; stroke: #c44e52"/>
     <use xlink:href="#m528c4ceba5" x="184.018512" y="294.164183" style="fill: #c44e52; stroke: #c44e52"/>
     <use xlink:href="#m528c4ceba5" x="185.986116" y="294.271644" style="fill: #c44e52; stroke: #c44e52"/>
     <use xlink:href="#m528c4ceba5" x="187.953719" y="294.357672" style="fill: #c44e52; stroke: #c44e52"/>
     <use xlink:href="#m528c4ceba5" x="189.921322" y="294.385264" style="fill: #c44e52; stroke: #c44e52"/>
     <use xlink:href="#m528c4ceba5" x="191.888926" y="294.408032" style="fill: #c44e52; stroke: #c44e52"/>
     <use xlink:href="#m528c4ceba5" x="193.856529" y="294.460416" style="fill: #c44e52; stroke: #c44e52"/>
     <use xlink:href="#m528c4ceba5" x="195.824132" y="294.57565" style="fill: #c44e52; stroke: #c44e52"/>
     <use xlink:href="#m528c4ceba5" x="197.791736" y="294.624375" style="fill: #c44e52; stroke: #c44e52"/>
     <use xlink:href="#m528c4ceba5" x="199.759339" y="294.656063" style="fill: #c44e52; stroke: #c44e52"/>
     <use xlink:href="#m528c4ceba5" x="201.726942" y="294.703651" style="fill: #c44e52; stroke: #c44e52"/>
     <use xlink:href="#m528c4ceba5" x="203.694545" y="294.731048" style="fill: #c44e52; stroke: #c44e52"/>
     <use xlink:href="#m528c4ceba5" x="205.662149" y="294.776212" style="fill: #c44e52; stroke: #c44e52"/>
     <use xlink:href="#m528c4ceba5" x="207.629752" y="294.855803" style="fill: #c44e52; stroke: #c44e52"/>
     <use xlink:href="#m528c4ceba5" x="209.597355" y="294.901502" style="fill: #c44e52; stroke: #c44e52"/>
     <use xlink:href="#m528c4ceba5" x="211.564959" y="294.931412" style="fill: #c44e52; stroke: #c44e52"/>
     <use xlink:href="#m528c4ceba5" x="213.532562" y="294.946416" style="fill: #c44e52; stroke: #c44e52"/>
     <use xlink:href="#m528c4ceba5" x="215.500165" y="294.949228" style="fill: #c44e52; stroke: #c44e52"/>
     <use xlink:href="#m528c4ceba5" x="217.467769" y="294.982364" style="fill: #c44e52; stroke: #c44e52"/>
     <use xlink:href="#m528c4ceba5" x="219.435372" y="295.03244" style="fill: #c44e52; stroke: #c44e52"/>
     <use xlink:href="#m528c4ceba5" x="221.402975" y="295.041699" style="fill: #c44e52; stroke: #c44e52"/>
     <use xlink:href="#m528c4ceba5" x="223.370579" y="295.068404" style="fill: #c44e52; stroke: #c44e52"/>
     <use xlink:href="#m528c4ceba5" x="225.338182" y="295.080094" style="fill: #c44e52; stroke: #c44e52"/>
     <use xlink:href="#m528c4ceba5" x="227.305785" y="295.113896" style="fill: #c44e52; stroke: #c44e52"/>
     <use xlink:href="#m528c4ceba5" x="229.273388" y="295.125506" style="fill: #c44e52; stroke: #c44e52"/>
     <use xlink:href="#m528c4ceba5" x="231.240992" y="295.171173" style="fill: #c44e52; stroke: #c44e52"/>
     <use xlink:href="#m528c4ceba5" x="233.208595" y="295.181556" style="fill: #c44e52; stroke: #c44e52"/>
     <use xlink:href="#m528c4ceba5" x="235.176198" y="295.184824" style="fill: #c44e52; stroke: #c44e52"/>
     <use xlink:href="#m528c4ceba5" x="237.143802" y="295.198176" style="fill: #c44e52; stroke: #c44e52"/>
     <use xlink:href="#m528c4ceba5" x="239.111405" y="295.23957" style="fill: #c44e52; stroke: #c44e52"/>
     <use xlink:href="#m528c4ceba5" x="241.079008" y="295.252772" style="fill: #c44e52; stroke: #c44e52"/>
     <use xlink:href="#m528c4ceba5" x="243.046612" y="295.267584" style="fill: #c44e52; stroke: #c44e52"/>
     <use xlink:href="#m528c4ceba5" x="245.014215" y="295.284187" style="fill: #c44e52; stroke: #c44e52"/>
     <use xlink:href="#m528c4ceba5" x="246.981818" y="295.302907" style="fill: #c44e52; stroke: #c44e52"/>
     <use xlink:href="#m528c4ceba5" x="248.949421" y="295.32992" style="fill: #c44e52; stroke: #c44e52"/>
     <use xlink:href="#m528c4ceba5" x="250.917025" y="295.343253" style="fill: #c44e52; stroke: #c44e52"/>
     <use xlink:href="#m528c4ceba5" x="252.884628" y="295.350754" style="fill: #c44e52; stroke: #c44e52"/>
     <use xlink:href="#m528c4ceba5" x="254.852231" y="295.361313" style="fill: #c44e52; stroke: #c44e52"/>
     <use xlink:href="#m528c4ceba5" x="256.819835" y="295.371751" style="fill: #c44e52; stroke: #c44e52"/>
     <use xlink:href="#m528c4ceba5" x="258.787438" y="295.381307" style="fill: #c44e52; stroke: #c44e52"/>
     <use xlink:href="#m528c4ceba5" x="260.755041" y="295.389729" style="fill: #c44e52; stroke: #c44e52"/>
     <use xlink:href="#m528c4ceba5" x="262.722645" y="295.396435" style="fill: #c44e52; stroke: #c44e52"/>
     <use xlink:href="#m528c4ceba5" x="264.690248" y="295.401176" style="fill: #c44e52; stroke: #c44e52"/>
     <use xlink:href="#m528c4ceba5" x="266.657851" y="295.412522" style="fill: #c44e52; stroke: #c44e52"/>
     <use xlink:href="#m528c4ceba5" x="268.625455" y="295.415222" style="fill: #c44e52; stroke: #c44e52"/>
     <use xlink:href="#m528c4ceba5" x="270.593058" y="295.425818" style="fill: #c44e52; stroke: #c44e52"/>
     <use xlink:href="#m528c4ceba5" x="272.560661" y="295.430212" style="fill: #c44e52; stroke: #c44e52"/>
     <use xlink:href="#m528c4ceba5" x="274.528264" y="295.434794" style="fill: #c44e52; stroke: #c44e52"/>
     <use xlink:href="#m528c4ceba5" x="276.495868" y="295.442624" style="fill: #c44e52; stroke: #c44e52"/>
     <use xlink:href="#m528c4ceba5" x="278.463471" y="295.447947" style="fill: #c44e52; stroke: #c44e52"/>
     <use xlink:href="#m528c4ceba5" x="280.431074" y="295.450181" style="fill: #c44e52; stroke: #c44e52"/>
     <use xlink:href="#m528c4ceba5" x="282.398678" y="295.451785" style="fill: #c44e52; stroke: #c44e52"/>
     <use xlink:href="#m528c4ceba5" x="284.366281" y="295.461189" style="fill: #c44e52; stroke: #c44e52"/>
     <use xlink:href="#m528c4ceba5" x="286.333884" y="295.463501" style="fill: #c44e52; stroke: #c44e52"/>
     <use xlink:href="#m528c4ceba5" x="288.301488" y="295.466185" style="fill: #c44e52; stroke: #c44e52"/>
     <use xlink:href="#m528c4ceba5" x="290.269091" y="295.471489" style="fill: #c44e52; stroke: #c44e52"/>
     <use xlink:href="#m528c4ceba5" x="292.236694" y="295.472681" style="fill: #c44e52; stroke: #c44e52"/>
     <use xlink:href="#m528c4ceba5" x="294.204298" y="295.476724" style="fill: #c44e52; stroke: #c44e52"/>
     <use xlink:href="#m528c4ceba5" x="296.171901" y="295.47904" style="fill: #c44e52; stroke: #c44e52"/>
     <use xlink:href="#m528c4ceba5" x="298.139504" y="295.481406" style="fill: #c44e52; stroke: #c44e52"/>
     <use xlink:href="#m528c4ceba5" x="300.107107" y="295.48255" style="fill: #c44e52; stroke: #c44e52"/>
     <use xlink:href="#m528c4ceba5" x="302.074711" y="295.483797" style="fill: #c44e52; stroke: #c44e52"/>
     <use xlink:href="#m528c4ceba5" x="304.042314" y="295.4866" style="fill: #c44e52; stroke: #c44e52"/>
     <use xlink:href="#m528c4ceba5" x="306.009917" y="295.488" style="fill: #c44e52; stroke: #c44e52"/>
     <use xlink:href="#m528c4ceba5" x="307.977521" y="295.488" style="fill: #c44e52; stroke: #c44e52"/>
     <use xlink:href="#m528c4ceba5" x="309.945124" y="295.488" style="fill: #c44e52; stroke: #c44e52"/>
     <use xlink:href="#m528c4ceba5" x="311.912727" y="295.488" style="fill: #c44e52; stroke: #c44e52"/>
     <use xlink:href="#m528c4ceba5" x="313.880331" y="295.488" style="fill: #c44e52; stroke: #c44e52"/>
     <use xlink:href="#m528c4ceba5" x="315.847934" y="295.488" style="fill: #c44e52; stroke: #c44e52"/>
     <use xlink:href="#m528c4ceba5" x="317.815537" y="295.488" style="fill: #c44e52; stroke: #c44e52"/>
     <use xlink:href="#m528c4ceba5" x="319.78314" y="295.488" style="fill: #c44e52; stroke: #c44e52"/>
     <use xlink:href="#m528c4ceba5" x="321.750744" y="295.488" style="fill: #c44e52; stroke: #c44e52"/>
     <use xlink:href="#m528c4ceba5" x="323.718347" y="295.488" style="fill: #c44e52; stroke: #c44e52"/>
     <use xlink:href="#m528c4ceba5" x="325.68595" y="295.488" style="fill: #c44e52; stroke: #c44e52"/>
     <use xlink:href="#m528c4ceba5" x="327.653554" y="295.488" style="fill: #c44e52; stroke: #c44e52"/>
     <use xlink:href="#m528c4ceba5" x="329.621157" y="295.488" style="fill: #c44e52; stroke: #c44e52"/>
     <use xlink:href="#m528c4ceba5" x="331.58876" y="295.488" style="fill: #c44e52; stroke: #c44e52"/>
     <use xlink:href="#m528c4ceba5" x="333.556364" y="295.488" style="fill: #c44e52; stroke: #c44e52"/>
     <use xlink:href="#m528c4ceba5" x="335.523967" y="295.488" style="fill: #c44e52; stroke: #c44e52"/>
     <use xlink:href="#m528c4ceba5" x="337.49157" y="295.488" style="fill: #c44e52; stroke: #c44e52"/>
     <use xlink:href="#m528c4ceba5" x="339.459174" y="295.488" style="fill: #c44e52; stroke: #c44e52"/>
     <use xlink:href="#m528c4ceba5" x="341.426777" y="295.488" style="fill: #c44e52; stroke: #c44e52"/>
     <use xlink:href="#m528c4ceba5" x="343.39438" y="295.488" style="fill: #c44e52; stroke: #c44e52"/>
     <use xlink:href="#m528c4ceba5" x="345.361983" y="295.488" style="fill: #c44e52; stroke: #c44e52"/>
     <use xlink:href="#m528c4ceba5" x="347.329587" y="295.488" style="fill: #c44e52; stroke: #c44e52"/>
     <use xlink:href="#m528c4ceba5" x="349.29719" y="295.488" style="fill: #c44e52; stroke: #c44e52"/>
     <use xlink:href="#m528c4ceba5" x="351.264793" y="295.488" style="fill: #c44e52; stroke: #c44e52"/>
     <use xlink:href="#m528c4ceba5" x="353.232397" y="295.488" style="fill: #c44e52; stroke: #c44e52"/>
     <use xlink:href="#m528c4ceba5" x="355.2" y="295.488" style="fill: #c44e52; stroke: #c44e52"/>
     <use xlink:href="#m528c4ceba5" x="357.167603" y="295.488" style="fill: #c44e52; stroke: #c44e52"/>
     <use xlink:href="#m528c4ceba5" x="359.135207" y="295.488" style="fill: #c44e52; stroke: #c44e52"/>
     <use xlink:href="#m528c4ceba5" x="361.10281" y="295.488" style="fill: #c44e52; stroke: #c44e52"/>
     <use xlink:href="#m528c4ceba5" x="363.070413" y="295.488" style="fill: #c44e52; stroke: #c44e52"/>
     <use xlink:href="#m528c4ceba5" x="365.038017" y="295.488" style="fill: #c44e52; stroke: #c44e52"/>
     <use xlink:href="#m528c4ceba5" x="367.00562" y="295.488" style="fill: #c44e52; stroke: #c44e52"/>
     <use xlink:href="#m528c4ceba5" x="368.973223" y="295.488" style="fill: #c44e52; stroke: #c44e52"/>
     <use xlink:href="#m528c4ceba5" x="370.940826" y="295.488" style="fill: #c44e52; stroke: #c44e52"/>
     <use xlink:href="#m528c4ceba5" x="372.90843" y="295.488" style="fill: #c44e52; stroke: #c44e52"/>
     <use xlink:href="#m528c4ceba5" x="374.876033" y="295.488" style="fill: #c44e52; stroke: #c44e52"/>
     <use xlink:href="#m528c4ceba5" x="376.843636" y="295.488" style="fill: #c44e52; stroke: #c44e52"/>
     <use xlink:href="#m528c4ceba5" x="378.81124" y="295.488" style="fill: #c44e52; stroke: #c44e52"/>
     <use xlink:href="#m528c4ceba5" x="380.778843" y="295.488" style="fill: #c44e52; stroke: #c44e52"/>
     <use xlink:href="#m528c4ceba5" x="382.746446" y="295.488" style="fill: #c44e52; stroke: #c44e52"/>
     <use xlink:href="#m528c4ceba5" x="384.71405" y="295.488" style="fill: #c44e52; stroke: #c44e52"/>
     <use xlink:href="#m528c4ceba5" x="386.681653" y="295.488" style="fill: #c44e52; stroke: #c44e52"/>
     <use xlink:href="#m528c4ceba5" x="388.649256" y="295.488" style="fill: #c44e52; stroke: #c44e52"/>
     <use xlink:href="#m528c4ceba5" x="390.61686" y="295.488" style="fill: #c44e52; stroke: #c44e52"/>
     <use xlink:href="#m528c4ceba5" x="392.584463" y="295.488" style="fill: #c44e52; stroke: #c44e52"/>
     <use xlink:href="#m528c4ceba5" x="394.552066" y="295.488" style="fill: #c44e52; stroke: #c44e52"/>
     <use xlink:href="#m528c4ceba5" x="396.519669" y="295.488" style="fill: #c44e52; stroke: #c44e52"/>
     <use xlink:href="#m528c4ceba5" x="398.487273" y="295.488" style="fill: #c44e52; stroke: #c44e52"/>
    </g>
   </g>
   <g id="patch_3">
    <path d="M 57.6 307.584 
L 57.6 41.472 
" style="fill: none; stroke: #ffffff; stroke-width: 1.25; stroke-linejoin: miter; stroke-linecap: square"/>
   </g>
   <g id="patch_4">
    <path d="M 414.72 307.584 
L 414.72 41.472 
" style="fill: none; stroke: #ffffff; stroke-width: 1.25; stroke-linejoin: miter; stroke-linecap: square"/>
   </g>
   <g id="patch_5">
    <path d="M 57.6 307.584 
L 414.72 307.584 
" style="fill: none; stroke: #ffffff; stroke-width: 1.25; stroke-linejoin: miter; stroke-linecap: square"/>
   </g>
   <g id="patch_6">
    <path d="M 57.6 41.472 
L 414.72 41.472 
" style="fill: none; stroke: #ffffff; stroke-width: 1.25; stroke-linejoin: miter; stroke-linecap: square"/>
   </g>
  </g>
 </g>
 <defs>
  <clipPath id="peb6a73fa26">
   <rect x="57.6" y="41.472" width="357.12" height="266.112"/>
  </clipPath>
 </defs>
</svg>
