<?xml version="1.0" encoding="utf-8" standalone="no"?>
<!DOCTYPE svg PUBLIC "-//W3C//DTD SVG 1.1//EN"
  "http://www.w3.org/Graphics/SVG/1.1/DTD/svg11.dtd">
<svg xmlns:xlink="http://www.w3.org/1999/xlink" width="460.8pt" height="345.6pt" viewBox="0 0 460.8 345.6" xmlns="http://www.w3.org/2000/svg" version="1.1">
 <metadata>
  <rdf:RDF xmlns:dc="http://purl.org/dc/elements/1.1/" xmlns:cc="http://creativecommons.org/ns#" xmlns:rdf="http://www.w3.org/1999/02/22-rdf-syntax-ns#">
   <cc:Work>
    <dc:type rdf:resource="http://purl.org/dc/dcmitype/StillImage"/>
    <dc:date>2022-11-30T13:10:25.758777</dc:date>
    <dc:format>image/svg+xml</dc:format>
    <dc:creator>
     <cc:Agent>
      <dc:title>Matplotlib v3.5.2, https://matplotlib.org/</dc:title>
     </cc:Agent>
    </dc:creator>
   </cc:Work>
  </rdf:RDF>
 </metadata>
 <defs>
  <style type="text/css">*{stroke-linejoin: round; stroke-linecap: butt}</style>
 </defs>
 <g id="figure_1">
  <g id="patch_1">
   <path d="M 0 345.6 
L 460.8 345.6 
L 460.8 0 
L 0 0 
z
" style="fill: #ffffff"/>
  </g>
  <g id="axes_1">
   <g id="patch_2">
    <path d="M 57.6 307.584 
L 414.72 307.584 
L 414.72 41.472 
L 57.6 41.472 
z
" style="fill: #eaeaf2"/>
   </g>
   <g id="matplotlib.axis_1">
    <g id="xtick_1">
     <g id="line2d_1">
      <path d="M 71.276392 307.584 
L 71.276392 41.472 
" clip-path="url(#pb5cd4943e7)" style="fill: none; stroke: #ffffff; stroke-linecap: round"/>
     </g>
     <g id="text_1">
      <!-- 0 -->
      <g style="fill: #262626" transform="translate(68.217877 324.957594)scale(0.11 -0.11)">
       <defs>
        <path id="ArialMT-30" d="M 266 2259 
Q 266 3072 433 3567 
Q 600 4063 929 4331 
Q 1259 4600 1759 4600 
Q 2128 4600 2406 4451 
Q 2684 4303 2865 4023 
Q 3047 3744 3150 3342 
Q 3253 2941 3253 2259 
Q 3253 1453 3087 958 
Q 2922 463 2592 192 
Q 2263 -78 1759 -78 
Q 1097 -78 719 397 
Q 266 969 266 2259 
z
M 844 2259 
Q 844 1131 1108 757 
Q 1372 384 1759 384 
Q 2147 384 2411 759 
Q 2675 1134 2675 2259 
Q 2675 3391 2411 3762 
Q 2147 4134 1753 4134 
Q 1366 4134 1134 3806 
Q 844 3388 844 2259 
z
" transform="scale(0.015625)"/>
       </defs>
       <use xlink:href="#ArialMT-30"/>
      </g>
     </g>
    </g>
    <g id="xtick_2">
     <g id="line2d_2">
      <path d="M 122.403092 307.584 
L 122.403092 41.472 
" clip-path="url(#pb5cd4943e7)" style="fill: none; stroke: #ffffff; stroke-linecap: round"/>
     </g>
     <g id="text_2">
      <!-- 20 -->
      <g style="fill: #262626" transform="translate(116.286061 324.957594)scale(0.11 -0.11)">
       <defs>
        <path id="ArialMT-32" d="M 3222 541 
L 3222 0 
L 194 0 
Q 188 203 259 391 
Q 375 700 629 1000 
Q 884 1300 1366 1694 
Q 2113 2306 2375 2664 
Q 2638 3022 2638 3341 
Q 2638 3675 2398 3904 
Q 2159 4134 1775 4134 
Q 1369 4134 1125 3890 
Q 881 3647 878 3216 
L 300 3275 
Q 359 3922 746 4261 
Q 1134 4600 1788 4600 
Q 2447 4600 2831 4234 
Q 3216 3869 3216 3328 
Q 3216 3053 3103 2787 
Q 2991 2522 2730 2228 
Q 2469 1934 1863 1422 
Q 1356 997 1212 845 
Q 1069 694 975 541 
L 3222 541 
z
" transform="scale(0.015625)"/>
       </defs>
       <use xlink:href="#ArialMT-32"/>
       <use xlink:href="#ArialMT-30" x="55.615234"/>
      </g>
     </g>
    </g>
    <g id="xtick_3">
     <g id="line2d_3">
      <path d="M 173.529792 307.584 
L 173.529792 41.472 
" clip-path="url(#pb5cd4943e7)" style="fill: none; stroke: #ffffff; stroke-linecap: round"/>
     </g>
     <g id="text_3">
      <!-- 40 -->
      <g style="fill: #262626" transform="translate(167.412761 324.957594)scale(0.11 -0.11)">
       <defs>
        <path id="ArialMT-34" d="M 2069 0 
L 2069 1097 
L 81 1097 
L 81 1613 
L 2172 4581 
L 2631 4581 
L 2631 1613 
L 3250 1613 
L 3250 1097 
L 2631 1097 
L 2631 0 
L 2069 0 
z
M 2069 1613 
L 2069 3678 
L 634 1613 
L 2069 1613 
z
" transform="scale(0.015625)"/>
       </defs>
       <use xlink:href="#ArialMT-34"/>
       <use xlink:href="#ArialMT-30" x="55.615234"/>
      </g>
     </g>
    </g>
    <g id="xtick_4">
     <g id="line2d_4">
      <path d="M 224.656492 307.584 
L 224.656492 41.472 
" clip-path="url(#pb5cd4943e7)" style="fill: none; stroke: #ffffff; stroke-linecap: round"/>
     </g>
     <g id="text_4">
      <!-- 60 -->
      <g style="fill: #262626" transform="translate(218.539461 324.957594)scale(0.11 -0.11)">
       <defs>
        <path id="ArialMT-36" d="M 3184 3459 
L 2625 3416 
Q 2550 3747 2413 3897 
Q 2184 4138 1850 4138 
Q 1581 4138 1378 3988 
Q 1113 3794 959 3422 
Q 806 3050 800 2363 
Q 1003 2672 1297 2822 
Q 1591 2972 1913 2972 
Q 2475 2972 2870 2558 
Q 3266 2144 3266 1488 
Q 3266 1056 3080 686 
Q 2894 316 2569 119 
Q 2244 -78 1831 -78 
Q 1128 -78 684 439 
Q 241 956 241 2144 
Q 241 3472 731 4075 
Q 1159 4600 1884 4600 
Q 2425 4600 2770 4297 
Q 3116 3994 3184 3459 
z
M 888 1484 
Q 888 1194 1011 928 
Q 1134 663 1356 523 
Q 1578 384 1822 384 
Q 2178 384 2434 671 
Q 2691 959 2691 1453 
Q 2691 1928 2437 2201 
Q 2184 2475 1800 2475 
Q 1419 2475 1153 2201 
Q 888 1928 888 1484 
z
" transform="scale(0.015625)"/>
       </defs>
       <use xlink:href="#ArialMT-36"/>
       <use xlink:href="#ArialMT-30" x="55.615234"/>
      </g>
     </g>
    </g>
    <g id="xtick_5">
     <g id="line2d_5">
      <path d="M 275.783193 307.584 
L 275.783193 41.472 
" clip-path="url(#pb5cd4943e7)" style="fill: none; stroke: #ffffff; stroke-linecap: round"/>
     </g>
     <g id="text_5">
      <!-- 80 -->
      <g style="fill: #262626" transform="translate(269.666161 324.957594)scale(0.11 -0.11)">
       <defs>
        <path id="ArialMT-38" d="M 1131 2484 
Q 781 2613 612 2850 
Q 444 3088 444 3419 
Q 444 3919 803 4259 
Q 1163 4600 1759 4600 
Q 2359 4600 2725 4251 
Q 3091 3903 3091 3403 
Q 3091 3084 2923 2848 
Q 2756 2613 2416 2484 
Q 2838 2347 3058 2040 
Q 3278 1734 3278 1309 
Q 3278 722 2862 322 
Q 2447 -78 1769 -78 
Q 1091 -78 675 323 
Q 259 725 259 1325 
Q 259 1772 486 2073 
Q 713 2375 1131 2484 
z
M 1019 3438 
Q 1019 3113 1228 2906 
Q 1438 2700 1772 2700 
Q 2097 2700 2305 2904 
Q 2513 3109 2513 3406 
Q 2513 3716 2298 3927 
Q 2084 4138 1766 4138 
Q 1444 4138 1231 3931 
Q 1019 3725 1019 3438 
z
M 838 1322 
Q 838 1081 952 856 
Q 1066 631 1291 507 
Q 1516 384 1775 384 
Q 2178 384 2440 643 
Q 2703 903 2703 1303 
Q 2703 1709 2433 1975 
Q 2163 2241 1756 2241 
Q 1359 2241 1098 1978 
Q 838 1716 838 1322 
z
" transform="scale(0.015625)"/>
       </defs>
       <use xlink:href="#ArialMT-38"/>
       <use xlink:href="#ArialMT-30" x="55.615234"/>
      </g>
     </g>
    </g>
    <g id="xtick_6">
     <g id="line2d_6">
      <path d="M 326.909893 307.584 
L 326.909893 41.472 
" clip-path="url(#pb5cd4943e7)" style="fill: none; stroke: #ffffff; stroke-linecap: round"/>
     </g>
     <g id="text_6">
      <!-- 100 -->
      <g style="fill: #262626" transform="translate(317.734346 324.957594)scale(0.11 -0.11)">
       <defs>
        <path id="ArialMT-31" d="M 2384 0 
L 1822 0 
L 1822 3584 
Q 1619 3391 1289 3197 
Q 959 3003 697 2906 
L 697 3450 
Q 1169 3672 1522 3987 
Q 1875 4303 2022 4600 
L 2384 4600 
L 2384 0 
z
" transform="scale(0.015625)"/>
       </defs>
       <use xlink:href="#ArialMT-31"/>
       <use xlink:href="#ArialMT-30" x="55.615234"/>
       <use xlink:href="#ArialMT-30" x="111.230469"/>
      </g>
     </g>
    </g>
    <g id="xtick_7">
     <g id="line2d_7">
      <path d="M 378.036593 307.584 
L 378.036593 41.472 
" clip-path="url(#pb5cd4943e7)" style="fill: none; stroke: #ffffff; stroke-linecap: round"/>
     </g>
     <g id="text_7">
      <!-- 120 -->
      <g style="fill: #262626" transform="translate(368.861046 324.957594)scale(0.11 -0.11)">
       <use xlink:href="#ArialMT-31"/>
       <use xlink:href="#ArialMT-32" x="55.615234"/>
       <use xlink:href="#ArialMT-30" x="111.230469"/>
      </g>
     </g>
    </g>
    <g id="text_8">
     <!-- components -->
     <g style="fill: #262626" transform="translate(203.475937 339.733219)scale(0.12 -0.12)">
      <defs>
       <path id="ArialMT-63" d="M 2588 1216 
L 3141 1144 
Q 3050 572 2676 248 
Q 2303 -75 1759 -75 
Q 1078 -75 664 370 
Q 250 816 250 1647 
Q 250 2184 428 2587 
Q 606 2991 970 3192 
Q 1334 3394 1763 3394 
Q 2303 3394 2647 3120 
Q 2991 2847 3088 2344 
L 2541 2259 
Q 2463 2594 2264 2762 
Q 2066 2931 1784 2931 
Q 1359 2931 1093 2626 
Q 828 2322 828 1663 
Q 828 994 1084 691 
Q 1341 388 1753 388 
Q 2084 388 2306 591 
Q 2528 794 2588 1216 
z
" transform="scale(0.015625)"/>
       <path id="ArialMT-6f" d="M 213 1659 
Q 213 2581 725 3025 
Q 1153 3394 1769 3394 
Q 2453 3394 2887 2945 
Q 3322 2497 3322 1706 
Q 3322 1066 3130 698 
Q 2938 331 2570 128 
Q 2203 -75 1769 -75 
Q 1072 -75 642 372 
Q 213 819 213 1659 
z
M 791 1659 
Q 791 1022 1069 705 
Q 1347 388 1769 388 
Q 2188 388 2466 706 
Q 2744 1025 2744 1678 
Q 2744 2294 2464 2611 
Q 2184 2928 1769 2928 
Q 1347 2928 1069 2612 
Q 791 2297 791 1659 
z
" transform="scale(0.015625)"/>
       <path id="ArialMT-6d" d="M 422 0 
L 422 3319 
L 925 3319 
L 925 2853 
Q 1081 3097 1340 3245 
Q 1600 3394 1931 3394 
Q 2300 3394 2536 3241 
Q 2772 3088 2869 2813 
Q 3263 3394 3894 3394 
Q 4388 3394 4653 3120 
Q 4919 2847 4919 2278 
L 4919 0 
L 4359 0 
L 4359 2091 
Q 4359 2428 4304 2576 
Q 4250 2725 4106 2815 
Q 3963 2906 3769 2906 
Q 3419 2906 3187 2673 
Q 2956 2441 2956 1928 
L 2956 0 
L 2394 0 
L 2394 2156 
Q 2394 2531 2256 2718 
Q 2119 2906 1806 2906 
Q 1569 2906 1367 2781 
Q 1166 2656 1075 2415 
Q 984 2175 984 1722 
L 984 0 
L 422 0 
z
" transform="scale(0.015625)"/>
       <path id="ArialMT-70" d="M 422 -1272 
L 422 3319 
L 934 3319 
L 934 2888 
Q 1116 3141 1344 3267 
Q 1572 3394 1897 3394 
Q 2322 3394 2647 3175 
Q 2972 2956 3137 2557 
Q 3303 2159 3303 1684 
Q 3303 1175 3120 767 
Q 2938 359 2589 142 
Q 2241 -75 1856 -75 
Q 1575 -75 1351 44 
Q 1128 163 984 344 
L 984 -1272 
L 422 -1272 
z
M 931 1641 
Q 931 1000 1190 694 
Q 1450 388 1819 388 
Q 2194 388 2461 705 
Q 2728 1022 2728 1688 
Q 2728 2322 2467 2637 
Q 2206 2953 1844 2953 
Q 1484 2953 1207 2617 
Q 931 2281 931 1641 
z
" transform="scale(0.015625)"/>
       <path id="ArialMT-6e" d="M 422 0 
L 422 3319 
L 928 3319 
L 928 2847 
Q 1294 3394 1984 3394 
Q 2284 3394 2536 3286 
Q 2788 3178 2913 3003 
Q 3038 2828 3088 2588 
Q 3119 2431 3119 2041 
L 3119 0 
L 2556 0 
L 2556 2019 
Q 2556 2363 2490 2533 
Q 2425 2703 2258 2804 
Q 2091 2906 1866 2906 
Q 1506 2906 1245 2678 
Q 984 2450 984 1813 
L 984 0 
L 422 0 
z
" transform="scale(0.015625)"/>
       <path id="ArialMT-65" d="M 2694 1069 
L 3275 997 
Q 3138 488 2766 206 
Q 2394 -75 1816 -75 
Q 1088 -75 661 373 
Q 234 822 234 1631 
Q 234 2469 665 2931 
Q 1097 3394 1784 3394 
Q 2450 3394 2872 2941 
Q 3294 2488 3294 1666 
Q 3294 1616 3291 1516 
L 816 1516 
Q 847 969 1125 678 
Q 1403 388 1819 388 
Q 2128 388 2347 550 
Q 2566 713 2694 1069 
z
M 847 1978 
L 2700 1978 
Q 2663 2397 2488 2606 
Q 2219 2931 1791 2931 
Q 1403 2931 1139 2672 
Q 875 2413 847 1978 
z
" transform="scale(0.015625)"/>
       <path id="ArialMT-74" d="M 1650 503 
L 1731 6 
Q 1494 -44 1306 -44 
Q 1000 -44 831 53 
Q 663 150 594 308 
Q 525 466 525 972 
L 525 2881 
L 113 2881 
L 113 3319 
L 525 3319 
L 525 4141 
L 1084 4478 
L 1084 3319 
L 1650 3319 
L 1650 2881 
L 1084 2881 
L 1084 941 
Q 1084 700 1114 631 
Q 1144 563 1211 522 
Q 1278 481 1403 481 
Q 1497 481 1650 503 
z
" transform="scale(0.015625)"/>
       <path id="ArialMT-73" d="M 197 991 
L 753 1078 
Q 800 744 1014 566 
Q 1228 388 1613 388 
Q 2000 388 2187 545 
Q 2375 703 2375 916 
Q 2375 1106 2209 1216 
Q 2094 1291 1634 1406 
Q 1016 1563 777 1677 
Q 538 1791 414 1992 
Q 291 2194 291 2438 
Q 291 2659 392 2848 
Q 494 3038 669 3163 
Q 800 3259 1026 3326 
Q 1253 3394 1513 3394 
Q 1903 3394 2198 3281 
Q 2494 3169 2634 2976 
Q 2775 2784 2828 2463 
L 2278 2388 
Q 2241 2644 2061 2787 
Q 1881 2931 1553 2931 
Q 1166 2931 1000 2803 
Q 834 2675 834 2503 
Q 834 2394 903 2306 
Q 972 2216 1119 2156 
Q 1203 2125 1616 2013 
Q 2213 1853 2448 1751 
Q 2684 1650 2818 1456 
Q 2953 1263 2953 975 
Q 2953 694 2789 445 
Q 2625 197 2315 61 
Q 2006 -75 1616 -75 
Q 969 -75 630 194 
Q 291 463 197 991 
z
" transform="scale(0.015625)"/>
      </defs>
      <use xlink:href="#ArialMT-63"/>
      <use xlink:href="#ArialMT-6f" x="50"/>
      <use xlink:href="#ArialMT-6d" x="105.615234"/>
      <use xlink:href="#ArialMT-70" x="188.916016"/>
      <use xlink:href="#ArialMT-6f" x="244.53125"/>
      <use xlink:href="#ArialMT-6e" x="300.146484"/>
      <use xlink:href="#ArialMT-65" x="355.761719"/>
      <use xlink:href="#ArialMT-6e" x="411.376953"/>
      <use xlink:href="#ArialMT-74" x="466.992188"/>
      <use xlink:href="#ArialMT-73" x="494.775391"/>
     </g>
    </g>
   </g>
   <g id="matplotlib.axis_2">
    <g id="ytick_1">
     <g id="line2d_8">
      <path d="M 57.6 303.8664 
L 414.72 303.8664 
" clip-path="url(#pb5cd4943e7)" style="fill: none; stroke: #ffffff; stroke-linecap: round"/>
     </g>
     <g id="text_9">
      <!-- 0.00 -->
      <g style="fill: #262626" transform="translate(26.692969 307.803197)scale(0.11 -0.11)">
       <defs>
        <path id="ArialMT-2e" d="M 581 0 
L 581 641 
L 1222 641 
L 1222 0 
L 581 0 
z
" transform="scale(0.015625)"/>
       </defs>
       <use xlink:href="#ArialMT-30"/>
       <use xlink:href="#ArialMT-2e" x="55.615234"/>
       <use xlink:href="#ArialMT-30" x="83.398438"/>
       <use xlink:href="#ArialMT-30" x="139.013672"/>
      </g>
     </g>
    </g>
    <g id="ytick_2">
     <g id="line2d_9">
      <path d="M 57.6 268.384268 
L 414.72 268.384268 
" clip-path="url(#pb5cd4943e7)" style="fill: none; stroke: #ffffff; stroke-linecap: round"/>
     </g>
     <g id="text_10">
      <!-- 0.01 -->
      <g style="fill: #262626" transform="translate(26.692969 272.321065)scale(0.11 -0.11)">
       <use xlink:href="#ArialMT-30"/>
       <use xlink:href="#ArialMT-2e" x="55.615234"/>
       <use xlink:href="#ArialMT-30" x="83.398438"/>
       <use xlink:href="#ArialMT-31" x="139.013672"/>
      </g>
     </g>
    </g>
    <g id="ytick_3">
     <g id="line2d_10">
      <path d="M 57.6 232.902136 
L 414.72 232.902136 
" clip-path="url(#pb5cd4943e7)" style="fill: none; stroke: #ffffff; stroke-linecap: round"/>
     </g>
     <g id="text_11">
      <!-- 0.02 -->
      <g style="fill: #262626" transform="translate(26.692969 236.838933)scale(0.11 -0.11)">
       <use xlink:href="#ArialMT-30"/>
       <use xlink:href="#ArialMT-2e" x="55.615234"/>
       <use xlink:href="#ArialMT-30" x="83.398438"/>
       <use xlink:href="#ArialMT-32" x="139.013672"/>
      </g>
     </g>
    </g>
    <g id="ytick_4">
     <g id="line2d_11">
      <path d="M 57.6 197.420004 
L 414.72 197.420004 
" clip-path="url(#pb5cd4943e7)" style="fill: none; stroke: #ffffff; stroke-linecap: round"/>
     </g>
     <g id="text_12">
      <!-- 0.03 -->
      <g style="fill: #262626" transform="translate(26.692969 201.3568)scale(0.11 -0.11)">
       <defs>
        <path id="ArialMT-33" d="M 269 1209 
L 831 1284 
Q 928 806 1161 595 
Q 1394 384 1728 384 
Q 2125 384 2398 659 
Q 2672 934 2672 1341 
Q 2672 1728 2419 1979 
Q 2166 2231 1775 2231 
Q 1616 2231 1378 2169 
L 1441 2663 
Q 1497 2656 1531 2656 
Q 1891 2656 2178 2843 
Q 2466 3031 2466 3422 
Q 2466 3731 2256 3934 
Q 2047 4138 1716 4138 
Q 1388 4138 1169 3931 
Q 950 3725 888 3313 
L 325 3413 
Q 428 3978 793 4289 
Q 1159 4600 1703 4600 
Q 2078 4600 2393 4439 
Q 2709 4278 2876 4000 
Q 3044 3722 3044 3409 
Q 3044 3113 2884 2869 
Q 2725 2625 2413 2481 
Q 2819 2388 3044 2092 
Q 3269 1797 3269 1353 
Q 3269 753 2831 336 
Q 2394 -81 1725 -81 
Q 1122 -81 723 278 
Q 325 638 269 1209 
z
" transform="scale(0.015625)"/>
       </defs>
       <use xlink:href="#ArialMT-30"/>
       <use xlink:href="#ArialMT-2e" x="55.615234"/>
       <use xlink:href="#ArialMT-30" x="83.398438"/>
       <use xlink:href="#ArialMT-33" x="139.013672"/>
      </g>
     </g>
    </g>
    <g id="ytick_5">
     <g id="line2d_12">
      <path d="M 57.6 161.937872 
L 414.72 161.937872 
" clip-path="url(#pb5cd4943e7)" style="fill: none; stroke: #ffffff; stroke-linecap: round"/>
     </g>
     <g id="text_13">
      <!-- 0.04 -->
      <g style="fill: #262626" transform="translate(26.692969 165.874668)scale(0.11 -0.11)">
       <use xlink:href="#ArialMT-30"/>
       <use xlink:href="#ArialMT-2e" x="55.615234"/>
       <use xlink:href="#ArialMT-30" x="83.398438"/>
       <use xlink:href="#ArialMT-34" x="139.013672"/>
      </g>
     </g>
    </g>
    <g id="ytick_6">
     <g id="line2d_13">
      <path d="M 57.6 126.45574 
L 414.72 126.45574 
" clip-path="url(#pb5cd4943e7)" style="fill: none; stroke: #ffffff; stroke-linecap: round"/>
     </g>
     <g id="text_14">
      <!-- 0.05 -->
      <g style="fill: #262626" transform="translate(26.692969 130.392536)scale(0.11 -0.11)">
       <defs>
        <path id="ArialMT-35" d="M 266 1200 
L 856 1250 
Q 922 819 1161 601 
Q 1400 384 1738 384 
Q 2144 384 2425 690 
Q 2706 997 2706 1503 
Q 2706 1984 2436 2262 
Q 2166 2541 1728 2541 
Q 1456 2541 1237 2417 
Q 1019 2294 894 2097 
L 366 2166 
L 809 4519 
L 3088 4519 
L 3088 3981 
L 1259 3981 
L 1013 2750 
Q 1425 3038 1878 3038 
Q 2478 3038 2890 2622 
Q 3303 2206 3303 1553 
Q 3303 931 2941 478 
Q 2500 -78 1738 -78 
Q 1113 -78 717 272 
Q 322 622 266 1200 
z
" transform="scale(0.015625)"/>
       </defs>
       <use xlink:href="#ArialMT-30"/>
       <use xlink:href="#ArialMT-2e" x="55.615234"/>
       <use xlink:href="#ArialMT-30" x="83.398438"/>
       <use xlink:href="#ArialMT-35" x="139.013672"/>
      </g>
     </g>
    </g>
    <g id="ytick_7">
     <g id="line2d_14">
      <path d="M 57.6 90.973607 
L 414.72 90.973607 
" clip-path="url(#pb5cd4943e7)" style="fill: none; stroke: #ffffff; stroke-linecap: round"/>
     </g>
     <g id="text_15">
      <!-- 0.06 -->
      <g style="fill: #262626" transform="translate(26.692969 94.910404)scale(0.11 -0.11)">
       <use xlink:href="#ArialMT-30"/>
       <use xlink:href="#ArialMT-2e" x="55.615234"/>
       <use xlink:href="#ArialMT-30" x="83.398438"/>
       <use xlink:href="#ArialMT-36" x="139.013672"/>
      </g>
     </g>
    </g>
    <g id="ytick_8">
     <g id="line2d_15">
      <path d="M 57.6 55.491475 
L 414.72 55.491475 
" clip-path="url(#pb5cd4943e7)" style="fill: none; stroke: #ffffff; stroke-linecap: round"/>
     </g>
     <g id="text_16">
      <!-- 0.07 -->
      <g style="fill: #262626" transform="translate(26.692969 59.428272)scale(0.11 -0.11)">
       <defs>
        <path id="ArialMT-37" d="M 303 3981 
L 303 4522 
L 3269 4522 
L 3269 4084 
Q 2831 3619 2401 2847 
Q 1972 2075 1738 1259 
Q 1569 684 1522 0 
L 944 0 
Q 953 541 1156 1306 
Q 1359 2072 1739 2783 
Q 2119 3494 2547 3981 
L 303 3981 
z
" transform="scale(0.015625)"/>
       </defs>
       <use xlink:href="#ArialMT-30"/>
       <use xlink:href="#ArialMT-2e" x="55.615234"/>
       <use xlink:href="#ArialMT-30" x="83.398438"/>
       <use xlink:href="#ArialMT-37" x="139.013672"/>
      </g>
     </g>
    </g>
    <g id="text_17">
     <!-- Proportion of Variance Explained for label_128morgan——30——11_onlymol -->
     <g style="fill: #262626" transform="translate(20.167344 379.413937)rotate(-90)scale(0.12 -0.12)">
      <defs>
       <path id="ArialMT-50" d="M 494 0 
L 494 4581 
L 2222 4581 
Q 2678 4581 2919 4538 
Q 3256 4481 3484 4323 
Q 3713 4166 3852 3881 
Q 3991 3597 3991 3256 
Q 3991 2672 3619 2267 
Q 3247 1863 2275 1863 
L 1100 1863 
L 1100 0 
L 494 0 
z
M 1100 2403 
L 2284 2403 
Q 2872 2403 3119 2622 
Q 3366 2841 3366 3238 
Q 3366 3525 3220 3729 
Q 3075 3934 2838 4000 
Q 2684 4041 2272 4041 
L 1100 4041 
L 1100 2403 
z
" transform="scale(0.015625)"/>
       <path id="ArialMT-72" d="M 416 0 
L 416 3319 
L 922 3319 
L 922 2816 
Q 1116 3169 1280 3281 
Q 1444 3394 1641 3394 
Q 1925 3394 2219 3213 
L 2025 2691 
Q 1819 2813 1613 2813 
Q 1428 2813 1281 2702 
Q 1134 2591 1072 2394 
Q 978 2094 978 1738 
L 978 0 
L 416 0 
z
" transform="scale(0.015625)"/>
       <path id="ArialMT-69" d="M 425 3934 
L 425 4581 
L 988 4581 
L 988 3934 
L 425 3934 
z
M 425 0 
L 425 3319 
L 988 3319 
L 988 0 
L 425 0 
z
" transform="scale(0.015625)"/>
       <path id="ArialMT-20" transform="scale(0.015625)"/>
       <path id="ArialMT-66" d="M 556 0 
L 556 2881 
L 59 2881 
L 59 3319 
L 556 3319 
L 556 3672 
Q 556 4006 616 4169 
Q 697 4388 901 4523 
Q 1106 4659 1475 4659 
Q 1713 4659 2000 4603 
L 1916 4113 
Q 1741 4144 1584 4144 
Q 1328 4144 1222 4034 
Q 1116 3925 1116 3625 
L 1116 3319 
L 1763 3319 
L 1763 2881 
L 1116 2881 
L 1116 0 
L 556 0 
z
" transform="scale(0.015625)"/>
       <path id="ArialMT-56" d="M 1803 0 
L 28 4581 
L 684 4581 
L 1875 1253 
Q 2019 853 2116 503 
Q 2222 878 2363 1253 
L 3600 4581 
L 4219 4581 
L 2425 0 
L 1803 0 
z
" transform="scale(0.015625)"/>
       <path id="ArialMT-61" d="M 2588 409 
Q 2275 144 1986 34 
Q 1697 -75 1366 -75 
Q 819 -75 525 192 
Q 231 459 231 875 
Q 231 1119 342 1320 
Q 453 1522 633 1644 
Q 813 1766 1038 1828 
Q 1203 1872 1538 1913 
Q 2219 1994 2541 2106 
Q 2544 2222 2544 2253 
Q 2544 2597 2384 2738 
Q 2169 2928 1744 2928 
Q 1347 2928 1158 2789 
Q 969 2650 878 2297 
L 328 2372 
Q 403 2725 575 2942 
Q 747 3159 1072 3276 
Q 1397 3394 1825 3394 
Q 2250 3394 2515 3294 
Q 2781 3194 2906 3042 
Q 3031 2891 3081 2659 
Q 3109 2516 3109 2141 
L 3109 1391 
Q 3109 606 3145 398 
Q 3181 191 3288 0 
L 2700 0 
Q 2613 175 2588 409 
z
M 2541 1666 
Q 2234 1541 1622 1453 
Q 1275 1403 1131 1340 
Q 988 1278 909 1158 
Q 831 1038 831 891 
Q 831 666 1001 516 
Q 1172 366 1500 366 
Q 1825 366 2078 508 
Q 2331 650 2450 897 
Q 2541 1088 2541 1459 
L 2541 1666 
z
" transform="scale(0.015625)"/>
       <path id="ArialMT-45" d="M 506 0 
L 506 4581 
L 3819 4581 
L 3819 4041 
L 1113 4041 
L 1113 2638 
L 3647 2638 
L 3647 2100 
L 1113 2100 
L 1113 541 
L 3925 541 
L 3925 0 
L 506 0 
z
" transform="scale(0.015625)"/>
       <path id="ArialMT-78" d="M 47 0 
L 1259 1725 
L 138 3319 
L 841 3319 
L 1350 2541 
Q 1494 2319 1581 2169 
Q 1719 2375 1834 2534 
L 2394 3319 
L 3066 3319 
L 1919 1756 
L 3153 0 
L 2463 0 
L 1781 1031 
L 1600 1309 
L 728 0 
L 47 0 
z
" transform="scale(0.015625)"/>
       <path id="ArialMT-6c" d="M 409 0 
L 409 4581 
L 972 4581 
L 972 0 
L 409 0 
z
" transform="scale(0.015625)"/>
       <path id="ArialMT-64" d="M 2575 0 
L 2575 419 
Q 2259 -75 1647 -75 
Q 1250 -75 917 144 
Q 584 363 401 755 
Q 219 1147 219 1656 
Q 219 2153 384 2558 
Q 550 2963 881 3178 
Q 1213 3394 1622 3394 
Q 1922 3394 2156 3267 
Q 2391 3141 2538 2938 
L 2538 4581 
L 3097 4581 
L 3097 0 
L 2575 0 
z
M 797 1656 
Q 797 1019 1065 703 
Q 1334 388 1700 388 
Q 2069 388 2326 689 
Q 2584 991 2584 1609 
Q 2584 2291 2321 2609 
Q 2059 2928 1675 2928 
Q 1300 2928 1048 2622 
Q 797 2316 797 1656 
z
" transform="scale(0.015625)"/>
       <path id="ArialMT-62" d="M 941 0 
L 419 0 
L 419 4581 
L 981 4581 
L 981 2947 
Q 1338 3394 1891 3394 
Q 2197 3394 2470 3270 
Q 2744 3147 2920 2923 
Q 3097 2700 3197 2384 
Q 3297 2069 3297 1709 
Q 3297 856 2875 390 
Q 2453 -75 1863 -75 
Q 1275 -75 941 416 
L 941 0 
z
M 934 1684 
Q 934 1088 1097 822 
Q 1363 388 1816 388 
Q 2184 388 2453 708 
Q 2722 1028 2722 1663 
Q 2722 2313 2464 2622 
Q 2206 2931 1841 2931 
Q 1472 2931 1203 2611 
Q 934 2291 934 1684 
z
" transform="scale(0.015625)"/>
       <path id="ArialMT-5f" d="M -97 -1272 
L -97 -866 
L 3631 -866 
L 3631 -1272 
L -97 -1272 
z
" transform="scale(0.015625)"/>
       <path id="ArialMT-67" d="M 319 -275 
L 866 -356 
Q 900 -609 1056 -725 
Q 1266 -881 1628 -881 
Q 2019 -881 2231 -725 
Q 2444 -569 2519 -288 
Q 2563 -116 2559 434 
Q 2191 0 1641 0 
Q 956 0 581 494 
Q 206 988 206 1678 
Q 206 2153 378 2554 
Q 550 2956 876 3175 
Q 1203 3394 1644 3394 
Q 2231 3394 2613 2919 
L 2613 3319 
L 3131 3319 
L 3131 450 
Q 3131 -325 2973 -648 
Q 2816 -972 2473 -1159 
Q 2131 -1347 1631 -1347 
Q 1038 -1347 672 -1080 
Q 306 -813 319 -275 
z
M 784 1719 
Q 784 1066 1043 766 
Q 1303 466 1694 466 
Q 2081 466 2343 764 
Q 2606 1063 2606 1700 
Q 2606 2309 2336 2618 
Q 2066 2928 1684 2928 
Q 1309 2928 1046 2623 
Q 784 2319 784 1719 
z
" transform="scale(0.015625)"/>
       <path id="ArialMT-2014" d="M 0 1431 
L 0 1884 
L 6400 1884 
L 6400 1431 
L 0 1431 
z
" transform="scale(0.015625)"/>
       <path id="ArialMT-79" d="M 397 -1278 
L 334 -750 
Q 519 -800 656 -800 
Q 844 -800 956 -737 
Q 1069 -675 1141 -563 
Q 1194 -478 1313 -144 
Q 1328 -97 1363 -6 
L 103 3319 
L 709 3319 
L 1400 1397 
Q 1534 1031 1641 628 
Q 1738 1016 1872 1384 
L 2581 3319 
L 3144 3319 
L 1881 -56 
Q 1678 -603 1566 -809 
Q 1416 -1088 1222 -1217 
Q 1028 -1347 759 -1347 
Q 597 -1347 397 -1278 
z
" transform="scale(0.015625)"/>
      </defs>
      <use xlink:href="#ArialMT-50"/>
      <use xlink:href="#ArialMT-72" x="66.699219"/>
      <use xlink:href="#ArialMT-6f" x="100"/>
      <use xlink:href="#ArialMT-70" x="155.615234"/>
      <use xlink:href="#ArialMT-6f" x="211.230469"/>
      <use xlink:href="#ArialMT-72" x="266.845703"/>
      <use xlink:href="#ArialMT-74" x="300.146484"/>
      <use xlink:href="#ArialMT-69" x="327.929688"/>
      <use xlink:href="#ArialMT-6f" x="350.146484"/>
      <use xlink:href="#ArialMT-6e" x="405.761719"/>
      <use xlink:href="#ArialMT-20" x="461.376953"/>
      <use xlink:href="#ArialMT-6f" x="489.160156"/>
      <use xlink:href="#ArialMT-66" x="544.775391"/>
      <use xlink:href="#ArialMT-20" x="572.558594"/>
      <use xlink:href="#ArialMT-56" x="600.341797"/>
      <use xlink:href="#ArialMT-61" x="659.666016"/>
      <use xlink:href="#ArialMT-72" x="715.28125"/>
      <use xlink:href="#ArialMT-69" x="748.582031"/>
      <use xlink:href="#ArialMT-61" x="770.798828"/>
      <use xlink:href="#ArialMT-6e" x="826.414062"/>
      <use xlink:href="#ArialMT-63" x="882.029297"/>
      <use xlink:href="#ArialMT-65" x="932.029297"/>
      <use xlink:href="#ArialMT-20" x="987.644531"/>
      <use xlink:href="#ArialMT-45" x="1015.427734"/>
      <use xlink:href="#ArialMT-78" x="1082.126953"/>
      <use xlink:href="#ArialMT-70" x="1132.126953"/>
      <use xlink:href="#ArialMT-6c" x="1187.742188"/>
      <use xlink:href="#ArialMT-61" x="1209.958984"/>
      <use xlink:href="#ArialMT-69" x="1265.574219"/>
      <use xlink:href="#ArialMT-6e" x="1287.791016"/>
      <use xlink:href="#ArialMT-65" x="1343.40625"/>
      <use xlink:href="#ArialMT-64" x="1399.021484"/>
      <use xlink:href="#ArialMT-20" x="1454.636719"/>
      <use xlink:href="#ArialMT-66" x="1482.419922"/>
      <use xlink:href="#ArialMT-6f" x="1510.203125"/>
      <use xlink:href="#ArialMT-72" x="1565.818359"/>
      <use xlink:href="#ArialMT-20" x="1599.119141"/>
      <use xlink:href="#ArialMT-6c" x="1626.902344"/>
      <use xlink:href="#ArialMT-61" x="1649.119141"/>
      <use xlink:href="#ArialMT-62" x="1704.734375"/>
      <use xlink:href="#ArialMT-65" x="1760.349609"/>
      <use xlink:href="#ArialMT-6c" x="1815.964844"/>
      <use xlink:href="#ArialMT-5f" x="1838.181641"/>
      <use xlink:href="#ArialMT-31" x="1893.796875"/>
      <use xlink:href="#ArialMT-32" x="1949.412109"/>
      <use xlink:href="#ArialMT-38" x="2005.027344"/>
      <use xlink:href="#ArialMT-6d" x="2060.642578"/>
      <use xlink:href="#ArialMT-6f" x="2143.943359"/>
      <use xlink:href="#ArialMT-72" x="2199.558594"/>
      <use xlink:href="#ArialMT-67" x="2232.859375"/>
      <use xlink:href="#ArialMT-61" x="2288.474609"/>
      <use xlink:href="#ArialMT-6e" x="2344.089844"/>
      <use xlink:href="#ArialMT-2014" x="2399.705078"/>
      <use xlink:href="#ArialMT-2014" x="2499.705078"/>
      <use xlink:href="#ArialMT-33" x="2599.705078"/>
      <use xlink:href="#ArialMT-30" x="2655.320312"/>
      <use xlink:href="#ArialMT-2014" x="2710.935547"/>
      <use xlink:href="#ArialMT-2014" x="2810.935547"/>
      <use xlink:href="#ArialMT-31" x="2910.935547"/>
      <use xlink:href="#ArialMT-31" x="2959.175781"/>
      <use xlink:href="#ArialMT-5f" x="3014.791016"/>
      <use xlink:href="#ArialMT-6f" x="3070.40625"/>
      <use xlink:href="#ArialMT-6e" x="3126.021484"/>
      <use xlink:href="#ArialMT-6c" x="3181.636719"/>
      <use xlink:href="#ArialMT-79" x="3203.853516"/>
      <use xlink:href="#ArialMT-6d" x="3253.853516"/>
      <use xlink:href="#ArialMT-6f" x="3337.154297"/>
      <use xlink:href="#ArialMT-6c" x="3392.769531"/>
     </g>
    </g>
   </g>
   <g id="line2d_16">
    <path d="M 73.832727 53.568 
L 76.389062 266.045486 
L 78.945397 268.404072 
L 81.501732 269.649726 
L 84.058067 270.269022 
L 86.614402 270.6016 
L 89.170737 271.14722 
L 91.727072 271.244521 
L 94.283407 271.501409 
L 96.839742 271.570063 
L 99.396077 272.192394 
L 104.508747 272.389976 
L 107.065082 272.74534 
L 112.177752 272.952265 
L 114.734087 273.337566 
L 119.846757 273.732879 
L 127.515762 274.040076 
L 140.297437 274.552378 
L 153.079112 275.213158 
L 160.748117 275.425661 
L 188.867802 276.607582 
L 196.536807 276.819463 
L 199.093142 276.959611 
L 211.874817 277.162818 
L 214.431152 277.412936 
L 227.212827 277.692171 
L 232.325497 277.854744 
L 234.881832 277.897781 
L 242.550838 278.344422 
L 247.663508 278.481381 
L 255.332513 278.718477 
L 265.557853 279.101003 
L 270.670523 279.207195 
L 275.783193 279.511606 
L 339.691568 281.445323 
L 342.247903 281.643786 
L 349.916908 281.852033 
L 370.367588 282.478063 
L 372.923923 282.67581 
L 388.261933 283.247041 
L 393.374603 283.620751 
L 395.930938 283.700716 
L 398.487273 295.488 
L 398.487273 295.488 
" clip-path="url(#pb5cd4943e7)" style="fill: none; stroke: #c44e52; stroke-width: 1.5; stroke-linecap: round"/>
    <defs>
     <path id="m1f0eff228b" d="M 0 3 
C 0.795609 3 1.55874 2.683901 2.12132 2.12132 
C 2.683901 1.55874 3 0.795609 3 0 
C 3 -0.795609 2.683901 -1.55874 2.12132 -2.12132 
C 1.55874 -2.683901 0.795609 -3 0 -3 
C -0.795609 -3 -1.55874 -2.683901 -2.12132 -2.12132 
C -2.683901 -1.55874 -3 -0.795609 -3 0 
C -3 0.795609 -2.683901 1.55874 -2.12132 2.12132 
C -1.55874 2.683901 -0.795609 3 0 3 
z
" style="stroke: #c44e52"/>
    </defs>
    <g clip-path="url(#pb5cd4943e7)">
     <use xlink:href="#m1f0eff228b" x="73.832727" y="53.568" style="fill: #c44e52; stroke: #c44e52"/>
     <use xlink:href="#m1f0eff228b" x="76.389062" y="266.045486" style="fill: #c44e52; stroke: #c44e52"/>
     <use xlink:href="#m1f0eff228b" x="78.945397" y="268.404072" style="fill: #c44e52; stroke: #c44e52"/>
     <use xlink:href="#m1f0eff228b" x="81.501732" y="269.649726" style="fill: #c44e52; stroke: #c44e52"/>
     <use xlink:href="#m1f0eff228b" x="84.058067" y="270.269022" style="fill: #c44e52; stroke: #c44e52"/>
     <use xlink:href="#m1f0eff228b" x="86.614402" y="270.6016" style="fill: #c44e52; stroke: #c44e52"/>
     <use xlink:href="#m1f0eff228b" x="89.170737" y="271.14722" style="fill: #c44e52; stroke: #c44e52"/>
     <use xlink:href="#m1f0eff228b" x="91.727072" y="271.244521" style="fill: #c44e52; stroke: #c44e52"/>
     <use xlink:href="#m1f0eff228b" x="94.283407" y="271.501409" style="fill: #c44e52; stroke: #c44e52"/>
     <use xlink:href="#m1f0eff228b" x="96.839742" y="271.570063" style="fill: #c44e52; stroke: #c44e52"/>
     <use xlink:href="#m1f0eff228b" x="99.396077" y="272.192394" style="fill: #c44e52; stroke: #c44e52"/>
     <use xlink:href="#m1f0eff228b" x="101.952412" y="272.260868" style="fill: #c44e52; stroke: #c44e52"/>
     <use xlink:href="#m1f0eff228b" x="104.508747" y="272.389976" style="fill: #c44e52; stroke: #c44e52"/>
     <use xlink:href="#m1f0eff228b" x="107.065082" y="272.74534" style="fill: #c44e52; stroke: #c44e52"/>
     <use xlink:href="#m1f0eff228b" x="109.621417" y="272.85229" style="fill: #c44e52; stroke: #c44e52"/>
     <use xlink:href="#m1f0eff228b" x="112.177752" y="272.952265" style="fill: #c44e52; stroke: #c44e52"/>
     <use xlink:href="#m1f0eff228b" x="114.734087" y="273.337566" style="fill: #c44e52; stroke: #c44e52"/>
     <use xlink:href="#m1f0eff228b" x="117.290422" y="273.58614" style="fill: #c44e52; stroke: #c44e52"/>
     <use xlink:href="#m1f0eff228b" x="119.846757" y="273.732879" style="fill: #c44e52; stroke: #c44e52"/>
     <use xlink:href="#m1f0eff228b" x="122.403092" y="273.867402" style="fill: #c44e52; stroke: #c44e52"/>
     <use xlink:href="#m1f0eff228b" x="124.959427" y="273.979098" style="fill: #c44e52; stroke: #c44e52"/>
     <use xlink:href="#m1f0eff228b" x="127.515762" y="274.040076" style="fill: #c44e52; stroke: #c44e52"/>
     <use xlink:href="#m1f0eff228b" x="130.072097" y="274.125791" style="fill: #c44e52; stroke: #c44e52"/>
     <use xlink:href="#m1f0eff228b" x="132.628432" y="274.164201" style="fill: #c44e52; stroke: #c44e52"/>
     <use xlink:href="#m1f0eff228b" x="135.184767" y="274.304768" style="fill: #c44e52; stroke: #c44e52"/>
     <use xlink:href="#m1f0eff228b" x="137.741102" y="274.400333" style="fill: #c44e52; stroke: #c44e52"/>
     <use xlink:href="#m1f0eff228b" x="140.297437" y="274.552378" style="fill: #c44e52; stroke: #c44e52"/>
     <use xlink:href="#m1f0eff228b" x="142.853772" y="274.697503" style="fill: #c44e52; stroke: #c44e52"/>
     <use xlink:href="#m1f0eff228b" x="145.410107" y="274.862882" style="fill: #c44e52; stroke: #c44e52"/>
     <use xlink:href="#m1f0eff228b" x="147.966442" y="275.020382" style="fill: #c44e52; stroke: #c44e52"/>
     <use xlink:href="#m1f0eff228b" x="150.522777" y="275.033694" style="fill: #c44e52; stroke: #c44e52"/>
     <use xlink:href="#m1f0eff228b" x="153.079112" y="275.213158" style="fill: #c44e52; stroke: #c44e52"/>
     <use xlink:href="#m1f0eff228b" x="155.635447" y="275.254093" style="fill: #c44e52; stroke: #c44e52"/>
     <use xlink:href="#m1f0eff228b" x="158.191782" y="275.377749" style="fill: #c44e52; stroke: #c44e52"/>
     <use xlink:href="#m1f0eff228b" x="160.748117" y="275.425661" style="fill: #c44e52; stroke: #c44e52"/>
     <use xlink:href="#m1f0eff228b" x="163.304452" y="275.5373" style="fill: #c44e52; stroke: #c44e52"/>
     <use xlink:href="#m1f0eff228b" x="165.860787" y="275.729614" style="fill: #c44e52; stroke: #c44e52"/>
     <use xlink:href="#m1f0eff228b" x="168.417122" y="275.818603" style="fill: #c44e52; stroke: #c44e52"/>
     <use xlink:href="#m1f0eff228b" x="170.973457" y="275.852201" style="fill: #c44e52; stroke: #c44e52"/>
     <use xlink:href="#m1f0eff228b" x="173.529792" y="275.952268" style="fill: #c44e52; stroke: #c44e52"/>
     <use xlink:href="#m1f0eff228b" x="176.086127" y="276.041875" style="fill: #c44e52; stroke: #c44e52"/>
     <use xlink:href="#m1f0eff228b" x="178.642462" y="276.126827" style="fill: #c44e52; stroke: #c44e52"/>
     <use xlink:href="#m1f0eff228b" x="181.198797" y="276.229665" style="fill: #c44e52; stroke: #c44e52"/>
     <use xlink:href="#m1f0eff228b" x="183.755132" y="276.38151" style="fill: #c44e52; stroke: #c44e52"/>
     <use xlink:href="#m1f0eff228b" x="186.311467" y="276.51259" style="fill: #c44e52; stroke: #c44e52"/>
     <use xlink:href="#m1f0eff228b" x="188.867802" y="276.607582" style="fill: #c44e52; stroke: #c44e52"/>
     <use xlink:href="#m1f0eff228b" x="191.424137" y="276.646518" style="fill: #c44e52; stroke: #c44e52"/>
     <use xlink:href="#m1f0eff228b" x="193.980472" y="276.775258" style="fill: #c44e52; stroke: #c44e52"/>
     <use xlink:href="#m1f0eff228b" x="196.536807" y="276.819463" style="fill: #c44e52; stroke: #c44e52"/>
     <use xlink:href="#m1f0eff228b" x="199.093142" y="276.959611" style="fill: #c44e52; stroke: #c44e52"/>
     <use xlink:href="#m1f0eff228b" x="201.649477" y="276.981031" style="fill: #c44e52; stroke: #c44e52"/>
     <use xlink:href="#m1f0eff228b" x="204.205812" y="277.002362" style="fill: #c44e52; stroke: #c44e52"/>
     <use xlink:href="#m1f0eff228b" x="206.762147" y="277.071257" style="fill: #c44e52; stroke: #c44e52"/>
     <use xlink:href="#m1f0eff228b" x="209.318482" y="277.108314" style="fill: #c44e52; stroke: #c44e52"/>
     <use xlink:href="#m1f0eff228b" x="211.874817" y="277.162818" style="fill: #c44e52; stroke: #c44e52"/>
     <use xlink:href="#m1f0eff228b" x="214.431152" y="277.412936" style="fill: #c44e52; stroke: #c44e52"/>
     <use xlink:href="#m1f0eff228b" x="216.987487" y="277.447672" style="fill: #c44e52; stroke: #c44e52"/>
     <use xlink:href="#m1f0eff228b" x="219.543822" y="277.53231" style="fill: #c44e52; stroke: #c44e52"/>
     <use xlink:href="#m1f0eff228b" x="222.100157" y="277.575355" style="fill: #c44e52; stroke: #c44e52"/>
     <use xlink:href="#m1f0eff228b" x="224.656492" y="277.612669" style="fill: #c44e52; stroke: #c44e52"/>
     <use xlink:href="#m1f0eff228b" x="227.212827" y="277.692171" style="fill: #c44e52; stroke: #c44e52"/>
     <use xlink:href="#m1f0eff228b" x="229.769162" y="277.82017" style="fill: #c44e52; stroke: #c44e52"/>
     <use xlink:href="#m1f0eff228b" x="232.325497" y="277.854744" style="fill: #c44e52; stroke: #c44e52"/>
     <use xlink:href="#m1f0eff228b" x="234.881832" y="277.897781" style="fill: #c44e52; stroke: #c44e52"/>
     <use xlink:href="#m1f0eff228b" x="237.438168" y="278.072492" style="fill: #c44e52; stroke: #c44e52"/>
     <use xlink:href="#m1f0eff228b" x="239.994503" y="278.227334" style="fill: #c44e52; stroke: #c44e52"/>
     <use xlink:href="#m1f0eff228b" x="242.550838" y="278.344422" style="fill: #c44e52; stroke: #c44e52"/>
     <use xlink:href="#m1f0eff228b" x="245.107173" y="278.468362" style="fill: #c44e52; stroke: #c44e52"/>
     <use xlink:href="#m1f0eff228b" x="247.663508" y="278.481381" style="fill: #c44e52; stroke: #c44e52"/>
     <use xlink:href="#m1f0eff228b" x="250.219843" y="278.537798" style="fill: #c44e52; stroke: #c44e52"/>
     <use xlink:href="#m1f0eff228b" x="252.776178" y="278.650253" style="fill: #c44e52; stroke: #c44e52"/>
     <use xlink:href="#m1f0eff228b" x="255.332513" y="278.718477" style="fill: #c44e52; stroke: #c44e52"/>
     <use xlink:href="#m1f0eff228b" x="257.888848" y="278.836783" style="fill: #c44e52; stroke: #c44e52"/>
     <use xlink:href="#m1f0eff228b" x="260.445183" y="278.869339" style="fill: #c44e52; stroke: #c44e52"/>
     <use xlink:href="#m1f0eff228b" x="263.001518" y="279.036961" style="fill: #c44e52; stroke: #c44e52"/>
     <use xlink:href="#m1f0eff228b" x="265.557853" y="279.101003" style="fill: #c44e52; stroke: #c44e52"/>
     <use xlink:href="#m1f0eff228b" x="268.114188" y="279.122088" style="fill: #c44e52; stroke: #c44e52"/>
     <use xlink:href="#m1f0eff228b" x="270.670523" y="279.207195" style="fill: #c44e52; stroke: #c44e52"/>
     <use xlink:href="#m1f0eff228b" x="273.226858" y="279.402293" style="fill: #c44e52; stroke: #c44e52"/>
     <use xlink:href="#m1f0eff228b" x="275.783193" y="279.511606" style="fill: #c44e52; stroke: #c44e52"/>
     <use xlink:href="#m1f0eff228b" x="278.339528" y="279.585697" style="fill: #c44e52; stroke: #c44e52"/>
     <use xlink:href="#m1f0eff228b" x="280.895863" y="279.655949" style="fill: #c44e52; stroke: #c44e52"/>
     <use xlink:href="#m1f0eff228b" x="283.452198" y="279.690629" style="fill: #c44e52; stroke: #c44e52"/>
     <use xlink:href="#m1f0eff228b" x="286.008533" y="279.82889" style="fill: #c44e52; stroke: #c44e52"/>
     <use xlink:href="#m1f0eff228b" x="288.564868" y="279.902027" style="fill: #c44e52; stroke: #c44e52"/>
     <use xlink:href="#m1f0eff228b" x="291.121203" y="279.919263" style="fill: #c44e52; stroke: #c44e52"/>
     <use xlink:href="#m1f0eff228b" x="293.677538" y="280.033305" style="fill: #c44e52; stroke: #c44e52"/>
     <use xlink:href="#m1f0eff228b" x="296.233873" y="280.135386" style="fill: #c44e52; stroke: #c44e52"/>
     <use xlink:href="#m1f0eff228b" x="298.790208" y="280.172077" style="fill: #c44e52; stroke: #c44e52"/>
     <use xlink:href="#m1f0eff228b" x="301.346543" y="280.32241" style="fill: #c44e52; stroke: #c44e52"/>
     <use xlink:href="#m1f0eff228b" x="303.902878" y="280.387801" style="fill: #c44e52; stroke: #c44e52"/>
     <use xlink:href="#m1f0eff228b" x="306.459213" y="280.493277" style="fill: #c44e52; stroke: #c44e52"/>
     <use xlink:href="#m1f0eff228b" x="309.015548" y="280.540329" style="fill: #c44e52; stroke: #c44e52"/>
     <use xlink:href="#m1f0eff228b" x="311.571883" y="280.600168" style="fill: #c44e52; stroke: #c44e52"/>
     <use xlink:href="#m1f0eff228b" x="314.128218" y="280.651216" style="fill: #c44e52; stroke: #c44e52"/>
     <use xlink:href="#m1f0eff228b" x="316.684553" y="280.705794" style="fill: #c44e52; stroke: #c44e52"/>
     <use xlink:href="#m1f0eff228b" x="319.240888" y="280.757001" style="fill: #c44e52; stroke: #c44e52"/>
     <use xlink:href="#m1f0eff228b" x="321.797223" y="280.814497" style="fill: #c44e52; stroke: #c44e52"/>
     <use xlink:href="#m1f0eff228b" x="324.353558" y="280.929444" style="fill: #c44e52; stroke: #c44e52"/>
     <use xlink:href="#m1f0eff228b" x="326.909893" y="280.997384" style="fill: #c44e52; stroke: #c44e52"/>
     <use xlink:href="#m1f0eff228b" x="329.466228" y="281.033689" style="fill: #c44e52; stroke: #c44e52"/>
     <use xlink:href="#m1f0eff228b" x="332.022563" y="281.115875" style="fill: #c44e52; stroke: #c44e52"/>
     <use xlink:href="#m1f0eff228b" x="334.578898" y="281.242643" style="fill: #c44e52; stroke: #c44e52"/>
     <use xlink:href="#m1f0eff228b" x="337.135233" y="281.30651" style="fill: #c44e52; stroke: #c44e52"/>
     <use xlink:href="#m1f0eff228b" x="339.691568" y="281.445323" style="fill: #c44e52; stroke: #c44e52"/>
     <use xlink:href="#m1f0eff228b" x="342.247903" y="281.643786" style="fill: #c44e52; stroke: #c44e52"/>
     <use xlink:href="#m1f0eff228b" x="344.804238" y="281.684146" style="fill: #c44e52; stroke: #c44e52"/>
     <use xlink:href="#m1f0eff228b" x="347.360573" y="281.798466" style="fill: #c44e52; stroke: #c44e52"/>
     <use xlink:href="#m1f0eff228b" x="349.916908" y="281.852033" style="fill: #c44e52; stroke: #c44e52"/>
     <use xlink:href="#m1f0eff228b" x="352.473243" y="281.922815" style="fill: #c44e52; stroke: #c44e52"/>
     <use xlink:href="#m1f0eff228b" x="355.029578" y="281.967552" style="fill: #c44e52; stroke: #c44e52"/>
     <use xlink:href="#m1f0eff228b" x="357.585913" y="282.051258" style="fill: #c44e52; stroke: #c44e52"/>
     <use xlink:href="#m1f0eff228b" x="360.142248" y="282.115101" style="fill: #c44e52; stroke: #c44e52"/>
     <use xlink:href="#m1f0eff228b" x="362.698583" y="282.20083" style="fill: #c44e52; stroke: #c44e52"/>
     <use xlink:href="#m1f0eff228b" x="365.254918" y="282.332708" style="fill: #c44e52; stroke: #c44e52"/>
     <use xlink:href="#m1f0eff228b" x="367.811253" y="282.422779" style="fill: #c44e52; stroke: #c44e52"/>
     <use xlink:href="#m1f0eff228b" x="370.367588" y="282.478063" style="fill: #c44e52; stroke: #c44e52"/>
     <use xlink:href="#m1f0eff228b" x="372.923923" y="282.67581" style="fill: #c44e52; stroke: #c44e52"/>
     <use xlink:href="#m1f0eff228b" x="375.480258" y="282.754534" style="fill: #c44e52; stroke: #c44e52"/>
     <use xlink:href="#m1f0eff228b" x="378.036593" y="282.835356" style="fill: #c44e52; stroke: #c44e52"/>
     <use xlink:href="#m1f0eff228b" x="380.592928" y="282.890943" style="fill: #c44e52; stroke: #c44e52"/>
     <use xlink:href="#m1f0eff228b" x="383.149263" y="283.008251" style="fill: #c44e52; stroke: #c44e52"/>
     <use xlink:href="#m1f0eff228b" x="385.705598" y="283.122058" style="fill: #c44e52; stroke: #c44e52"/>
     <use xlink:href="#m1f0eff228b" x="388.261933" y="283.247041" style="fill: #c44e52; stroke: #c44e52"/>
     <use xlink:href="#m1f0eff228b" x="390.818268" y="283.486111" style="fill: #c44e52; stroke: #c44e52"/>
     <use xlink:href="#m1f0eff228b" x="393.374603" y="283.620751" style="fill: #c44e52; stroke: #c44e52"/>
     <use xlink:href="#m1f0eff228b" x="395.930938" y="283.700716" style="fill: #c44e52; stroke: #c44e52"/>
     <use xlink:href="#m1f0eff228b" x="398.487273" y="295.488" style="fill: #c44e52; stroke: #c44e52"/>
    </g>
   </g>
   <g id="patch_3">
    <path d="M 57.6 307.584 
L 57.6 41.472 
" style="fill: none; stroke: #ffffff; stroke-width: 1.25; stroke-linejoin: miter; stroke-linecap: square"/>
   </g>
   <g id="patch_4">
    <path d="M 414.72 307.584 
L 414.72 41.472 
" style="fill: none; stroke: #ffffff; stroke-width: 1.25; stroke-linejoin: miter; stroke-linecap: square"/>
   </g>
   <g id="patch_5">
    <path d="M 57.6 307.584 
L 414.72 307.584 
" style="fill: none; stroke: #ffffff; stroke-width: 1.25; stroke-linejoin: miter; stroke-linecap: square"/>
   </g>
   <g id="patch_6">
    <path d="M 57.6 41.472 
L 414.72 41.472 
" style="fill: none; stroke: #ffffff; stroke-width: 1.25; stroke-linejoin: miter; stroke-linecap: square"/>
   </g>
  </g>
 </g>
 <defs>
  <clipPath id="pb5cd4943e7">
   <rect x="57.6" y="41.472" width="357.12" height="266.112"/>
  </clipPath>
 </defs>
</svg>
